<?xml version="1.0" encoding="UTF-8" standalone="no"?><svg xmlns="http://www.w3.org/2000/svg" xmlns:xlink="http://www.w3.org/1999/xlink" clip-rule="evenodd" stroke-miterlimit="10" viewBox="0 0 203 38"><desc>SVG generated by Keynote</desc><defs></defs><g transform="matrix(1.00, 0.00, -0.00, -1.00, 0.0, 38.0)"><text xml:space="preserve" font-family="Helvetica,Helvetica" font-size="48.0" fill="#FFFFFF" transform="matrix(1.00, 0.00, -0.00, -1.00, 1.0, 2.5)">2</text><text xml:space="preserve" font-family="Helvetica,Helvetica" font-size="48.0" fill="#FFFFFF" transform="matrix(1.00, 0.00, -0.00, -1.00, 27.7, 2.5)">0</text><text xml:space="preserve" font-family="Helvetica,Helvetica" font-size="48.0" fill="#FFFFFF" transform="matrix(1.00, 0.00, -0.00, -1.00, 54.4, 2.5)">1</text><text xml:space="preserve" font-family="Helvetica,Helvetica" font-size="48.0" fill="#FFFFFF" transform="matrix(1.00, 0.00, -0.00, -1.00, 81.1, 2.5)">5</text><text xml:space="preserve" font-family="Helvetica,Helvetica" font-size="48.0" fill="#FFFFFF" transform="matrix(1.00, 0.00, -0.00, -1.00, 107.8, 2.5)"> </text><text xml:space="preserve" font-family="Helvetica,Helvetica" font-size="48.0" fill="#FFFFFF" transform="matrix(1.00, 0.00, -0.00, -1.00, 121.1, 2.5)"> </text><text xml:space="preserve" font-family="Helvetica,Helvetica" font-size="48.0" fill="#FFFFFF" transform="matrix(1.00, 0.00, -0.00, -1.00, 134.5, 2.5)">.</text><text xml:space="preserve" font-family="Helvetica,Helvetica" font-size="48.0" fill="#FFFFFF" transform="matrix(1.00, 0.00, -0.00, -1.00, 147.8, 2.5)"> </text><text xml:space="preserve" font-family="Helvetica,Helvetica" font-size="48.0" fill="#FFFFFF" transform="matrix(1.00, 0.00, -0.00, -1.00, 161.2, 2.5)">.</text><text xml:space="preserve" font-family="Helvetica,Helvetica" font-size="48.0" fill="#FFFFFF" transform="matrix(1.00, 0.00, -0.00, -1.00, 174.5, 2.5)"> </text><text xml:space="preserve" font-family="Helvetica,Helvetica" font-size="48.0" fill="#FFFFFF" transform="matrix(1.00, 0.00, -0.00, -1.00, 187.9, 2.5)">.</text><text xml:space="preserve" font-family="Helvetica,Helvetica" font-size="48.0" fill="#FFFFFF" transform="matrix(1.00, 0.00, -0.00, -1.00, 201.2, 2.5)"> </text></g></svg>