<?xml version="1.0" encoding="UTF-8" standalone="no"?><svg xmlns="http://www.w3.org/2000/svg" xmlns:xlink="http://www.w3.org/1999/xlink" clip-rule="evenodd" stroke-miterlimit="10" viewBox="0 0 335 130"><desc>SVG generated by Keynote</desc><defs></defs><g transform="matrix(1.00, 0.00, -0.00, -1.00, 0.0, 130.0)"><text xml:space="preserve" font-family="Helvetica-Bold,Helvetica" font-weight="bold" font-size="64.0" fill="#525861" transform="matrix(1.00, 0.00, -0.00, -1.00, -0.0, 79.7)">C</text><text xml:space="preserve" font-family="Helvetica-Bold,Helvetica" font-weight="bold" font-size="64.0" fill="#525861" transform="matrix(1.00, 0.00, -0.00, -1.00, 46.2, 79.7)">O</text><text xml:space="preserve" font-family="Helvetica-Bold,Helvetica" font-weight="bold" font-size="64.0" fill="#525861" transform="matrix(1.00, 0.00, -0.00, -1.00, 96.0, 79.7)">R</text><text xml:space="preserve" font-family="Helvetica-Bold,Helvetica" font-weight="bold" font-size="64.0" fill="#525861" transform="matrix(1.00, 0.00, -0.00, -1.00, 142.2, 79.7)">E</text><text xml:space="preserve" font-family="Helvetica-Bold,Helvetica" font-weight="bold" font-size="64.0" fill="#525861" transform="matrix(1.00, 0.00, -0.00, -1.00, 184.9, 79.7)"> </text><text xml:space="preserve" font-family="Helvetica,Helvetica" font-size="64.0" fill="#525861" transform="matrix(1.00, 0.00, -0.00, -1.00, -0.0, 2.7)">F</text><text xml:space="preserve" font-family="Helvetica,Helvetica" font-size="64.0" fill="#525861" transform="matrix(1.00, 0.00, -0.00, -1.00, 39.0, 2.7)">E</text><text xml:space="preserve" font-family="Helvetica,Helvetica" font-size="64.0" fill="#525861" transform="matrix(1.00, 0.00, -0.00, -1.00, 81.7, 2.7)">A</text><text xml:space="preserve" font-family="Helvetica,Helvetica" font-size="64.0" fill="#525861" transform="matrix(1.00, 0.00, -0.00, -1.00, 119.7, 2.7)">T</text><text xml:space="preserve" font-family="Helvetica,Helvetica" font-size="64.0" fill="#525861" transform="matrix(1.00, 0.00, -0.00, -1.00, 158.8, 2.7)">U</text><text xml:space="preserve" font-family="Helvetica,Helvetica" font-size="64.0" fill="#525861" transform="matrix(1.00, 0.00, -0.00, -1.00, 205.0, 2.7)">R</text><text xml:space="preserve" font-family="Helvetica,Helvetica" font-size="64.0" fill="#525861" transform="matrix(1.00, 0.00, -0.00, -1.00, 251.2, 2.7)">E</text><text xml:space="preserve" font-family="Helvetica,Helvetica" font-size="64.0" fill="#525861" transform="matrix(1.00, 0.00, -0.00, -1.00, 293.9, 2.7)">S</text></g></svg>