<?xml version="1.0" encoding="UTF-8" standalone="no"?><svg xmlns="http://www.w3.org/2000/svg" xmlns:xlink="http://www.w3.org/1999/xlink" clip-rule="evenodd" stroke-miterlimit="10" viewBox="0 0 90 90"><desc>SVG generated by Keynote</desc><defs></defs><g transform="matrix(1.00, 0.00, -0.00, -1.00, 0.0, 90.0)"><path d="M 44.7 9.5 C 25.3 9.5 9.5 25.3 9.5 44.7 C 9.5 64.1 25.3 79.9 44.7 79.9 C 64.1 79.9 79.9 64.1 79.9 44.7 C 79.9 25.3 64.1 9.5 44.7 9.5 Z M 44.7 88.4 C 20.6 88.4 1.0 68.8 1.0 44.7 C 1.0 20.6 20.6 1.0 44.7 1.0 C 68.8 1.0 88.4 20.6 88.4 44.7 C 88.4 68.8 68.8 88.4 44.7 88.4 Z M 44.7 88.4 " fill="#DFE5EA"></path></g></svg>