<?xml version="1.0" encoding="UTF-8" standalone="no"?><svg xmlns="http://www.w3.org/2000/svg" xmlns:xlink="http://www.w3.org/1999/xlink" clip-rule="evenodd" stroke-miterlimit="10" viewBox="0 0 91 90"><desc>SVG generated by Keynote</desc><defs></defs><g transform="matrix(1.00, 0.00, -0.00, -1.00, 0.0, 90.0)"><path d="M 70.2 17.8 C 64.7 17.8 59.9 25.7 57.8 37.0 L 64.7 37.0 C 70.8 37.0 75.6 42.9 75.6 50.5 C 75.6 58.2 70.8 64.0 64.7 64.0 L 57.8 64.0 C 59.9 75.3 64.7 83.3 70.2 83.3 C 77.7 83.3 83.8 68.6 83.8 50.5 C 83.8 32.5 77.7 17.8 70.2 17.8 M 38.0 42.0 L 37.0 42.0 L 37.0 42.4 C 34.0 42.4 32.0 46.0 32.0 50.5 C 32.0 55.1 34.4 59.0 37.4 59.0 L 38.0 59.0 C 43.2 59.0 48.0 60.8 52.2 64.2 C 51.5 59.8 51.1 55.2 51.1 50.5 C 51.1 45.9 51.5 41.2 52.2 36.8 C 48.0 40.3 43.2 42.3 38.0 42.3 M 34.7 6.9 L 24.0 7.0 L 24.0 31.4 C 24.0 33.4 23.2 35.4 22.3 37.0 L 24.0 37.0 L 24.0 37.0 L 32.4 37.0 C 32.1 36.2 32.0 35.1 32.0 34.2 L 32.0 15.0 C 32.0 12.4 33.4 10.7 34.3 9.6 C 34.4 9.5 34.5 9.3 34.7 9.2 C 34.7 9.2 34.7 6.9 34.7 6.9 Z M 7.4 50.5 C 7.4 55.1 9.8 59.0 12.8 59.0 L 32.0 59.0 C 30.3 57.0 29.2 53.9 29.2 50.5 C 29.2 47.2 30.3 44.0 32.0 42.0 L 12.8 42.0 C 9.8 42.0 7.4 46.0 7.4 50.5 M 56.5 50.5 C 56.5 53.4 56.7 56.4 57.0 59.0 L 64.7 59.0 C 67.7 59.0 70.2 55.1 70.2 50.5 C 70.2 46.0 67.7 42.0 64.7 42.0 L 57.0 42.0 C 56.7 44.6 56.5 47.7 56.5 50.5 M 70.2 88.8 C 64.6 88.8 60.2 84.9 57.0 79.0 L 56.9 79.0 C 52.4 70.0 45.5 64.0 38.0 64.0 L 36.2 64.0 L 24.2 64.0 L 12.8 64.0 C 6.7 64.0 1.9 58.2 1.9 50.5 C 1.9 42.9 6.7 36.9 12.8 36.9 C 15.9 36.9 18.0 34.4 18.0 31.4 L 18.0 6.9 C 18.0 3.8 20.7 1.0 23.8 1.0 L 34.7 1.0 C 37.7 1.0 40.0 3.8 40.0 6.9 L 40.0 9.6 C 40.0 12.3 37.0 13.5 37.0 15.0 L 37.0 34.2 C 37.0 34.2 37.4 34.3 37.4 34.3 C 37.5 34.7 37.6 35.1 37.8 35.4 C 37.8 35.5 37.9 35.6 37.9 35.6 C 38.1 36.0 38.4 36.2 38.7 36.4 C 38.8 36.5 38.8 36.5 38.8 36.5 C 38.8 36.5 38.8 36.5 38.8 36.5 C 39.0 36.6 39.3 36.6 39.5 36.7 C 46.4 36.0 52.7 30.4 56.9 22.0 L 57.0 22.0 C 60.2 16.1 64.6 12.3 70.2 12.3 C 82.7 12.3 89.3 31.5 89.3 50.5 C 89.3 69.5 82.7 88.8 70.2 88.8 " fill="#3AC7E2"></path></g></svg>