<?xml version="1.0" encoding="UTF-8" standalone="no"?><svg xmlns="http://www.w3.org/2000/svg" xmlns:xlink="http://www.w3.org/1999/xlink" clip-rule="evenodd" stroke-miterlimit="10" viewBox="0 0 61 62"><desc>SVG generated by Keynote</desc><defs></defs><g transform="matrix(1.00, 0.00, -0.00, -1.00, 0.0, 62.0)"><path d="M 19.1 53.0 L 15.5 59.1 L 18.0 60.5 L 21.5 54.4 C 21.5 54.4 19.1 53.0 19.1 53.0 Z M 10.8 43.7 L 4.6 47.3 L 6.0 49.7 L 12.2 46.1 C 12.2 46.1 10.8 43.7 10.8 43.7 Z M 6.0 15.8 L 4.6 18.3 L 10.8 21.8 L 12.2 19.4 C 12.2 19.4 6.0 15.8 6.0 15.8 Z M 18.0 5.0 L 15.5 6.4 L 19.1 12.5 L 21.5 11.1 C 21.5 11.1 18.0 5.0 18.0 5.0 Z M 43.5 11.1 L 47.0 5.0 C 47.8 5.5 48.6 6.0 49.4 6.6 L 45.9 12.5 C 45.9 12.5 43.5 11.1 43.5 11.1 Z M 52.8 19.4 L 58.0 16.4 C 58.4 17.3 58.8 18.1 59.2 19.0 L 54.2 21.8 C 54.2 21.8 52.8 19.4 52.8 19.4 Z M 1.1 36.3 L 10.0 36.0 L 10.0 29.0 L 1.1 29.0 C 1.1 29.0 1.1 36.3 1.1 36.3 Z M 30.4 10.8 L 36.0 11.0 L 36.0 1.0 L 30.4 1.0 C 30.4 1.0 30.4 10.8 30.4 10.8 Z M 30.4 10.8 " fill="#DFE5EA"></path></g></svg>