<?xml version="1.0" encoding="UTF-8" standalone="no"?><svg xmlns="http://www.w3.org/2000/svg" xmlns:xlink="http://www.w3.org/1999/xlink" clip-rule="evenodd" stroke-miterlimit="10" viewBox="0 0 90 90"><desc>SVG generated by Keynote</desc><defs></defs><g transform="matrix(1.00, 0.00, -0.00, -1.00, 0.0, 90.0)"><path d="M 70.5 8.0 L 47.2 17.3 C 46.6 17.5 46.0 17.6 45.5 17.6 L 81.4 73.3 C 81.4 73.3 70.5 8.0 70.5 8.0 Z M 29.5 23.1 C 29.5 23.1 29.4 23.1 29.4 23.1 L 81.2 78.5 L 37.1 9.8 C 37.1 9.8 29.5 23.1 29.5 23.1 Z M 10.2 32.1 L 73.5 74.3 L 27.5 25.0 C 27.2 25.2 27.0 25.4 26.7 25.5 C 26.7 25.5 10.2 32.1 10.2 32.1 Z M 87.8 88.4 C 87.3 88.7 86.8 88.8 86.3 88.8 C 85.7 88.8 85.2 88.7 84.8 88.4 L 2.9 33.8 C 2.0 33.2 1.6 32.2 1.7 31.2 C 1.8 30.2 2.4 29.3 3.4 29.0 L 24.7 20.4 L 34.8 2.8 C 35.2 2.0 36.1 1.0 37.1 1.0 L 37.1 1.0 C 38.1 1.0 39.0 2.0 39.5 2.8 L 45.1 12.2 L 71.6 1.7 C 71.9 1.5 72.3 1.5 72.6 1.5 C 73.1 1.5 73.5 1.6 74.0 1.8 C 74.7 2.2 75.2 2.9 75.3 3.7 L 89.0 85.7 C 89.1 86.7 88.7 87.8 87.8 88.4 " fill="#41A3E8"></path></g></svg>