<?xml version="1.0" encoding="UTF-8" standalone="no"?><svg xmlns="http://www.w3.org/2000/svg" xmlns:xlink="http://www.w3.org/1999/xlink" clip-rule="evenodd" stroke-miterlimit="10" viewBox="0 0 240 117"><desc>SVG generated by Keynote</desc><defs></defs><g transform="matrix(1.00, 0.00, -0.00, -1.00, 0.0, 117.0)"><text xml:space="preserve" font-family="Helvetica-Bold,Helvetica" font-weight="bold" font-size="25.0" fill="#FFFFFF" transform="matrix(1.00, 0.00, -0.00, -1.00, 28.3, 96.7)">A</text><text xml:space="preserve" font-family="Helvetica-Bold,Helvetica" font-weight="bold" font-size="25.0" fill="#FFFFFF" transform="matrix(1.00, 0.00, -0.00, -1.00, 46.3, 96.7)">b</text><text xml:space="preserve" font-family="Helvetica-Bold,Helvetica" font-weight="bold" font-size="25.0" fill="#FFFFFF" transform="matrix(1.00, 0.00, -0.00, -1.00, 61.6, 96.7)">o</text><text xml:space="preserve" font-family="Helvetica-Bold,Helvetica" font-weight="bold" font-size="25.0" fill="#FFFFFF" transform="matrix(1.00, 0.00, -0.00, -1.00, 76.9, 96.7)">u</text><text xml:space="preserve" font-family="Helvetica-Bold,Helvetica" font-weight="bold" font-size="25.0" fill="#FFFFFF" transform="matrix(1.00, 0.00, -0.00, -1.00, 92.1, 96.7)">t</text><text xml:space="preserve" font-family="Helvetica-Bold,Helvetica" font-weight="bold" font-size="25.0" fill="#FFFFFF" transform="matrix(1.00, 0.00, -0.00, -1.00, 100.5, 96.7)"> </text><text xml:space="preserve" font-family="Helvetica-Bold,Helvetica" font-weight="bold" font-size="25.0" fill="#FFFFFF" transform="matrix(1.00, 0.00, -0.00, -1.00, 107.4, 96.7)">I</text><text xml:space="preserve" font-family="Helvetica-Bold,Helvetica" font-weight="bold" font-size="25.0" fill="#FFFFFF" transform="matrix(1.00, 0.00, -0.00, -1.00, 114.3, 96.7)">N</text><text xml:space="preserve" font-family="Helvetica-Bold,Helvetica" font-weight="bold" font-size="25.0" fill="#FFFFFF" transform="matrix(1.00, 0.00, -0.00, -1.00, 132.4, 96.7)">O</text><text xml:space="preserve" font-family="Helvetica-Bold,Helvetica" font-weight="bold" font-size="25.0" fill="#FFFFFF" transform="matrix(1.00, 0.00, -0.00, -1.00, 151.8, 96.7)">T</text><text xml:space="preserve" font-family="Helvetica-Bold,Helvetica" font-weight="bold" font-size="25.0" fill="#FFFFFF" transform="matrix(1.00, 0.00, -0.00, -1.00, 167.1, 96.7)">I</text><text xml:space="preserve" font-family="Helvetica-Bold,Helvetica" font-weight="bold" font-size="25.0" fill="#FFFFFF" transform="matrix(1.00, 0.00, -0.00, -1.00, 174.0, 96.7)">M</text><text xml:space="preserve" font-family="Helvetica-Bold,Helvetica" font-weight="bold" font-size="25.0" fill="#FFFFFF" transform="matrix(1.00, 0.00, -0.00, -1.00, 194.9, 96.7)">E</text><text xml:space="preserve" font-family="Helvetica,Helvetica" font-size="25.0" fill="#FFFFFF" transform="matrix(1.00, 0.00, -0.00, -1.00, 1.1, 66.7)">O</text><text xml:space="preserve" font-family="Helvetica,Helvetica" font-size="25.0" fill="#FFFFFF" transform="matrix(1.00, 0.00, -0.00, -1.00, 20.6, 66.7)">u</text><text xml:space="preserve" font-family="Helvetica,Helvetica" font-size="25.0" fill="#FFFFFF" transform="matrix(1.00, 0.00, -0.00, -1.00, 34.5, 66.7)">r</text><text xml:space="preserve" font-family="Helvetica,Helvetica" font-size="25.0" fill="#FFFFFF" transform="matrix(1.00, 0.00, -0.00, -1.00, 42.8, 66.7)"> </text><text xml:space="preserve" font-family="Helvetica,Helvetica" font-size="25.0" fill="#FFFFFF" transform="matrix(1.00, 0.00, -0.00, -1.00, 49.7, 66.7)">p</text><text xml:space="preserve" font-family="Helvetica,Helvetica" font-size="25.0" fill="#FFFFFF" transform="matrix(1.00, 0.00, -0.00, -1.00, 63.7, 66.7)">r</text><text xml:space="preserve" font-family="Helvetica,Helvetica" font-size="25.0" fill="#FFFFFF" transform="matrix(1.00, 0.00, -0.00, -1.00, 72.0, 66.7)">o</text><text xml:space="preserve" font-family="Helvetica,Helvetica" font-size="25.0" fill="#FFFFFF" transform="matrix(1.00, 0.00, -0.00, -1.00, 85.9, 66.7)">d</text><text xml:space="preserve" font-family="Helvetica,Helvetica" font-size="25.0" fill="#FFFFFF" transform="matrix(1.00, 0.00, -0.00, -1.00, 99.8, 66.7)">u</text><text xml:space="preserve" font-family="Helvetica,Helvetica" font-size="25.0" fill="#FFFFFF" transform="matrix(1.00, 0.00, -0.00, -1.00, 113.7, 66.7)">c</text><text xml:space="preserve" font-family="Helvetica,Helvetica" font-size="25.0" fill="#FFFFFF" transform="matrix(1.00, 0.00, -0.00, -1.00, 126.2, 66.7)">t</text><text xml:space="preserve" font-family="Helvetica,Helvetica" font-size="25.0" fill="#FFFFFF" transform="matrix(1.00, 0.00, -0.00, -1.00, 133.1, 66.7)"> </text><text xml:space="preserve" font-family="Helvetica,Helvetica" font-size="25.0" fill="#FFFFFF" transform="matrix(1.00, 0.00, -0.00, -1.00, 140.1, 66.7)">(</text><text xml:space="preserve" font-family="Helvetica,Helvetica" font-size="25.0" fill="#FFFFFF" transform="matrix(1.00, 0.00, -0.00, -1.00, 148.4, 66.7)">I</text><text xml:space="preserve" font-family="Helvetica,Helvetica" font-size="25.0" fill="#FFFFFF" transform="matrix(1.00, 0.00, -0.00, -1.00, 155.4, 66.7)">n</text><text xml:space="preserve" font-family="Helvetica,Helvetica" font-size="25.0" fill="#FFFFFF" transform="matrix(1.00, 0.00, -0.00, -1.00, 169.3, 66.7)">o</text><text xml:space="preserve" font-family="Helvetica,Helvetica" font-size="25.0" fill="#FFFFFF" transform="matrix(1.00, 0.00, -0.00, -1.00, 183.2, 66.7)">t</text><text xml:space="preserve" font-family="Helvetica,Helvetica" font-size="25.0" fill="#FFFFFF" transform="matrix(1.00, 0.00, -0.00, -1.00, 190.1, 66.7)">i</text><text xml:space="preserve" font-family="Helvetica,Helvetica" font-size="25.0" fill="#FFFFFF" transform="matrix(1.00, 0.00, -0.00, -1.00, 195.7, 66.7)">m</text><text xml:space="preserve" font-family="Helvetica,Helvetica" font-size="25.0" fill="#FFFFFF" transform="matrix(1.00, 0.00, -0.00, -1.00, 216.5, 66.7)">e</text><text xml:space="preserve" font-family="Helvetica,Helvetica" font-size="25.0" fill="#FFFFFF" transform="matrix(1.00, 0.00, -0.00, -1.00, 230.4, 66.7)">)</text><text xml:space="preserve" font-family="Helvetica,Helvetica" font-size="25.0" fill="#FFFFFF" transform="matrix(1.00, 0.00, -0.00, -1.00, 238.7, 66.7)"> </text><text xml:space="preserve" font-family="Helvetica,Helvetica" font-size="25.0" fill="#FFFFFF" transform="matrix(1.00, 0.00, -0.00, -1.00, 29.6, 36.7)">i</text><text xml:space="preserve" font-family="Helvetica,Helvetica" font-size="25.0" fill="#FFFFFF" transform="matrix(1.00, 0.00, -0.00, -1.00, 35.2, 36.7)">s</text><text xml:space="preserve" font-family="Helvetica,Helvetica" font-size="25.0" fill="#FFFFFF" transform="matrix(1.00, 0.00, -0.00, -1.00, 47.7, 36.7)"> </text><text xml:space="preserve" font-family="Helvetica,Helvetica" font-size="25.0" fill="#FFFFFF" transform="matrix(1.00, 0.00, -0.00, -1.00, 54.6, 36.7)">a</text><text xml:space="preserve" font-family="Helvetica,Helvetica" font-size="25.0" fill="#FFFFFF" transform="matrix(1.00, 0.00, -0.00, -1.00, 68.5, 36.7)">n</text><text xml:space="preserve" font-family="Helvetica,Helvetica" font-size="25.0" fill="#FFFFFF" transform="matrix(1.00, 0.00, -0.00, -1.00, 82.4, 36.7)"> </text><text xml:space="preserve" font-family="Helvetica,Helvetica" font-size="25.0" fill="#FFFFFF" transform="matrix(1.00, 0.00, -0.00, -1.00, 89.4, 36.7)">o</text><text xml:space="preserve" font-family="Helvetica,Helvetica" font-size="25.0" fill="#FFFFFF" transform="matrix(1.00, 0.00, -0.00, -1.00, 103.3, 36.7)">n</text><text xml:space="preserve" font-family="Helvetica,Helvetica" font-size="25.0" fill="#FFFFFF" transform="matrix(1.00, 0.00, -0.00, -1.00, 117.2, 36.7)">l</text><text xml:space="preserve" font-family="Helvetica,Helvetica" font-size="25.0" fill="#FFFFFF" transform="matrix(1.00, 0.00, -0.00, -1.00, 122.7, 36.7)">i</text><text xml:space="preserve" font-family="Helvetica,Helvetica" font-size="25.0" fill="#FFFFFF" transform="matrix(1.00, 0.00, -0.00, -1.00, 128.3, 36.7)">n</text><text xml:space="preserve" font-family="Helvetica,Helvetica" font-size="25.0" fill="#FFFFFF" transform="matrix(1.00, 0.00, -0.00, -1.00, 142.2, 36.7)">e</text><text xml:space="preserve" font-family="Helvetica,Helvetica" font-size="25.0" fill="#FFFFFF" transform="matrix(1.00, 0.00, -0.00, -1.00, 156.1, 36.7)"> </text><text xml:space="preserve" font-family="Helvetica,Helvetica" font-size="25.0" fill="#FFFFFF" transform="matrix(1.00, 0.00, -0.00, -1.00, 163.1, 36.7)">t</text><text xml:space="preserve" font-family="Helvetica,Helvetica" font-size="25.0" fill="#FFFFFF" transform="matrix(1.00, 0.00, -0.00, -1.00, 170.0, 36.7)">i</text><text xml:space="preserve" font-family="Helvetica,Helvetica" font-size="25.0" fill="#FFFFFF" transform="matrix(1.00, 0.00, -0.00, -1.00, 175.6, 36.7)">m</text><text xml:space="preserve" font-family="Helvetica,Helvetica" font-size="25.0" fill="#FFFFFF" transform="matrix(1.00, 0.00, -0.00, -1.00, 196.4, 36.7)">e</text><text xml:space="preserve" font-family="Helvetica,Helvetica" font-size="25.0" fill="#FFFFFF" transform="matrix(1.00, 0.00, -0.00, -1.00, 210.3, 36.7)"> </text><text xml:space="preserve" font-family="Helvetica,Helvetica" font-size="25.0" fill="#FFFFFF" transform="matrix(1.00, 0.00, -0.00, -1.00, 33.1, 6.7)">t</text><text xml:space="preserve" font-family="Helvetica,Helvetica" font-size="25.0" fill="#FFFFFF" transform="matrix(1.00, 0.00, -0.00, -1.00, 40.0, 6.7)">r</text><text xml:space="preserve" font-family="Helvetica,Helvetica" font-size="25.0" fill="#FFFFFF" transform="matrix(1.00, 0.00, -0.00, -1.00, 48.4, 6.7)">a</text><text xml:space="preserve" font-family="Helvetica,Helvetica" font-size="25.0" fill="#FFFFFF" transform="matrix(1.00, 0.00, -0.00, -1.00, 62.3, 6.7)">c</text><text xml:space="preserve" font-family="Helvetica,Helvetica" font-size="25.0" fill="#FFFFFF" transform="matrix(1.00, 0.00, -0.00, -1.00, 74.8, 6.7)">k</text><text xml:space="preserve" font-family="Helvetica,Helvetica" font-size="25.0" fill="#FFFFFF" transform="matrix(1.00, 0.00, -0.00, -1.00, 87.3, 6.7)">i</text><text xml:space="preserve" font-family="Helvetica,Helvetica" font-size="25.0" fill="#FFFFFF" transform="matrix(1.00, 0.00, -0.00, -1.00, 92.8, 6.7)">n</text><text xml:space="preserve" font-family="Helvetica,Helvetica" font-size="25.0" fill="#FFFFFF" transform="matrix(1.00, 0.00, -0.00, -1.00, 106.7, 6.7)">g</text><text xml:space="preserve" font-family="Helvetica,Helvetica" font-size="25.0" fill="#FFFFFF" transform="matrix(1.00, 0.00, -0.00, -1.00, 120.6, 6.7)"> </text><text xml:space="preserve" font-family="Helvetica,Helvetica" font-size="25.0" fill="#FFFFFF" transform="matrix(1.00, 0.00, -0.00, -1.00, 127.6, 6.7)">s</text><text xml:space="preserve" font-family="Helvetica,Helvetica" font-size="25.0" fill="#FFFFFF" transform="matrix(1.00, 0.00, -0.00, -1.00, 140.1, 6.7)">y</text><text xml:space="preserve" font-family="Helvetica,Helvetica" font-size="25.0" fill="#FFFFFF" transform="matrix(1.00, 0.00, -0.00, -1.00, 152.6, 6.7)">s</text><text xml:space="preserve" font-family="Helvetica,Helvetica" font-size="25.0" fill="#FFFFFF" transform="matrix(1.00, 0.00, -0.00, -1.00, 165.1, 6.7)">t</text><text xml:space="preserve" font-family="Helvetica,Helvetica" font-size="25.0" fill="#FFFFFF" transform="matrix(1.00, 0.00, -0.00, -1.00, 172.0, 6.7)">e</text><text xml:space="preserve" font-family="Helvetica,Helvetica" font-size="25.0" fill="#FFFFFF" transform="matrix(1.00, 0.00, -0.00, -1.00, 185.9, 6.7)">m</text></g></svg>