<?xml version="1.0" encoding="UTF-8" standalone="no"?><svg xmlns="http://www.w3.org/2000/svg" xmlns:xlink="http://www.w3.org/1999/xlink" clip-rule="evenodd" stroke-miterlimit="10" viewBox="0 0 782 113"><desc>SVG generated by Keynote</desc><defs></defs><g transform="matrix(1.00, 0.00, -0.00, -1.00, 0.0, 113.0)"><text xml:space="preserve" font-family="Helvetica-Bold,Helvetica" font-weight="bold" font-size="144.0" fill="#FFFFFF" transform="matrix(1.00, 0.00, -0.00, -1.00, -5.2, 4.6)">O</text><text xml:space="preserve" font-family="Helvetica-Bold,Helvetica" font-weight="bold" font-size="144.0" fill="#FFFFFF" transform="matrix(1.00, 0.00, -0.00, -1.00, 106.8, 4.6)">M</text><text xml:space="preserve" font-family="Helvetica-Bold,Helvetica" font-weight="bold" font-size="144.0" fill="#FFFFFF" transform="matrix(1.00, 0.00, -0.00, -1.00, 226.7, 4.6)">N</text><text xml:space="preserve" font-family="Helvetica-Bold,Helvetica" font-weight="bold" font-size="144.0" fill="#FFFFFF" transform="matrix(1.00, 0.00, -0.00, -1.00, 330.7, 4.6)">I</text><text xml:space="preserve" font-family="Helvetica,Helvetica" font-size="144.0" fill="#FFFFFF" transform="matrix(1.00, 0.00, -0.00, -1.00, 370.8, 4.6)">S</text><text xml:space="preserve" font-family="Helvetica,Helvetica" font-size="144.0" fill="#FFFFFF" transform="matrix(1.00, 0.00, -0.00, -1.00, 466.8, 4.6)">L</text><text xml:space="preserve" font-family="Helvetica,Helvetica" font-size="144.0" fill="#FFFFFF" transform="matrix(1.00, 0.00, -0.00, -1.00, 546.9, 4.6)">I</text><text xml:space="preserve" font-family="Helvetica,Helvetica" font-size="144.0" fill="#FFFFFF" transform="matrix(1.00, 0.00, -0.00, -1.00, 586.9, 4.6)">D</text><text xml:space="preserve" font-family="Helvetica,Helvetica" font-size="144.0" fill="#FFFFFF" transform="matrix(1.00, 0.00, -0.00, -1.00, 690.9, 4.6)">E</text></g></svg>