<?xml version="1.0" encoding="UTF-8" standalone="no"?><svg xmlns="http://www.w3.org/2000/svg" xmlns:xlink="http://www.w3.org/1999/xlink" clip-rule="evenodd" stroke-miterlimit="10" viewBox="0 0 1066 173"><desc>SVG generated by Keynote</desc><defs></defs><g transform="matrix(1.00, 0.00, -0.00, -1.00, 0.0, 173.0)"><g><clipPath id="clip0x608000cbe2a0"><path d="M -10.0 74.5 L 1077.0 74.5 L 1077.0 183.5 L -10.0 183.5 Z M -10.0 74.5 "></path></clipPath><g clip-path="url(#clip0x608000cbe2a0)"><text xml:space="preserve" font-family="Helvetica-Bold,Helvetica" font-weight="bold" font-size="64.0" fill="#FFFFFF" transform="matrix(1.00, 0.00, -0.00, -1.00, 171.4, 105.2)">A</text><text xml:space="preserve" font-family="Helvetica-Bold,Helvetica" font-weight="bold" font-size="64.0" fill="#FFFFFF" transform="matrix(1.00, 0.00, -0.00, -1.00, 217.6, 105.2)">B</text><text xml:space="preserve" font-family="Helvetica-Bold,Helvetica" font-weight="bold" font-size="64.0" fill="#FFFFFF" transform="matrix(1.00, 0.00, -0.00, -1.00, 263.8, 105.2)">O</text><text xml:space="preserve" font-family="Helvetica-Bold,Helvetica" font-weight="bold" font-size="64.0" fill="#FFFFFF" transform="matrix(1.00, 0.00, -0.00, -1.00, 313.6, 105.2)">U</text><text xml:space="preserve" font-family="Helvetica-Bold,Helvetica" font-weight="bold" font-size="64.0" fill="#FFFFFF" transform="matrix(1.00, 0.00, -0.00, -1.00, 359.8, 105.2)">T</text><text xml:space="preserve" font-family="Helvetica-Bold,Helvetica" font-weight="bold" font-size="64.0" fill="#FFFFFF" transform="matrix(1.00, 0.00, -0.00, -1.00, 399.0, 105.2)"> </text><text xml:space="preserve" font-family="Helvetica,Helvetica" font-size="64.0" fill="#FFFFFF" transform="matrix(1.00, 0.00, -0.00, -1.00, 416.7, 105.2)">O</text><text xml:space="preserve" font-family="Helvetica,Helvetica" font-size="64.0" fill="#FFFFFF" transform="matrix(1.00, 0.00, -0.00, -1.00, 466.4, 105.2)">U</text><text xml:space="preserve" font-family="Helvetica,Helvetica" font-size="64.0" fill="#FFFFFF" transform="matrix(1.00, 0.00, -0.00, -1.00, 512.7, 105.2)">R</text><text xml:space="preserve" font-family="Helvetica,Helvetica" font-size="64.0" fill="#FFFFFF" transform="matrix(1.00, 0.00, -0.00, -1.00, 558.9, 105.2)"> </text><text xml:space="preserve" font-family="Helvetica,Helvetica" font-size="64.0" fill="#FFFFFF" transform="matrix(1.00, 0.00, -0.00, -1.00, 576.7, 105.2)">C</text><text xml:space="preserve" font-family="Helvetica,Helvetica" font-size="64.0" fill="#FFFFFF" transform="matrix(1.00, 0.00, -0.00, -1.00, 622.9, 105.2)">O</text><text xml:space="preserve" font-family="Helvetica,Helvetica" font-size="64.0" fill="#FFFFFF" transform="matrix(1.00, 0.00, -0.00, -1.00, 672.7, 105.2)">M</text><text xml:space="preserve" font-family="Helvetica,Helvetica" font-size="64.0" fill="#FFFFFF" transform="matrix(1.00, 0.00, -0.00, -1.00, 726.0, 105.2)">P</text><text xml:space="preserve" font-family="Helvetica,Helvetica" font-size="64.0" fill="#FFFFFF" transform="matrix(1.00, 0.00, -0.00, -1.00, 764.0, 105.2)">A</text><text xml:space="preserve" font-family="Helvetica,Helvetica" font-size="64.0" fill="#FFFFFF" transform="matrix(1.00, 0.00, -0.00, -1.00, 806.6, 105.2)">N</text><text xml:space="preserve" font-family="Helvetica,Helvetica" font-size="64.0" fill="#FFFFFF" transform="matrix(1.00, 0.00, -0.00, -1.00, 852.9, 105.2)">Y</text></g></g><g><clipPath id="clip0x608000cad500"><path d="M -2.0 -3.0 L 1069.0 -3.0 L 1069.0 51.0 L -2.0 51.0 Z M -2.0 -3.0 "></path></clipPath><g clip-path="url(#clip0x608000cad500)"><text xml:space="preserve" font-family="Helvetica,Helvetica" font-size="32.0" fill="#FFFFFF" transform="matrix(1.00, 0.00, -0.00, -1.00, 404.5, 12.4)">S</text><text xml:space="preserve" font-family="Helvetica,Helvetica" font-size="32.0" fill="#FFFFFF" transform="matrix(1.00, 0.00, -0.00, -1.00, 425.9, 12.4)">u</text><text xml:space="preserve" font-family="Helvetica,Helvetica" font-size="32.0" fill="#FFFFFF" transform="matrix(1.00, 0.00, -0.00, -1.00, 443.7, 12.4)">b</text><text xml:space="preserve" font-family="Helvetica,Helvetica" font-size="32.0" fill="#FFFFFF" transform="matrix(1.00, 0.00, -0.00, -1.00, 461.5, 12.4)">t</text><text xml:space="preserve" font-family="Helvetica,Helvetica" font-size="32.0" fill="#FFFFFF" transform="matrix(1.00, 0.00, -0.00, -1.00, 470.4, 12.4)">i</text><text xml:space="preserve" font-family="Helvetica,Helvetica" font-size="32.0" fill="#FFFFFF" transform="matrix(1.00, 0.00, -0.00, -1.00, 477.5, 12.4)">t</text><text xml:space="preserve" font-family="Helvetica,Helvetica" font-size="32.0" fill="#FFFFFF" transform="matrix(1.00, 0.00, -0.00, -1.00, 486.4, 12.4)">l</text><text xml:space="preserve" font-family="Helvetica,Helvetica" font-size="32.0" fill="#FFFFFF" transform="matrix(1.00, 0.00, -0.00, -1.00, 493.5, 12.4)">e</text><text xml:space="preserve" font-family="Helvetica,Helvetica" font-size="32.0" fill="#FFFFFF" transform="matrix(1.00, 0.00, -0.00, -1.00, 511.3, 12.4)"> </text><text xml:space="preserve" font-family="Helvetica,Helvetica" font-size="32.0" fill="#FFFFFF" transform="matrix(1.00, 0.00, -0.00, -1.00, 520.2, 12.4)">g</text><text xml:space="preserve" font-family="Helvetica,Helvetica" font-size="32.0" fill="#FFFFFF" transform="matrix(1.00, 0.00, -0.00, -1.00, 538.0, 12.4)">o</text><text xml:space="preserve" font-family="Helvetica,Helvetica" font-size="32.0" fill="#FFFFFF" transform="matrix(1.00, 0.00, -0.00, -1.00, 555.8, 12.4)">e</text><text xml:space="preserve" font-family="Helvetica,Helvetica" font-size="32.0" fill="#FFFFFF" transform="matrix(1.00, 0.00, -0.00, -1.00, 573.6, 12.4)">s</text><text xml:space="preserve" font-family="Helvetica,Helvetica" font-size="32.0" fill="#FFFFFF" transform="matrix(1.00, 0.00, -0.00, -1.00, 589.6, 12.4)"> </text><text xml:space="preserve" font-family="Helvetica,Helvetica" font-size="32.0" fill="#FFFFFF" transform="matrix(1.00, 0.00, -0.00, -1.00, 598.5, 12.4)">h</text><text xml:space="preserve" font-family="Helvetica,Helvetica" font-size="32.0" fill="#FFFFFF" transform="matrix(1.00, 0.00, -0.00, -1.00, 616.3, 12.4)">e</text><text xml:space="preserve" font-family="Helvetica,Helvetica" font-size="32.0" fill="#FFFFFF" transform="matrix(1.00, 0.00, -0.00, -1.00, 634.1, 12.4)">r</text><text xml:space="preserve" font-family="Helvetica,Helvetica" font-size="32.0" fill="#FFFFFF" transform="matrix(1.00, 0.00, -0.00, -1.00, 644.7, 12.4)">e</text></g></g></g></svg>