<?xml version="1.0" encoding="UTF-8" standalone="no"?><svg xmlns="http://www.w3.org/2000/svg" xmlns:xlink="http://www.w3.org/1999/xlink" clip-rule="evenodd" stroke-miterlimit="10" viewBox="0 0 49 49"><desc>SVG generated by Keynote</desc><defs></defs><g transform="matrix(1.00, 0.00, -0.00, -1.00, 0.0, 49.0)"><path d="M 2.0 11.2 L 2.0 37.8 C 2.0 42.9 6.1 47.0 11.2 47.0 L 37.8 47.0 C 42.9 47.0 47.0 42.9 47.0 37.8 L 47.0 11.2 C 47.0 6.1 42.9 2.0 37.8 2.0 L 11.2 2.0 C 6.1 2.0 2.0 6.1 2.0 11.2 Z M 2.0 11.2 " fill="#2DCBB1"></path><path d="M 0.0 35.8 L 0.0 9.2 C 0.0 4.1 4.1 0.0 9.2 0.0 L 35.8 0.0 C 40.9 0.0 45.0 4.1 45.0 9.2 L 45.0 35.8 C 45.0 40.9 40.9 45.0 35.8 45.0 L 9.2 45.0 C 4.1 45.0 0.0 40.9 0.0 35.8 Z M 0.0 35.8 " fill="none" stroke="#000000" stroke-opacity="0.00" stroke-width="2.00" transform="matrix(1.00, 0.00, 0.00, -1.00, 2.0, 47.0)"></path></g></svg>