<?xml version="1.0" encoding="UTF-8" standalone="no"?><svg xmlns="http://www.w3.org/2000/svg" xmlns:xlink="http://www.w3.org/1999/xlink" clip-rule="evenodd" stroke-miterlimit="10" viewBox="0 0 572 52"><desc>SVG generated by Keynote</desc><defs></defs><g transform="matrix(1.00, 0.00, -0.00, -1.00, 0.0, 52.0)"><text xml:space="preserve" font-family="Helvetica-Bold,Helvetica" font-weight="bold" font-size="64.0" fill="#525861" transform="matrix(1.00, 0.00, -0.00, -1.00, -0.0, 2.7)">S</text><text xml:space="preserve" font-family="Helvetica-Bold,Helvetica" font-weight="bold" font-size="64.0" fill="#525861" transform="matrix(1.00, 0.00, -0.00, -1.00, 42.6, 2.7)">T</text><text xml:space="preserve" font-family="Helvetica-Bold,Helvetica" font-weight="bold" font-size="64.0" fill="#525861" transform="matrix(1.00, 0.00, -0.00, -1.00, 77.0, 2.7)">A</text><text xml:space="preserve" font-family="Helvetica-Bold,Helvetica" font-weight="bold" font-size="64.0" fill="#525861" transform="matrix(1.00, 0.00, -0.00, -1.00, 123.2, 2.7)">C</text><text xml:space="preserve" font-family="Helvetica-Bold,Helvetica" font-weight="bold" font-size="64.0" fill="#525861" transform="matrix(1.00, 0.00, -0.00, -1.00, 169.5, 2.7)">K</text><text xml:space="preserve" font-family="Helvetica-Bold,Helvetica" font-weight="bold" font-size="64.0" fill="#525861" transform="matrix(1.00, 0.00, -0.00, -1.00, 215.7, 2.7)">S</text><text xml:space="preserve" font-family="Helvetica-Bold,Helvetica" font-weight="bold" font-size="64.0" fill="#525861" transform="matrix(1.00, 0.00, -0.00, -1.00, 258.4, 2.7)"> </text><text xml:space="preserve" font-family="Helvetica,Helvetica" font-size="64.0" fill="#525861" transform="matrix(1.00, 0.00, -0.00, -1.00, 276.1, 2.7)">D</text><text xml:space="preserve" font-family="Helvetica,Helvetica" font-size="64.0" fill="#525861" transform="matrix(1.00, 0.00, -0.00, -1.00, 322.4, 2.7)">I</text><text xml:space="preserve" font-family="Helvetica,Helvetica" font-size="64.0" fill="#525861" transform="matrix(1.00, 0.00, -0.00, -1.00, 340.1, 2.7)">A</text><text xml:space="preserve" font-family="Helvetica,Helvetica" font-size="64.0" fill="#525861" transform="matrix(1.00, 0.00, -0.00, -1.00, 382.8, 2.7)">G</text><text xml:space="preserve" font-family="Helvetica,Helvetica" font-size="64.0" fill="#525861" transform="matrix(1.00, 0.00, -0.00, -1.00, 432.6, 2.7)">R</text><text xml:space="preserve" font-family="Helvetica,Helvetica" font-size="64.0" fill="#525861" transform="matrix(1.00, 0.00, -0.00, -1.00, 478.8, 2.7)">A</text><text xml:space="preserve" font-family="Helvetica,Helvetica" font-size="64.0" fill="#525861" transform="matrix(1.00, 0.00, -0.00, -1.00, 521.5, 2.7)">M</text></g></svg>