<?xml version="1.0" encoding="UTF-8" standalone="no"?><svg xmlns="http://www.w3.org/2000/svg" xmlns:xlink="http://www.w3.org/1999/xlink" clip-rule="evenodd" stroke-miterlimit="10" viewBox="0 0 469 83"><desc>SVG generated by Keynote</desc><defs></defs><g transform="matrix(1.00, 0.00, -0.00, -1.00, 0.0, 83.0)"><text xml:space="preserve" font-family="Helvetica-Bold,Helvetica" font-weight="bold" font-size="24.0" fill="#5F5F5F" transform="matrix(1.00, 0.00, -0.00, -1.00, 1.0, 64.5)">T</text><text xml:space="preserve" font-family="Helvetica-Bold,Helvetica" font-weight="bold" font-size="24.0" fill="#5F5F5F" transform="matrix(1.00, 0.00, -0.00, -1.00, 13.4, 64.5)">e</text><text xml:space="preserve" font-family="Helvetica-Bold,Helvetica" font-weight="bold" font-size="24.0" fill="#5F5F5F" transform="matrix(1.00, 0.00, -0.00, -1.00, 26.3, 64.5)">x</text><text xml:space="preserve" font-family="Helvetica-Bold,Helvetica" font-weight="bold" font-size="24.0" fill="#5F5F5F" transform="matrix(1.00, 0.00, -0.00, -1.00, 39.1, 64.5)">t</text><text xml:space="preserve" font-family="Helvetica-Bold,Helvetica" font-weight="bold" font-size="24.0" fill="#5F5F5F" transform="matrix(1.00, 0.00, -0.00, -1.00, 46.7, 64.5)"> </text><text xml:space="preserve" font-family="Helvetica-Bold,Helvetica" font-weight="bold" font-size="24.0" fill="#5F5F5F" transform="matrix(1.00, 0.00, -0.00, -1.00, 52.9, 64.5)">g</text><text xml:space="preserve" font-family="Helvetica-Bold,Helvetica" font-weight="bold" font-size="24.0" fill="#5F5F5F" transform="matrix(1.00, 0.00, -0.00, -1.00, 67.0, 64.5)">o</text><text xml:space="preserve" font-family="Helvetica-Bold,Helvetica" font-weight="bold" font-size="24.0" fill="#5F5F5F" transform="matrix(1.00, 0.00, -0.00, -1.00, 81.2, 64.5)">e</text><text xml:space="preserve" font-family="Helvetica-Bold,Helvetica" font-weight="bold" font-size="24.0" fill="#5F5F5F" transform="matrix(1.00, 0.00, -0.00, -1.00, 94.1, 64.5)">s</text><text xml:space="preserve" font-family="Helvetica-Bold,Helvetica" font-weight="bold" font-size="24.0" fill="#5F5F5F" transform="matrix(1.00, 0.00, -0.00, -1.00, 107.0, 64.5)"> </text><text xml:space="preserve" font-family="Helvetica-Bold,Helvetica" font-weight="bold" font-size="24.0" fill="#5F5F5F" transform="matrix(1.00, 0.00, -0.00, -1.00, 113.1, 64.5)">h</text><text xml:space="preserve" font-family="Helvetica-Bold,Helvetica" font-weight="bold" font-size="24.0" fill="#5F5F5F" transform="matrix(1.00, 0.00, -0.00, -1.00, 127.3, 64.5)">e</text><text xml:space="preserve" font-family="Helvetica-Bold,Helvetica" font-weight="bold" font-size="24.0" fill="#5F5F5F" transform="matrix(1.00, 0.00, -0.00, -1.00, 140.2, 64.5)">r</text><text xml:space="preserve" font-family="Helvetica-Bold,Helvetica" font-weight="bold" font-size="24.0" fill="#5F5F5F" transform="matrix(1.00, 0.00, -0.00, -1.00, 149.1, 64.5)">e</text><text xml:space="preserve" font-family="Helvetica,Helvetica" font-size="24.0" fill="#7A7A7A" transform="matrix(1.00, 0.00, -0.00, -1.00, 1.0, 35.5)">N</text><text xml:space="preserve" font-family="Helvetica,Helvetica" font-size="24.0" fill="#7A7A7A" transform="matrix(1.00, 0.00, -0.00, -1.00, 17.9, 35.5)">u</text><text xml:space="preserve" font-family="Helvetica,Helvetica" font-size="24.0" fill="#7A7A7A" transform="matrix(1.00, 0.00, -0.00, -1.00, 30.7, 35.5)">l</text><text xml:space="preserve" font-family="Helvetica,Helvetica" font-size="24.0" fill="#7A7A7A" transform="matrix(1.00, 0.00, -0.00, -1.00, 35.6, 35.5)">l</text><text xml:space="preserve" font-family="Helvetica,Helvetica" font-size="24.0" fill="#7A7A7A" transform="matrix(1.00, 0.00, -0.00, -1.00, 40.4, 35.5)">a</text><text xml:space="preserve" font-family="Helvetica,Helvetica" font-size="24.0" fill="#7A7A7A" transform="matrix(1.00, 0.00, -0.00, -1.00, 53.3, 35.5)">m</text><text xml:space="preserve" font-family="Helvetica,Helvetica" font-size="24.0" fill="#7A7A7A" transform="matrix(1.00, 0.00, -0.00, -1.00, 72.8, 35.5)"> </text><text xml:space="preserve" font-family="Helvetica,Helvetica" font-size="24.0" fill="#7A7A7A" transform="matrix(1.00, 0.00, -0.00, -1.00, 79.0, 35.5)">q</text><text xml:space="preserve" font-family="Helvetica,Helvetica" font-size="24.0" fill="#7A7A7A" transform="matrix(1.00, 0.00, -0.00, -1.00, 91.9, 35.5)">u</text><text xml:space="preserve" font-family="Helvetica,Helvetica" font-size="24.0" fill="#7A7A7A" transform="matrix(1.00, 0.00, -0.00, -1.00, 104.8, 35.5)">i</text><text xml:space="preserve" font-family="Helvetica,Helvetica" font-size="24.0" fill="#7A7A7A" transform="matrix(1.00, 0.00, -0.00, -1.00, 109.6, 35.5)">s</text><text xml:space="preserve" font-family="Helvetica,Helvetica" font-size="24.0" fill="#7A7A7A" transform="matrix(1.00, 0.00, -0.00, -1.00, 121.2, 35.5)"> </text><text xml:space="preserve" font-family="Helvetica,Helvetica" font-size="24.0" fill="#7A7A7A" transform="matrix(1.00, 0.00, -0.00, -1.00, 127.3, 35.5)">r</text><text xml:space="preserve" font-family="Helvetica,Helvetica" font-size="24.0" fill="#7A7A7A" transform="matrix(1.00, 0.00, -0.00, -1.00, 134.9, 35.5)">i</text><text xml:space="preserve" font-family="Helvetica,Helvetica" font-size="24.0" fill="#7A7A7A" transform="matrix(1.00, 0.00, -0.00, -1.00, 139.7, 35.5)">s</text><text xml:space="preserve" font-family="Helvetica,Helvetica" font-size="24.0" fill="#7A7A7A" transform="matrix(1.00, 0.00, -0.00, -1.00, 151.2, 35.5)">u</text><text xml:space="preserve" font-family="Helvetica,Helvetica" font-size="24.0" fill="#7A7A7A" transform="matrix(1.00, 0.00, -0.00, -1.00, 164.1, 35.5)">s</text><text xml:space="preserve" font-family="Helvetica,Helvetica" font-size="24.0" fill="#7A7A7A" transform="matrix(1.00, 0.00, -0.00, -1.00, 175.6, 35.5)"> </text><text xml:space="preserve" font-family="Helvetica,Helvetica" font-size="24.0" fill="#7A7A7A" transform="matrix(1.00, 0.00, -0.00, -1.00, 181.8, 35.5)">e</text><text xml:space="preserve" font-family="Helvetica,Helvetica" font-size="24.0" fill="#7A7A7A" transform="matrix(1.00, 0.00, -0.00, -1.00, 194.7, 35.5)">g</text><text xml:space="preserve" font-family="Helvetica,Helvetica" font-size="24.0" fill="#7A7A7A" transform="matrix(1.00, 0.00, -0.00, -1.00, 207.6, 35.5)">e</text><text xml:space="preserve" font-family="Helvetica,Helvetica" font-size="24.0" fill="#7A7A7A" transform="matrix(1.00, 0.00, -0.00, -1.00, 220.5, 35.5)">t</text><text xml:space="preserve" font-family="Helvetica,Helvetica" font-size="24.0" fill="#7A7A7A" transform="matrix(1.00, 0.00, -0.00, -1.00, 226.6, 35.5)"> </text><text xml:space="preserve" font-family="Helvetica,Helvetica" font-size="24.0" fill="#7A7A7A" transform="matrix(1.00, 0.00, -0.00, -1.00, 232.8, 35.5)">u</text><text xml:space="preserve" font-family="Helvetica,Helvetica" font-size="24.0" fill="#7A7A7A" transform="matrix(1.00, 0.00, -0.00, -1.00, 245.7, 35.5)">r</text><text xml:space="preserve" font-family="Helvetica,Helvetica" font-size="24.0" fill="#7A7A7A" transform="matrix(1.00, 0.00, -0.00, -1.00, 253.2, 35.5)">n</text><text xml:space="preserve" font-family="Helvetica,Helvetica" font-size="24.0" fill="#7A7A7A" transform="matrix(1.00, 0.00, -0.00, -1.00, 266.1, 35.5)">a</text><text xml:space="preserve" font-family="Helvetica,Helvetica" font-size="24.0" fill="#7A7A7A" transform="matrix(1.00, 0.00, -0.00, -1.00, 279.0, 35.5)"> </text><text xml:space="preserve" font-family="Helvetica,Helvetica" font-size="24.0" fill="#7A7A7A" transform="matrix(1.00, 0.00, -0.00, -1.00, 285.2, 35.5)">m</text><text xml:space="preserve" font-family="Helvetica,Helvetica" font-size="24.0" fill="#7A7A7A" transform="matrix(1.00, 0.00, -0.00, -1.00, 304.7, 35.5)">o</text><text xml:space="preserve" font-family="Helvetica,Helvetica" font-size="24.0" fill="#7A7A7A" transform="matrix(1.00, 0.00, -0.00, -1.00, 317.6, 35.5)">l</text><text xml:space="preserve" font-family="Helvetica,Helvetica" font-size="24.0" fill="#7A7A7A" transform="matrix(1.00, 0.00, -0.00, -1.00, 322.4, 35.5)">l</text><text xml:space="preserve" font-family="Helvetica,Helvetica" font-size="24.0" fill="#7A7A7A" transform="matrix(1.00, 0.00, -0.00, -1.00, 327.3, 35.5)">i</text><text xml:space="preserve" font-family="Helvetica,Helvetica" font-size="24.0" fill="#7A7A7A" transform="matrix(1.00, 0.00, -0.00, -1.00, 332.1, 35.5)">s</text><text xml:space="preserve" font-family="Helvetica,Helvetica" font-size="24.0" fill="#7A7A7A" transform="matrix(1.00, 0.00, -0.00, -1.00, 343.6, 35.5)"> </text><text xml:space="preserve" font-family="Helvetica,Helvetica" font-size="24.0" fill="#7A7A7A" transform="matrix(1.00, 0.00, -0.00, -1.00, 349.8, 35.5)">o</text><text xml:space="preserve" font-family="Helvetica,Helvetica" font-size="24.0" fill="#7A7A7A" transform="matrix(1.00, 0.00, -0.00, -1.00, 362.7, 35.5)">r</text><text xml:space="preserve" font-family="Helvetica,Helvetica" font-size="24.0" fill="#7A7A7A" transform="matrix(1.00, 0.00, -0.00, -1.00, 370.2, 35.5)">n</text><text xml:space="preserve" font-family="Helvetica,Helvetica" font-size="24.0" fill="#7A7A7A" transform="matrix(1.00, 0.00, -0.00, -1.00, 383.1, 35.5)">a</text><text xml:space="preserve" font-family="Helvetica,Helvetica" font-size="24.0" fill="#7A7A7A" transform="matrix(1.00, 0.00, -0.00, -1.00, 396.0, 35.5)">r</text><text xml:space="preserve" font-family="Helvetica,Helvetica" font-size="24.0" fill="#7A7A7A" transform="matrix(1.00, 0.00, -0.00, -1.00, 403.5, 35.5)">e</text><text xml:space="preserve" font-family="Helvetica,Helvetica" font-size="24.0" fill="#7A7A7A" transform="matrix(1.00, 0.00, -0.00, -1.00, 416.4, 35.5)"> </text><text xml:space="preserve" font-family="Helvetica,Helvetica" font-size="24.0" fill="#7A7A7A" transform="matrix(1.00, 0.00, -0.00, -1.00, 422.6, 35.5)">v</text><text xml:space="preserve" font-family="Helvetica,Helvetica" font-size="24.0" fill="#7A7A7A" transform="matrix(1.00, 0.00, -0.00, -1.00, 434.1, 35.5)">e</text><text xml:space="preserve" font-family="Helvetica,Helvetica" font-size="24.0" fill="#7A7A7A" transform="matrix(1.00, 0.00, -0.00, -1.00, 447.0, 35.5)">l</text><text xml:space="preserve" font-family="Helvetica,Helvetica" font-size="24.0" fill="#7A7A7A" transform="matrix(1.00, 0.00, -0.00, -1.00, 451.8, 35.5)"> </text><text xml:space="preserve" font-family="Helvetica,Helvetica" font-size="24.0" fill="#7A7A7A" transform="matrix(1.00, 0.00, -0.00, -1.00, 1.0, 6.5)">e</text><text xml:space="preserve" font-family="Helvetica,Helvetica" font-size="24.0" fill="#7A7A7A" transform="matrix(1.00, 0.00, -0.00, -1.00, 13.9, 6.5)">u</text><text xml:space="preserve" font-family="Helvetica,Helvetica" font-size="24.0" fill="#7A7A7A" transform="matrix(1.00, 0.00, -0.00, -1.00, 26.7, 6.5)"> </text><text xml:space="preserve" font-family="Helvetica,Helvetica" font-size="24.0" fill="#7A7A7A" transform="matrix(1.00, 0.00, -0.00, -1.00, 32.9, 6.5)">o</text><text xml:space="preserve" font-family="Helvetica,Helvetica" font-size="24.0" fill="#7A7A7A" transform="matrix(1.00, 0.00, -0.00, -1.00, 45.8, 6.5)">r</text><text xml:space="preserve" font-family="Helvetica,Helvetica" font-size="24.0" fill="#7A7A7A" transform="matrix(1.00, 0.00, -0.00, -1.00, 53.3, 6.5)">t</text><text xml:space="preserve" font-family="Helvetica,Helvetica" font-size="24.0" fill="#7A7A7A" transform="matrix(1.00, 0.00, -0.00, -1.00, 59.5, 6.5)">i</text><text xml:space="preserve" font-family="Helvetica,Helvetica" font-size="24.0" fill="#7A7A7A" transform="matrix(1.00, 0.00, -0.00, -1.00, 64.4, 6.5)">s</text><text xml:space="preserve" font-family="Helvetica,Helvetica" font-size="24.0" fill="#7A7A7A" transform="matrix(1.00, 0.00, -0.00, -1.00, 75.9, 6.5)"> </text><text xml:space="preserve" font-family="Helvetica,Helvetica" font-size="24.0" fill="#7A7A7A" transform="matrix(1.00, 0.00, -0.00, -1.00, 82.1, 6.5)">l</text><text xml:space="preserve" font-family="Helvetica,Helvetica" font-size="24.0" fill="#7A7A7A" transform="matrix(1.00, 0.00, -0.00, -1.00, 87.0, 6.5)">e</text><text xml:space="preserve" font-family="Helvetica,Helvetica" font-size="24.0" fill="#7A7A7A" transform="matrix(1.00, 0.00, -0.00, -1.00, 99.8, 6.5)">o</text><text xml:space="preserve" font-family="Helvetica,Helvetica" font-size="24.0" fill="#7A7A7A" transform="matrix(1.00, 0.00, -0.00, -1.00, 112.7, 6.5)">.</text><text xml:space="preserve" font-family="Helvetica,Helvetica" font-size="24.0" fill="#7A7A7A" transform="matrix(1.00, 0.00, -0.00, -1.00, 118.9, 6.5)"> </text><text xml:space="preserve" font-family="Helvetica,Helvetica" font-size="24.0" fill="#7A7A7A" transform="matrix(1.00, 0.00, -0.00, -1.00, 125.1, 6.5)">N</text><text xml:space="preserve" font-family="Helvetica,Helvetica" font-size="24.0" fill="#7A7A7A" transform="matrix(1.00, 0.00, -0.00, -1.00, 141.9, 6.5)">u</text><text xml:space="preserve" font-family="Helvetica,Helvetica" font-size="24.0" fill="#7A7A7A" transform="matrix(1.00, 0.00, -0.00, -1.00, 154.8, 6.5)">l</text><text xml:space="preserve" font-family="Helvetica,Helvetica" font-size="24.0" fill="#7A7A7A" transform="matrix(1.00, 0.00, -0.00, -1.00, 159.7, 6.5)">l</text><text xml:space="preserve" font-family="Helvetica,Helvetica" font-size="24.0" fill="#7A7A7A" transform="matrix(1.00, 0.00, -0.00, -1.00, 164.5, 6.5)">a</text><text xml:space="preserve" font-family="Helvetica,Helvetica" font-size="24.0" fill="#7A7A7A" transform="matrix(1.00, 0.00, -0.00, -1.00, 177.4, 6.5)">m</text><text xml:space="preserve" font-family="Helvetica,Helvetica" font-size="24.0" fill="#7A7A7A" transform="matrix(1.00, 0.00, -0.00, -1.00, 196.9, 6.5)"> </text><text xml:space="preserve" font-family="Helvetica,Helvetica" font-size="24.0" fill="#7A7A7A" transform="matrix(1.00, 0.00, -0.00, -1.00, 203.1, 6.5)">q</text><text xml:space="preserve" font-family="Helvetica,Helvetica" font-size="24.0" fill="#7A7A7A" transform="matrix(1.00, 0.00, -0.00, -1.00, 216.0, 6.5)">u</text><text xml:space="preserve" font-family="Helvetica,Helvetica" font-size="24.0" fill="#7A7A7A" transform="matrix(1.00, 0.00, -0.00, -1.00, 228.9, 6.5)">i</text><text xml:space="preserve" font-family="Helvetica,Helvetica" font-size="24.0" fill="#7A7A7A" transform="matrix(1.00, 0.00, -0.00, -1.00, 233.7, 6.5)">s</text><text xml:space="preserve" font-family="Helvetica,Helvetica" font-size="24.0" fill="#7A7A7A" transform="matrix(1.00, 0.00, -0.00, -1.00, 245.2, 6.5)"> </text><text xml:space="preserve" font-family="Helvetica,Helvetica" font-size="24.0" fill="#7A7A7A" transform="matrix(1.00, 0.00, -0.00, -1.00, 251.4, 6.5)">r</text><text xml:space="preserve" font-family="Helvetica,Helvetica" font-size="24.0" fill="#7A7A7A" transform="matrix(1.00, 0.00, -0.00, -1.00, 258.9, 6.5)">i</text><text xml:space="preserve" font-family="Helvetica,Helvetica" font-size="24.0" fill="#7A7A7A" transform="matrix(1.00, 0.00, -0.00, -1.00, 263.8, 6.5)">s</text><text xml:space="preserve" font-family="Helvetica,Helvetica" font-size="24.0" fill="#7A7A7A" transform="matrix(1.00, 0.00, -0.00, -1.00, 275.3, 6.5)">u</text><text xml:space="preserve" font-family="Helvetica,Helvetica" font-size="24.0" fill="#7A7A7A" transform="matrix(1.00, 0.00, -0.00, -1.00, 288.2, 6.5)">s</text><text xml:space="preserve" font-family="Helvetica,Helvetica" font-size="24.0" fill="#7A7A7A" transform="matrix(1.00, 0.00, -0.00, -1.00, 299.7, 6.5)"> </text><text xml:space="preserve" font-family="Helvetica,Helvetica" font-size="24.0" fill="#7A7A7A" transform="matrix(1.00, 0.00, -0.00, -1.00, 305.9, 6.5)">e</text><text xml:space="preserve" font-family="Helvetica,Helvetica" font-size="24.0" fill="#7A7A7A" transform="matrix(1.00, 0.00, -0.00, -1.00, 318.8, 6.5)">g</text><text xml:space="preserve" font-family="Helvetica,Helvetica" font-size="24.0" fill="#7A7A7A" transform="matrix(1.00, 0.00, -0.00, -1.00, 331.7, 6.5)">e</text><text xml:space="preserve" font-family="Helvetica,Helvetica" font-size="24.0" fill="#7A7A7A" transform="matrix(1.00, 0.00, -0.00, -1.00, 344.5, 6.5)">t</text><text xml:space="preserve" font-family="Helvetica,Helvetica" font-size="24.0" fill="#7A7A7A" transform="matrix(1.00, 0.00, -0.00, -1.00, 350.7, 6.5)"> </text><text xml:space="preserve" font-family="Helvetica,Helvetica" font-size="24.0" fill="#7A7A7A" transform="matrix(1.00, 0.00, -0.00, -1.00, 356.9, 6.5)">u</text><text xml:space="preserve" font-family="Helvetica,Helvetica" font-size="24.0" fill="#7A7A7A" transform="matrix(1.00, 0.00, -0.00, -1.00, 369.8, 6.5)">r</text><text xml:space="preserve" font-family="Helvetica,Helvetica" font-size="24.0" fill="#7A7A7A" transform="matrix(1.00, 0.00, -0.00, -1.00, 377.3, 6.5)">n</text><text xml:space="preserve" font-family="Helvetica,Helvetica" font-size="24.0" fill="#7A7A7A" transform="matrix(1.00, 0.00, -0.00, -1.00, 390.2, 6.5)">a</text><text xml:space="preserve" font-family="Helvetica,Helvetica" font-size="24.0" fill="#7A7A7A" transform="matrix(1.00, 0.00, -0.00, -1.00, 403.1, 6.5)"> </text><text xml:space="preserve" font-family="Helvetica,Helvetica" font-size="24.0" fill="#7A7A7A" transform="matrix(1.00, 0.00, -0.00, -1.00, 409.2, 6.5)">m</text><text xml:space="preserve" font-family="Helvetica,Helvetica" font-size="24.0" fill="#7A7A7A" transform="matrix(1.00, 0.00, -0.00, -1.00, 428.8, 6.5)">o</text><text xml:space="preserve" font-family="Helvetica,Helvetica" font-size="24.0" fill="#7A7A7A" transform="matrix(1.00, 0.00, -0.00, -1.00, 441.6, 6.5)">l</text><text xml:space="preserve" font-family="Helvetica,Helvetica" font-size="24.0" fill="#7A7A7A" transform="matrix(1.00, 0.00, -0.00, -1.00, 446.5, 6.5)">l</text><text xml:space="preserve" font-family="Helvetica,Helvetica" font-size="24.0" fill="#7A7A7A" transform="matrix(1.00, 0.00, -0.00, -1.00, 451.3, 6.5)">i</text><text xml:space="preserve" font-family="Helvetica,Helvetica" font-size="24.0" fill="#7A7A7A" transform="matrix(1.00, 0.00, -0.00, -1.00, 456.2, 6.5)">s</text><text xml:space="preserve" font-family="Helvetica,Helvetica" font-size="24.0" fill="#7A7A7A" transform="matrix(1.00, 0.00, -0.00, -1.00, 467.7, 6.5)"> </text></g></svg>