<?xml version="1.0" encoding="UTF-8" standalone="no"?><svg xmlns="http://www.w3.org/2000/svg" xmlns:xlink="http://www.w3.org/1999/xlink" clip-rule="evenodd" stroke-miterlimit="10" viewBox="0 0 619 329"><desc>SVG generated by Keynote</desc><defs></defs><g transform="matrix(1.00, 0.00, -0.00, -1.00, 0.0, 329.0)"><path d="M 202.9 29.0 L 202.9 288.0 " fill="none" stroke="#B8B8B8" stroke-width="1.00" transform="matrix(1.00, 0.00, 0.00, -1.00, 1.6, 328.0)"></path><path d="M 333.9 29.0 L 333.9 288.0 " fill="none" stroke="#B8B8B8" stroke-width="1.00" transform="matrix(1.00, 0.00, 0.00, -1.00, 1.6, 328.0)"></path><path d="M 463.9 29.0 L 463.9 288.0 " fill="none" stroke="#B8B8B8" stroke-width="1.00" transform="matrix(1.00, 0.00, 0.00, -1.00, 1.6, 328.0)"></path><path d="M 594.9 29.0 L 594.9 288.0 " fill="none" stroke="#B8B8B8" stroke-width="1.00" transform="matrix(1.00, 0.00, 0.00, -1.00, 1.6, 328.0)"></path><path d="M 71.9 287.5 L 71.9 28.5 " fill="none" stroke="#000000" stroke-width="1.00" stroke-linecap="square" transform="matrix(1.00, 0.00, 0.00, -1.00, 1.6, 328.0)"></path><g><clipPath id="clip0x6000012a90c0"><path d="M 0.6 251.1 L 57.0 251.1 L 57.0 282.1 L 0.6 282.1 Z M 0.6 251.1 "></path></clipPath><g clip-path="url(#clip0x6000012a90c0)"><text xml:space="preserve" font-family="Helvetica-Bold,Helvetica" font-weight="bold" font-size="24.0" fill="#000000" transform="matrix(1.00, 0.00, -0.00, -1.00, 2.1, 257.6)">2</text><text xml:space="preserve" font-family="Helvetica-Bold,Helvetica" font-weight="bold" font-size="24.0" fill="#000000" transform="matrix(1.00, 0.00, -0.00, -1.00, 15.5, 257.6)">0</text><text xml:space="preserve" font-family="Helvetica-Bold,Helvetica" font-weight="bold" font-size="24.0" fill="#000000" transform="matrix(1.00, 0.00, -0.00, -1.00, 28.8, 257.6)">0</text><text xml:space="preserve" font-family="Helvetica-Bold,Helvetica" font-weight="bold" font-size="24.0" fill="#000000" transform="matrix(1.00, 0.00, -0.00, -1.00, 42.2, 257.6)">7</text></g></g><g><clipPath id="clip0x6000012a92a0"><path d="M 0.6 186.4 L 57.0 186.4 L 57.0 217.4 L 0.6 217.4 Z M 0.6 186.4 "></path></clipPath><g clip-path="url(#clip0x6000012a92a0)"><text xml:space="preserve" font-family="Helvetica-Bold,Helvetica" font-weight="bold" font-size="24.0" fill="#000000" transform="matrix(1.00, 0.00, -0.00, -1.00, 2.1, 192.9)">2</text><text xml:space="preserve" font-family="Helvetica-Bold,Helvetica" font-weight="bold" font-size="24.0" fill="#000000" transform="matrix(1.00, 0.00, -0.00, -1.00, 15.5, 192.9)">0</text><text xml:space="preserve" font-family="Helvetica-Bold,Helvetica" font-weight="bold" font-size="24.0" fill="#000000" transform="matrix(1.00, 0.00, -0.00, -1.00, 28.8, 192.9)">0</text><text xml:space="preserve" font-family="Helvetica-Bold,Helvetica" font-weight="bold" font-size="24.0" fill="#000000" transform="matrix(1.00, 0.00, -0.00, -1.00, 42.2, 192.9)">8</text></g></g><g><clipPath id="clip0x6000012b5840"><path d="M 0.6 121.6 L 57.0 121.6 L 57.0 152.6 L 0.6 152.6 Z M 0.6 121.6 "></path></clipPath><g clip-path="url(#clip0x6000012b5840)"><text xml:space="preserve" font-family="Helvetica-Bold,Helvetica" font-weight="bold" font-size="24.0" fill="#000000" transform="matrix(1.00, 0.00, -0.00, -1.00, 2.1, 128.1)">2</text><text xml:space="preserve" font-family="Helvetica-Bold,Helvetica" font-weight="bold" font-size="24.0" fill="#000000" transform="matrix(1.00, 0.00, -0.00, -1.00, 15.5, 128.1)">0</text><text xml:space="preserve" font-family="Helvetica-Bold,Helvetica" font-weight="bold" font-size="24.0" fill="#000000" transform="matrix(1.00, 0.00, -0.00, -1.00, 28.8, 128.1)">0</text><text xml:space="preserve" font-family="Helvetica-Bold,Helvetica" font-weight="bold" font-size="24.0" fill="#000000" transform="matrix(1.00, 0.00, -0.00, -1.00, 42.2, 128.1)">9</text></g></g><g><clipPath id="clip0x6000010abdc0"><path d="M 0.6 56.9 L 57.0 56.9 L 57.0 87.9 L 0.6 87.9 Z M 0.6 56.9 "></path></clipPath><g clip-path="url(#clip0x6000010abdc0)"><text xml:space="preserve" font-family="Helvetica-Bold,Helvetica" font-weight="bold" font-size="24.0" fill="#000000" transform="matrix(1.00, 0.00, -0.00, -1.00, 2.1, 63.4)">2</text><text xml:space="preserve" font-family="Helvetica-Bold,Helvetica" font-weight="bold" font-size="24.0" fill="#000000" transform="matrix(1.00, 0.00, -0.00, -1.00, 15.5, 63.4)">0</text><text xml:space="preserve" font-family="Helvetica-Bold,Helvetica" font-weight="bold" font-size="24.0" fill="#000000" transform="matrix(1.00, 0.00, -0.00, -1.00, 28.8, 63.4)">1</text><text xml:space="preserve" font-family="Helvetica-Bold,Helvetica" font-weight="bold" font-size="24.0" fill="#000000" transform="matrix(1.00, 0.00, -0.00, -1.00, 42.2, 63.4)">0</text></g></g><g><clipPath id="clip0x6000010aeee0"><path d="M 65.3 0.0 L 81.7 0.0 L 81.7 31.0 L 65.3 31.0 Z M 65.3 0.0 "></path></clipPath><g clip-path="url(#clip0x6000010aeee0)"><text xml:space="preserve" font-family="Helvetica-Bold,Helvetica" font-weight="bold" font-size="24.0" fill="#000000" transform="matrix(1.00, 0.00, -0.00, -1.00, 66.8, 6.5)">0</text></g></g><g><clipPath id="clip0x6000014a2f40"><path d="M 189.4 0.0 L 219.1 0.0 L 219.1 31.0 L 189.4 31.0 Z M 189.4 0.0 "></path></clipPath><g clip-path="url(#clip0x6000014a2f40)"><text xml:space="preserve" font-family="Helvetica-Bold,Helvetica" font-weight="bold" font-size="24.0" fill="#000000" transform="matrix(1.00, 0.00, -0.00, -1.00, 190.9, 6.5)">2</text><text xml:space="preserve" font-family="Helvetica-Bold,Helvetica" font-weight="bold" font-size="24.0" fill="#000000" transform="matrix(1.00, 0.00, -0.00, -1.00, 204.3, 6.5)">5</text></g></g><g><clipPath id="clip0x600000eb8e40"><path d="M 320.2 0.0 L 349.8 0.0 L 349.8 31.0 L 320.2 31.0 Z M 320.2 0.0 "></path></clipPath><g clip-path="url(#clip0x600000eb8e40)"><text xml:space="preserve" font-family="Helvetica-Bold,Helvetica" font-weight="bold" font-size="24.0" fill="#000000" transform="matrix(1.00, 0.00, -0.00, -1.00, 321.7, 6.5)">5</text><text xml:space="preserve" font-family="Helvetica-Bold,Helvetica" font-weight="bold" font-size="24.0" fill="#000000" transform="matrix(1.00, 0.00, -0.00, -1.00, 335.0, 6.5)">0</text></g></g><g><clipPath id="clip0x600000eb40a0"><path d="M 450.9 0.0 L 480.6 0.0 L 480.6 31.0 L 450.9 31.0 Z M 450.9 0.0 "></path></clipPath><g clip-path="url(#clip0x600000eb40a0)"><text xml:space="preserve" font-family="Helvetica-Bold,Helvetica" font-weight="bold" font-size="24.0" fill="#000000" transform="matrix(1.00, 0.00, -0.00, -1.00, 452.4, 6.5)">7</text><text xml:space="preserve" font-family="Helvetica-Bold,Helvetica" font-weight="bold" font-size="24.0" fill="#000000" transform="matrix(1.00, 0.00, -0.00, -1.00, 465.8, 6.5)">5</text></g></g><g><clipPath id="clip0x600000cb8840"><path d="M 575.0 0.0 L 618.0 0.0 L 618.0 31.0 L 575.0 31.0 Z M 575.0 0.0 "></path></clipPath><g clip-path="url(#clip0x600000cb8840)"><text xml:space="preserve" font-family="Helvetica-Bold,Helvetica" font-weight="bold" font-size="24.0" fill="#000000" transform="matrix(1.00, 0.00, -0.00, -1.00, 576.5, 6.5)">1</text><text xml:space="preserve" font-family="Helvetica-Bold,Helvetica" font-weight="bold" font-size="24.0" fill="#000000" transform="matrix(1.00, 0.00, -0.00, -1.00, 589.8, 6.5)">0</text><text xml:space="preserve" font-family="Helvetica-Bold,Helvetica" font-weight="bold" font-size="24.0" fill="#000000" transform="matrix(1.00, 0.00, -0.00, -1.00, 603.2, 6.5)">0</text></g></g><g><clipPath id="clip0x600000ca48c0"><path d="M 73.5 40.0 L 596.5 40.0 L 596.5 299.0 L 73.5 299.0 Z M 73.5 40.0 "></path></clipPath><g clip-path="url(#clip0x600000ca48c0)"><path d="M 74.0 293.0 L 162.0 293.0 L 162.0 239.0 L 74.0 239.0 Z M 74.0 293.0 " fill="#2DCBA1"></path></g></g><g><clipPath id="clip0x6000012b2060"><path d="M 73.5 40.0 L 596.5 40.0 L 596.5 299.0 L 73.5 299.0 Z M 73.5 40.0 "></path></clipPath><g clip-path="url(#clip0x6000012b2060)"><path d="M 74.0 228.0 L 209.0 228.0 L 209.0 175.0 L 74.0 175.0 Z M 74.0 228.0 " fill="#2DCBA1"></path></g></g><g><clipPath id="clip0x6000012ab040"><path d="M 73.5 40.0 L 596.5 40.0 L 596.5 299.0 L 73.5 299.0 Z M 73.5 40.0 "></path></clipPath><g clip-path="url(#clip0x6000012ab040)"><path d="M 74.0 164.0 L 351.0 164.0 L 351.0 111.0 L 74.0 111.0 Z M 74.0 164.0 " fill="#2DCBA1"></path></g></g><g><clipPath id="clip0x600000cba880"><path d="M 73.5 40.0 L 596.5 40.0 L 596.5 299.0 L 73.5 299.0 Z M 73.5 40.0 "></path></clipPath><g clip-path="url(#clip0x600000cba880)"><path d="M 74.0 100.0 L 576.0 100.0 L 576.0 46.0 L 74.0 46.0 Z M 74.0 100.0 " fill="#2DCBA1"></path></g></g></g></svg>