<?xml version="1.0" encoding="UTF-8" standalone="no"?><svg xmlns="http://www.w3.org/2000/svg" xmlns:xlink="http://www.w3.org/1999/xlink" clip-rule="evenodd" stroke-miterlimit="10" viewBox="0 0 169 169"><desc>SVG generated by Keynote</desc><defs></defs><g transform="matrix(1.00, 0.00, -0.00, -1.00, 0.0, 169.0)"><path d="M 142.1 142.6 C 174.1 110.6 174.1 58.7 142.1 26.7 C 110.1 -5.3 58.2 -5.3 26.2 26.7 C -5.9 58.7 -5.9 110.6 26.2 142.6 C 58.2 174.7 110.1 174.7 142.1 142.6 " fill="#41A3E8"></path><path d="M 140.0 24.0 C 172.0 56.0 172.0 108.0 140.0 140.0 C 108.0 172.0 56.0 172.0 24.0 140.0 C -8.0 108.0 -8.0 56.0 24.0 24.0 C 56.0 -8.0 108.0 -8.0 140.0 24.0 " fill="none" stroke="#000000" stroke-opacity="0.00" stroke-width="2.00" transform="matrix(1.00, 0.00, 0.00, -1.00, 2.1, 166.7)"></path></g></svg>