<?xml version="1.0" encoding="UTF-8" standalone="no"?><svg xmlns="http://www.w3.org/2000/svg" xmlns:xlink="http://www.w3.org/1999/xlink" clip-rule="evenodd" stroke-miterlimit="10" viewBox="0 0 316 171"><desc>SVG generated by Keynote</desc><defs></defs><g transform="matrix(1.00, 0.00, -0.00, -1.00, 0.0, 171.0)"><text xml:space="preserve" font-family="Helvetica-Bold,Helvetica" font-weight="bold" font-size="24.0" fill="#434343" transform="matrix(1.00, 0.00, -0.00, -1.00, 1.0, 151.5)">W</text><text xml:space="preserve" font-family="Helvetica-Bold,Helvetica" font-weight="bold" font-size="24.0" fill="#434343" transform="matrix(1.00, 0.00, -0.00, -1.00, 23.6, 151.5)">E</text><text xml:space="preserve" font-family="Helvetica-Bold,Helvetica" font-weight="bold" font-size="24.0" fill="#434343" transform="matrix(1.00, 0.00, -0.00, -1.00, 39.7, 151.5)"> </text><text xml:space="preserve" font-family="Helvetica-Bold,Helvetica" font-weight="bold" font-size="24.0" fill="#434343" transform="matrix(1.00, 0.00, -0.00, -1.00, 46.3, 151.5)">B</text><text xml:space="preserve" font-family="Helvetica-Bold,Helvetica" font-weight="bold" font-size="24.0" fill="#434343" transform="matrix(1.00, 0.00, -0.00, -1.00, 63.7, 151.5)">R</text><text xml:space="preserve" font-family="Helvetica-Bold,Helvetica" font-weight="bold" font-size="24.0" fill="#434343" transform="matrix(1.00, 0.00, -0.00, -1.00, 81.0, 151.5)">I</text><text xml:space="preserve" font-family="Helvetica-Bold,Helvetica" font-weight="bold" font-size="24.0" fill="#434343" transform="matrix(1.00, 0.00, -0.00, -1.00, 87.7, 151.5)">N</text><text xml:space="preserve" font-family="Helvetica-Bold,Helvetica" font-weight="bold" font-size="24.0" fill="#434343" transform="matrix(1.00, 0.00, -0.00, -1.00, 105.0, 151.5)">G</text><text xml:space="preserve" font-family="Helvetica-Bold,Helvetica" font-weight="bold" font-size="24.0" fill="#434343" transform="matrix(1.00, 0.00, -0.00, -1.00, 123.7, 151.5)"> </text><text xml:space="preserve" font-family="Helvetica-Bold,Helvetica" font-weight="bold" font-size="24.0" fill="#434343" transform="matrix(1.00, 0.00, -0.00, -1.00, 130.3, 151.5)">P</text><text xml:space="preserve" font-family="Helvetica-Bold,Helvetica" font-weight="bold" font-size="24.0" fill="#434343" transform="matrix(1.00, 0.00, -0.00, -1.00, 146.3, 151.5)">R</text><text xml:space="preserve" font-family="Helvetica-Bold,Helvetica" font-weight="bold" font-size="24.0" fill="#434343" transform="matrix(1.00, 0.00, -0.00, -1.00, 163.7, 151.5)">E</text><text xml:space="preserve" font-family="Helvetica-Bold,Helvetica" font-weight="bold" font-size="24.0" fill="#434343" transform="matrix(1.00, 0.00, -0.00, -1.00, 179.7, 151.5)">S</text><text xml:space="preserve" font-family="Helvetica-Bold,Helvetica" font-weight="bold" font-size="24.0" fill="#434343" transform="matrix(1.00, 0.00, -0.00, -1.00, 195.7, 151.5)">E</text><text xml:space="preserve" font-family="Helvetica-Bold,Helvetica" font-weight="bold" font-size="24.0" fill="#434343" transform="matrix(1.00, 0.00, -0.00, -1.00, 211.7, 151.5)">N</text><text xml:space="preserve" font-family="Helvetica-Bold,Helvetica" font-weight="bold" font-size="24.0" fill="#434343" transform="matrix(1.00, 0.00, -0.00, -1.00, 229.0, 151.5)">T</text><text xml:space="preserve" font-family="Helvetica-Bold,Helvetica" font-weight="bold" font-size="24.0" fill="#434343" transform="matrix(1.00, 0.00, -0.00, -1.00, 241.9, 151.5)">A</text><text xml:space="preserve" font-family="Helvetica-Bold,Helvetica" font-weight="bold" font-size="24.0" fill="#434343" transform="matrix(1.00, 0.00, -0.00, -1.00, 257.5, 151.5)">T</text><text xml:space="preserve" font-family="Helvetica-Bold,Helvetica" font-weight="bold" font-size="24.0" fill="#434343" transform="matrix(1.00, 0.00, -0.00, -1.00, 272.1, 151.5)">I</text><text xml:space="preserve" font-family="Helvetica-Bold,Helvetica" font-weight="bold" font-size="24.0" fill="#434343" transform="matrix(1.00, 0.00, -0.00, -1.00, 278.8, 151.5)">O</text><text xml:space="preserve" font-family="Helvetica-Bold,Helvetica" font-weight="bold" font-size="24.0" fill="#434343" transform="matrix(1.00, 0.00, -0.00, -1.00, 297.5, 151.5)">N</text><text xml:space="preserve" font-family="Helvetica-Bold,Helvetica" font-weight="bold" font-size="24.0" fill="#434343" transform="matrix(1.00, 0.00, -0.00, -1.00, 314.8, 151.5)"> </text><text xml:space="preserve" font-family="Helvetica-Bold,Helvetica" font-weight="bold" font-size="24.0" fill="#434343" transform="matrix(1.00, 0.00, -0.00, -1.00, 1.0, 122.5)">T</text><text xml:space="preserve" font-family="Helvetica-Bold,Helvetica" font-weight="bold" font-size="24.0" fill="#434343" transform="matrix(1.00, 0.00, -0.00, -1.00, 15.2, 122.5)">O</text><text xml:space="preserve" font-family="Helvetica-Bold,Helvetica" font-weight="bold" font-size="24.0" fill="#434343" transform="matrix(1.00, 0.00, -0.00, -1.00, 33.9, 122.5)"> </text><text xml:space="preserve" font-family="Helvetica-Bold,Helvetica" font-weight="bold" font-size="24.0" fill="#434343" transform="matrix(1.00, 0.00, -0.00, -1.00, 40.6, 122.5)">T</text><text xml:space="preserve" font-family="Helvetica-Bold,Helvetica" font-weight="bold" font-size="24.0" fill="#434343" transform="matrix(1.00, 0.00, -0.00, -1.00, 55.2, 122.5)">H</text><text xml:space="preserve" font-family="Helvetica-Bold,Helvetica" font-weight="bold" font-size="24.0" fill="#434343" transform="matrix(1.00, 0.00, -0.00, -1.00, 72.6, 122.5)">E</text><text xml:space="preserve" font-family="Helvetica-Bold,Helvetica" font-weight="bold" font-size="24.0" fill="#434343" transform="matrix(1.00, 0.00, -0.00, -1.00, 88.6, 122.5)"> </text><text xml:space="preserve" font-family="Helvetica-Bold,Helvetica" font-weight="bold" font-size="24.0" fill="#434343" transform="matrix(1.00, 0.00, -0.00, -1.00, 95.2, 122.5)">N</text><text xml:space="preserve" font-family="Helvetica-Bold,Helvetica" font-weight="bold" font-size="24.0" fill="#434343" transform="matrix(1.00, 0.00, -0.00, -1.00, 112.6, 122.5)">E</text><text xml:space="preserve" font-family="Helvetica-Bold,Helvetica" font-weight="bold" font-size="24.0" fill="#434343" transform="matrix(1.00, 0.00, -0.00, -1.00, 128.6, 122.5)">X</text><text xml:space="preserve" font-family="Helvetica-Bold,Helvetica" font-weight="bold" font-size="24.0" fill="#434343" transform="matrix(1.00, 0.00, -0.00, -1.00, 144.6, 122.5)">T</text><text xml:space="preserve" font-family="Helvetica-Bold,Helvetica" font-weight="bold" font-size="24.0" fill="#434343" transform="matrix(1.00, 0.00, -0.00, -1.00, 159.2, 122.5)"> </text><text xml:space="preserve" font-family="Helvetica-Bold,Helvetica" font-weight="bold" font-size="24.0" fill="#434343" transform="matrix(1.00, 0.00, -0.00, -1.00, 165.9, 122.5)">L</text><text xml:space="preserve" font-family="Helvetica-Bold,Helvetica" font-weight="bold" font-size="24.0" fill="#434343" transform="matrix(1.00, 0.00, -0.00, -1.00, 180.6, 122.5)">E</text><text xml:space="preserve" font-family="Helvetica-Bold,Helvetica" font-weight="bold" font-size="24.0" fill="#434343" transform="matrix(1.00, 0.00, -0.00, -1.00, 196.6, 122.5)">V</text><text xml:space="preserve" font-family="Helvetica-Bold,Helvetica" font-weight="bold" font-size="24.0" fill="#434343" transform="matrix(1.00, 0.00, -0.00, -1.00, 212.6, 122.5)">E</text><text xml:space="preserve" font-family="Helvetica-Bold,Helvetica" font-weight="bold" font-size="24.0" fill="#434343" transform="matrix(1.00, 0.00, -0.00, -1.00, 228.6, 122.5)">L</text><text xml:space="preserve" font-family="Helvetica,Helvetica" font-size="24.0" fill="#7A7A7A" transform="matrix(1.00, 0.00, -0.00, -1.00, 1.0, 93.5)">E</text><text xml:space="preserve" font-family="Helvetica,Helvetica" font-size="24.0" fill="#7A7A7A" transform="matrix(1.00, 0.00, -0.00, -1.00, 17.0, 93.5)">t</text><text xml:space="preserve" font-family="Helvetica,Helvetica" font-size="24.0" fill="#7A7A7A" transform="matrix(1.00, 0.00, -0.00, -1.00, 23.7, 93.5)">i</text><text xml:space="preserve" font-family="Helvetica,Helvetica" font-size="24.0" fill="#7A7A7A" transform="matrix(1.00, 0.00, -0.00, -1.00, 29.0, 93.5)">a</text><text xml:space="preserve" font-family="Helvetica,Helvetica" font-size="24.0" fill="#7A7A7A" transform="matrix(1.00, 0.00, -0.00, -1.00, 42.4, 93.5)">m</text><text xml:space="preserve" font-family="Helvetica,Helvetica" font-size="24.0" fill="#7A7A7A" transform="matrix(1.00, 0.00, -0.00, -1.00, 62.4, 93.5)"> </text><text xml:space="preserve" font-family="Helvetica,Helvetica" font-size="24.0" fill="#7A7A7A" transform="matrix(1.00, 0.00, -0.00, -1.00, 69.0, 93.5)">p</text><text xml:space="preserve" font-family="Helvetica,Helvetica" font-size="24.0" fill="#7A7A7A" transform="matrix(1.00, 0.00, -0.00, -1.00, 82.4, 93.5)">o</text><text xml:space="preserve" font-family="Helvetica,Helvetica" font-size="24.0" fill="#7A7A7A" transform="matrix(1.00, 0.00, -0.00, -1.00, 95.7, 93.5)">r</text><text xml:space="preserve" font-family="Helvetica,Helvetica" font-size="24.0" fill="#7A7A7A" transform="matrix(1.00, 0.00, -0.00, -1.00, 103.7, 93.5)">t</text><text xml:space="preserve" font-family="Helvetica,Helvetica" font-size="24.0" fill="#7A7A7A" transform="matrix(1.00, 0.00, -0.00, -1.00, 110.4, 93.5)">a</text><text xml:space="preserve" font-family="Helvetica,Helvetica" font-size="24.0" fill="#7A7A7A" transform="matrix(1.00, 0.00, -0.00, -1.00, 123.7, 93.5)"> </text><text xml:space="preserve" font-family="Helvetica,Helvetica" font-size="24.0" fill="#7A7A7A" transform="matrix(1.00, 0.00, -0.00, -1.00, 130.4, 93.5)">s</text><text xml:space="preserve" font-family="Helvetica,Helvetica" font-size="24.0" fill="#7A7A7A" transform="matrix(1.00, 0.00, -0.00, -1.00, 142.4, 93.5)">e</text><text xml:space="preserve" font-family="Helvetica,Helvetica" font-size="24.0" fill="#7A7A7A" transform="matrix(1.00, 0.00, -0.00, -1.00, 155.7, 93.5)">m</text><text xml:space="preserve" font-family="Helvetica,Helvetica" font-size="24.0" fill="#7A7A7A" transform="matrix(1.00, 0.00, -0.00, -1.00, 175.7, 93.5)"> </text><text xml:space="preserve" font-family="Helvetica,Helvetica" font-size="24.0" fill="#7A7A7A" transform="matrix(1.00, 0.00, -0.00, -1.00, 182.4, 93.5)">m</text><text xml:space="preserve" font-family="Helvetica,Helvetica" font-size="24.0" fill="#7A7A7A" transform="matrix(1.00, 0.00, -0.00, -1.00, 202.4, 93.5)">a</text><text xml:space="preserve" font-family="Helvetica,Helvetica" font-size="24.0" fill="#7A7A7A" transform="matrix(1.00, 0.00, -0.00, -1.00, 215.7, 93.5)">l</text><text xml:space="preserve" font-family="Helvetica,Helvetica" font-size="24.0" fill="#7A7A7A" transform="matrix(1.00, 0.00, -0.00, -1.00, 221.1, 93.5)">e</text><text xml:space="preserve" font-family="Helvetica,Helvetica" font-size="24.0" fill="#7A7A7A" transform="matrix(1.00, 0.00, -0.00, -1.00, 234.4, 93.5)">s</text><text xml:space="preserve" font-family="Helvetica,Helvetica" font-size="24.0" fill="#7A7A7A" transform="matrix(1.00, 0.00, -0.00, -1.00, 246.4, 93.5)">u</text><text xml:space="preserve" font-family="Helvetica,Helvetica" font-size="24.0" fill="#7A7A7A" transform="matrix(1.00, 0.00, -0.00, -1.00, 259.8, 93.5)">a</text><text xml:space="preserve" font-family="Helvetica,Helvetica" font-size="24.0" fill="#7A7A7A" transform="matrix(1.00, 0.00, -0.00, -1.00, 273.1, 93.5)">d</text><text xml:space="preserve" font-family="Helvetica,Helvetica" font-size="24.0" fill="#7A7A7A" transform="matrix(1.00, 0.00, -0.00, -1.00, 286.5, 93.5)">a</text><text xml:space="preserve" font-family="Helvetica,Helvetica" font-size="24.0" fill="#7A7A7A" transform="matrix(1.00, 0.00, -0.00, -1.00, 299.8, 93.5)"> </text><text xml:space="preserve" font-family="Helvetica,Helvetica" font-size="24.0" fill="#7A7A7A" transform="matrix(1.00, 0.00, -0.00, -1.00, 1.0, 64.5)">m</text><text xml:space="preserve" font-family="Helvetica,Helvetica" font-size="24.0" fill="#7A7A7A" transform="matrix(1.00, 0.00, -0.00, -1.00, 21.0, 64.5)">a</text><text xml:space="preserve" font-family="Helvetica,Helvetica" font-size="24.0" fill="#7A7A7A" transform="matrix(1.00, 0.00, -0.00, -1.00, 34.3, 64.5)">g</text><text xml:space="preserve" font-family="Helvetica,Helvetica" font-size="24.0" fill="#7A7A7A" transform="matrix(1.00, 0.00, -0.00, -1.00, 47.7, 64.5)">n</text><text xml:space="preserve" font-family="Helvetica,Helvetica" font-size="24.0" fill="#7A7A7A" transform="matrix(1.00, 0.00, -0.00, -1.00, 61.0, 64.5)">a</text><text xml:space="preserve" font-family="Helvetica,Helvetica" font-size="24.0" fill="#7A7A7A" transform="matrix(1.00, 0.00, -0.00, -1.00, 74.4, 64.5)"> </text><text xml:space="preserve" font-family="Helvetica,Helvetica" font-size="24.0" fill="#7A7A7A" transform="matrix(1.00, 0.00, -0.00, -1.00, 81.1, 64.5)">m</text><text xml:space="preserve" font-family="Helvetica,Helvetica" font-size="24.0" fill="#7A7A7A" transform="matrix(1.00, 0.00, -0.00, -1.00, 101.1, 64.5)">o</text><text xml:space="preserve" font-family="Helvetica,Helvetica" font-size="24.0" fill="#7A7A7A" transform="matrix(1.00, 0.00, -0.00, -1.00, 114.4, 64.5)">l</text><text xml:space="preserve" font-family="Helvetica,Helvetica" font-size="24.0" fill="#7A7A7A" transform="matrix(1.00, 0.00, -0.00, -1.00, 119.7, 64.5)">l</text><text xml:space="preserve" font-family="Helvetica,Helvetica" font-size="24.0" fill="#7A7A7A" transform="matrix(1.00, 0.00, -0.00, -1.00, 125.1, 64.5)">i</text><text xml:space="preserve" font-family="Helvetica,Helvetica" font-size="24.0" fill="#7A7A7A" transform="matrix(1.00, 0.00, -0.00, -1.00, 130.4, 64.5)">s</text><text xml:space="preserve" font-family="Helvetica,Helvetica" font-size="24.0" fill="#7A7A7A" transform="matrix(1.00, 0.00, -0.00, -1.00, 142.4, 64.5)"> </text><text xml:space="preserve" font-family="Helvetica,Helvetica" font-size="24.0" fill="#7A7A7A" transform="matrix(1.00, 0.00, -0.00, -1.00, 149.1, 64.5)">e</text><text xml:space="preserve" font-family="Helvetica,Helvetica" font-size="24.0" fill="#7A7A7A" transform="matrix(1.00, 0.00, -0.00, -1.00, 162.4, 64.5)">u</text><text xml:space="preserve" font-family="Helvetica,Helvetica" font-size="24.0" fill="#7A7A7A" transform="matrix(1.00, 0.00, -0.00, -1.00, 175.8, 64.5)">i</text><text xml:space="preserve" font-family="Helvetica,Helvetica" font-size="24.0" fill="#7A7A7A" transform="matrix(1.00, 0.00, -0.00, -1.00, 181.1, 64.5)">s</text><text xml:space="preserve" font-family="Helvetica,Helvetica" font-size="24.0" fill="#7A7A7A" transform="matrix(1.00, 0.00, -0.00, -1.00, 193.1, 64.5)">m</text><text xml:space="preserve" font-family="Helvetica,Helvetica" font-size="24.0" fill="#7A7A7A" transform="matrix(1.00, 0.00, -0.00, -1.00, 213.1, 64.5)">o</text><text xml:space="preserve" font-family="Helvetica,Helvetica" font-size="24.0" fill="#7A7A7A" transform="matrix(1.00, 0.00, -0.00, -1.00, 226.5, 64.5)">d</text><text xml:space="preserve" font-family="Helvetica,Helvetica" font-size="24.0" fill="#7A7A7A" transform="matrix(1.00, 0.00, -0.00, -1.00, 239.8, 64.5)">.</text><text xml:space="preserve" font-family="Helvetica,Helvetica" font-size="24.0" fill="#7A7A7A" transform="matrix(1.00, 0.00, -0.00, -1.00, 246.5, 64.5)"> </text><text xml:space="preserve" font-family="Helvetica,Helvetica" font-size="24.0" fill="#7A7A7A" transform="matrix(1.00, 0.00, -0.00, -1.00, 253.1, 64.5)">C</text><text xml:space="preserve" font-family="Helvetica,Helvetica" font-size="24.0" fill="#7A7A7A" transform="matrix(1.00, 0.00, -0.00, -1.00, 270.5, 64.5)">u</text><text xml:space="preserve" font-family="Helvetica,Helvetica" font-size="24.0" fill="#7A7A7A" transform="matrix(1.00, 0.00, -0.00, -1.00, 283.8, 64.5)">m</text><text xml:space="preserve" font-family="Helvetica,Helvetica" font-size="24.0" fill="#7A7A7A" transform="matrix(1.00, 0.00, -0.00, -1.00, 303.8, 64.5)"> </text><text xml:space="preserve" font-family="Helvetica,Helvetica" font-size="24.0" fill="#7A7A7A" transform="matrix(1.00, 0.00, -0.00, -1.00, 1.0, 35.5)">s</text><text xml:space="preserve" font-family="Helvetica,Helvetica" font-size="24.0" fill="#7A7A7A" transform="matrix(1.00, 0.00, -0.00, -1.00, 13.0, 35.5)">o</text><text xml:space="preserve" font-family="Helvetica,Helvetica" font-size="24.0" fill="#7A7A7A" transform="matrix(1.00, 0.00, -0.00, -1.00, 26.4, 35.5)">c</text><text xml:space="preserve" font-family="Helvetica,Helvetica" font-size="24.0" fill="#7A7A7A" transform="matrix(1.00, 0.00, -0.00, -1.00, 38.4, 35.5)">i</text><text xml:space="preserve" font-family="Helvetica,Helvetica" font-size="24.0" fill="#7A7A7A" transform="matrix(1.00, 0.00, -0.00, -1.00, 43.7, 35.5)">i</text><text xml:space="preserve" font-family="Helvetica,Helvetica" font-size="24.0" fill="#7A7A7A" transform="matrix(1.00, 0.00, -0.00, -1.00, 49.0, 35.5)">s</text><text xml:space="preserve" font-family="Helvetica,Helvetica" font-size="24.0" fill="#7A7A7A" transform="matrix(1.00, 0.00, -0.00, -1.00, 61.0, 35.5)"> </text><text xml:space="preserve" font-family="Helvetica,Helvetica" font-size="24.0" fill="#7A7A7A" transform="matrix(1.00, 0.00, -0.00, -1.00, 67.7, 35.5)">n</text><text xml:space="preserve" font-family="Helvetica,Helvetica" font-size="24.0" fill="#7A7A7A" transform="matrix(1.00, 0.00, -0.00, -1.00, 81.0, 35.5)">a</text><text xml:space="preserve" font-family="Helvetica,Helvetica" font-size="24.0" fill="#7A7A7A" transform="matrix(1.00, 0.00, -0.00, -1.00, 94.4, 35.5)">t</text><text xml:space="preserve" font-family="Helvetica,Helvetica" font-size="24.0" fill="#7A7A7A" transform="matrix(1.00, 0.00, -0.00, -1.00, 101.1, 35.5)">o</text><text xml:space="preserve" font-family="Helvetica,Helvetica" font-size="24.0" fill="#7A7A7A" transform="matrix(1.00, 0.00, -0.00, -1.00, 114.4, 35.5)">q</text><text xml:space="preserve" font-family="Helvetica,Helvetica" font-size="24.0" fill="#7A7A7A" transform="matrix(1.00, 0.00, -0.00, -1.00, 127.8, 35.5)">u</text><text xml:space="preserve" font-family="Helvetica,Helvetica" font-size="24.0" fill="#7A7A7A" transform="matrix(1.00, 0.00, -0.00, -1.00, 141.1, 35.5)">e</text><text xml:space="preserve" font-family="Helvetica,Helvetica" font-size="24.0" fill="#7A7A7A" transform="matrix(1.00, 0.00, -0.00, -1.00, 154.5, 35.5)"> </text><text xml:space="preserve" font-family="Helvetica,Helvetica" font-size="24.0" fill="#7A7A7A" transform="matrix(1.00, 0.00, -0.00, -1.00, 161.1, 35.5)">p</text><text xml:space="preserve" font-family="Helvetica,Helvetica" font-size="24.0" fill="#7A7A7A" transform="matrix(1.00, 0.00, -0.00, -1.00, 174.5, 35.5)">e</text><text xml:space="preserve" font-family="Helvetica,Helvetica" font-size="24.0" fill="#7A7A7A" transform="matrix(1.00, 0.00, -0.00, -1.00, 187.8, 35.5)">n</text><text xml:space="preserve" font-family="Helvetica,Helvetica" font-size="24.0" fill="#7A7A7A" transform="matrix(1.00, 0.00, -0.00, -1.00, 201.2, 35.5)">a</text><text xml:space="preserve" font-family="Helvetica,Helvetica" font-size="24.0" fill="#7A7A7A" transform="matrix(1.00, 0.00, -0.00, -1.00, 214.5, 35.5)">t</text><text xml:space="preserve" font-family="Helvetica,Helvetica" font-size="24.0" fill="#7A7A7A" transform="matrix(1.00, 0.00, -0.00, -1.00, 221.2, 35.5)">i</text><text xml:space="preserve" font-family="Helvetica,Helvetica" font-size="24.0" fill="#7A7A7A" transform="matrix(1.00, 0.00, -0.00, -1.00, 226.5, 35.5)">b</text><text xml:space="preserve" font-family="Helvetica,Helvetica" font-size="24.0" fill="#7A7A7A" transform="matrix(1.00, 0.00, -0.00, -1.00, 239.9, 35.5)">u</text><text xml:space="preserve" font-family="Helvetica,Helvetica" font-size="24.0" fill="#7A7A7A" transform="matrix(1.00, 0.00, -0.00, -1.00, 253.2, 35.5)">s</text><text xml:space="preserve" font-family="Helvetica,Helvetica" font-size="24.0" fill="#7A7A7A" transform="matrix(1.00, 0.00, -0.00, -1.00, 265.2, 35.5)"> </text><text xml:space="preserve" font-family="Helvetica,Helvetica" font-size="24.0" fill="#7A7A7A" transform="matrix(1.00, 0.00, -0.00, -1.00, 271.9, 35.5)">e</text><text xml:space="preserve" font-family="Helvetica,Helvetica" font-size="24.0" fill="#7A7A7A" transform="matrix(1.00, 0.00, -0.00, -1.00, 285.3, 35.5)">t</text><text xml:space="preserve" font-family="Helvetica,Helvetica" font-size="24.0" fill="#7A7A7A" transform="matrix(1.00, 0.00, -0.00, -1.00, 291.9, 35.5)"> </text><text xml:space="preserve" font-family="Helvetica,Helvetica" font-size="24.0" fill="#7A7A7A" transform="matrix(1.00, 0.00, -0.00, -1.00, 1.0, 6.5)">m</text><text xml:space="preserve" font-family="Helvetica,Helvetica" font-size="24.0" fill="#7A7A7A" transform="matrix(1.00, 0.00, -0.00, -1.00, 21.0, 6.5)">a</text><text xml:space="preserve" font-family="Helvetica,Helvetica" font-size="24.0" fill="#7A7A7A" transform="matrix(1.00, 0.00, -0.00, -1.00, 34.3, 6.5)">g</text><text xml:space="preserve" font-family="Helvetica,Helvetica" font-size="24.0" fill="#7A7A7A" transform="matrix(1.00, 0.00, -0.00, -1.00, 47.7, 6.5)">n</text><text xml:space="preserve" font-family="Helvetica,Helvetica" font-size="24.0" fill="#7A7A7A" transform="matrix(1.00, 0.00, -0.00, -1.00, 61.0, 6.5)">i</text><text xml:space="preserve" font-family="Helvetica,Helvetica" font-size="24.0" fill="#7A7A7A" transform="matrix(1.00, 0.00, -0.00, -1.00, 66.4, 6.5)">s</text><text xml:space="preserve" font-family="Helvetica,Helvetica" font-size="24.0" fill="#7A7A7A" transform="matrix(1.00, 0.00, -0.00, -1.00, 78.4, 6.5)"> </text><text xml:space="preserve" font-family="Helvetica,Helvetica" font-size="24.0" fill="#7A7A7A" transform="matrix(1.00, 0.00, -0.00, -1.00, 85.0, 6.5)">d</text><text xml:space="preserve" font-family="Helvetica,Helvetica" font-size="24.0" fill="#7A7A7A" transform="matrix(1.00, 0.00, -0.00, -1.00, 98.4, 6.5)">i</text><text xml:space="preserve" font-family="Helvetica,Helvetica" font-size="24.0" fill="#7A7A7A" transform="matrix(1.00, 0.00, -0.00, -1.00, 103.7, 6.5)">s</text><text xml:space="preserve" font-family="Helvetica,Helvetica" font-size="24.0" fill="#7A7A7A" transform="matrix(1.00, 0.00, -0.00, -1.00, 115.7, 6.5)"> </text><text xml:space="preserve" font-family="Helvetica,Helvetica" font-size="24.0" fill="#7A7A7A" transform="matrix(1.00, 0.00, -0.00, -1.00, 122.4, 6.5)">p</text><text xml:space="preserve" font-family="Helvetica,Helvetica" font-size="24.0" fill="#7A7A7A" transform="matrix(1.00, 0.00, -0.00, -1.00, 135.8, 6.5)">a</text><text xml:space="preserve" font-family="Helvetica,Helvetica" font-size="24.0" fill="#7A7A7A" transform="matrix(1.00, 0.00, -0.00, -1.00, 149.1, 6.5)">r</text><text xml:space="preserve" font-family="Helvetica,Helvetica" font-size="24.0" fill="#7A7A7A" transform="matrix(1.00, 0.00, -0.00, -1.00, 157.1, 6.5)">t</text><text xml:space="preserve" font-family="Helvetica,Helvetica" font-size="24.0" fill="#7A7A7A" transform="matrix(1.00, 0.00, -0.00, -1.00, 163.8, 6.5)">u</text><text xml:space="preserve" font-family="Helvetica,Helvetica" font-size="24.0" fill="#7A7A7A" transform="matrix(1.00, 0.00, -0.00, -1.00, 177.1, 6.5)">r</text><text xml:space="preserve" font-family="Helvetica,Helvetica" font-size="24.0" fill="#7A7A7A" transform="matrix(1.00, 0.00, -0.00, -1.00, 185.1, 6.5)">i</text><text xml:space="preserve" font-family="Helvetica,Helvetica" font-size="24.0" fill="#7A7A7A" transform="matrix(1.00, 0.00, -0.00, -1.00, 190.4, 6.5)">e</text><text xml:space="preserve" font-family="Helvetica,Helvetica" font-size="24.0" fill="#7A7A7A" transform="matrix(1.00, 0.00, -0.00, -1.00, 203.8, 6.5)">n</text><text xml:space="preserve" font-family="Helvetica,Helvetica" font-size="24.0" fill="#7A7A7A" transform="matrix(1.00, 0.00, -0.00, -1.00, 217.1, 6.5)">t</text><text xml:space="preserve" font-family="Helvetica,Helvetica" font-size="24.0" fill="#7A7A7A" transform="matrix(1.00, 0.00, -0.00, -1.00, 223.8, 6.5)"> </text><text xml:space="preserve" font-family="Helvetica,Helvetica" font-size="24.0" fill="#7A7A7A" transform="matrix(1.00, 0.00, -0.00, -1.00, 230.5, 6.5)">m</text><text xml:space="preserve" font-family="Helvetica,Helvetica" font-size="24.0" fill="#7A7A7A" transform="matrix(1.00, 0.00, -0.00, -1.00, 250.5, 6.5)">o</text><text xml:space="preserve" font-family="Helvetica,Helvetica" font-size="24.0" fill="#7A7A7A" transform="matrix(1.00, 0.00, -0.00, -1.00, 263.8, 6.5)">n</text><text xml:space="preserve" font-family="Helvetica,Helvetica" font-size="24.0" fill="#7A7A7A" transform="matrix(1.00, 0.00, -0.00, -1.00, 277.2, 6.5)">t</text><text xml:space="preserve" font-family="Helvetica,Helvetica" font-size="24.0" fill="#7A7A7A" transform="matrix(1.00, 0.00, -0.00, -1.00, 283.8, 6.5)">e</text><text xml:space="preserve" font-family="Helvetica,Helvetica" font-size="24.0" fill="#7A7A7A" transform="matrix(1.00, 0.00, -0.00, -1.00, 297.2, 6.5)">s</text><text xml:space="preserve" font-family="Helvetica,Helvetica" font-size="24.0" fill="#7A7A7A" transform="matrix(1.00, 0.00, -0.00, -1.00, 309.2, 6.5)">.</text></g></svg>