<?xml version="1.0" encoding="UTF-8" standalone="no"?><svg xmlns="http://www.w3.org/2000/svg" xmlns:xlink="http://www.w3.org/1999/xlink" clip-rule="evenodd" stroke-miterlimit="10" viewBox="0 0 858 597"><desc>SVG generated by Keynote</desc><defs></defs><g transform="matrix(1.00, 0.00, -0.00, -1.00, 0.0, 597.0)"><path d="M 1.0 596.0 L 857.0 596.0 L 857.0 2.0 L 1.0 2.0 Z M 1.0 596.0 " fill="#000000" fill-opacity="0.00"></path><g><g><clipPath id="clip0x618000ea1ce0"><path d="M 0.0 0.0 L 858.0 0.0 L 858.0 597.0 L 0.0 597.0 Z M 0.0 0.0 "></path></clipPath><g clip-path="url(#clip0x618000ea1ce0)"><g><g><clipPath id="clip0x6180012a04e0"><path d="M 0.0 0.0 L 858.0 0.0 L 858.0 597.0 L 0.0 597.0 Z M 0.0 0.0 "></path></clipPath><g clip-path="url(#clip0x6180012a04e0)"><path d="M 603.0 454.0 L 603.0 596.0 C 524.6 596.0 461.0 532.4 461.0 454.0 C 461.0 432.9 465.7 412.1 474.7 393.1 Z M 603.0 454.0 " fill="#434343"></path></g></g></g></g></g><g><clipPath id="clip0x618001eb74c0"><path d="M 0.0 0.0 L 858.0 0.0 L 858.0 597.0 L 0.0 597.0 Z M 0.0 0.0 "></path></clipPath><g clip-path="url(#clip0x618001eb74c0)"><g><g><clipPath id="clip0x6180014a27c0"><path d="M 0.0 0.0 L 858.0 0.0 L 858.0 597.0 L 0.0 597.0 Z M 0.0 0.0 "></path></clipPath><g clip-path="url(#clip0x6180014a27c0)"><path d="M 603.0 454.0 L 474.7 393.1 C 508.3 322.3 593.0 292.1 663.9 325.7 C 672.5 329.8 680.7 334.7 688.3 340.5 Z M 603.0 454.0 " fill="#41A3E8"></path></g></g></g></g></g><g><clipPath id="clip0x6180012b4ac0"><path d="M 0.0 0.0 L 858.0 0.0 L 858.0 597.0 L 0.0 597.0 Z M 0.0 0.0 "></path></clipPath><g clip-path="url(#clip0x6180012b4ac0)"><g><g><clipPath id="clip0x618006ea46e0"><path d="M 0.0 0.0 L 858.0 0.0 L 858.0 597.0 L 0.0 597.0 Z M 0.0 0.0 "></path></clipPath><g clip-path="url(#clip0x618006ea46e0)"><path d="M 603.0 454.0 L 688.3 340.5 C 735.5 375.9 755.8 436.8 739.4 493.5 Z M 603.0 454.0 " fill="#387ECA"></path></g></g></g></g></g><g><clipPath id="clip0x6180012a54c0"><path d="M 0.0 0.0 L 858.0 0.0 L 858.0 597.0 L 0.0 597.0 Z M 0.0 0.0 "></path></clipPath><g clip-path="url(#clip0x6180012a54c0)"><g><g><clipPath id="clip0x618004cab940"><path d="M 0.0 0.0 L 858.0 0.0 L 858.0 597.0 L 0.0 597.0 Z M 0.0 0.0 "></path></clipPath><g clip-path="url(#clip0x618004cab940)"><path d="M 603.0 454.0 L 739.4 493.5 C 727.5 534.5 697.9 567.9 658.7 584.6 Z M 603.0 454.0 " fill="#2DCBA1"></path></g></g></g></g></g><g><clipPath id="clip0x618000eaee20"><path d="M 0.0 0.0 L 858.0 0.0 L 858.0 597.0 L 0.0 597.0 Z M 0.0 0.0 "></path></clipPath><g clip-path="url(#clip0x618000eaee20)"><g><g><clipPath id="clip0x6180054a9720"><path d="M 0.0 0.0 L 858.0 0.0 L 858.0 597.0 L 0.0 597.0 Z M 0.0 0.0 "></path></clipPath><g clip-path="url(#clip0x6180054a9720)"><path d="M 603.0 454.0 L 658.7 584.6 C 641.1 592.1 622.1 596.0 603.0 596.0 Z M 603.0 454.0 " fill="#8BD4C4"></path></g></g></g></g></g></g><g><image xlink:href="008A33859AF8C7B25D15BBD25B8FCF9D.png" width="40.00" height="18.00" transform="matrix(1.00, 0.00, -0.00, -1.00, 493.0, 517.0)"></image><g><clipPath id="clip0x6000010a0000"><path d="M 492.0 496.0 L 534.0 496.0 L 534.0 523.0 L 492.0 523.0 Z M 492.0 496.0 "></path></clipPath><g clip-path="url(#clip0x6000010a0000)"><text xml:space="preserve" font-family="Helvetica-Bold,Helvetica" font-weight="bold" font-size="18.0" fill="#FFFFFF" transform="matrix(1.00, 0.00, -0.00, -1.00, 493.3, 504.3)">3</text><text xml:space="preserve" font-family="Helvetica-Bold,Helvetica" font-weight="bold" font-size="18.0" fill="#FFFFFF" transform="matrix(1.00, 0.00, -0.00, -1.00, 503.3, 504.3)">2</text><text xml:space="preserve" font-family="Helvetica-Bold,Helvetica" font-weight="bold" font-size="18.0" fill="#FFFFFF" transform="matrix(1.00, 0.00, -0.00, -1.00, 513.3, 504.3)">%</text></g></g></g><g><image xlink:href="3433C6A37FC848CC24F6AF8FEB62DA36.png" width="39.00" height="18.00" transform="matrix(1.00, 0.00, -0.00, -1.00, 559.0, 354.0)"></image><g><clipPath id="clip0x600000eb68c0"><path d="M 558.0 334.0 L 600.0 334.0 L 600.0 361.0 L 558.0 361.0 Z M 558.0 334.0 "></path></clipPath><g clip-path="url(#clip0x600000eb68c0)"><text xml:space="preserve" font-family="Helvetica-Bold,Helvetica" font-weight="bold" font-size="18.0" fill="#FFFFFF" transform="matrix(1.00, 0.00, -0.00, -1.00, 558.7, 341.9)">2</text><text xml:space="preserve" font-family="Helvetica-Bold,Helvetica" font-weight="bold" font-size="18.0" fill="#FFFFFF" transform="matrix(1.00, 0.00, -0.00, -1.00, 568.7, 341.9)">8</text><text xml:space="preserve" font-family="Helvetica-Bold,Helvetica" font-weight="bold" font-size="18.0" fill="#FFFFFF" transform="matrix(1.00, 0.00, -0.00, -1.00, 578.7, 341.9)">%</text></g></g></g><g><image xlink:href="5AF893B167ED29113D88AC803BCAFEDC.png" width="39.00" height="18.00" transform="matrix(1.00, 0.00, -0.00, -1.00, 687.0, 425.0)"></image><g><clipPath id="clip0x6000010aeb20"><path d="M 686.0 404.0 L 728.0 404.0 L 728.0 431.0 L 686.0 431.0 Z M 686.0 404.0 "></path></clipPath><g clip-path="url(#clip0x6000010aeb20)"><text xml:space="preserve" font-family="Helvetica-Bold,Helvetica" font-weight="bold" font-size="18.0" fill="#FFFFFF" transform="matrix(1.00, 0.00, -0.00, -1.00, 686.9, 412.5)">1</text><text xml:space="preserve" font-family="Helvetica-Bold,Helvetica" font-weight="bold" font-size="18.0" fill="#FFFFFF" transform="matrix(1.00, 0.00, -0.00, -1.00, 696.9, 412.5)">9</text><text xml:space="preserve" font-family="Helvetica-Bold,Helvetica" font-weight="bold" font-size="18.0" fill="#FFFFFF" transform="matrix(1.00, 0.00, -0.00, -1.00, 706.9, 412.5)">%</text></g></g></g><g><image xlink:href="1BD3F50E612E8E3323CF617D4E99D8E5.png" width="39.00" height="18.00" transform="matrix(1.00, 0.00, -0.00, -1.00, 666.0, 531.0)"></image><g><clipPath id="clip0x600000eb69e0"><path d="M 664.0 510.0 L 706.0 510.0 L 706.0 537.0 L 664.0 537.0 Z M 664.0 510.0 "></path></clipPath><g clip-path="url(#clip0x600000eb69e0)"><text xml:space="preserve" font-family="Helvetica-Bold,Helvetica" font-weight="bold" font-size="18.0" fill="#FFFFFF" transform="matrix(1.00, 0.00, -0.00, -1.00, 665.3, 518.2)">1</text><text xml:space="preserve" font-family="Helvetica-Bold,Helvetica" font-weight="bold" font-size="18.0" fill="#FFFFFF" transform="matrix(1.00, 0.00, -0.00, -1.00, 675.3, 518.2)">4</text><text xml:space="preserve" font-family="Helvetica-Bold,Helvetica" font-weight="bold" font-size="18.0" fill="#FFFFFF" transform="matrix(1.00, 0.00, -0.00, -1.00, 685.3, 518.2)">%</text></g></g></g><g><image xlink:href="3C485681FD75591CBB5AB869B1D00ED6.png" width="30.00" height="18.00" transform="matrix(1.00, 0.00, -0.00, -1.00, 611.0, 565.0)"></image><g><clipPath id="clip0x6000012a6c00"><path d="M 610.0 544.0 L 642.0 544.0 L 642.0 571.0 L 610.0 571.0 Z M 610.0 544.0 "></path></clipPath><g clip-path="url(#clip0x6000012a6c00)"><text xml:space="preserve" font-family="Helvetica-Bold,Helvetica" font-weight="bold" font-size="18.0" fill="#FFFFFF" transform="matrix(1.00, 0.00, -0.00, -1.00, 611.1, 552.4)">6</text><text xml:space="preserve" font-family="Helvetica-Bold,Helvetica" font-weight="bold" font-size="18.0" fill="#FFFFFF" transform="matrix(1.00, 0.00, -0.00, -1.00, 621.1, 552.4)">%</text></g></g></g><g><clipPath id="clip0x6000010b9f80"><path d="M 94.0 15.5 C 94.0 9.1 89.1 4.0 83.0 4.0 C 76.9 4.0 72.0 9.1 72.0 15.5 C 72.0 21.9 76.9 27.0 83.0 27.0 C 89.1 27.0 94.0 21.9 94.0 15.5 Z M 94.0 15.5 "></path></clipPath><g clip-path="url(#clip0x6000010b9f80)"><path d="M 94.0 15.5 C 94.0 9.1 89.1 4.0 83.0 4.0 C 76.9 4.0 72.0 9.1 72.0 15.5 C 72.0 21.9 76.9 27.0 83.0 27.0 C 89.1 27.0 94.0 21.9 94.0 15.5 Z M 94.0 15.5 " fill="#8BD4C4"></path></g></g><text xml:space="preserve" font-family="GillSans,Gill Sans" font-size="24.0" fill="#000000" transform="matrix(1.00, 0.00, -0.00, -1.00, 109.5, 7.0)">2</text><text xml:space="preserve" font-family="GillSans,Gill Sans" font-size="24.0" fill="#000000" transform="matrix(1.00, 0.00, -0.00, -1.00, 121.5, 7.0)">0</text><text xml:space="preserve" font-family="GillSans,Gill Sans" font-size="24.0" fill="#000000" transform="matrix(1.00, 0.00, -0.00, -1.00, 133.5, 7.0)">0</text><text xml:space="preserve" font-family="GillSans,Gill Sans" font-size="24.0" fill="#000000" transform="matrix(1.00, 0.00, -0.00, -1.00, 145.5, 7.0)">8</text><g><clipPath id="clip0x618001ea7740"><path d="M 251.0 15.5 C 251.0 9.1 246.1 4.0 240.0 4.0 C 233.9 4.0 229.0 9.1 229.0 15.5 C 229.0 21.9 233.9 27.0 240.0 27.0 C 246.1 27.0 251.0 21.9 251.0 15.5 Z M 251.0 15.5 "></path></clipPath><g clip-path="url(#clip0x618001ea7740)"><path d="M 251.0 15.5 C 251.0 9.1 246.1 4.0 240.0 4.0 C 233.9 4.0 229.0 9.1 229.0 15.5 C 229.0 21.9 233.9 27.0 240.0 27.0 C 246.1 27.0 251.0 21.9 251.0 15.5 Z M 251.0 15.5 " fill="#2DCBA1"></path></g></g><text xml:space="preserve" font-family="GillSans,Gill Sans" font-size="24.0" fill="#000000" transform="matrix(1.00, 0.00, -0.00, -1.00, 266.6, 7.0)">2</text><text xml:space="preserve" font-family="GillSans,Gill Sans" font-size="24.0" fill="#000000" transform="matrix(1.00, 0.00, -0.00, -1.00, 278.6, 7.0)">0</text><text xml:space="preserve" font-family="GillSans,Gill Sans" font-size="24.0" fill="#000000" transform="matrix(1.00, 0.00, -0.00, -1.00, 290.6, 7.0)">0</text><text xml:space="preserve" font-family="GillSans,Gill Sans" font-size="24.0" fill="#000000" transform="matrix(1.00, 0.00, -0.00, -1.00, 302.6, 7.0)">9</text><g><clipPath id="clip0x6180036be4e0"><path d="M 408.0 15.5 C 408.0 9.1 403.1 4.0 397.0 4.0 C 390.9 4.0 386.0 9.1 386.0 15.5 C 386.0 21.9 390.9 27.0 397.0 27.0 C 403.1 27.0 408.0 21.9 408.0 15.5 Z M 408.0 15.5 "></path></clipPath><g clip-path="url(#clip0x6180036be4e0)"><path d="M 408.0 15.5 C 408.0 9.1 403.1 4.0 397.0 4.0 C 390.9 4.0 386.0 9.1 386.0 15.5 C 386.0 21.9 390.9 27.0 397.0 27.0 C 403.1 27.0 408.0 21.9 408.0 15.5 Z M 408.0 15.5 " fill="#387ECA"></path></g></g><text xml:space="preserve" font-family="GillSans,Gill Sans" font-size="24.0" fill="#000000" transform="matrix(1.00, 0.00, -0.00, -1.00, 423.6, 7.0)">2</text><text xml:space="preserve" font-family="GillSans,Gill Sans" font-size="24.0" fill="#000000" transform="matrix(1.00, 0.00, -0.00, -1.00, 435.6, 7.0)">0</text><text xml:space="preserve" font-family="GillSans,Gill Sans" font-size="24.0" fill="#000000" transform="matrix(1.00, 0.00, -0.00, -1.00, 447.6, 7.0)">1</text><text xml:space="preserve" font-family="GillSans,Gill Sans" font-size="24.0" fill="#000000" transform="matrix(1.00, 0.00, -0.00, -1.00, 459.6, 7.0)">0</text><g><clipPath id="clip0x618006eb1040"><path d="M 565.0 15.5 C 565.0 9.1 560.1 4.0 554.0 4.0 C 547.9 4.0 543.0 9.1 543.0 15.5 C 543.0 21.9 547.9 27.0 554.0 27.0 C 560.1 27.0 565.0 21.9 565.0 15.5 Z M 565.0 15.5 "></path></clipPath><g clip-path="url(#clip0x618006eb1040)"><path d="M 565.0 15.5 C 565.0 9.1 560.1 4.0 554.0 4.0 C 547.9 4.0 543.0 9.1 543.0 15.5 C 543.0 21.9 547.9 27.0 554.0 27.0 C 560.1 27.0 565.0 21.9 565.0 15.5 Z M 565.0 15.5 " fill="#41A3E8"></path></g></g><text xml:space="preserve" font-family="GillSans,Gill Sans" font-size="24.0" fill="#000000" transform="matrix(1.00, 0.00, -0.00, -1.00, 580.6, 7.0)">2</text><text xml:space="preserve" font-family="GillSans,Gill Sans" font-size="24.0" fill="#000000" transform="matrix(1.00, 0.00, -0.00, -1.00, 592.6, 7.0)">0</text><text xml:space="preserve" font-family="GillSans,Gill Sans" font-size="24.0" fill="#000000" transform="matrix(1.00, 0.00, -0.00, -1.00, 604.6, 7.0)">1</text><text xml:space="preserve" font-family="GillSans,Gill Sans" font-size="24.0" fill="#000000" transform="matrix(1.00, 0.00, -0.00, -1.00, 616.6, 7.0)">1</text><g><clipPath id="clip0x6180032b5fc0"><path d="M 722.0 15.5 C 722.0 9.1 717.1 4.0 711.0 4.0 C 704.9 4.0 700.0 9.1 700.0 15.5 C 700.0 21.9 704.9 27.0 711.0 27.0 C 717.1 27.0 722.0 21.9 722.0 15.5 Z M 722.0 15.5 "></path></clipPath><g clip-path="url(#clip0x6180032b5fc0)"><path d="M 722.0 15.5 C 722.0 9.1 717.1 4.0 711.0 4.0 C 704.9 4.0 700.0 9.1 700.0 15.5 C 700.0 21.9 704.9 27.0 711.0 27.0 C 717.1 27.0 722.0 21.9 722.0 15.5 Z M 722.0 15.5 " fill="#434343"></path></g></g><text xml:space="preserve" font-family="GillSans,Gill Sans" font-size="24.0" fill="#000000" transform="matrix(1.00, 0.00, -0.00, -1.00, 737.7, 7.0)">2</text><text xml:space="preserve" font-family="GillSans,Gill Sans" font-size="24.0" fill="#000000" transform="matrix(1.00, 0.00, -0.00, -1.00, 749.7, 7.0)">0</text><text xml:space="preserve" font-family="GillSans,Gill Sans" font-size="24.0" fill="#000000" transform="matrix(1.00, 0.00, -0.00, -1.00, 761.7, 7.0)">1</text><text xml:space="preserve" font-family="GillSans,Gill Sans" font-size="24.0" fill="#000000" transform="matrix(1.00, 0.00, -0.00, -1.00, 773.7, 7.0)">2</text></g></svg>