<?xml version="1.0" encoding="UTF-8" standalone="no"?><svg xmlns="http://www.w3.org/2000/svg" xmlns:xlink="http://www.w3.org/1999/xlink" clip-rule="evenodd" stroke-miterlimit="10" viewBox="0 0 879 586"><desc>SVG generated by Keynote</desc><defs></defs><g transform="matrix(1.00, 0.00, -0.00, -1.00, 0.0, 586.0)"><path d="M 2.0 585.0 L 878.0 585.0 L 878.0 2.0 L 2.0 2.0 Z M 2.0 585.0 " fill="#000000" fill-opacity="0.00"></path><g><g><clipPath id="clip0x6100016af840"><path d="M 0.0 0.0 L 879.0 0.0 L 879.0 586.0 L 0.0 586.0 Z M 0.0 0.0 "></path></clipPath><g clip-path="url(#clip0x6100016af840)"><g><g><clipPath id="clip0x6100016b0500"><path d="M 0.0 0.0 L 879.0 0.0 L 879.0 586.0 L 0.0 586.0 Z M 0.0 0.0 "></path></clipPath><g clip-path="url(#clip0x6100016b0500)"><path d="M 144.0 443.0 L 144.0 585.0 C 65.6 585.0 2.0 521.4 2.0 443.0 C 2.0 418.1 8.6 393.6 21.0 372.0 Z M 144.0 443.0 " fill="#434343"></path></g></g></g></g></g><g><clipPath id="clip0x6100016afde0"><path d="M 0.0 0.0 L 879.0 0.0 L 879.0 586.0 L 0.0 586.0 Z M 0.0 0.0 "></path></clipPath><g clip-path="url(#clip0x6100016afde0)"><g><g><clipPath id="clip0x6100016b08c0"><path d="M 0.0 0.0 L 879.0 0.0 L 879.0 586.0 L 0.0 586.0 Z M 0.0 0.0 "></path></clipPath><g clip-path="url(#clip0x6100016b08c0)"><path d="M 144.0 443.0 L 21.0 372.0 C 60.2 304.1 147.1 280.8 215.0 320.0 C 219.3 322.5 223.5 325.2 227.5 328.1 Z M 144.0 443.0 " fill="#41A3E8"></path></g></g></g></g></g><g><clipPath id="clip0x6100016b0c20"><path d="M 0.0 0.0 L 879.0 0.0 L 879.0 586.0 L 0.0 586.0 Z M 0.0 0.0 "></path></clipPath><g clip-path="url(#clip0x6100016b0c20)"><g><g><clipPath id="clip0x6100016b0aa0"><path d="M 0.0 0.0 L 879.0 0.0 L 879.0 586.0 L 0.0 586.0 Z M 0.0 0.0 "></path></clipPath><g clip-path="url(#clip0x6100016b0aa0)"><path d="M 144.0 443.0 L 227.5 328.1 C 277.2 364.3 298.1 428.4 279.1 486.9 Z M 144.0 443.0 " fill="#387ECA"></path></g></g></g></g></g><g><clipPath id="clip0x6100016af5a0"><path d="M 0.0 0.0 L 879.0 0.0 L 879.0 586.0 L 0.0 586.0 Z M 0.0 0.0 "></path></clipPath><g clip-path="url(#clip0x6100016af5a0)"><g><g><clipPath id="clip0x6100016b0ec0"><path d="M 0.0 0.0 L 879.0 0.0 L 879.0 586.0 L 0.0 586.0 Z M 0.0 0.0 "></path></clipPath><g clip-path="url(#clip0x6100016b0ec0)"><path d="M 144.0 443.0 L 279.1 486.9 C 266.6 525.2 238.5 556.4 201.8 572.7 Z M 144.0 443.0 " fill="#2DCBA1"></path></g></g></g></g></g><g><clipPath id="clip0x6100016b10a0"><path d="M 0.0 0.0 L 879.0 0.0 L 879.0 586.0 L 0.0 586.0 Z M 0.0 0.0 "></path></clipPath><g clip-path="url(#clip0x6100016b10a0)"><g><g><clipPath id="clip0x6100016b12e0"><path d="M 0.0 0.0 L 879.0 0.0 L 879.0 586.0 L 0.0 586.0 Z M 0.0 0.0 "></path></clipPath><g clip-path="url(#clip0x6100016b12e0)"><path d="M 144.0 443.0 L 201.8 572.7 C 183.6 580.8 163.9 585.0 144.0 585.0 Z M 144.0 443.0 " fill="#8BD4C4"></path></g></g></g></g></g></g><g><image xlink:href="6EAF5A6E8DA8DA0B47B8FB84F927FD26.png" width="40.00" height="18.00" transform="matrix(1.00, 0.00, -0.00, -1.00, 32.0, 502.0)"></image><g><clipPath id="clip0x6000010ad020"><path d="M 32.0 481.0 L 74.0 481.0 L 74.0 508.0 L 32.0 508.0 Z M 32.0 481.0 "></path></clipPath><g clip-path="url(#clip0x6000010ad020)"><text xml:space="preserve" font-family="Helvetica-Bold,Helvetica" font-weight="bold" font-size="18.0" fill="#FFFFFF" transform="matrix(1.00, 0.00, -0.00, -1.00, 32.7, 489.6)">3</text><text xml:space="preserve" font-family="Helvetica-Bold,Helvetica" font-weight="bold" font-size="18.0" fill="#FFFFFF" transform="matrix(1.00, 0.00, -0.00, -1.00, 42.7, 489.6)">3</text><text xml:space="preserve" font-family="Helvetica-Bold,Helvetica" font-weight="bold" font-size="18.0" fill="#FFFFFF" transform="matrix(1.00, 0.00, -0.00, -1.00, 52.7, 489.6)">%</text></g></g></g><g><image xlink:href="A5D2BBF95CF5606087B2FE6772567DD6.png" width="39.00" height="18.00" transform="matrix(1.00, 0.00, -0.00, -1.00, 104.0, 343.0)"></image><g><clipPath id="clip0x6000012ae3a0"><path d="M 103.0 322.0 L 145.0 322.0 L 145.0 349.0 L 103.0 349.0 Z M 103.0 322.0 "></path></clipPath><g clip-path="url(#clip0x6000012ae3a0)"><text xml:space="preserve" font-family="Helvetica-Bold,Helvetica" font-weight="bold" font-size="18.0" fill="#FFFFFF" transform="matrix(1.00, 0.00, -0.00, -1.00, 103.7, 330.1)">2</text><text xml:space="preserve" font-family="Helvetica-Bold,Helvetica" font-weight="bold" font-size="18.0" fill="#FFFFFF" transform="matrix(1.00, 0.00, -0.00, -1.00, 113.7, 330.1)">7</text><text xml:space="preserve" font-family="Helvetica-Bold,Helvetica" font-weight="bold" font-size="18.0" fill="#FFFFFF" transform="matrix(1.00, 0.00, -0.00, -1.00, 123.7, 330.1)">%</text></g></g></g><g><image xlink:href="45DEEF7240258303A9EA9A19370E277D.png" width="39.00" height="18.00" transform="matrix(1.00, 0.00, -0.00, -1.00, 229.0, 415.0)"></image><g><clipPath id="clip0x6000012b1a60"><path d="M 228.0 394.0 L 270.0 394.0 L 270.0 421.0 L 228.0 421.0 Z M 228.0 394.0 "></path></clipPath><g clip-path="url(#clip0x6000012b1a60)"><text xml:space="preserve" font-family="Helvetica-Bold,Helvetica" font-weight="bold" font-size="18.0" fill="#FFFFFF" transform="matrix(1.00, 0.00, -0.00, -1.00, 228.8, 402.3)">2</text><text xml:space="preserve" font-family="Helvetica-Bold,Helvetica" font-weight="bold" font-size="18.0" fill="#FFFFFF" transform="matrix(1.00, 0.00, -0.00, -1.00, 238.8, 402.3)">0</text><text xml:space="preserve" font-family="Helvetica-Bold,Helvetica" font-weight="bold" font-size="18.0" fill="#FFFFFF" transform="matrix(1.00, 0.00, -0.00, -1.00, 248.8, 402.3)">%</text></g></g></g><g><image xlink:href="D322CA2262CD2CB4A90E5578E46281B1.png" width="39.00" height="18.00" transform="matrix(1.00, 0.00, -0.00, -1.00, 207.0, 520.0)"></image><g><clipPath id="clip0x6080016a6900"><path d="M 205.0 500.0 L 247.0 500.0 L 247.0 527.0 L 205.0 527.0 Z M 205.0 500.0 "></path></clipPath><g clip-path="url(#clip0x6080016a6900)"><text xml:space="preserve" font-family="Helvetica-Bold,Helvetica" font-weight="bold" font-size="18.0" fill="#FFFFFF" transform="matrix(1.00, 0.00, -0.00, -1.00, 206.3, 507.9)">1</text><text xml:space="preserve" font-family="Helvetica-Bold,Helvetica" font-weight="bold" font-size="18.0" fill="#FFFFFF" transform="matrix(1.00, 0.00, -0.00, -1.00, 216.3, 507.9)">3</text><text xml:space="preserve" font-family="Helvetica-Bold,Helvetica" font-weight="bold" font-size="18.0" fill="#FFFFFF" transform="matrix(1.00, 0.00, -0.00, -1.00, 226.3, 507.9)">%</text></g></g></g><g><image xlink:href="125EE992B3ADC22020D14D8E3CD45EE5.png" width="30.00" height="18.00" transform="matrix(1.00, 0.00, -0.00, -1.00, 153.0, 554.0)"></image><g><clipPath id="clip0x6000010b2fc0"><path d="M 153.0 533.0 L 185.0 533.0 L 185.0 560.0 L 153.0 560.0 Z M 153.0 533.0 "></path></clipPath><g clip-path="url(#clip0x6000010b2fc0)"><text xml:space="preserve" font-family="Helvetica-Bold,Helvetica" font-weight="bold" font-size="18.0" fill="#FFFFFF" transform="matrix(1.00, 0.00, -0.00, -1.00, 153.6, 541.2)">7</text><text xml:space="preserve" font-family="Helvetica-Bold,Helvetica" font-weight="bold" font-size="18.0" fill="#FFFFFF" transform="matrix(1.00, 0.00, -0.00, -1.00, 163.6, 541.2)">%</text></g></g></g><g><clipPath id="clip0x6000012afea0"><path d="M 290.0 16.0 C 290.0 11.0 285.7 7.0 280.5 7.0 C 275.3 7.0 271.0 11.0 271.0 16.0 C 271.0 21.0 275.3 25.0 280.5 25.0 C 285.7 25.0 290.0 21.0 290.0 16.0 Z M 290.0 16.0 "></path></clipPath><g clip-path="url(#clip0x6000012afea0)"><path d="M 290.0 16.0 C 290.0 11.0 285.7 7.0 280.5 7.0 C 275.3 7.0 271.0 11.0 271.0 16.0 C 271.0 21.0 275.3 25.0 280.5 25.0 C 285.7 25.0 290.0 21.0 290.0 16.0 Z M 290.0 16.0 " fill="#8BD4C4"></path></g></g><text xml:space="preserve" font-family="Helvetica,Helvetica" font-size="24.0" fill="#000000" transform="matrix(1.00, 0.00, -0.00, -1.00, 303.8, 7.0)">2</text><text xml:space="preserve" font-family="Helvetica,Helvetica" font-size="24.0" fill="#000000" transform="matrix(1.00, 0.00, -0.00, -1.00, 317.2, 7.0)">0</text><text xml:space="preserve" font-family="Helvetica,Helvetica" font-size="24.0" fill="#000000" transform="matrix(1.00, 0.00, -0.00, -1.00, 330.5, 7.0)">0</text><text xml:space="preserve" font-family="Helvetica,Helvetica" font-size="24.0" fill="#000000" transform="matrix(1.00, 0.00, -0.00, -1.00, 343.9, 7.0)">8</text><g><clipPath id="clip0x6000012ad380"><path d="M 411.0 16.0 C 411.0 11.0 407.0 7.0 402.0 7.0 C 397.0 7.0 393.0 11.0 393.0 16.0 C 393.0 21.0 397.0 25.0 402.0 25.0 C 407.0 25.0 411.0 21.0 411.0 16.0 Z M 411.0 16.0 "></path></clipPath><g clip-path="url(#clip0x6000012ad380)"><path d="M 411.0 16.0 C 411.0 11.0 407.0 7.0 402.0 7.0 C 397.0 7.0 393.0 11.0 393.0 16.0 C 393.0 21.0 397.0 25.0 402.0 25.0 C 407.0 25.0 411.0 21.0 411.0 16.0 Z M 411.0 16.0 " fill="#2DCBA1"></path></g></g><text xml:space="preserve" font-family="Helvetica,Helvetica" font-size="24.0" fill="#000000" transform="matrix(1.00, 0.00, -0.00, -1.00, 425.5, 7.0)">2</text><text xml:space="preserve" font-family="Helvetica,Helvetica" font-size="24.0" fill="#000000" transform="matrix(1.00, 0.00, -0.00, -1.00, 438.9, 7.0)">0</text><text xml:space="preserve" font-family="Helvetica,Helvetica" font-size="24.0" fill="#000000" transform="matrix(1.00, 0.00, -0.00, -1.00, 452.2, 7.0)">0</text><text xml:space="preserve" font-family="Helvetica,Helvetica" font-size="24.0" fill="#000000" transform="matrix(1.00, 0.00, -0.00, -1.00, 465.6, 7.0)">9</text><g><clipPath id="clip0x600000eb82a0"><path d="M 533.0 16.0 C 533.0 11.0 529.0 7.0 524.0 7.0 C 519.0 7.0 515.0 11.0 515.0 16.0 C 515.0 21.0 519.0 25.0 524.0 25.0 C 529.0 25.0 533.0 21.0 533.0 16.0 Z M 533.0 16.0 "></path></clipPath><g clip-path="url(#clip0x600000eb82a0)"><path d="M 533.0 16.0 C 533.0 11.0 529.0 7.0 524.0 7.0 C 519.0 7.0 515.0 11.0 515.0 16.0 C 515.0 21.0 519.0 25.0 524.0 25.0 C 529.0 25.0 533.0 21.0 533.0 16.0 Z M 533.0 16.0 " fill="#387ECA"></path></g></g><text xml:space="preserve" font-family="Helvetica,Helvetica" font-size="24.0" fill="#000000" transform="matrix(1.00, 0.00, -0.00, -1.00, 547.3, 7.0)">2</text><text xml:space="preserve" font-family="Helvetica,Helvetica" font-size="24.0" fill="#000000" transform="matrix(1.00, 0.00, -0.00, -1.00, 560.6, 7.0)">0</text><text xml:space="preserve" font-family="Helvetica,Helvetica" font-size="24.0" fill="#000000" transform="matrix(1.00, 0.00, -0.00, -1.00, 574.0, 7.0)">1</text><text xml:space="preserve" font-family="Helvetica,Helvetica" font-size="24.0" fill="#000000" transform="matrix(1.00, 0.00, -0.00, -1.00, 587.3, 7.0)">0</text><g><clipPath id="clip0x6000010ad9e0"><path d="M 655.0 16.0 C 655.0 11.0 650.7 7.0 645.5 7.0 C 640.3 7.0 636.0 11.0 636.0 16.0 C 636.0 21.0 640.3 25.0 645.5 25.0 C 650.7 25.0 655.0 21.0 655.0 16.0 Z M 655.0 16.0 "></path></clipPath><g clip-path="url(#clip0x6000010ad9e0)"><path d="M 655.0 16.0 C 655.0 11.0 650.7 7.0 645.5 7.0 C 640.3 7.0 636.0 11.0 636.0 16.0 C 636.0 21.0 640.3 25.0 645.5 25.0 C 650.7 25.0 655.0 21.0 655.0 16.0 Z M 655.0 16.0 " fill="#41A3E8"></path></g></g><text xml:space="preserve" font-family="Helvetica,Helvetica" font-size="24.0" fill="#000000" transform="matrix(1.00, 0.00, -0.00, -1.00, 669.0, 7.0)">2</text><text xml:space="preserve" font-family="Helvetica,Helvetica" font-size="24.0" fill="#000000" transform="matrix(1.00, 0.00, -0.00, -1.00, 682.3, 7.0)">0</text><text xml:space="preserve" font-family="Helvetica,Helvetica" font-size="24.0" fill="#000000" transform="matrix(1.00, 0.00, -0.00, -1.00, 695.7, 7.0)">1</text><text xml:space="preserve" font-family="Helvetica,Helvetica" font-size="24.0" fill="#000000" transform="matrix(1.00, 0.00, -0.00, -1.00, 707.3, 7.0)">1</text><g><clipPath id="clip0x6000010b1400"><path d="M 775.0 16.0 C 775.0 11.0 770.7 7.0 765.5 7.0 C 760.3 7.0 756.0 11.0 756.0 16.0 C 756.0 21.0 760.3 25.0 765.5 25.0 C 770.7 25.0 775.0 21.0 775.0 16.0 Z M 775.0 16.0 "></path></clipPath><g clip-path="url(#clip0x6000010b1400)"><path d="M 775.0 16.0 C 775.0 11.0 770.7 7.0 765.5 7.0 C 760.3 7.0 756.0 11.0 756.0 16.0 C 756.0 21.0 760.3 25.0 765.5 25.0 C 770.7 25.0 775.0 21.0 775.0 16.0 Z M 775.0 16.0 " fill="#434343"></path></g></g><text xml:space="preserve" font-family="Helvetica,Helvetica" font-size="24.0" fill="#000000" transform="matrix(1.00, 0.00, -0.00, -1.00, 788.9, 7.0)">2</text><text xml:space="preserve" font-family="Helvetica,Helvetica" font-size="24.0" fill="#000000" transform="matrix(1.00, 0.00, -0.00, -1.00, 802.3, 7.0)">0</text><text xml:space="preserve" font-family="Helvetica,Helvetica" font-size="24.0" fill="#000000" transform="matrix(1.00, 0.00, -0.00, -1.00, 815.6, 7.0)">1</text><text xml:space="preserve" font-family="Helvetica,Helvetica" font-size="24.0" fill="#000000" transform="matrix(1.00, 0.00, -0.00, -1.00, 829.0, 7.0)">2</text></g></svg>