<?xml version="1.0" encoding="UTF-8" standalone="no"?><svg xmlns="http://www.w3.org/2000/svg" xmlns:xlink="http://www.w3.org/1999/xlink" clip-rule="evenodd" stroke-miterlimit="10" viewBox="0 0 1152 597"><desc>SVG generated by Keynote</desc><defs></defs><g transform="matrix(1.00, 0.00, -0.00, -1.00, 0.0, 597.0)"><path d="M 1.0 596.0 L 1151.0 596.0 L 1151.0 2.0 L 1.0 2.0 Z M 1.0 596.0 " fill="#000000" fill-opacity="0.00"></path><g><g><clipPath id="clip0x600000eb7fa0"><path d="M 0.0 0.0 L 1152.0 0.0 L 1152.0 597.0 L 0.0 597.0 Z M 0.0 0.0 "></path></clipPath><g clip-path="url(#clip0x600000eb7fa0)"><g><g><clipPath id="clip0x600000eb2de0"><path d="M 0.0 0.0 L 1152.0 0.0 L 1152.0 597.0 L 0.0 597.0 Z M 0.0 0.0 "></path></clipPath><g clip-path="url(#clip0x600000eb2de0)"><path d="M 1009.0 454.0 L 1009.0 596.0 C 930.6 596.0 867.0 532.4 867.0 454.0 C 867.0 441.4 868.7 428.8 872.0 416.6 Z M 1009.0 454.0 " fill="#434343"></path></g></g></g></g></g><g><clipPath id="clip0x6000010a2400"><path d="M 0.0 0.0 L 1152.0 0.0 L 1152.0 597.0 L 0.0 597.0 Z M 0.0 0.0 "></path></clipPath><g clip-path="url(#clip0x6000010a2400)"><g><g><clipPath id="clip0x6000012a3600"><path d="M 0.0 0.0 L 1152.0 0.0 L 1152.0 597.0 L 0.0 597.0 Z M 0.0 0.0 "></path></clipPath><g clip-path="url(#clip0x6000012a3600)"><path d="M 1009.0 454.0 L 872.0 416.6 C 891.2 346.3 960.5 301.9 1032.4 313.9 Z M 1009.0 454.0 " fill="#41A3E8"></path></g></g></g></g></g><g><clipPath id="clip0x6000010b8ea0"><path d="M 0.0 0.0 L 1152.0 0.0 L 1152.0 597.0 L 0.0 597.0 Z M 0.0 0.0 "></path></clipPath><g clip-path="url(#clip0x6000010b8ea0)"><g><g><clipPath id="clip0x6000012b61a0"><path d="M 0.0 0.0 L 1152.0 0.0 L 1152.0 597.0 L 0.0 597.0 Z M 0.0 0.0 "></path></clipPath><g clip-path="url(#clip0x6000012b61a0)"><path d="M 1009.0 454.0 L 1032.4 313.9 C 1077.8 321.5 1116.8 350.7 1136.9 392.2 Z M 1009.0 454.0 " fill="#387ECA"></path></g></g></g></g></g><g><clipPath id="clip0x6000010b32c0"><path d="M 0.0 0.0 L 1152.0 0.0 L 1152.0 597.0 L 0.0 597.0 Z M 0.0 0.0 "></path></clipPath><g clip-path="url(#clip0x6000010b32c0)"><g><g><clipPath id="clip0x6000010a20a0"><path d="M 0.0 0.0 L 1152.0 0.0 L 1152.0 597.0 L 0.0 597.0 Z M 0.0 0.0 "></path></clipPath><g clip-path="url(#clip0x6000010a20a0)"><path d="M 1009.0 454.0 L 1136.9 392.2 C 1171.0 462.8 1141.4 547.7 1070.8 581.9 C 1067.3 583.6 1063.7 585.1 1060.0 586.5 Z M 1009.0 454.0 " fill="#2DCBA1"></path></g></g></g></g></g><g><clipPath id="clip0x6000012a67e0"><path d="M 0.0 0.0 L 1152.0 0.0 L 1152.0 597.0 L 0.0 597.0 Z M 0.0 0.0 "></path></clipPath><g clip-path="url(#clip0x6000012a67e0)"><g><g><clipPath id="clip0x6000012a8ee0"><path d="M 0.0 0.0 L 1152.0 0.0 L 1152.0 597.0 L 0.0 597.0 Z M 0.0 0.0 "></path></clipPath><g clip-path="url(#clip0x6000012a8ee0)"><path d="M 1009.0 454.0 L 1060.0 586.5 C 1043.7 592.8 1026.4 596.0 1009.0 596.0 Z M 1009.0 454.0 " fill="#8BD4C4"></path></g></g></g></g></g></g><g><image xlink:href="16BA767804A08DFD063FD73B1C8AA7EF.png" width="39.00" height="18.00" transform="matrix(1.00, 0.00, -0.00, -1.00, 905.0, 525.0)"></image><g><clipPath id="clip0x6100016b14c0"><path d="M 904.0 504.0 L 946.0 504.0 L 946.0 531.0 L 904.0 531.0 Z M 904.0 504.0 "></path></clipPath><g clip-path="url(#clip0x6100016b14c0)"><text xml:space="preserve" font-family="Helvetica-Bold,Helvetica" font-weight="bold" font-size="18.0" fill="#FFFFFF" transform="matrix(1.00, 0.00, -0.00, -1.00, 904.7, 512.1)">2</text><text xml:space="preserve" font-family="Helvetica-Bold,Helvetica" font-weight="bold" font-size="18.0" fill="#FFFFFF" transform="matrix(1.00, 0.00, -0.00, -1.00, 914.7, 512.1)">9</text><text xml:space="preserve" font-family="Helvetica-Bold,Helvetica" font-weight="bold" font-size="18.0" fill="#FFFFFF" transform="matrix(1.00, 0.00, -0.00, -1.00, 924.7, 512.1)">%</text></g></g></g><g><image xlink:href="4BC031ED2F40E391884A686F8970B1C4.png" width="40.00" height="18.00" transform="matrix(1.00, 0.00, -0.00, -1.00, 932.0, 368.0)"></image><g><clipPath id="clip0x6000012b1340"><path d="M 931.0 347.0 L 973.0 347.0 L 973.0 374.0 L 931.0 374.0 Z M 931.0 347.0 "></path></clipPath><g clip-path="url(#clip0x6000012b1340)"><text xml:space="preserve" font-family="Helvetica-Bold,Helvetica" font-weight="bold" font-size="18.0" fill="#FFFFFF" transform="matrix(1.00, 0.00, -0.00, -1.00, 932.3, 355.8)">2</text><text xml:space="preserve" font-family="Helvetica-Bold,Helvetica" font-weight="bold" font-size="18.0" fill="#FFFFFF" transform="matrix(1.00, 0.00, -0.00, -1.00, 942.3, 355.8)">3</text><text xml:space="preserve" font-family="Helvetica-Bold,Helvetica" font-weight="bold" font-size="18.0" fill="#FFFFFF" transform="matrix(1.00, 0.00, -0.00, -1.00, 952.3, 355.8)">%</text></g></g></g><g><image xlink:href="EEEED8CFC82B2F7A0D5030E647A6C848.png" width="39.00" height="18.00" transform="matrix(1.00, 0.00, -0.00, -1.00, 1056.0, 373.0)"></image><g><clipPath id="clip0x6000010a4a40"><path d="M 1054.0 352.0 L 1096.0 352.0 L 1096.0 379.0 L 1054.0 379.0 Z M 1054.0 352.0 "></path></clipPath><g clip-path="url(#clip0x6000010a4a40)"><text xml:space="preserve" font-family="Helvetica-Bold,Helvetica" font-weight="bold" font-size="18.0" fill="#FFFFFF" transform="matrix(1.00, 0.00, -0.00, -1.00, 1055.2, 360.3)">1</text><text xml:space="preserve" font-family="Helvetica-Bold,Helvetica" font-weight="bold" font-size="18.0" fill="#FFFFFF" transform="matrix(1.00, 0.00, -0.00, -1.00, 1065.2, 360.3)">5</text><text xml:space="preserve" font-family="Helvetica-Bold,Helvetica" font-weight="bold" font-size="18.0" fill="#FFFFFF" transform="matrix(1.00, 0.00, -0.00, -1.00, 1075.2, 360.3)">%</text></g></g></g><g><image xlink:href="8661391548345A90471533FA0D184592.png" width="39.00" height="18.00" transform="matrix(1.00, 0.00, -0.00, -1.00, 1091.0, 499.0)"></image><g><clipPath id="clip0x6180010a8580"><path d="M 1090.0 478.0 L 1132.0 478.0 L 1132.0 505.0 L 1090.0 505.0 Z M 1090.0 478.0 "></path></clipPath><g clip-path="url(#clip0x6180010a8580)"><text xml:space="preserve" font-family="Helvetica-Bold,Helvetica" font-weight="bold" font-size="18.0" fill="#FFFFFF" transform="matrix(1.00, 0.00, -0.00, -1.00, 1090.8, 486.3)">2</text><text xml:space="preserve" font-family="Helvetica-Bold,Helvetica" font-weight="bold" font-size="18.0" fill="#FFFFFF" transform="matrix(1.00, 0.00, -0.00, -1.00, 1100.9, 486.3)">6</text><text xml:space="preserve" font-family="Helvetica-Bold,Helvetica" font-weight="bold" font-size="18.0" fill="#FFFFFF" transform="matrix(1.00, 0.00, -0.00, -1.00, 1110.9, 486.3)">%</text></g></g></g><g><image xlink:href="../../D6430654-8CCF-459D-A8A1-FE163E902905/assets/3C485681FD75591CBB5AB869B1D00ED6.png" width="30.00" height="18.00" transform="matrix(1.00, 0.00, -0.00, -1.00, 1015.0, 565.0)"></image><g><clipPath id="clip0x618000ca0d80"><path d="M 1014.0 544.0 L 1046.0 544.0 L 1046.0 571.0 L 1014.0 571.0 Z M 1014.0 544.0 "></path></clipPath><g clip-path="url(#clip0x618000ca0d80)"><text xml:space="preserve" font-family="Helvetica-Bold,Helvetica" font-weight="bold" font-size="18.0" fill="#FFFFFF" transform="matrix(1.00, 0.00, -0.00, -1.00, 1015.2, 552.7)">6</text><text xml:space="preserve" font-family="Helvetica-Bold,Helvetica" font-weight="bold" font-size="18.0" fill="#FFFFFF" transform="matrix(1.00, 0.00, -0.00, -1.00, 1025.2, 552.7)">%</text></g></g></g><g><clipPath id="clip0x6180032ba1c0"><path d="M 94.0 15.5 C 94.0 9.1 89.1 4.0 83.0 4.0 C 76.9 4.0 72.0 9.1 72.0 15.5 C 72.0 21.9 76.9 27.0 83.0 27.0 C 89.1 27.0 94.0 21.9 94.0 15.5 Z M 94.0 15.5 "></path></clipPath><g clip-path="url(#clip0x6180032ba1c0)"><path d="M 94.0 15.5 C 94.0 9.1 89.1 4.0 83.0 4.0 C 76.9 4.0 72.0 9.1 72.0 15.5 C 72.0 21.9 76.9 27.0 83.0 27.0 C 89.1 27.0 94.0 21.9 94.0 15.5 Z M 94.0 15.5 " fill="#8BD4C4"></path></g></g><text xml:space="preserve" font-family="GillSans,Gill Sans" font-size="24.0" fill="#000000" transform="matrix(1.00, 0.00, -0.00, -1.00, 109.5, 7.0)">2</text><text xml:space="preserve" font-family="GillSans,Gill Sans" font-size="24.0" fill="#000000" transform="matrix(1.00, 0.00, -0.00, -1.00, 121.5, 7.0)">0</text><text xml:space="preserve" font-family="GillSans,Gill Sans" font-size="24.0" fill="#000000" transform="matrix(1.00, 0.00, -0.00, -1.00, 133.5, 7.0)">0</text><text xml:space="preserve" font-family="GillSans,Gill Sans" font-size="24.0" fill="#000000" transform="matrix(1.00, 0.00, -0.00, -1.00, 145.5, 7.0)">8</text><g><clipPath id="clip0x6180010b3860"><path d="M 251.0 15.5 C 251.0 9.1 246.1 4.0 240.0 4.0 C 233.9 4.0 229.0 9.1 229.0 15.5 C 229.0 21.9 233.9 27.0 240.0 27.0 C 246.1 27.0 251.0 21.9 251.0 15.5 Z M 251.0 15.5 "></path></clipPath><g clip-path="url(#clip0x6180010b3860)"><path d="M 251.0 15.5 C 251.0 9.1 246.1 4.0 240.0 4.0 C 233.9 4.0 229.0 9.1 229.0 15.5 C 229.0 21.9 233.9 27.0 240.0 27.0 C 246.1 27.0 251.0 21.9 251.0 15.5 Z M 251.0 15.5 " fill="#2DCBA1"></path></g></g><text xml:space="preserve" font-family="GillSans,Gill Sans" font-size="24.0" fill="#000000" transform="matrix(1.00, 0.00, -0.00, -1.00, 266.6, 7.0)">2</text><text xml:space="preserve" font-family="GillSans,Gill Sans" font-size="24.0" fill="#000000" transform="matrix(1.00, 0.00, -0.00, -1.00, 278.6, 7.0)">0</text><text xml:space="preserve" font-family="GillSans,Gill Sans" font-size="24.0" fill="#000000" transform="matrix(1.00, 0.00, -0.00, -1.00, 290.6, 7.0)">0</text><text xml:space="preserve" font-family="GillSans,Gill Sans" font-size="24.0" fill="#000000" transform="matrix(1.00, 0.00, -0.00, -1.00, 302.6, 7.0)">9</text><g><clipPath id="clip0x618001ead980"><path d="M 408.0 15.5 C 408.0 9.1 403.1 4.0 397.0 4.0 C 390.9 4.0 386.0 9.1 386.0 15.5 C 386.0 21.9 390.9 27.0 397.0 27.0 C 403.1 27.0 408.0 21.9 408.0 15.5 Z M 408.0 15.5 "></path></clipPath><g clip-path="url(#clip0x618001ead980)"><path d="M 408.0 15.5 C 408.0 9.1 403.1 4.0 397.0 4.0 C 390.9 4.0 386.0 9.1 386.0 15.5 C 386.0 21.9 390.9 27.0 397.0 27.0 C 403.1 27.0 408.0 21.9 408.0 15.5 Z M 408.0 15.5 " fill="#387ECA"></path></g></g><text xml:space="preserve" font-family="GillSans,Gill Sans" font-size="24.0" fill="#000000" transform="matrix(1.00, 0.00, -0.00, -1.00, 423.6, 7.0)">2</text><text xml:space="preserve" font-family="GillSans,Gill Sans" font-size="24.0" fill="#000000" transform="matrix(1.00, 0.00, -0.00, -1.00, 435.6, 7.0)">0</text><text xml:space="preserve" font-family="GillSans,Gill Sans" font-size="24.0" fill="#000000" transform="matrix(1.00, 0.00, -0.00, -1.00, 447.6, 7.0)">1</text><text xml:space="preserve" font-family="GillSans,Gill Sans" font-size="24.0" fill="#000000" transform="matrix(1.00, 0.00, -0.00, -1.00, 459.6, 7.0)">0</text><g><clipPath id="clip0x618000ab2720"><path d="M 565.0 15.5 C 565.0 9.1 560.1 4.0 554.0 4.0 C 547.9 4.0 543.0 9.1 543.0 15.5 C 543.0 21.9 547.9 27.0 554.0 27.0 C 560.1 27.0 565.0 21.9 565.0 15.5 Z M 565.0 15.5 "></path></clipPath><g clip-path="url(#clip0x618000ab2720)"><path d="M 565.0 15.5 C 565.0 9.1 560.1 4.0 554.0 4.0 C 547.9 4.0 543.0 9.1 543.0 15.5 C 543.0 21.9 547.9 27.0 554.0 27.0 C 560.1 27.0 565.0 21.9 565.0 15.5 Z M 565.0 15.5 " fill="#41A3E8"></path></g></g><text xml:space="preserve" font-family="GillSans,Gill Sans" font-size="24.0" fill="#000000" transform="matrix(1.00, 0.00, -0.00, -1.00, 580.6, 7.0)">2</text><text xml:space="preserve" font-family="GillSans,Gill Sans" font-size="24.0" fill="#000000" transform="matrix(1.00, 0.00, -0.00, -1.00, 592.6, 7.0)">0</text><text xml:space="preserve" font-family="GillSans,Gill Sans" font-size="24.0" fill="#000000" transform="matrix(1.00, 0.00, -0.00, -1.00, 604.6, 7.0)">1</text><text xml:space="preserve" font-family="GillSans,Gill Sans" font-size="24.0" fill="#000000" transform="matrix(1.00, 0.00, -0.00, -1.00, 616.6, 7.0)">1</text><g><clipPath id="clip0x6180028a8e80"><path d="M 722.0 15.5 C 722.0 9.1 717.1 4.0 711.0 4.0 C 704.9 4.0 700.0 9.1 700.0 15.5 C 700.0 21.9 704.9 27.0 711.0 27.0 C 717.1 27.0 722.0 21.9 722.0 15.5 Z M 722.0 15.5 "></path></clipPath><g clip-path="url(#clip0x6180028a8e80)"><path d="M 722.0 15.5 C 722.0 9.1 717.1 4.0 711.0 4.0 C 704.9 4.0 700.0 9.1 700.0 15.5 C 700.0 21.9 704.9 27.0 711.0 27.0 C 717.1 27.0 722.0 21.9 722.0 15.5 Z M 722.0 15.5 " fill="#434343"></path></g></g><text xml:space="preserve" font-family="GillSans,Gill Sans" font-size="24.0" fill="#000000" transform="matrix(1.00, 0.00, -0.00, -1.00, 737.7, 7.0)">2</text><text xml:space="preserve" font-family="GillSans,Gill Sans" font-size="24.0" fill="#000000" transform="matrix(1.00, 0.00, -0.00, -1.00, 749.7, 7.0)">0</text><text xml:space="preserve" font-family="GillSans,Gill Sans" font-size="24.0" fill="#000000" transform="matrix(1.00, 0.00, -0.00, -1.00, 761.7, 7.0)">1</text><text xml:space="preserve" font-family="GillSans,Gill Sans" font-size="24.0" fill="#000000" transform="matrix(1.00, 0.00, -0.00, -1.00, 773.7, 7.0)">2</text></g></svg>