<?xml version="1.0" encoding="UTF-8" standalone="no"?><svg xmlns="http://www.w3.org/2000/svg" xmlns:xlink="http://www.w3.org/1999/xlink" clip-rule="evenodd" stroke-miterlimit="10" viewBox="0 0 200 52"><desc>SVG generated by Keynote</desc><defs></defs><g transform="matrix(1.00, 0.00, -0.00, -1.00, 0.0, 52.0)"><text xml:space="preserve" font-family="Helvetica-Bold,Helvetica" font-weight="bold" font-size="25.0" fill="#FFFFFF" transform="matrix(1.00, 0.00, -0.00, -1.00, 36.1, 31.7)">J</text><text xml:space="preserve" font-family="Helvetica-Bold,Helvetica" font-weight="bold" font-size="25.0" fill="#FFFFFF" transform="matrix(1.00, 0.00, -0.00, -1.00, 50.0, 31.7)">A</text><text xml:space="preserve" font-family="Helvetica-Bold,Helvetica" font-weight="bold" font-size="25.0" fill="#FFFFFF" transform="matrix(1.00, 0.00, -0.00, -1.00, 68.1, 31.7)">N</text><text xml:space="preserve" font-family="Helvetica-Bold,Helvetica" font-weight="bold" font-size="25.0" fill="#FFFFFF" transform="matrix(1.00, 0.00, -0.00, -1.00, 86.1, 31.7)">E</text><text xml:space="preserve" font-family="Helvetica-Bold,Helvetica" font-weight="bold" font-size="25.0" fill="#FFFFFF" transform="matrix(1.00, 0.00, -0.00, -1.00, 102.8, 31.7)"> </text><text xml:space="preserve" font-family="Helvetica,Helvetica" font-size="25.0" fill="#FFFFFF" transform="matrix(1.00, 0.00, -0.00, -1.00, 109.7, 31.7)">D</text><text xml:space="preserve" font-family="Helvetica,Helvetica" font-size="25.0" fill="#FFFFFF" transform="matrix(1.00, 0.00, -0.00, -1.00, 127.8, 31.7)">O</text><text xml:space="preserve" font-family="Helvetica,Helvetica" font-size="25.0" fill="#FFFFFF" transform="matrix(1.00, 0.00, -0.00, -1.00, 147.2, 31.7)">E</text><text xml:space="preserve" font-family="Helvetica,Helvetica" font-size="25.0" fill="#FFFFFF" transform="matrix(1.00, 0.00, -0.00, -1.00, 0.7, 1.7)">C</text><text xml:space="preserve" font-family="Helvetica,Helvetica" font-size="25.0" fill="#FFFFFF" transform="matrix(1.00, 0.00, -0.00, -1.00, 18.7, 1.7)">u</text><text xml:space="preserve" font-family="Helvetica,Helvetica" font-size="25.0" fill="#FFFFFF" transform="matrix(1.00, 0.00, -0.00, -1.00, 32.6, 1.7)">s</text><text xml:space="preserve" font-family="Helvetica,Helvetica" font-size="25.0" fill="#FFFFFF" transform="matrix(1.00, 0.00, -0.00, -1.00, 45.1, 1.7)">t</text><text xml:space="preserve" font-family="Helvetica,Helvetica" font-size="25.0" fill="#FFFFFF" transform="matrix(1.00, 0.00, -0.00, -1.00, 52.1, 1.7)">o</text><text xml:space="preserve" font-family="Helvetica,Helvetica" font-size="25.0" fill="#FFFFFF" transform="matrix(1.00, 0.00, -0.00, -1.00, 66.0, 1.7)">m</text><text xml:space="preserve" font-family="Helvetica,Helvetica" font-size="25.0" fill="#FFFFFF" transform="matrix(1.00, 0.00, -0.00, -1.00, 86.8, 1.7)">e</text><text xml:space="preserve" font-family="Helvetica,Helvetica" font-size="25.0" fill="#FFFFFF" transform="matrix(1.00, 0.00, -0.00, -1.00, 100.7, 1.7)">r</text><text xml:space="preserve" font-family="Helvetica,Helvetica" font-size="25.0" fill="#FFFFFF" transform="matrix(1.00, 0.00, -0.00, -1.00, 109.0, 1.7)"> </text><text xml:space="preserve" font-family="Helvetica,Helvetica" font-size="25.0" fill="#FFFFFF" transform="matrix(1.00, 0.00, -0.00, -1.00, 116.0, 1.7)">S</text><text xml:space="preserve" font-family="Helvetica,Helvetica" font-size="25.0" fill="#FFFFFF" transform="matrix(1.00, 0.00, -0.00, -1.00, 132.7, 1.7)">e</text><text xml:space="preserve" font-family="Helvetica,Helvetica" font-size="25.0" fill="#FFFFFF" transform="matrix(1.00, 0.00, -0.00, -1.00, 146.6, 1.7)">r</text><text xml:space="preserve" font-family="Helvetica,Helvetica" font-size="25.0" fill="#FFFFFF" transform="matrix(1.00, 0.00, -0.00, -1.00, 154.9, 1.7)">v</text><text xml:space="preserve" font-family="Helvetica,Helvetica" font-size="25.0" fill="#FFFFFF" transform="matrix(1.00, 0.00, -0.00, -1.00, 167.4, 1.7)">i</text><text xml:space="preserve" font-family="Helvetica,Helvetica" font-size="25.0" fill="#FFFFFF" transform="matrix(1.00, 0.00, -0.00, -1.00, 173.0, 1.7)">c</text><text xml:space="preserve" font-family="Helvetica,Helvetica" font-size="25.0" fill="#FFFFFF" transform="matrix(1.00, 0.00, -0.00, -1.00, 185.5, 1.7)">e</text></g></svg>