<?xml version="1.0" encoding="UTF-8" standalone="no"?><svg xmlns="http://www.w3.org/2000/svg" xmlns:xlink="http://www.w3.org/1999/xlink" clip-rule="evenodd" stroke-miterlimit="10" viewBox="0 0 410 110"><desc>SVG generated by Keynote</desc><defs></defs><g transform="matrix(1.00, 0.00, -0.00, -1.00, 0.0, 110.0)"><text xml:space="preserve" font-family="Helvetica-Bold,Helvetica" font-weight="bold" font-size="25.0" fill="#FFFFFF" transform="matrix(1.00, 0.00, -0.00, -1.00, 1.0, 90.7)">T</text><text xml:space="preserve" font-family="Helvetica-Bold,Helvetica" font-weight="bold" font-size="25.0" fill="#FFFFFF" transform="matrix(1.00, 0.00, -0.00, -1.00, 14.4, 90.7)">e</text><text xml:space="preserve" font-family="Helvetica-Bold,Helvetica" font-weight="bold" font-size="25.0" fill="#FFFFFF" transform="matrix(1.00, 0.00, -0.00, -1.00, 28.3, 90.7)">x</text><text xml:space="preserve" font-family="Helvetica-Bold,Helvetica" font-weight="bold" font-size="25.0" fill="#FFFFFF" transform="matrix(1.00, 0.00, -0.00, -1.00, 42.2, 90.7)">t</text><text xml:space="preserve" font-family="Helvetica-Bold,Helvetica" font-weight="bold" font-size="25.0" fill="#FFFFFF" transform="matrix(1.00, 0.00, -0.00, -1.00, 50.6, 90.7)"> </text><text xml:space="preserve" font-family="Helvetica-Bold,Helvetica" font-weight="bold" font-size="25.0" fill="#FFFFFF" transform="matrix(1.00, 0.00, -0.00, -1.00, 57.5, 90.7)">g</text><text xml:space="preserve" font-family="Helvetica-Bold,Helvetica" font-weight="bold" font-size="25.0" fill="#FFFFFF" transform="matrix(1.00, 0.00, -0.00, -1.00, 72.8, 90.7)">o</text><text xml:space="preserve" font-family="Helvetica-Bold,Helvetica" font-weight="bold" font-size="25.0" fill="#FFFFFF" transform="matrix(1.00, 0.00, -0.00, -1.00, 88.0, 90.7)">e</text><text xml:space="preserve" font-family="Helvetica-Bold,Helvetica" font-weight="bold" font-size="25.0" fill="#FFFFFF" transform="matrix(1.00, 0.00, -0.00, -1.00, 101.9, 90.7)">s</text><text xml:space="preserve" font-family="Helvetica-Bold,Helvetica" font-weight="bold" font-size="25.0" fill="#FFFFFF" transform="matrix(1.00, 0.00, -0.00, -1.00, 115.9, 90.7)"> </text><text xml:space="preserve" font-family="Helvetica-Bold,Helvetica" font-weight="bold" font-size="25.0" fill="#FFFFFF" transform="matrix(1.00, 0.00, -0.00, -1.00, 122.8, 90.7)">h</text><text xml:space="preserve" font-family="Helvetica-Bold,Helvetica" font-weight="bold" font-size="25.0" fill="#FFFFFF" transform="matrix(1.00, 0.00, -0.00, -1.00, 138.1, 90.7)">e</text><text xml:space="preserve" font-family="Helvetica-Bold,Helvetica" font-weight="bold" font-size="25.0" fill="#FFFFFF" transform="matrix(1.00, 0.00, -0.00, -1.00, 152.0, 90.7)">r</text><text xml:space="preserve" font-family="Helvetica-Bold,Helvetica" font-weight="bold" font-size="25.0" fill="#FFFFFF" transform="matrix(1.00, 0.00, -0.00, -1.00, 161.7, 90.7)">e</text><text xml:space="preserve" font-family="Helvetica,Helvetica" font-size="23.0" fill="#D6D6D6" transform="matrix(1.00, 0.00, -0.00, -1.00, 1.0, 62.3)">T</text><text xml:space="preserve" font-family="Helvetica,Helvetica" font-size="23.0" fill="#D6D6D6" transform="matrix(1.00, 0.00, -0.00, -1.00, 15.0, 62.3)">h</text><text xml:space="preserve" font-family="Helvetica,Helvetica" font-size="23.0" fill="#D6D6D6" transform="matrix(1.00, 0.00, -0.00, -1.00, 27.8, 62.3)">e</text><text xml:space="preserve" font-family="Helvetica,Helvetica" font-size="23.0" fill="#D6D6D6" transform="matrix(1.00, 0.00, -0.00, -1.00, 40.6, 62.3)"> </text><text xml:space="preserve" font-family="Helvetica,Helvetica" font-size="23.0" fill="#D6D6D6" transform="matrix(1.00, 0.00, -0.00, -1.00, 47.0, 62.3)">s</text><text xml:space="preserve" font-family="Helvetica,Helvetica" font-size="23.0" fill="#D6D6D6" transform="matrix(1.00, 0.00, -0.00, -1.00, 58.5, 62.3)">y</text><text xml:space="preserve" font-family="Helvetica,Helvetica" font-size="23.0" fill="#D6D6D6" transform="matrix(1.00, 0.00, -0.00, -1.00, 70.0, 62.3)">s</text><text xml:space="preserve" font-family="Helvetica,Helvetica" font-size="23.0" fill="#D6D6D6" transform="matrix(1.00, 0.00, -0.00, -1.00, 81.5, 62.3)">t</text><text xml:space="preserve" font-family="Helvetica,Helvetica" font-size="23.0" fill="#D6D6D6" transform="matrix(1.00, 0.00, -0.00, -1.00, 87.9, 62.3)">e</text><text xml:space="preserve" font-family="Helvetica,Helvetica" font-size="23.0" fill="#D6D6D6" transform="matrix(1.00, 0.00, -0.00, -1.00, 100.7, 62.3)">m</text><text xml:space="preserve" font-family="Helvetica,Helvetica" font-size="23.0" fill="#D6D6D6" transform="matrix(1.00, 0.00, -0.00, -1.00, 119.9, 62.3)"> </text><text xml:space="preserve" font-family="Helvetica,Helvetica" font-size="23.0" fill="#D6D6D6" transform="matrix(1.00, 0.00, -0.00, -1.00, 126.2, 62.3)">i</text><text xml:space="preserve" font-family="Helvetica,Helvetica" font-size="23.0" fill="#D6D6D6" transform="matrix(1.00, 0.00, -0.00, -1.00, 131.4, 62.3)">s</text><text xml:space="preserve" font-family="Helvetica,Helvetica" font-size="23.0" fill="#D6D6D6" transform="matrix(1.00, 0.00, -0.00, -1.00, 142.9, 62.3)"> </text><text xml:space="preserve" font-family="Helvetica,Helvetica" font-size="23.0" fill="#D6D6D6" transform="matrix(1.00, 0.00, -0.00, -1.00, 149.2, 62.3)">m</text><text xml:space="preserve" font-family="Helvetica,Helvetica" font-size="23.0" fill="#D6D6D6" transform="matrix(1.00, 0.00, -0.00, -1.00, 168.4, 62.3)">u</text><text xml:space="preserve" font-family="Helvetica,Helvetica" font-size="23.0" fill="#D6D6D6" transform="matrix(1.00, 0.00, -0.00, -1.00, 181.2, 62.3)">l</text><text xml:space="preserve" font-family="Helvetica,Helvetica" font-size="23.0" fill="#D6D6D6" transform="matrix(1.00, 0.00, -0.00, -1.00, 186.3, 62.3)">t</text><text xml:space="preserve" font-family="Helvetica,Helvetica" font-size="23.0" fill="#D6D6D6" transform="matrix(1.00, 0.00, -0.00, -1.00, 192.7, 62.3)">i</text><text xml:space="preserve" font-family="Helvetica,Helvetica" font-size="23.0" fill="#D6D6D6" transform="matrix(1.00, 0.00, -0.00, -1.00, 197.8, 62.3)"> </text><text xml:space="preserve" font-family="Helvetica,Helvetica" font-size="23.0" fill="#D6D6D6" transform="matrix(1.00, 0.00, -0.00, -1.00, 204.2, 62.3)">l</text><text xml:space="preserve" font-family="Helvetica,Helvetica" font-size="23.0" fill="#D6D6D6" transform="matrix(1.00, 0.00, -0.00, -1.00, 209.3, 62.3)">a</text><text xml:space="preserve" font-family="Helvetica,Helvetica" font-size="23.0" fill="#D6D6D6" transform="matrix(1.00, 0.00, -0.00, -1.00, 222.1, 62.3)">n</text><text xml:space="preserve" font-family="Helvetica,Helvetica" font-size="23.0" fill="#D6D6D6" transform="matrix(1.00, 0.00, -0.00, -1.00, 234.9, 62.3)">g</text><text xml:space="preserve" font-family="Helvetica,Helvetica" font-size="23.0" fill="#D6D6D6" transform="matrix(1.00, 0.00, -0.00, -1.00, 247.7, 62.3)">u</text><text xml:space="preserve" font-family="Helvetica,Helvetica" font-size="23.0" fill="#D6D6D6" transform="matrix(1.00, 0.00, -0.00, -1.00, 260.5, 62.3)">a</text><text xml:space="preserve" font-family="Helvetica,Helvetica" font-size="23.0" fill="#D6D6D6" transform="matrix(1.00, 0.00, -0.00, -1.00, 273.3, 62.3)">g</text><text xml:space="preserve" font-family="Helvetica,Helvetica" font-size="23.0" fill="#D6D6D6" transform="matrix(1.00, 0.00, -0.00, -1.00, 286.1, 62.3)">e</text><text xml:space="preserve" font-family="Helvetica,Helvetica" font-size="23.0" fill="#D6D6D6" transform="matrix(1.00, 0.00, -0.00, -1.00, 298.9, 62.3)"> </text><text xml:space="preserve" font-family="Helvetica,Helvetica" font-size="23.0" fill="#D6D6D6" transform="matrix(1.00, 0.00, -0.00, -1.00, 305.3, 62.3)">s</text><text xml:space="preserve" font-family="Helvetica,Helvetica" font-size="23.0" fill="#D6D6D6" transform="matrix(1.00, 0.00, -0.00, -1.00, 316.8, 62.3)">u</text><text xml:space="preserve" font-family="Helvetica,Helvetica" font-size="23.0" fill="#D6D6D6" transform="matrix(1.00, 0.00, -0.00, -1.00, 329.6, 62.3)">p</text><text xml:space="preserve" font-family="Helvetica,Helvetica" font-size="23.0" fill="#D6D6D6" transform="matrix(1.00, 0.00, -0.00, -1.00, 342.4, 62.3)">p</text><text xml:space="preserve" font-family="Helvetica,Helvetica" font-size="23.0" fill="#D6D6D6" transform="matrix(1.00, 0.00, -0.00, -1.00, 355.2, 62.3)">o</text><text xml:space="preserve" font-family="Helvetica,Helvetica" font-size="23.0" fill="#D6D6D6" transform="matrix(1.00, 0.00, -0.00, -1.00, 368.0, 62.3)">r</text><text xml:space="preserve" font-family="Helvetica,Helvetica" font-size="23.0" fill="#D6D6D6" transform="matrix(1.00, 0.00, -0.00, -1.00, 375.6, 62.3)">t</text><text xml:space="preserve" font-family="Helvetica,Helvetica" font-size="23.0" fill="#D6D6D6" transform="matrix(1.00, 0.00, -0.00, -1.00, 382.0, 62.3)">e</text><text xml:space="preserve" font-family="Helvetica,Helvetica" font-size="23.0" fill="#D6D6D6" transform="matrix(1.00, 0.00, -0.00, -1.00, 394.8, 62.3)">d</text><text xml:space="preserve" font-family="Helvetica,Helvetica" font-size="23.0" fill="#D6D6D6" transform="matrix(1.00, 0.00, -0.00, -1.00, 407.6, 62.3)"> </text><text xml:space="preserve" font-family="Helvetica,Helvetica" font-size="23.0" fill="#D6D6D6" transform="matrix(1.00, 0.00, -0.00, -1.00, 1.0, 34.3)">a</text><text xml:space="preserve" font-family="Helvetica,Helvetica" font-size="23.0" fill="#D6D6D6" transform="matrix(1.00, 0.00, -0.00, -1.00, 13.8, 34.3)">n</text><text xml:space="preserve" font-family="Helvetica,Helvetica" font-size="23.0" fill="#D6D6D6" transform="matrix(1.00, 0.00, -0.00, -1.00, 26.6, 34.3)">d</text><text xml:space="preserve" font-family="Helvetica,Helvetica" font-size="23.0" fill="#D6D6D6" transform="matrix(1.00, 0.00, -0.00, -1.00, 39.4, 34.3)"> </text><text xml:space="preserve" font-family="Helvetica,Helvetica" font-size="23.0" fill="#D6D6D6" transform="matrix(1.00, 0.00, -0.00, -1.00, 45.8, 34.3)">h</text><text xml:space="preserve" font-family="Helvetica,Helvetica" font-size="23.0" fill="#D6D6D6" transform="matrix(1.00, 0.00, -0.00, -1.00, 58.6, 34.3)">a</text><text xml:space="preserve" font-family="Helvetica,Helvetica" font-size="23.0" fill="#D6D6D6" transform="matrix(1.00, 0.00, -0.00, -1.00, 71.4, 34.3)">v</text><text xml:space="preserve" font-family="Helvetica,Helvetica" font-size="23.0" fill="#D6D6D6" transform="matrix(1.00, 0.00, -0.00, -1.00, 82.9, 34.3)">e</text><text xml:space="preserve" font-family="Helvetica,Helvetica" font-size="23.0" fill="#D6D6D6" transform="matrix(1.00, 0.00, -0.00, -1.00, 95.7, 34.3)"> </text><text xml:space="preserve" font-family="Helvetica,Helvetica" font-size="23.0" fill="#D6D6D6" transform="matrix(1.00, 0.00, -0.00, -1.00, 102.0, 34.3)">t</text><text xml:space="preserve" font-family="Helvetica,Helvetica" font-size="23.0" fill="#D6D6D6" transform="matrix(1.00, 0.00, -0.00, -1.00, 108.4, 34.3)">h</text><text xml:space="preserve" font-family="Helvetica,Helvetica" font-size="23.0" fill="#D6D6D6" transform="matrix(1.00, 0.00, -0.00, -1.00, 121.2, 34.3)">e</text><text xml:space="preserve" font-family="Helvetica,Helvetica" font-size="23.0" fill="#D6D6D6" transform="matrix(1.00, 0.00, -0.00, -1.00, 134.0, 34.3)"> </text><text xml:space="preserve" font-family="Helvetica,Helvetica" font-size="23.0" fill="#D6D6D6" transform="matrix(1.00, 0.00, -0.00, -1.00, 140.4, 34.3)">m</text><text xml:space="preserve" font-family="Helvetica,Helvetica" font-size="23.0" fill="#D6D6D6" transform="matrix(1.00, 0.00, -0.00, -1.00, 159.6, 34.3)">o</text><text xml:space="preserve" font-family="Helvetica,Helvetica" font-size="23.0" fill="#D6D6D6" transform="matrix(1.00, 0.00, -0.00, -1.00, 172.4, 34.3)">s</text><text xml:space="preserve" font-family="Helvetica,Helvetica" font-size="23.0" fill="#D6D6D6" transform="matrix(1.00, 0.00, -0.00, -1.00, 183.9, 34.3)">t</text><text xml:space="preserve" font-family="Helvetica,Helvetica" font-size="23.0" fill="#D6D6D6" transform="matrix(1.00, 0.00, -0.00, -1.00, 190.3, 34.3)"> </text><text xml:space="preserve" font-family="Helvetica,Helvetica" font-size="23.0" fill="#D6D6D6" transform="matrix(1.00, 0.00, -0.00, -1.00, 196.6, 34.3)">a</text><text xml:space="preserve" font-family="Helvetica,Helvetica" font-size="23.0" fill="#D6D6D6" transform="matrix(1.00, 0.00, -0.00, -1.00, 209.4, 34.3)">d</text><text xml:space="preserve" font-family="Helvetica,Helvetica" font-size="23.0" fill="#D6D6D6" transform="matrix(1.00, 0.00, -0.00, -1.00, 222.2, 34.3)">v</text><text xml:space="preserve" font-family="Helvetica,Helvetica" font-size="23.0" fill="#D6D6D6" transform="matrix(1.00, 0.00, -0.00, -1.00, 233.7, 34.3)">a</text><text xml:space="preserve" font-family="Helvetica,Helvetica" font-size="23.0" fill="#D6D6D6" transform="matrix(1.00, 0.00, -0.00, -1.00, 246.5, 34.3)">n</text><text xml:space="preserve" font-family="Helvetica,Helvetica" font-size="23.0" fill="#D6D6D6" transform="matrix(1.00, 0.00, -0.00, -1.00, 259.3, 34.3)">c</text><text xml:space="preserve" font-family="Helvetica,Helvetica" font-size="23.0" fill="#D6D6D6" transform="matrix(1.00, 0.00, -0.00, -1.00, 270.8, 34.3)">e</text><text xml:space="preserve" font-family="Helvetica,Helvetica" font-size="23.0" fill="#D6D6D6" transform="matrix(1.00, 0.00, -0.00, -1.00, 283.6, 34.3)">d</text><text xml:space="preserve" font-family="Helvetica,Helvetica" font-size="23.0" fill="#D6D6D6" transform="matrix(1.00, 0.00, -0.00, -1.00, 296.4, 34.3)"> </text><text xml:space="preserve" font-family="Helvetica,Helvetica" font-size="23.0" fill="#D6D6D6" transform="matrix(1.00, 0.00, -0.00, -1.00, 302.8, 34.3)">t</text><text xml:space="preserve" font-family="Helvetica,Helvetica" font-size="23.0" fill="#D6D6D6" transform="matrix(1.00, 0.00, -0.00, -1.00, 309.2, 34.3)">r</text><text xml:space="preserve" font-family="Helvetica,Helvetica" font-size="23.0" fill="#D6D6D6" transform="matrix(1.00, 0.00, -0.00, -1.00, 316.8, 34.3)">a</text><text xml:space="preserve" font-family="Helvetica,Helvetica" font-size="23.0" fill="#D6D6D6" transform="matrix(1.00, 0.00, -0.00, -1.00, 329.6, 34.3)">c</text><text xml:space="preserve" font-family="Helvetica,Helvetica" font-size="23.0" fill="#D6D6D6" transform="matrix(1.00, 0.00, -0.00, -1.00, 341.1, 34.3)">k</text><text xml:space="preserve" font-family="Helvetica,Helvetica" font-size="23.0" fill="#D6D6D6" transform="matrix(1.00, 0.00, -0.00, -1.00, 352.6, 34.3)">i</text><text xml:space="preserve" font-family="Helvetica,Helvetica" font-size="23.0" fill="#D6D6D6" transform="matrix(1.00, 0.00, -0.00, -1.00, 357.8, 34.3)">n</text><text xml:space="preserve" font-family="Helvetica,Helvetica" font-size="23.0" fill="#D6D6D6" transform="matrix(1.00, 0.00, -0.00, -1.00, 370.6, 34.3)">g</text><text xml:space="preserve" font-family="Helvetica,Helvetica" font-size="23.0" fill="#D6D6D6" transform="matrix(1.00, 0.00, -0.00, -1.00, 383.3, 34.3)"> </text><text xml:space="preserve" font-family="Helvetica,Helvetica" font-size="23.0" fill="#D6D6D6" transform="matrix(1.00, 0.00, -0.00, -1.00, 389.7, 34.3)">o</text><text xml:space="preserve" font-family="Helvetica,Helvetica" font-size="23.0" fill="#D6D6D6" transform="matrix(1.00, 0.00, -0.00, -1.00, 402.5, 34.3)">f</text><text xml:space="preserve" font-family="Helvetica,Helvetica" font-size="23.0" fill="#D6D6D6" transform="matrix(1.00, 0.00, -0.00, -1.00, 408.9, 34.3)"> </text><text xml:space="preserve" font-family="Helvetica,Helvetica" font-size="23.0" fill="#D6D6D6" transform="matrix(1.00, 0.00, -0.00, -1.00, 1.0, 6.3)">t</text><text xml:space="preserve" font-family="Helvetica,Helvetica" font-size="23.0" fill="#D6D6D6" transform="matrix(1.00, 0.00, -0.00, -1.00, 7.4, 6.3)">i</text><text xml:space="preserve" font-family="Helvetica,Helvetica" font-size="23.0" fill="#D6D6D6" transform="matrix(1.00, 0.00, -0.00, -1.00, 12.5, 6.3)">m</text><text xml:space="preserve" font-family="Helvetica,Helvetica" font-size="23.0" fill="#D6D6D6" transform="matrix(1.00, 0.00, -0.00, -1.00, 31.7, 6.3)">e</text><text xml:space="preserve" font-family="Helvetica,Helvetica" font-size="23.0" fill="#D6D6D6" transform="matrix(1.00, 0.00, -0.00, -1.00, 44.5, 6.3)">.</text><text xml:space="preserve" font-family="Helvetica,Helvetica" font-size="23.0" fill="#D6D6D6" transform="matrix(1.00, 0.00, -0.00, -1.00, 50.8, 6.3)"> </text><text xml:space="preserve" font-family="Helvetica,Helvetica" font-size="23.0" fill="#D6D6D6" transform="matrix(1.00, 0.00, -0.00, -1.00, 56.8, 6.3)">Y</text><text xml:space="preserve" font-family="Helvetica,Helvetica" font-size="23.0" fill="#D6D6D6" transform="matrix(1.00, 0.00, -0.00, -1.00, 70.1, 6.3)">o</text><text xml:space="preserve" font-family="Helvetica,Helvetica" font-size="23.0" fill="#D6D6D6" transform="matrix(1.00, 0.00, -0.00, -1.00, 82.8, 6.3)">u</text><text xml:space="preserve" font-family="Helvetica,Helvetica" font-size="23.0" fill="#D6D6D6" transform="matrix(1.00, 0.00, -0.00, -1.00, 95.6, 6.3)"> </text><text xml:space="preserve" font-family="Helvetica,Helvetica" font-size="23.0" fill="#D6D6D6" transform="matrix(1.00, 0.00, -0.00, -1.00, 102.0, 6.3)">w</text><text xml:space="preserve" font-family="Helvetica,Helvetica" font-size="23.0" fill="#D6D6D6" transform="matrix(1.00, 0.00, -0.00, -1.00, 118.6, 6.3)">i</text><text xml:space="preserve" font-family="Helvetica,Helvetica" font-size="23.0" fill="#D6D6D6" transform="matrix(1.00, 0.00, -0.00, -1.00, 123.8, 6.3)">l</text><text xml:space="preserve" font-family="Helvetica,Helvetica" font-size="23.0" fill="#D6D6D6" transform="matrix(1.00, 0.00, -0.00, -1.00, 128.9, 6.3)">l</text><text xml:space="preserve" font-family="Helvetica,Helvetica" font-size="23.0" fill="#D6D6D6" transform="matrix(1.00, 0.00, -0.00, -1.00, 134.0, 6.3)"> </text><text xml:space="preserve" font-family="Helvetica,Helvetica" font-size="23.0" fill="#D6D6D6" transform="matrix(1.00, 0.00, -0.00, -1.00, 140.4, 6.3)">n</text><text xml:space="preserve" font-family="Helvetica,Helvetica" font-size="23.0" fill="#D6D6D6" transform="matrix(1.00, 0.00, -0.00, -1.00, 153.2, 6.3)">o</text><text xml:space="preserve" font-family="Helvetica,Helvetica" font-size="23.0" fill="#D6D6D6" transform="matrix(1.00, 0.00, -0.00, -1.00, 166.0, 6.3)"> </text><text xml:space="preserve" font-family="Helvetica,Helvetica" font-size="23.0" fill="#D6D6D6" transform="matrix(1.00, 0.00, -0.00, -1.00, 172.4, 6.3)">l</text><text xml:space="preserve" font-family="Helvetica,Helvetica" font-size="23.0" fill="#D6D6D6" transform="matrix(1.00, 0.00, -0.00, -1.00, 177.5, 6.3)">o</text><text xml:space="preserve" font-family="Helvetica,Helvetica" font-size="23.0" fill="#D6D6D6" transform="matrix(1.00, 0.00, -0.00, -1.00, 190.3, 6.3)">n</text><text xml:space="preserve" font-family="Helvetica,Helvetica" font-size="23.0" fill="#D6D6D6" transform="matrix(1.00, 0.00, -0.00, -1.00, 203.1, 6.3)">g</text><text xml:space="preserve" font-family="Helvetica,Helvetica" font-size="23.0" fill="#D6D6D6" transform="matrix(1.00, 0.00, -0.00, -1.00, 215.9, 6.3)">e</text><text xml:space="preserve" font-family="Helvetica,Helvetica" font-size="23.0" fill="#D6D6D6" transform="matrix(1.00, 0.00, -0.00, -1.00, 228.7, 6.3)">r</text><text xml:space="preserve" font-family="Helvetica,Helvetica" font-size="23.0" fill="#D6D6D6" transform="matrix(1.00, 0.00, -0.00, -1.00, 236.3, 6.3)"> </text><text xml:space="preserve" font-family="Helvetica,Helvetica" font-size="23.0" fill="#D6D6D6" transform="matrix(1.00, 0.00, -0.00, -1.00, 242.7, 6.3)">t</text><text xml:space="preserve" font-family="Helvetica,Helvetica" font-size="23.0" fill="#D6D6D6" transform="matrix(1.00, 0.00, -0.00, -1.00, 249.1, 6.3)">h</text><text xml:space="preserve" font-family="Helvetica,Helvetica" font-size="23.0" fill="#D6D6D6" transform="matrix(1.00, 0.00, -0.00, -1.00, 261.9, 6.3)">i</text><text xml:space="preserve" font-family="Helvetica,Helvetica" font-size="23.0" fill="#D6D6D6" transform="matrix(1.00, 0.00, -0.00, -1.00, 267.0, 6.3)">n</text><text xml:space="preserve" font-family="Helvetica,Helvetica" font-size="23.0" fill="#D6D6D6" transform="matrix(1.00, 0.00, -0.00, -1.00, 279.8, 6.3)">k</text><text xml:space="preserve" font-family="Helvetica,Helvetica" font-size="23.0" fill="#D6D6D6" transform="matrix(1.00, 0.00, -0.00, -1.00, 291.3, 6.3)"> </text><text xml:space="preserve" font-family="Helvetica,Helvetica" font-size="23.0" fill="#D6D6D6" transform="matrix(1.00, 0.00, -0.00, -1.00, 297.7, 6.3)">t</text><text xml:space="preserve" font-family="Helvetica,Helvetica" font-size="23.0" fill="#D6D6D6" transform="matrix(1.00, 0.00, -0.00, -1.00, 304.1, 6.3)">i</text><text xml:space="preserve" font-family="Helvetica,Helvetica" font-size="23.0" fill="#D6D6D6" transform="matrix(1.00, 0.00, -0.00, -1.00, 309.2, 6.3)">m</text><text xml:space="preserve" font-family="Helvetica,Helvetica" font-size="23.0" fill="#D6D6D6" transform="matrix(1.00, 0.00, -0.00, -1.00, 328.3, 6.3)">e</text><text xml:space="preserve" font-family="Helvetica,Helvetica" font-size="23.0" fill="#D6D6D6" transform="matrix(1.00, 0.00, -0.00, -1.00, 341.1, 6.3)"> </text></g></svg>