<?xml version="1.0" encoding="UTF-8" standalone="no"?><svg xmlns="http://www.w3.org/2000/svg" xmlns:xlink="http://www.w3.org/1999/xlink" clip-rule="evenodd" stroke-miterlimit="10" viewBox="0 0 54 55"><desc>SVG generated by Keynote</desc><defs></defs><g transform="matrix(1.00, 0.00, -0.00, -1.00, 0.0, 55.0)"><path d="M 41.6 10.9 C 38.3 10.9 35.5 16.2 34.2 23.0 L 38.4 23.0 C 42.0 23.0 44.9 26.2 44.9 30.8 C 44.9 35.5 42.0 39.0 38.4 39.0 L 34.2 39.0 C 35.5 45.8 38.3 50.7 41.6 50.7 C 46.1 50.7 49.7 41.8 49.7 30.8 C 49.7 19.8 46.1 10.9 41.6 10.9 M 22.0 26.0 L 22.0 26.0 L 22.0 25.8 C 20.2 25.8 18.9 28.1 18.9 30.8 C 18.9 33.6 20.3 36.0 22.1 36.0 L 22.5 36.0 C 25.6 36.0 28.4 37.0 31.0 39.1 C 30.5 36.5 30.2 33.6 30.2 30.8 C 30.2 28.0 30.5 25.1 31.0 22.5 C 28.4 24.6 25.6 25.8 22.5 25.8 M 20.5 4.3 L 14.0 4.0 L 14.0 19.2 C 14.0 20.4 13.7 22.0 13.1 23.0 L 14.0 23.0 L 14.0 23.0 L 19.1 23.0 C 19.0 22.5 19.0 21.5 19.0 20.9 L 19.0 9.3 C 19.0 7.7 19.7 6.6 20.3 6.0 C 20.3 5.9 20.4 5.8 20.5 5.7 C 20.5 5.7 20.5 4.3 20.5 4.3 Z M 4.2 30.8 C 4.2 33.6 5.7 36.0 7.5 36.0 L 18.9 36.0 C 17.9 34.8 17.2 32.8 17.2 30.8 C 17.2 28.8 17.9 27.2 18.9 26.0 L 7.5 26.0 C 5.7 26.0 4.2 28.1 4.2 30.8 M 33.5 30.8 C 33.5 32.5 33.6 34.4 33.8 36.0 L 38.4 36.0 C 40.2 36.0 41.6 33.6 41.6 30.8 C 41.6 28.1 40.2 26.0 38.4 26.0 L 33.8 26.0 C 33.6 27.6 33.5 29.1 33.5 30.8 M 41.6 54.0 C 38.3 54.0 35.7 51.6 33.8 48.0 L 33.8 48.0 C 31.0 42.5 26.9 39.0 22.5 39.0 L 21.4 39.0 L 14.3 39.0 L 7.5 39.0 C 3.9 39.0 1.0 35.5 1.0 30.8 C 1.0 26.2 3.9 22.5 7.5 22.5 C 9.3 22.5 11.0 21.0 11.0 19.2 L 11.0 4.3 C 11.0 2.5 12.2 1.0 14.0 1.0 L 20.5 1.0 C 22.3 1.0 24.0 2.5 24.0 4.3 L 24.0 6.0 C 24.0 7.6 22.0 8.4 22.0 9.3 L 22.0 20.9 C 22.0 20.9 22.1 20.9 22.1 21.0 C 22.2 21.2 22.2 21.4 22.3 21.6 C 22.4 21.7 22.4 21.7 22.4 21.8 C 22.6 22.0 22.7 22.1 22.9 22.3 C 22.9 22.3 22.9 22.3 22.9 22.3 C 22.9 22.3 23.0 22.3 23.0 22.3 C 23.1 22.4 23.2 22.4 23.4 22.4 C 27.5 22.0 31.2 19.1 33.8 14.0 L 33.8 14.0 C 35.7 10.4 38.3 7.6 41.6 7.6 C 49.1 7.6 53.0 19.3 53.0 30.8 C 53.0 42.3 49.1 54.0 41.6 54.0 " fill="#FFFFFF"></path></g></svg>