<?xml version="1.0" encoding="UTF-8" standalone="no"?><svg xmlns="http://www.w3.org/2000/svg" xmlns:xlink="http://www.w3.org/1999/xlink" clip-rule="evenodd" stroke-miterlimit="10" viewBox="0 0 411 110"><desc>SVG generated by Keynote</desc><defs></defs><g transform="matrix(1.00, 0.00, -0.00, -1.00, 0.0, 110.0)"><text xml:space="preserve" font-family="Helvetica-Bold,Helvetica" font-weight="bold" font-size="25.0" fill="#FFFFFF" transform="matrix(1.00, 0.00, -0.00, -1.00, 1.9, 90.7)">T</text><text xml:space="preserve" font-family="Helvetica-Bold,Helvetica" font-weight="bold" font-size="25.0" fill="#FFFFFF" transform="matrix(1.00, 0.00, -0.00, -1.00, 15.3, 90.7)">e</text><text xml:space="preserve" font-family="Helvetica-Bold,Helvetica" font-weight="bold" font-size="25.0" fill="#FFFFFF" transform="matrix(1.00, 0.00, -0.00, -1.00, 29.3, 90.7)">x</text><text xml:space="preserve" font-family="Helvetica-Bold,Helvetica" font-weight="bold" font-size="25.0" fill="#FFFFFF" transform="matrix(1.00, 0.00, -0.00, -1.00, 43.2, 90.7)">t</text><text xml:space="preserve" font-family="Helvetica-Bold,Helvetica" font-weight="bold" font-size="25.0" fill="#FFFFFF" transform="matrix(1.00, 0.00, -0.00, -1.00, 51.5, 90.7)"> </text><text xml:space="preserve" font-family="Helvetica-Bold,Helvetica" font-weight="bold" font-size="25.0" fill="#FFFFFF" transform="matrix(1.00, 0.00, -0.00, -1.00, 58.4, 90.7)">g</text><text xml:space="preserve" font-family="Helvetica-Bold,Helvetica" font-weight="bold" font-size="25.0" fill="#FFFFFF" transform="matrix(1.00, 0.00, -0.00, -1.00, 73.7, 90.7)">o</text><text xml:space="preserve" font-family="Helvetica-Bold,Helvetica" font-weight="bold" font-size="25.0" fill="#FFFFFF" transform="matrix(1.00, 0.00, -0.00, -1.00, 89.0, 90.7)">e</text><text xml:space="preserve" font-family="Helvetica-Bold,Helvetica" font-weight="bold" font-size="25.0" fill="#FFFFFF" transform="matrix(1.00, 0.00, -0.00, -1.00, 102.9, 90.7)">s</text><text xml:space="preserve" font-family="Helvetica-Bold,Helvetica" font-weight="bold" font-size="25.0" fill="#FFFFFF" transform="matrix(1.00, 0.00, -0.00, -1.00, 116.8, 90.7)"> </text><text xml:space="preserve" font-family="Helvetica-Bold,Helvetica" font-weight="bold" font-size="25.0" fill="#FFFFFF" transform="matrix(1.00, 0.00, -0.00, -1.00, 123.7, 90.7)">h</text><text xml:space="preserve" font-family="Helvetica-Bold,Helvetica" font-weight="bold" font-size="25.0" fill="#FFFFFF" transform="matrix(1.00, 0.00, -0.00, -1.00, 139.0, 90.7)">e</text><text xml:space="preserve" font-family="Helvetica-Bold,Helvetica" font-weight="bold" font-size="25.0" fill="#FFFFFF" transform="matrix(1.00, 0.00, -0.00, -1.00, 152.9, 90.7)">r</text><text xml:space="preserve" font-family="Helvetica-Bold,Helvetica" font-weight="bold" font-size="25.0" fill="#FFFFFF" transform="matrix(1.00, 0.00, -0.00, -1.00, 162.6, 90.7)">e</text><text xml:space="preserve" font-family="Helvetica,Helvetica" font-size="23.0" fill="#D6D6D6" transform="matrix(1.00, 0.00, -0.00, -1.00, 1.9, 62.3)">T</text><text xml:space="preserve" font-family="Helvetica,Helvetica" font-size="23.0" fill="#D6D6D6" transform="matrix(1.00, 0.00, -0.00, -1.00, 16.0, 62.3)">h</text><text xml:space="preserve" font-family="Helvetica,Helvetica" font-size="23.0" fill="#D6D6D6" transform="matrix(1.00, 0.00, -0.00, -1.00, 28.8, 62.3)">e</text><text xml:space="preserve" font-family="Helvetica,Helvetica" font-size="23.0" fill="#D6D6D6" transform="matrix(1.00, 0.00, -0.00, -1.00, 41.6, 62.3)"> </text><text xml:space="preserve" font-family="Helvetica,Helvetica" font-size="23.0" fill="#D6D6D6" transform="matrix(1.00, 0.00, -0.00, -1.00, 47.9, 62.3)">s</text><text xml:space="preserve" font-family="Helvetica,Helvetica" font-size="23.0" fill="#D6D6D6" transform="matrix(1.00, 0.00, -0.00, -1.00, 59.4, 62.3)">y</text><text xml:space="preserve" font-family="Helvetica,Helvetica" font-size="23.0" fill="#D6D6D6" transform="matrix(1.00, 0.00, -0.00, -1.00, 70.9, 62.3)">s</text><text xml:space="preserve" font-family="Helvetica,Helvetica" font-size="23.0" fill="#D6D6D6" transform="matrix(1.00, 0.00, -0.00, -1.00, 82.4, 62.3)">t</text><text xml:space="preserve" font-family="Helvetica,Helvetica" font-size="23.0" fill="#D6D6D6" transform="matrix(1.00, 0.00, -0.00, -1.00, 88.8, 62.3)">e</text><text xml:space="preserve" font-family="Helvetica,Helvetica" font-size="23.0" fill="#D6D6D6" transform="matrix(1.00, 0.00, -0.00, -1.00, 101.6, 62.3)">m</text><text xml:space="preserve" font-family="Helvetica,Helvetica" font-size="23.0" fill="#D6D6D6" transform="matrix(1.00, 0.00, -0.00, -1.00, 120.8, 62.3)"> </text><text xml:space="preserve" font-family="Helvetica,Helvetica" font-size="23.0" fill="#D6D6D6" transform="matrix(1.00, 0.00, -0.00, -1.00, 127.2, 62.3)">i</text><text xml:space="preserve" font-family="Helvetica,Helvetica" font-size="23.0" fill="#D6D6D6" transform="matrix(1.00, 0.00, -0.00, -1.00, 132.3, 62.3)">s</text><text xml:space="preserve" font-family="Helvetica,Helvetica" font-size="23.0" fill="#D6D6D6" transform="matrix(1.00, 0.00, -0.00, -1.00, 143.8, 62.3)"> </text><text xml:space="preserve" font-family="Helvetica,Helvetica" font-size="23.0" fill="#D6D6D6" transform="matrix(1.00, 0.00, -0.00, -1.00, 150.2, 62.3)">m</text><text xml:space="preserve" font-family="Helvetica,Helvetica" font-size="23.0" fill="#D6D6D6" transform="matrix(1.00, 0.00, -0.00, -1.00, 169.3, 62.3)">u</text><text xml:space="preserve" font-family="Helvetica,Helvetica" font-size="23.0" fill="#D6D6D6" transform="matrix(1.00, 0.00, -0.00, -1.00, 182.1, 62.3)">l</text><text xml:space="preserve" font-family="Helvetica,Helvetica" font-size="23.0" fill="#D6D6D6" transform="matrix(1.00, 0.00, -0.00, -1.00, 187.2, 62.3)">t</text><text xml:space="preserve" font-family="Helvetica,Helvetica" font-size="23.0" fill="#D6D6D6" transform="matrix(1.00, 0.00, -0.00, -1.00, 193.6, 62.3)">i</text><text xml:space="preserve" font-family="Helvetica,Helvetica" font-size="23.0" fill="#D6D6D6" transform="matrix(1.00, 0.00, -0.00, -1.00, 198.7, 62.3)"> </text><text xml:space="preserve" font-family="Helvetica,Helvetica" font-size="23.0" fill="#D6D6D6" transform="matrix(1.00, 0.00, -0.00, -1.00, 205.1, 62.3)">l</text><text xml:space="preserve" font-family="Helvetica,Helvetica" font-size="23.0" fill="#D6D6D6" transform="matrix(1.00, 0.00, -0.00, -1.00, 210.2, 62.3)">a</text><text xml:space="preserve" font-family="Helvetica,Helvetica" font-size="23.0" fill="#D6D6D6" transform="matrix(1.00, 0.00, -0.00, -1.00, 223.0, 62.3)">n</text><text xml:space="preserve" font-family="Helvetica,Helvetica" font-size="23.0" fill="#D6D6D6" transform="matrix(1.00, 0.00, -0.00, -1.00, 235.8, 62.3)">g</text><text xml:space="preserve" font-family="Helvetica,Helvetica" font-size="23.0" fill="#D6D6D6" transform="matrix(1.00, 0.00, -0.00, -1.00, 248.6, 62.3)">u</text><text xml:space="preserve" font-family="Helvetica,Helvetica" font-size="23.0" fill="#D6D6D6" transform="matrix(1.00, 0.00, -0.00, -1.00, 261.4, 62.3)">a</text><text xml:space="preserve" font-family="Helvetica,Helvetica" font-size="23.0" fill="#D6D6D6" transform="matrix(1.00, 0.00, -0.00, -1.00, 274.2, 62.3)">g</text><text xml:space="preserve" font-family="Helvetica,Helvetica" font-size="23.0" fill="#D6D6D6" transform="matrix(1.00, 0.00, -0.00, -1.00, 287.0, 62.3)">e</text><text xml:space="preserve" font-family="Helvetica,Helvetica" font-size="23.0" fill="#D6D6D6" transform="matrix(1.00, 0.00, -0.00, -1.00, 299.8, 62.3)"> </text><text xml:space="preserve" font-family="Helvetica,Helvetica" font-size="23.0" fill="#D6D6D6" transform="matrix(1.00, 0.00, -0.00, -1.00, 306.2, 62.3)">s</text><text xml:space="preserve" font-family="Helvetica,Helvetica" font-size="23.0" fill="#D6D6D6" transform="matrix(1.00, 0.00, -0.00, -1.00, 317.7, 62.3)">u</text><text xml:space="preserve" font-family="Helvetica,Helvetica" font-size="23.0" fill="#D6D6D6" transform="matrix(1.00, 0.00, -0.00, -1.00, 330.5, 62.3)">p</text><text xml:space="preserve" font-family="Helvetica,Helvetica" font-size="23.0" fill="#D6D6D6" transform="matrix(1.00, 0.00, -0.00, -1.00, 343.3, 62.3)">p</text><text xml:space="preserve" font-family="Helvetica,Helvetica" font-size="23.0" fill="#D6D6D6" transform="matrix(1.00, 0.00, -0.00, -1.00, 356.1, 62.3)">o</text><text xml:space="preserve" font-family="Helvetica,Helvetica" font-size="23.0" fill="#D6D6D6" transform="matrix(1.00, 0.00, -0.00, -1.00, 368.9, 62.3)">r</text><text xml:space="preserve" font-family="Helvetica,Helvetica" font-size="23.0" fill="#D6D6D6" transform="matrix(1.00, 0.00, -0.00, -1.00, 376.5, 62.3)">t</text><text xml:space="preserve" font-family="Helvetica,Helvetica" font-size="23.0" fill="#D6D6D6" transform="matrix(1.00, 0.00, -0.00, -1.00, 382.9, 62.3)">e</text><text xml:space="preserve" font-family="Helvetica,Helvetica" font-size="23.0" fill="#D6D6D6" transform="matrix(1.00, 0.00, -0.00, -1.00, 395.7, 62.3)">d</text><text xml:space="preserve" font-family="Helvetica,Helvetica" font-size="23.0" fill="#D6D6D6" transform="matrix(1.00, 0.00, -0.00, -1.00, 408.5, 62.3)"> </text><text xml:space="preserve" font-family="Helvetica,Helvetica" font-size="23.0" fill="#D6D6D6" transform="matrix(1.00, 0.00, -0.00, -1.00, 1.9, 34.3)">a</text><text xml:space="preserve" font-family="Helvetica,Helvetica" font-size="23.0" fill="#D6D6D6" transform="matrix(1.00, 0.00, -0.00, -1.00, 14.7, 34.3)">n</text><text xml:space="preserve" font-family="Helvetica,Helvetica" font-size="23.0" fill="#D6D6D6" transform="matrix(1.00, 0.00, -0.00, -1.00, 27.5, 34.3)">d</text><text xml:space="preserve" font-family="Helvetica,Helvetica" font-size="23.0" fill="#D6D6D6" transform="matrix(1.00, 0.00, -0.00, -1.00, 40.3, 34.3)"> </text><text xml:space="preserve" font-family="Helvetica,Helvetica" font-size="23.0" fill="#D6D6D6" transform="matrix(1.00, 0.00, -0.00, -1.00, 46.7, 34.3)">h</text><text xml:space="preserve" font-family="Helvetica,Helvetica" font-size="23.0" fill="#D6D6D6" transform="matrix(1.00, 0.00, -0.00, -1.00, 59.5, 34.3)">a</text><text xml:space="preserve" font-family="Helvetica,Helvetica" font-size="23.0" fill="#D6D6D6" transform="matrix(1.00, 0.00, -0.00, -1.00, 72.3, 34.3)">v</text><text xml:space="preserve" font-family="Helvetica,Helvetica" font-size="23.0" fill="#D6D6D6" transform="matrix(1.00, 0.00, -0.00, -1.00, 83.8, 34.3)">e</text><text xml:space="preserve" font-family="Helvetica,Helvetica" font-size="23.0" fill="#D6D6D6" transform="matrix(1.00, 0.00, -0.00, -1.00, 96.6, 34.3)"> </text><text xml:space="preserve" font-family="Helvetica,Helvetica" font-size="23.0" fill="#D6D6D6" transform="matrix(1.00, 0.00, -0.00, -1.00, 103.0, 34.3)">t</text><text xml:space="preserve" font-family="Helvetica,Helvetica" font-size="23.0" fill="#D6D6D6" transform="matrix(1.00, 0.00, -0.00, -1.00, 109.4, 34.3)">h</text><text xml:space="preserve" font-family="Helvetica,Helvetica" font-size="23.0" fill="#D6D6D6" transform="matrix(1.00, 0.00, -0.00, -1.00, 122.2, 34.3)">e</text><text xml:space="preserve" font-family="Helvetica,Helvetica" font-size="23.0" fill="#D6D6D6" transform="matrix(1.00, 0.00, -0.00, -1.00, 135.0, 34.3)"> </text><text xml:space="preserve" font-family="Helvetica,Helvetica" font-size="23.0" fill="#D6D6D6" transform="matrix(1.00, 0.00, -0.00, -1.00, 141.3, 34.3)">m</text><text xml:space="preserve" font-family="Helvetica,Helvetica" font-size="23.0" fill="#D6D6D6" transform="matrix(1.00, 0.00, -0.00, -1.00, 160.5, 34.3)">o</text><text xml:space="preserve" font-family="Helvetica,Helvetica" font-size="23.0" fill="#D6D6D6" transform="matrix(1.00, 0.00, -0.00, -1.00, 173.3, 34.3)">s</text><text xml:space="preserve" font-family="Helvetica,Helvetica" font-size="23.0" fill="#D6D6D6" transform="matrix(1.00, 0.00, -0.00, -1.00, 184.8, 34.3)">t</text><text xml:space="preserve" font-family="Helvetica,Helvetica" font-size="23.0" fill="#D6D6D6" transform="matrix(1.00, 0.00, -0.00, -1.00, 191.2, 34.3)"> </text><text xml:space="preserve" font-family="Helvetica,Helvetica" font-size="23.0" fill="#D6D6D6" transform="matrix(1.00, 0.00, -0.00, -1.00, 197.6, 34.3)">a</text><text xml:space="preserve" font-family="Helvetica,Helvetica" font-size="23.0" fill="#D6D6D6" transform="matrix(1.00, 0.00, -0.00, -1.00, 210.4, 34.3)">d</text><text xml:space="preserve" font-family="Helvetica,Helvetica" font-size="23.0" fill="#D6D6D6" transform="matrix(1.00, 0.00, -0.00, -1.00, 223.2, 34.3)">v</text><text xml:space="preserve" font-family="Helvetica,Helvetica" font-size="23.0" fill="#D6D6D6" transform="matrix(1.00, 0.00, -0.00, -1.00, 234.7, 34.3)">a</text><text xml:space="preserve" font-family="Helvetica,Helvetica" font-size="23.0" fill="#D6D6D6" transform="matrix(1.00, 0.00, -0.00, -1.00, 247.5, 34.3)">n</text><text xml:space="preserve" font-family="Helvetica,Helvetica" font-size="23.0" fill="#D6D6D6" transform="matrix(1.00, 0.00, -0.00, -1.00, 260.2, 34.3)">c</text><text xml:space="preserve" font-family="Helvetica,Helvetica" font-size="23.0" fill="#D6D6D6" transform="matrix(1.00, 0.00, -0.00, -1.00, 271.7, 34.3)">e</text><text xml:space="preserve" font-family="Helvetica,Helvetica" font-size="23.0" fill="#D6D6D6" transform="matrix(1.00, 0.00, -0.00, -1.00, 284.5, 34.3)">d</text><text xml:space="preserve" font-family="Helvetica,Helvetica" font-size="23.0" fill="#D6D6D6" transform="matrix(1.00, 0.00, -0.00, -1.00, 297.3, 34.3)"> </text><text xml:space="preserve" font-family="Helvetica,Helvetica" font-size="23.0" fill="#D6D6D6" transform="matrix(1.00, 0.00, -0.00, -1.00, 303.7, 34.3)">t</text><text xml:space="preserve" font-family="Helvetica,Helvetica" font-size="23.0" fill="#D6D6D6" transform="matrix(1.00, 0.00, -0.00, -1.00, 310.1, 34.3)">r</text><text xml:space="preserve" font-family="Helvetica,Helvetica" font-size="23.0" fill="#D6D6D6" transform="matrix(1.00, 0.00, -0.00, -1.00, 317.8, 34.3)">a</text><text xml:space="preserve" font-family="Helvetica,Helvetica" font-size="23.0" fill="#D6D6D6" transform="matrix(1.00, 0.00, -0.00, -1.00, 330.6, 34.3)">c</text><text xml:space="preserve" font-family="Helvetica,Helvetica" font-size="23.0" fill="#D6D6D6" transform="matrix(1.00, 0.00, -0.00, -1.00, 342.1, 34.3)">k</text><text xml:space="preserve" font-family="Helvetica,Helvetica" font-size="23.0" fill="#D6D6D6" transform="matrix(1.00, 0.00, -0.00, -1.00, 353.6, 34.3)">i</text><text xml:space="preserve" font-family="Helvetica,Helvetica" font-size="23.0" fill="#D6D6D6" transform="matrix(1.00, 0.00, -0.00, -1.00, 358.7, 34.3)">n</text><text xml:space="preserve" font-family="Helvetica,Helvetica" font-size="23.0" fill="#D6D6D6" transform="matrix(1.00, 0.00, -0.00, -1.00, 371.5, 34.3)">g</text><text xml:space="preserve" font-family="Helvetica,Helvetica" font-size="23.0" fill="#D6D6D6" transform="matrix(1.00, 0.00, -0.00, -1.00, 384.3, 34.3)"> </text><text xml:space="preserve" font-family="Helvetica,Helvetica" font-size="23.0" fill="#D6D6D6" transform="matrix(1.00, 0.00, -0.00, -1.00, 390.7, 34.3)">o</text><text xml:space="preserve" font-family="Helvetica,Helvetica" font-size="23.0" fill="#D6D6D6" transform="matrix(1.00, 0.00, -0.00, -1.00, 403.5, 34.3)">f</text><text xml:space="preserve" font-family="Helvetica,Helvetica" font-size="23.0" fill="#D6D6D6" transform="matrix(1.00, 0.00, -0.00, -1.00, 409.8, 34.3)"> </text><text xml:space="preserve" font-family="Helvetica,Helvetica" font-size="23.0" fill="#D6D6D6" transform="matrix(1.00, 0.00, -0.00, -1.00, 1.9, 6.3)">t</text><text xml:space="preserve" font-family="Helvetica,Helvetica" font-size="23.0" fill="#D6D6D6" transform="matrix(1.00, 0.00, -0.00, -1.00, 8.3, 6.3)">i</text><text xml:space="preserve" font-family="Helvetica,Helvetica" font-size="23.0" fill="#D6D6D6" transform="matrix(1.00, 0.00, -0.00, -1.00, 13.4, 6.3)">m</text><text xml:space="preserve" font-family="Helvetica,Helvetica" font-size="23.0" fill="#D6D6D6" transform="matrix(1.00, 0.00, -0.00, -1.00, 32.6, 6.3)">e</text><text xml:space="preserve" font-family="Helvetica,Helvetica" font-size="23.0" fill="#D6D6D6" transform="matrix(1.00, 0.00, -0.00, -1.00, 45.4, 6.3)">.</text><text xml:space="preserve" font-family="Helvetica,Helvetica" font-size="23.0" fill="#D6D6D6" transform="matrix(1.00, 0.00, -0.00, -1.00, 51.8, 6.3)"> </text><text xml:space="preserve" font-family="Helvetica,Helvetica" font-size="23.0" fill="#D6D6D6" transform="matrix(1.00, 0.00, -0.00, -1.00, 57.7, 6.3)">Y</text><text xml:space="preserve" font-family="Helvetica,Helvetica" font-size="23.0" fill="#D6D6D6" transform="matrix(1.00, 0.00, -0.00, -1.00, 71.0, 6.3)">o</text><text xml:space="preserve" font-family="Helvetica,Helvetica" font-size="23.0" fill="#D6D6D6" transform="matrix(1.00, 0.00, -0.00, -1.00, 83.8, 6.3)">u</text><text xml:space="preserve" font-family="Helvetica,Helvetica" font-size="23.0" fill="#D6D6D6" transform="matrix(1.00, 0.00, -0.00, -1.00, 96.6, 6.3)"> </text><text xml:space="preserve" font-family="Helvetica,Helvetica" font-size="23.0" fill="#D6D6D6" transform="matrix(1.00, 0.00, -0.00, -1.00, 103.0, 6.3)">w</text><text xml:space="preserve" font-family="Helvetica,Helvetica" font-size="23.0" fill="#D6D6D6" transform="matrix(1.00, 0.00, -0.00, -1.00, 119.6, 6.3)">i</text><text xml:space="preserve" font-family="Helvetica,Helvetica" font-size="23.0" fill="#D6D6D6" transform="matrix(1.00, 0.00, -0.00, -1.00, 124.7, 6.3)">l</text><text xml:space="preserve" font-family="Helvetica,Helvetica" font-size="23.0" fill="#D6D6D6" transform="matrix(1.00, 0.00, -0.00, -1.00, 129.8, 6.3)">l</text><text xml:space="preserve" font-family="Helvetica,Helvetica" font-size="23.0" fill="#D6D6D6" transform="matrix(1.00, 0.00, -0.00, -1.00, 134.9, 6.3)"> </text><text xml:space="preserve" font-family="Helvetica,Helvetica" font-size="23.0" fill="#D6D6D6" transform="matrix(1.00, 0.00, -0.00, -1.00, 141.3, 6.3)">n</text><text xml:space="preserve" font-family="Helvetica,Helvetica" font-size="23.0" fill="#D6D6D6" transform="matrix(1.00, 0.00, -0.00, -1.00, 154.1, 6.3)">o</text><text xml:space="preserve" font-family="Helvetica,Helvetica" font-size="23.0" fill="#D6D6D6" transform="matrix(1.00, 0.00, -0.00, -1.00, 166.9, 6.3)"> </text><text xml:space="preserve" font-family="Helvetica,Helvetica" font-size="23.0" fill="#D6D6D6" transform="matrix(1.00, 0.00, -0.00, -1.00, 173.3, 6.3)">l</text><text xml:space="preserve" font-family="Helvetica,Helvetica" font-size="23.0" fill="#D6D6D6" transform="matrix(1.00, 0.00, -0.00, -1.00, 178.4, 6.3)">o</text><text xml:space="preserve" font-family="Helvetica,Helvetica" font-size="23.0" fill="#D6D6D6" transform="matrix(1.00, 0.00, -0.00, -1.00, 191.2, 6.3)">n</text><text xml:space="preserve" font-family="Helvetica,Helvetica" font-size="23.0" fill="#D6D6D6" transform="matrix(1.00, 0.00, -0.00, -1.00, 204.0, 6.3)">g</text><text xml:space="preserve" font-family="Helvetica,Helvetica" font-size="23.0" fill="#D6D6D6" transform="matrix(1.00, 0.00, -0.00, -1.00, 216.8, 6.3)">e</text><text xml:space="preserve" font-family="Helvetica,Helvetica" font-size="23.0" fill="#D6D6D6" transform="matrix(1.00, 0.00, -0.00, -1.00, 229.6, 6.3)">r</text><text xml:space="preserve" font-family="Helvetica,Helvetica" font-size="23.0" fill="#D6D6D6" transform="matrix(1.00, 0.00, -0.00, -1.00, 237.2, 6.3)"> </text><text xml:space="preserve" font-family="Helvetica,Helvetica" font-size="23.0" fill="#D6D6D6" transform="matrix(1.00, 0.00, -0.00, -1.00, 243.6, 6.3)">t</text><text xml:space="preserve" font-family="Helvetica,Helvetica" font-size="23.0" fill="#D6D6D6" transform="matrix(1.00, 0.00, -0.00, -1.00, 250.0, 6.3)">h</text><text xml:space="preserve" font-family="Helvetica,Helvetica" font-size="23.0" fill="#D6D6D6" transform="matrix(1.00, 0.00, -0.00, -1.00, 262.8, 6.3)">i</text><text xml:space="preserve" font-family="Helvetica,Helvetica" font-size="23.0" fill="#D6D6D6" transform="matrix(1.00, 0.00, -0.00, -1.00, 267.9, 6.3)">n</text><text xml:space="preserve" font-family="Helvetica,Helvetica" font-size="23.0" fill="#D6D6D6" transform="matrix(1.00, 0.00, -0.00, -1.00, 280.7, 6.3)">k</text><text xml:space="preserve" font-family="Helvetica,Helvetica" font-size="23.0" fill="#D6D6D6" transform="matrix(1.00, 0.00, -0.00, -1.00, 292.2, 6.3)"> </text><text xml:space="preserve" font-family="Helvetica,Helvetica" font-size="23.0" fill="#D6D6D6" transform="matrix(1.00, 0.00, -0.00, -1.00, 298.6, 6.3)">t</text><text xml:space="preserve" font-family="Helvetica,Helvetica" font-size="23.0" fill="#D6D6D6" transform="matrix(1.00, 0.00, -0.00, -1.00, 305.0, 6.3)">i</text><text xml:space="preserve" font-family="Helvetica,Helvetica" font-size="23.0" fill="#D6D6D6" transform="matrix(1.00, 0.00, -0.00, -1.00, 310.1, 6.3)">m</text><text xml:space="preserve" font-family="Helvetica,Helvetica" font-size="23.0" fill="#D6D6D6" transform="matrix(1.00, 0.00, -0.00, -1.00, 329.3, 6.3)">e</text><text xml:space="preserve" font-family="Helvetica,Helvetica" font-size="23.0" fill="#D6D6D6" transform="matrix(1.00, 0.00, -0.00, -1.00, 342.1, 6.3)"> </text></g></svg>