<?xml version="1.0" encoding="UTF-8" standalone="no"?><svg xmlns="http://www.w3.org/2000/svg" xmlns:xlink="http://www.w3.org/1999/xlink" clip-rule="evenodd" stroke-miterlimit="10" viewBox="0 0 423 52"><desc>SVG generated by Keynote</desc><defs></defs><g transform="matrix(1.00, 0.00, -0.00, -1.00, 0.0, 52.0)"><text xml:space="preserve" font-family="Helvetica-Bold,Helvetica" font-weight="bold" font-size="64.0" fill="#525861" transform="matrix(1.00, 0.00, -0.00, -1.00, 2.0, 2.7)">W</text><text xml:space="preserve" font-family="Helvetica-Bold,Helvetica" font-weight="bold" font-size="64.0" fill="#525861" transform="matrix(1.00, 0.00, -0.00, -1.00, 62.3, 2.7)">H</text><text xml:space="preserve" font-family="Helvetica-Bold,Helvetica" font-weight="bold" font-size="64.0" fill="#525861" transform="matrix(1.00, 0.00, -0.00, -1.00, 108.6, 2.7)">O</text><text xml:space="preserve" font-family="Helvetica-Bold,Helvetica" font-weight="bold" font-size="64.0" fill="#525861" transform="matrix(1.00, 0.00, -0.00, -1.00, 158.3, 2.7)"> </text><text xml:space="preserve" font-family="Helvetica,Helvetica" font-size="64.0" fill="#525861" transform="matrix(1.00, 0.00, -0.00, -1.00, 176.1, 2.7)">W</text><text xml:space="preserve" font-family="Helvetica,Helvetica" font-size="64.0" fill="#525861" transform="matrix(1.00, 0.00, -0.00, -1.00, 236.5, 2.7)">E</text><text xml:space="preserve" font-family="Helvetica,Helvetica" font-size="64.0" fill="#525861" transform="matrix(1.00, 0.00, -0.00, -1.00, 279.2, 2.7)"> </text><text xml:space="preserve" font-family="Helvetica,Helvetica" font-size="64.0" fill="#525861" transform="matrix(1.00, 0.00, -0.00, -1.00, 293.5, 2.7)">A</text><text xml:space="preserve" font-family="Helvetica,Helvetica" font-size="64.0" fill="#525861" transform="matrix(1.00, 0.00, -0.00, -1.00, 336.2, 2.7)">R</text><text xml:space="preserve" font-family="Helvetica,Helvetica" font-size="64.0" fill="#525861" transform="matrix(1.00, 0.00, -0.00, -1.00, 382.4, 2.7)">E</text></g></svg>