<?xml version="1.0" encoding="UTF-8" standalone="no"?><svg xmlns="http://www.w3.org/2000/svg" xmlns:xlink="http://www.w3.org/1999/xlink" clip-rule="evenodd" stroke-miterlimit="10" viewBox="0 0 134 22"><desc>SVG generated by Keynote</desc><defs></defs><g transform="matrix(1.00, 0.00, -0.00, -1.00, 0.0, 22.0)"><text xml:space="preserve" font-family="Helvetica-Bold,Helvetica" font-weight="bold" font-size="24.0" fill="#5B6B7D" transform="matrix(1.00, 0.00, -0.00, -1.00, 0.9, 2.0)">O</text><text xml:space="preserve" font-family="Helvetica-Bold,Helvetica" font-weight="bold" font-size="24.0" fill="#5B6B7D" transform="matrix(1.00, 0.00, -0.00, -1.00, 19.5, 2.0)">M</text><text xml:space="preserve" font-family="Helvetica-Bold,Helvetica" font-weight="bold" font-size="24.0" fill="#5B6B7D" transform="matrix(1.00, 0.00, -0.00, -1.00, 39.5, 2.0)">N</text><text xml:space="preserve" font-family="Helvetica-Bold,Helvetica" font-weight="bold" font-size="24.0" fill="#5B6B7D" transform="matrix(1.00, 0.00, -0.00, -1.00, 56.8, 2.0)">I</text><text xml:space="preserve" font-family="Helvetica,Helvetica" font-size="24.0" fill="#5B6B7D" transform="matrix(1.00, 0.00, -0.00, -1.00, 63.5, 2.0)">S</text><text xml:space="preserve" font-family="Helvetica,Helvetica" font-size="24.0" fill="#5B6B7D" transform="matrix(1.00, 0.00, -0.00, -1.00, 79.5, 2.0)">L</text><text xml:space="preserve" font-family="Helvetica,Helvetica" font-size="24.0" fill="#5B6B7D" transform="matrix(1.00, 0.00, -0.00, -1.00, 92.9, 2.0)">I</text><text xml:space="preserve" font-family="Helvetica,Helvetica" font-size="24.0" fill="#5B6B7D" transform="matrix(1.00, 0.00, -0.00, -1.00, 99.5, 2.0)">D</text><text xml:space="preserve" font-family="Helvetica,Helvetica" font-size="24.0" fill="#5B6B7D" transform="matrix(1.00, 0.00, -0.00, -1.00, 116.9, 2.0)">E</text></g></svg>