<?xml version="1.0" encoding="UTF-8" standalone="no"?><svg xmlns="http://www.w3.org/2000/svg" xmlns:xlink="http://www.w3.org/1999/xlink" clip-rule="evenodd" stroke-miterlimit="10" viewBox="0 0 404 178"><desc>SVG generated by Keynote</desc><defs></defs><g transform="matrix(1.00, 0.00, -0.00, -1.00, 0.0, 178.0)"><text xml:space="preserve" font-family="Helvetica-Bold,Helvetica" font-weight="bold" font-size="25.0" fill="#2DCBB1" transform="matrix(1.00, 0.00, -0.00, -1.00, 27.5, 156.7)">T</text><text xml:space="preserve" font-family="Helvetica-Bold,Helvetica" font-weight="bold" font-size="25.0" fill="#2DCBB1" transform="matrix(1.00, 0.00, -0.00, -1.00, 42.8, 156.7)">h</text><text xml:space="preserve" font-family="Helvetica-Bold,Helvetica" font-weight="bold" font-size="25.0" fill="#2DCBB1" transform="matrix(1.00, 0.00, -0.00, -1.00, 58.1, 156.7)">e</text><text xml:space="preserve" font-family="Helvetica-Bold,Helvetica" font-weight="bold" font-size="25.0" fill="#2DCBB1" transform="matrix(1.00, 0.00, -0.00, -1.00, 72.0, 156.7)"> </text><text xml:space="preserve" font-family="Helvetica-Bold,Helvetica" font-weight="bold" font-size="25.0" fill="#2DCBB1" transform="matrix(1.00, 0.00, -0.00, -1.00, 78.9, 156.7)">C</text><text xml:space="preserve" font-family="Helvetica-Bold,Helvetica" font-weight="bold" font-size="25.0" fill="#2DCBB1" transform="matrix(1.00, 0.00, -0.00, -1.00, 97.0, 156.7)">o</text><text xml:space="preserve" font-family="Helvetica-Bold,Helvetica" font-weight="bold" font-size="25.0" fill="#2DCBB1" transform="matrix(1.00, 0.00, -0.00, -1.00, 112.3, 156.7)">m</text><text xml:space="preserve" font-family="Helvetica-Bold,Helvetica" font-weight="bold" font-size="25.0" fill="#2DCBB1" transform="matrix(1.00, 0.00, -0.00, -1.00, 134.5, 156.7)">p</text><text xml:space="preserve" font-family="Helvetica-Bold,Helvetica" font-weight="bold" font-size="25.0" fill="#2DCBB1" transform="matrix(1.00, 0.00, -0.00, -1.00, 149.8, 156.7)">a</text><text xml:space="preserve" font-family="Helvetica-Bold,Helvetica" font-weight="bold" font-size="25.0" fill="#2DCBB1" transform="matrix(1.00, 0.00, -0.00, -1.00, 163.7, 156.7)">n</text><text xml:space="preserve" font-family="Helvetica-Bold,Helvetica" font-weight="bold" font-size="25.0" fill="#2DCBB1" transform="matrix(1.00, 0.00, -0.00, -1.00, 178.9, 156.7)">y</text><text xml:space="preserve" font-family="Helvetica-Bold,Helvetica" font-weight="bold" font-size="25.0" fill="#2DCBB1" transform="matrix(1.00, 0.00, -0.00, -1.00, 192.8, 156.7)"> </text><text xml:space="preserve" font-family="Helvetica-Bold,Helvetica" font-weight="bold" font-size="25.0" fill="#2DCBB1" transform="matrix(1.00, 0.00, -0.00, -1.00, 199.3, 156.7)">Y</text><text xml:space="preserve" font-family="Helvetica-Bold,Helvetica" font-weight="bold" font-size="25.0" fill="#2DCBB1" transform="matrix(1.00, 0.00, -0.00, -1.00, 214.2, 156.7)">o</text><text xml:space="preserve" font-family="Helvetica-Bold,Helvetica" font-weight="bold" font-size="25.0" fill="#2DCBB1" transform="matrix(1.00, 0.00, -0.00, -1.00, 229.4, 156.7)">u</text><text xml:space="preserve" font-family="Helvetica-Bold,Helvetica" font-weight="bold" font-size="25.0" fill="#2DCBB1" transform="matrix(1.00, 0.00, -0.00, -1.00, 244.7, 156.7)"> </text><text xml:space="preserve" font-family="Helvetica-Bold,Helvetica" font-weight="bold" font-size="25.0" fill="#2DCBB1" transform="matrix(1.00, 0.00, -0.00, -1.00, 251.6, 156.7)">C</text><text xml:space="preserve" font-family="Helvetica-Bold,Helvetica" font-weight="bold" font-size="25.0" fill="#2DCBB1" transform="matrix(1.00, 0.00, -0.00, -1.00, 269.7, 156.7)">a</text><text xml:space="preserve" font-family="Helvetica-Bold,Helvetica" font-weight="bold" font-size="25.0" fill="#2DCBB1" transform="matrix(1.00, 0.00, -0.00, -1.00, 283.6, 156.7)">n</text><text xml:space="preserve" font-family="Helvetica-Bold,Helvetica" font-weight="bold" font-size="25.0" fill="#2DCBB1" transform="matrix(1.00, 0.00, -0.00, -1.00, 298.9, 156.7)"> </text><text xml:space="preserve" font-family="Helvetica-Bold,Helvetica" font-weight="bold" font-size="25.0" fill="#2DCBB1" transform="matrix(1.00, 0.00, -0.00, -1.00, 305.8, 156.7)">T</text><text xml:space="preserve" font-family="Helvetica-Bold,Helvetica" font-weight="bold" font-size="25.0" fill="#2DCBB1" transform="matrix(1.00, 0.00, -0.00, -1.00, 319.7, 156.7)">r</text><text xml:space="preserve" font-family="Helvetica-Bold,Helvetica" font-weight="bold" font-size="25.0" fill="#2DCBB1" transform="matrix(1.00, 0.00, -0.00, -1.00, 329.5, 156.7)">u</text><text xml:space="preserve" font-family="Helvetica-Bold,Helvetica" font-weight="bold" font-size="25.0" fill="#2DCBB1" transform="matrix(1.00, 0.00, -0.00, -1.00, 344.7, 156.7)">s</text><text xml:space="preserve" font-family="Helvetica-Bold,Helvetica" font-weight="bold" font-size="25.0" fill="#2DCBB1" transform="matrix(1.00, 0.00, -0.00, -1.00, 358.6, 156.7)">t</text><text xml:space="preserve" font-family="Helvetica-Bold,Helvetica" font-weight="bold" font-size="25.0" fill="#2DCBB1" transform="matrix(1.00, 0.00, -0.00, -1.00, 367.0, 156.7)">!</text><text xml:space="preserve" font-family="Helvetica-Bold,Helvetica" font-weight="bold" font-size="25.0" fill="#FFFFFF" transform="matrix(1.00, 0.00, -0.00, -1.00, 0.7, 126.7)">O</text><text xml:space="preserve" font-family="Helvetica-Bold,Helvetica" font-weight="bold" font-size="25.0" fill="#FFFFFF" transform="matrix(1.00, 0.00, -0.00, -1.00, 20.2, 126.7)">u</text><text xml:space="preserve" font-family="Helvetica-Bold,Helvetica" font-weight="bold" font-size="25.0" fill="#FFFFFF" transform="matrix(1.00, 0.00, -0.00, -1.00, 35.4, 126.7)">r</text><text xml:space="preserve" font-family="Helvetica-Bold,Helvetica" font-weight="bold" font-size="25.0" fill="#FFFFFF" transform="matrix(1.00, 0.00, -0.00, -1.00, 45.2, 126.7)"> </text><text xml:space="preserve" font-family="Helvetica-Bold,Helvetica" font-weight="bold" font-size="25.0" fill="#FFFFFF" transform="matrix(1.00, 0.00, -0.00, -1.00, 52.1, 126.7)">p</text><text xml:space="preserve" font-family="Helvetica-Bold,Helvetica" font-weight="bold" font-size="25.0" fill="#FFFFFF" transform="matrix(1.00, 0.00, -0.00, -1.00, 67.4, 126.7)">r</text><text xml:space="preserve" font-family="Helvetica-Bold,Helvetica" font-weight="bold" font-size="25.0" fill="#FFFFFF" transform="matrix(1.00, 0.00, -0.00, -1.00, 77.1, 126.7)">o</text><text xml:space="preserve" font-family="Helvetica-Bold,Helvetica" font-weight="bold" font-size="25.0" fill="#FFFFFF" transform="matrix(1.00, 0.00, -0.00, -1.00, 92.4, 126.7)">d</text><text xml:space="preserve" font-family="Helvetica-Bold,Helvetica" font-weight="bold" font-size="25.0" fill="#FFFFFF" transform="matrix(1.00, 0.00, -0.00, -1.00, 107.6, 126.7)">u</text><text xml:space="preserve" font-family="Helvetica-Bold,Helvetica" font-weight="bold" font-size="25.0" fill="#FFFFFF" transform="matrix(1.00, 0.00, -0.00, -1.00, 122.9, 126.7)">c</text><text xml:space="preserve" font-family="Helvetica-Bold,Helvetica" font-weight="bold" font-size="25.0" fill="#FFFFFF" transform="matrix(1.00, 0.00, -0.00, -1.00, 136.8, 126.7)">t</text><text xml:space="preserve" font-family="Helvetica-Bold,Helvetica" font-weight="bold" font-size="25.0" fill="#FFFFFF" transform="matrix(1.00, 0.00, -0.00, -1.00, 145.1, 126.7)"> </text><text xml:space="preserve" font-family="Helvetica-Bold,Helvetica" font-weight="bold" font-size="25.0" fill="#FFFFFF" transform="matrix(1.00, 0.00, -0.00, -1.00, 152.1, 126.7)">(</text><text xml:space="preserve" font-family="Helvetica-Bold,Helvetica" font-weight="bold" font-size="25.0" fill="#FFFFFF" transform="matrix(1.00, 0.00, -0.00, -1.00, 160.4, 126.7)">I</text><text xml:space="preserve" font-family="Helvetica-Bold,Helvetica" font-weight="bold" font-size="25.0" fill="#FFFFFF" transform="matrix(1.00, 0.00, -0.00, -1.00, 167.3, 126.7)">n</text><text xml:space="preserve" font-family="Helvetica-Bold,Helvetica" font-weight="bold" font-size="25.0" fill="#FFFFFF" transform="matrix(1.00, 0.00, -0.00, -1.00, 182.6, 126.7)">o</text><text xml:space="preserve" font-family="Helvetica-Bold,Helvetica" font-weight="bold" font-size="25.0" fill="#FFFFFF" transform="matrix(1.00, 0.00, -0.00, -1.00, 197.9, 126.7)">t</text><text xml:space="preserve" font-family="Helvetica-Bold,Helvetica" font-weight="bold" font-size="25.0" fill="#FFFFFF" transform="matrix(1.00, 0.00, -0.00, -1.00, 206.2, 126.7)">i</text><text xml:space="preserve" font-family="Helvetica-Bold,Helvetica" font-weight="bold" font-size="25.0" fill="#FFFFFF" transform="matrix(1.00, 0.00, -0.00, -1.00, 213.1, 126.7)">m</text><text xml:space="preserve" font-family="Helvetica-Bold,Helvetica" font-weight="bold" font-size="25.0" fill="#FFFFFF" transform="matrix(1.00, 0.00, -0.00, -1.00, 235.4, 126.7)">e</text><text xml:space="preserve" font-family="Helvetica-Bold,Helvetica" font-weight="bold" font-size="25.0" fill="#FFFFFF" transform="matrix(1.00, 0.00, -0.00, -1.00, 249.3, 126.7)">)</text><text xml:space="preserve" font-family="Helvetica-Bold,Helvetica" font-weight="bold" font-size="25.0" fill="#FFFFFF" transform="matrix(1.00, 0.00, -0.00, -1.00, 257.6, 126.7)"> </text><text xml:space="preserve" font-family="Helvetica-Bold,Helvetica" font-weight="bold" font-size="25.0" fill="#FFFFFF" transform="matrix(1.00, 0.00, -0.00, -1.00, 264.6, 126.7)">i</text><text xml:space="preserve" font-family="Helvetica-Bold,Helvetica" font-weight="bold" font-size="25.0" fill="#FFFFFF" transform="matrix(1.00, 0.00, -0.00, -1.00, 271.5, 126.7)">s</text><text xml:space="preserve" font-family="Helvetica-Bold,Helvetica" font-weight="bold" font-size="25.0" fill="#FFFFFF" transform="matrix(1.00, 0.00, -0.00, -1.00, 285.4, 126.7)"> </text><text xml:space="preserve" font-family="Helvetica-Bold,Helvetica" font-weight="bold" font-size="25.0" fill="#FFFFFF" transform="matrix(1.00, 0.00, -0.00, -1.00, 292.3, 126.7)">a</text><text xml:space="preserve" font-family="Helvetica-Bold,Helvetica" font-weight="bold" font-size="25.0" fill="#FFFFFF" transform="matrix(1.00, 0.00, -0.00, -1.00, 306.3, 126.7)">n</text><text xml:space="preserve" font-family="Helvetica-Bold,Helvetica" font-weight="bold" font-size="25.0" fill="#FFFFFF" transform="matrix(1.00, 0.00, -0.00, -1.00, 321.5, 126.7)"> </text><text xml:space="preserve" font-family="Helvetica-Bold,Helvetica" font-weight="bold" font-size="25.0" fill="#FFFFFF" transform="matrix(1.00, 0.00, -0.00, -1.00, 328.5, 126.7)">o</text><text xml:space="preserve" font-family="Helvetica-Bold,Helvetica" font-weight="bold" font-size="25.0" fill="#FFFFFF" transform="matrix(1.00, 0.00, -0.00, -1.00, 343.7, 126.7)">n</text><text xml:space="preserve" font-family="Helvetica-Bold,Helvetica" font-weight="bold" font-size="25.0" fill="#FFFFFF" transform="matrix(1.00, 0.00, -0.00, -1.00, 359.0, 126.7)">l</text><text xml:space="preserve" font-family="Helvetica-Bold,Helvetica" font-weight="bold" font-size="25.0" fill="#FFFFFF" transform="matrix(1.00, 0.00, -0.00, -1.00, 365.9, 126.7)">i</text><text xml:space="preserve" font-family="Helvetica-Bold,Helvetica" font-weight="bold" font-size="25.0" fill="#FFFFFF" transform="matrix(1.00, 0.00, -0.00, -1.00, 372.9, 126.7)">n</text><text xml:space="preserve" font-family="Helvetica-Bold,Helvetica" font-weight="bold" font-size="25.0" fill="#FFFFFF" transform="matrix(1.00, 0.00, -0.00, -1.00, 388.1, 126.7)">e</text><text xml:space="preserve" font-family="Helvetica-Bold,Helvetica" font-weight="bold" font-size="25.0" fill="#FFFFFF" transform="matrix(1.00, 0.00, -0.00, -1.00, 402.1, 126.7)"> </text><text xml:space="preserve" font-family="Helvetica-Bold,Helvetica" font-weight="bold" font-size="25.0" fill="#FFFFFF" transform="matrix(1.00, 0.00, -0.00, -1.00, 16.6, 96.7)">t</text><text xml:space="preserve" font-family="Helvetica-Bold,Helvetica" font-weight="bold" font-size="25.0" fill="#FFFFFF" transform="matrix(1.00, 0.00, -0.00, -1.00, 25.0, 96.7)">i</text><text xml:space="preserve" font-family="Helvetica-Bold,Helvetica" font-weight="bold" font-size="25.0" fill="#FFFFFF" transform="matrix(1.00, 0.00, -0.00, -1.00, 31.9, 96.7)">m</text><text xml:space="preserve" font-family="Helvetica-Bold,Helvetica" font-weight="bold" font-size="25.0" fill="#FFFFFF" transform="matrix(1.00, 0.00, -0.00, -1.00, 54.1, 96.7)">e</text><text xml:space="preserve" font-family="Helvetica-Bold,Helvetica" font-weight="bold" font-size="25.0" fill="#FFFFFF" transform="matrix(1.00, 0.00, -0.00, -1.00, 68.1, 96.7)"> </text><text xml:space="preserve" font-family="Helvetica-Bold,Helvetica" font-weight="bold" font-size="25.0" fill="#FFFFFF" transform="matrix(1.00, 0.00, -0.00, -1.00, 75.0, 96.7)">t</text><text xml:space="preserve" font-family="Helvetica-Bold,Helvetica" font-weight="bold" font-size="25.0" fill="#FFFFFF" transform="matrix(1.00, 0.00, -0.00, -1.00, 83.3, 96.7)">r</text><text xml:space="preserve" font-family="Helvetica-Bold,Helvetica" font-weight="bold" font-size="25.0" fill="#FFFFFF" transform="matrix(1.00, 0.00, -0.00, -1.00, 93.1, 96.7)">a</text><text xml:space="preserve" font-family="Helvetica-Bold,Helvetica" font-weight="bold" font-size="25.0" fill="#FFFFFF" transform="matrix(1.00, 0.00, -0.00, -1.00, 107.0, 96.7)">c</text><text xml:space="preserve" font-family="Helvetica-Bold,Helvetica" font-weight="bold" font-size="25.0" fill="#FFFFFF" transform="matrix(1.00, 0.00, -0.00, -1.00, 120.9, 96.7)">k</text><text xml:space="preserve" font-family="Helvetica-Bold,Helvetica" font-weight="bold" font-size="25.0" fill="#FFFFFF" transform="matrix(1.00, 0.00, -0.00, -1.00, 134.8, 96.7)">i</text><text xml:space="preserve" font-family="Helvetica-Bold,Helvetica" font-weight="bold" font-size="25.0" fill="#FFFFFF" transform="matrix(1.00, 0.00, -0.00, -1.00, 141.7, 96.7)">n</text><text xml:space="preserve" font-family="Helvetica-Bold,Helvetica" font-weight="bold" font-size="25.0" fill="#FFFFFF" transform="matrix(1.00, 0.00, -0.00, -1.00, 157.0, 96.7)">g</text><text xml:space="preserve" font-family="Helvetica-Bold,Helvetica" font-weight="bold" font-size="25.0" fill="#FFFFFF" transform="matrix(1.00, 0.00, -0.00, -1.00, 172.3, 96.7)"> </text><text xml:space="preserve" font-family="Helvetica-Bold,Helvetica" font-weight="bold" font-size="25.0" fill="#FFFFFF" transform="matrix(1.00, 0.00, -0.00, -1.00, 179.2, 96.7)">s</text><text xml:space="preserve" font-family="Helvetica-Bold,Helvetica" font-weight="bold" font-size="25.0" fill="#FFFFFF" transform="matrix(1.00, 0.00, -0.00, -1.00, 193.1, 96.7)">y</text><text xml:space="preserve" font-family="Helvetica-Bold,Helvetica" font-weight="bold" font-size="25.0" fill="#FFFFFF" transform="matrix(1.00, 0.00, -0.00, -1.00, 207.0, 96.7)">s</text><text xml:space="preserve" font-family="Helvetica-Bold,Helvetica" font-weight="bold" font-size="25.0" fill="#FFFFFF" transform="matrix(1.00, 0.00, -0.00, -1.00, 220.9, 96.7)">t</text><text xml:space="preserve" font-family="Helvetica-Bold,Helvetica" font-weight="bold" font-size="25.0" fill="#FFFFFF" transform="matrix(1.00, 0.00, -0.00, -1.00, 229.2, 96.7)">e</text><text xml:space="preserve" font-family="Helvetica-Bold,Helvetica" font-weight="bold" font-size="25.0" fill="#FFFFFF" transform="matrix(1.00, 0.00, -0.00, -1.00, 243.2, 96.7)">m</text><text xml:space="preserve" font-family="Helvetica-Bold,Helvetica" font-weight="bold" font-size="25.0" fill="#FFFFFF" transform="matrix(1.00, 0.00, -0.00, -1.00, 265.4, 96.7)">,</text><text xml:space="preserve" font-family="Helvetica-Bold,Helvetica" font-weight="bold" font-size="25.0" fill="#FFFFFF" transform="matrix(1.00, 0.00, -0.00, -1.00, 272.3, 96.7)"> </text><text xml:space="preserve" font-family="Helvetica-Bold,Helvetica" font-weight="bold" font-size="25.0" fill="#FFFFFF" transform="matrix(1.00, 0.00, -0.00, -1.00, 279.3, 96.7)">t</text><text xml:space="preserve" font-family="Helvetica-Bold,Helvetica" font-weight="bold" font-size="25.0" fill="#FFFFFF" transform="matrix(1.00, 0.00, -0.00, -1.00, 287.6, 96.7)">a</text><text xml:space="preserve" font-family="Helvetica-Bold,Helvetica" font-weight="bold" font-size="25.0" fill="#FFFFFF" transform="matrix(1.00, 0.00, -0.00, -1.00, 301.5, 96.7)">r</text><text xml:space="preserve" font-family="Helvetica-Bold,Helvetica" font-weight="bold" font-size="25.0" fill="#FFFFFF" transform="matrix(1.00, 0.00, -0.00, -1.00, 311.2, 96.7)">g</text><text xml:space="preserve" font-family="Helvetica-Bold,Helvetica" font-weight="bold" font-size="25.0" fill="#FFFFFF" transform="matrix(1.00, 0.00, -0.00, -1.00, 326.5, 96.7)">e</text><text xml:space="preserve" font-family="Helvetica-Bold,Helvetica" font-weight="bold" font-size="25.0" fill="#FFFFFF" transform="matrix(1.00, 0.00, -0.00, -1.00, 340.4, 96.7)">t</text><text xml:space="preserve" font-family="Helvetica-Bold,Helvetica" font-weight="bold" font-size="25.0" fill="#FFFFFF" transform="matrix(1.00, 0.00, -0.00, -1.00, 348.7, 96.7)">i</text><text xml:space="preserve" font-family="Helvetica-Bold,Helvetica" font-weight="bold" font-size="25.0" fill="#FFFFFF" transform="matrix(1.00, 0.00, -0.00, -1.00, 355.7, 96.7)">n</text><text xml:space="preserve" font-family="Helvetica-Bold,Helvetica" font-weight="bold" font-size="25.0" fill="#FFFFFF" transform="matrix(1.00, 0.00, -0.00, -1.00, 370.9, 96.7)">g</text><text xml:space="preserve" font-family="Helvetica-Bold,Helvetica" font-weight="bold" font-size="25.0" fill="#FFFFFF" transform="matrix(1.00, 0.00, -0.00, -1.00, 386.2, 96.7)"> </text><text xml:space="preserve" font-family="Helvetica-Bold,Helvetica" font-weight="bold" font-size="25.0" fill="#FFFFFF" transform="matrix(1.00, 0.00, -0.00, -1.00, 13.9, 66.7)">n</text><text xml:space="preserve" font-family="Helvetica-Bold,Helvetica" font-weight="bold" font-size="25.0" fill="#FFFFFF" transform="matrix(1.00, 0.00, -0.00, -1.00, 29.2, 66.7)">o</text><text xml:space="preserve" font-family="Helvetica-Bold,Helvetica" font-weight="bold" font-size="25.0" fill="#FFFFFF" transform="matrix(1.00, 0.00, -0.00, -1.00, 44.4, 66.7)">t</text><text xml:space="preserve" font-family="Helvetica-Bold,Helvetica" font-weight="bold" font-size="25.0" fill="#FFFFFF" transform="matrix(1.00, 0.00, -0.00, -1.00, 52.8, 66.7)"> </text><text xml:space="preserve" font-family="Helvetica-Bold,Helvetica" font-weight="bold" font-size="25.0" fill="#FFFFFF" transform="matrix(1.00, 0.00, -0.00, -1.00, 59.7, 66.7)">o</text><text xml:space="preserve" font-family="Helvetica-Bold,Helvetica" font-weight="bold" font-size="25.0" fill="#FFFFFF" transform="matrix(1.00, 0.00, -0.00, -1.00, 75.0, 66.7)">n</text><text xml:space="preserve" font-family="Helvetica-Bold,Helvetica" font-weight="bold" font-size="25.0" fill="#FFFFFF" transform="matrix(1.00, 0.00, -0.00, -1.00, 90.2, 66.7)">l</text><text xml:space="preserve" font-family="Helvetica-Bold,Helvetica" font-weight="bold" font-size="25.0" fill="#FFFFFF" transform="matrix(1.00, 0.00, -0.00, -1.00, 97.2, 66.7)">y</text><text xml:space="preserve" font-family="Helvetica-Bold,Helvetica" font-weight="bold" font-size="25.0" fill="#FFFFFF" transform="matrix(1.00, 0.00, -0.00, -1.00, 111.1, 66.7)"> </text><text xml:space="preserve" font-family="Helvetica-Bold,Helvetica" font-weight="bold" font-size="25.0" fill="#FFFFFF" transform="matrix(1.00, 0.00, -0.00, -1.00, 118.0, 66.7)">c</text><text xml:space="preserve" font-family="Helvetica-Bold,Helvetica" font-weight="bold" font-size="25.0" fill="#FFFFFF" transform="matrix(1.00, 0.00, -0.00, -1.00, 131.9, 66.7)">o</text><text xml:space="preserve" font-family="Helvetica-Bold,Helvetica" font-weight="bold" font-size="25.0" fill="#FFFFFF" transform="matrix(1.00, 0.00, -0.00, -1.00, 147.2, 66.7)">n</text><text xml:space="preserve" font-family="Helvetica-Bold,Helvetica" font-weight="bold" font-size="25.0" fill="#FFFFFF" transform="matrix(1.00, 0.00, -0.00, -1.00, 162.5, 66.7)">s</text><text xml:space="preserve" font-family="Helvetica-Bold,Helvetica" font-weight="bold" font-size="25.0" fill="#FFFFFF" transform="matrix(1.00, 0.00, -0.00, -1.00, 176.4, 66.7)">u</text><text xml:space="preserve" font-family="Helvetica-Bold,Helvetica" font-weight="bold" font-size="25.0" fill="#FFFFFF" transform="matrix(1.00, 0.00, -0.00, -1.00, 191.6, 66.7)">l</text><text xml:space="preserve" font-family="Helvetica-Bold,Helvetica" font-weight="bold" font-size="25.0" fill="#FFFFFF" transform="matrix(1.00, 0.00, -0.00, -1.00, 198.6, 66.7)">t</text><text xml:space="preserve" font-family="Helvetica-Bold,Helvetica" font-weight="bold" font-size="25.0" fill="#FFFFFF" transform="matrix(1.00, 0.00, -0.00, -1.00, 206.9, 66.7)">a</text><text xml:space="preserve" font-family="Helvetica-Bold,Helvetica" font-weight="bold" font-size="25.0" fill="#FFFFFF" transform="matrix(1.00, 0.00, -0.00, -1.00, 220.8, 66.7)">n</text><text xml:space="preserve" font-family="Helvetica-Bold,Helvetica" font-weight="bold" font-size="25.0" fill="#FFFFFF" transform="matrix(1.00, 0.00, -0.00, -1.00, 236.1, 66.7)">t</text><text xml:space="preserve" font-family="Helvetica-Bold,Helvetica" font-weight="bold" font-size="25.0" fill="#FFFFFF" transform="matrix(1.00, 0.00, -0.00, -1.00, 244.4, 66.7)"> </text><text xml:space="preserve" font-family="Helvetica-Bold,Helvetica" font-weight="bold" font-size="25.0" fill="#FFFFFF" transform="matrix(1.00, 0.00, -0.00, -1.00, 251.3, 66.7)">c</text><text xml:space="preserve" font-family="Helvetica-Bold,Helvetica" font-weight="bold" font-size="25.0" fill="#FFFFFF" transform="matrix(1.00, 0.00, -0.00, -1.00, 265.3, 66.7)">o</text><text xml:space="preserve" font-family="Helvetica-Bold,Helvetica" font-weight="bold" font-size="25.0" fill="#FFFFFF" transform="matrix(1.00, 0.00, -0.00, -1.00, 280.5, 66.7)">m</text><text xml:space="preserve" font-family="Helvetica-Bold,Helvetica" font-weight="bold" font-size="25.0" fill="#FFFFFF" transform="matrix(1.00, 0.00, -0.00, -1.00, 302.8, 66.7)">p</text><text xml:space="preserve" font-family="Helvetica-Bold,Helvetica" font-weight="bold" font-size="25.0" fill="#FFFFFF" transform="matrix(1.00, 0.00, -0.00, -1.00, 318.0, 66.7)">a</text><text xml:space="preserve" font-family="Helvetica-Bold,Helvetica" font-weight="bold" font-size="25.0" fill="#FFFFFF" transform="matrix(1.00, 0.00, -0.00, -1.00, 331.9, 66.7)">n</text><text xml:space="preserve" font-family="Helvetica-Bold,Helvetica" font-weight="bold" font-size="25.0" fill="#FFFFFF" transform="matrix(1.00, 0.00, -0.00, -1.00, 347.2, 66.7)">i</text><text xml:space="preserve" font-family="Helvetica-Bold,Helvetica" font-weight="bold" font-size="25.0" fill="#FFFFFF" transform="matrix(1.00, 0.00, -0.00, -1.00, 354.1, 66.7)">e</text><text xml:space="preserve" font-family="Helvetica-Bold,Helvetica" font-weight="bold" font-size="25.0" fill="#FFFFFF" transform="matrix(1.00, 0.00, -0.00, -1.00, 368.0, 66.7)">s</text><text xml:space="preserve" font-family="Helvetica-Bold,Helvetica" font-weight="bold" font-size="25.0" fill="#FFFFFF" transform="matrix(1.00, 0.00, -0.00, -1.00, 382.0, 66.7)">,</text><text xml:space="preserve" font-family="Helvetica-Bold,Helvetica" font-weight="bold" font-size="25.0" fill="#FFFFFF" transform="matrix(1.00, 0.00, -0.00, -1.00, 388.9, 66.7)"> </text><text xml:space="preserve" font-family="Helvetica-Bold,Helvetica" font-weight="bold" font-size="25.0" fill="#FFFFFF" transform="matrix(1.00, 0.00, -0.00, -1.00, 45.1, 36.7)">b</text><text xml:space="preserve" font-family="Helvetica-Bold,Helvetica" font-weight="bold" font-size="25.0" fill="#FFFFFF" transform="matrix(1.00, 0.00, -0.00, -1.00, 60.4, 36.7)">u</text><text xml:space="preserve" font-family="Helvetica-Bold,Helvetica" font-weight="bold" font-size="25.0" fill="#FFFFFF" transform="matrix(1.00, 0.00, -0.00, -1.00, 75.7, 36.7)">t</text><text xml:space="preserve" font-family="Helvetica-Bold,Helvetica" font-weight="bold" font-size="25.0" fill="#FFFFFF" transform="matrix(1.00, 0.00, -0.00, -1.00, 84.0, 36.7)"> </text><text xml:space="preserve" font-family="Helvetica-Bold,Helvetica" font-weight="bold" font-size="25.0" fill="#FFFFFF" transform="matrix(1.00, 0.00, -0.00, -1.00, 90.9, 36.7)">b</text><text xml:space="preserve" font-family="Helvetica-Bold,Helvetica" font-weight="bold" font-size="25.0" fill="#FFFFFF" transform="matrix(1.00, 0.00, -0.00, -1.00, 106.2, 36.7)">a</text><text xml:space="preserve" font-family="Helvetica-Bold,Helvetica" font-weight="bold" font-size="25.0" fill="#FFFFFF" transform="matrix(1.00, 0.00, -0.00, -1.00, 120.1, 36.7)">s</text><text xml:space="preserve" font-family="Helvetica-Bold,Helvetica" font-weight="bold" font-size="25.0" fill="#FFFFFF" transform="matrix(1.00, 0.00, -0.00, -1.00, 134.0, 36.7)">i</text><text xml:space="preserve" font-family="Helvetica-Bold,Helvetica" font-weight="bold" font-size="25.0" fill="#FFFFFF" transform="matrix(1.00, 0.00, -0.00, -1.00, 140.9, 36.7)">c</text><text xml:space="preserve" font-family="Helvetica-Bold,Helvetica" font-weight="bold" font-size="25.0" fill="#FFFFFF" transform="matrix(1.00, 0.00, -0.00, -1.00, 154.9, 36.7)">a</text><text xml:space="preserve" font-family="Helvetica-Bold,Helvetica" font-weight="bold" font-size="25.0" fill="#FFFFFF" transform="matrix(1.00, 0.00, -0.00, -1.00, 168.8, 36.7)">l</text><text xml:space="preserve" font-family="Helvetica-Bold,Helvetica" font-weight="bold" font-size="25.0" fill="#FFFFFF" transform="matrix(1.00, 0.00, -0.00, -1.00, 175.7, 36.7)">l</text><text xml:space="preserve" font-family="Helvetica-Bold,Helvetica" font-weight="bold" font-size="25.0" fill="#FFFFFF" transform="matrix(1.00, 0.00, -0.00, -1.00, 182.6, 36.7)">y</text><text xml:space="preserve" font-family="Helvetica-Bold,Helvetica" font-weight="bold" font-size="25.0" fill="#FFFFFF" transform="matrix(1.00, 0.00, -0.00, -1.00, 196.6, 36.7)"> </text><text xml:space="preserve" font-family="Helvetica-Bold,Helvetica" font-weight="bold" font-size="25.0" fill="#FFFFFF" transform="matrix(1.00, 0.00, -0.00, -1.00, 203.5, 36.7)">e</text><text xml:space="preserve" font-family="Helvetica-Bold,Helvetica" font-weight="bold" font-size="25.0" fill="#FFFFFF" transform="matrix(1.00, 0.00, -0.00, -1.00, 217.4, 36.7)">v</text><text xml:space="preserve" font-family="Helvetica-Bold,Helvetica" font-weight="bold" font-size="25.0" fill="#FFFFFF" transform="matrix(1.00, 0.00, -0.00, -1.00, 231.3, 36.7)">e</text><text xml:space="preserve" font-family="Helvetica-Bold,Helvetica" font-weight="bold" font-size="25.0" fill="#FFFFFF" transform="matrix(1.00, 0.00, -0.00, -1.00, 245.2, 36.7)">r</text><text xml:space="preserve" font-family="Helvetica-Bold,Helvetica" font-weight="bold" font-size="25.0" fill="#FFFFFF" transform="matrix(1.00, 0.00, -0.00, -1.00, 255.0, 36.7)">y</text><text xml:space="preserve" font-family="Helvetica-Bold,Helvetica" font-weight="bold" font-size="25.0" fill="#FFFFFF" transform="matrix(1.00, 0.00, -0.00, -1.00, 268.9, 36.7)"> </text><text xml:space="preserve" font-family="Helvetica-Bold,Helvetica" font-weight="bold" font-size="25.0" fill="#FFFFFF" transform="matrix(1.00, 0.00, -0.00, -1.00, 275.8, 36.7)">k</text><text xml:space="preserve" font-family="Helvetica-Bold,Helvetica" font-weight="bold" font-size="25.0" fill="#FFFFFF" transform="matrix(1.00, 0.00, -0.00, -1.00, 289.7, 36.7)">i</text><text xml:space="preserve" font-family="Helvetica-Bold,Helvetica" font-weight="bold" font-size="25.0" fill="#FFFFFF" transform="matrix(1.00, 0.00, -0.00, -1.00, 296.7, 36.7)">n</text><text xml:space="preserve" font-family="Helvetica-Bold,Helvetica" font-weight="bold" font-size="25.0" fill="#FFFFFF" transform="matrix(1.00, 0.00, -0.00, -1.00, 311.9, 36.7)">d</text><text xml:space="preserve" font-family="Helvetica-Bold,Helvetica" font-weight="bold" font-size="25.0" fill="#FFFFFF" transform="matrix(1.00, 0.00, -0.00, -1.00, 327.2, 36.7)"> </text><text xml:space="preserve" font-family="Helvetica-Bold,Helvetica" font-weight="bold" font-size="25.0" fill="#FFFFFF" transform="matrix(1.00, 0.00, -0.00, -1.00, 334.1, 36.7)">o</text><text xml:space="preserve" font-family="Helvetica-Bold,Helvetica" font-weight="bold" font-size="25.0" fill="#FFFFFF" transform="matrix(1.00, 0.00, -0.00, -1.00, 349.4, 36.7)">f</text><text xml:space="preserve" font-family="Helvetica-Bold,Helvetica" font-weight="bold" font-size="25.0" fill="#FFFFFF" transform="matrix(1.00, 0.00, -0.00, -1.00, 357.7, 36.7)"> </text><text xml:space="preserve" font-family="Helvetica-Bold,Helvetica" font-weight="bold" font-size="25.0" fill="#FFFFFF" transform="matrix(1.00, 0.00, -0.00, -1.00, 123.6, 6.7)">o</text><text xml:space="preserve" font-family="Helvetica-Bold,Helvetica" font-weight="bold" font-size="25.0" fill="#FFFFFF" transform="matrix(1.00, 0.00, -0.00, -1.00, 138.9, 6.7)">r</text><text xml:space="preserve" font-family="Helvetica-Bold,Helvetica" font-weight="bold" font-size="25.0" fill="#FFFFFF" transform="matrix(1.00, 0.00, -0.00, -1.00, 148.6, 6.7)">g</text><text xml:space="preserve" font-family="Helvetica-Bold,Helvetica" font-weight="bold" font-size="25.0" fill="#FFFFFF" transform="matrix(1.00, 0.00, -0.00, -1.00, 163.9, 6.7)">a</text><text xml:space="preserve" font-family="Helvetica-Bold,Helvetica" font-weight="bold" font-size="25.0" fill="#FFFFFF" transform="matrix(1.00, 0.00, -0.00, -1.00, 177.8, 6.7)">n</text><text xml:space="preserve" font-family="Helvetica-Bold,Helvetica" font-weight="bold" font-size="25.0" fill="#FFFFFF" transform="matrix(1.00, 0.00, -0.00, -1.00, 193.1, 6.7)">i</text><text xml:space="preserve" font-family="Helvetica-Bold,Helvetica" font-weight="bold" font-size="25.0" fill="#FFFFFF" transform="matrix(1.00, 0.00, -0.00, -1.00, 200.0, 6.7)">z</text><text xml:space="preserve" font-family="Helvetica-Bold,Helvetica" font-weight="bold" font-size="25.0" fill="#FFFFFF" transform="matrix(1.00, 0.00, -0.00, -1.00, 212.5, 6.7)">a</text><text xml:space="preserve" font-family="Helvetica-Bold,Helvetica" font-weight="bold" font-size="25.0" fill="#FFFFFF" transform="matrix(1.00, 0.00, -0.00, -1.00, 226.4, 6.7)">t</text><text xml:space="preserve" font-family="Helvetica-Bold,Helvetica" font-weight="bold" font-size="25.0" fill="#FFFFFF" transform="matrix(1.00, 0.00, -0.00, -1.00, 234.8, 6.7)">i</text><text xml:space="preserve" font-family="Helvetica-Bold,Helvetica" font-weight="bold" font-size="25.0" fill="#FFFFFF" transform="matrix(1.00, 0.00, -0.00, -1.00, 241.7, 6.7)">o</text><text xml:space="preserve" font-family="Helvetica-Bold,Helvetica" font-weight="bold" font-size="25.0" fill="#FFFFFF" transform="matrix(1.00, 0.00, -0.00, -1.00, 257.0, 6.7)">n</text><text xml:space="preserve" font-family="Helvetica-Bold,Helvetica" font-weight="bold" font-size="25.0" fill="#FFFFFF" transform="matrix(1.00, 0.00, -0.00, -1.00, 272.2, 6.7)">.</text></g></svg>