<?xml version="1.0" encoding="UTF-8" standalone="no"?><svg xmlns="http://www.w3.org/2000/svg" xmlns:xlink="http://www.w3.org/1999/xlink" clip-rule="evenodd" stroke-miterlimit="10" viewBox="0 0 444 80"><desc>SVG generated by Keynote</desc><defs></defs><g transform="matrix(1.00, 0.00, -0.00, -1.00, 0.0, 80.0)"><text xml:space="preserve" font-family="Helvetica-Bold,Helvetica" font-weight="bold" font-size="36.0" fill="#222222" transform="matrix(1.00, 0.00, -0.00, -1.00, 0.0, 52.3)">D</text><text xml:space="preserve" font-family="Helvetica-Bold,Helvetica" font-weight="bold" font-size="36.0" fill="#222222" transform="matrix(1.00, 0.00, -0.00, -1.00, 26.0, 52.3)">o</text><text xml:space="preserve" font-family="Helvetica-Bold,Helvetica" font-weight="bold" font-size="36.0" fill="#222222" transform="matrix(1.00, 0.00, -0.00, -1.00, 48.0, 52.3)">n</text><text xml:space="preserve" font-family="Helvetica-Bold,Helvetica" font-weight="bold" font-size="36.0" fill="#222222" transform="matrix(1.00, 0.00, -0.00, -1.00, 70.0, 52.3)">e</text><text xml:space="preserve" font-family="Helvetica-Bold,Helvetica" font-weight="bold" font-size="36.0" fill="#222222" transform="matrix(1.00, 0.00, -0.00, -1.00, 90.0, 52.3)">c</text><text xml:space="preserve" font-family="Helvetica-Bold,Helvetica" font-weight="bold" font-size="36.0" fill="#222222" transform="matrix(1.00, 0.00, -0.00, -1.00, 110.0, 52.3)"> </text><text xml:space="preserve" font-family="Helvetica-Bold,Helvetica" font-weight="bold" font-size="36.0" fill="#222222" transform="matrix(1.00, 0.00, -0.00, -1.00, 120.0, 52.3)">i</text><text xml:space="preserve" font-family="Helvetica-Bold,Helvetica" font-weight="bold" font-size="36.0" fill="#222222" transform="matrix(1.00, 0.00, -0.00, -1.00, 130.0, 52.3)">d</text><text xml:space="preserve" font-family="Helvetica-Bold,Helvetica" font-weight="bold" font-size="36.0" fill="#222222" transform="matrix(1.00, 0.00, -0.00, -1.00, 152.0, 52.3)"> </text><text xml:space="preserve" font-family="Helvetica-Bold,Helvetica" font-weight="bold" font-size="36.0" fill="#222222" transform="matrix(1.00, 0.00, -0.00, -1.00, 162.0, 52.3)">e</text><text xml:space="preserve" font-family="Helvetica-Bold,Helvetica" font-weight="bold" font-size="36.0" fill="#222222" transform="matrix(1.00, 0.00, -0.00, -1.00, 182.0, 52.3)">l</text><text xml:space="preserve" font-family="Helvetica-Bold,Helvetica" font-weight="bold" font-size="36.0" fill="#222222" transform="matrix(1.00, 0.00, -0.00, -1.00, 192.0, 52.3)">i</text><text xml:space="preserve" font-family="Helvetica-Bold,Helvetica" font-weight="bold" font-size="36.0" fill="#222222" transform="matrix(1.00, 0.00, -0.00, -1.00, 202.0, 52.3)">t</text><text xml:space="preserve" font-family="Helvetica-Bold,Helvetica" font-weight="bold" font-size="36.0" fill="#222222" transform="matrix(1.00, 0.00, -0.00, -1.00, 214.0, 52.3)"> </text><text xml:space="preserve" font-family="Helvetica-Bold,Helvetica" font-weight="bold" font-size="36.0" fill="#222222" transform="matrix(1.00, 0.00, -0.00, -1.00, 224.0, 52.3)">n</text><text xml:space="preserve" font-family="Helvetica-Bold,Helvetica" font-weight="bold" font-size="36.0" fill="#222222" transform="matrix(1.00, 0.00, -0.00, -1.00, 246.0, 52.3)">o</text><text xml:space="preserve" font-family="Helvetica-Bold,Helvetica" font-weight="bold" font-size="36.0" fill="#222222" transform="matrix(1.00, 0.00, -0.00, -1.00, 268.0, 52.3)">n</text><text xml:space="preserve" font-family="Helvetica-Bold,Helvetica" font-weight="bold" font-size="36.0" fill="#222222" transform="matrix(1.00, 0.00, -0.00, -1.00, 289.9, 52.3)"> </text><text xml:space="preserve" font-family="Helvetica-Bold,Helvetica" font-weight="bold" font-size="36.0" fill="#222222" transform="matrix(1.00, 0.00, -0.00, -1.00, 299.9, 52.3)">m</text><text xml:space="preserve" font-family="Helvetica-Bold,Helvetica" font-weight="bold" font-size="36.0" fill="#222222" transform="matrix(1.00, 0.00, -0.00, -1.00, 332.0, 52.3)">i</text><text xml:space="preserve" font-family="Helvetica-Bold,Helvetica" font-weight="bold" font-size="36.0" fill="#222222" transform="matrix(1.00, 0.00, -0.00, -1.00, 342.0, 52.3)"> </text><text xml:space="preserve" font-family="Helvetica-Bold,Helvetica" font-weight="bold" font-size="36.0" fill="#222222" transform="matrix(1.00, 0.00, -0.00, -1.00, 351.9, 52.3)">p</text><text xml:space="preserve" font-family="Helvetica-Bold,Helvetica" font-weight="bold" font-size="36.0" fill="#222222" transform="matrix(1.00, 0.00, -0.00, -1.00, 373.9, 52.3)">o</text><text xml:space="preserve" font-family="Helvetica-Bold,Helvetica" font-weight="bold" font-size="36.0" fill="#222222" transform="matrix(1.00, 0.00, -0.00, -1.00, 395.9, 52.3)">r</text><text xml:space="preserve" font-family="Helvetica-Bold,Helvetica" font-weight="bold" font-size="36.0" fill="#222222" transform="matrix(1.00, 0.00, -0.00, -1.00, 409.9, 52.3)">t</text><text xml:space="preserve" font-family="Helvetica-Bold,Helvetica" font-weight="bold" font-size="36.0" fill="#222222" transform="matrix(1.00, 0.00, -0.00, -1.00, 421.9, 52.3)">a</text><text xml:space="preserve" font-family="Helvetica-Bold,Helvetica" font-weight="bold" font-size="36.0" fill="#222222" transform="matrix(1.00, 0.00, -0.00, -1.00, 441.9, 52.3)"> </text><text xml:space="preserve" font-family="Helvetica-Bold,Helvetica" font-weight="bold" font-size="36.0" fill="#222222" transform="matrix(1.00, 0.00, -0.00, -1.00, 0.0, 9.3)">g</text><text xml:space="preserve" font-family="Helvetica-Bold,Helvetica" font-weight="bold" font-size="36.0" fill="#222222" transform="matrix(1.00, 0.00, -0.00, -1.00, 22.0, 9.3)">r</text><text xml:space="preserve" font-family="Helvetica-Bold,Helvetica" font-weight="bold" font-size="36.0" fill="#222222" transform="matrix(1.00, 0.00, -0.00, -1.00, 36.0, 9.3)">a</text><text xml:space="preserve" font-family="Helvetica-Bold,Helvetica" font-weight="bold" font-size="36.0" fill="#222222" transform="matrix(1.00, 0.00, -0.00, -1.00, 56.0, 9.3)">v</text><text xml:space="preserve" font-family="Helvetica-Bold,Helvetica" font-weight="bold" font-size="36.0" fill="#222222" transform="matrix(1.00, 0.00, -0.00, -1.00, 76.1, 9.3)">i</text><text xml:space="preserve" font-family="Helvetica-Bold,Helvetica" font-weight="bold" font-size="36.0" fill="#222222" transform="matrix(1.00, 0.00, -0.00, -1.00, 86.1, 9.3)">d</text><text xml:space="preserve" font-family="Helvetica-Bold,Helvetica" font-weight="bold" font-size="36.0" fill="#222222" transform="matrix(1.00, 0.00, -0.00, -1.00, 108.0, 9.3)">a</text><text xml:space="preserve" font-family="Helvetica-Bold,Helvetica" font-weight="bold" font-size="36.0" fill="#222222" transform="matrix(1.00, 0.00, -0.00, -1.00, 128.1, 9.3)"> </text><text xml:space="preserve" font-family="Helvetica-Bold,Helvetica" font-weight="bold" font-size="36.0" fill="#222222" transform="matrix(1.00, 0.00, -0.00, -1.00, 138.1, 9.3)">a</text><text xml:space="preserve" font-family="Helvetica-Bold,Helvetica" font-weight="bold" font-size="36.0" fill="#222222" transform="matrix(1.00, 0.00, -0.00, -1.00, 158.1, 9.3)">t</text><text xml:space="preserve" font-family="Helvetica-Bold,Helvetica" font-weight="bold" font-size="36.0" fill="#222222" transform="matrix(1.00, 0.00, -0.00, -1.00, 170.1, 9.3)"> </text><text xml:space="preserve" font-family="Helvetica-Bold,Helvetica" font-weight="bold" font-size="36.0" fill="#222222" transform="matrix(1.00, 0.00, -0.00, -1.00, 180.1, 9.3)">e</text><text xml:space="preserve" font-family="Helvetica-Bold,Helvetica" font-weight="bold" font-size="36.0" fill="#222222" transform="matrix(1.00, 0.00, -0.00, -1.00, 200.1, 9.3)">g</text><text xml:space="preserve" font-family="Helvetica-Bold,Helvetica" font-weight="bold" font-size="36.0" fill="#222222" transform="matrix(1.00, 0.00, -0.00, -1.00, 222.1, 9.3)">e</text><text xml:space="preserve" font-family="Helvetica-Bold,Helvetica" font-weight="bold" font-size="36.0" fill="#222222" transform="matrix(1.00, 0.00, -0.00, -1.00, 242.1, 9.3)">t</text><text xml:space="preserve" font-family="Helvetica-Bold,Helvetica" font-weight="bold" font-size="36.0" fill="#222222" transform="matrix(1.00, 0.00, -0.00, -1.00, 254.1, 9.3)"> </text><text xml:space="preserve" font-family="Helvetica-Bold,Helvetica" font-weight="bold" font-size="36.0" fill="#222222" transform="matrix(1.00, 0.00, -0.00, -1.00, 264.1, 9.3)">m</text><text xml:space="preserve" font-family="Helvetica-Bold,Helvetica" font-weight="bold" font-size="36.0" fill="#222222" transform="matrix(1.00, 0.00, -0.00, -1.00, 296.1, 9.3)">e</text><text xml:space="preserve" font-family="Helvetica-Bold,Helvetica" font-weight="bold" font-size="36.0" fill="#222222" transform="matrix(1.00, 0.00, -0.00, -1.00, 316.1, 9.3)">t</text><text xml:space="preserve" font-family="Helvetica-Bold,Helvetica" font-weight="bold" font-size="36.0" fill="#222222" transform="matrix(1.00, 0.00, -0.00, -1.00, 328.1, 9.3)">u</text><text xml:space="preserve" font-family="Helvetica-Bold,Helvetica" font-weight="bold" font-size="36.0" fill="#222222" transform="matrix(1.00, 0.00, -0.00, -1.00, 350.1, 9.3)">s</text><text xml:space="preserve" font-family="Helvetica-Bold,Helvetica" font-weight="bold" font-size="36.0" fill="#222222" transform="matrix(1.00, 0.00, -0.00, -1.00, 370.1, 9.3)">.</text></g></svg>