<?xml version="1.0" encoding="UTF-8" standalone="no"?><svg xmlns="http://www.w3.org/2000/svg" xmlns:xlink="http://www.w3.org/1999/xlink" clip-rule="evenodd" stroke-miterlimit="10" viewBox="0 0 204 208"><desc>SVG generated by Keynote</desc><defs></defs><g transform="matrix(1.00, 0.00, -0.00, -1.00, 0.0, 208.0)"><path d="M 176.4 25.6 C 176.1 25.4 175.6 25.1 175.0 24.6 C 175.2 24.9 175.4 25.1 175.3 25.2 C 175.8 25.5 176.6 26.1 177.6 27.0 C 177.6 26.9 177.1 26.4 176.7 26.1 C 176.3 25.8 176.5 25.7 176.4 25.6 C 176.4 25.6 176.4 25.6 176.4 25.6 Z M 7.3 69.5 C 7.6 68.6 7.0 69.5 6.8 69.8 C 6.9 69.9 6.9 70.0 6.8 70.3 C 6.5 70.3 6.7 69.5 6.9 68.8 C 8.0 66.3 7.7 68.4 7.3 69.5 C 7.3 69.5 7.3 69.5 7.3 69.5 Z M 97.5 204.7 C 99.8 205.2 97.4 204.3 97.0 204.2 C 98.2 204.3 97.5 203.7 98.7 203.9 C 98.9 204.1 99.3 204.3 99.5 204.4 C 99.0 204.4 98.2 204.2 98.1 204.3 C 98.8 204.5 99.8 204.5 99.9 204.7 C 98.4 204.6 99.6 205.0 99.8 205.2 C 98.5 205.0 97.9 205.1 97.5 204.7 C 97.5 204.7 97.5 204.7 97.5 204.7 Z M 145.9 190.8 C 144.6 191.3 143.4 191.6 143.7 191.3 C 145.1 190.9 146.1 190.6 146.9 190.3 C 147.1 190.2 146.6 190.2 147.8 189.7 C 149.4 189.4 148.8 190.0 148.1 190.5 C 147.9 190.2 143.2 192.0 145.9 190.8 C 145.9 190.8 145.9 190.8 145.9 190.8 Z M 199.1 127.7 C 199.7 125.1 198.7 127.5 199.2 124.9 C 199.5 125.1 199.9 124.7 199.6 126.4 C 199.5 126.6 199.3 127.6 199.1 127.7 C 199.1 127.7 199.1 127.7 199.1 127.7 Z M 14.8 149.9 C 14.6 150.0 15.5 151.6 15.1 151.3 C 14.7 150.5 14.3 149.7 13.9 148.9 C 14.0 148.6 14.3 148.8 14.8 149.9 C 14.8 149.9 14.8 149.9 14.8 149.9 Z M 105.5 201.3 C 106.0 201.1 105.5 200.2 105.8 200.3 C 106.1 200.1 106.7 200.7 106.4 200.7 C 106.0 200.7 105.4 201.6 105.5 201.3 C 105.5 201.3 105.5 201.3 105.5 201.3 Z M 9.5 80.4 C 9.0 82.1 9.9 81.9 9.4 82.8 C 9.4 82.5 9.3 82.3 9.2 82.2 C 9.2 82.4 9.2 82.8 9.1 82.8 C 9.1 82.1 9.2 81.1 9.5 80.4 C 9.5 80.4 9.5 80.4 9.5 80.4 Z M 194.4 52.3 C 194.4 52.5 194.5 52.6 194.6 52.5 C 194.8 53.3 195.0 53.3 195.0 53.9 C 194.6 54.0 194.5 53.2 194.4 52.6 C 194.4 52.6 194.3 52.4 194.4 52.3 C 194.4 52.3 194.4 52.3 194.4 52.3 Z M 200.6 94.7 C 200.8 94.7 200.8 93.5 201.0 95.3 C 200.8 97.5 200.4 95.6 200.1 93.5 C 199.9 93.5 199.8 93.5 199.7 93.5 C 199.7 94.4 199.7 94.9 199.7 95.4 C 200.2 95.8 199.5 97.2 199.9 100.6 C 199.6 99.0 199.3 100.8 199.4 98.7 C 199.1 99.2 199.1 97.8 198.9 98.1 C 199.1 98.9 199.1 101.2 199.5 100.6 C 199.5 101.8 199.5 102.7 199.5 103.3 C 199.2 104.1 199.3 101.2 199.0 102.0 C 199.0 102.6 199.0 102.8 199.0 103.3 C 199.1 103.4 199.2 103.1 199.3 103.9 C 199.2 106.0 198.9 103.5 198.9 106.6 C 199.1 106.8 199.1 105.8 199.3 105.9 C 199.5 107.3 199.2 107.2 199.4 108.6 C 199.2 108.8 199.1 107.6 199.1 108.6 C 199.5 109.4 198.7 111.4 199.0 113.3 C 199.7 112.0 198.9 113.6 199.4 115.4 C 199.2 115.7 198.9 114.5 198.8 116.0 C 199.6 115.5 198.9 121.6 199.9 116.7 C 199.7 119.3 200.2 120.2 200.5 118.2 C 200.0 122.7 200.5 121.3 200.3 123.0 C 200.1 124.8 200.2 122.1 199.9 123.0 C 200.2 121.1 199.9 121.6 200.2 120.2 C 200.1 120.2 200.0 119.9 200.0 119.5 C 200.0 121.4 199.3 123.5 199.1 122.1 C 199.3 121.2 199.5 122.1 199.6 120.9 C 199.2 121.3 199.9 119.5 199.6 119.4 C 199.1 120.3 199.0 117.6 198.7 120.1 C 198.9 120.1 199.1 120.1 199.2 120.1 C 199.1 120.8 199.1 121.5 199.0 122.1 C 198.6 122.7 198.5 122.2 198.3 122.8 C 198.2 123.9 198.2 124.5 198.2 124.9 C 198.5 123.5 199.0 121.9 198.7 124.2 C 198.3 123.3 198.1 127.4 198.0 125.5 C 197.5 128.0 197.7 129.3 197.3 129.5 C 197.0 130.8 197.5 130.1 197.2 131.6 C 196.4 134.1 196.9 133.7 195.8 137.0 C 196.2 137.5 195.6 137.3 195.3 138.3 C 195.5 138.4 195.7 138.4 195.8 138.4 C 195.2 139.5 194.3 142.1 193.6 145.0 C 193.2 145.6 193.2 145.0 192.6 146.8 C 192.2 148.9 190.8 150.9 190.1 153.3 C 189.8 153.4 189.0 154.9 188.7 155.7 C 188.3 156.0 188.6 154.8 187.9 156.2 C 187.6 157.2 188.6 155.6 187.6 157.6 C 187.4 157.2 186.7 159.5 186.4 159.3 C 186.7 158.7 187.0 158.0 187.3 157.4 C 186.8 158.2 186.8 157.9 186.3 158.5 C 186.8 158.6 185.6 159.9 185.2 160.3 C 185.4 160.3 185.4 160.6 185.1 161.1 C 184.4 162.1 183.9 162.9 183.6 163.4 C 182.5 164.6 183.9 162.6 182.9 163.8 C 183.1 164.9 181.5 165.6 179.5 168.5 C 178.8 168.9 177.8 169.9 176.2 171.4 C 176.2 171.7 177.8 170.0 177.9 170.0 C 175.6 172.3 178.5 169.8 177.0 171.3 C 173.6 174.4 171.2 176.4 166.7 179.1 C 166.9 179.2 163.5 181.6 163.5 181.4 C 164.4 180.8 161.3 182.2 159.7 183.0 C 159.5 183.7 157.2 185.4 157.1 185.6 C 156.4 185.7 156.6 185.6 156.1 185.3 C 153.1 186.5 151.1 187.8 148.5 188.2 C 148.7 188.4 146.9 189.1 145.4 189.7 C 145.7 189.3 146.6 188.9 147.4 188.4 C 145.3 189.1 145.0 189.1 143.2 189.7 C 141.6 191.1 138.3 191.0 137.2 192.2 C 134.3 193.0 134.7 192.6 132.1 193.2 C 132.2 193.3 132.0 193.6 131.2 193.8 C 132.9 193.3 134.1 192.8 135.2 192.8 C 131.3 194.0 142.9 191.6 136.5 193.7 C 136.3 193.6 136.8 193.3 135.4 193.6 C 131.8 194.7 134.0 194.4 135.5 194.0 C 133.1 194.8 130.5 195.3 132.6 195.1 C 127.0 196.6 130.5 195.5 128.5 195.8 C 118.7 198.1 107.0 199.5 95.8 198.7 C 95.4 199.1 89.6 198.4 87.9 198.0 C 84.9 198.0 82.0 197.7 81.2 197.2 C 80.6 197.5 77.9 196.4 77.6 196.7 C 78.7 196.9 79.5 197.2 78.3 197.0 C 74.4 196.2 69.2 194.8 67.2 194.5 C 66.1 193.8 64.0 193.3 62.6 193.1 C 62.5 192.9 63.6 193.1 62.7 192.8 C 62.4 192.9 59.6 192.2 59.0 191.8 C 59.8 192.1 60.8 192.0 59.7 191.6 C 59.6 191.7 58.3 191.2 58.5 191.6 C 56.9 190.8 55.9 190.7 54.8 190.1 C 55.8 190.4 56.5 190.5 56.7 190.4 C 55.8 190.2 55.1 190.0 54.5 189.5 C 54.5 190.0 53.2 189.2 51.9 188.8 C 51.6 188.5 51.4 188.3 50.4 187.9 C 49.9 187.9 51.8 188.8 50.7 188.4 C 50.7 188.3 49.8 187.6 49.9 188.1 C 48.7 187.3 48.0 187.3 47.3 186.6 C 48.3 187.2 47.7 186.4 47.5 186.2 C 47.3 186.1 46.9 186.0 46.9 186.0 C 46.8 186.2 47.4 186.4 47.4 186.5 C 46.7 186.0 46.3 186.4 46.2 186.0 C 46.5 186.2 46.6 186.0 46.2 185.8 C 45.9 186.2 44.3 184.9 45.0 185.1 C 45.0 185.2 45.6 185.5 45.8 185.5 C 45.6 185.2 44.6 184.8 44.9 184.7 C 45.5 184.9 45.3 185.1 46.1 185.4 C 46.3 185.3 46.8 185.5 47.1 185.5 C 45.9 184.9 45.5 185.1 45.5 184.7 C 45.0 184.4 45.1 184.9 44.5 184.4 C 43.5 183.8 44.5 184.0 44.3 183.8 C 43.4 183.4 43.5 184.0 43.7 184.4 C 43.0 184.0 42.8 184.1 42.3 183.7 C 42.4 183.6 42.6 183.5 42.8 183.6 C 42.8 183.6 43.2 184.1 43.2 183.9 C 43.4 183.5 43.0 183.1 42.6 182.7 C 42.5 183.2 42.5 182.9 42.2 182.7 C 42.0 183.1 42.0 182.5 41.9 182.8 C 41.8 182.9 41.9 182.9 42.1 183.0 C 42.0 183.2 41.8 183.3 41.7 183.2 C 41.7 183.1 41.5 183.2 41.5 183.0 C 41.6 182.8 41.7 182.8 41.9 182.6 C 41.7 182.6 41.7 182.7 41.6 182.7 C 41.7 182.4 41.9 182.1 42.1 181.8 C 42.2 181.7 42.4 181.8 42.4 181.6 C 42.7 181.7 42.1 181.9 42.2 182.1 C 42.6 181.8 42.2 182.2 42.6 182.4 C 42.7 182.5 42.8 182.4 43.0 182.4 C 42.9 182.3 42.8 181.9 43.2 182.0 C 43.1 182.3 43.2 182.5 43.5 182.7 C 43.6 182.6 43.0 182.1 43.7 182.5 C 43.9 182.7 43.4 182.8 43.9 183.1 C 44.0 183.0 44.1 183.1 44.2 183.0 C 43.5 182.6 44.5 182.9 44.1 182.5 C 44.7 182.7 44.0 182.8 44.5 183.0 C 44.6 182.9 45.2 183.6 45.4 183.3 C 45.0 183.3 44.4 182.9 44.7 182.7 C 45.1 183.0 48.3 184.4 46.8 184.2 C 47.3 184.2 50.2 185.2 49.9 185.3 C 49.1 184.9 49.0 185.1 48.8 185.2 C 50.5 185.6 51.3 186.3 53.6 186.9 C 51.3 185.8 53.2 186.1 52.1 185.3 C 51.5 185.1 50.8 184.7 50.6 184.7 C 50.7 185.1 51.6 185.4 52.0 185.4 C 51.9 185.6 51.8 185.9 51.7 186.1 C 49.4 184.8 48.3 184.5 47.5 184.0 C 48.3 184.3 46.4 183.0 47.2 183.3 C 47.5 183.7 48.3 184.1 49.1 184.6 C 49.1 184.5 49.2 184.4 49.2 184.3 C 49.6 184.5 50.1 184.8 50.2 184.7 C 49.0 184.2 48.6 183.6 47.8 183.5 C 47.8 183.4 47.9 183.4 47.9 183.3 C 47.7 183.2 47.6 183.1 47.7 183.1 C 48.0 183.2 48.4 183.5 48.6 183.4 C 47.8 183.0 47.8 182.6 47.1 182.2 C 47.5 182.0 46.7 181.1 47.8 181.6 C 47.8 182.0 48.4 182.4 48.3 182.5 C 48.6 182.8 49.4 183.1 49.8 183.1 C 49.5 182.8 48.8 182.3 48.9 182.0 C 49.5 182.3 50.1 182.4 50.3 182.8 C 48.9 182.3 50.9 183.4 51.4 184.0 C 51.3 183.8 51.0 183.5 50.9 183.3 C 51.9 183.8 52.4 184.3 52.7 183.9 C 54.2 184.5 53.7 184.6 54.8 185.1 C 54.3 184.4 55.6 185.2 55.1 184.6 C 57.0 185.3 55.5 185.1 56.2 185.4 C 56.8 185.7 56.9 185.6 57.5 185.8 C 58.4 186.3 60.4 187.1 60.5 187.5 C 61.4 187.8 61.5 188.0 62.5 188.3 C 62.8 188.3 63.1 188.3 63.6 188.3 C 63.7 188.5 64.4 188.9 64.6 188.8 C 62.0 187.5 62.8 187.7 60.3 186.5 C 60.1 186.6 59.7 186.4 60.2 186.8 C 58.4 186.2 58.0 185.8 56.7 185.3 C 56.6 185.0 56.5 184.5 55.2 184.3 C 55.6 184.1 55.3 183.9 55.8 184.0 C 56.4 184.4 57.2 184.9 58.2 185.4 C 58.3 185.3 58.2 185.1 58.7 185.2 C 59.1 185.6 59.9 185.9 60.5 186.0 C 60.5 186.2 60.2 186.2 59.9 186.1 C 62.2 187.1 61.5 186.4 63.4 187.2 C 63.2 186.9 61.9 186.5 63.0 186.7 C 64.8 187.2 65.1 187.5 66.1 187.9 C 66.2 187.8 66.2 187.7 66.7 187.8 C 68.0 188.4 63.6 187.5 65.8 188.6 C 66.1 188.4 68.4 189.2 68.7 189.4 C 67.8 189.5 66.6 188.7 66.4 188.9 C 70.6 190.2 66.2 189.4 70.8 190.7 C 70.9 190.6 70.9 190.5 70.9 190.3 C 69.0 189.9 69.1 189.6 69.3 189.4 C 67.7 188.9 67.2 188.4 65.9 188.2 C 66.6 187.8 67.2 188.6 68.8 189.1 C 68.8 188.7 67.4 188.3 67.2 188.0 C 70.7 189.3 71.6 189.1 75.4 190.3 C 74.6 189.8 77.6 190.7 77.4 190.4 C 73.9 189.8 75.6 189.3 75.0 189.0 C 72.9 188.6 73.7 189.4 72.4 189.3 C 71.9 188.8 72.2 188.7 72.6 188.4 C 74.5 188.9 74.2 188.8 75.8 189.0 C 77.0 189.5 78.0 190.3 76.2 190.1 C 76.5 190.1 79.2 190.5 79.4 190.7 C 76.8 190.2 79.6 190.9 78.1 190.8 C 80.0 191.3 83.7 191.5 86.3 192.1 C 86.1 191.9 87.1 192.0 87.0 191.8 C 84.3 191.8 83.9 191.1 81.5 190.7 C 82.5 190.8 82.0 190.5 81.5 190.4 C 83.9 190.9 85.3 190.8 87.1 191.3 C 87.1 191.2 87.1 191.1 87.1 191.0 C 90.2 191.6 89.8 191.4 92.3 191.4 C 93.2 191.6 91.9 192.0 91.5 192.3 C 92.7 192.3 97.1 192.5 94.5 192.1 C 97.2 192.2 96.5 192.6 99.2 192.6 C 99.3 192.3 96.7 192.3 97.7 191.9 C 100.2 191.9 98.7 192.3 100.9 192.0 C 100.9 192.3 101.0 192.5 103.3 192.5 C 101.6 192.3 103.5 192.4 104.1 192.2 C 103.1 192.1 102.2 192.1 101.7 192.0 C 105.7 192.0 106.5 192.0 110.0 191.6 C 108.7 192.1 110.7 192.0 108.3 192.3 C 110.5 192.0 113.3 192.1 114.5 191.8 C 113.1 191.8 110.8 192.0 110.0 191.9 C 116.9 191.3 120.6 190.3 127.2 189.4 C 126.1 189.7 124.5 189.9 124.3 190.1 C 125.1 190.0 126.3 189.7 126.3 189.8 C 124.0 190.3 121.8 190.6 120.7 190.9 C 118.7 191.1 121.8 190.5 119.7 190.8 C 119.4 191.0 115.6 191.4 117.1 191.6 C 120.5 190.8 123.8 190.5 125.5 190.7 C 128.7 189.5 125.6 190.2 129.0 188.8 C 129.0 189.0 129.8 188.9 131.0 188.6 C 129.8 188.5 134.3 187.6 134.8 187.4 C 133.1 188.1 126.8 189.8 130.2 189.4 C 128.5 189.0 137.7 187.6 135.9 187.6 C 140.0 186.3 138.6 187.1 140.9 186.0 C 141.0 186.1 140.8 186.4 141.9 186.0 C 143.1 185.6 143.5 185.4 144.0 185.1 C 137.9 187.0 139.5 186.0 135.7 187.1 C 136.4 186.9 137.0 186.7 136.7 186.7 C 136.7 186.6 136.8 186.5 137.7 186.3 C 138.1 186.6 140.7 185.3 141.7 185.3 C 140.5 185.7 139.4 186.0 139.8 186.1 C 144.7 184.4 144.0 185.1 151.1 182.6 C 148.9 183.2 151.7 182.1 153.4 181.3 C 155.9 180.2 155.2 181.1 158.0 179.7 C 157.4 179.1 161.0 178.2 163.7 175.9 C 163.7 176.4 167.5 173.9 168.1 173.1 C 168.3 173.1 169.5 172.1 170.3 171.4 C 170.7 171.3 169.7 172.2 170.5 171.6 C 171.2 170.9 170.4 171.3 171.3 170.4 C 172.5 169.5 172.6 169.9 174.1 168.3 C 174.0 168.1 173.2 169.0 173.9 168.0 C 175.3 166.8 176.5 165.5 175.2 166.4 C 177.1 164.3 176.6 165.7 178.3 163.7 C 177.7 164.2 177.6 164.1 178.5 163.0 C 179.3 162.4 179.4 162.4 179.7 162.2 C 180.0 161.4 179.8 161.6 181.2 159.9 C 181.1 159.9 180.9 159.8 180.8 159.7 C 181.4 158.9 182.2 157.7 182.4 157.6 C 181.4 159.0 181.9 158.8 181.5 159.4 C 182.6 157.9 184.8 155.1 183.0 157.2 C 184.3 155.0 184.0 156.2 184.9 154.5 C 184.0 155.4 184.9 154.5 185.8 152.7 C 185.3 152.6 186.4 151.4 186.9 150.3 C 186.6 150.3 186.6 150.0 187.1 148.9 C 187.2 149.1 187.6 148.4 188.1 147.2 C 187.9 147.1 186.7 149.6 187.8 147.1 C 188.4 145.9 188.8 146.1 189.5 144.2 C 190.0 143.8 189.0 146.0 189.5 145.6 C 189.8 143.9 190.2 143.5 191.1 141.2 C 190.2 142.0 191.8 136.3 190.7 139.0 C 191.0 138.2 190.9 137.0 191.4 136.5 C 191.2 137.3 191.9 135.9 191.9 135.9 C 192.2 134.8 193.0 132.2 192.8 132.1 C 192.3 134.6 192.0 134.5 191.6 135.2 C 192.4 131.6 193.0 128.5 193.3 128.8 C 193.2 128.8 193.3 128.3 193.3 128.1 C 193.1 129.4 192.4 130.1 192.7 128.7 C 192.9 129.0 193.2 128.0 193.5 126.9 C 193.2 126.7 194.3 122.0 193.8 122.9 C 193.8 124.8 193.1 126.3 193.1 124.8 C 193.5 123.6 194.0 121.0 194.2 121.6 C 194.2 120.9 194.2 120.3 194.1 119.6 C 193.9 119.0 193.8 120.5 193.6 120.2 C 193.7 119.3 193.8 117.8 193.9 117.6 C 193.7 120.2 194.2 116.3 194.2 119.0 C 194.3 117.3 194.5 117.0 194.7 115.7 C 194.6 115.7 194.6 115.2 194.5 115.0 C 194.6 116.2 194.4 117.3 194.1 117.0 C 194.2 114.6 194.5 115.0 194.6 113.1 C 194.4 112.5 194.1 109.8 194.4 108.5 C 194.3 111.1 194.5 108.3 194.6 109.8 C 194.4 112.2 194.7 112.8 194.9 113.7 C 195.1 112.7 195.3 110.7 194.9 110.5 C 194.9 111.7 195.0 111.7 195.0 112.5 C 194.9 112.4 194.7 112.0 194.7 111.1 C 195.0 110.0 194.8 107.6 195.2 109.2 C 195.0 107.6 195.3 105.7 195.1 104.0 C 195.1 105.9 194.9 107.3 194.7 107.9 C 194.6 106.3 194.9 104.7 194.7 104.7 C 194.4 104.9 194.5 107.4 194.3 107.9 C 194.0 105.9 194.8 102.8 194.2 105.3 C 194.2 104.2 194.2 102.6 194.3 102.1 C 194.4 103.5 194.8 102.0 194.8 101.4 C 194.7 100.2 194.6 99.3 194.5 98.9 C 194.7 100.7 194.3 102.1 194.3 100.8 C 194.4 100.5 194.2 100.1 194.1 99.6 C 194.3 99.5 194.1 97.5 194.2 97.1 C 194.1 97.2 194.1 98.1 194.0 98.3 C 193.8 97.2 193.3 95.5 193.6 94.6 C 193.7 95.3 193.7 96.4 193.9 96.4 C 194.1 93.2 194.4 92.1 194.2 88.4 C 194.2 88.9 194.3 89.1 194.4 89.0 C 194.2 86.7 194.2 85.2 194.4 85.4 C 194.2 84.0 193.9 83.3 193.7 82.6 C 193.7 84.1 194.0 84.6 193.9 85.5 C 193.8 84.9 193.5 86.7 193.4 87.4 C 193.9 89.9 193.5 90.1 193.9 92.7 C 193.5 92.0 194.0 94.7 193.6 94.0 C 193.9 91.4 193.3 89.1 193.1 85.6 C 193.4 86.0 193.6 86.4 193.6 85.0 C 193.5 82.7 193.2 83.9 193.0 82.1 C 193.1 81.3 193.4 82.4 193.3 81.5 C 193.1 80.9 192.9 79.3 193.1 78.7 C 193.4 80.9 193.3 78.2 193.7 79.7 C 193.5 79.0 193.5 78.5 193.5 78.0 C 193.5 80.3 192.7 75.9 192.7 77.6 C 192.1 74.7 193.4 77.2 193.0 74.9 C 193.0 76.1 192.6 74.6 192.3 72.9 C 192.5 72.4 192.3 70.6 192.1 69.3 C 192.0 70.1 192.2 70.6 191.7 69.4 C 191.7 70.1 192.0 71.2 192.2 71.8 C 192.1 71.8 192.0 72.1 192.0 72.4 C 191.6 70.8 191.6 71.5 191.4 71.0 C 191.5 70.5 191.2 69.3 191.4 69.0 C 191.3 69.0 191.2 68.6 191.1 68.6 C 191.4 70.5 190.6 68.3 190.8 69.6 C 191.0 70.5 191.2 69.8 191.3 71.0 C 191.2 72.2 190.8 70.2 190.4 69.7 C 190.3 70.6 190.9 71.7 190.6 72.1 C 190.1 70.9 189.9 68.9 189.7 67.4 C 189.3 67.6 189.3 65.0 188.7 64.9 C 188.8 64.6 188.9 64.4 188.9 64.0 C 188.4 63.6 188.8 63.1 188.7 62.7 C 188.5 62.7 188.4 62.9 188.4 63.2 C 188.2 61.5 188.1 61.1 187.5 59.5 C 187.6 59.2 187.7 58.8 187.9 58.6 C 188.0 59.0 188.2 59.4 188.4 59.6 C 187.8 57.3 187.4 58.9 187.5 57.4 C 187.3 57.5 187.3 58.6 187.0 57.8 C 187.0 56.4 186.3 54.9 187.1 54.7 C 187.1 53.7 186.4 53.1 186.6 52.4 C 186.4 52.1 186.3 52.0 186.2 51.9 C 186.1 52.3 186.1 52.8 186.1 53.2 C 186.4 53.8 186.2 54.2 186.5 53.4 C 186.8 54.4 186.6 54.6 186.6 55.1 C 186.1 53.9 186.0 52.7 185.5 52.8 C 185.6 52.3 185.6 51.9 185.7 51.4 C 185.4 51.4 184.7 49.8 184.9 49.6 C 185.3 50.7 186.1 51.7 185.9 50.6 C 184.6 48.0 184.2 46.2 182.2 43.8 C 182.2 43.6 182.6 43.7 182.3 43.2 C 182.1 43.3 181.9 43.3 181.7 43.1 C 181.1 42.3 180.9 41.8 180.0 40.7 C 180.3 40.6 180.3 40.3 179.9 39.6 C 179.4 39.5 178.0 38.8 177.5 38.1 C 178.1 38.7 177.6 37.6 177.1 37.1 C 177.2 37.8 174.3 33.8 175.0 35.1 C 173.6 33.7 173.0 33.0 173.1 32.9 C 172.5 32.4 172.0 32.1 171.4 31.7 C 171.3 31.0 168.1 29.0 167.8 28.5 C 168.8 29.4 169.3 29.2 168.4 28.6 C 167.6 28.3 164.5 26.4 164.0 26.0 C 164.3 26.0 164.7 25.9 166.2 26.9 C 163.8 25.1 163.4 25.5 162.4 25.2 C 162.7 24.9 161.3 24.5 160.9 24.3 C 160.2 23.6 161.0 24.2 161.1 24.0 C 160.2 23.4 159.9 23.0 158.6 22.3 C 158.8 22.8 157.4 21.8 156.9 21.5 C 156.6 21.6 155.8 21.3 154.5 20.7 C 156.5 21.1 147.2 16.9 149.4 18.2 C 147.4 17.6 147.6 17.0 145.1 16.1 C 144.5 16.1 143.1 15.5 144.4 16.2 C 142.3 15.5 143.7 15.6 141.1 14.9 C 142.1 15.6 138.5 14.0 139.0 14.6 C 138.0 13.8 135.7 13.8 133.5 12.8 C 133.5 12.9 132.8 12.8 132.7 12.8 C 132.3 12.9 135.4 13.7 133.4 13.3 C 131.0 12.5 132.3 12.7 132.0 12.4 C 125.3 11.0 116.6 9.6 108.2 9.1 C 109.2 9.3 109.1 9.4 107.3 9.4 C 104.9 8.7 94.7 9.1 93.3 9.4 C 92.4 9.1 87.9 10.0 87.0 9.9 C 87.9 9.8 89.6 9.2 87.7 9.5 C 86.6 10.0 85.0 10.0 83.3 10.6 C 82.3 10.4 77.2 12.0 79.4 10.8 C 78.4 11.0 77.8 11.1 77.2 11.2 C 77.3 11.6 76.2 11.8 78.1 11.5 C 73.3 12.5 72.3 13.2 68.9 14.2 C 68.4 14.6 71.0 13.8 69.0 14.6 C 69.0 14.5 69.0 14.5 69.0 14.4 C 68.2 14.7 68.0 14.9 67.7 14.9 C 67.7 14.7 68.9 14.3 68.8 13.9 C 67.2 14.7 65.9 14.7 65.5 15.3 C 67.7 14.4 66.4 15.5 65.0 15.8 C 66.1 15.1 59.9 18.2 58.1 19.4 C 57.0 19.6 60.2 18.2 59.8 18.2 C 56.3 20.1 56.5 19.9 56.3 20.4 C 54.4 21.4 53.6 21.7 51.6 23.2 C 50.3 23.9 52.2 22.5 50.9 23.4 C 50.2 24.0 50.0 24.3 48.9 25.2 C 45.6 26.7 39.9 32.9 36.5 35.0 C 37.7 34.0 36.4 35.6 35.0 37.1 C 34.8 37.1 34.8 36.8 34.3 37.4 C 34.6 37.4 34.2 38.0 33.2 39.0 C 33.1 39.0 33.1 38.7 32.6 39.2 C 32.5 39.9 31.1 40.9 30.7 41.8 C 30.1 41.9 32.0 39.9 32.0 39.6 C 29.7 41.9 29.6 42.6 28.0 44.4 C 28.8 43.4 27.2 44.9 26.9 45.1 C 27.6 44.9 26.5 46.5 27.5 45.6 C 26.9 46.3 26.2 47.4 26.0 47.5 C 26.2 47.1 26.7 46.5 26.6 46.4 C 26.0 47.3 24.9 48.3 24.8 48.9 C 25.3 48.3 25.6 48.0 25.8 48.1 C 25.7 48.4 25.6 48.7 25.3 49.2 C 25.7 47.4 23.2 51.7 23.2 52.0 C 22.5 52.1 22.4 52.4 22.3 52.1 C 21.1 53.8 21.6 53.8 21.1 54.8 C 20.9 54.3 20.9 53.9 19.8 55.3 C 20.4 55.2 19.2 57.1 19.9 56.7 C 17.7 60.8 16.9 61.4 15.9 63.8 C 15.9 63.9 16.3 63.2 16.0 63.9 C 15.4 64.9 14.9 65.8 14.4 66.5 C 14.4 67.1 14.8 66.4 14.6 67.1 C 13.6 68.6 13.4 68.1 12.6 69.4 C 12.2 71.3 12.3 70.6 12.2 71.8 C 12.4 71.3 12.7 70.8 12.5 71.4 C 11.9 72.4 11.4 72.7 11.3 72.9 C 11.5 72.1 11.8 71.6 12.0 71.2 C 11.9 70.9 12.3 69.8 11.8 70.6 C 12.2 69.6 12.8 68.3 13.5 66.6 C 12.9 67.0 14.1 65.1 13.5 65.5 C 12.7 67.5 12.3 67.8 11.7 69.6 C 12.2 69.3 11.3 71.1 11.2 71.4 C 11.3 71.5 10.9 72.6 11.2 72.4 C 10.8 73.7 10.6 73.6 10.3 74.9 C 10.2 74.9 10.1 74.7 9.9 75.2 C 10.1 75.7 9.6 76.0 9.5 76.4 C 9.9 76.2 9.2 77.9 9.4 78.1 C 9.6 77.6 9.7 77.0 9.8 76.9 C 9.3 78.8 10.0 77.4 10.3 77.0 C 10.2 77.1 10.0 76.3 10.2 76.2 C 10.0 77.9 11.4 74.0 10.9 75.5 C 10.4 76.7 10.7 76.7 10.3 77.9 C 9.4 79.2 9.5 77.4 8.8 78.7 C 8.8 79.7 8.7 80.2 8.9 80.3 C 8.8 80.5 8.6 80.7 8.5 81.0 C 8.6 81.4 9.0 80.0 8.9 81.0 C 8.7 81.6 8.4 80.9 8.3 82.0 C 8.5 82.5 8.9 80.7 8.8 81.8 C 8.2 82.8 9.0 81.6 8.9 82.8 C 8.8 82.9 8.7 83.0 8.7 83.4 C 8.5 83.5 8.3 83.3 8.2 83.7 C 8.7 84.0 8.0 84.1 8.0 85.1 C 8.3 85.6 8.3 84.1 8.6 84.4 C 8.1 85.4 8.5 86.2 8.4 86.6 C 8.2 85.6 8.0 88.1 7.7 88.1 C 8.1 87.9 7.9 88.4 8.1 89.8 C 7.5 89.9 7.8 91.6 7.4 91.9 C 7.5 92.1 7.6 92.6 7.7 92.8 C 7.8 92.3 7.8 91.8 8.0 92.0 C 7.9 92.4 7.9 92.8 7.9 93.3 C 7.6 94.0 7.1 92.0 7.0 95.1 C 7.4 94.8 7.4 96.1 7.5 97.0 C 7.9 96.9 7.6 95.7 7.8 95.6 C 8.0 96.7 7.6 97.8 7.5 98.5 C 7.6 100.4 7.4 102.8 7.6 105.8 C 7.3 106.5 7.3 103.3 7.1 105.3 C 7.2 106.1 7.4 105.7 7.4 106.9 C 6.0 105.8 7.6 115.4 7.2 116.1 C 7.5 116.4 7.6 119.3 8.0 118.9 C 7.4 117.1 7.7 115.7 7.8 114.8 C 7.5 113.1 7.7 116.4 7.4 114.8 C 7.6 114.6 7.3 112.3 7.6 112.5 C 7.8 115.0 7.8 111.2 8.2 113.0 C 8.3 115.3 9.2 119.9 8.7 118.9 C 8.8 118.8 8.7 117.8 8.5 117.7 C 8.7 120.4 9.2 121.9 9.5 123.0 C 9.5 124.2 10.8 129.0 10.4 127.8 C 10.2 128.2 9.9 124.9 9.7 125.4 C 10.5 130.4 10.8 130.5 11.5 133.9 C 11.6 132.7 13.0 137.2 12.8 136.8 C 12.5 136.9 12.5 138.0 13.5 139.9 C 13.1 139.7 13.4 140.8 13.7 141.9 C 14.2 142.2 13.6 140.9 14.0 141.1 C 14.3 142.1 14.7 143.1 15.1 144.1 C 15.0 144.2 14.8 144.1 15.1 144.8 C 15.7 145.8 17.8 149.7 17.5 149.4 C 16.3 147.9 18.5 152.3 16.9 149.7 C 17.3 150.4 17.2 150.5 17.7 151.5 C 17.9 151.4 18.0 151.4 18.1 151.3 C 19.3 153.5 18.2 152.6 19.3 154.4 C 19.5 154.5 20.0 155.3 20.2 155.5 C 19.8 154.7 19.6 154.8 19.1 153.8 C 20.1 154.6 18.3 151.7 18.7 151.7 C 19.8 153.8 19.6 153.9 19.9 154.8 C 21.6 157.2 20.8 156.1 22.5 158.8 C 22.6 158.7 22.1 158.0 22.3 158.1 C 24.4 161.3 23.7 161.3 25.6 163.3 C 25.1 162.8 23.5 161.1 24.5 162.4 C 25.7 163.8 26.3 164.0 27.9 165.8 C 27.9 166.0 27.7 165.9 28.2 166.6 C 29.0 167.2 29.2 167.1 30.0 167.7 C 30.0 168.0 31.1 168.9 31.5 169.3 C 32.0 170.1 31.0 169.2 31.8 170.1 C 33.3 171.5 34.6 171.8 36.0 173.0 C 35.7 173.2 37.3 174.4 38.8 175.5 C 38.8 175.9 42.1 178.2 44.4 179.6 C 44.0 179.1 46.4 180.6 46.0 180.0 C 44.8 179.3 44.3 178.9 44.1 178.6 C 46.7 180.2 47.3 181.2 49.7 181.9 C 50.7 182.6 52.0 183.4 54.0 184.4 C 54.3 184.4 50.5 182.5 52.6 183.4 C 52.7 183.6 53.5 183.8 54.2 184.1 C 53.9 184.2 54.3 184.4 54.7 184.7 C 55.2 185.0 56.6 185.6 57.7 186.2 C 62.0 187.7 69.6 191.2 66.2 189.4 C 72.1 191.7 68.2 190.7 72.1 192.3 C 70.2 191.1 77.0 193.6 73.7 192.1 C 79.0 194.0 78.2 194.3 76.1 193.7 C 80.7 195.5 81.5 195.4 83.3 196.3 C 81.6 195.3 87.3 197.1 84.4 196.3 C 83.4 196.3 87.5 197.5 88.2 197.9 C 87.1 197.3 88.9 197.9 86.5 196.9 C 89.0 197.7 92.2 198.6 93.8 199.4 C 96.1 199.9 97.7 200.2 96.8 200.3 C 98.6 200.7 98.0 200.5 99.3 200.9 C 99.3 200.8 98.9 200.7 98.9 200.6 C 100.8 200.9 100.6 201.1 102.0 201.2 C 101.8 201.6 102.8 201.6 103.0 201.8 C 102.5 201.8 102.0 201.7 101.4 201.6 C 101.3 201.7 101.9 201.9 101.4 201.9 C 101.3 201.8 101.1 201.7 100.8 201.6 C 102.0 202.1 98.9 201.8 100.0 201.7 C 100.0 201.7 100.0 201.8 100.3 201.8 C 100.1 201.5 100.1 201.6 100.4 201.3 C 99.7 201.3 99.1 200.8 98.8 201.1 C 98.8 201.2 99.6 201.3 99.6 201.4 C 97.7 201.3 99.3 201.0 97.4 200.7 C 96.9 200.9 97.8 201.2 98.2 201.5 C 96.6 201.1 94.8 200.6 94.2 200.3 C 92.2 199.8 94.4 200.6 92.8 200.3 C 92.1 199.9 92.2 199.7 90.6 199.2 C 88.7 198.8 91.6 199.8 89.7 199.2 C 87.7 198.4 91.4 199.4 88.1 198.2 C 88.7 198.9 84.9 197.1 85.1 197.4 C 87.3 198.1 87.1 198.5 86.2 197.9 C 81.6 195.9 77.1 195.5 70.4 192.1 C 70.4 192.2 69.2 191.8 68.9 191.8 C 74.2 194.1 80.7 196.4 81.6 197.3 C 84.9 198.3 84.4 197.8 85.0 197.9 C 88.3 199.4 87.9 199.4 85.7 199.1 C 80.1 197.3 76.9 195.9 71.6 193.7 C 68.6 192.8 71.8 193.9 72.9 194.5 C 64.8 191.2 62.9 190.5 63.2 190.9 C 63.5 191.2 65.5 192.2 62.0 190.7 C 62.2 190.7 60.8 190.0 58.7 189.1 C 58.7 189.2 55.5 187.9 55.0 187.8 C 56.4 188.4 57.1 188.7 56.7 188.7 C 54.0 187.7 53.7 187.5 53.7 187.4 C 53.7 187.3 53.9 187.2 53.9 187.1 C 54.8 187.5 57.0 188.4 58.2 188.9 C 59.4 189.4 60.2 189.6 60.5 189.6 C 58.0 188.7 54.9 187.4 54.0 187.0 C 53.1 186.6 52.2 186.2 51.4 186.0 C 49.4 184.7 53.0 185.8 51.9 185.0 C 52.4 184.9 50.1 185.0 48.4 184.3 C 45.7 182.9 45.5 183.1 43.2 181.7 C 42.7 181.1 45.6 183.0 45.5 182.6 C 44.8 182.2 44.7 182.1 44.1 181.7 C 42.4 180.7 42.4 181.1 41.1 180.3 C 40.6 179.6 40.1 179.5 39.2 179.0 C 37.8 177.9 40.1 179.4 38.6 178.3 C 37.1 177.1 35.8 176.6 35.3 176.2 C 35.3 176.0 35.6 176.1 34.9 175.5 C 33.1 174.3 32.7 174.0 34.7 175.8 C 32.8 174.3 32.0 173.7 32.1 174.2 C 34.7 176.5 35.6 177.0 36.7 178.4 C 37.4 178.5 38.2 179.3 39.3 180.2 C 38.9 179.3 40.7 181.1 41.5 181.3 C 40.7 180.7 40.0 180.2 39.6 179.8 C 42.9 182.0 42.8 182.0 46.1 183.3 C 46.0 183.4 46.3 183.7 46.7 183.9 C 45.7 183.5 43.1 182.0 42.9 182.1 C 44.7 183.7 45.7 183.6 48.0 185.2 C 49.2 185.5 46.1 183.8 48.2 184.8 C 49.1 185.5 50.3 186.3 51.9 187.1 C 52.8 187.5 53.4 187.7 54.1 187.9 C 54.4 188.0 55.5 188.4 56.2 188.7 C 56.9 188.9 57.6 189.2 58.4 189.5 C 58.7 189.8 59.0 190.0 61.8 191.1 C 61.7 190.9 59.0 189.7 61.9 190.8 C 70.6 194.7 75.3 196.8 81.2 198.7 C 79.2 197.9 74.0 195.6 76.6 196.6 C 79.5 197.9 83.2 198.8 85.5 199.9 C 86.2 200.2 82.5 198.8 83.3 199.6 C 85.7 200.4 87.0 200.8 88.1 201.2 C 88.1 201.1 90.4 201.8 89.9 201.4 C 88.3 200.9 87.6 201.0 87.2 200.8 C 89.0 200.5 93.2 202.9 95.4 203.5 C 97.0 203.7 94.5 202.9 96.1 203.2 C 97.2 203.4 97.6 204.2 96.0 203.9 C 94.9 203.5 94.3 203.8 94.1 203.4 C 93.6 203.2 92.8 203.0 92.8 203.1 C 93.7 203.4 93.4 203.5 94.0 203.7 C 92.7 203.3 92.3 203.9 91.1 203.1 C 92.0 203.4 92.3 203.4 92.7 203.4 C 88.8 202.4 87.2 201.5 84.1 200.4 C 85.8 201.1 84.0 200.5 84.0 200.8 C 86.4 201.5 90.2 202.9 87.8 202.2 C 86.3 201.3 84.6 201.8 82.9 200.8 C 84.3 201.3 84.2 201.0 84.9 201.2 C 82.9 200.5 83.1 200.3 80.8 199.4 C 77.1 198.4 73.4 196.9 68.4 194.9 C 65.9 193.9 63.1 192.7 59.6 191.3 C 58.7 191.0 57.8 190.6 56.8 190.2 C 56.3 190.0 55.8 189.8 55.3 189.6 C 54.8 189.4 53.9 189.1 53.7 189.0 C 52.7 188.6 51.7 188.3 50.6 187.9 C 47.7 186.5 53.4 188.9 53.2 188.6 C 52.3 188.2 52.2 188.1 51.6 187.8 C 51.4 188.1 50.1 187.1 49.0 186.9 C 49.3 186.7 45.4 185.0 43.8 183.8 C 43.7 183.9 43.8 184.2 42.9 183.7 C 37.8 180.2 29.4 174.0 26.8 170.8 C 26.7 171.1 25.5 169.7 25.0 169.5 C 23.3 167.5 24.2 168.2 21.7 165.5 C 20.5 164.1 22.1 165.6 22.3 165.9 C 18.7 161.6 16.6 157.4 14.7 154.7 C 13.7 153.2 14.8 154.6 13.3 151.4 C 12.9 151.6 11.3 146.4 10.6 145.9 C 9.7 144.0 9.1 140.4 9.2 142.1 C 8.3 139.5 9.3 141.1 8.9 140.0 C 8.3 138.2 8.4 140.8 7.8 139.0 C 8.2 139.1 7.6 137.6 7.5 136.3 C 7.9 137.8 8.2 138.7 8.5 138.8 C 7.9 137.6 8.1 137.6 7.5 135.7 C 6.9 134.2 5.7 130.0 5.9 128.7 C 5.7 128.7 5.7 129.0 5.7 129.4 C 5.4 128.1 5.5 126.6 5.1 126.9 C 4.6 124.0 4.8 122.8 4.2 121.3 C 3.9 120.1 4.5 121.6 4.1 118.1 C 3.8 118.1 3.3 112.0 3.5 110.4 C 3.1 110.4 3.5 110.0 3.5 109.3 C 3.3 109.2 3.2 109.4 3.1 108.7 C 3.3 108.6 3.2 108.1 3.1 107.6 C 3.6 108.0 2.9 105.5 3.2 105.4 C 3.3 105.8 3.5 105.8 3.5 105.3 C 3.2 105.2 3.7 102.9 3.4 103.2 C 3.3 103.6 3.4 105.2 3.1 104.8 C 3.0 102.6 3.4 103.5 3.4 102.1 C 3.3 102.2 3.2 103.0 3.1 102.1 C 3.2 100.6 3.2 101.9 3.4 101.0 C 3.4 100.3 3.2 98.9 3.2 98.4 C 3.2 98.5 3.4 98.1 3.4 97.9 C 3.6 95.3 3.6 89.9 4.2 87.9 C 4.0 87.7 4.0 87.2 3.8 87.4 C 4.1 86.2 4.0 86.3 4.2 85.1 C 4.1 85.1 3.9 85.1 3.8 85.1 C 3.8 83.6 4.2 84.9 4.3 84.0 C 3.6 83.8 4.6 83.5 4.6 82.6 C 4.5 82.5 4.5 82.1 4.3 82.2 C 4.5 80.8 4.9 80.9 5.0 79.6 C 4.9 79.9 3.9 79.9 3.7 79.7 C 3.9 79.5 4.0 79.1 4.2 78.5 C 4.4 79.3 5.5 79.2 5.7 77.2 C 5.4 78.3 5.3 78.6 5.1 78.3 C 5.4 76.9 5.7 76.4 6.1 75.0 C 5.9 74.7 5.6 75.7 5.3 75.3 C 5.4 74.9 5.4 74.7 5.2 74.8 C 5.7 73.4 5.9 73.4 6.3 71.7 C 6.5 71.8 6.4 72.1 6.1 72.7 C 6.3 72.6 6.6 72.7 6.3 73.7 C 6.1 73.7 5.9 73.1 5.6 74.4 C 5.8 74.5 6.0 74.5 6.1 74.6 C 6.4 73.6 7.4 71.3 7.3 71.1 C 7.1 71.5 6.7 72.3 6.6 71.8 C 7.2 70.1 7.7 69.7 8.4 68.3 C 9.3 65.7 11.6 61.0 10.9 61.4 C 11.8 59.8 11.5 60.4 12.3 59.0 C 11.8 59.3 13.1 57.2 12.8 57.3 C 11.9 59.1 12.1 58.6 11.3 60.4 C 11.2 60.2 11.2 59.9 11.4 59.1 C 11.7 59.1 12.1 58.4 12.7 57.2 C 12.5 57.4 11.6 58.3 12.3 57.0 C 12.4 57.0 12.6 56.7 12.9 56.1 C 13.1 56.2 13.2 56.2 13.4 56.3 C 13.1 57.1 12.7 57.9 12.6 58.5 C 12.8 58.0 12.9 57.9 13.2 57.5 C 13.2 57.1 14.5 55.1 14.4 54.9 C 14.0 55.7 13.5 56.2 14.0 55.3 C 14.1 55.2 15.0 53.8 15.1 53.2 C 13.9 55.0 14.3 54.2 13.5 55.0 C 14.6 52.9 14.8 53.5 16.1 51.0 C 16.3 51.1 16.5 51.2 16.3 51.9 C 17.7 50.7 19.5 46.9 20.4 45.8 C 19.8 46.6 19.5 47.7 20.4 46.5 C 20.3 46.4 20.9 45.5 21.0 45.3 C 20.8 44.6 19.8 45.5 18.9 46.2 C 19.6 45.3 19.6 45.0 20.3 44.1 C 20.6 43.9 20.3 45.1 21.2 44.0 C 21.0 43.5 22.8 41.8 22.8 41.2 C 22.2 42.0 21.6 42.5 22.2 41.6 C 22.3 41.9 23.5 40.1 23.7 40.2 C 22.7 41.6 22.7 42.1 22.0 43.0 C 22.9 42.0 21.6 43.9 23.0 42.2 C 23.5 41.3 23.5 40.7 25.1 38.8 C 25.7 38.1 25.4 39.0 26.2 38.1 C 25.8 38.1 27.4 36.0 26.6 37.4 C 27.2 36.8 27.6 36.4 27.9 36.0 C 26.9 36.8 30.9 31.9 30.0 32.4 C 30.3 32.7 30.8 32.7 31.1 32.6 C 31.7 31.4 32.9 30.6 35.5 28.1 C 35.1 28.0 35.8 27.7 36.9 26.7 C 37.0 26.4 36.0 27.2 36.7 26.5 C 38.1 25.5 38.1 25.4 38.5 25.3 C 39.4 24.5 40.2 23.9 40.7 23.6 C 40.7 23.4 40.3 23.6 40.0 23.8 C 43.9 21.0 45.7 19.2 49.3 17.0 C 47.7 17.8 47.7 18.5 48.8 17.7 C 49.5 17.1 50.2 16.7 50.5 16.3 C 49.5 16.6 50.0 16.5 51.8 15.5 C 53.3 14.4 50.9 15.4 52.1 14.7 C 53.6 14.0 52.8 14.6 53.6 14.2 C 54.3 13.9 55.0 13.5 55.6 13.2 C 54.3 13.7 55.6 12.8 56.7 12.1 C 56.0 12.9 56.6 12.6 58.9 11.4 C 59.2 11.4 58.0 12.1 59.0 11.6 C 59.6 11.4 61.3 10.1 63.1 9.7 C 62.5 9.9 62.3 10.1 62.5 10.1 C 64.2 9.1 65.9 8.9 67.6 8.4 C 65.8 8.8 66.6 8.2 65.9 8.3 C 67.6 7.9 69.6 6.9 71.1 6.8 C 68.5 7.5 71.2 7.4 72.8 6.9 C 73.1 6.5 70.4 7.4 71.1 6.8 C 71.9 6.3 74.0 6.1 74.9 5.6 C 74.7 5.4 73.7 6.0 73.3 5.9 C 74.8 5.5 72.8 5.9 74.0 5.5 C 74.9 5.6 75.6 4.9 76.4 4.8 C 77.4 4.6 79.5 4.6 80.4 4.1 C 80.3 4.0 78.9 4.4 78.8 4.3 C 83.1 3.1 84.5 3.4 88.6 2.5 C 89.1 2.6 89.9 2.6 91.2 2.6 C 91.1 2.4 91.8 2.3 92.8 2.2 C 94.7 2.2 96.7 2.3 99.2 2.3 C 98.8 2.6 97.6 2.7 101.1 2.7 C 101.3 2.6 99.8 2.5 101.1 2.5 C 101.1 2.5 101.9 2.6 102.1 2.5 C 102.1 2.4 102.1 2.4 102.1 2.3 C 101.1 2.3 100.2 2.3 99.2 2.3 C 99.3 2.1 99.1 2.0 98.3 1.9 C 102.5 1.7 102.2 2.3 104.8 2.1 C 105.2 2.6 106.1 2.7 103.9 3.0 C 106.2 3.0 107.8 2.9 108.4 2.6 C 105.7 2.6 106.6 2.2 105.8 2.0 C 107.6 2.1 107.6 2.0 108.5 1.9 C 110.5 2.2 106.4 2.4 110.3 2.6 C 107.3 2.1 112.7 2.5 114.7 2.7 C 114.4 2.6 113.7 2.5 114.7 2.4 C 119.9 2.7 119.3 3.8 122.3 3.6 C 122.1 3.8 123.4 4.0 124.0 4.2 C 121.6 3.9 120.9 3.9 119.8 3.8 C 120.0 3.9 120.7 4.1 121.4 4.2 C 121.5 4.0 122.1 4.1 123.1 4.4 C 123.9 4.3 123.7 3.8 125.7 3.8 C 125.8 4.0 125.6 4.1 126.5 4.3 C 127.4 4.2 125.8 4.6 129.6 5.3 C 129.0 5.0 128.6 4.8 128.9 4.7 C 130.8 4.9 130.4 4.9 132.9 5.4 C 133.7 6.1 131.1 5.6 130.3 5.7 C 132.0 6.0 133.5 6.0 135.0 6.6 C 133.8 6.2 135.1 6.2 136.6 6.5 C 137.9 6.9 136.4 6.9 138.0 7.4 C 139.3 7.6 140.0 7.6 138.9 7.1 C 141.6 8.0 141.0 7.5 143.2 8.2 C 143.3 8.4 142.6 8.2 141.8 7.9 C 141.9 8.0 141.6 8.1 142.4 8.4 C 144.0 8.6 147.1 9.7 148.8 10.1 C 151.6 11.8 155.2 12.6 157.8 14.1 C 156.5 13.8 161.3 15.9 162.3 16.9 C 163.1 17.3 165.8 18.1 164.8 17.8 C 164.8 18.3 166.3 19.0 167.3 19.8 C 167.4 19.7 167.4 19.7 167.5 19.6 C 169.9 21.0 170.1 21.7 170.7 22.4 C 173.5 24.1 176.0 26.6 178.9 28.9 C 179.3 29.7 180.0 30.2 181.2 31.9 C 181.4 31.6 182.6 32.8 183.5 33.9 C 183.5 33.5 184.4 34.6 184.5 34.5 C 183.7 33.4 184.3 33.6 183.9 33.0 C 184.9 34.5 185.9 34.8 186.5 36.1 C 185.3 34.8 184.7 34.7 184.2 34.8 C 185.6 36.3 186.1 37.2 186.1 37.7 C 186.4 37.7 186.4 37.4 186.2 37.0 C 186.6 37.5 187.0 38.0 187.3 38.5 C 187.3 38.8 186.7 38.1 187.1 38.7 C 187.5 39.0 187.8 39.4 188.2 39.7 C 188.2 40.3 187.6 39.2 187.3 39.2 C 188.7 41.3 188.6 40.1 189.4 41.1 C 189.4 41.6 189.1 41.7 189.6 42.6 C 190.0 42.9 190.3 42.9 190.9 43.9 C 191.2 44.6 190.5 44.1 190.8 44.9 C 191.0 45.0 191.1 45.3 191.2 45.7 C 191.4 45.6 191.6 45.9 191.9 46.3 C 191.8 46.5 192.2 47.2 192.4 47.5 C 192.3 47.6 192.4 49.0 192.7 49.1 C 192.8 49.1 192.5 48.4 192.6 48.3 C 192.9 49.2 193.2 49.8 193.4 50.2 C 192.8 50.7 193.8 52.0 193.8 53.3 C 194.2 54.0 194.2 52.9 194.7 53.9 C 194.6 54.6 194.3 53.9 194.1 54.1 C 194.1 54.3 194.1 55.3 194.4 55.3 C 194.5 55.3 194.3 54.7 194.4 54.7 C 194.9 55.4 194.5 55.5 194.5 56.0 C 194.8 55.8 195.0 56.4 195.2 56.5 C 196.0 58.9 195.5 59.1 195.5 60.3 C 195.6 60.3 195.7 61.0 195.9 61.1 C 195.6 60.3 195.6 59.1 195.9 60.2 C 195.7 60.1 196.2 61.8 196.4 61.9 C 196.5 61.6 196.1 60.6 196.5 60.9 C 197.0 62.5 196.3 61.9 196.8 63.1 C 196.7 63.3 196.5 62.6 196.3 62.3 C 196.4 62.8 196.6 63.5 196.5 63.6 C 196.3 63.0 196.1 63.1 195.9 62.8 C 196.3 63.6 196.4 65.2 196.5 64.1 C 196.8 65.9 197.4 67.7 197.4 66.3 C 197.8 67.8 197.2 67.0 197.7 68.3 C 197.3 68.1 197.1 67.8 197.0 68.9 C 197.2 69.0 197.5 69.9 197.7 69.8 C 198.2 72.2 198.0 73.0 197.9 74.1 C 198.2 73.0 198.0 74.3 198.5 75.6 C 198.6 76.4 198.0 75.7 198.5 77.9 C 198.6 75.4 199.0 80.6 199.4 79.5 C 199.6 82.4 199.6 82.3 199.9 85.4 C 199.6 85.2 199.4 84.4 199.2 83.1 C 199.6 84.0 199.1 80.5 198.9 80.7 C 198.9 80.7 198.8 80.8 198.7 80.8 C 199.1 83.0 199.2 84.5 199.2 85.5 C 199.4 86.0 199.7 87.0 200.0 86.6 C 199.8 88.9 200.6 91.2 200.4 92.3 C 200.3 91.5 200.2 90.7 200.0 91.0 C 200.2 91.9 200.4 93.0 200.6 92.9 C 200.5 91.0 200.5 90.6 200.2 89.7 C 200.5 90.5 200.5 87.9 200.7 89.7 C 200.2 89.7 201.3 93.4 200.8 92.2 C 200.5 90.2 200.8 94.5 200.6 94.7 C 200.6 94.7 200.6 94.7 200.6 94.7 Z M 81.9 199.8 C 85.3 200.8 81.4 199.2 78.7 198.3 C 79.5 198.6 79.8 198.9 79.7 199.0 C 80.8 199.4 81.7 199.6 81.9 199.8 C 81.9 199.8 81.9 199.8 81.9 199.8 Z M 45.9 180.2 C 45.0 180.1 48.7 181.9 50.2 182.7 C 49.8 182.4 49.3 182.0 50.3 182.5 C 48.8 181.5 47.9 181.6 45.9 180.2 C 45.9 180.2 45.9 180.2 45.9 180.2 Z M 7.5 119.0 C 7.6 119.5 7.8 120.6 7.7 120.7 C 7.8 121.4 7.9 121.2 8.1 121.3 C 8.3 122.7 7.6 121.1 8.0 123.2 C 8.8 123.9 8.2 119.4 7.5 119.0 C 7.5 119.0 7.5 119.0 7.5 119.0 Z M 193.3 73.2 C 193.2 74.0 192.7 72.3 192.5 72.8 C 193.2 75.6 193.2 73.3 193.8 77.4 C 193.8 77.2 193.9 76.8 194.0 76.9 C 193.6 74.9 193.3 74.9 193.9 75.2 C 193.8 74.3 193.1 74.3 193.3 73.2 C 193.3 73.2 193.3 73.2 193.3 73.2 Z M 194.8 117.0 C 194.9 116.7 195.0 116.4 195.1 116.4 C 195.1 114.8 195.0 115.1 195.2 113.1 C 194.8 113.3 194.7 115.3 194.8 117.0 C 194.8 117.0 194.8 117.0 194.8 117.0 Z M 89.3 191.4 C 88.8 191.4 88.3 191.3 87.8 191.3 C 88.1 191.5 86.7 191.8 89.2 191.9 C 89.4 191.8 89.0 191.8 88.5 191.8 C 89.0 191.7 90.2 191.8 90.0 191.6 C 89.3 191.5 89.3 191.5 89.3 191.4 C 89.3 191.4 89.3 191.4 89.3 191.4 Z M 47.7 182.5 C 48.8 182.7 46.7 180.8 47.7 182.5 C 47.7 182.5 47.7 182.5 47.7 182.5 C 47.7 182.5 47.7 182.5 47.7 182.5 Z M 48.4 186.8 C 48.4 186.9 48.7 187.0 48.8 187.0 C 49.8 187.6 48.7 187.2 49.2 187.6 C 50.3 187.9 49.0 186.9 50.3 187.4 C 50.1 187.1 49.1 187.1 48.4 186.8 C 48.4 186.8 48.4 186.8 48.4 186.8 Z M 119.0 3.4 C 116.6 3.2 115.9 3.4 115.5 3.7 C 117.1 3.9 118.4 4.1 118.8 4.3 C 121.8 4.4 116.9 3.8 116.4 3.7 C 116.7 3.5 118.9 3.7 119.0 3.4 C 119.0 3.4 119.0 3.4 119.0 3.4 Z M 111.1 2.8 C 110.1 2.9 108.5 2.9 108.4 3.1 C 110.0 3.2 110.2 3.3 110.2 3.4 C 111.6 3.3 109.9 3.0 111.1 2.8 C 111.1 2.8 111.1 2.8 111.1 2.8 Z M 125.5 4.7 C 124.5 4.6 124.9 4.9 124.7 5.0 C 126.2 5.2 126.4 5.4 127.9 5.6 C 127.9 5.5 127.9 5.4 127.9 5.3 C 126.7 5.1 126.6 5.2 125.5 5.0 C 125.5 4.9 125.5 4.8 125.5 4.7 C 125.5 4.7 125.5 4.7 125.5 4.7 Z M 103.0 2.9 C 98.1 2.8 95.8 3.4 92.9 4.0 C 96.2 3.8 99.5 3.1 102.0 3.3 C 105.1 3.2 101.0 3.1 101.1 3.0 C 101.2 2.9 102.3 2.9 103.0 2.9 C 103.0 2.9 103.0 2.9 103.0 2.9 Z M 65.4 9.3 C 64.6 9.4 63.4 10.4 61.3 11.3 C 61.7 11.2 62.1 11.1 62.2 11.3 C 65.2 10.0 63.2 10.2 65.4 9.3 C 65.4 9.3 65.4 9.3 65.4 9.3 Z M 49.1 18.1 C 47.5 19.1 50.0 17.7 49.3 18.4 C 51.1 17.2 53.1 16.1 52.8 15.9 C 51.0 17.2 50.6 17.5 49.1 18.1 C 49.1 18.1 49.1 18.1 49.1 18.1 Z M 38.9 25.8 C 37.4 27.2 39.8 25.5 39.3 26.3 C 40.0 25.8 39.7 25.8 39.7 25.6 C 40.2 25.3 40.6 25.0 41.4 24.4 C 40.7 24.6 38.9 26.2 38.9 25.8 C 38.9 25.8 38.9 25.8 38.9 25.8 Z M 168.3 21.6 C 167.3 21.1 167.5 21.5 165.6 20.2 C 168.5 22.1 166.5 21.8 170.1 24.2 C 169.6 23.7 170.1 23.9 170.2 24.2 C 171.6 25.0 169.0 23.1 170.5 23.8 C 169.5 23.1 169.8 23.7 168.8 23.1 C 167.9 22.1 167.4 21.5 168.3 21.6 C 168.3 21.6 168.3 21.6 168.3 21.6 Z M 169.9 24.5 C 170.8 25.3 171.2 24.8 171.5 25.4 C 171.9 25.7 171.9 25.5 172.0 25.5 C 171.7 25.3 171.6 25.2 171.6 25.1 C 170.8 24.6 169.9 24.1 169.9 24.5 C 169.9 24.5 169.9 24.5 169.9 24.5 Z M 160.0 18.3 C 162.0 19.2 162.4 19.7 163.5 20.0 C 163.9 20.8 164.8 20.6 165.5 21.5 C 167.2 22.5 166.1 21.6 165.7 21.1 C 167.4 22.1 165.9 21.6 167.6 22.6 C 168.1 22.5 166.0 21.3 166.4 21.1 C 165.2 20.3 165.0 20.5 164.2 20.1 C 163.5 19.7 163.8 19.6 163.8 19.5 C 162.2 18.6 162.4 18.5 161.1 17.8 C 160.6 17.9 161.1 18.3 162.6 19.0 C 161.1 18.3 160.3 18.1 158.6 17.0 C 160.0 17.4 154.1 14.4 154.3 15.1 C 156.0 15.9 155.6 15.5 156.3 15.7 C 158.3 17.0 159.5 17.6 160.0 18.3 C 160.0 18.3 160.0 18.3 160.0 18.3 Z M 126.2 5.9 C 125.5 5.7 124.9 5.5 123.8 5.3 C 123.8 5.1 125.2 5.4 123.9 5.0 C 122.1 4.6 121.7 4.7 120.6 4.6 C 121.2 4.8 124.8 5.7 122.9 5.5 C 123.4 5.7 124.6 6.0 126.1 6.2 C 124.4 5.5 128.5 6.6 130.1 7.0 C 130.0 6.5 132.7 7.7 133.9 7.7 C 133.1 7.2 129.9 6.7 128.5 6.5 C 129.2 6.6 124.7 5.1 126.2 5.9 C 126.2 5.9 126.2 5.9 126.2 5.9 Z M 173.7 27.1 C 174.0 27.2 175.0 28.0 174.3 27.3 C 174.7 27.6 175.4 28.4 175.4 27.7 C 175.8 28.1 176.2 28.5 176.6 28.8 C 176.4 28.8 175.3 27.8 175.5 28.4 C 176.5 29.0 176.1 28.9 177.2 29.8 C 176.4 29.5 177.0 30.1 176.3 30.0 C 176.7 30.2 177.7 31.1 177.8 30.8 C 179.2 32.2 177.1 30.7 179.0 32.6 C 178.8 32.7 177.4 31.4 177.0 30.8 C 176.6 30.8 179.3 33.2 180.5 34.6 C 179.6 33.2 180.7 34.0 181.5 34.4 C 181.8 34.9 181.3 34.6 181.8 35.4 C 182.4 36.1 182.8 36.3 182.8 36.6 C 183.3 37.0 183.2 36.7 183.4 36.7 C 184.1 37.6 183.3 37.2 184.3 38.4 C 183.9 37.2 184.9 38.2 186.0 40.0 C 186.0 39.9 185.7 39.3 185.7 39.1 C 186.1 39.3 186.5 40.5 186.5 40.8 C 187.0 41.4 186.9 40.9 186.5 40.3 C 186.8 40.6 187.1 40.9 187.5 41.3 C 186.3 39.4 184.1 36.5 181.1 32.7 C 181.5 33.5 180.8 32.8 179.8 31.7 C 179.8 31.4 180.3 31.9 180.7 32.3 C 179.8 30.9 179.4 31.5 177.5 29.5 C 176.5 28.4 178.9 30.5 177.8 29.2 C 177.0 28.6 176.3 28.3 176.2 27.7 C 174.7 26.7 174.1 26.6 171.8 24.9 C 173.0 26.0 173.2 27.0 174.5 27.9 C 174.6 27.8 174.0 27.4 173.7 27.1 C 173.7 27.1 173.7 27.1 173.7 27.1 Z M 110.2 3.6 C 108.7 3.5 107.9 3.7 107.5 3.5 C 104.8 3.5 107.9 3.8 108.4 3.9 C 109.6 3.9 110.0 3.8 110.2 3.6 C 110.2 3.6 110.2 3.6 110.2 3.6 Z M 6.1 127.3 C 6.5 129.7 6.8 129.1 7.2 131.0 C 6.9 129.5 7.1 129.1 6.6 126.6 C 6.3 126.5 6.1 126.6 6.1 127.3 C 6.1 127.3 6.1 127.3 6.1 127.3 Z M 118.8 4.6 C 120.9 4.5 116.3 4.7 116.3 4.4 C 113.9 4.4 118.5 4.8 116.3 4.9 C 118.4 4.9 119.6 5.3 122.1 5.5 C 122.0 5.3 120.0 5.0 118.0 4.8 C 117.7 4.6 118.8 4.7 118.8 4.6 C 118.8 4.6 118.8 4.6 118.8 4.6 Z M 4.7 104.2 C 4.5 102.8 4.2 105.5 4.1 106.4 C 4.5 106.5 4.4 106.0 4.7 104.2 C 4.7 104.2 4.7 104.2 4.7 104.2 Z M 11.1 143.5 C 11.8 144.3 10.1 140.7 10.8 141.5 C 10.5 140.4 10.3 140.3 10.2 140.3 C 10.1 139.7 9.5 138.0 9.9 138.4 C 10.0 138.0 10.8 141.2 10.8 140.1 C 11.1 141.1 11.0 141.2 11.3 142.0 C 10.7 140.2 10.7 141.1 11.4 143.4 C 11.7 143.3 11.2 142.3 11.8 143.3 C 11.7 143.4 11.9 144.7 11.5 144.8 C 12.3 146.7 12.3 145.4 13.3 147.7 C 13.4 147.4 12.7 146.0 12.5 145.1 C 12.9 145.2 13.3 147.6 13.4 146.9 C 13.4 147.4 13.9 148.8 13.6 149.0 C 12.7 147.3 12.1 146.2 11.3 144.8 C 11.7 146.3 13.1 147.9 13.9 150.3 C 14.0 150.0 14.7 151.4 14.7 150.8 C 15.5 152.6 14.8 151.9 14.5 151.6 C 14.6 152.2 16.6 155.5 16.7 155.2 C 16.6 155.5 19.1 159.5 19.4 159.2 C 19.9 160.5 21.6 162.0 21.6 162.8 C 22.2 163.4 23.2 164.7 24.4 166.1 C 25.0 166.3 22.8 163.9 22.9 163.6 C 22.8 163.0 24.9 166.3 24.8 165.7 C 24.9 165.7 24.9 165.7 25.0 165.6 C 24.0 164.5 23.0 163.5 22.1 162.4 C 21.5 161.6 22.4 162.6 22.3 162.2 C 21.6 161.6 18.8 158.1 19.2 157.6 C 17.5 155.2 16.6 153.4 15.9 152.4 C 15.1 150.9 16.5 153.2 16.2 152.2 C 13.5 147.9 11.8 142.0 10.1 138.3 C 9.8 137.4 10.2 137.7 10.3 137.5 C 8.5 132.2 9.3 136.9 8.4 132.7 C 8.7 132.6 9.1 134.6 9.4 134.4 C 9.0 133.0 8.7 132.6 8.4 130.7 C 8.2 130.7 8.1 130.8 8.0 130.8 C 7.6 129.2 8.1 129.7 8.1 128.9 C 7.6 126.9 7.5 127.4 7.7 126.4 C 7.2 124.6 6.8 122.8 6.7 120.9 C 6.3 119.7 6.2 122.1 6.5 124.1 C 6.4 124.0 6.3 123.4 6.2 123.4 C 6.1 121.1 6.6 120.7 6.3 117.3 C 6.2 119.9 6.0 116.0 6.2 115.5 C 6.0 114.1 5.7 115.2 5.9 116.1 C 5.7 116.0 5.7 115.1 5.9 115.0 C 5.4 114.8 5.4 118.1 6.1 121.6 C 5.3 120.0 6.5 124.1 5.6 122.3 C 6.1 125.2 6.1 122.6 6.6 125.9 C 6.7 125.6 6.7 125.0 6.8 124.6 C 7.2 127.1 6.7 126.4 7.3 129.0 C 7.6 129.4 7.2 127.7 7.4 127.7 C 7.7 130.6 7.8 131.5 8.0 133.5 C 8.3 133.8 8.4 133.2 9.1 136.5 C 9.1 136.5 9.0 136.6 8.9 136.6 C 8.6 135.0 7.8 134.8 9.0 138.6 C 9.3 138.8 8.9 137.7 8.7 136.7 C 9.0 137.0 9.4 138.2 9.9 139.7 C 10.1 140.4 10.3 141.3 9.9 140.4 C 9.9 141.1 10.5 141.5 11.1 143.5 C 11.1 143.5 11.1 143.5 11.1 143.5 Z M 69.3 8.7 C 68.7 8.9 68.2 9.1 67.1 9.5 C 66.7 10.0 68.7 9.2 68.7 9.4 C 70.3 8.8 69.0 8.9 69.3 8.7 C 69.3 8.7 69.3 8.7 69.3 8.7 Z M 91.2 4.2 C 91.0 3.9 89.8 4.4 87.9 4.5 C 87.4 4.9 89.6 4.5 89.6 4.7 C 91.9 4.6 89.0 4.3 91.2 4.2 C 91.2 4.2 91.2 4.2 91.2 4.2 Z M 81.4 5.6 C 80.5 5.4 80.6 5.9 82.3 5.5 C 82.2 5.7 81.8 5.9 80.8 6.2 C 82.0 6.3 82.6 5.6 84.7 5.4 C 84.0 5.3 82.8 5.4 81.4 5.6 C 81.4 5.6 81.4 5.6 81.4 5.6 Z M 78.3 6.2 C 77.2 6.7 76.4 6.6 74.5 7.3 C 75.0 7.4 79.3 6.2 79.9 6.0 C 80.6 5.6 75.9 6.6 78.3 6.2 C 78.3 6.2 78.3 6.2 78.3 6.2 Z M 6.0 85.6 C 5.9 86.0 6.1 85.9 6.1 86.0 C 5.6 87.2 5.5 88.9 5.2 87.5 C 5.4 88.8 4.9 90.1 4.7 91.3 C 4.6 92.3 5.0 91.8 4.9 92.7 C 4.8 94.0 4.8 91.9 4.6 92.2 C 4.4 92.4 4.9 92.8 4.6 94.5 C 5.2 94.1 4.5 95.9 5.1 95.5 C 4.8 96.4 5.0 96.7 5.0 97.9 C 5.2 97.8 5.2 96.6 5.4 96.5 C 5.8 95.9 5.2 95.8 5.2 96.9 C 4.9 96.3 5.5 94.6 5.2 94.1 C 5.6 93.5 5.2 95.6 5.6 95.0 C 5.6 94.6 5.5 94.2 5.4 94.1 C 5.5 93.4 5.7 93.0 5.8 92.7 C 5.8 93.1 5.8 93.1 5.7 93.1 C 5.6 94.0 6.2 92.3 6.1 94.1 C 6.3 93.8 6.3 93.0 6.5 93.2 C 6.7 92.7 5.6 93.1 6.1 91.4 C 5.9 90.2 5.6 94.2 5.1 93.1 C 5.3 90.6 5.7 92.0 5.9 90.1 C 5.7 90.1 5.6 90.1 5.6 89.6 C 5.5 89.7 5.5 90.4 5.4 90.9 C 5.3 90.8 5.4 90.1 5.4 89.6 C 5.3 89.7 5.3 90.0 5.2 90.0 C 5.4 88.4 6.0 88.6 6.1 90.1 C 6.4 90.1 6.5 88.1 6.4 87.6 C 6.1 88.1 6.2 87.5 5.9 88.0 C 5.8 88.3 5.9 88.3 6.0 88.4 C 5.9 89.1 5.8 88.4 5.7 88.4 C 5.8 87.5 6.1 87.6 5.9 86.8 C 6.0 87.0 6.1 87.2 6.2 87.2 C 6.3 86.8 6.3 86.4 6.3 86.0 C 6.1 86.1 6.1 85.6 6.0 85.6 C 6.0 85.6 6.0 85.6 6.0 85.6 Z M 4.6 110.9 C 4.6 112.9 4.8 111.8 4.8 110.9 C 4.9 111.3 5.0 112.0 5.1 112.7 C 5.1 112.1 5.0 111.6 5.0 109.8 C 5.5 111.3 5.9 109.7 5.8 106.9 C 5.2 106.1 5.2 108.5 4.8 107.5 C 5.1 109.6 4.9 110.7 4.6 110.9 C 4.6 110.9 4.6 110.9 4.6 110.9 Z M 108.4 4.0 C 106.6 3.9 104.8 3.9 103.0 3.9 C 103.2 4.2 108.8 4.5 108.4 4.0 C 108.4 4.0 108.4 4.0 108.4 4.0 Z M 188.1 43.0 C 188.3 43.3 188.2 43.4 188.2 43.4 C 188.9 44.5 188.1 42.8 188.6 43.2 C 188.4 42.8 188.2 42.4 187.9 42.0 C 187.8 42.0 188.6 43.7 187.8 42.6 C 187.8 42.7 188.0 43.0 188.1 43.0 C 188.1 43.0 188.1 43.0 188.1 43.0 Z M 70.9 8.5 C 69.6 9.1 70.5 9.1 67.4 10.2 C 68.6 10.0 69.2 9.7 71.0 9.0 C 71.0 8.8 70.9 8.7 70.9 8.5 C 70.9 8.5 70.9 8.5 70.9 8.5 Z M 6.1 80.2 C 5.6 81.1 6.3 81.4 5.9 83.1 C 6.4 82.3 6.0 81.3 6.1 80.2 C 6.1 80.2 6.1 80.2 6.1 80.2 Z M 28.7 170.1 C 28.0 169.3 29.0 170.2 27.8 168.8 C 27.1 168.2 26.7 168.0 25.7 166.9 C 26.8 168.6 29.6 171.1 30.4 172.5 C 31.8 173.7 31.9 173.3 32.5 173.6 C 31.8 173.0 31.5 172.7 31.5 172.5 C 30.4 172.1 29.9 170.7 28.7 170.1 C 28.7 170.1 28.7 170.1 28.7 170.1 Z M 4.8 103.7 C 5.0 102.7 5.1 104.4 5.3 104.7 C 5.3 105.5 5.1 105.2 4.9 105.3 C 5.0 106.3 5.1 106.6 5.4 106.4 C 5.4 104.6 5.4 102.4 5.8 103.7 C 5.9 101.9 5.5 102.9 5.4 102.1 C 5.6 101.1 5.7 102.0 6.0 102.1 C 6.0 101.7 5.6 100.4 6.0 100.5 C 5.7 98.0 5.1 99.1 4.6 101.0 C 4.9 102.7 5.1 100.7 4.8 103.7 C 4.8 103.7 4.8 103.7 4.8 103.7 Z M 22.3 46.3 C 22.1 46.4 21.5 47.3 21.4 47.2 C 20.8 48.4 20.5 49.5 20.1 50.7 C 20.5 50.6 21.1 49.1 20.6 49.6 C 21.0 49.3 21.8 48.4 22.4 47.9 C 23.1 46.9 22.8 46.2 23.3 46.3 C 23.9 45.2 23.5 45.8 24.7 44.2 C 22.6 46.6 25.3 43.3 25.1 42.9 C 24.0 44.4 23.1 45.6 23.5 45.6 C 22.6 46.6 21.7 47.8 21.3 47.9 C 21.2 47.7 21.9 46.9 22.3 46.3 C 22.3 46.3 22.3 46.3 22.3 46.3 Z M 19.0 52.8 C 19.2 52.4 19.4 52.0 19.8 51.3 C 19.5 51.6 19.3 51.7 19.2 51.6 C 18.4 52.8 18.4 53.2 17.9 53.5 C 17.1 54.7 18.4 53.5 17.2 55.2 C 17.4 55.1 17.9 54.2 18.0 54.3 C 17.9 54.0 18.3 53.3 19.0 52.8 C 19.0 52.8 19.0 52.8 19.0 52.8 Z M 10.8 67.6 C 10.3 68.9 11.2 67.1 11.1 67.8 C 11.2 67.4 12.3 65.2 12.4 65.6 C 13.1 65.1 13.4 62.3 13.8 62.7 C 14.1 62.2 13.8 62.3 13.8 62.1 C 13.0 63.9 12.8 63.8 13.3 62.5 C 13.1 62.7 12.7 63.7 12.4 64.4 C 12.5 64.6 12.8 63.9 12.9 64.1 C 12.1 65.5 11.5 66.4 10.8 67.6 C 10.8 67.6 10.8 67.6 10.8 67.6 Z M 198.7 91.1 C 198.6 89.6 198.4 88.7 198.3 88.0 C 198.1 88.4 198.4 89.1 198.5 89.9 C 198.3 90.1 198.2 89.4 198.1 88.6 C 197.9 89.4 198.4 91.9 198.7 91.1 C 198.7 91.1 198.7 91.1 198.7 91.1 Z M 197.2 79.2 C 197.1 77.9 196.9 77.1 196.7 77.0 C 196.6 77.5 196.8 77.3 196.9 78.1 C 197.0 78.6 196.9 78.9 196.8 79.2 C 196.9 79.8 197.0 79.7 197.1 79.8 C 197.2 80.2 197.1 80.3 197.1 80.4 C 197.6 81.9 196.8 78.6 197.2 79.2 C 197.2 79.2 197.2 79.2 197.2 79.2 Z M 14.7 59.6 C 15.1 59.2 15.4 59.0 16.0 57.8 C 15.7 57.9 16.2 56.9 16.7 56.2 C 15.8 57.2 15.6 57.9 14.7 59.6 C 14.7 59.6 14.7 59.6 14.7 59.6 Z M 176.2 30.2 C 175.1 28.9 175.0 29.4 173.2 27.7 C 173.2 27.7 173.1 27.8 173.1 27.9 C 174.3 28.6 174.7 29.2 176.2 30.2 C 176.2 30.2 176.2 30.2 176.2 30.2 Z M 63.9 191.2 C 64.1 191.0 62.4 190.6 62.4 190.4 C 61.9 190.7 61.3 189.7 58.4 188.8 C 58.4 188.7 58.6 188.7 59.0 188.8 C 56.8 187.9 59.6 189.3 59.8 189.7 C 61.6 190.3 61.9 190.6 63.9 191.2 C 63.9 191.2 63.9 191.2 63.9 191.2 Z M 17.0 152.6 C 16.9 152.6 17.0 152.9 17.2 153.3 C 17.4 153.7 17.7 154.1 17.9 154.4 C 18.1 154.1 17.2 152.1 18.4 153.4 C 18.1 152.8 18.1 152.8 18.0 152.8 C 15.7 150.4 15.9 147.5 13.8 143.9 C 13.6 143.3 13.5 143.4 13.4 143.3 C 13.6 143.8 13.6 143.9 13.6 144.0 C 14.1 144.3 15.2 147.9 14.4 146.5 C 14.3 146.6 14.6 147.1 14.6 147.1 C 14.8 147.5 15.0 147.9 15.2 148.3 C 15.2 148.0 14.8 147.2 14.9 146.9 C 15.6 148.9 16.7 151.3 15.8 150.2 C 16.4 151.4 16.7 151.7 17.3 152.5 C 17.6 153.3 17.4 153.4 17.0 152.6 C 17.0 152.6 17.0 152.6 17.0 152.6 Z M 27.4 167.3 C 28.8 169.0 28.5 168.1 30.0 169.8 C 29.2 168.6 27.7 167.6 26.7 166.0 C 26.7 166.3 27.4 167.1 27.4 167.3 C 27.4 167.3 27.4 167.3 27.4 167.3 Z M 10.0 133.0 C 10.5 133.2 10.1 131.6 9.7 129.8 C 9.3 129.5 9.6 131.1 10.0 133.0 C 10.0 133.0 10.0 133.0 10.0 133.0 Z M 12.4 140.9 C 13.2 142.7 11.7 138.6 12.4 139.6 C 12.1 138.7 11.8 137.8 11.9 137.7 C 11.6 137.1 11.5 137.1 11.1 135.9 C 11.0 136.1 11.7 138.0 11.4 137.9 C 12.0 139.2 12.1 139.4 12.4 140.9 C 12.4 140.9 12.4 140.9 12.4 140.9 Z M 12.9 142.1 C 13.4 143.3 13.3 141.6 12.8 140.1 C 12.8 140.7 12.7 141.2 12.9 142.1 C 12.9 142.1 12.9 142.1 12.9 142.1 Z M 41.9 27.2 C 41.2 27.8 41.9 27.5 41.0 28.3 C 41.1 28.4 44.2 25.8 41.7 28.0 C 42.9 27.5 43.0 26.6 44.3 25.7 C 43.8 26.0 43.5 26.1 44.1 25.6 C 44.3 25.1 41.7 27.7 41.9 27.2 C 41.9 27.2 41.9 27.2 41.9 27.2 Z M 38.8 29.8 C 38.2 30.4 38.6 30.2 38.9 29.9 C 38.9 30.1 38.0 30.8 37.5 31.3 C 37.3 31.3 38.8 30.7 38.9 30.9 C 41.3 28.5 39.1 30.0 38.8 29.8 C 38.8 29.8 38.8 29.8 38.8 29.8 Z M 36.5 32.2 C 34.8 33.6 32.7 35.8 32.0 37.0 C 33.4 36.2 36.1 33.2 36.5 32.2 C 36.5 32.2 36.5 32.2 36.5 32.2 Z M 54.5 18.6 C 50.7 20.4 44.2 25.5 50.5 21.6 C 50.2 21.5 54.2 18.8 56.4 17.7 C 56.4 17.6 58.7 16.1 58.8 16.2 C 60.4 15.1 53.5 18.9 54.5 18.6 C 54.5 18.6 54.5 18.6 54.5 18.6 Z M 30.8 39.4 C 31.3 38.5 30.0 39.1 31.3 38.0 C 31.8 37.3 31.0 38.1 31.0 37.8 C 29.7 39.3 27.4 42.7 26.9 42.7 C 26.4 43.6 26.4 44.0 25.3 45.4 C 25.3 45.5 29.2 40.0 30.6 39.2 C 30.6 39.4 29.0 41.3 30.8 39.4 C 30.8 39.4 30.8 39.4 30.8 39.4 Z M 175.0 31.5 C 175.2 31.4 173.5 30.1 174.0 30.1 C 172.9 29.6 172.1 28.7 170.9 28.1 C 170.6 27.7 171.0 27.5 169.4 26.2 C 169.2 26.4 170.1 26.9 169.2 26.5 C 167.7 25.5 168.3 25.5 166.4 24.4 C 166.5 25.0 162.5 21.9 162.6 22.6 C 163.6 23.2 163.7 23.0 165.3 24.1 C 165.8 24.4 165.5 24.4 166.1 24.9 C 165.5 24.8 164.9 23.9 164.1 23.7 C 164.1 23.9 165.3 24.7 165.4 25.0 C 166.1 25.4 165.2 24.7 165.5 24.7 C 167.5 25.9 165.0 25.2 167.1 26.5 C 166.8 26.0 166.9 26.0 167.4 26.0 C 168.1 26.7 170.6 28.2 169.1 27.6 C 169.1 27.9 170.7 28.7 170.6 28.4 C 171.4 28.9 171.4 29.1 171.3 29.2 C 173.2 30.5 173.6 30.6 173.4 30.0 C 174.0 30.1 173.9 30.7 175.0 31.5 C 175.0 31.5 175.0 31.5 175.0 31.5 Z M 76.0 9.6 C 77.6 8.9 74.1 10.2 72.4 10.7 C 74.4 10.1 73.9 10.7 76.1 10.1 C 75.3 10.2 75.4 10.1 76.8 9.7 C 77.2 9.4 73.9 10.2 76.0 9.6 C 76.0 9.6 76.0 9.6 76.0 9.6 Z M 23.1 48.4 C 22.5 48.8 21.0 51.5 20.1 52.8 C 20.6 52.8 22.2 49.1 22.9 49.0 C 23.4 48.2 22.5 49.3 23.1 48.4 C 23.1 48.4 23.1 48.4 23.1 48.4 Z M 156.9 18.8 C 156.3 18.5 156.6 18.7 156.8 18.9 C 156.6 18.9 155.4 18.2 154.5 17.8 C 155.7 18.6 154.1 17.9 154.2 18.4 C 153.5 18.0 153.2 17.9 153.0 17.9 C 153.2 17.4 149.1 16.5 152.9 18.3 C 152.3 17.7 152.6 17.8 154.2 18.4 C 155.7 19.4 157.1 19.8 157.5 20.4 C 158.5 20.9 159.0 21.0 160.3 21.7 C 160.5 22.1 161.6 22.9 160.4 22.7 C 162.7 24.1 161.6 22.5 163.4 23.6 C 165.1 24.8 162.4 23.4 162.6 23.8 C 163.1 24.1 162.9 24.1 163.0 24.3 C 163.7 24.7 163.8 24.4 163.2 24.0 C 163.4 24.1 165.3 25.0 164.6 25.0 C 165.7 25.5 163.6 23.2 161.9 22.6 C 161.1 22.1 161.4 21.6 162.2 22.2 C 162.0 21.7 159.9 21.3 160.7 21.0 C 160.0 20.6 159.3 20.2 158.5 19.8 C 158.6 20.0 159.0 20.2 158.9 20.3 C 158.3 19.9 157.5 19.5 156.7 19.1 C 157.4 19.3 157.5 19.2 156.9 18.8 C 156.9 18.8 156.9 18.8 156.9 18.8 Z M 28.0 42.0 C 27.0 43.2 26.9 43.6 26.2 44.6 C 26.7 44.4 28.7 41.6 28.0 42.0 C 28.0 42.0 28.0 42.0 28.0 42.0 Z M 180.2 38.1 C 180.2 38.0 179.6 37.4 179.7 37.3 C 180.8 38.3 179.8 37.0 181.0 37.5 C 179.6 36.2 178.6 36.2 180.1 38.3 C 181.3 39.6 179.0 36.8 180.2 38.1 C 180.2 38.1 180.2 38.1 180.2 38.1 Z M 176.4 33.7 C 175.4 33.0 177.5 35.3 177.8 35.8 C 177.8 35.9 177.7 36.0 177.6 36.0 C 179.1 36.9 177.7 35.2 179.1 35.9 C 178.0 34.4 177.4 33.7 176.0 32.6 C 176.0 32.8 176.4 33.0 176.4 33.0 C 177.3 33.9 176.4 33.6 175.5 32.5 C 175.7 32.9 176.6 33.7 177.2 34.4 C 177.0 34.2 176.9 33.9 177.0 33.8 C 177.8 34.6 177.4 34.5 177.9 35.0 C 177.8 35.1 176.3 33.9 176.4 33.7 C 176.4 33.7 176.4 33.7 176.4 33.7 Z M 195.3 128.5 C 195.5 127.1 194.6 129.8 194.2 129.6 C 193.9 131.0 193.9 131.4 193.8 132.3 C 194.1 131.9 194.4 130.3 194.7 129.7 C 195.0 130.0 194.2 131.7 194.4 132.4 C 194.6 133.3 194.9 129.0 195.3 128.5 C 195.3 128.5 195.3 128.5 195.3 128.5 Z M 124.8 9.0 C 124.0 8.8 124.4 9.0 124.8 9.1 C 124.6 9.2 123.2 8.9 123.3 8.8 C 122.0 8.6 123.9 9.1 122.5 8.9 C 122.1 9.0 124.7 9.2 124.8 9.2 C 126.5 9.4 125.1 9.6 125.5 9.8 C 127.0 10.1 126.6 9.7 128.6 10.2 C 127.4 9.7 126.3 9.4 124.8 9.0 C 124.8 9.0 124.8 9.0 124.8 9.0 Z M 182.7 40.2 C 182.9 40.3 181.7 39.7 181.1 38.6 C 180.1 37.3 181.5 39.6 180.6 38.4 C 181.3 39.4 182.4 40.4 183.5 41.8 C 183.9 42.1 182.1 39.8 183.1 41.0 C 183.2 40.9 182.9 40.6 182.9 40.6 C 182.6 40.4 182.7 40.3 182.7 40.2 C 182.7 40.2 182.7 40.2 182.7 40.2 Z M 181.0 39.2 C 181.0 39.4 181.3 39.7 181.3 39.6 C 181.7 40.1 181.4 40.3 181.1 39.8 C 181.3 40.6 181.8 40.2 182.5 41.5 C 182.3 40.8 182.3 40.5 182.9 41.7 C 183.8 42.4 181.5 39.5 181.0 39.2 C 181.0 39.2 181.0 39.2 181.0 39.2 Z M 197.0 107.3 C 196.8 107.4 196.9 108.9 196.8 109.9 C 196.6 108.6 196.8 103.3 196.9 102.7 C 196.9 102.1 196.8 101.5 196.9 101.4 C 196.8 101.4 196.6 100.0 196.6 100.7 C 196.5 100.6 196.5 99.5 196.3 99.5 C 196.3 97.6 196.6 100.1 196.7 99.5 C 196.3 97.2 196.6 97.7 196.5 95.0 C 196.2 95.5 196.5 98.4 196.1 98.2 C 196.5 100.3 196.4 102.6 196.1 104.0 C 196.5 101.9 196.8 109.6 196.5 113.2 C 196.3 113.0 196.3 114.3 196.1 115.8 C 195.7 116.8 196.4 116.5 196.4 114.5 C 196.6 114.6 196.2 117.3 196.2 118.5 C 196.5 117.1 196.5 117.9 196.7 117.2 C 196.9 114.6 196.6 116.9 196.4 116.5 C 196.5 115.8 196.5 115.2 196.5 114.5 C 196.8 118.0 196.8 109.4 196.8 112.5 C 196.8 109.8 197.2 109.8 197.0 107.3 C 197.0 107.3 197.0 107.3 197.0 107.3 Z M 190.5 57.3 C 190.4 57.1 189.9 56.1 190.2 56.0 C 189.6 54.9 189.6 56.0 189.3 54.7 C 189.2 54.8 189.4 55.3 189.2 55.3 C 189.5 55.8 189.7 56.3 190.0 56.1 C 190.1 56.7 190.2 56.9 190.4 57.3 C 190.2 57.2 190.1 57.0 189.9 56.4 C 189.7 56.4 189.5 56.6 189.8 57.5 C 190.1 57.8 190.3 57.5 190.5 57.3 C 190.5 57.3 190.5 57.3 190.5 57.3 Z M 189.3 54.4 C 189.4 54.3 189.4 54.1 189.5 54.1 C 189.8 53.6 189.1 54.0 189.0 53.7 C 189.0 53.4 189.2 53.4 189.3 53.3 C 189.0 52.8 188.9 52.4 188.9 52.0 C 188.4 51.2 188.9 53.1 188.9 53.4 C 189.0 54.0 189.2 53.7 189.3 54.4 C 189.3 54.4 189.3 54.4 189.3 54.4 Z M 185.5 44.5 C 185.6 44.2 185.0 44.1 184.8 43.6 C 184.8 44.1 185.5 45.0 184.8 44.5 C 185.3 45.6 185.4 45.6 186.0 46.6 C 186.1 47.3 186.2 46.5 185.5 45.5 C 185.7 45.6 186.0 46.0 186.1 46.0 C 186.0 47.0 187.7 48.3 186.8 47.4 C 186.7 47.1 186.7 46.9 186.7 46.6 C 186.3 46.5 185.1 44.1 185.5 44.5 C 185.5 44.5 185.5 44.5 185.5 44.5 Z M 140.2 13.2 C 142.9 14.0 142.9 14.0 145.5 15.0 C 145.5 15.2 145.3 15.1 144.8 15.0 C 145.3 15.3 146.2 15.5 147.3 15.9 C 147.3 15.8 146.7 15.6 146.7 15.7 C 144.7 14.7 146.4 15.3 146.9 15.2 C 144.4 14.0 142.0 13.8 140.9 13.0 C 139.9 12.8 141.1 13.2 140.2 13.2 C 140.2 13.2 140.2 13.2 140.2 13.2 Z M 66.8 189.4 C 66.5 189.4 65.6 189.2 65.7 189.4 C 66.5 189.6 67.1 189.7 67.9 189.9 C 66.4 189.3 66.7 189.0 64.8 188.4 C 65.3 188.7 65.1 189.0 66.8 189.4 C 66.8 189.4 66.8 189.4 66.8 189.4 Z M 187.3 48.1 C 187.2 48.1 187.1 48.2 186.9 47.9 C 186.6 47.8 187.2 48.9 187.0 49.0 C 187.2 49.3 187.3 49.1 187.5 49.6 C 187.6 49.3 187.1 48.5 187.6 48.7 C 187.7 49.0 187.7 49.1 187.7 49.1 C 188.1 49.7 187.7 48.7 187.3 48.1 C 187.3 48.1 187.3 48.1 187.3 48.1 Z M 193.6 135.0 C 193.8 134.1 193.5 134.9 193.3 135.6 C 193.5 133.6 192.5 136.6 192.2 136.7 C 192.6 135.9 193.1 133.3 193.3 132.9 C 193.4 132.1 193.0 132.9 193.4 130.8 C 193.1 131.0 192.8 133.4 193.1 132.8 C 192.6 133.3 192.5 135.6 192.2 135.3 C 191.4 138.2 191.4 138.9 191.6 139.3 C 192.3 136.4 192.4 138.0 193.0 135.5 C 193.1 135.6 192.9 136.3 192.7 136.8 C 193.0 136.7 193.3 135.6 193.6 135.0 C 193.6 135.0 193.6 135.0 193.6 135.0 Z M 193.2 70.6 C 193.0 69.5 192.8 69.6 192.5 69.7 C 192.7 70.1 192.8 70.8 193.0 71.7 C 193.1 71.4 192.8 70.1 193.2 70.6 C 193.2 70.6 193.2 70.6 193.2 70.6 Z M 195.3 124.4 C 195.4 124.3 195.4 123.7 195.4 123.7 C 195.6 122.1 195.8 121.7 196.0 121.1 C 196.1 120.2 195.8 120.5 195.7 120.4 C 195.7 122.0 195.4 121.6 195.2 123.7 C 195.3 123.6 195.3 123.9 195.3 124.4 C 195.3 124.4 195.3 124.4 195.3 124.4 Z M 194.9 81.8 C 194.8 81.2 194.7 81.5 194.8 81.8 C 194.3 81.1 194.3 78.8 194.0 78.0 C 193.7 77.9 194.2 80.6 193.6 77.5 C 193.5 78.1 194.1 81.0 194.3 82.5 C 193.9 82.2 193.7 80.2 193.3 80.3 C 193.8 82.0 194.2 84.0 194.7 84.2 C 194.4 81.6 194.8 82.5 194.9 81.8 C 194.9 81.8 194.9 81.8 194.9 81.8 Z M 195.1 84.7 C 195.2 84.5 194.9 84.0 194.8 83.0 C 194.7 84.5 194.9 85.3 195.2 88.3 C 195.2 88.3 195.3 88.3 195.4 88.3 C 195.4 88.9 195.5 89.5 195.6 90.1 C 195.6 87.4 195.3 86.8 194.9 84.2 C 195.0 84.0 195.0 84.4 195.1 84.7 C 195.1 84.7 195.1 84.7 195.1 84.7 Z M 174.4 32.2 C 174.8 32.8 175.1 33.3 175.9 34.2 C 176.1 33.9 175.7 33.3 174.4 32.2 C 174.4 32.2 174.4 32.2 174.4 32.2 Z M 194.7 127.0 C 194.6 128.8 195.0 125.3 194.5 126.3 C 194.1 127.7 193.8 129.2 193.4 129.5 C 193.3 132.1 194.3 126.6 194.7 127.0 C 194.7 127.0 194.7 127.0 194.7 127.0 Z M 195.3 115.1 C 195.4 114.3 195.8 114.4 195.5 115.1 C 195.4 117.0 195.9 113.5 195.6 116.4 C 195.8 115.2 196.1 112.4 196.0 111.1 C 195.7 111.2 195.8 113.7 195.5 113.8 C 195.4 113.9 195.4 113.5 195.4 113.1 C 195.3 113.4 195.4 113.9 195.3 115.1 C 195.3 115.1 195.3 115.1 195.3 115.1 Z M 196.1 105.3 C 195.9 106.4 195.8 107.6 195.7 109.9 C 196.0 108.4 196.3 107.6 196.1 105.3 C 196.1 105.3 196.1 105.3 196.1 105.3 Z M 104.2 193.1 C 106.2 193.0 104.4 192.7 104.2 192.7 C 102.1 192.7 102.3 192.9 100.0 192.8 C 100.7 193.2 102.9 192.8 104.2 193.1 C 104.2 193.1 104.2 193.1 104.2 193.1 Z M 96.9 192.9 C 96.7 192.7 93.9 192.7 93.8 192.4 C 92.2 193.0 89.9 191.8 89.9 192.3 C 89.4 192.2 88.8 192.1 87.7 192.0 C 89.7 192.7 94.5 192.8 96.9 192.9 C 96.9 192.9 96.9 192.9 96.9 192.9 Z M 195.0 94.5 C 195.0 92.8 194.6 95.0 194.5 93.3 C 194.4 93.2 194.6 96.4 194.3 94.5 C 194.3 97.1 194.9 94.3 195.0 94.5 C 195.0 94.5 195.0 94.5 195.0 94.5 Z M 190.9 67.6 C 191.1 67.7 190.6 66.0 190.5 65.4 C 190.4 65.4 190.5 65.9 190.6 66.3 C 190.5 66.1 190.3 65.9 190.2 65.5 C 190.1 65.8 190.7 67.0 190.9 67.6 C 190.9 67.6 190.9 67.6 190.9 67.6 Z M 200.4 97.3 C 200.2 98.4 200.0 99.8 200.5 100.6 C 200.3 101.8 200.1 99.8 200.0 101.3 C 200.2 103.1 199.9 102.2 200.1 105.3 C 199.7 104.7 199.7 106.9 199.5 107.3 C 199.4 106.0 199.8 104.5 199.5 103.9 C 199.5 104.9 199.2 104.4 199.4 103.9 C 199.5 101.9 199.8 106.4 200.0 103.9 C 199.5 103.2 200.2 99.6 200.0 97.4 C 200.3 98.2 200.3 95.6 200.4 97.3 C 200.4 97.3 200.4 97.3 200.4 97.3 Z M 200.1 109.2 C 200.0 110.9 199.4 111.7 199.4 111.3 C 199.5 111.3 199.6 109.4 199.5 109.2 C 199.4 109.7 199.4 110.1 199.3 109.9 C 199.5 106.9 199.7 108.0 199.9 107.3 C 200.0 108.9 199.8 109.4 199.9 110.0 C 200.0 109.6 200.0 109.2 200.1 109.2 C 200.1 109.2 200.1 109.2 200.1 109.2 Z M 189.2 143.3 C 189.5 143.1 189.4 142.7 189.5 142.1 C 190.0 142.1 190.5 138.7 190.8 138.4 C 190.8 139.1 190.2 140.8 190.1 141.6 C 190.5 140.7 190.6 140.6 190.8 139.7 C 191.0 140.0 190.4 141.8 190.4 142.3 C 190.1 142.5 190.1 143.4 189.8 143.6 C 190.6 141.1 188.7 144.7 189.2 143.3 C 189.2 143.3 189.2 143.3 189.2 143.3 Z M 193.1 81.0 C 192.8 80.8 192.4 83.3 191.7 81.2 C 191.9 80.6 192.2 80.3 192.6 80.4 C 192.2 79.1 192.4 78.5 191.9 77.7 C 192.4 75.1 192.1 79.7 193.1 81.0 C 193.1 81.0 193.1 81.0 193.1 81.0 Z M 191.4 72.5 C 191.8 72.9 191.5 71.7 191.8 71.9 C 191.8 72.9 192.7 76.1 192.3 75.0 C 192.0 73.9 191.7 74.0 191.4 72.5 C 191.4 72.5 191.4 72.5 191.4 72.5 Z M 10.0 76.1 C 10.1 74.8 10.9 74.2 10.8 75.0 C 10.6 74.6 10.2 76.6 10.0 76.1 C 10.0 76.1 10.0 76.1 10.0 76.1 Z M 46.7 18.5 C 44.9 19.5 44.0 20.4 43.6 20.3 C 45.2 19.0 45.2 19.3 46.6 18.3 C 46.7 18.1 47.5 17.4 47.7 17.4 C 46.9 18.0 47.2 18.0 46.7 18.5 C 46.7 18.5 46.7 18.5 46.7 18.5 Z M 192.5 47.4 C 192.6 47.3 192.4 46.8 192.7 46.9 C 193.1 48.1 193.8 49.4 194.3 50.3 C 194.2 50.3 194.1 50.4 193.9 50.4 C 193.4 48.5 193.0 48.1 192.5 47.4 C 192.5 47.4 192.5 47.4 192.5 47.4 Z M 191.9 44.8 C 191.7 44.7 191.7 45.5 191.3 44.7 C 191.5 44.6 191.0 43.0 191.4 43.6 C 191.4 44.0 191.6 44.3 191.9 44.8 C 191.9 44.8 191.9 44.8 191.9 44.8 Z M 197.5 135.9 C 197.1 137.6 198.0 135.3 198.1 135.4 C 197.7 136.6 197.3 138.2 197.0 138.7 C 197.4 137.5 197.1 136.5 197.5 135.9 C 197.5 135.9 197.5 135.9 197.5 135.9 Z M 200.1 110.6 C 200.2 107.1 200.7 108.6 200.8 105.3 C 201.0 106.6 200.9 109.7 201.1 110.7 C 200.9 110.5 200.9 111.4 200.7 111.3 C 200.7 110.0 200.9 109.8 200.9 108.6 C 200.6 109.1 200.7 109.1 200.4 108.6 C 200.4 109.5 200.4 110.1 200.4 110.6 C 200.3 110.4 200.1 111.6 200.1 110.6 C 200.1 110.6 200.1 110.6 200.1 110.6 Z M 196.9 135.1 C 196.7 136.5 195.9 137.6 196.3 136.4 C 196.5 136.2 196.5 135.3 196.7 135.0 C 196.3 137.0 197.2 133.5 197.3 134.5 C 197.0 135.7 197.0 136.1 197.2 135.9 C 197.0 136.7 196.7 137.9 196.6 137.9 C 196.7 137.4 196.9 136.6 196.8 136.5 C 196.7 136.9 196.6 137.3 196.6 137.2 C 196.9 136.0 196.9 135.5 196.9 135.1 C 196.9 135.1 196.9 135.1 196.9 135.1 Z M 198.7 125.6 C 198.4 127.5 198.1 127.6 197.8 128.3 C 198.3 125.8 198.8 125.4 199.2 123.6 C 198.9 125.6 198.9 127.8 198.6 128.4 C 198.7 127.5 198.9 125.8 198.7 125.6 C 198.7 125.6 198.7 125.6 198.7 125.6 Z M 99.8 202.7 C 98.8 202.4 98.0 202.0 96.5 201.5 C 96.0 201.7 98.5 202.9 97.4 202.4 C 96.0 202.1 97.1 202.0 95.9 201.6 C 96.4 202.0 95.1 201.8 93.2 201.3 C 91.3 200.7 88.8 199.8 88.6 199.5 C 90.1 200.0 90.6 200.1 90.3 199.8 C 94.1 201.0 95.2 201.0 97.1 201.3 C 98.4 202.0 101.5 202.6 102.5 202.2 C 103.2 202.8 104.1 202.1 104.8 202.3 C 104.8 202.0 104.2 202.1 104.6 201.9 C 105.0 202.1 105.0 202.2 105.3 202.1 C 105.3 202.0 105.1 201.8 105.2 201.7 C 105.3 201.9 105.6 201.6 105.7 201.6 C 105.3 202.0 105.9 202.1 105.4 202.6 C 105.1 202.6 105.4 202.1 104.6 202.4 C 104.4 202.6 104.0 202.8 104.2 203.1 C 103.9 203.2 103.7 203.2 103.5 203.3 C 103.9 202.9 101.8 203.5 102.8 203.0 C 102.8 203.0 103.5 203.0 103.9 202.8 C 103.5 202.6 103.1 202.8 102.2 202.9 C 101.9 202.7 102.4 202.6 101.9 202.5 C 101.2 202.7 102.2 203.0 101.6 203.1 C 101.9 203.1 102.2 203.1 102.2 203.2 C 101.0 202.9 100.2 203.1 99.3 202.9 C 100.0 202.8 98.4 202.5 99.8 202.7 C 99.8 202.7 99.8 202.7 99.8 202.7 Z M 105.7 200.1 C 105.7 200.1 105.7 199.9 105.7 199.9 C 105.9 199.8 106.1 200.0 106.3 199.8 C 106.3 200.0 105.9 200.0 105.7 200.1 C 105.7 200.1 105.7 200.1 105.7 200.1 Z M 103.9 201.3 C 103.7 201.0 103.9 201.7 103.7 201.8 C 104.1 201.6 104.3 201.4 104.5 201.7 C 104.1 201.8 103.9 201.8 103.4 202.0 C 103.9 201.5 102.7 201.7 102.5 201.3 C 103.0 201.3 103.4 201.1 103.7 201.0 C 103.7 201.2 104.3 201.1 103.9 201.3 C 103.9 201.3 103.9 201.3 103.9 201.3 Z M 104.2 200.7 C 104.4 200.8 104.3 200.6 104.7 200.7 C 104.6 200.8 104.6 200.9 104.8 201.1 C 104.8 201.2 104.6 201.2 104.5 201.3 C 104.2 201.0 104.4 200.9 104.3 200.7 C 104.3 200.8 104.2 200.7 104.2 200.7 C 104.2 200.7 104.2 200.7 104.2 200.7 Z M 56.0 184.6 C 56.2 185.1 54.7 184.2 54.4 184.0 C 54.7 184.5 54.5 184.5 53.5 184.2 C 54.0 184.0 52.6 183.5 52.0 182.7 C 51.7 182.9 52.6 183.5 51.4 183.0 C 50.6 182.5 49.8 182.3 48.7 181.8 C 48.6 181.4 49.1 181.6 49.5 181.6 C 48.7 181.3 49.0 181.2 48.5 180.9 C 48.5 181.1 48.0 181.0 48.0 180.7 C 48.9 181.1 47.1 179.8 48.0 180.2 C 48.0 180.3 48.2 180.4 48.4 180.4 C 48.0 180.7 49.3 181.2 49.5 181.5 C 50.4 181.2 51.7 182.2 53.8 183.4 C 53.9 183.6 53.2 183.4 53.7 183.6 C 53.8 183.5 54.6 183.9 54.9 183.9 C 54.8 184.1 55.1 184.3 55.6 184.5 C 55.6 184.5 55.7 184.5 56.0 184.6 C 56.0 184.6 56.0 184.6 56.0 184.6 Z M 9.9 120.5 C 10.4 120.5 9.7 116.8 9.4 115.8 C 10.0 115.9 10.6 122.5 9.9 120.5 C 9.9 120.5 9.9 120.5 9.9 120.5 Z M 16.2 143.6 C 15.8 142.6 15.8 143.4 15.5 142.6 C 15.7 142.4 14.3 140.3 14.6 140.2 C 15.3 141.2 15.5 141.9 16.2 143.6 C 16.2 143.6 16.2 143.6 16.2 143.6 Z M 28.2 163.8 C 26.8 162.3 28.8 164.7 28.4 164.5 C 27.3 163.2 26.2 161.8 26.5 161.7 C 27.3 163.0 28.3 163.5 28.2 163.8 C 28.2 163.8 28.2 163.8 28.2 163.8 Z M 13.0 132.8 C 12.7 131.4 13.7 133.6 13.6 133.9 C 13.1 132.4 13.6 135.0 14.1 136.4 C 13.7 136.4 13.6 135.8 13.5 136.5 C 12.7 134.5 13.7 136.1 13.3 134.6 C 12.8 133.7 13.2 134.7 12.9 134.7 C 12.7 134.2 12.6 133.6 12.4 133.0 C 12.6 133.0 12.7 132.9 12.9 132.9 C 13.1 133.6 13.3 134.3 13.4 134.0 C 13.2 133.4 13.1 133.3 13.0 132.8 C 13.0 132.8 13.0 132.8 13.0 132.8 Z M 44.5 178.2 C 44.5 178.2 44.4 178.3 44.5 178.4 C 44.5 178.3 44.9 177.8 44.8 178.1 C 44.5 178.2 44.7 178.6 44.4 178.6 C 44.6 178.3 44.3 178.6 44.3 178.5 C 44.4 178.3 44.7 177.9 44.5 178.2 C 44.5 178.2 44.5 178.2 44.5 178.2 Z M 44.9 178.6 C 44.9 178.5 44.8 178.5 44.7 178.4 C 45.0 178.3 44.9 178.1 45.0 178.1 C 44.9 178.3 45.4 178.6 45.0 178.5 C 44.9 178.2 45.0 178.7 45.1 178.8 C 45.0 178.7 44.6 178.9 44.7 178.6 C 44.8 178.7 44.8 178.7 44.9 178.6 C 44.9 178.6 44.9 178.6 44.9 178.6 Z M 65.7 187.2 C 66.0 187.1 65.0 186.8 64.8 186.6 C 67.4 187.5 69.9 188.2 71.4 188.6 C 70.0 188.3 69.9 188.5 70.7 188.8 C 69.2 188.3 68.9 188.4 68.4 188.1 C 69.7 188.2 67.3 187.7 65.7 187.2 C 65.7 187.2 65.7 187.2 65.7 187.2 Z M 65.7 187.2 " fill="#000000"></path><g><clipPath id="clip0x6100014a20a0"><path d="M 7.0 6.4 L 197.9 6.4 L 197.9 201.4 L 7.0 201.4 Z M 7.0 6.4 "></path></clipPath><g clip-path="url(#clip0x6100014a20a0)"><text xml:space="preserve" font-family="Helvetica-Bold,Helvetica" font-weight="bold" font-size="36.0" fill="#000000" transform="matrix(1.00, 0.00, -0.00, -1.00, 70.6, 90.6)">t</text><text xml:space="preserve" font-family="Helvetica-Bold,Helvetica" font-weight="bold" font-size="36.0" fill="#000000" transform="matrix(1.00, 0.00, -0.00, -1.00, 82.6, 90.6)">e</text><text xml:space="preserve" font-family="Helvetica-Bold,Helvetica" font-weight="bold" font-size="36.0" fill="#000000" transform="matrix(1.00, 0.00, -0.00, -1.00, 102.7, 90.6)">x</text><text xml:space="preserve" font-family="Helvetica-Bold,Helvetica" font-weight="bold" font-size="36.0" fill="#000000" transform="matrix(1.00, 0.00, -0.00, -1.00, 122.7, 90.6)">t</text></g></g></g></svg>