<?xml version="1.0" encoding="UTF-8" standalone="no"?><svg xmlns="http://www.w3.org/2000/svg" xmlns:xlink="http://www.w3.org/1999/xlink" clip-rule="evenodd" stroke-miterlimit="10" viewBox="0 0 55 69"><desc>SVG generated by Keynote</desc><defs></defs><g transform="matrix(1.00, 0.00, -0.00, -1.00, 0.0, 69.0)"><path d="M 34.2 30.5 C 34.2 30.6 34.2 30.7 34.2 30.8 C 34.2 30.7 34.3 30.7 34.4 30.8 C 34.3 30.7 34.4 30.5 34.4 30.4 C 34.4 30.4 34.4 30.5 34.3 30.5 C 34.3 30.6 34.2 30.5 34.2 30.5 C 34.2 30.5 34.2 30.5 34.2 30.5 Z M 17.4 48.1 C 17.7 48.0 17.3 48.0 17.3 48.0 C 17.3 48.1 17.3 48.1 17.2 48.1 C 17.1 48.0 17.2 47.9 17.4 47.7 C 18.0 47.4 17.7 48.0 17.4 48.1 C 17.4 48.1 17.4 48.1 17.4 48.1 Z M 6.5 53.9 C 6.5 53.9 6.4 54.1 6.4 54.1 C 6.4 54.2 6.4 54.5 6.4 54.5 C 6.4 54.4 6.4 54.3 6.5 54.2 C 6.5 54.2 6.4 54.2 6.4 54.2 C 6.4 54.2 6.5 54.2 6.5 54.1 C 6.5 54.1 6.5 53.9 6.5 53.8 C 6.5 53.9 6.5 53.7 6.5 53.9 C 6.5 53.9 6.5 53.9 6.5 53.9 Z M 38.9 11.4 C 38.9 11.4 39.0 11.3 39.1 11.3 C 39.1 11.4 39.0 11.4 39.0 11.5 C 39.1 11.5 39.2 11.5 39.2 11.5 C 39.0 11.6 38.8 11.5 38.7 11.5 C 38.8 11.5 38.8 11.3 38.9 11.4 C 38.9 11.4 38.9 11.4 38.9 11.4 Z M 38.8 17.4 C 38.7 17.6 39.1 17.4 38.9 17.6 C 38.8 17.6 38.6 17.6 38.6 17.5 C 38.7 17.5 38.7 17.4 38.8 17.4 C 38.8 17.4 38.8 17.4 38.8 17.4 Z M 7.9 54.8 C 7.9 54.7 7.8 54.8 7.8 54.6 C 7.8 54.6 7.8 54.6 7.9 54.6 C 7.9 54.7 8.0 54.8 7.9 54.8 C 7.9 54.8 7.9 54.8 7.9 54.8 Z M 6.3 55.6 C 6.4 55.4 6.3 55.7 6.4 55.6 C 6.5 55.4 6.6 55.1 6.5 55.2 C 6.4 55.4 6.3 55.6 6.3 55.6 C 6.3 55.6 6.3 55.6 6.3 55.6 Z M 16.7 52.2 C 16.2 52.3 16.6 52.7 16.2 52.6 C 16.2 52.6 16.3 52.5 16.3 52.4 C 16.2 52.5 16.1 52.5 16.1 52.5 C 16.3 52.3 16.5 52.1 16.7 52.2 C 16.7 52.2 16.7 52.2 16.7 52.2 Z M 36.2 26.1 C 36.2 26.1 36.2 26.0 36.1 26.0 C 36.2 25.8 36.1 25.8 36.2 25.7 C 36.5 25.7 36.3 25.9 36.2 26.0 C 36.3 26.1 36.3 26.1 36.2 26.1 C 36.2 26.1 36.2 26.1 36.2 26.1 Z M 38.2 20.4 C 38.1 20.4 38.0 20.5 38.0 20.3 C 38.2 20.1 38.4 20.3 38.4 20.6 C 38.5 20.6 38.6 20.6 38.7 20.6 C 38.7 20.5 38.7 20.5 38.8 20.4 C 38.5 20.3 39.0 20.3 38.9 19.9 C 39.0 20.1 39.2 20.0 39.1 20.2 C 39.3 20.1 39.2 20.3 39.4 20.3 C 39.3 20.2 39.4 19.9 39.1 20.0 C 39.2 19.8 39.2 19.8 39.2 19.7 C 39.5 19.7 39.3 19.9 39.5 19.9 C 39.5 19.8 39.5 19.8 39.5 19.8 C 39.5 19.7 39.4 19.7 39.4 19.7 C 39.5 19.5 39.6 19.7 39.6 19.4 C 39.5 19.4 39.5 19.5 39.4 19.5 C 39.3 19.3 39.5 19.4 39.4 19.2 C 39.5 19.2 39.5 19.3 39.6 19.2 C 39.3 19.1 39.8 19.0 39.6 18.8 C 39.2 18.8 39.6 18.8 39.3 18.5 C 39.4 18.5 39.6 18.7 39.7 18.5 C 39.2 18.5 39.4 18.0 39.0 18.4 C 39.0 18.1 38.6 18.0 38.6 18.2 C 38.7 17.8 38.5 17.9 38.4 17.7 C 38.5 17.6 38.5 17.8 38.7 17.8 C 38.6 17.9 38.8 17.9 38.6 18.0 C 38.7 18.0 38.8 18.1 38.8 18.1 C 38.7 17.9 39.0 17.8 39.2 17.9 C 39.2 18.0 39.0 17.9 39.0 18.0 C 39.2 18.0 38.9 18.1 39.1 18.1 C 39.3 18.1 39.5 18.4 39.5 18.1 C 39.4 18.1 39.3 18.1 39.2 18.1 C 39.3 18.0 39.3 18.0 39.3 17.9 C 39.5 17.9 39.6 17.9 39.6 17.9 C 39.7 17.8 39.6 17.7 39.5 17.7 C 39.5 17.8 39.3 17.9 39.3 17.7 C 39.6 17.8 39.4 17.4 39.6 17.6 C 39.7 17.4 39.5 17.3 39.7 17.3 C 39.7 17.2 39.5 17.2 39.6 17.1 C 39.7 16.9 39.5 16.9 39.7 16.6 C 39.4 16.5 39.7 16.6 39.7 16.5 C 39.6 16.5 39.5 16.5 39.4 16.5 C 39.6 16.4 39.7 16.1 39.6 15.9 C 39.6 15.8 39.8 15.9 39.8 15.7 C 39.5 15.5 39.8 15.4 39.6 15.1 C 39.7 15.1 39.7 15.0 39.6 14.9 C 39.7 14.9 39.9 15.0 39.9 14.9 C 39.8 14.8 39.7 14.9 39.7 14.8 C 39.8 14.8 39.5 14.6 39.7 14.6 C 39.8 14.7 39.8 14.7 39.9 14.8 C 39.9 14.7 40.0 14.7 40.0 14.7 C 39.8 14.7 40.0 14.6 40.0 14.5 C 39.9 14.5 39.9 14.5 39.8 14.4 C 39.8 14.4 39.8 14.3 39.8 14.2 C 39.9 14.1 39.9 14.3 39.9 14.2 C 39.5 14.1 40.0 14.0 39.7 13.8 C 39.9 13.7 40.0 13.6 40.0 13.5 C 39.9 13.4 39.9 13.6 39.8 13.6 C 39.9 13.4 39.7 13.6 39.7 13.5 C 39.8 13.2 39.8 13.0 40.0 12.7 C 39.8 12.7 39.7 12.4 39.8 12.4 C 39.8 12.5 40.0 12.3 40.1 12.2 C 39.8 12.1 39.5 12.0 39.3 12.0 C 39.5 11.9 39.5 11.9 39.8 11.9 C 39.9 11.8 39.6 11.7 39.9 11.6 C 39.7 11.6 39.7 11.5 39.7 11.4 C 39.8 11.5 39.9 11.5 40.0 11.5 C 40.0 11.5 40.1 11.4 40.1 11.4 C 39.6 11.3 40.2 11.2 39.7 11.1 C 39.7 11.0 39.9 11.0 39.9 10.9 C 39.8 10.9 39.7 10.9 39.7 10.9 C 39.7 10.9 39.9 11.0 39.7 11.0 C 39.6 10.9 39.2 11.3 39.0 11.0 C 39.0 11.0 39.2 11.1 39.2 11.0 C 39.1 10.9 38.9 10.9 39.0 11.0 C 38.9 10.9 38.9 10.8 38.7 10.9 C 38.7 10.7 38.8 10.8 38.9 10.7 C 38.7 10.3 38.7 9.9 38.9 9.4 C 38.7 9.4 38.9 9.2 39.0 9.1 C 38.8 9.0 38.8 8.9 39.0 8.9 C 38.8 8.8 39.2 8.7 39.0 8.7 C 39.0 8.8 38.9 8.8 38.8 8.8 C 38.9 8.6 39.0 8.4 38.8 8.3 C 39.1 8.3 39.0 8.2 38.9 8.2 C 39.0 8.2 39.0 8.2 39.1 8.2 C 38.9 8.2 38.8 8.1 38.9 8.0 C 38.9 8.1 39.2 8.1 39.2 8.0 C 39.1 8.0 39.1 8.0 38.9 8.0 C 39.0 7.9 38.9 7.9 39.0 7.9 C 39.0 7.9 39.1 7.9 39.2 7.9 C 39.1 7.9 39.1 7.9 39.2 7.8 C 38.9 7.9 39.1 7.8 39.0 7.8 C 39.1 7.7 39.2 7.7 39.2 7.7 C 39.0 7.7 39.0 7.8 38.9 7.7 C 39.0 7.7 39.1 7.7 38.9 7.7 C 39.0 7.7 38.9 7.6 39.0 7.6 C 39.0 7.6 39.2 7.6 39.3 7.6 C 39.3 7.6 39.3 7.6 39.2 7.6 C 39.1 7.6 39.2 7.6 39.1 7.6 C 39.2 7.6 38.9 7.6 39.0 7.6 C 39.0 7.6 39.1 7.6 39.2 7.6 C 38.9 7.6 39.1 7.5 39.2 7.5 C 39.1 7.5 39.1 7.5 39.2 7.5 C 39.3 7.5 39.2 7.5 39.4 7.5 C 39.4 7.5 39.3 7.5 39.3 7.5 C 39.5 7.5 39.5 7.5 39.6 7.5 C 39.6 7.5 39.4 7.5 39.6 7.5 C 39.5 7.5 39.3 7.5 39.4 7.5 C 39.4 7.4 39.6 7.4 39.7 7.4 C 39.6 7.4 39.3 7.4 39.1 7.5 C 39.2 7.4 39.0 7.4 39.1 7.4 C 39.2 7.4 39.3 7.4 39.3 7.4 C 39.3 7.4 39.1 7.4 39.3 7.4 C 39.5 7.4 39.6 7.4 39.7 7.4 C 39.4 7.4 39.6 7.4 39.6 7.4 C 39.3 7.4 39.6 7.4 39.4 7.4 C 39.4 7.4 39.4 7.4 39.4 7.4 C 39.3 7.4 39.2 7.4 39.1 7.4 C 39.2 7.4 39.1 7.4 39.2 7.4 C 39.3 7.4 39.4 7.4 39.5 7.4 C 39.5 7.4 39.4 7.4 39.4 7.4 C 39.5 7.4 39.8 7.3 40.0 7.3 C 40.1 7.3 40.1 7.3 40.2 7.3 C 40.2 7.3 40.0 7.3 39.9 7.3 C 40.2 7.3 39.8 7.4 39.9 7.4 C 39.9 7.4 39.9 7.4 40.0 7.4 C 40.0 7.4 40.2 7.3 40.2 7.3 C 40.1 7.4 40.0 7.4 40.0 7.4 C 40.1 7.4 40.2 7.3 40.2 7.4 C 40.1 7.4 39.9 7.4 39.9 7.4 C 40.0 7.4 40.0 7.4 40.0 7.4 C 40.0 7.4 40.2 7.4 40.3 7.4 C 40.4 7.4 40.1 7.4 40.1 7.4 C 40.2 7.4 40.0 7.4 40.2 7.4 C 40.1 7.4 40.2 7.4 40.3 7.4 C 40.3 7.4 40.5 7.5 40.2 7.5 C 40.3 7.5 40.5 7.6 40.4 7.6 C 40.4 7.6 40.3 7.6 40.2 7.6 C 40.4 7.6 40.2 7.7 40.5 7.7 C 40.5 7.6 40.8 7.7 41.0 7.6 C 40.9 7.6 41.0 7.6 40.9 7.6 C 40.7 7.6 40.8 7.6 40.9 7.6 C 40.7 7.6 40.6 7.6 40.4 7.7 C 40.6 7.6 40.4 7.5 40.5 7.5 C 40.5 7.5 40.7 7.4 40.8 7.5 C 40.6 7.5 40.6 7.5 40.6 7.5 C 40.6 7.5 40.7 7.5 40.8 7.5 C 40.8 7.5 40.8 7.6 40.8 7.6 C 40.8 7.5 41.0 7.5 40.8 7.5 C 40.9 7.5 40.9 7.5 40.9 7.5 C 41.0 7.5 41.0 7.4 41.0 7.4 C 41.0 7.5 41.0 7.5 41.1 7.5 C 41.1 7.4 41.3 7.4 41.3 7.4 C 41.5 7.4 41.8 7.3 41.8 7.4 C 41.6 7.4 41.6 7.4 41.5 7.4 C 41.4 7.5 41.5 7.5 41.6 7.5 C 41.7 7.5 41.7 7.4 41.9 7.4 C 41.9 7.4 42.0 7.5 41.8 7.5 C 41.8 7.4 41.7 7.5 41.5 7.6 C 41.6 7.5 41.6 7.5 41.7 7.5 C 41.7 7.6 41.6 7.6 41.9 7.6 C 41.9 7.6 41.7 7.6 41.7 7.7 C 42.0 7.6 41.9 7.7 42.1 7.7 C 42.1 7.7 41.9 7.7 41.9 7.7 C 41.9 7.8 42.0 7.8 42.0 7.8 C 41.9 7.8 41.9 7.9 41.6 7.9 C 41.6 8.0 41.6 8.0 41.6 8.0 C 41.6 8.0 41.7 8.0 41.8 8.0 C 41.7 8.1 41.6 8.1 41.7 8.1 C 42.0 8.0 42.0 8.0 42.2 7.9 C 42.1 7.9 42.1 7.9 42.0 7.9 C 41.9 7.8 42.1 7.8 42.0 7.7 C 42.2 7.7 42.5 7.7 42.3 7.7 C 42.5 7.7 42.5 7.6 42.6 7.7 C 42.5 7.7 42.4 7.7 42.3 7.8 C 42.4 7.8 42.5 7.8 42.5 7.8 C 42.4 7.8 42.4 7.9 42.5 7.9 C 42.4 7.9 42.3 7.9 42.3 7.9 C 42.2 8.0 42.5 7.9 42.4 8.0 C 42.5 8.0 42.5 7.9 42.6 8.0 C 42.6 8.0 42.5 8.1 42.5 8.1 C 42.5 8.1 42.6 8.1 42.6 8.1 C 42.5 8.2 42.2 8.0 42.0 8.1 C 42.2 8.1 42.1 8.2 42.0 8.2 C 41.9 8.2 42.1 8.2 41.9 8.2 C 41.9 8.3 41.7 8.2 41.6 8.4 C 41.7 8.4 41.7 8.4 41.8 8.4 C 41.8 8.3 41.9 8.3 42.1 8.3 C 42.1 8.2 42.4 8.2 42.2 8.1 C 42.6 8.1 42.3 8.2 42.2 8.2 C 42.4 8.2 42.4 8.2 42.6 8.2 C 42.4 8.3 42.7 8.3 42.4 8.5 C 42.6 8.5 42.5 8.6 42.6 8.6 C 42.6 8.4 43.1 8.5 43.1 8.5 C 43.1 8.4 42.8 8.4 42.7 8.4 C 42.9 8.3 42.9 8.4 43.2 8.4 C 43.1 8.4 43.2 8.4 43.3 8.5 C 43.1 8.6 42.8 8.6 42.7 8.5 C 42.7 8.6 42.8 8.7 42.7 8.7 C 42.7 8.6 42.6 8.7 42.5 8.6 C 42.4 8.7 42.6 8.9 42.4 9.0 C 42.6 9.0 42.6 9.0 42.7 9.0 C 42.5 8.9 42.9 8.9 42.9 8.8 C 42.9 8.8 43.0 8.8 43.1 8.8 C 43.0 8.9 43.2 8.9 43.0 9.0 C 43.0 9.0 43.1 9.0 43.2 9.0 C 43.0 9.1 43.1 9.1 43.2 9.2 C 43.1 9.3 42.8 9.2 42.6 9.2 C 42.7 9.3 42.7 9.5 42.9 9.3 C 42.9 9.5 42.6 9.4 42.6 9.5 C 42.8 9.5 42.8 9.4 43.0 9.5 C 43.1 9.6 42.8 9.5 43.0 9.6 C 42.8 9.6 42.7 9.6 42.7 9.7 C 42.8 9.7 42.7 9.7 42.9 9.8 C 42.9 9.7 42.9 9.7 43.0 9.7 C 42.9 9.8 42.9 9.9 43.0 10.0 C 42.8 10.0 42.7 10.0 42.6 9.9 C 42.8 10.0 42.5 10.2 42.6 10.2 C 42.7 10.2 42.7 10.1 42.8 10.0 C 42.9 10.3 43.1 10.5 42.8 10.8 C 42.8 10.7 42.8 10.7 42.7 10.7 C 42.7 10.7 42.7 10.7 42.7 10.7 C 42.7 10.6 42.7 10.5 42.6 10.5 C 42.7 10.4 42.8 10.5 42.8 10.5 C 42.7 10.4 42.8 10.3 42.6 10.3 C 42.7 10.5 42.5 10.6 42.3 10.7 C 42.6 10.8 42.6 10.7 42.9 10.9 C 42.8 10.9 42.8 10.9 42.7 11.0 C 43.0 10.9 42.9 11.1 42.9 11.1 C 42.7 11.1 42.6 10.8 42.4 10.9 C 42.8 10.8 42.2 11.2 42.6 11.2 C 42.6 11.4 42.4 11.3 42.6 11.4 C 42.5 11.4 42.4 11.4 42.4 11.4 C 42.4 11.5 42.5 11.5 42.5 11.5 C 42.7 11.3 42.9 11.3 42.9 11.2 C 42.9 11.2 42.9 11.2 43.0 11.2 C 43.0 11.2 43.0 11.2 43.0 11.3 C 42.8 11.3 43.1 11.4 42.9 11.4 C 42.9 11.4 42.9 11.3 42.8 11.4 C 42.8 11.6 42.6 11.5 42.5 11.8 C 42.6 11.8 42.6 11.9 42.6 12.0 C 42.6 12.2 42.3 12.1 42.3 12.3 C 42.8 12.3 42.3 12.5 42.6 12.7 C 42.3 12.7 42.2 13.0 42.4 13.1 C 42.3 13.1 42.4 13.2 42.3 13.3 C 42.2 13.3 42.2 13.2 42.2 13.3 C 42.2 13.3 42.4 13.3 42.4 13.4 C 42.3 13.5 42.1 13.5 42.1 13.6 C 42.3 13.7 42.3 13.6 42.4 13.6 C 42.3 13.8 42.3 13.9 42.5 13.8 C 42.5 14.0 42.2 13.9 42.2 14.1 C 42.3 14.1 42.3 14.1 42.4 14.2 C 42.2 14.3 42.1 14.3 42.0 14.3 C 42.2 14.4 42.2 14.3 42.2 14.5 C 42.2 14.5 42.3 14.5 42.4 14.5 C 42.4 14.6 42.4 14.7 42.3 14.8 C 42.4 14.6 42.2 14.6 42.1 14.6 C 42.1 14.7 41.9 15.0 42.1 14.8 C 42.2 15.0 42.0 14.9 42.0 15.1 C 42.2 15.0 42.0 15.1 42.0 15.2 C 42.3 15.2 42.1 15.4 42.1 15.5 C 42.2 15.5 42.3 15.5 42.3 15.6 C 42.2 15.6 42.2 15.7 42.2 15.8 C 42.3 15.8 42.4 15.6 42.3 15.8 C 42.2 15.9 42.0 15.9 42.0 16.1 C 41.8 16.1 41.9 15.9 41.7 15.9 C 41.9 16.1 41.7 16.1 41.7 16.3 C 42.0 16.3 42.1 16.8 42.3 16.6 C 42.3 16.7 42.5 16.8 42.3 16.8 C 42.3 16.7 42.1 16.9 42.1 16.9 C 42.1 17.0 41.9 17.2 42.1 17.2 C 42.1 17.0 42.2 17.0 42.3 17.0 C 42.4 17.3 42.3 17.6 42.1 17.6 C 42.2 17.6 42.2 17.6 42.2 17.6 C 42.2 17.5 42.5 17.5 42.5 17.6 C 42.3 17.6 42.3 17.7 42.2 17.8 C 42.4 17.8 42.0 18.2 42.3 18.2 C 42.2 18.0 42.5 17.9 42.6 18.0 C 42.4 18.1 42.3 18.4 42.1 18.3 C 42.2 18.4 42.2 18.4 42.3 18.5 C 42.4 18.6 42.4 18.4 42.6 18.5 C 42.6 18.6 42.6 18.7 42.5 18.7 C 42.5 18.5 42.4 18.8 42.3 18.6 C 42.3 18.7 42.2 18.7 42.1 18.9 C 42.2 18.9 42.2 18.9 42.2 19.0 C 42.1 18.8 42.2 18.7 42.4 18.8 C 42.4 19.0 42.2 19.0 42.2 19.2 C 42.3 19.2 42.5 19.5 42.4 19.7 C 42.4 19.4 42.3 19.7 42.2 19.5 C 42.4 19.3 42.2 19.2 42.0 19.1 C 41.9 19.2 41.8 19.3 42.0 19.4 C 42.1 19.3 42.0 19.3 41.9 19.2 C 42.1 19.2 42.1 19.3 42.2 19.4 C 42.0 19.4 42.1 19.7 41.9 19.5 C 42.0 19.7 41.8 19.9 41.9 20.1 C 41.9 19.9 42.0 19.7 42.2 19.7 C 42.2 19.9 42.0 20.0 42.1 20.0 C 42.3 20.0 42.3 19.8 42.4 19.7 C 42.6 20.0 42.0 20.2 42.4 20.0 C 42.4 20.1 42.3 20.3 42.3 20.3 C 42.3 20.2 42.0 20.3 41.9 20.3 C 41.9 20.5 41.9 20.6 42.0 20.6 C 42.0 20.4 42.2 20.3 42.2 20.5 C 42.1 20.5 42.2 20.5 42.3 20.6 C 42.2 20.6 42.2 20.8 42.1 20.9 C 42.2 20.9 42.2 20.8 42.3 20.8 C 42.3 20.9 42.6 21.1 42.3 21.2 C 42.3 21.1 42.3 21.0 42.3 21.0 C 41.9 21.3 41.7 21.4 41.5 21.8 C 41.5 21.7 41.5 21.7 41.4 21.7 C 41.3 21.9 41.2 22.1 41.1 22.0 C 41.1 22.2 41.2 22.3 41.3 22.4 C 41.4 22.3 41.2 22.2 41.4 22.1 C 41.4 22.2 41.8 22.0 41.9 22.0 C 41.8 21.6 42.1 21.7 42.0 21.3 C 42.2 21.5 42.1 21.1 42.3 21.3 C 42.0 21.5 42.1 21.8 41.9 22.2 C 41.8 22.1 41.7 22.0 41.5 22.2 C 41.4 22.4 41.7 22.4 41.6 22.6 C 41.4 22.6 41.4 22.5 41.3 22.6 C 41.4 22.7 41.3 22.9 41.2 22.9 C 41.2 22.6 41.0 22.9 41.0 22.7 C 40.9 22.8 40.9 22.9 40.9 22.9 C 41.1 22.7 41.0 23.3 41.2 23.1 C 41.3 23.5 40.8 23.0 40.8 23.3 C 40.9 23.2 41.0 23.4 40.9 23.7 C 40.7 23.7 40.6 23.9 40.5 24.1 C 40.6 24.0 40.6 24.0 40.7 24.2 C 40.8 24.1 40.8 23.9 40.8 23.8 C 40.9 23.8 40.9 23.8 41.0 23.8 C 41.0 24.0 41.1 23.9 41.1 24.0 C 41.0 24.1 41.0 24.2 40.9 24.3 C 40.9 24.3 40.9 24.3 41.0 24.4 C 41.1 24.1 41.2 24.5 41.3 24.3 C 41.3 24.2 41.1 24.2 41.2 24.0 C 41.4 23.9 41.4 24.2 41.5 24.3 C 41.7 24.2 41.5 24.0 41.7 24.0 C 41.9 24.2 41.7 24.5 41.6 24.7 C 41.8 24.8 41.4 25.1 41.7 25.2 C 41.6 25.3 41.5 25.3 41.5 25.3 C 41.6 25.5 41.4 25.5 41.4 25.5 C 41.5 25.6 41.5 25.6 41.6 25.5 C 41.4 25.8 41.4 25.9 41.4 26.3 C 41.3 26.3 41.2 26.3 41.0 26.3 C 41.0 26.2 41.0 26.1 41.0 26.1 C 40.8 26.6 41.4 26.4 41.0 26.6 C 41.1 26.6 41.4 26.5 41.4 26.7 C 41.1 26.9 41.1 27.4 40.6 27.2 C 40.4 27.5 40.7 27.8 40.4 27.8 C 40.4 27.9 40.4 28.0 40.5 28.0 C 40.6 28.0 40.7 27.9 40.9 27.8 C 40.8 27.6 41.0 27.6 40.7 27.7 C 40.8 27.4 40.9 27.4 41.0 27.3 C 41.0 27.7 40.8 27.9 41.0 28.0 C 40.9 28.1 40.7 28.2 40.6 28.2 C 40.7 28.3 40.7 28.7 40.5 28.7 C 40.6 28.4 40.5 28.1 40.3 28.3 C 40.2 29.0 39.8 29.2 39.7 29.8 C 39.7 29.8 39.5 29.7 39.5 29.8 C 39.6 29.9 39.7 29.9 39.7 30.0 C 39.6 30.2 39.5 30.2 39.4 30.5 C 39.3 30.4 39.2 30.4 39.1 30.5 C 39.2 30.6 39.4 31.0 39.3 31.1 C 39.4 31.0 39.1 31.1 39.1 31.2 C 39.3 31.2 38.6 31.8 38.9 31.7 C 38.8 32.0 38.7 32.1 38.6 32.0 C 38.6 32.2 38.6 32.3 38.6 32.4 C 38.3 32.3 38.3 32.9 38.1 33.0 C 38.3 32.8 38.0 32.7 38.0 32.8 C 38.1 33.0 38.0 33.5 37.9 33.6 C 37.9 33.5 37.7 33.4 37.8 33.2 C 37.6 33.5 37.8 33.7 37.9 33.9 C 37.7 33.7 37.8 34.0 37.8 34.1 C 37.6 34.1 37.7 34.0 37.6 34.0 C 37.5 34.1 37.4 34.1 37.3 34.3 C 37.5 34.3 37.3 34.5 37.2 34.5 C 37.4 34.6 37.4 34.8 37.3 34.9 C 37.1 34.6 36.5 35.7 36.9 35.5 C 36.9 35.8 36.6 35.7 36.4 35.9 C 36.5 36.1 36.4 36.2 36.6 36.1 C 36.5 36.4 36.3 36.1 36.2 36.4 C 36.5 36.4 36.0 36.7 36.3 36.7 C 36.0 36.7 36.2 37.1 35.8 37.2 C 35.9 37.2 35.9 37.3 35.9 37.4 C 36.0 37.4 36.2 37.2 36.1 37.4 C 35.8 37.5 35.9 37.4 35.8 37.4 C 35.4 38.1 34.9 38.8 34.3 39.4 C 34.5 39.4 34.5 39.4 34.4 39.6 C 34.0 39.6 33.6 40.4 33.6 40.6 C 33.3 40.6 33.2 41.1 33.1 41.1 C 33.2 41.0 33.1 40.8 33.0 40.9 C 33.1 41.2 32.9 41.2 32.9 41.5 C 32.6 41.4 32.4 42.0 32.3 41.6 C 32.2 41.6 32.2 41.7 32.1 41.7 C 32.3 41.9 32.2 41.9 32.4 41.8 C 31.9 42.2 31.9 42.4 31.5 42.6 C 31.6 42.7 31.9 42.5 31.7 42.7 C 31.7 42.7 31.7 42.7 31.6 42.7 C 31.6 42.7 31.6 42.8 31.5 42.8 C 31.5 42.7 31.6 42.6 31.4 42.5 C 31.3 42.7 31.0 42.6 31.1 42.8 C 31.3 42.6 31.4 43.0 31.2 43.0 C 31.2 42.8 30.7 43.4 30.6 43.7 C 30.4 43.7 30.8 43.5 30.7 43.4 C 30.3 43.8 30.3 43.7 30.4 43.9 C 30.2 44.0 30.0 44.0 29.9 44.3 C 29.7 44.4 29.9 44.1 29.7 44.3 C 29.6 44.4 29.7 44.5 29.6 44.6 C 28.9 44.6 28.5 45.8 27.7 45.7 C 28.0 45.7 27.8 45.9 27.6 46.1 C 27.5 46.0 27.5 45.9 27.4 46.0 C 27.5 46.1 27.4 46.2 27.3 46.3 C 27.2 46.2 27.2 46.1 27.1 46.2 C 27.2 46.4 26.9 46.4 26.8 46.6 C 26.6 46.4 27.0 46.3 27.0 46.2 C 26.5 46.3 26.6 46.5 26.2 46.7 C 26.4 46.5 26.0 46.6 26.0 46.6 C 26.1 46.7 26.0 46.9 26.2 46.9 C 26.1 47.0 25.7 47.2 25.7 47.2 C 25.8 47.1 25.9 47.0 25.9 46.9 C 25.7 47.1 25.2 47.2 25.2 47.4 C 25.4 47.3 25.5 47.3 25.6 47.4 C 25.6 47.5 25.5 47.6 25.4 47.7 C 25.5 47.1 24.5 48.0 24.5 48.1 C 24.3 48.0 24.2 48.0 24.2 47.9 C 23.7 48.2 23.9 48.3 23.6 48.5 C 23.6 48.3 23.6 48.1 23.1 48.3 C 23.3 48.4 22.8 48.7 23.1 48.8 C 22.1 49.6 21.7 49.5 21.2 49.8 C 21.2 49.9 21.4 49.8 21.2 50.0 C 20.9 50.1 20.6 50.2 20.4 50.2 C 20.3 50.4 20.5 50.3 20.4 50.5 C 19.9 50.6 19.9 50.3 19.4 50.4 C 19.1 50.8 19.2 50.6 19.0 50.9 C 19.2 50.9 19.3 50.9 19.2 51.0 C 18.8 51.0 18.6 50.9 18.6 50.9 C 18.7 50.8 18.9 50.7 19.0 50.7 C 19.0 50.5 19.3 50.4 19.0 50.4 C 19.3 50.3 19.6 50.1 20.0 49.8 C 19.8 49.8 20.4 49.6 20.1 49.5 C 19.7 49.8 19.5 49.8 19.1 50.1 C 19.3 50.2 18.8 50.4 18.7 50.4 C 18.7 50.5 18.4 50.6 18.6 50.7 C 18.3 50.9 18.2 50.8 17.9 51.0 C 17.9 51.0 17.9 50.9 17.7 50.9 C 17.7 51.2 17.5 51.0 17.4 51.1 C 17.6 51.2 17.1 51.4 17.1 51.5 C 17.3 51.5 17.4 51.3 17.5 51.4 C 17.0 51.7 17.5 51.6 17.6 51.7 C 17.6 51.6 17.6 51.3 17.7 51.4 C 17.4 51.8 18.5 51.3 18.1 51.5 C 17.7 51.6 17.8 51.7 17.5 51.9 C 16.9 51.8 17.3 51.4 16.8 51.4 C 16.6 51.6 16.5 51.7 16.6 51.9 C 16.5 51.8 16.4 51.8 16.3 51.8 C 16.2 52.0 16.7 51.8 16.4 52.0 C 16.2 52.1 16.3 51.8 16.0 52.0 C 16.0 52.2 16.5 51.9 16.2 52.1 C 15.8 52.0 16.3 52.2 16.0 52.4 C 16.0 52.4 15.9 52.4 15.8 52.4 C 15.7 52.4 15.7 52.2 15.6 52.3 C 15.7 52.6 15.4 52.2 15.2 52.4 C 15.2 52.7 15.5 52.4 15.5 52.6 C 15.1 52.6 15.1 52.9 15.0 52.9 C 15.1 52.6 14.6 53.0 14.5 52.8 C 14.7 53.0 14.5 52.9 14.3 53.3 C 14.2 53.0 14.0 53.3 13.8 53.2 C 13.8 53.3 13.7 53.4 13.7 53.5 C 13.8 53.4 13.9 53.4 13.9 53.5 C 13.9 53.5 13.8 53.6 13.7 53.6 C 13.5 53.5 13.7 53.0 13.2 53.3 C 13.4 53.5 13.2 53.7 13.1 53.8 C 13.2 54.0 13.3 53.7 13.3 53.8 C 13.2 54.0 13.0 54.0 12.8 53.9 C 12.6 54.2 12.2 54.2 11.9 54.5 C 11.8 54.4 12.2 54.2 11.9 54.2 C 11.8 54.3 11.9 54.4 11.7 54.4 C 11.5 53.7 10.8 54.7 10.6 54.5 C 10.6 54.6 10.3 54.7 10.4 54.9 C 10.5 54.6 10.8 54.8 10.9 54.8 C 11.0 54.7 10.7 54.8 10.8 54.6 C 10.9 54.7 11.1 54.5 11.1 54.7 C 10.9 54.8 11.3 54.8 11.2 55.0 C 11.0 55.1 10.6 55.5 10.6 55.2 C 10.6 55.3 10.7 55.3 10.7 55.2 C 10.4 55.2 10.4 55.4 10.3 55.6 C 10.2 55.5 9.9 55.9 9.9 55.8 C 9.8 55.6 10.2 55.7 10.1 55.6 C 9.6 55.7 9.7 55.8 9.4 55.8 C 9.5 56.0 9.3 56.2 9.3 56.1 C 9.2 55.9 9.1 55.8 9.0 56.1 C 9.0 55.9 8.9 55.9 8.8 55.9 C 8.8 56.0 8.9 56.0 8.9 56.1 C 8.9 56.1 8.8 56.2 8.7 56.2 C 8.7 56.1 8.7 56.0 8.6 56.0 C 8.6 56.2 8.4 56.4 8.4 56.3 C 8.4 56.1 8.2 56.2 8.3 56.0 C 8.2 56.0 8.2 55.9 8.2 56.0 C 8.2 56.0 8.2 56.1 8.2 56.2 C 8.1 56.2 8.1 55.9 8.0 56.0 C 8.0 56.0 8.0 56.1 8.0 56.1 C 8.0 56.1 8.0 56.1 8.0 56.1 C 8.1 56.4 8.2 56.2 8.3 56.4 C 8.1 56.4 8.1 56.3 8.0 56.2 C 7.9 56.4 8.0 56.3 7.8 56.3 C 7.8 56.3 7.9 56.3 7.9 56.4 C 7.7 56.4 7.6 56.1 7.5 56.2 C 7.6 56.2 7.6 56.0 7.5 56.0 C 7.5 56.1 7.5 56.3 7.4 56.4 C 7.4 56.3 7.4 56.2 7.4 56.2 C 7.3 56.3 7.4 56.4 7.4 56.5 C 7.3 56.4 7.3 56.5 7.3 56.5 C 7.2 56.4 7.3 56.4 7.2 56.3 C 7.1 56.3 7.2 56.7 7.1 56.7 C 7.1 56.5 7.0 56.6 7.0 56.6 C 7.0 56.4 6.9 56.4 6.8 56.4 C 6.8 56.6 6.8 56.5 6.8 56.7 C 6.8 56.7 6.9 56.7 6.9 56.8 C 6.8 56.8 6.7 56.5 6.7 56.8 C 6.7 56.6 6.6 56.5 6.6 56.5 C 6.6 56.6 6.7 56.7 6.6 56.7 C 6.6 56.7 6.6 56.7 6.6 56.7 C 6.6 56.5 6.6 56.5 6.5 56.4 C 6.5 56.5 6.4 56.3 6.5 56.5 C 6.4 56.5 6.4 56.2 6.4 56.2 C 6.4 56.5 6.4 56.5 6.4 56.6 C 6.4 56.7 6.4 56.4 6.4 56.3 C 6.3 56.2 6.3 56.4 6.3 56.3 C 6.3 56.5 6.3 56.6 6.3 56.5 C 6.3 56.3 6.3 56.4 6.3 56.3 C 6.3 56.4 6.3 56.4 6.3 56.5 C 6.3 56.6 6.2 56.6 6.2 56.4 C 6.2 56.5 6.1 56.5 6.2 56.3 C 6.1 56.4 6.1 56.4 6.1 56.3 C 6.1 56.4 6.1 56.4 6.1 56.4 C 6.1 56.4 6.1 56.3 6.1 56.3 C 6.1 56.1 6.1 56.1 6.2 56.0 C 6.2 56.0 6.2 56.0 6.2 56.1 C 6.2 56.0 6.2 55.9 6.2 55.9 C 6.2 56.0 6.2 56.0 6.2 56.0 C 6.2 55.8 6.2 55.7 6.2 55.9 C 6.2 55.9 6.2 55.8 6.2 55.8 C 6.2 56.0 6.2 56.0 6.2 56.1 C 6.2 56.1 6.1 56.3 6.2 56.1 C 6.2 56.1 6.2 56.1 6.2 56.0 C 6.2 55.9 6.1 56.3 6.2 56.2 C 6.2 56.0 6.2 55.9 6.2 55.8 C 6.2 55.8 6.2 55.8 6.2 56.0 C 6.3 55.9 6.2 55.8 6.3 55.7 C 6.3 55.8 6.2 55.9 6.3 56.0 C 6.3 55.9 6.3 55.8 6.3 55.8 C 6.3 55.9 6.2 56.0 6.3 56.1 C 6.3 55.8 6.3 56.1 6.3 56.0 C 6.3 56.0 6.3 55.7 6.3 55.9 C 6.3 56.2 6.3 55.5 6.4 55.9 C 6.4 55.8 6.4 55.8 6.4 55.8 C 6.4 55.7 6.3 55.6 6.3 55.4 C 6.3 55.4 6.3 55.6 6.3 55.7 C 6.3 55.4 6.3 55.4 6.3 55.1 C 6.3 55.1 6.3 55.2 6.4 55.3 C 6.4 55.2 6.3 55.2 6.3 55.1 C 6.4 55.3 6.3 54.8 6.4 54.8 C 6.4 54.9 6.4 55.0 6.4 55.0 C 6.4 54.9 6.4 54.9 6.4 54.9 C 6.4 54.9 6.4 54.8 6.4 54.8 C 6.4 54.7 6.4 54.9 6.4 55.0 C 6.4 55.0 6.4 55.0 6.4 55.1 C 6.4 55.0 6.4 55.2 6.4 55.0 C 6.5 55.3 6.5 55.5 6.5 55.7 C 6.5 55.9 6.5 55.3 6.5 55.2 C 6.5 55.2 6.5 55.0 6.5 55.0 C 6.6 55.2 6.5 55.1 6.5 55.2 C 6.6 55.2 6.6 55.3 6.6 55.3 C 6.6 55.2 6.6 55.1 6.6 55.0 C 6.6 55.2 6.6 55.1 6.6 55.0 C 6.7 55.1 6.6 55.2 6.7 55.2 C 6.7 55.2 6.7 55.0 6.7 55.0 C 6.7 55.1 6.8 55.2 6.8 55.2 C 6.8 55.0 6.8 55.0 6.7 54.9 C 6.8 55.0 6.8 54.9 6.7 54.7 C 6.7 54.7 6.6 54.7 6.6 54.5 C 6.6 54.7 6.5 54.5 6.5 54.5 C 6.6 54.8 6.5 54.5 6.5 54.7 C 6.5 54.7 6.6 54.7 6.6 54.8 C 6.5 54.8 6.5 54.7 6.5 55.0 C 6.5 55.0 6.5 54.9 6.5 54.9 C 6.5 54.8 6.5 54.8 6.5 54.7 C 6.4 54.5 6.5 54.8 6.4 54.6 C 6.4 54.7 6.5 54.8 6.4 54.8 C 6.4 54.7 6.4 54.6 6.4 54.5 C 6.4 54.6 6.4 54.6 6.4 54.7 C 6.3 54.6 6.3 54.6 6.3 54.6 C 6.3 54.7 6.4 54.7 6.3 54.8 C 6.3 54.5 6.3 54.4 6.3 54.5 C 6.3 54.5 6.3 54.7 6.3 54.7 C 6.3 54.6 6.3 54.8 6.3 54.6 C 6.3 54.6 6.3 54.7 6.3 54.4 C 6.3 54.4 6.3 54.4 6.3 54.3 C 6.3 54.5 6.3 54.4 6.3 54.6 C 6.3 54.6 6.3 54.4 6.3 54.5 C 6.3 55.0 6.4 54.3 6.4 54.3 C 6.4 54.4 6.4 54.5 6.4 54.5 C 6.4 54.6 6.4 54.2 6.4 54.1 C 6.4 54.2 6.4 54.0 6.4 54.2 C 6.4 54.2 6.4 54.2 6.4 54.1 C 6.4 54.1 6.4 54.0 6.4 53.9 C 6.4 54.0 6.4 53.6 6.4 53.8 C 6.4 53.8 6.4 53.9 6.4 53.9 C 6.4 53.9 6.3 54.0 6.3 54.1 C 6.3 54.0 6.3 54.0 6.3 53.9 C 6.3 53.9 6.3 53.8 6.3 53.7 C 6.3 54.0 6.3 53.4 6.3 53.6 C 6.3 53.6 6.3 53.8 6.3 53.8 C 6.3 53.8 6.3 54.0 6.3 54.0 C 6.3 53.7 6.3 54.2 6.3 53.8 C 6.3 53.8 6.3 53.9 6.3 54.0 C 6.3 54.0 6.3 54.1 6.3 54.1 C 6.3 53.9 6.3 54.1 6.3 53.9 C 6.3 54.1 6.3 53.9 6.4 54.1 C 6.4 54.0 6.3 53.9 6.3 53.9 C 6.4 54.1 6.5 53.8 6.7 54.0 C 6.7 53.8 6.7 53.8 6.7 53.7 C 6.8 53.7 6.8 53.9 6.8 53.7 C 6.9 53.6 6.8 53.8 6.8 53.9 C 7.0 53.7 7.2 53.8 7.3 53.6 C 7.3 53.5 7.3 53.7 7.5 53.7 C 7.4 53.5 7.7 53.7 7.7 53.4 C 7.8 53.4 8.1 53.6 7.9 53.4 C 8.0 53.3 8.0 53.6 8.1 53.6 C 8.2 53.5 7.9 53.2 8.0 53.1 C 8.1 53.3 8.1 53.2 8.3 53.3 C 8.2 53.4 8.1 53.4 8.1 53.5 C 8.2 53.4 8.2 53.5 8.3 53.4 C 8.4 53.3 8.6 53.0 8.8 53.2 C 8.8 53.2 8.7 53.1 8.7 53.1 C 8.8 53.0 9.0 53.2 8.8 53.0 C 9.0 52.9 9.2 53.0 9.3 52.8 C 9.3 52.6 9.3 53.0 9.6 52.8 C 9.5 52.6 10.1 52.4 10.3 52.5 C 10.2 52.2 10.3 52.4 10.4 52.4 C 10.4 52.3 10.3 52.3 10.4 52.2 C 10.4 52.3 10.5 52.2 10.5 52.2 C 10.6 52.4 10.7 52.0 10.8 52.1 C 10.8 52.2 10.8 52.3 10.9 52.3 C 10.8 52.1 11.2 52.2 11.1 52.1 C 11.0 52.1 10.9 52.2 10.9 52.1 C 11.1 51.9 11.1 52.1 11.3 52.0 C 11.2 52.0 11.1 52.0 11.2 51.9 C 11.4 51.8 11.2 51.9 11.4 52.0 C 11.5 51.9 11.6 51.7 11.6 51.6 C 11.6 51.7 11.7 51.7 11.8 51.7 C 12.2 51.6 12.9 50.9 13.5 50.9 C 13.5 50.8 13.5 50.8 13.4 50.7 C 13.7 50.6 13.7 50.6 14.0 50.5 C 13.9 50.4 13.9 50.4 13.9 50.3 C 14.2 50.0 14.0 50.5 14.2 50.4 C 14.1 50.0 14.4 50.4 14.7 50.3 C 14.6 50.2 14.7 50.1 14.6 50.0 C 15.0 49.8 15.1 50.1 15.3 49.8 C 15.3 49.8 14.9 49.3 14.9 49.2 C 15.0 49.2 15.1 49.2 15.2 49.2 C 15.2 49.4 15.6 50.0 15.9 49.5 C 15.7 49.7 15.6 49.7 15.6 49.5 C 15.9 49.3 16.1 49.3 16.4 49.2 C 16.4 49.0 16.1 49.1 16.1 48.9 C 16.2 48.8 16.2 48.7 16.1 48.7 C 16.5 48.5 16.6 48.6 16.9 48.3 C 16.9 48.4 16.9 48.5 16.7 48.5 C 16.8 48.6 16.9 48.7 16.6 48.9 C 16.6 48.8 16.6 48.6 16.3 48.8 C 16.4 48.9 16.4 49.0 16.5 49.0 C 16.7 48.9 17.3 48.7 17.3 48.6 C 17.2 48.6 17.0 48.7 17.0 48.5 C 17.4 48.3 17.6 48.4 18.0 48.3 C 18.6 47.9 19.7 47.2 19.4 47.0 C 19.8 46.9 19.7 47.0 20.1 46.8 C 19.9 46.7 20.4 46.5 20.3 46.3 C 19.9 46.7 20.0 46.5 19.6 46.8 C 19.6 46.7 19.6 46.6 19.7 46.5 C 19.8 46.6 20.0 46.5 20.3 46.3 C 20.2 46.3 19.8 46.3 20.1 46.1 C 20.2 46.1 20.3 46.1 20.4 46.0 C 20.5 46.1 20.5 46.2 20.6 46.2 C 20.4 46.4 20.3 46.6 20.2 46.7 C 20.3 46.6 20.4 46.7 20.5 46.6 C 20.5 46.5 21.0 46.2 21.0 46.1 C 20.8 46.2 20.6 46.2 20.8 46.1 C 20.9 46.1 21.3 45.9 21.3 45.8 C 20.8 46.0 21.0 45.8 20.7 45.8 C 21.1 45.5 21.2 45.7 21.7 45.3 C 21.8 45.4 21.9 45.5 21.8 45.7 C 22.4 45.7 23.1 44.9 23.4 44.7 C 23.2 44.8 23.1 45.2 23.4 45.0 C 23.4 44.9 23.6 44.8 23.6 44.7 C 23.6 44.3 23.2 44.4 22.8 44.4 C 23.1 44.2 23.1 44.1 23.4 44.0 C 23.5 44.0 23.4 44.4 23.7 44.2 C 23.6 43.9 24.2 43.9 24.1 43.7 C 24.0 43.8 23.9 43.7 23.9 43.6 C 24.0 43.8 24.2 43.5 24.3 43.6 C 24.1 43.8 24.3 43.9 24.0 44.1 C 24.3 43.9 24.0 44.3 24.3 44.1 C 24.3 44.0 24.3 43.8 24.6 43.6 C 24.7 43.6 24.7 43.8 24.8 43.7 C 24.7 43.6 24.9 43.4 24.8 43.6 C 24.9 43.5 25.0 43.5 25.1 43.5 C 24.8 43.5 25.3 42.8 25.1 42.8 C 25.3 43.0 25.4 43.2 25.5 43.2 C 25.5 42.9 25.7 43.0 26.0 42.7 C 25.9 42.5 26.1 42.7 26.2 42.5 C 26.1 42.4 26.0 42.5 26.1 42.4 C 26.3 42.3 26.3 42.3 26.3 42.4 C 26.4 42.3 26.5 42.2 26.6 42.2 C 26.6 42.2 26.5 42.2 26.4 42.1 C 27.0 42.0 27.0 41.6 27.4 41.3 C 27.2 41.4 27.3 41.6 27.4 41.5 C 27.5 41.4 27.5 41.4 27.5 41.3 C 27.3 41.2 27.4 41.3 27.6 41.1 C 27.7 41.0 27.3 41.0 27.4 40.9 C 27.6 40.8 27.6 41.0 27.7 40.9 C 27.7 40.9 27.8 40.8 27.9 40.8 C 27.7 40.8 27.7 40.6 27.8 40.5 C 27.9 40.7 27.9 40.7 28.1 40.5 C 28.2 40.5 28.1 40.7 28.2 40.6 C 28.3 40.6 28.2 40.3 28.5 40.2 C 28.4 40.3 28.5 40.3 28.5 40.4 C 28.6 40.1 28.8 40.2 29.0 40.1 C 28.8 40.1 28.7 40.0 28.6 39.9 C 28.8 39.9 28.8 39.6 29.1 39.7 C 28.9 39.8 29.3 39.9 29.5 39.8 C 29.3 39.7 29.2 39.9 29.1 39.7 C 29.0 39.5 29.4 39.6 29.3 39.4 C 29.2 39.3 29.2 39.5 29.1 39.4 C 29.2 39.3 29.0 39.4 29.1 39.3 C 29.3 39.4 29.1 39.1 29.2 39.1 C 29.3 39.1 29.6 39.1 29.6 38.9 C 29.5 38.9 29.4 39.0 29.4 39.0 C 29.6 38.6 29.9 38.7 29.9 38.2 C 30.0 38.3 30.1 38.2 30.2 38.2 C 30.1 38.1 30.1 38.0 30.1 38.0 C 30.3 37.9 30.5 37.8 30.6 37.7 C 30.7 37.8 30.7 37.9 30.9 37.7 C 30.9 37.7 30.8 37.7 30.8 37.6 C 30.8 37.7 30.9 37.6 30.9 37.6 C 30.8 37.6 30.8 37.5 30.8 37.5 C 30.7 37.6 30.7 37.6 30.6 37.7 C 30.6 37.6 30.5 37.6 30.4 37.6 C 30.5 37.3 30.8 37.5 30.8 37.3 C 31.0 37.4 31.1 37.4 31.2 37.6 C 31.3 37.5 31.3 37.3 31.2 37.2 C 31.1 37.4 30.9 37.2 30.8 37.2 C 30.9 37.1 30.8 37.0 30.8 36.9 C 31.0 36.9 31.0 37.3 31.2 37.0 C 30.9 37.1 31.2 36.7 31.3 36.6 C 31.2 36.6 31.2 36.7 31.2 36.5 C 31.3 36.1 31.8 36.5 31.7 36.1 C 31.8 36.2 31.8 36.1 31.9 36.1 C 31.8 36.3 31.8 36.3 31.8 36.4 C 31.9 36.5 31.9 36.4 32.0 36.4 C 31.9 36.3 31.9 36.3 32.0 36.2 C 32.0 36.1 31.7 36.0 31.7 35.8 C 31.8 35.8 31.8 35.8 31.9 35.8 C 31.8 35.6 32.1 36.0 32.2 35.7 C 32.1 35.7 32.1 35.7 32.0 35.6 C 32.0 35.4 32.0 35.5 32.1 35.2 C 32.4 35.3 32.3 35.5 32.4 35.7 C 32.5 35.5 32.4 35.3 32.6 35.2 C 32.4 35.3 32.3 35.1 32.4 35.0 C 32.5 34.9 32.6 35.1 32.7 35.0 C 32.7 34.9 32.6 34.7 32.5 34.8 C 32.7 34.6 32.5 34.5 32.6 34.3 C 32.7 34.4 32.7 34.5 32.6 34.5 C 32.7 34.5 32.7 34.6 32.8 34.5 C 32.7 34.3 32.9 34.0 32.8 33.8 C 33.3 33.7 33.1 33.2 33.4 32.9 C 33.5 33.1 33.6 32.6 33.8 32.5 C 33.8 32.4 33.6 32.0 33.7 32.1 C 33.9 32.2 33.9 32.0 34.1 31.9 C 34.0 31.9 34.0 31.8 33.9 31.8 C 34.0 31.5 34.2 31.5 34.4 31.5 C 34.4 31.1 34.9 30.8 34.8 30.2 C 35.1 30.2 35.1 30.1 35.3 29.9 C 35.1 29.8 35.2 29.6 35.3 29.4 C 35.1 29.4 35.2 29.2 35.1 29.2 C 35.1 29.4 34.9 29.2 34.8 29.3 C 35.0 29.1 34.7 28.9 35.0 28.8 C 35.0 29.0 35.2 29.2 35.4 29.3 C 35.5 29.0 35.6 28.9 35.8 28.9 C 35.6 28.8 35.5 28.8 35.5 28.9 C 35.5 28.8 35.5 28.7 35.5 28.6 C 35.7 28.6 35.7 28.7 35.7 28.6 C 35.7 28.6 35.7 28.5 35.6 28.4 C 35.8 28.4 35.7 28.5 35.8 28.6 C 36.0 28.3 35.6 28.3 35.6 28.1 C 35.7 28.1 35.9 28.1 36.0 28.0 C 35.9 27.9 35.8 27.8 35.8 27.6 C 35.9 27.5 36.1 27.7 36.1 27.6 C 36.1 27.5 36.1 27.5 36.2 27.4 C 36.1 27.4 36.1 27.3 36.1 27.2 C 36.2 27.3 36.2 27.1 36.1 27.0 C 36.2 27.1 36.5 26.9 36.4 26.8 C 36.3 26.8 36.3 26.9 36.2 26.9 C 36.3 26.8 36.3 26.7 36.3 26.6 C 36.7 26.6 36.5 26.3 36.8 26.0 C 36.7 25.8 36.4 26.0 36.4 25.7 C 36.6 25.6 36.6 25.8 36.7 25.8 C 36.8 25.8 37.0 25.6 36.8 25.5 C 36.8 25.5 36.7 25.6 36.7 25.6 C 36.6 25.4 36.8 25.5 36.9 25.4 C 36.7 25.4 36.7 25.3 36.6 25.2 C 36.6 24.7 36.9 24.8 37.1 24.6 C 37.1 24.6 37.1 24.5 37.1 24.4 C 37.1 24.6 36.9 24.7 36.9 24.5 C 37.0 24.6 37.0 24.3 36.9 24.3 C 36.8 24.3 36.8 24.5 36.7 24.3 C 36.7 24.1 37.0 24.3 36.9 24.0 C 37.0 24.0 37.0 24.2 37.0 24.2 C 37.0 24.1 37.0 24.0 37.1 24.0 C 37.1 24.1 37.3 24.2 37.4 24.2 C 37.2 24.1 37.4 23.9 37.2 24.0 C 37.3 23.7 37.2 23.4 37.0 23.6 C 37.0 23.4 37.3 23.5 37.1 23.3 C 37.3 23.4 37.4 23.5 37.6 23.4 C 37.5 23.3 37.5 23.2 37.4 23.2 C 37.4 22.8 37.7 22.8 37.8 22.7 C 37.5 22.8 37.8 22.7 37.6 22.5 C 37.7 22.4 38.0 22.5 37.9 22.2 C 37.6 22.5 37.9 21.9 37.6 22.0 C 37.8 21.7 37.8 21.7 37.9 21.3 C 38.1 21.4 38.1 21.5 38.1 21.7 C 38.0 21.5 37.9 21.9 38.0 21.9 C 38.1 21.9 38.1 21.9 38.1 21.9 C 38.2 21.7 38.2 21.5 38.4 21.4 C 38.2 21.4 38.2 21.2 38.0 21.2 C 38.2 21.0 38.0 20.7 38.2 20.7 C 38.2 20.7 38.2 20.8 38.3 20.8 C 38.2 20.7 38.2 20.6 38.1 20.6 C 38.0 20.7 38.0 20.8 38.1 20.9 C 38.0 20.8 37.8 21.0 37.8 20.8 C 38.1 20.9 37.7 20.4 37.9 20.6 C 38.0 20.8 38.1 20.4 38.2 20.4 C 38.2 20.4 38.2 20.4 38.2 20.4 Z M 6.3 54.0 C 6.3 54.1 6.3 54.3 6.3 54.2 C 6.3 54.2 6.3 54.1 6.3 54.0 C 6.3 54.0 6.3 54.1 6.3 54.0 C 6.3 54.0 6.3 54.0 6.3 54.0 Z M 6.8 56.6 C 6.8 56.4 6.7 56.5 6.7 56.5 C 6.7 56.5 6.7 56.6 6.7 56.6 C 6.7 56.8 6.7 56.4 6.8 56.6 C 6.8 56.6 6.8 56.6 6.8 56.6 Z M 10.3 54.6 C 10.3 54.7 10.2 54.7 10.2 54.7 C 10.1 54.7 10.2 54.8 10.2 54.9 C 10.1 54.9 10.1 54.6 9.9 54.8 C 10.0 55.1 10.4 55.0 10.3 54.6 C 10.3 54.6 10.3 54.6 10.3 54.6 Z M 40.4 23.5 C 40.5 23.4 40.6 23.7 40.8 23.6 C 40.7 23.2 40.4 23.5 40.6 23.0 C 40.5 23.0 40.5 23.0 40.4 23.0 C 40.4 23.2 40.6 23.3 40.2 23.2 C 40.2 23.3 40.6 23.4 40.4 23.5 C 40.4 23.5 40.4 23.5 40.4 23.5 Z M 42.0 18.7 C 42.0 18.8 41.9 18.8 41.8 18.8 C 41.9 18.9 41.9 18.9 41.8 19.1 C 42.1 19.1 42.1 18.9 42.0 18.7 C 42.0 18.7 42.0 18.7 42.0 18.7 Z M 43.0 9.1 C 43.0 9.1 43.0 9.1 43.0 9.0 C 42.9 9.1 42.7 9.0 42.7 9.1 C 42.8 9.1 42.8 9.1 42.8 9.1 C 42.9 9.1 42.9 9.1 43.0 9.1 C 43.0 9.1 43.0 9.1 43.0 9.1 C 43.0 9.1 43.0 9.1 43.0 9.1 Z M 41.3 7.4 C 41.5 7.5 41.9 7.3 41.3 7.4 C 41.3 7.4 41.3 7.4 41.3 7.4 C 41.3 7.4 41.3 7.4 41.3 7.4 Z M 39.2 7.6 C 39.1 7.6 39.2 7.6 39.2 7.6 C 39.2 7.7 39.1 7.6 39.0 7.7 C 39.1 7.7 39.3 7.6 39.4 7.7 C 39.5 7.7 39.2 7.6 39.2 7.6 C 39.2 7.6 39.2 7.6 39.2 7.6 Z M 31.6 36.4 C 31.5 36.6 31.7 36.7 31.8 36.9 C 31.9 36.8 32.0 36.7 32.1 36.7 C 32.1 36.4 31.9 36.8 31.8 36.8 C 31.7 36.7 31.8 36.5 31.6 36.4 C 31.6 36.4 31.6 36.4 31.6 36.4 Z M 31.3 37.0 C 31.3 37.1 31.3 37.2 31.4 37.3 C 31.5 37.2 31.5 37.2 31.6 37.3 C 31.6 37.1 31.4 37.2 31.3 37.0 C 31.3 37.0 31.3 37.0 31.3 37.0 Z M 32.1 36.0 C 32.1 36.1 32.2 36.2 32.3 36.2 C 32.4 36.1 32.4 36.1 32.5 36.0 C 32.5 36.0 32.4 35.9 32.4 35.9 C 32.3 36.0 32.3 36.0 32.3 36.1 C 32.2 36.1 32.2 36.1 32.1 36.0 C 32.1 36.0 32.1 36.0 32.1 36.0 Z M 31.1 37.7 C 30.8 38.0 31.0 38.3 31.0 38.7 C 31.2 38.4 31.0 38.0 31.2 37.9 C 31.3 37.6 31.1 37.9 31.0 37.8 C 31.0 37.8 31.1 37.7 31.1 37.7 C 31.1 37.7 31.1 37.7 31.1 37.7 Z M 28.9 40.3 C 28.7 40.3 28.9 40.6 28.7 40.7 C 28.7 40.7 28.8 40.7 28.8 40.8 C 29.1 40.6 28.7 40.5 28.9 40.3 C 28.9 40.3 28.9 40.3 28.9 40.3 Z M 27.6 41.7 C 27.5 41.9 27.8 41.8 27.8 41.9 C 28.0 41.8 28.1 41.6 28.0 41.5 C 27.9 41.7 27.9 41.8 27.6 41.7 C 27.6 41.7 27.6 41.7 27.6 41.7 Z M 26.6 42.7 C 26.5 42.9 26.8 42.8 26.8 43.0 C 26.9 42.9 26.8 42.9 26.8 42.8 C 26.9 42.8 26.9 42.8 27.0 42.7 C 26.9 42.7 26.7 42.8 26.6 42.7 C 26.6 42.7 26.6 42.7 26.6 42.7 Z M 34.7 31.9 C 34.7 32.1 34.9 32.1 34.7 32.4 C 34.9 32.0 35.3 32.4 35.4 31.9 C 35.3 31.9 35.3 31.8 35.4 31.8 C 35.4 31.6 35.2 32.0 35.1 31.7 C 35.1 31.9 35.3 31.9 35.2 32.0 C 35.0 32.1 34.9 32.1 34.7 31.9 C 34.7 31.9 34.7 31.9 34.7 31.9 Z M 35.6 31.9 C 35.7 31.8 35.4 31.7 35.6 31.7 C 35.6 31.6 35.5 31.6 35.5 31.6 C 35.5 31.6 35.5 31.6 35.4 31.6 C 35.4 31.8 35.4 31.9 35.6 31.9 C 35.6 31.9 35.6 31.9 35.6 31.9 Z M 35.0 33.3 C 35.0 33.0 35.2 33.0 35.1 32.8 C 35.4 32.8 35.1 32.6 35.3 32.6 C 35.4 32.3 35.2 32.4 35.1 32.5 C 35.1 32.2 35.3 32.5 35.3 32.2 C 35.2 32.1 35.1 32.4 34.9 32.3 C 34.8 32.5 35.0 32.5 35.0 32.6 C 34.9 32.7 34.8 32.6 34.8 32.6 C 34.7 32.8 34.6 32.8 34.5 32.9 C 34.7 33.0 34.8 33.0 34.8 32.8 C 34.8 33.0 34.9 33.2 34.7 33.3 C 34.6 33.1 34.2 33.8 34.5 33.8 C 34.6 33.7 34.5 33.7 34.4 33.6 C 34.7 33.4 34.8 33.2 35.0 33.3 C 35.0 33.3 35.0 33.3 35.0 33.3 Z M 32.7 36.3 C 32.6 36.3 32.6 36.4 32.5 36.4 C 32.4 36.4 32.5 36.3 32.3 36.3 C 32.2 36.4 32.2 36.5 32.2 36.6 C 32.3 36.6 32.6 36.4 32.6 36.6 C 32.7 36.6 32.8 36.5 32.9 36.4 C 32.6 36.4 33.0 36.2 33.1 36.1 C 32.8 36.0 33.3 35.9 33.2 35.7 C 33.0 35.7 33.0 36.1 32.9 36.2 C 32.9 36.1 32.4 36.3 32.7 36.3 C 32.7 36.3 32.7 36.3 32.7 36.3 Z M 35.7 31.3 C 35.7 31.3 35.7 31.1 35.7 31.2 C 35.6 31.1 35.8 31.1 35.5 31.0 C 35.5 30.9 35.6 30.9 35.6 30.8 C 35.7 30.9 35.5 31.0 35.7 31.0 C 35.7 30.8 35.8 30.9 35.9 30.7 C 36.0 30.9 36.0 30.8 36.2 31.0 C 36.2 30.9 36.2 30.7 36.1 30.7 C 36.2 30.4 36.3 30.8 36.4 30.5 C 36.6 30.5 36.4 30.8 36.3 30.9 C 36.5 31.0 36.6 30.4 36.7 30.2 C 36.5 30.4 36.4 30.1 36.3 30.0 C 36.4 29.9 36.4 30.0 36.6 29.9 C 36.6 29.8 36.6 29.7 36.7 29.7 C 36.7 29.6 36.5 29.6 36.5 29.5 C 36.5 29.4 36.7 29.6 36.8 29.3 C 36.5 29.4 36.5 29.2 36.7 28.9 C 36.6 28.9 36.6 29.0 36.5 29.0 C 36.4 28.9 36.7 28.8 36.7 28.8 C 36.7 28.6 36.6 28.7 36.6 28.8 C 36.6 28.7 36.5 28.6 36.5 28.5 C 36.4 28.9 36.2 29.4 35.7 30.0 C 35.9 29.9 35.9 30.1 35.8 30.2 C 35.6 30.2 35.7 30.1 35.7 30.0 C 35.4 30.2 35.9 30.3 35.6 30.6 C 35.5 30.8 35.5 30.4 35.4 30.5 C 35.4 30.7 35.5 30.8 35.3 30.8 C 35.2 31.1 35.4 31.2 35.3 31.5 C 35.4 31.4 35.9 31.5 35.9 31.2 C 35.8 31.2 35.8 31.3 35.7 31.3 C 35.7 31.3 35.7 31.3 35.7 31.3 Z M 31.7 37.4 C 31.6 37.5 31.7 37.6 31.6 37.5 C 31.5 37.8 31.7 37.6 31.8 37.6 C 31.8 37.5 31.8 37.4 31.7 37.4 C 31.7 37.4 31.7 37.4 31.7 37.4 Z M 9.0 53.5 C 8.8 53.5 9.0 53.7 8.8 53.8 C 9.0 53.8 9.0 53.9 9.2 53.8 C 9.2 53.6 9.1 53.5 9.0 53.5 C 9.0 53.5 9.0 53.5 9.0 53.5 Z M 32.2 36.8 C 32.1 36.5 32.3 37.1 32.1 37.0 C 32.1 37.3 32.3 36.9 32.4 37.2 C 32.4 37.0 32.6 37.0 32.6 36.7 C 32.5 36.6 32.4 36.8 32.3 37.0 C 32.2 36.9 32.3 36.8 32.2 36.8 C 32.2 36.8 32.2 36.8 32.2 36.8 Z M 11.4 52.9 C 11.5 52.7 11.1 52.7 10.9 52.6 C 11.0 52.9 11.1 52.8 11.4 52.9 C 11.4 52.9 11.4 52.9 11.4 52.9 Z M 8.1 54.2 C 8.1 54.4 8.2 54.1 8.3 54.4 C 8.4 54.4 8.3 54.3 8.3 54.2 C 8.4 54.3 8.5 54.2 8.5 54.3 C 8.6 54.5 8.3 54.4 8.4 54.6 C 8.4 54.6 8.4 54.5 8.3 54.6 C 8.4 54.5 8.3 54.4 8.1 54.4 C 8.2 54.5 8.3 54.4 8.2 54.6 C 8.2 54.5 8.1 54.4 8.0 54.2 C 7.9 54.2 8.1 54.5 7.9 54.5 C 8.0 54.6 8.1 54.6 8.1 54.6 C 8.2 54.8 7.9 54.5 8.1 54.8 C 8.0 54.6 7.9 54.6 7.8 54.4 C 7.9 54.3 7.9 54.2 7.9 54.0 C 7.8 54.0 7.9 54.4 7.7 54.3 C 7.8 54.4 7.7 54.4 7.8 54.6 C 7.7 54.6 7.6 54.3 7.6 54.3 C 7.6 54.2 7.4 54.3 7.5 54.5 C 7.4 54.3 7.3 54.4 7.3 54.6 C 7.2 54.5 7.3 54.8 7.2 54.6 C 7.2 54.7 7.1 54.7 7.0 54.7 C 7.1 54.9 7.2 54.8 7.2 54.9 C 7.3 55.0 7.1 54.9 7.1 55.0 C 7.1 55.1 7.2 55.1 7.2 55.1 C 7.2 55.1 7.2 55.0 7.3 54.9 C 7.3 54.9 7.3 55.0 7.3 55.1 C 7.3 55.0 7.4 54.7 7.5 55.0 C 7.6 54.9 7.7 54.9 7.7 54.8 C 7.8 54.8 7.7 54.9 7.8 55.0 C 8.0 54.7 8.4 54.8 8.5 54.5 C 8.6 54.5 8.6 54.6 8.7 54.7 C 9.0 54.4 8.6 54.3 8.9 54.3 C 8.9 54.4 8.8 54.4 8.9 54.6 C 9.0 54.5 9.0 54.4 9.1 54.4 C 9.1 54.3 9.1 54.3 9.0 54.2 C 9.1 54.2 9.2 54.4 9.3 54.4 C 9.4 54.3 9.3 54.2 9.5 54.4 C 9.6 54.2 9.7 54.1 9.9 54.1 C 10.0 54.0 9.6 53.8 9.5 53.9 C 9.5 53.8 9.5 53.8 9.5 53.7 C 9.7 53.8 9.9 54.1 10.2 54.0 C 9.9 53.9 10.3 53.8 10.4 54.0 C 10.5 53.9 10.3 53.7 10.3 53.8 C 10.2 53.7 10.3 53.7 10.4 53.8 C 10.3 53.5 9.9 53.5 9.7 53.8 C 9.7 53.4 9.5 53.9 9.5 53.5 C 9.3 53.6 9.6 53.7 9.3 53.8 C 9.3 53.9 9.4 53.9 9.5 54.0 C 9.3 54.1 9.2 53.8 9.1 54.0 C 9.1 54.1 9.2 54.0 9.3 54.1 C 9.0 54.1 8.9 54.1 8.7 53.9 C 8.7 54.1 8.8 54.2 8.6 54.2 C 8.6 54.2 8.5 54.1 8.5 54.1 C 8.6 54.1 8.5 53.7 8.3 53.9 C 8.3 54.0 8.4 53.9 8.5 53.9 C 8.5 54.0 8.4 54.1 8.3 54.2 C 8.3 54.2 8.2 54.1 8.2 54.1 C 8.1 53.9 8.2 54.2 8.1 54.2 C 8.1 54.2 8.1 54.2 8.1 54.2 Z M 29.5 40.3 C 29.4 40.4 29.4 40.5 29.3 40.5 C 29.4 40.7 29.5 40.5 29.6 40.6 C 29.7 40.5 29.5 40.4 29.5 40.3 C 29.5 40.3 29.5 40.3 29.5 40.3 Z M 30.9 38.8 C 30.8 38.7 30.9 38.9 30.7 39.0 C 30.8 39.2 30.9 39.0 31.0 39.0 C 31.2 38.9 30.8 38.9 30.9 38.8 C 30.9 38.8 30.9 38.8 30.9 38.8 Z M 30.4 39.5 C 30.2 39.4 30.4 39.6 30.5 39.5 C 30.5 39.5 30.6 39.6 30.5 39.7 C 30.8 39.8 30.6 39.5 30.7 39.4 C 30.6 39.4 30.5 39.4 30.4 39.5 C 30.4 39.5 30.4 39.5 30.4 39.5 Z M 30.2 39.7 C 30.2 39.9 30.0 39.8 29.9 40.0 C 30.1 40.1 30.3 39.7 30.3 39.6 C 30.2 39.5 29.9 39.8 30.2 39.7 C 30.2 39.7 30.2 39.7 30.2 39.7 Z M 14.4 51.5 C 14.4 51.5 14.4 51.6 14.4 51.6 C 14.0 51.5 13.7 51.8 13.8 51.4 C 13.7 51.7 13.3 51.6 13.1 51.7 C 12.9 51.8 13.1 51.9 12.9 52.0 C 12.7 52.1 13.0 51.8 12.9 51.8 C 12.8 51.7 12.9 52.0 12.6 52.0 C 12.8 52.3 12.3 52.1 12.6 52.4 C 12.4 52.3 12.4 52.5 12.2 52.6 C 12.3 52.7 12.5 52.6 12.5 52.7 C 12.7 52.8 12.6 52.5 12.4 52.6 C 12.4 52.4 12.8 52.5 12.8 52.3 C 13.0 52.4 12.6 52.5 12.8 52.6 C 12.8 52.5 12.9 52.5 12.9 52.4 C 13.0 52.4 13.1 52.4 13.2 52.5 C 13.1 52.5 13.1 52.5 13.1 52.4 C 12.9 52.5 13.4 52.6 13.1 52.8 C 13.2 52.8 13.3 52.7 13.3 52.9 C 13.5 52.9 13.1 52.4 13.5 52.4 C 13.6 52.2 12.9 52.5 12.9 52.1 C 13.4 51.9 13.3 52.3 13.6 52.1 C 13.6 52.1 13.5 52.0 13.6 51.9 C 13.6 51.9 13.4 52.0 13.4 52.0 C 13.3 51.9 13.5 51.9 13.6 51.8 C 13.5 51.8 13.5 51.8 13.4 51.8 C 13.8 51.7 13.9 52.0 13.7 52.3 C 13.8 52.4 14.1 52.2 14.2 52.0 C 14.0 52.0 14.2 51.9 14.0 51.8 C 13.9 51.9 13.9 51.9 13.9 52.0 C 13.8 52.0 13.9 51.9 13.9 51.8 C 14.0 51.7 14.1 51.9 14.2 51.7 C 14.2 51.7 14.2 51.8 14.2 51.9 C 14.3 51.8 14.4 51.8 14.5 51.7 C 14.4 51.7 14.5 51.6 14.4 51.5 C 14.4 51.5 14.4 51.5 14.4 51.5 Z M 10.5 53.0 C 10.3 53.1 10.5 53.2 10.6 53.1 C 10.6 53.2 10.5 53.3 10.5 53.3 C 10.5 53.4 10.6 53.3 10.8 53.2 C 10.7 53.5 11.0 53.8 11.3 53.6 C 11.3 53.2 11.0 53.3 11.0 53.1 C 10.8 53.3 10.6 53.2 10.5 53.0 C 10.5 53.0 10.5 53.0 10.5 53.0 Z M 31.8 37.6 C 31.8 37.8 31.7 37.9 31.6 38.0 C 31.7 38.1 32.1 37.8 31.8 37.6 C 31.8 37.6 31.8 37.6 31.8 37.6 Z M 36.8 28.3 C 36.8 28.3 36.9 28.3 36.9 28.3 C 36.9 28.1 36.7 28.3 36.6 28.2 C 36.6 28.3 36.6 28.3 36.6 28.4 C 36.6 28.4 36.8 28.2 36.8 28.4 C 36.9 28.4 36.9 28.4 36.8 28.3 C 36.8 28.3 36.8 28.3 36.8 28.3 Z M 29.7 40.4 C 29.7 40.5 29.9 40.6 29.6 40.8 C 29.8 40.8 29.9 40.7 30.0 40.6 C 29.9 40.5 29.8 40.4 29.7 40.4 C 29.7 40.4 29.7 40.4 29.7 40.4 Z M 15.6 50.5 C 15.3 50.4 15.4 50.8 15.0 51.0 C 15.3 51.1 15.4 50.7 15.6 50.5 C 15.6 50.5 15.6 50.5 15.6 50.5 Z M 7.0 55.0 C 7.0 55.1 7.0 55.1 7.0 55.2 C 7.1 55.1 7.0 55.0 7.1 55.0 C 7.0 54.8 6.9 55.0 6.8 54.7 C 6.8 54.8 6.8 55.0 6.8 55.1 C 6.9 55.1 6.9 55.1 6.9 55.2 C 6.8 54.9 7.0 55.3 7.0 55.0 C 7.0 55.0 7.0 55.0 7.0 55.0 Z M 11.4 52.9 C 11.6 52.9 11.4 53.1 11.5 53.2 C 11.4 53.3 11.3 53.1 11.3 53.0 C 11.2 53.1 11.2 53.2 11.3 53.3 C 11.5 53.3 11.8 53.1 11.7 53.4 C 12.0 53.4 11.7 53.2 11.8 53.1 C 12.0 53.2 11.9 53.3 12.0 53.4 C 12.0 53.4 12.1 53.1 12.2 53.3 C 12.4 52.9 12.1 52.8 11.7 52.6 C 11.6 52.9 11.9 52.8 11.4 52.9 C 11.4 52.9 11.4 52.9 11.4 52.9 Z M 24.2 45.5 C 24.1 45.5 23.9 45.6 23.8 45.6 C 23.6 45.9 23.5 46.2 23.3 46.6 C 23.5 46.7 23.7 46.3 23.5 46.3 C 23.7 46.3 24.0 46.2 24.2 46.2 C 24.5 46.0 24.4 45.6 24.6 45.9 C 24.8 45.6 24.9 45.6 25.1 45.5 C 24.6 45.5 25.2 45.3 25.1 45.1 C 24.9 45.2 24.5 45.5 24.6 45.6 C 24.3 45.8 23.9 45.9 23.8 45.8 C 23.8 45.7 24.0 45.6 24.2 45.5 C 24.2 45.5 24.2 45.5 24.2 45.5 Z M 22.8 47.0 C 22.9 46.9 23.0 46.8 23.2 46.7 C 23.1 46.7 23.0 46.7 22.9 46.6 C 22.6 46.8 22.6 46.9 22.4 46.9 C 22.1 47.0 22.6 47.0 22.1 47.3 C 22.2 47.3 22.4 47.1 22.4 47.2 C 22.4 47.1 22.6 46.9 22.8 47.0 C 22.8 47.0 22.8 47.0 22.8 47.0 Z M 18.9 49.0 C 18.6 49.2 19.1 49.0 19.0 49.2 C 19.1 49.2 19.7 48.9 19.7 49.1 C 20.0 49.2 20.3 48.4 20.4 48.7 C 20.6 48.6 20.5 48.5 20.5 48.4 C 20.1 48.7 20.0 48.6 20.3 48.4 C 20.2 48.4 19.9 48.6 19.8 48.7 C 19.8 48.8 20.0 48.7 20.0 48.8 C 19.6 48.9 19.3 49.0 18.9 49.0 C 18.9 49.0 18.9 49.0 18.9 49.0 Z M 39.1 21.0 C 39.0 21.1 39.1 21.2 39.1 21.3 C 39.2 21.3 39.1 21.2 39.1 21.1 C 39.2 21.1 39.2 21.2 39.2 21.3 C 39.4 21.2 39.3 20.9 39.1 21.0 C 39.1 21.0 39.1 21.0 39.1 21.0 Z M 38.8 22.3 C 38.8 22.4 38.8 22.5 38.9 22.6 C 39.0 22.6 38.8 22.5 38.9 22.4 C 38.9 22.4 39.0 22.4 39.1 22.3 C 39.1 22.3 39.0 22.3 39.0 22.2 C 39.0 22.2 39.0 22.2 39.0 22.2 C 38.9 22.0 39.0 22.4 38.8 22.3 C 38.8 22.3 38.8 22.3 38.8 22.3 Z M 21.0 47.9 C 21.1 47.9 21.2 48.0 21.5 47.8 C 21.4 47.7 21.7 47.5 21.9 47.4 C 21.5 47.5 21.4 47.6 21.0 47.9 C 21.0 47.9 21.0 47.9 21.0 47.9 Z M 36.3 31.0 C 36.1 31.2 36.4 31.3 36.1 31.5 C 36.2 31.5 36.2 31.6 36.3 31.6 C 36.2 31.3 36.4 31.3 36.3 31.0 C 36.3 31.0 36.3 31.0 36.3 31.0 Z M 40.2 8.1 C 40.3 8.1 40.3 8.1 40.4 8.1 C 40.1 8.1 40.6 8.0 40.5 7.9 C 40.6 7.9 40.6 7.9 40.6 7.9 C 40.7 7.8 40.4 8.0 40.2 8.0 C 40.3 8.1 40.1 8.1 40.2 8.1 C 40.2 8.1 40.2 8.1 40.2 8.1 Z M 7.9 55.3 C 7.9 55.2 7.9 55.2 7.8 55.2 C 7.8 55.2 7.8 55.3 7.8 55.3 C 7.9 55.5 8.0 55.6 8.0 55.8 C 8.0 55.8 8.0 55.8 8.0 55.8 C 8.0 55.2 8.4 56.0 8.5 55.6 C 8.6 55.5 8.5 55.5 8.5 55.4 C 8.5 55.5 8.5 55.4 8.5 55.4 C 8.5 55.6 8.2 55.5 8.3 55.3 C 8.2 55.3 8.2 55.3 8.2 55.3 C 8.2 55.4 8.2 55.4 8.2 55.4 C 8.2 55.4 8.3 55.4 8.3 55.5 C 8.2 55.5 8.0 55.5 8.0 55.2 C 8.0 55.3 8.0 55.4 7.9 55.5 C 7.9 55.5 7.8 55.3 7.9 55.3 C 7.9 55.3 7.9 55.3 7.9 55.3 Z M 7.2 55.6 C 7.1 55.5 7.2 55.7 7.1 55.7 C 7.2 55.8 7.2 55.6 7.3 55.7 C 7.3 55.7 7.2 55.6 7.2 55.6 C 7.2 55.6 7.2 55.6 7.2 55.6 Z M 9.2 55.1 C 9.3 55.3 9.4 55.3 9.5 55.2 C 9.5 55.0 9.3 55.0 9.2 55.1 C 9.2 55.1 9.2 55.1 9.2 55.1 Z M 8.7 55.3 C 8.6 55.4 8.8 55.3 8.8 55.5 C 8.9 55.5 8.9 55.5 9.0 55.5 C 9.0 55.5 9.0 55.4 9.0 55.4 C 9.0 55.2 8.9 55.4 8.9 55.2 C 8.8 55.4 8.8 55.4 8.7 55.3 C 8.7 55.3 8.7 55.3 8.7 55.3 Z M 8.6 55.3 C 8.5 55.4 8.7 55.7 8.8 55.6 C 8.7 55.5 8.7 55.4 8.6 55.3 C 8.6 55.3 8.6 55.3 8.6 55.3 Z M 27.8 43.9 C 27.8 44.0 27.9 44.1 27.8 44.2 C 27.9 44.3 28.3 43.9 28.0 44.2 C 28.2 44.3 28.1 44.0 28.3 43.9 C 28.2 43.9 28.1 43.9 28.2 43.8 C 28.1 43.7 27.9 44.1 27.8 43.9 C 27.8 43.9 27.8 43.9 27.8 43.9 Z M 27.5 44.3 C 27.4 44.3 27.5 44.3 27.5 44.3 C 27.5 44.4 27.4 44.4 27.3 44.5 C 27.3 44.4 27.6 44.6 27.7 44.7 C 28.0 44.4 27.6 44.4 27.5 44.3 C 27.5 44.3 27.5 44.3 27.5 44.3 Z M 27.2 44.6 C 26.9 44.7 26.6 44.9 26.6 45.2 C 26.9 45.3 27.3 44.9 27.2 44.6 C 27.2 44.6 27.2 44.6 27.2 44.6 Z M 29.3 42.9 C 28.8 43.0 28.3 43.9 29.1 43.4 C 28.9 43.4 29.3 42.9 29.6 42.8 C 29.5 42.7 29.7 42.4 29.7 42.5 C 29.8 42.2 29.1 42.8 29.3 42.9 C 29.3 42.9 29.3 42.9 29.3 42.9 Z M 26.5 45.7 C 26.6 45.5 26.2 45.4 26.5 45.3 C 26.6 45.2 26.4 45.3 26.4 45.2 C 26.2 45.3 25.8 45.8 25.7 45.7 C 25.6 45.8 25.8 45.8 25.4 46.1 C 25.4 46.2 26.1 45.4 26.4 45.6 C 26.5 45.6 26.2 45.9 26.5 45.7 C 26.5 45.7 26.5 45.7 26.5 45.7 Z M 37.3 31.4 C 37.2 31.4 37.2 31.7 37.0 31.6 C 37.2 31.8 37.0 31.9 37.0 32.1 C 37.0 32.2 36.7 32.1 36.6 32.3 C 36.7 32.4 36.7 32.2 36.8 32.4 C 36.7 32.6 36.6 32.5 36.5 32.8 C 36.8 32.8 36.3 33.3 36.6 33.4 C 36.6 33.3 36.5 33.2 36.6 33.0 C 36.7 32.9 36.8 33.0 36.8 32.9 C 36.9 33.1 36.7 33.1 36.7 33.2 C 36.9 33.3 36.9 33.1 37.1 33.1 C 37.1 33.0 37.0 33.1 36.9 33.0 C 37.0 32.7 37.3 33.2 37.4 32.9 C 37.2 32.9 37.2 32.9 37.0 32.7 C 37.2 32.7 37.2 32.2 37.3 32.5 C 37.4 32.6 37.4 32.3 37.2 32.2 C 37.3 32.1 37.3 32.1 37.4 32.1 C 37.5 31.8 37.4 31.7 37.2 31.7 C 37.0 31.6 37.3 31.6 37.3 31.4 C 37.3 31.4 37.3 31.4 37.3 31.4 Z M 31.2 41.0 C 31.2 40.8 31.1 41.2 30.9 41.3 C 31.1 41.2 31.2 41.4 31.4 41.2 C 31.3 41.2 31.3 41.2 31.4 41.1 C 31.3 41.0 31.0 41.2 31.2 41.0 C 31.2 41.0 31.2 41.0 31.2 41.0 Z M 24.5 46.6 C 24.3 46.6 23.6 47.2 23.3 47.4 C 23.5 47.6 24.2 46.6 24.4 46.8 C 24.6 46.7 24.3 46.8 24.5 46.6 C 24.5 46.6 24.5 46.6 24.5 46.6 Z M 35.9 34.0 C 35.9 34.1 35.9 34.1 35.9 34.1 C 36.0 34.1 35.9 34.3 35.8 34.4 C 36.0 34.3 36.0 34.5 36.2 34.5 C 36.1 34.6 36.1 34.7 36.2 34.7 C 35.8 34.5 36.1 35.2 36.4 34.8 C 36.2 34.8 36.2 34.8 36.2 34.6 C 36.5 34.4 36.4 34.2 36.6 34.2 C 36.6 34.1 36.6 34.0 36.7 33.8 C 36.8 33.8 37.0 33.7 37.1 33.9 C 37.3 33.6 36.8 33.6 36.9 33.4 C 37.1 33.2 37.0 33.6 37.2 33.6 C 37.2 33.5 37.3 33.6 37.3 33.6 C 37.3 33.5 37.2 33.4 37.1 33.5 C 37.1 33.4 37.1 33.1 37.2 33.3 C 37.2 33.1 36.6 33.3 36.7 33.6 C 36.7 33.7 36.4 33.5 36.4 33.4 C 36.3 33.4 36.5 33.8 36.2 33.6 C 36.2 33.7 36.1 33.8 36.1 33.9 C 36.1 33.9 36.2 33.8 36.2 33.9 C 36.2 33.9 36.1 34.0 36.1 34.1 C 36.1 34.0 36.0 34.0 35.9 34.0 C 35.9 34.0 35.9 34.0 35.9 34.0 Z M 25.9 45.8 C 25.8 45.9 25.8 46.0 25.7 46.1 C 25.8 46.2 26.1 45.9 25.9 45.8 C 25.9 45.8 25.9 45.8 25.9 45.8 Z M 38.3 30.4 C 38.3 30.4 38.2 30.5 38.1 30.5 C 38.2 30.3 38.0 30.5 37.8 30.2 C 37.8 30.5 38.2 30.8 38.4 30.4 C 38.5 30.1 38.2 30.7 38.3 30.4 C 38.3 30.4 38.3 30.4 38.3 30.4 Z M 37.9 31.2 C 37.9 31.4 38.1 31.0 38.2 31.0 C 38.3 31.0 38.3 31.0 38.4 31.0 C 38.2 30.7 38.0 31.0 37.8 30.6 C 37.6 30.9 37.5 31.0 37.5 31.2 C 37.5 31.3 37.5 31.2 37.5 31.2 C 37.6 31.0 37.8 31.2 37.6 31.4 C 37.7 31.4 37.8 31.2 37.9 31.1 C 37.8 31.1 37.7 31.1 37.7 31.1 C 37.7 30.9 37.8 31.0 37.9 30.9 C 37.9 30.9 38.0 31.3 37.9 31.2 C 37.9 31.2 37.9 31.2 37.9 31.2 Z M 41.0 17.5 C 41.0 17.6 41.2 17.4 41.5 17.4 C 41.5 17.3 41.5 17.3 41.5 17.2 C 41.3 17.2 41.3 17.4 41.2 17.4 C 41.0 17.3 41.3 17.2 41.1 17.1 C 40.9 17.0 41.2 17.5 41.0 17.5 C 41.0 17.5 41.0 17.5 41.0 17.5 Z M 34.3 37.4 C 34.3 37.5 34.3 37.5 34.4 37.5 C 34.4 37.5 34.3 37.6 34.3 37.6 C 34.2 37.7 34.4 37.6 34.3 37.7 C 34.4 37.8 34.4 37.5 34.4 37.5 C 34.5 37.3 34.6 37.6 34.7 37.6 C 34.8 37.4 34.6 37.4 34.8 37.2 C 34.6 37.3 34.5 37.3 34.3 37.4 C 34.3 37.4 34.3 37.4 34.3 37.4 Z M 38.2 29.8 C 38.1 29.7 38.4 30.0 38.1 30.2 C 38.1 30.4 38.4 30.1 38.3 30.3 C 38.4 30.1 38.4 29.8 38.4 29.5 C 38.4 29.4 38.3 29.9 38.3 29.6 C 38.2 29.6 38.2 29.7 38.2 29.7 C 38.2 29.8 38.2 29.8 38.2 29.8 C 38.2 29.8 38.2 29.8 38.2 29.8 Z M 38.5 30.2 C 38.5 30.2 38.5 30.1 38.5 30.1 C 38.5 30.0 38.7 30.1 38.7 30.2 C 38.9 30.1 38.5 30.0 38.7 29.8 C 38.5 29.9 38.4 29.9 38.6 29.7 C 38.5 29.5 38.4 30.1 38.5 30.2 C 38.5 30.2 38.5 30.2 38.5 30.2 Z M 40.8 19.5 C 40.9 19.5 40.9 19.4 40.9 19.3 C 41.0 19.4 40.8 20.0 40.7 20.0 C 40.7 20.1 40.8 20.1 40.7 20.1 C 40.8 20.1 40.8 20.3 40.9 20.2 C 40.9 20.3 40.9 20.4 41.0 20.4 C 40.9 20.6 40.8 20.3 40.7 20.4 C 40.9 20.6 40.7 20.5 40.6 20.8 C 40.8 20.8 40.8 20.5 41.1 20.5 C 40.9 20.3 41.1 20.1 41.3 20.0 C 41.0 20.1 41.0 19.3 41.1 19.0 C 41.2 19.0 41.2 18.9 41.3 18.8 C 41.5 18.7 41.1 18.7 41.1 18.9 C 41.0 18.8 41.2 18.6 41.1 18.5 C 41.0 18.6 40.9 18.5 40.9 18.6 C 40.8 18.8 40.9 18.6 41.0 18.7 C 41.0 18.7 41.0 18.8 41.0 18.9 C 40.8 18.5 40.9 19.3 40.9 19.0 C 40.9 19.3 40.7 19.3 40.8 19.5 C 40.8 19.5 40.8 19.5 40.8 19.5 Z M 39.4 26.0 C 39.4 26.1 39.4 26.3 39.3 26.3 C 39.3 26.6 39.6 26.4 39.5 26.8 C 39.5 26.8 39.5 26.6 39.6 26.6 C 39.6 26.5 39.6 26.4 39.4 26.3 C 39.5 26.2 39.4 26.1 39.4 26.0 C 39.5 26.1 39.5 26.2 39.5 26.3 C 39.6 26.3 39.7 26.3 39.8 26.1 C 39.6 26.0 39.5 26.0 39.4 26.0 C 39.4 26.0 39.4 26.0 39.4 26.0 Z M 39.4 26.8 C 39.3 26.8 39.3 26.9 39.2 26.8 C 39.0 26.9 39.4 26.9 39.4 27.0 C 39.3 27.1 39.3 27.1 39.2 27.1 C 39.2 27.2 39.2 27.3 39.1 27.3 C 39.1 27.6 39.3 27.2 39.4 27.1 C 39.5 27.0 39.3 27.0 39.4 26.8 C 39.4 26.8 39.4 26.8 39.4 26.8 Z M 38.5 28.9 C 38.4 28.9 38.6 29.1 38.5 29.2 C 38.7 29.1 38.7 28.9 38.8 29.1 C 39.0 28.9 39.0 28.9 39.0 28.7 C 39.2 28.6 38.8 28.6 38.9 28.9 C 38.8 28.8 38.8 28.7 38.7 28.7 C 39.1 28.6 38.7 28.1 38.9 28.4 C 38.8 28.5 38.8 28.5 38.7 28.5 C 38.8 28.6 38.6 29.1 38.5 28.9 C 38.5 28.9 38.5 28.9 38.5 28.9 Z M 35.5 36.2 C 35.6 35.9 35.6 35.9 35.8 35.6 C 35.9 35.6 35.9 35.7 35.9 35.7 C 36.0 35.7 36.0 35.6 36.0 35.5 C 36.0 35.4 36.0 35.5 36.0 35.5 C 35.8 35.7 35.9 35.5 35.7 35.4 C 35.4 35.6 35.6 36.0 35.3 36.0 C 35.3 36.1 35.4 36.0 35.5 36.2 C 35.5 36.2 35.5 36.2 35.5 36.2 Z M 41.7 8.2 C 41.6 8.2 41.6 8.1 41.5 8.1 C 41.5 8.2 41.6 8.2 41.6 8.2 C 41.7 8.2 41.9 8.2 41.9 8.1 C 41.8 8.1 41.7 8.1 41.7 8.2 C 41.7 8.2 41.7 8.2 41.7 8.2 Z M 38.8 28.2 C 38.9 28.2 39.0 28.3 39.0 28.3 C 39.1 28.4 39.1 28.2 39.2 28.2 C 39.2 28.1 39.1 28.1 39.1 28.0 C 39.0 28.0 39.0 28.2 38.9 28.1 C 38.9 28.0 38.9 28.0 39.0 28.0 C 38.9 27.8 38.8 28.1 38.8 28.2 C 38.8 28.2 38.8 28.2 38.8 28.2 Z M 41.2 16.9 C 41.2 17.0 41.3 16.9 41.3 16.8 C 41.5 17.0 41.6 16.8 41.8 16.8 C 41.7 16.8 41.7 17.1 41.7 17.1 C 41.7 17.2 41.9 17.1 41.9 17.3 C 42.0 17.3 41.9 17.1 41.8 17.1 C 42.0 17.1 41.8 16.9 42.0 16.9 C 42.1 16.7 41.9 16.6 41.7 16.5 C 41.8 16.8 41.5 16.6 41.5 16.9 C 41.4 16.9 41.5 16.8 41.5 16.7 C 41.3 16.7 41.3 16.8 41.2 16.9 C 41.2 16.9 41.2 16.9 41.2 16.9 Z M 40.0 23.8 C 40.0 23.9 40.2 24.0 40.3 24.0 C 40.3 23.9 40.3 23.8 40.3 23.7 C 40.2 23.7 40.2 23.9 40.0 23.8 C 40.0 23.8 40.0 23.8 40.0 23.8 Z M 41.3 17.9 C 41.3 17.9 41.3 18.0 41.3 18.0 C 41.3 18.1 41.2 18.2 41.1 18.2 C 41.1 18.3 41.2 18.3 41.3 18.3 C 41.2 18.1 41.4 18.2 41.4 18.0 C 41.4 18.0 41.3 18.0 41.3 17.9 C 41.3 17.9 41.3 17.9 41.3 17.9 Z M 40.5 22.3 C 40.5 22.4 40.5 22.4 40.5 22.4 C 40.7 22.5 40.5 22.7 40.6 22.9 C 40.7 22.9 40.7 22.6 40.7 23.0 C 40.9 22.9 40.8 22.5 40.9 22.4 C 41.1 22.4 41.0 22.7 41.2 22.7 C 41.1 22.5 41.1 22.2 40.8 22.1 C 40.7 22.4 40.6 22.3 40.5 22.3 C 40.5 22.3 40.5 22.3 40.5 22.3 Z M 40.7 22.0 C 40.6 22.0 40.7 22.1 40.6 22.2 C 40.9 22.1 40.8 22.0 40.9 21.6 C 40.9 21.6 40.8 21.6 40.8 21.6 C 40.8 21.6 40.8 21.5 40.8 21.4 C 40.6 21.7 40.7 21.8 40.7 22.1 C 40.7 22.1 40.7 22.1 40.7 22.0 C 40.7 22.0 40.7 22.0 40.7 22.0 Z M 37.8 31.6 C 38.0 31.6 38.1 31.5 38.2 31.4 C 38.0 31.3 37.9 31.4 37.8 31.6 C 37.8 31.6 37.8 31.6 37.8 31.6 Z M 41.5 17.7 C 41.4 17.5 41.4 17.8 41.6 17.8 C 41.7 17.6 41.8 17.5 42.0 17.5 C 41.8 17.2 41.7 17.7 41.5 17.7 C 41.5 17.7 41.5 17.7 41.5 17.7 Z M 41.7 18.9 C 41.7 19.0 41.4 18.9 41.6 18.9 C 41.6 18.7 41.4 19.0 41.5 18.7 C 41.4 18.8 41.3 19.1 41.4 19.2 C 41.5 19.3 41.5 19.0 41.7 19.0 C 41.7 19.0 41.7 19.0 41.7 19.1 C 41.8 19.1 41.7 19.0 41.7 18.9 C 41.7 18.9 41.7 18.9 41.7 18.9 Z M 41.3 19.8 C 41.4 19.7 41.5 19.6 41.5 19.4 C 41.4 19.5 41.2 19.6 41.3 19.8 C 41.3 19.8 41.3 19.8 41.3 19.8 Z M 42.3 9.8 C 42.3 9.9 42.5 9.8 42.6 9.8 C 42.6 9.7 42.5 9.7 42.5 9.6 C 42.3 9.6 42.5 9.7 42.3 9.8 C 42.3 9.8 42.3 9.8 42.3 9.8 Z M 42.4 9.4 C 42.6 9.4 42.5 9.3 42.6 9.3 C 42.3 9.2 42.8 9.1 42.6 9.1 C 42.6 9.1 42.6 9.1 42.6 9.0 C 42.3 9.1 42.4 9.3 42.4 9.4 C 42.4 9.4 42.4 9.4 42.4 9.4 Z M 41.5 21.0 C 41.4 21.2 41.7 21.0 41.7 21.2 C 41.8 21.2 41.9 20.9 41.9 21.1 C 42.1 20.9 41.5 21.1 41.5 21.0 C 41.5 21.0 41.5 21.0 41.5 21.0 Z M 40.9 24.5 C 40.8 24.5 40.8 24.8 40.8 24.9 C 40.8 24.9 40.8 24.8 40.9 24.7 C 40.9 24.8 41.0 24.8 41.0 24.9 C 41.1 24.9 40.9 24.6 40.9 24.5 C 40.9 24.5 40.9 24.5 40.9 24.5 Z M 38.4 20.2 C 38.6 20.1 38.8 20.0 38.6 19.9 C 38.7 19.8 38.7 20.0 38.9 19.8 C 38.8 19.6 39.0 19.8 38.9 19.5 C 39.1 19.5 39.2 19.3 39.3 19.3 C 39.3 19.4 39.1 19.6 39.3 19.6 C 39.3 19.5 39.4 19.6 39.3 19.7 C 39.2 19.8 39.1 19.4 39.0 19.6 C 39.2 19.7 38.7 20.0 38.7 20.2 C 38.6 20.1 38.4 20.3 38.4 20.2 C 38.4 20.2 38.4 20.2 38.4 20.2 Z M 39.0 19.1 C 39.0 18.9 39.4 18.9 39.4 18.9 C 39.3 18.9 39.3 19.1 39.3 19.1 C 39.3 19.1 39.4 19.1 39.4 19.1 C 39.3 19.4 39.2 19.2 39.1 19.3 C 39.0 19.1 39.1 19.1 39.1 19.0 C 39.0 19.1 39.0 19.1 39.0 19.1 C 39.0 19.1 39.0 19.1 39.0 19.1 Z M 42.4 16.2 C 42.3 16.2 42.4 16.2 42.4 16.3 C 42.1 16.3 42.5 16.6 42.3 16.6 C 42.2 16.6 42.2 16.4 42.2 16.3 C 42.1 16.4 42.1 16.4 42.1 16.5 C 42.0 16.5 42.0 16.3 41.9 16.2 C 42.0 16.2 41.9 16.1 41.9 16.1 C 42.0 16.4 42.4 16.0 42.4 16.2 C 42.4 16.2 42.4 16.2 42.4 16.2 Z M 41.4 22.7 C 41.6 22.7 42.1 22.5 42.2 22.8 C 42.1 22.9 41.9 22.9 41.7 22.8 C 41.7 23.0 41.6 23.0 41.7 23.2 C 41.1 23.4 41.8 22.9 41.4 22.7 C 41.4 22.7 41.4 22.7 41.4 22.7 Z M 41.3 23.9 C 41.2 23.8 41.2 23.9 41.0 23.9 C 41.2 23.7 41.1 23.3 41.2 23.4 C 41.2 23.6 41.4 23.6 41.3 23.9 C 41.3 23.9 41.3 23.9 41.3 23.9 Z M 17.6 51.2 C 17.9 50.9 18.2 51.1 18.1 51.3 C 18.1 51.1 17.6 51.5 17.6 51.2 C 17.6 51.2 17.6 51.2 17.6 51.2 Z M 27.0 41.5 C 26.8 41.5 26.8 41.7 26.6 41.6 C 26.8 41.4 26.8 41.5 27.0 41.4 C 26.9 41.3 27.0 41.2 27.0 41.2 C 27.0 41.3 27.1 41.4 27.0 41.5 C 27.0 41.5 27.0 41.5 27.0 41.5 Z M 36.1 27.0 C 36.0 27.0 35.9 27.1 35.8 27.0 C 35.9 26.8 35.9 26.6 35.8 26.4 C 35.9 26.4 36.0 26.4 36.1 26.4 C 35.9 26.7 36.0 26.9 36.1 27.0 C 36.1 27.0 36.1 27.0 36.1 27.0 Z M 35.6 27.3 C 35.7 27.4 35.9 27.3 35.8 27.5 C 35.7 27.4 35.5 27.6 35.5 27.5 C 35.6 27.5 35.6 27.4 35.6 27.3 C 35.6 27.3 35.6 27.3 35.6 27.3 Z M 38.8 16.6 C 38.8 16.5 38.6 16.7 38.6 16.7 C 38.6 16.6 38.6 16.4 38.7 16.4 C 38.7 16.5 39.0 16.6 38.8 16.6 C 38.8 16.6 38.8 16.6 38.8 16.6 Z M 38.9 18.9 C 38.9 19.3 38.6 19.1 38.5 19.4 C 38.4 19.2 38.5 19.0 38.3 18.9 C 38.5 18.9 38.5 18.8 38.6 18.8 C 38.6 18.9 38.5 19.0 38.5 19.1 C 38.7 19.1 38.6 19.0 38.8 19.1 C 38.8 19.0 38.8 19.0 38.8 18.9 C 38.9 19.0 38.9 18.8 38.9 18.9 C 38.9 18.9 38.9 18.9 38.9 18.9 Z M 39.3 16.7 C 39.2 16.6 39.5 16.5 39.5 16.6 C 39.4 16.7 39.5 16.7 39.4 16.8 C 39.4 16.6 39.3 16.9 39.2 16.8 C 39.2 16.7 39.1 16.6 39.0 16.7 C 39.0 16.6 39.0 16.5 39.1 16.5 C 39.1 16.5 39.1 16.6 39.1 16.6 C 39.1 16.6 39.1 16.5 39.2 16.6 C 39.2 16.7 39.2 16.7 39.3 16.7 C 39.3 16.7 39.3 16.7 39.3 16.7 Z M 39.2 17.6 C 39.2 17.4 39.4 17.4 39.5 17.4 C 39.4 17.6 39.2 17.6 39.0 17.8 C 39.1 17.6 38.9 17.4 39.0 17.3 C 39.1 17.4 39.1 17.6 39.2 17.6 C 39.2 17.6 39.2 17.6 39.2 17.6 Z M 6.3 55.3 C 6.3 55.4 6.2 55.5 6.2 55.6 C 6.3 55.4 6.3 55.1 6.3 55.2 C 6.3 55.2 6.3 55.4 6.3 55.4 C 6.3 55.2 6.3 55.2 6.3 55.4 C 6.3 55.4 6.3 55.5 6.3 55.6 C 6.2 55.6 6.2 55.7 6.2 55.8 C 6.2 55.5 6.3 55.5 6.2 55.7 C 6.3 55.4 6.2 55.8 6.3 55.5 C 6.3 55.6 6.2 55.7 6.2 55.7 C 6.3 55.5 6.3 55.5 6.4 55.4 C 6.3 55.5 6.3 55.6 6.3 55.6 C 6.3 55.5 6.3 55.5 6.4 55.5 C 6.4 55.5 6.4 55.2 6.4 55.2 C 6.4 55.2 6.3 55.4 6.3 55.4 C 6.3 55.4 6.3 55.3 6.4 55.1 C 6.4 55.1 6.4 55.1 6.4 55.1 C 6.3 55.3 6.4 55.0 6.3 55.3 C 6.3 55.3 6.4 55.3 6.3 55.3 C 6.3 55.5 6.3 55.4 6.3 55.3 C 6.3 55.5 6.3 55.5 6.3 55.5 C 6.3 55.4 6.3 55.3 6.3 55.2 C 6.3 55.2 6.3 55.2 6.3 55.1 C 6.3 55.3 6.3 55.1 6.3 55.1 C 6.3 55.2 6.3 55.3 6.3 55.3 C 6.3 55.3 6.3 55.3 6.3 55.3 Z M 6.4 55.6 C 6.4 55.6 6.4 55.6 6.4 55.6 C 6.5 55.4 6.5 55.4 6.6 55.3 C 6.5 55.3 6.4 55.5 6.4 55.6 C 6.4 55.6 6.4 55.6 6.4 55.6 Z M 6.1 56.2 C 6.0 56.4 6.2 56.0 6.2 56.0 C 6.1 56.0 6.1 56.0 6.2 55.8 C 6.2 55.9 6.2 55.9 6.2 55.8 C 6.1 56.1 6.1 56.0 6.1 56.2 C 6.1 56.3 6.0 56.4 6.0 56.4 C 6.1 56.3 6.1 56.2 6.1 56.2 C 6.1 56.2 6.1 56.2 6.1 56.2 Z M 6.0 56.4 C 6.0 56.3 6.0 56.4 6.1 56.2 C 6.1 56.2 6.1 56.2 6.1 56.0 C 6.1 56.0 6.1 56.1 6.1 56.1 C 6.0 56.3 6.0 56.2 6.0 56.3 C 6.0 56.3 6.0 56.4 6.0 56.4 C 6.0 56.4 6.0 56.4 6.0 56.4 Z M 42.3 7.7 C 42.1 7.7 42.2 7.6 42.2 7.6 C 42.0 7.7 42.0 7.6 41.9 7.6 C 42.2 7.6 42.1 7.6 42.3 7.5 C 42.1 7.5 42.1 7.6 42.0 7.5 C 42.1 7.5 42.0 7.5 42.0 7.4 C 42.2 7.4 42.2 7.4 42.3 7.4 C 42.2 7.4 42.4 7.4 42.4 7.4 C 42.3 7.4 42.2 7.4 42.3 7.3 C 42.4 7.4 42.5 7.3 42.6 7.3 C 42.5 7.3 42.6 7.3 42.6 7.3 C 42.4 7.3 42.5 7.4 42.3 7.4 C 42.7 7.4 42.6 7.5 42.5 7.6 C 42.4 7.6 42.3 7.6 42.3 7.6 C 42.4 7.6 42.3 7.6 42.4 7.6 C 42.3 7.6 42.2 7.7 42.2 7.7 C 42.3 7.7 42.3 7.7 42.3 7.7 C 42.3 7.7 42.3 7.7 42.3 7.7 Z M 10.7 55.9 C 10.8 56.2 11.1 55.8 11.2 55.7 C 11.3 56.0 10.6 56.2 10.7 55.9 C 10.7 55.9 10.7 55.9 10.7 55.9 Z M 9.0 56.9 C 9.1 56.8 8.9 56.7 9.0 56.7 C 9.1 56.8 9.1 56.4 9.2 56.6 C 9.2 56.8 9.1 56.8 9.0 56.9 C 9.0 56.9 9.0 56.9 9.0 56.9 Z M 7.7 57.2 C 7.8 57.2 7.7 57.1 7.7 57.1 C 7.7 57.0 7.8 57.0 7.9 57.2 C 7.8 57.1 7.8 57.4 7.7 57.2 C 7.7 57.2 7.7 57.2 7.7 57.2 Z M 9.8 56.7 C 10.0 56.7 9.9 57.0 9.8 56.9 C 9.9 56.8 9.7 56.8 9.6 56.9 C 9.5 56.7 9.6 56.7 9.4 56.6 C 9.6 56.4 9.5 56.7 9.6 56.7 C 9.7 56.5 9.6 56.6 9.6 56.4 C 9.6 56.4 9.6 56.4 9.7 56.4 C 9.7 56.5 9.8 56.6 9.8 56.7 C 9.8 56.7 9.7 56.7 9.8 56.8 C 9.8 56.8 9.8 56.7 9.8 56.7 C 9.8 56.7 9.8 56.7 9.8 56.7 Z M 42.6 7.2 C 42.6 7.1 42.5 7.2 42.5 7.2 C 42.6 7.2 42.9 7.1 42.7 7.2 C 42.6 7.2 42.5 7.2 42.4 7.2 C 42.5 7.2 42.3 7.2 42.4 7.2 C 42.5 7.2 42.8 7.1 42.6 7.2 C 42.6 7.2 42.6 7.2 42.6 7.2 Z M 42.5 7.2 C 42.5 7.2 42.6 7.2 42.6 7.2 C 42.7 7.2 42.7 7.2 42.8 7.2 C 42.7 7.2 42.7 7.2 42.6 7.2 C 42.7 7.2 42.5 7.2 42.5 7.2 C 42.5 7.2 42.3 7.2 42.4 7.2 C 42.4 7.2 42.4 7.2 42.5 7.2 C 42.5 7.2 42.5 7.2 42.5 7.2 Z M 42.8 8.1 C 42.9 8.1 42.9 8.0 43.0 8.0 C 42.9 8.1 42.9 8.3 42.9 8.3 C 42.9 8.3 42.7 8.3 42.7 8.3 C 42.7 8.2 42.6 8.2 42.7 8.2 C 42.9 8.2 42.8 8.2 42.8 8.1 C 42.8 8.1 42.8 8.1 42.8 8.1 Z M 42.8 8.1 " fill="#2DCBB1"></path></g></svg>