<?xml version="1.0" encoding="UTF-8" standalone="no"?><svg xmlns="http://www.w3.org/2000/svg" xmlns:xlink="http://www.w3.org/1999/xlink" clip-rule="evenodd" stroke-miterlimit="10" viewBox="0 0 204 208"><desc>SVG generated by Keynote</desc><defs></defs><g transform="matrix(1.00, 0.00, -0.00, -1.00, 0.0, 208.0)"><path d="M 176.2 25.4 C 175.8 25.2 175.4 24.9 174.8 24.4 C 175.0 24.6 175.2 24.9 175.0 25.0 C 175.6 25.3 176.3 25.9 177.3 26.8 C 177.3 26.6 176.8 26.2 176.5 25.9 C 176.1 25.6 176.2 25.5 176.2 25.4 C 176.2 25.4 176.2 25.4 176.2 25.4 Z M 7.0 69.3 C 7.4 68.3 6.7 69.3 6.6 69.6 C 6.6 69.7 6.7 69.8 6.5 70.1 C 6.3 70.1 6.5 69.3 6.6 68.6 C 7.7 66.1 7.5 68.2 7.0 69.3 C 7.0 69.3 7.0 69.3 7.0 69.3 Z M 97.2 204.5 C 99.5 205.0 97.2 204.1 96.8 204.0 C 97.9 204.1 97.2 203.5 98.5 203.7 C 98.7 203.9 99.1 204.1 99.3 204.2 C 98.8 204.2 98.0 204.0 97.8 204.1 C 98.6 204.2 99.5 204.3 99.6 204.5 C 98.2 204.4 99.4 204.8 99.6 205.0 C 98.3 204.8 97.7 204.9 97.2 204.5 C 97.2 204.5 97.2 204.5 97.2 204.5 Z M 145.7 190.6 C 144.3 191.0 143.2 191.4 143.5 191.1 C 144.9 190.7 145.8 190.4 146.7 190.1 C 146.8 190.0 146.4 190.0 147.6 189.5 C 149.1 189.2 148.5 189.8 147.9 190.2 C 147.7 190.0 143.0 191.8 145.7 190.6 C 145.7 190.6 145.7 190.6 145.7 190.6 Z M 198.9 127.5 C 199.5 124.9 198.5 127.3 199.0 124.7 C 199.3 124.8 199.7 124.5 199.4 126.2 C 199.2 126.3 199.0 127.3 198.9 127.5 C 198.9 127.5 198.9 127.5 198.9 127.5 Z M 14.6 149.7 C 14.4 149.8 15.3 151.4 14.8 151.1 C 14.4 150.3 14.1 149.5 13.7 148.7 C 13.8 148.4 14.1 148.6 14.6 149.7 C 14.6 149.7 14.6 149.7 14.6 149.7 Z M 105.3 201.1 C 105.8 200.9 105.3 200.0 105.6 200.1 C 105.9 199.9 106.5 200.5 106.2 200.5 C 105.8 200.5 105.1 201.4 105.3 201.1 C 105.3 201.1 105.3 201.1 105.3 201.1 Z M 9.3 80.2 C 8.7 81.9 9.7 81.7 9.1 82.6 C 9.1 82.3 9.1 82.1 9.0 81.9 C 8.9 82.2 8.9 82.6 8.8 82.6 C 8.9 81.8 8.9 80.9 9.3 80.2 C 9.3 80.2 9.3 80.2 9.3 80.2 Z M 194.1 52.1 C 194.2 52.3 194.3 52.4 194.4 52.3 C 194.5 53.1 194.8 53.0 194.7 53.7 C 194.4 53.8 194.3 53.0 194.2 52.4 C 194.1 52.3 194.0 52.2 194.1 52.1 C 194.1 52.1 194.1 52.1 194.1 52.1 Z M 200.3 94.5 C 200.6 94.5 200.6 93.3 200.8 95.1 C 200.6 97.3 200.2 95.4 199.8 93.3 C 199.7 93.3 199.6 93.3 199.4 93.3 C 199.5 94.2 199.5 94.7 199.5 95.2 C 200.0 95.6 199.2 97.0 199.7 100.4 C 199.4 98.8 199.1 100.5 199.2 98.5 C 198.9 99.0 198.9 97.6 198.6 97.8 C 198.8 98.7 198.9 100.9 199.3 100.4 C 199.3 101.6 199.3 102.5 199.2 103.0 C 198.9 103.9 199.1 100.9 198.8 101.8 C 198.8 102.4 198.7 102.5 198.7 103.1 C 198.8 103.2 199.0 102.9 199.0 103.7 C 199.0 105.8 198.7 103.3 198.7 106.3 C 198.8 106.5 198.9 105.6 199.1 105.7 C 199.2 107.1 199.0 107.0 199.1 108.4 C 199.0 108.6 198.9 107.4 198.8 108.4 C 199.3 109.2 198.5 111.1 198.8 113.1 C 199.5 111.8 198.7 113.4 199.2 115.1 C 199.0 115.5 198.7 114.2 198.5 115.8 C 199.4 115.3 198.7 121.4 199.7 116.5 C 199.5 119.1 200.0 120.0 200.3 118.0 C 199.7 122.5 200.2 121.1 200.1 122.8 C 199.8 124.6 200.0 121.9 199.7 122.8 C 199.9 120.9 199.7 121.4 200.0 120.0 C 199.8 120.0 199.8 119.7 199.8 119.3 C 199.8 121.2 199.1 123.3 198.9 121.9 C 199.0 121.0 199.3 121.9 199.4 120.6 C 198.9 121.1 199.6 119.3 199.4 119.2 C 198.9 120.1 198.8 117.4 198.5 119.9 C 198.7 119.9 198.8 119.9 199.0 119.9 C 198.9 120.6 198.8 121.3 198.8 121.9 C 198.4 122.5 198.2 122.0 198.1 122.6 C 197.9 123.7 197.9 124.3 198.0 124.7 C 198.3 123.3 198.8 121.7 198.5 124.0 C 198.0 123.0 197.9 127.2 197.8 125.3 C 197.2 127.8 197.5 129.1 197.0 129.3 C 196.8 130.6 197.3 129.8 196.9 131.4 C 196.1 133.9 196.7 133.5 195.6 136.8 C 195.9 137.3 195.4 137.1 195.1 138.1 C 195.3 138.1 195.4 138.2 195.6 138.2 C 195.0 139.3 194.1 141.9 193.4 144.8 C 193.0 145.4 193.0 144.8 192.3 146.6 C 192.0 148.7 190.5 150.7 189.8 153.1 C 189.5 153.2 188.8 154.7 188.4 155.5 C 188.1 155.8 188.4 154.6 187.6 155.9 C 187.4 157.0 188.4 155.4 187.4 157.4 C 187.2 157.0 186.5 159.3 186.2 159.1 C 186.5 158.5 186.8 157.8 187.0 157.2 C 186.5 158.0 186.5 157.7 186.1 158.3 C 186.5 158.4 185.3 159.6 185.0 160.1 C 185.1 160.1 185.1 160.4 184.9 160.9 C 184.2 161.9 183.6 162.7 183.3 163.2 C 182.3 164.4 183.7 162.4 182.7 163.6 C 182.8 164.7 181.2 165.4 179.3 168.3 C 178.6 168.7 177.5 169.7 175.9 171.2 C 175.9 171.5 177.5 169.8 177.7 169.8 C 175.4 172.1 178.3 169.6 176.8 171.0 C 173.4 174.2 171.0 176.2 166.5 178.9 C 166.7 179.0 163.3 181.4 163.3 181.2 C 164.2 180.6 161.1 182.0 159.5 182.8 C 159.3 183.5 157.0 185.1 156.9 185.4 C 156.2 185.5 156.3 185.4 155.9 185.1 C 152.9 186.3 150.9 187.6 148.2 188.0 C 148.5 188.1 146.7 188.9 145.2 189.5 C 145.5 189.1 146.4 188.6 147.1 188.2 C 145.1 188.9 144.7 188.9 142.9 189.5 C 141.4 190.9 138.1 190.8 136.9 192.0 C 134.1 192.8 134.5 192.4 131.9 193.0 C 132.0 193.1 131.7 193.3 131.0 193.6 C 132.7 193.1 133.9 192.5 135.0 192.6 C 131.1 193.7 142.6 191.4 136.3 193.5 C 136.0 193.4 136.6 193.0 135.2 193.4 C 131.6 194.5 133.8 194.2 135.3 193.8 C 132.9 194.6 130.3 195.1 132.3 194.9 C 126.8 196.4 130.2 195.3 128.3 195.6 C 118.5 197.9 106.7 199.3 95.6 198.5 C 95.2 198.9 89.4 198.2 87.6 197.8 C 84.7 197.8 81.7 197.5 80.9 197.0 C 80.4 197.3 77.7 196.2 77.3 196.5 C 78.5 196.7 79.2 196.9 78.1 196.8 C 74.2 195.9 69.0 194.6 67.0 194.3 C 65.9 193.6 63.8 193.1 62.4 192.9 C 62.3 192.6 63.3 192.9 62.5 192.6 C 62.2 192.7 59.4 192.0 58.8 191.6 C 59.6 191.9 60.6 191.8 59.4 191.3 C 59.4 191.5 58.0 191.0 58.3 191.4 C 56.7 190.6 55.7 190.5 54.5 189.8 C 55.6 190.2 56.2 190.3 56.5 190.2 C 55.5 190.0 54.8 189.8 54.3 189.3 C 54.3 189.8 53.0 189.0 51.6 188.6 C 51.3 188.3 51.1 188.1 50.2 187.6 C 49.6 187.7 51.6 188.6 50.4 188.2 C 50.5 188.1 49.6 187.4 49.7 187.8 C 48.5 187.1 47.8 187.1 47.1 186.4 C 48.1 187.0 47.5 186.2 47.3 186.0 C 47.0 185.9 46.7 185.7 46.6 185.8 C 46.6 185.9 47.1 186.2 47.1 186.3 C 46.4 185.8 46.0 186.2 45.9 185.8 C 46.2 185.9 46.4 185.8 46.0 185.6 C 45.7 186.0 44.1 184.7 44.8 184.8 C 44.7 185.0 45.4 185.3 45.5 185.3 C 45.4 185.0 44.3 184.6 44.7 184.5 C 45.3 184.7 45.1 184.9 45.9 185.2 C 46.1 185.1 46.5 185.3 46.9 185.3 C 45.6 184.6 45.3 184.8 45.3 184.4 C 44.8 184.2 44.9 184.7 44.2 184.2 C 43.3 183.6 44.3 183.8 44.1 183.6 C 43.2 183.2 43.2 183.8 43.4 184.2 C 42.8 183.8 42.5 183.9 42.1 183.5 C 42.2 183.4 42.3 183.3 42.6 183.4 C 42.5 183.4 42.9 183.9 43.0 183.7 C 43.2 183.3 42.8 182.9 42.3 182.5 C 42.2 183.0 42.3 182.7 41.9 182.5 C 41.7 182.9 41.8 182.3 41.6 182.6 C 41.6 182.7 41.7 182.7 41.9 182.8 C 41.7 183.0 41.6 183.1 41.5 183.0 C 41.5 182.9 41.3 183.0 41.2 182.8 C 41.4 182.6 41.5 182.6 41.6 182.4 C 41.5 182.4 41.4 182.5 41.3 182.5 C 41.4 182.2 41.7 181.9 41.9 181.5 C 42.0 181.5 42.1 181.6 42.2 181.3 C 42.5 181.5 41.9 181.7 42.0 181.8 C 42.4 181.6 41.9 182.0 42.4 182.2 C 42.5 182.3 42.6 182.2 42.7 182.2 C 42.7 182.1 42.6 181.7 42.9 181.8 C 42.9 182.0 43.0 182.3 43.3 182.5 C 43.3 182.4 42.8 181.9 43.4 182.2 C 43.7 182.5 43.2 182.6 43.7 182.9 C 43.8 182.8 43.9 182.9 44.0 182.8 C 43.2 182.4 44.2 182.7 43.8 182.3 C 44.5 182.5 43.8 182.6 44.2 182.8 C 44.3 182.7 44.9 183.4 45.1 183.1 C 44.7 183.1 44.2 182.7 44.4 182.5 C 44.9 182.8 48.0 184.2 46.5 184.0 C 47.1 184.0 50.0 185.0 49.7 185.1 C 48.8 184.6 48.8 184.9 48.6 185.0 C 50.3 185.4 51.1 186.1 53.4 186.7 C 51.0 185.6 53.0 185.9 51.8 185.1 C 51.2 184.8 50.5 184.5 50.3 184.5 C 50.4 184.9 51.4 185.2 51.8 185.2 C 51.7 185.4 51.6 185.7 51.5 185.9 C 49.2 184.5 48.1 184.3 47.3 183.8 C 48.0 184.1 46.2 182.7 47.0 183.1 C 47.2 183.4 48.1 183.9 48.9 184.4 C 48.9 184.3 49.0 184.2 49.0 184.1 C 49.4 184.3 49.9 184.6 50.0 184.5 C 48.8 184.0 48.3 183.4 47.6 183.3 C 47.6 183.2 47.6 183.1 47.7 183.1 C 47.5 183.0 47.4 182.9 47.4 182.9 C 47.8 183.0 48.2 183.3 48.3 183.2 C 47.6 182.8 47.6 182.4 46.9 182.0 C 47.2 181.8 46.5 180.9 47.6 181.4 C 47.6 181.7 48.2 182.2 48.1 182.3 C 48.4 182.6 49.1 182.9 49.6 182.9 C 49.3 182.6 48.6 182.1 48.7 181.8 C 49.3 182.1 49.8 182.2 50.1 182.6 C 48.7 182.1 50.7 183.2 51.1 183.8 C 51.0 183.6 50.8 183.3 50.6 183.1 C 51.7 183.6 52.2 184.1 52.4 183.7 C 53.9 184.2 53.5 184.4 54.6 184.9 C 54.0 184.2 55.4 185.0 54.8 184.3 C 56.7 185.1 55.2 184.9 55.9 185.2 C 56.5 185.4 56.7 185.3 57.3 185.5 C 58.1 186.1 60.1 186.9 60.3 187.3 C 61.2 187.6 61.3 187.8 62.3 188.1 C 62.5 188.1 62.9 188.1 63.4 188.1 C 63.5 188.3 64.2 188.6 64.4 188.6 C 61.8 187.3 62.5 187.5 60.1 186.3 C 59.9 186.3 59.5 186.2 60.0 186.6 C 58.2 186.0 57.8 185.6 56.4 185.1 C 56.4 184.8 56.2 184.3 55.0 184.1 C 55.3 183.9 55.1 183.7 55.6 183.8 C 56.1 184.2 57.0 184.7 57.9 185.2 C 58.1 185.1 57.9 184.9 58.5 185.0 C 58.9 185.4 59.6 185.7 60.3 185.8 C 60.3 186.0 60.0 186.0 59.7 185.9 C 62.0 186.9 61.3 186.2 63.2 187.0 C 62.9 186.7 61.7 186.3 62.8 186.5 C 64.5 187.0 64.9 187.3 65.8 187.6 C 66.0 187.6 65.9 187.5 66.5 187.6 C 67.7 188.2 63.4 187.3 65.6 188.4 C 65.8 188.2 68.1 188.9 68.4 189.2 C 67.6 189.2 66.3 188.5 66.2 188.7 C 70.3 189.9 65.9 189.2 70.6 190.5 C 70.6 190.4 70.7 190.3 70.7 190.1 C 68.8 189.7 68.9 189.4 69.0 189.2 C 67.5 188.7 67.0 188.2 65.7 188.0 C 66.4 187.6 66.9 188.4 68.5 188.8 C 68.6 188.5 67.1 188.1 67.0 187.8 C 70.5 189.1 71.4 188.9 75.2 190.1 C 74.3 189.6 77.4 190.5 77.2 190.2 C 73.7 189.6 75.3 189.1 74.8 188.8 C 72.6 188.4 73.5 189.2 72.2 189.1 C 71.7 188.6 72.0 188.5 72.4 188.2 C 74.2 188.7 74.0 188.6 75.5 188.8 C 76.7 189.3 77.8 190.1 75.9 189.9 C 76.3 189.9 79.0 190.2 79.2 190.5 C 76.6 190.0 79.4 190.7 77.8 190.6 C 79.8 191.1 83.5 191.3 86.0 191.9 C 85.9 191.7 86.8 191.8 86.8 191.6 C 84.1 191.6 83.7 190.8 81.3 190.4 C 82.3 190.6 81.7 190.3 81.3 190.1 C 83.6 190.7 85.1 190.6 86.8 191.1 C 86.9 191.0 86.9 190.9 86.9 190.8 C 89.9 191.4 89.5 191.2 92.0 191.1 C 93.0 191.4 91.6 191.8 91.2 192.1 C 92.4 192.0 96.9 192.3 94.3 191.9 C 96.9 192.0 96.2 192.4 99.0 192.4 C 99.1 192.1 96.5 192.1 97.4 191.7 C 100.0 191.7 98.5 192.1 100.6 191.8 C 100.7 192.1 100.8 192.3 103.0 192.3 C 101.4 192.1 103.3 192.1 103.9 191.9 C 102.9 191.9 102.0 191.9 101.4 191.8 C 105.5 191.8 106.3 191.8 109.7 191.4 C 108.5 191.8 110.4 191.8 108.1 192.1 C 110.3 191.8 113.0 191.9 114.2 191.6 C 112.8 191.6 110.6 191.8 109.8 191.7 C 116.6 191.1 120.4 190.1 126.9 189.2 C 125.8 189.5 124.3 189.7 124.1 189.9 C 124.8 189.8 126.0 189.5 126.0 189.6 C 123.7 190.0 121.6 190.4 120.5 190.7 C 118.5 190.9 121.6 190.3 119.5 190.6 C 119.2 190.8 115.4 191.2 116.8 191.4 C 120.2 190.6 123.6 190.3 125.3 190.5 C 128.5 189.3 125.3 190.0 128.8 188.6 C 128.8 188.8 129.6 188.7 130.7 188.4 C 129.5 188.3 134.1 187.3 134.6 187.2 C 132.9 187.9 126.6 189.6 129.9 189.2 C 128.3 188.8 137.5 187.4 135.6 187.3 C 139.8 186.1 138.4 186.9 140.6 185.8 C 140.8 185.9 140.5 186.2 141.7 185.8 C 142.9 185.4 143.3 185.2 143.7 184.9 C 137.6 186.8 139.3 185.8 135.5 186.9 C 136.1 186.7 136.7 186.5 136.5 186.5 C 136.5 186.4 136.6 186.3 137.4 186.1 C 137.8 186.4 140.5 185.1 141.5 185.0 C 140.3 185.4 139.1 185.8 139.6 185.9 C 144.5 184.2 143.8 184.9 150.9 182.3 C 148.7 183.0 151.4 181.9 153.2 181.1 C 155.7 180.0 155.0 180.9 157.8 179.4 C 157.1 178.9 160.8 178.0 163.5 175.7 C 163.4 176.2 167.3 173.7 167.8 172.9 C 168.0 172.9 169.3 171.9 170.1 171.2 C 170.4 171.1 169.5 172.0 170.3 171.4 C 171.0 170.7 170.1 171.1 171.1 170.2 C 172.3 169.3 172.3 169.7 173.9 168.1 C 173.8 167.9 173.0 168.8 173.6 167.8 C 175.1 166.5 176.3 165.3 174.9 166.2 C 176.9 164.1 176.4 165.5 178.0 163.5 C 177.4 164.0 177.4 163.9 178.2 162.8 C 179.0 162.2 179.2 162.2 179.5 162.0 C 179.8 161.2 179.6 161.4 180.9 159.7 C 180.8 159.6 180.7 159.6 180.6 159.5 C 181.2 158.7 181.9 157.5 182.2 157.4 C 181.1 158.8 181.6 158.6 181.3 159.2 C 182.4 157.7 184.5 154.9 182.8 157.0 C 184.0 154.8 183.7 156.0 184.7 154.2 C 183.8 155.2 184.6 154.3 185.5 152.4 C 185.1 152.4 186.1 151.2 186.7 150.0 C 186.4 150.1 186.4 149.8 186.8 148.7 C 187.0 148.8 187.4 148.2 187.8 147.0 C 187.7 146.9 186.5 149.4 187.6 146.9 C 188.2 145.7 188.5 145.9 189.3 143.9 C 189.7 143.6 188.8 145.8 189.2 145.4 C 189.6 143.7 190.0 143.3 190.9 141.0 C 190.0 141.8 191.6 136.1 190.5 138.8 C 190.8 138.0 190.7 136.8 191.1 136.2 C 191.0 137.1 191.7 135.7 191.7 135.7 C 191.9 134.6 192.7 132.0 192.5 131.9 C 192.1 134.4 191.8 134.3 191.4 135.0 C 192.1 131.4 192.8 128.3 193.1 128.6 C 193.0 128.6 193.1 128.1 193.0 127.9 C 192.8 129.2 192.2 129.9 192.4 128.5 C 192.7 128.8 193.0 127.8 193.2 126.6 C 193.0 126.5 194.1 121.8 193.5 122.7 C 193.5 124.6 192.8 126.1 192.9 124.6 C 193.3 123.4 193.8 120.8 194.0 121.4 C 194.0 120.7 193.9 120.1 193.9 119.4 C 193.7 118.8 193.6 120.3 193.3 120.0 C 193.5 119.1 193.5 117.6 193.7 117.4 C 193.5 120.0 194.0 116.1 194.0 118.8 C 194.1 117.1 194.3 116.8 194.4 115.5 C 194.3 115.5 194.3 115.0 194.3 114.8 C 194.4 116.0 194.1 117.1 193.8 116.8 C 194.0 114.4 194.3 114.8 194.4 112.9 C 194.2 112.3 193.9 109.6 194.1 108.3 C 194.1 110.9 194.3 108.1 194.4 109.6 C 194.1 112.0 194.4 112.6 194.6 113.5 C 194.9 112.5 195.1 110.5 194.7 110.3 C 194.6 111.5 194.8 111.5 194.8 112.2 C 194.6 112.2 194.5 111.8 194.5 110.9 C 194.7 109.8 194.5 107.4 194.9 109.0 C 194.8 107.3 195.1 105.5 194.8 103.8 C 194.8 105.7 194.7 107.1 194.4 107.7 C 194.3 106.1 194.7 104.5 194.4 104.5 C 194.2 104.6 194.3 107.2 194.0 107.7 C 193.7 105.6 194.6 102.6 193.9 105.1 C 194.0 104.0 193.9 102.4 194.1 101.9 C 194.2 103.3 194.5 101.8 194.6 101.2 C 194.5 100.0 194.4 99.1 194.3 98.7 C 194.5 100.5 194.1 101.8 194.0 100.6 C 194.2 100.3 194.0 99.9 193.9 99.4 C 194.1 99.3 193.8 97.2 194.0 96.9 C 193.8 97.0 193.9 97.9 193.7 98.1 C 193.6 96.9 193.0 95.3 193.4 94.4 C 193.5 95.1 193.5 96.2 193.6 96.2 C 193.9 93.0 194.1 91.9 193.9 88.2 C 194.0 88.7 194.1 88.9 194.2 88.8 C 194.0 86.5 194.0 85.0 194.2 85.2 C 194.0 83.8 193.7 83.1 193.4 82.4 C 193.5 83.9 193.8 84.3 193.7 85.3 C 193.6 84.7 193.3 86.5 193.1 87.1 C 193.7 89.6 193.2 89.9 193.7 92.5 C 193.3 91.8 193.7 94.5 193.4 93.8 C 193.6 91.2 193.1 88.9 192.8 85.4 C 193.1 85.8 193.4 86.2 193.3 84.8 C 193.2 82.5 192.9 83.6 192.8 81.9 C 192.9 81.1 193.1 82.2 193.1 81.3 C 192.9 80.7 192.7 79.1 192.9 78.5 C 193.2 80.7 193.0 78.0 193.4 79.5 C 193.3 78.7 193.3 78.3 193.3 77.8 C 193.3 80.1 192.5 75.7 192.5 77.4 C 191.8 74.4 193.2 77.0 192.7 74.7 C 192.7 75.9 192.3 74.3 192.1 72.7 C 192.3 72.2 192.0 70.4 191.9 69.1 C 191.8 69.8 191.9 70.4 191.5 69.2 C 191.5 69.9 191.7 71.0 192.0 71.6 C 191.8 71.6 191.8 71.9 191.8 72.2 C 191.4 70.5 191.4 71.3 191.2 70.8 C 191.2 70.3 191.0 69.1 191.1 68.8 C 191.0 68.8 190.9 68.4 190.8 68.4 C 191.2 70.3 190.4 68.1 190.5 69.4 C 190.7 70.3 190.9 69.6 191.1 70.8 C 190.9 71.9 190.5 70.0 190.1 69.5 C 190.1 70.4 190.7 71.5 190.4 71.9 C 189.8 70.7 189.7 68.7 189.5 67.2 C 189.1 67.4 189.0 64.7 188.5 64.6 C 188.6 64.4 188.6 64.1 188.6 63.8 C 188.2 63.4 188.5 62.9 188.4 62.5 C 188.3 62.5 188.1 62.7 188.1 63.0 C 187.9 61.3 187.8 60.9 187.3 59.3 C 187.4 58.9 187.5 58.6 187.7 58.4 C 187.8 58.8 188.0 59.2 188.1 59.4 C 187.6 57.1 187.1 58.7 187.2 57.1 C 187.1 57.2 187.0 58.4 186.7 57.6 C 186.8 56.2 186.0 54.7 186.9 54.5 C 186.9 53.5 186.1 52.9 186.3 52.2 C 186.2 51.9 186.1 51.8 185.9 51.7 C 185.9 52.1 185.9 52.6 185.9 53.0 C 186.2 53.6 186.0 54.0 186.2 53.2 C 186.6 54.2 186.4 54.4 186.4 54.9 C 185.8 53.7 185.8 52.5 185.3 52.6 C 185.3 52.1 185.4 51.7 185.4 51.2 C 185.2 51.1 184.4 49.6 184.7 49.4 C 185.1 50.5 185.9 51.4 185.7 50.4 C 184.4 47.8 183.9 46.0 181.9 43.6 C 182.0 43.4 182.3 43.5 182.0 43.0 C 181.9 43.1 181.7 43.1 181.4 42.9 C 180.9 42.1 180.7 41.5 179.7 40.5 C 180.0 40.4 180.1 40.1 179.6 39.4 C 179.1 39.3 177.7 38.6 177.2 37.8 C 177.8 38.5 177.3 37.4 176.9 36.9 C 177.0 37.6 174.1 33.6 174.8 34.9 C 173.3 33.5 172.8 32.8 172.8 32.7 C 172.2 32.2 171.7 31.9 171.1 31.5 C 171.1 30.8 167.8 28.7 167.5 28.3 C 168.5 29.2 169.0 29.0 168.1 28.3 C 167.4 28.1 164.3 26.2 163.8 25.8 C 164.0 25.8 164.4 25.7 165.9 26.6 C 163.5 24.9 163.2 25.3 162.2 25.0 C 162.5 24.7 161.1 24.3 160.7 24.1 C 159.9 23.4 160.8 24.0 160.9 23.8 C 160.0 23.2 159.7 22.8 158.4 22.1 C 158.6 22.6 157.2 21.6 156.7 21.3 C 156.4 21.4 155.6 21.1 154.3 20.5 C 156.2 20.9 147.0 16.7 149.1 17.9 C 147.1 17.4 147.4 16.8 144.8 15.9 C 144.3 15.9 142.9 15.3 144.1 16.0 C 142.1 15.3 143.4 15.3 140.9 14.7 C 141.8 15.4 138.3 13.8 138.8 14.4 C 137.8 13.5 135.5 13.6 133.3 12.6 C 133.2 12.7 132.6 12.6 132.4 12.6 C 132.1 12.7 135.2 13.5 133.1 13.1 C 130.8 12.3 132.1 12.5 131.8 12.2 C 125.1 10.8 116.3 9.4 107.9 8.9 C 108.9 9.1 108.8 9.2 107.1 9.2 C 104.6 8.5 94.5 8.9 93.1 9.2 C 92.2 8.9 87.6 9.8 86.8 9.7 C 87.7 9.6 89.4 9.0 87.5 9.3 C 86.3 9.8 84.7 9.8 83.0 10.4 C 82.1 10.2 76.9 11.8 79.2 10.6 C 78.2 10.8 77.6 10.9 77.0 11.0 C 77.0 11.4 76.0 11.6 77.8 11.3 C 73.1 12.3 72.1 13.0 68.7 14.0 C 68.1 14.4 70.8 13.6 68.8 14.4 C 68.8 14.3 68.8 14.3 68.7 14.2 C 68.0 14.5 67.8 14.7 67.4 14.7 C 67.5 14.5 68.6 14.1 68.6 13.7 C 67.0 14.5 65.7 14.5 65.2 15.1 C 67.5 14.1 66.2 15.3 64.7 15.6 C 65.9 14.9 59.7 18.0 57.9 19.2 C 56.8 19.4 60.0 18.0 59.6 17.9 C 56.0 19.9 56.3 19.7 56.1 20.2 C 54.2 21.2 53.4 21.5 51.4 23.0 C 50.1 23.7 52.0 22.3 50.7 23.1 C 50.0 23.7 49.7 24.1 48.6 24.9 C 45.3 26.5 39.7 32.7 36.2 34.8 C 37.5 33.8 36.2 35.4 34.7 36.9 C 34.5 36.9 34.6 36.6 34.1 37.1 C 34.3 37.2 33.9 37.8 33.0 38.8 C 32.8 38.8 32.9 38.5 32.4 39.0 C 32.3 39.7 30.9 40.7 30.4 41.6 C 29.9 41.7 31.8 39.7 31.8 39.4 C 29.4 41.7 29.4 42.4 27.8 44.2 C 28.5 43.2 27.0 44.7 26.7 44.9 C 27.3 44.7 26.3 46.3 27.3 45.4 C 26.7 46.1 25.9 47.2 25.7 47.2 C 26.0 46.9 26.5 46.2 26.4 46.2 C 25.8 47.1 24.7 48.1 24.6 48.7 C 25.1 48.1 25.4 47.7 25.6 47.8 C 25.5 48.2 25.4 48.5 25.1 49.0 C 25.4 47.2 22.9 51.4 23.0 51.8 C 22.3 51.9 22.1 52.2 22.1 51.9 C 20.9 53.6 21.4 53.5 20.8 54.6 C 20.7 54.1 20.7 53.6 19.6 55.1 C 20.1 55.0 19.0 56.9 19.7 56.5 C 17.5 60.6 16.7 61.2 15.6 63.6 C 15.7 63.7 16.1 63.0 15.8 63.7 C 15.2 64.7 14.7 65.6 14.2 66.2 C 14.2 66.9 14.6 66.2 14.3 66.8 C 13.4 68.4 13.2 67.9 12.4 69.2 C 11.9 71.1 12.0 70.4 12.0 71.6 C 12.1 71.1 12.5 70.6 12.3 71.2 C 11.6 72.2 11.2 72.5 11.0 72.7 C 11.3 71.9 11.5 71.3 11.7 71.0 C 11.6 70.7 12.0 69.6 11.5 70.4 C 12.0 69.3 12.5 68.1 13.2 66.4 C 12.7 66.8 13.8 64.8 13.3 65.3 C 12.5 67.3 12.1 67.6 11.5 69.4 C 12.0 69.1 11.1 70.9 10.9 71.2 C 11.1 71.2 10.6 72.4 11.0 72.2 C 10.6 73.5 10.4 73.4 10.1 74.7 C 9.9 74.7 9.8 74.5 9.7 75.0 C 9.9 75.5 9.3 75.8 9.2 76.2 C 9.6 76.0 9.0 77.7 9.2 77.9 C 9.3 77.4 9.5 76.8 9.6 76.7 C 9.1 78.6 9.8 77.2 10.1 76.8 C 9.9 76.9 9.7 76.1 10.0 76.0 C 9.8 77.7 11.2 73.8 10.6 75.3 C 10.2 76.5 10.4 76.5 10.1 77.7 C 9.2 79.0 9.3 77.2 8.5 78.5 C 8.6 79.4 8.4 80.0 8.7 80.1 C 8.6 80.3 8.4 80.5 8.3 80.8 C 8.4 81.1 8.8 79.8 8.7 80.8 C 8.5 81.4 8.2 80.7 8.1 81.8 C 8.3 82.3 8.6 80.5 8.6 81.5 C 7.9 82.5 8.7 81.4 8.6 82.6 C 8.5 82.6 8.5 82.8 8.4 83.2 C 8.3 83.3 8.1 83.0 8.0 83.5 C 8.5 83.8 7.8 83.9 7.8 84.9 C 8.1 85.4 8.1 83.9 8.3 84.2 C 7.9 85.2 8.2 85.9 8.1 86.4 C 8.0 85.4 7.8 87.8 7.5 87.9 C 7.9 87.7 7.7 88.2 7.9 89.6 C 7.3 89.6 7.6 91.3 7.1 91.7 C 7.3 91.9 7.3 92.4 7.5 92.6 C 7.5 92.1 7.6 91.6 7.7 91.7 C 7.7 92.2 7.7 92.6 7.7 93.1 C 7.4 93.8 6.8 91.8 6.8 94.9 C 7.2 94.6 7.2 95.9 7.3 96.8 C 7.6 96.7 7.3 95.5 7.5 95.4 C 7.7 96.5 7.4 97.6 7.2 98.3 C 7.3 100.2 7.1 102.6 7.3 105.6 C 7.1 106.3 7.0 103.1 6.9 105.1 C 6.9 105.9 7.2 105.5 7.2 106.7 C 5.8 105.6 7.4 115.2 6.9 115.8 C 7.2 116.2 7.4 119.1 7.7 118.7 C 7.2 116.9 7.5 115.5 7.6 114.6 C 7.3 112.8 7.4 116.2 7.2 114.6 C 7.4 114.4 7.0 112.1 7.3 112.3 C 7.5 114.7 7.5 111.0 8.0 112.8 C 8.1 115.1 8.9 119.7 8.4 118.6 C 8.5 118.6 8.4 117.6 8.3 117.5 C 8.4 120.1 8.9 121.7 9.3 122.8 C 9.3 124.0 10.6 128.8 10.2 127.6 C 10.0 128.0 9.7 124.7 9.5 125.2 C 10.3 130.2 10.6 130.3 11.3 133.6 C 11.3 132.5 12.8 137.0 12.5 136.6 C 12.2 136.7 12.3 137.8 13.3 139.7 C 12.9 139.5 13.2 140.6 13.5 141.7 C 13.9 142.0 13.4 140.7 13.7 140.8 C 14.1 141.8 14.5 142.9 14.9 143.9 C 14.8 144.0 14.6 143.9 14.8 144.6 C 15.5 145.6 17.6 149.5 17.2 149.2 C 16.1 147.7 18.3 152.1 16.7 149.5 C 17.1 150.2 17.0 150.3 17.5 151.3 C 17.6 151.2 17.8 151.2 17.9 151.1 C 19.0 153.2 18.0 152.4 19.0 154.2 C 19.2 154.3 19.7 155.1 20.0 155.3 C 19.5 154.5 19.4 154.5 18.9 153.6 C 19.9 154.4 18.1 151.5 18.4 151.5 C 19.6 153.5 19.3 153.7 19.7 154.6 C 21.4 157.0 20.5 155.9 22.2 158.6 C 22.3 158.5 21.9 157.8 22.1 157.9 C 24.1 161.1 23.5 161.1 25.3 163.1 C 24.9 162.6 23.2 160.9 24.2 162.2 C 25.5 163.6 26.0 163.8 27.7 165.6 C 27.7 165.8 27.4 165.7 28.0 166.4 C 28.8 167.0 29.0 166.9 29.8 167.5 C 29.8 167.8 30.8 168.7 31.3 169.0 C 31.7 169.9 30.8 169.0 31.6 169.9 C 33.1 171.3 34.4 171.5 35.7 172.8 C 35.4 173.0 37.1 174.2 38.6 175.2 C 38.6 175.7 41.9 177.9 44.2 179.4 C 43.8 178.8 46.2 180.4 45.8 179.8 C 44.6 179.1 44.1 178.7 43.9 178.4 C 46.5 180.0 47.1 181.0 49.4 181.7 C 50.4 182.4 51.7 183.2 53.8 184.2 C 54.1 184.2 50.3 182.3 52.4 183.2 C 52.5 183.4 53.2 183.6 53.9 183.9 C 53.7 184.0 54.0 184.2 54.5 184.5 C 55.0 184.8 56.3 185.4 57.5 186.0 C 61.8 187.5 69.4 191.0 66.0 189.2 C 71.8 191.5 67.9 190.5 71.9 192.1 C 70.0 190.9 76.8 193.4 73.5 191.9 C 78.8 193.8 78.0 194.1 75.9 193.5 C 80.4 195.2 81.2 195.2 83.0 196.0 C 81.4 195.1 87.0 196.9 84.2 196.1 C 83.1 196.1 87.3 197.3 87.9 197.7 C 86.9 197.1 88.6 197.7 86.2 196.7 C 88.8 197.5 92.0 198.4 93.5 199.2 C 95.9 199.7 97.5 200.0 96.6 200.1 C 98.3 200.5 97.7 200.3 99.1 200.6 C 99.1 200.5 98.7 200.4 98.6 200.3 C 100.6 200.7 100.3 200.9 101.8 201.0 C 101.6 201.4 102.5 201.4 102.8 201.6 C 102.3 201.6 101.8 201.5 101.2 201.4 C 101.1 201.5 101.6 201.7 101.2 201.7 C 101.1 201.5 100.8 201.5 100.5 201.4 C 101.8 201.8 98.7 201.6 99.7 201.5 C 99.7 201.5 99.8 201.6 100.1 201.6 C 99.9 201.3 99.9 201.4 100.2 201.1 C 99.5 201.1 98.9 200.6 98.5 200.8 C 98.6 201.0 99.3 201.1 99.4 201.2 C 97.5 201.1 99.0 200.8 97.1 200.4 C 96.6 200.7 97.6 201.0 98.0 201.2 C 96.4 200.9 94.5 200.4 94.0 200.1 C 92.0 199.6 94.1 200.4 92.6 200.1 C 91.8 199.7 92.0 199.5 90.4 199.0 C 88.5 198.6 91.4 199.6 89.5 199.0 C 87.5 198.2 91.2 199.1 87.8 198.0 C 88.5 198.7 84.7 196.9 84.9 197.2 C 87.1 197.9 86.9 198.3 85.9 197.7 C 81.3 195.7 76.9 195.3 70.2 191.9 C 70.1 192.0 69.0 191.6 68.7 191.6 C 74.0 193.9 80.4 196.2 81.4 197.1 C 84.7 198.1 84.2 197.6 84.7 197.7 C 88.0 199.2 87.6 199.1 85.5 198.9 C 79.9 197.1 76.7 195.6 71.4 193.5 C 68.4 192.6 71.6 193.7 72.6 194.3 C 64.5 191.0 62.6 190.3 63.0 190.7 C 63.3 191.0 65.2 192.0 61.7 190.5 C 62.0 190.4 60.5 189.8 58.5 188.9 C 58.4 189.0 55.3 187.7 54.7 187.6 C 56.1 188.2 56.8 188.5 56.4 188.5 C 53.8 187.5 53.5 187.3 53.5 187.2 C 53.4 187.0 53.7 187.0 53.6 186.9 C 54.5 187.3 56.8 188.2 58.0 188.7 C 59.2 189.1 60.0 189.4 60.3 189.4 C 57.7 188.5 54.7 187.2 53.8 186.8 C 52.8 186.4 52.0 186.0 51.2 185.8 C 49.2 184.4 52.7 185.6 51.7 184.7 C 52.2 184.7 49.9 184.8 48.2 184.1 C 45.5 182.7 45.3 182.9 42.9 181.5 C 42.5 180.8 45.4 182.7 45.3 182.4 C 44.6 182.0 44.5 181.9 43.9 181.5 C 42.2 180.5 42.2 180.8 40.9 180.1 C 40.4 179.4 39.9 179.3 38.9 178.8 C 37.5 177.7 39.9 179.2 38.4 178.1 C 36.9 176.9 35.6 176.4 35.1 176.0 C 35.1 175.8 35.4 175.9 34.7 175.3 C 32.9 174.1 32.5 173.8 34.5 175.6 C 32.6 174.1 31.8 173.5 31.8 173.9 C 34.5 176.3 35.3 176.8 36.5 178.1 C 37.2 178.3 37.9 179.1 39.1 180.0 C 38.6 179.1 40.5 180.9 41.3 181.1 C 40.5 180.5 39.8 180.0 39.4 179.6 C 42.7 181.8 42.6 181.8 45.9 183.1 C 45.8 183.2 46.1 183.4 46.4 183.7 C 45.4 183.3 42.9 181.7 42.7 181.9 C 44.5 183.4 45.5 183.3 47.8 185.0 C 48.9 185.3 45.9 183.6 47.9 184.6 C 48.8 185.3 50.0 186.1 51.7 186.9 C 52.5 187.3 53.2 187.5 53.8 187.7 C 54.2 187.8 55.2 188.2 55.9 188.5 C 56.6 188.7 57.4 189.0 58.1 189.3 C 58.4 189.5 58.8 189.8 61.6 190.9 C 61.5 190.7 58.7 189.5 61.7 190.6 C 70.4 194.5 75.0 196.6 81.0 198.5 C 78.9 197.7 73.8 195.4 76.4 196.4 C 79.2 197.7 83.0 198.6 85.3 199.7 C 86.0 200.0 82.3 198.5 83.1 199.3 C 85.5 200.2 86.8 200.6 87.8 201.0 C 87.9 200.8 90.2 201.6 89.7 201.2 C 88.1 200.7 87.4 200.8 87.0 200.6 C 88.8 200.2 93.0 202.7 95.2 203.3 C 96.7 203.5 94.2 202.7 95.9 203.0 C 96.9 203.1 97.3 204.0 95.7 203.7 C 94.7 203.3 94.0 203.5 93.9 203.1 C 93.4 203.0 92.5 202.8 92.5 202.9 C 93.5 203.2 93.2 203.3 93.8 203.5 C 92.5 203.1 92.1 203.6 90.9 202.9 C 91.8 203.2 92.1 203.2 92.4 203.2 C 88.6 202.2 86.9 201.3 83.9 200.2 C 85.5 200.9 83.8 200.2 83.8 200.5 C 86.2 201.3 90.0 202.7 87.5 202.0 C 86.1 201.1 84.4 201.6 82.6 200.6 C 84.1 201.0 83.9 200.8 84.7 201.0 C 82.7 200.3 82.9 200.1 80.6 199.2 C 76.9 198.1 73.2 196.7 68.2 194.7 C 65.7 193.7 62.9 192.5 59.4 191.1 C 58.5 190.8 57.5 190.4 56.6 190.0 C 56.1 189.8 55.6 189.6 55.1 189.4 C 54.6 189.2 53.7 188.9 53.4 188.8 C 52.5 188.4 51.5 188.1 50.4 187.7 C 47.4 186.3 53.1 188.7 53.0 188.4 C 52.1 188.0 52.0 187.9 51.4 187.6 C 51.1 187.9 49.9 186.9 48.8 186.7 C 49.1 186.5 45.2 184.8 43.6 183.6 C 43.4 183.7 43.6 183.9 42.7 183.5 C 37.6 180.0 29.2 173.8 26.6 170.6 C 26.5 170.9 25.3 169.5 24.8 169.3 C 23.1 167.3 24.0 168.0 21.4 165.3 C 20.2 163.9 21.8 165.4 22.1 165.7 C 18.5 161.4 16.3 157.2 14.4 154.4 C 13.5 153.0 14.5 154.3 13.1 151.2 C 12.7 151.4 11.1 146.2 10.3 145.7 C 9.5 143.8 8.8 140.2 9.0 141.8 C 8.0 139.3 9.0 140.9 8.7 139.8 C 8.1 138.0 8.2 140.6 7.6 138.8 C 7.9 138.9 7.3 137.4 7.3 136.1 C 7.6 137.5 8.0 138.5 8.2 138.6 C 7.7 137.4 7.9 137.4 7.3 135.4 C 6.7 134.0 5.4 129.8 5.6 128.5 C 5.5 128.4 5.5 128.8 5.5 129.2 C 5.2 127.9 5.2 126.4 4.9 126.7 C 4.3 123.8 4.5 122.6 4.0 121.1 C 3.7 119.9 4.3 121.4 3.9 117.9 C 3.6 117.9 3.1 111.8 3.3 110.2 C 2.9 110.2 3.2 109.8 3.2 109.1 C 3.1 109.0 2.9 109.2 2.9 108.5 C 3.0 108.4 2.9 107.9 2.9 107.4 C 3.4 107.8 2.7 105.3 3.0 105.1 C 3.0 105.6 3.3 105.6 3.3 105.1 C 3.0 105.0 3.5 102.7 3.2 102.9 C 3.1 103.4 3.2 105.0 2.9 104.6 C 2.7 102.4 3.2 103.3 3.2 101.8 C 3.1 102.0 3.0 102.8 2.9 101.8 C 3.0 100.4 2.9 101.7 3.2 100.8 C 3.1 100.0 2.9 98.7 2.9 98.2 C 2.9 98.3 3.1 97.9 3.2 97.7 C 3.4 95.1 3.3 89.7 3.9 87.6 C 3.8 87.5 3.8 87.0 3.6 87.2 C 3.8 86.0 3.7 86.0 4.0 84.9 C 3.8 84.9 3.7 84.9 3.6 84.9 C 3.5 83.4 4.0 84.7 4.1 83.8 C 3.4 83.6 4.3 83.3 4.4 82.4 C 4.3 82.3 4.3 81.8 4.1 82.0 C 4.3 80.5 4.7 80.7 4.8 79.4 C 4.7 79.7 3.7 79.7 3.4 79.5 C 3.6 79.3 3.8 78.9 4.0 78.3 C 4.1 79.1 5.3 79.0 5.4 76.9 C 5.2 78.0 5.0 78.4 4.8 78.1 C 5.1 76.6 5.5 76.2 5.9 74.8 C 5.6 74.5 5.3 75.5 5.1 75.1 C 5.2 74.7 5.1 74.5 5.0 74.6 C 5.5 73.2 5.7 73.2 6.0 71.5 C 6.2 71.6 6.1 71.9 5.8 72.4 C 6.1 72.4 6.3 72.5 6.1 73.5 C 5.8 73.5 5.7 72.9 5.4 74.2 C 5.6 74.3 5.7 74.3 5.9 74.4 C 6.2 73.4 7.2 71.1 7.1 70.9 C 6.8 71.3 6.5 72.1 6.3 71.6 C 7.0 69.9 7.5 69.5 8.2 68.1 C 9.1 65.5 11.4 60.8 10.7 61.2 C 11.6 59.6 11.3 60.2 12.1 58.8 C 11.6 59.1 12.8 57.0 12.5 57.1 C 11.6 58.9 11.8 58.3 11.1 60.1 C 10.9 60.0 10.9 59.7 11.2 58.9 C 11.4 58.9 11.8 58.2 12.4 57.0 C 12.3 57.2 11.4 58.1 12.1 56.8 C 12.2 56.8 12.4 56.5 12.7 55.9 C 12.9 56.0 13.0 56.0 13.1 56.1 C 12.9 56.9 12.5 57.7 12.3 58.3 C 12.6 57.8 12.7 57.7 13.0 57.3 C 13.0 56.9 14.3 54.9 14.2 54.7 C 13.7 55.5 13.3 56.0 13.7 55.1 C 13.8 54.9 14.7 53.6 14.9 53.0 C 13.7 54.7 14.1 54.0 13.3 54.8 C 14.4 52.7 14.5 53.2 15.9 50.8 C 16.1 50.9 16.3 51.0 16.0 51.7 C 17.5 50.5 19.3 46.7 20.2 45.6 C 19.6 46.3 19.3 47.5 20.2 46.3 C 20.0 46.2 20.7 45.3 20.7 45.1 C 20.5 44.4 19.5 45.3 18.6 46.0 C 19.3 45.0 19.4 44.8 20.0 43.9 C 20.4 43.7 20.1 44.9 21.0 43.8 C 20.8 43.2 22.5 41.6 22.6 41.0 C 22.0 41.8 21.4 42.3 22.0 41.4 C 22.1 41.6 23.3 39.9 23.5 40.0 C 22.5 41.4 22.5 41.9 21.8 42.8 C 22.6 41.7 21.4 43.7 22.8 42.0 C 23.3 41.0 23.3 40.5 24.9 38.6 C 25.5 37.9 25.2 38.8 26.0 37.8 C 25.5 37.9 27.2 35.8 26.4 37.2 C 26.9 36.5 27.3 36.2 27.7 35.8 C 26.6 36.6 30.6 31.6 29.8 32.2 C 30.1 32.5 30.6 32.5 30.9 32.4 C 31.5 31.2 32.7 30.3 35.2 27.9 C 34.9 27.7 35.6 27.5 36.7 26.5 C 36.8 26.2 35.7 27.0 36.5 26.3 C 37.8 25.2 37.9 25.2 38.3 25.1 C 39.2 24.3 40.0 23.7 40.5 23.4 C 40.5 23.2 40.1 23.4 39.8 23.6 C 43.7 20.8 45.5 19.0 49.0 16.8 C 47.5 17.6 47.4 18.2 48.6 17.4 C 49.3 16.9 49.9 16.5 50.3 16.1 C 49.3 16.4 49.7 16.3 51.5 15.3 C 53.1 14.2 50.7 15.2 51.9 14.5 C 53.3 13.8 52.6 14.4 53.4 14.0 C 54.0 13.7 54.7 13.3 55.4 12.9 C 54.1 13.4 55.3 12.6 56.5 11.9 C 55.8 12.7 56.3 12.4 58.7 11.2 C 59.0 11.2 57.8 11.9 58.8 11.4 C 59.3 11.2 61.0 9.9 62.8 9.5 C 62.3 9.7 62.1 9.9 62.2 9.9 C 64.0 8.9 65.6 8.7 67.3 8.2 C 65.6 8.6 66.4 8.0 65.6 8.1 C 67.4 7.7 69.4 6.7 70.9 6.6 C 68.3 7.3 71.0 7.2 72.6 6.7 C 72.9 6.3 70.2 7.2 70.9 6.6 C 71.7 6.0 73.8 5.9 74.6 5.4 C 74.4 5.2 73.4 5.7 73.1 5.7 C 74.5 5.2 72.6 5.6 73.8 5.3 C 74.6 5.4 75.4 4.7 76.1 4.5 C 77.1 4.4 79.3 4.3 80.1 3.9 C 80.1 3.8 78.7 4.1 78.5 4.1 C 82.8 2.9 84.3 3.2 88.3 2.3 C 88.8 2.4 89.7 2.4 90.9 2.4 C 90.8 2.2 91.6 2.1 92.6 1.9 C 94.4 2.0 96.4 2.0 99.0 2.1 C 98.6 2.4 97.4 2.5 100.9 2.5 C 101.0 2.4 99.6 2.3 100.9 2.3 C 100.9 2.3 101.7 2.4 101.9 2.3 C 101.9 2.2 101.9 2.1 101.9 2.1 C 100.9 2.1 99.9 2.1 99.0 2.1 C 99.1 1.9 98.8 1.8 98.1 1.7 C 102.3 1.5 102.0 2.1 104.6 1.9 C 105.0 2.4 105.9 2.5 103.7 2.8 C 106.0 2.8 107.6 2.7 108.2 2.4 C 105.5 2.3 106.4 2.0 105.6 1.8 C 107.3 1.9 107.3 1.8 108.2 1.7 C 110.3 2.0 106.1 2.1 110.0 2.4 C 107.1 1.9 112.5 2.2 114.5 2.5 C 114.1 2.4 113.4 2.3 114.5 2.2 C 119.7 2.5 119.1 3.5 122.1 3.4 C 121.8 3.6 123.2 3.8 123.8 4.0 C 121.3 3.7 120.7 3.7 119.6 3.6 C 119.7 3.7 120.5 3.9 121.2 4.0 C 121.2 3.8 121.9 3.9 122.9 4.1 C 123.7 4.1 123.5 3.6 125.4 3.6 C 125.6 3.8 125.3 3.9 126.3 4.1 C 127.2 4.0 125.5 4.4 129.4 5.1 C 128.7 4.8 128.4 4.6 128.7 4.4 C 130.6 4.7 130.2 4.7 132.6 5.2 C 133.4 5.9 130.8 5.4 130.1 5.5 C 131.8 5.8 133.2 5.8 134.8 6.4 C 133.6 5.9 134.9 6.0 136.4 6.3 C 137.7 6.7 136.2 6.7 137.8 7.2 C 139.0 7.4 139.8 7.4 138.6 6.9 C 141.3 7.8 140.8 7.3 143.0 8.0 C 143.0 8.2 142.4 8.0 141.6 7.7 C 141.7 7.8 141.4 7.9 142.2 8.2 C 143.7 8.4 146.9 9.4 148.6 9.9 C 151.3 11.6 154.9 12.4 157.6 13.9 C 156.3 13.6 161.0 15.7 162.1 16.7 C 162.9 17.1 165.5 17.9 164.6 17.6 C 164.5 18.1 166.1 18.8 167.1 19.6 C 167.1 19.5 167.2 19.4 167.2 19.4 C 169.6 20.8 169.9 21.4 170.5 22.2 C 173.3 23.9 175.7 26.4 178.6 28.6 C 179.1 29.5 179.7 30.0 181.0 31.6 C 181.2 31.4 182.3 32.6 183.3 33.7 C 183.3 33.3 184.2 34.4 184.3 34.2 C 183.4 33.2 184.0 33.4 183.6 32.7 C 184.6 34.3 185.7 34.6 186.3 35.9 C 185.1 34.6 184.4 34.5 183.9 34.6 C 185.3 36.1 185.9 37.0 185.9 37.5 C 186.1 37.4 186.1 37.2 185.9 36.7 C 186.4 37.3 186.8 37.8 187.1 38.3 C 187.1 38.6 186.5 37.9 186.9 38.5 C 187.2 38.8 187.6 39.2 187.9 39.5 C 188.0 40.1 187.3 39.0 187.1 39.0 C 188.4 41.1 188.3 39.8 189.1 40.9 C 189.1 41.4 188.8 41.4 189.3 42.4 C 189.7 42.7 190.1 42.7 190.6 43.7 C 191.0 44.4 190.2 43.9 190.6 44.7 C 190.8 44.8 190.9 45.1 191.0 45.5 C 191.1 45.4 191.4 45.7 191.6 46.1 C 191.5 46.3 192.0 47.0 192.2 47.3 C 192.0 47.4 192.2 48.7 192.5 48.9 C 192.6 48.9 192.3 48.2 192.4 48.1 C 192.7 49.0 192.9 49.5 193.2 50.0 C 192.6 50.4 193.6 51.7 193.5 53.1 C 193.9 53.8 194.0 52.7 194.4 53.7 C 194.4 54.4 194.1 53.7 193.8 53.9 C 193.8 54.1 193.9 55.1 194.1 55.1 C 194.3 55.1 194.1 54.5 194.2 54.4 C 194.6 55.2 194.3 55.2 194.3 55.7 C 194.5 55.6 194.7 56.2 195.0 56.3 C 195.7 58.7 195.2 58.9 195.3 60.1 C 195.4 60.1 195.5 60.8 195.6 60.9 C 195.3 60.1 195.3 58.9 195.6 60.0 C 195.4 59.9 196.0 61.5 196.1 61.6 C 196.2 61.4 195.9 60.3 196.3 60.7 C 196.8 62.2 196.0 61.7 196.6 62.9 C 196.4 63.1 196.3 62.4 196.1 62.1 C 196.2 62.6 196.4 63.3 196.3 63.4 C 196.1 62.8 195.8 62.8 195.6 62.6 C 196.1 63.4 196.2 65.0 196.3 63.9 C 196.6 65.7 197.2 67.4 197.2 66.1 C 197.6 67.6 197.0 66.8 197.5 68.0 C 197.1 67.9 196.8 67.6 196.8 68.7 C 197.0 68.8 197.2 69.7 197.5 69.5 C 197.9 71.9 197.7 72.8 197.6 73.9 C 198.0 72.8 197.8 74.1 198.3 75.4 C 198.3 76.2 197.8 75.5 198.3 77.6 C 198.3 75.2 198.8 80.4 199.1 79.3 C 199.3 82.1 199.3 82.1 199.6 85.2 C 199.4 84.9 199.1 84.2 198.9 82.9 C 199.3 83.8 198.8 80.3 198.7 80.5 C 198.6 80.5 198.6 80.5 198.5 80.6 C 198.9 82.7 199.0 84.3 198.9 85.3 C 199.2 85.7 199.4 86.8 199.8 86.4 C 199.6 88.6 200.4 91.0 200.1 92.1 C 200.0 91.3 199.9 90.5 199.8 90.8 C 200.0 91.7 200.1 92.8 200.4 92.7 C 200.3 90.8 200.3 90.4 200.0 89.5 C 200.3 90.3 200.2 87.7 200.5 89.5 C 200.0 89.5 201.0 93.2 200.6 92.0 C 200.3 90.0 200.5 94.3 200.3 94.5 C 200.3 94.5 200.3 94.5 200.3 94.5 Z M 81.7 199.6 C 85.0 200.6 81.2 199.0 78.5 198.0 C 79.3 198.4 79.5 198.7 79.5 198.8 C 80.5 199.1 81.5 199.4 81.7 199.6 C 81.7 199.6 81.7 199.6 81.7 199.6 Z M 45.7 180.0 C 44.8 179.9 48.4 181.6 49.9 182.5 C 49.5 182.2 49.1 181.8 50.0 182.3 C 48.5 181.2 47.7 181.4 45.7 180.0 C 45.7 180.0 45.7 180.0 45.7 180.0 Z M 7.2 118.8 C 7.4 119.2 7.6 120.4 7.5 120.5 C 7.6 121.2 7.7 121.0 7.8 121.1 C 8.1 122.5 7.3 120.8 7.8 123.0 C 8.5 123.7 8.0 119.2 7.2 118.8 C 7.2 118.8 7.2 118.8 7.2 118.8 Z M 193.1 73.0 C 193.0 73.8 192.5 72.1 192.3 72.6 C 193.0 75.4 193.0 73.0 193.6 77.2 C 193.6 77.0 193.6 76.6 193.8 76.7 C 193.3 74.7 193.1 74.6 193.7 75.0 C 193.6 74.1 192.9 74.0 193.1 73.0 C 193.1 73.0 193.1 73.0 193.1 73.0 Z M 194.5 116.8 C 194.6 116.5 194.8 116.1 194.9 116.2 C 194.9 114.6 194.8 114.9 195.0 112.9 C 194.5 113.1 194.5 115.1 194.5 116.8 C 194.5 116.8 194.5 116.8 194.5 116.8 Z M 89.1 191.2 C 88.6 191.2 88.1 191.1 87.6 191.1 C 87.9 191.3 86.5 191.6 89.0 191.7 C 89.2 191.6 88.7 191.6 88.3 191.5 C 88.7 191.5 90.0 191.6 89.8 191.4 C 89.1 191.3 89.0 191.3 89.1 191.2 C 89.1 191.2 89.1 191.2 89.1 191.2 Z M 47.4 182.3 C 48.6 182.5 46.4 180.6 47.4 182.3 C 47.4 182.3 47.4 182.3 47.4 182.3 C 47.4 182.3 47.4 182.3 47.4 182.3 Z M 48.2 186.6 C 48.2 186.7 48.5 186.8 48.5 186.8 C 49.6 187.4 48.4 187.0 49.0 187.4 C 50.0 187.7 48.7 186.7 50.0 187.1 C 49.9 186.9 48.8 186.9 48.2 186.6 C 48.2 186.6 48.2 186.6 48.2 186.6 Z M 118.7 3.2 C 116.4 3.0 115.7 3.2 115.2 3.5 C 116.8 3.7 118.1 3.9 118.6 4.1 C 121.6 4.2 116.6 3.6 116.2 3.5 C 116.5 3.3 118.7 3.5 118.7 3.2 C 118.7 3.2 118.7 3.2 118.7 3.2 Z M 110.9 2.6 C 109.9 2.6 108.3 2.7 108.2 2.9 C 109.8 2.9 109.9 3.1 110.0 3.2 C 111.4 3.1 109.7 2.8 110.9 2.6 C 110.9 2.6 110.9 2.6 110.9 2.6 Z M 125.3 4.5 C 124.3 4.4 124.6 4.6 124.4 4.8 C 126.0 5.0 126.2 5.2 127.6 5.4 C 127.7 5.3 127.7 5.2 127.7 5.1 C 126.5 4.9 126.4 5.0 125.3 4.8 C 125.3 4.7 125.3 4.6 125.3 4.5 C 125.3 4.5 125.3 4.5 125.3 4.5 Z M 102.8 2.7 C 97.9 2.6 95.6 3.2 92.7 3.8 C 95.9 3.6 99.2 2.9 101.8 3.1 C 104.8 3.0 100.8 2.9 100.9 2.8 C 100.9 2.7 102.0 2.7 102.8 2.7 C 102.8 2.7 102.8 2.7 102.8 2.7 Z M 65.2 9.1 C 64.4 9.2 63.2 10.2 61.1 11.1 C 61.5 11.0 61.9 10.9 61.9 11.0 C 64.9 9.8 62.9 10.0 65.2 9.1 C 65.2 9.1 65.2 9.1 65.2 9.1 Z M 48.9 17.9 C 47.3 18.9 49.8 17.5 49.1 18.2 C 50.9 17.0 52.8 15.9 52.6 15.7 C 50.7 17.0 50.3 17.3 48.9 17.9 C 48.9 17.9 48.9 17.9 48.9 17.9 Z M 38.7 25.6 C 37.2 27.0 39.6 25.3 39.1 26.1 C 39.7 25.5 39.5 25.5 39.4 25.4 C 39.9 25.1 40.4 24.8 41.1 24.1 C 40.5 24.4 38.7 26.0 38.7 25.6 C 38.7 25.6 38.7 25.6 38.7 25.6 Z M 168.1 21.4 C 167.1 20.9 167.2 21.3 165.3 20.0 C 168.3 21.9 166.3 21.6 169.9 24.0 C 169.4 23.5 169.8 23.7 169.9 23.9 C 171.4 24.7 168.8 22.9 170.2 23.5 C 169.2 22.8 169.6 23.5 168.6 22.9 C 167.7 21.9 167.1 21.3 168.1 21.4 C 168.1 21.4 168.1 21.4 168.1 21.4 Z M 169.7 24.3 C 170.6 25.0 171.0 24.6 171.2 25.1 C 171.7 25.5 171.7 25.3 171.8 25.3 C 171.4 25.1 171.4 25.0 171.4 24.9 C 170.5 24.4 169.6 23.8 169.7 24.3 C 169.7 24.3 169.7 24.3 169.7 24.3 Z M 159.8 18.1 C 161.8 19.0 162.2 19.5 163.2 19.8 C 163.6 20.6 164.5 20.4 165.2 21.3 C 167.0 22.3 165.8 21.4 165.5 20.9 C 167.2 21.9 165.7 21.4 167.4 22.4 C 167.9 22.3 165.7 21.0 166.2 20.9 C 164.9 20.1 164.8 20.3 163.9 19.8 C 163.3 19.5 163.6 19.4 163.5 19.3 C 162.0 18.4 162.2 18.3 160.8 17.6 C 160.4 17.7 160.9 18.0 162.4 18.8 C 160.8 18.1 160.1 17.9 158.3 16.8 C 159.8 17.2 153.8 14.2 154.1 14.9 C 155.7 15.7 155.4 15.2 156.1 15.5 C 158.0 16.7 159.3 17.3 159.8 18.1 C 159.8 18.1 159.8 18.1 159.8 18.1 Z M 126.0 5.6 C 125.3 5.5 124.7 5.3 123.6 5.1 C 123.5 4.9 125.0 5.1 123.6 4.7 C 121.9 4.4 121.5 4.5 120.3 4.4 C 120.9 4.6 124.6 5.5 122.6 5.3 C 123.2 5.5 124.4 5.7 125.8 6.0 C 124.2 5.3 128.3 6.4 129.8 6.8 C 129.8 6.3 132.5 7.5 133.7 7.4 C 132.9 7.0 129.7 6.5 128.3 6.3 C 129.0 6.4 124.4 4.9 126.0 5.6 C 126.0 5.6 126.0 5.6 126.0 5.6 Z M 173.5 26.9 C 173.8 27.0 174.8 27.8 174.0 27.1 C 174.5 27.4 175.2 28.2 175.1 27.5 C 175.6 27.9 176.0 28.3 176.4 28.6 C 176.1 28.6 175.1 27.6 175.3 28.2 C 176.3 28.8 175.8 28.6 176.9 29.6 C 176.1 29.3 176.8 29.9 176.1 29.8 C 176.5 30.0 177.4 30.8 177.5 30.6 C 179.0 32.0 176.9 30.5 178.8 32.3 C 178.5 32.5 177.2 31.2 176.8 30.6 C 176.3 30.6 179.1 33.0 180.3 34.4 C 179.4 33.0 180.5 33.8 181.2 34.2 C 181.5 34.7 181.1 34.4 181.6 35.2 C 182.1 35.9 182.6 36.1 182.6 36.3 C 183.0 36.8 183.0 36.5 183.2 36.5 C 183.9 37.4 183.0 37.0 184.1 38.2 C 183.7 37.0 184.7 38.0 185.8 39.8 C 185.8 39.6 185.4 39.1 185.5 38.9 C 185.9 39.0 186.2 40.3 186.3 40.6 C 186.8 41.2 186.6 40.7 186.2 40.1 C 186.6 40.4 186.9 40.7 187.2 41.1 C 186.0 39.2 183.8 36.2 180.9 32.5 C 181.3 33.3 180.5 32.6 179.6 31.5 C 179.6 31.2 180.0 31.7 180.5 32.1 C 179.6 30.7 179.1 31.3 177.3 29.3 C 176.3 28.2 178.7 30.2 177.6 29.0 C 176.8 28.4 176.1 28.1 175.9 27.5 C 174.5 26.5 173.9 26.4 171.6 24.7 C 172.8 25.8 172.9 26.8 174.3 27.7 C 174.3 27.6 173.8 27.2 173.5 26.9 C 173.5 26.9 173.5 26.9 173.5 26.9 Z M 110.0 3.4 C 108.4 3.3 107.6 3.5 107.3 3.3 C 104.6 3.3 107.6 3.6 108.1 3.7 C 109.4 3.7 109.8 3.6 110.0 3.4 C 110.0 3.4 110.0 3.4 110.0 3.4 Z M 5.9 127.1 C 6.3 129.5 6.5 128.9 7.0 130.8 C 6.7 129.3 6.9 128.8 6.4 126.4 C 6.1 126.3 5.9 126.3 5.9 127.1 C 5.9 127.1 5.9 127.1 5.9 127.1 Z M 118.6 4.4 C 120.7 4.3 116.1 4.5 116.1 4.2 C 113.6 4.1 118.3 4.6 116.0 4.7 C 118.1 4.7 119.3 5.1 121.8 5.3 C 121.8 5.0 119.8 4.8 117.7 4.6 C 117.5 4.4 118.6 4.5 118.6 4.4 C 118.6 4.4 118.6 4.4 118.6 4.4 Z M 4.5 104.0 C 4.2 102.6 4.0 105.3 3.8 106.2 C 4.2 106.3 4.2 105.8 4.5 104.0 C 4.5 104.0 4.5 104.0 4.5 104.0 Z M 10.9 143.3 C 11.6 144.1 9.9 140.5 10.6 141.3 C 10.2 140.2 10.1 140.1 10.0 140.1 C 9.9 139.5 9.2 137.7 9.7 138.2 C 9.8 137.8 10.5 141.0 10.5 139.9 C 10.9 140.9 10.8 141.0 11.1 141.8 C 10.5 140.0 10.4 140.9 11.2 143.2 C 11.4 143.1 11.0 142.1 11.6 143.1 C 11.5 143.2 11.7 144.5 11.3 144.6 C 12.1 146.5 12.1 145.2 13.0 147.5 C 13.1 147.2 12.5 145.8 12.3 144.9 C 12.7 145.0 13.0 147.4 13.2 146.7 C 13.2 147.2 13.7 148.6 13.4 148.8 C 12.5 147.1 11.8 146.0 11.1 144.6 C 11.4 146.0 12.9 147.7 13.7 150.1 C 13.8 149.8 14.4 151.2 14.5 150.6 C 15.3 152.4 14.5 151.7 14.3 151.4 C 14.4 151.9 16.3 155.3 16.4 154.9 C 16.3 155.3 18.9 159.3 19.1 159.0 C 19.7 160.3 21.4 161.8 21.4 162.6 C 22.0 163.2 23.0 164.5 24.1 165.9 C 24.7 166.1 22.6 163.7 22.7 163.4 C 22.5 162.8 24.7 166.1 24.6 165.5 C 24.7 165.5 24.7 165.4 24.8 165.4 C 23.7 164.3 22.8 163.3 21.9 162.2 C 21.3 161.4 22.1 162.4 22.1 162.0 C 21.4 161.4 18.6 157.9 19.0 157.4 C 17.3 155.0 16.4 153.1 15.6 152.2 C 14.8 150.7 16.2 153.0 16.0 152.0 C 13.3 147.7 11.5 141.8 9.9 138.1 C 9.6 137.2 9.9 137.5 10.0 137.3 C 8.2 132.0 9.1 136.7 8.2 132.5 C 8.4 132.4 8.9 134.4 9.2 134.2 C 8.8 132.8 8.5 132.4 8.1 130.5 C 8.0 130.5 7.9 130.5 7.7 130.6 C 7.4 129.0 7.9 129.5 7.8 128.7 C 7.3 126.7 7.2 127.2 7.4 126.2 C 7.0 124.4 6.6 122.6 6.5 120.7 C 6.1 119.5 5.9 121.9 6.2 123.9 C 6.1 123.8 6.0 123.2 5.9 123.2 C 5.8 120.9 6.3 120.5 6.0 117.1 C 6.0 119.7 5.8 115.8 6.0 115.3 C 5.8 113.9 5.5 115.0 5.6 115.9 C 5.5 115.8 5.5 114.9 5.6 114.8 C 5.1 114.6 5.2 117.9 5.9 121.4 C 5.1 119.8 6.3 123.9 5.4 122.1 C 5.9 125.0 5.8 122.4 6.3 125.7 C 6.4 125.4 6.4 124.7 6.5 124.4 C 7.0 126.9 6.4 126.2 7.0 128.8 C 7.4 129.2 7.0 127.5 7.2 127.5 C 7.5 130.4 7.6 131.3 7.8 133.3 C 8.0 133.6 8.2 133.0 8.9 136.3 C 8.8 136.3 8.8 136.4 8.7 136.4 C 8.3 134.8 7.6 134.6 8.8 138.4 C 9.1 138.6 8.7 137.4 8.4 136.5 C 8.7 136.8 9.2 138.0 9.7 139.5 C 9.9 140.2 10.0 141.1 9.7 140.2 C 9.6 140.9 10.3 141.2 10.9 143.3 C 10.9 143.3 10.9 143.3 10.9 143.3 Z M 69.0 8.4 C 68.5 8.7 67.9 8.9 66.9 9.3 C 66.5 9.8 68.4 9.0 68.5 9.2 C 70.0 8.6 68.7 8.7 69.0 8.4 C 69.0 8.4 69.0 8.4 69.0 8.4 Z M 91.0 4.0 C 90.8 3.7 89.6 4.2 87.7 4.3 C 87.1 4.6 89.4 4.3 89.4 4.5 C 91.7 4.4 88.8 4.1 91.0 4.0 C 91.0 4.0 91.0 4.0 91.0 4.0 Z M 81.2 5.3 C 80.3 5.2 80.4 5.6 82.1 5.3 C 82.0 5.5 81.6 5.7 80.5 6.0 C 81.8 6.1 82.4 5.4 84.5 5.2 C 83.7 5.1 82.6 5.2 81.2 5.3 C 81.2 5.3 81.2 5.3 81.2 5.3 Z M 78.1 6.0 C 77.0 6.5 76.2 6.4 74.3 7.1 C 74.8 7.2 79.0 6.0 79.7 5.8 C 80.3 5.4 75.7 6.4 78.1 6.0 C 78.1 6.0 78.1 6.0 78.1 6.0 Z M 5.7 85.4 C 5.7 85.8 5.8 85.7 5.9 85.8 C 5.3 86.9 5.3 88.7 5.0 87.3 C 5.1 88.6 4.6 89.9 4.5 91.1 C 4.4 92.1 4.7 91.6 4.7 92.4 C 4.6 93.8 4.6 91.7 4.4 92.0 C 4.2 92.2 4.7 92.6 4.4 94.3 C 4.9 93.9 4.3 95.7 4.8 95.2 C 4.6 96.2 4.8 96.5 4.8 97.7 C 5.0 97.6 5.0 96.4 5.2 96.3 C 5.5 95.6 4.9 95.6 5.0 96.7 C 4.7 96.0 5.2 94.4 5.0 93.9 C 5.4 93.3 5.0 95.4 5.4 94.8 C 5.3 94.4 5.3 94.0 5.2 93.9 C 5.3 93.2 5.4 92.7 5.6 92.5 C 5.6 92.9 5.5 92.9 5.5 92.9 C 5.4 93.8 6.0 92.1 5.9 93.9 C 6.0 93.6 6.1 92.8 6.3 93.0 C 6.5 92.5 5.4 92.9 5.9 91.2 C 5.6 90.0 5.4 94.0 4.9 92.9 C 5.1 90.3 5.5 91.8 5.7 89.9 C 5.5 89.9 5.4 89.9 5.4 89.4 C 5.3 89.5 5.2 90.2 5.2 90.7 C 5.1 90.6 5.2 89.9 5.2 89.4 C 5.1 89.4 5.1 89.8 5.0 89.8 C 5.2 88.2 5.8 88.4 5.9 89.9 C 6.1 89.9 6.2 87.9 6.1 87.4 C 5.9 87.9 6.0 87.3 5.6 87.7 C 5.6 88.1 5.7 88.1 5.8 88.2 C 5.7 88.9 5.6 88.2 5.5 88.2 C 5.6 87.3 5.9 87.4 5.7 86.6 C 5.8 86.8 5.8 87.0 6.0 87.0 C 6.0 86.6 6.1 86.2 6.1 85.8 C 5.9 85.8 5.9 85.4 5.7 85.4 C 5.7 85.4 5.7 85.4 5.7 85.4 Z M 4.3 110.7 C 4.4 112.7 4.6 111.6 4.5 110.7 C 4.6 111.1 4.7 111.8 4.8 112.5 C 4.9 111.9 4.8 111.4 4.8 109.6 C 5.2 111.1 5.7 109.5 5.6 106.7 C 4.9 105.9 4.9 108.2 4.6 107.3 C 4.8 109.3 4.7 110.5 4.3 110.7 C 4.3 110.7 4.3 110.7 4.3 110.7 Z M 108.1 3.8 C 106.4 3.7 104.5 3.7 102.8 3.7 C 102.9 4.0 108.6 4.3 108.1 3.8 C 108.1 3.8 108.1 3.8 108.1 3.8 Z M 187.8 42.8 C 188.0 43.1 188.0 43.2 188.0 43.2 C 188.7 44.3 187.9 42.6 188.4 43.0 C 188.2 42.6 187.9 42.2 187.7 41.8 C 187.6 41.8 188.4 43.5 187.6 42.4 C 187.6 42.5 187.8 42.8 187.8 42.8 C 187.8 42.8 187.8 42.8 187.8 42.8 Z M 70.7 8.3 C 69.3 8.9 70.3 8.9 67.1 10.0 C 68.3 9.8 69.0 9.4 70.8 8.8 C 70.8 8.6 70.7 8.5 70.7 8.3 C 70.7 8.3 70.7 8.3 70.7 8.3 Z M 5.9 80.0 C 5.4 80.9 6.1 81.2 5.7 82.9 C 6.2 82.1 5.8 81.1 5.9 80.0 C 5.9 80.0 5.9 80.0 5.9 80.0 Z M 28.4 169.9 C 27.8 169.1 28.7 170.0 27.6 168.6 C 26.9 167.9 26.4 167.8 25.4 166.7 C 26.5 168.4 29.4 170.9 30.2 172.3 C 31.5 173.5 31.7 173.1 32.3 173.4 C 31.6 172.8 31.3 172.5 31.2 172.3 C 30.1 171.9 29.7 170.5 28.4 169.9 C 28.4 169.9 28.4 169.9 28.4 169.9 Z M 4.6 103.5 C 4.8 102.5 4.9 104.2 5.1 104.5 C 5.1 105.3 4.9 105.0 4.7 105.1 C 4.8 106.1 4.9 106.3 5.1 106.2 C 5.2 104.3 5.2 102.2 5.6 103.5 C 5.7 101.7 5.3 102.7 5.2 101.9 C 5.4 100.9 5.5 101.8 5.8 101.9 C 5.7 101.4 5.4 100.2 5.8 100.3 C 5.4 97.8 4.9 98.9 4.4 100.8 C 4.7 102.5 4.8 100.5 4.6 103.5 C 4.6 103.5 4.6 103.5 4.6 103.5 Z M 22.0 46.1 C 21.8 46.1 21.2 47.1 21.1 47.0 C 20.6 48.2 20.2 49.3 19.9 50.5 C 20.2 50.4 20.9 48.9 20.3 49.4 C 20.8 49.1 21.6 48.1 22.1 47.7 C 22.9 46.7 22.6 45.9 23.1 46.1 C 23.7 45.0 23.2 45.6 24.5 44.0 C 22.3 46.4 25.0 43.0 24.9 42.7 C 23.7 44.2 22.8 45.4 23.2 45.4 C 22.3 46.4 21.4 47.6 21.0 47.6 C 21.0 47.5 21.6 46.7 22.0 46.1 C 22.0 46.1 22.0 46.1 22.0 46.1 Z M 18.8 52.6 C 19.0 52.2 19.2 51.8 19.6 51.1 C 19.3 51.4 19.1 51.5 19.0 51.4 C 18.2 52.6 18.1 53.0 17.6 53.3 C 16.9 54.5 18.2 53.3 17.0 55.0 C 17.2 54.9 17.7 54.0 17.8 54.1 C 17.7 53.8 18.1 53.0 18.8 52.6 C 18.8 52.6 18.8 52.6 18.8 52.6 Z M 10.5 67.4 C 10.1 68.6 11.0 66.8 10.9 67.6 C 11.0 67.2 12.1 64.9 12.2 65.4 C 12.8 64.8 13.2 62.1 13.6 62.5 C 13.8 62.0 13.6 62.1 13.5 61.9 C 12.8 63.7 12.6 63.6 13.1 62.3 C 12.9 62.4 12.5 63.5 12.1 64.2 C 12.3 64.4 12.6 63.7 12.7 63.9 C 11.9 65.3 11.2 66.2 10.5 67.4 C 10.5 67.4 10.5 67.4 10.5 67.4 Z M 198.4 90.8 C 198.3 89.4 198.2 88.5 198.0 87.8 C 197.9 88.2 198.1 88.9 198.2 89.6 C 198.1 89.8 198.0 89.2 197.9 88.4 C 197.7 89.2 198.2 91.7 198.4 90.8 C 198.4 90.8 198.4 90.8 198.4 90.8 Z M 197.0 79.0 C 196.8 77.7 196.6 76.9 196.4 76.8 C 196.3 77.3 196.6 77.1 196.7 77.9 C 196.7 78.4 196.7 78.7 196.6 79.0 C 196.7 79.6 196.8 79.4 196.9 79.6 C 197.0 80.0 196.9 80.1 196.9 80.2 C 197.4 81.7 196.6 78.4 197.0 79.0 C 197.0 79.0 197.0 79.0 197.0 79.0 Z M 14.5 59.4 C 14.8 59.0 15.1 58.8 15.8 57.5 C 15.5 57.7 16.0 56.7 16.4 56.0 C 15.6 57.0 15.3 57.6 14.5 59.4 C 14.5 59.4 14.5 59.4 14.5 59.4 Z M 175.9 29.9 C 174.9 28.7 174.7 29.1 173.0 27.4 C 172.9 27.5 172.9 27.6 172.8 27.7 C 174.1 28.4 174.5 29.0 175.9 29.9 C 175.9 29.9 175.9 29.9 175.9 29.9 Z M 63.7 191.0 C 63.9 190.8 62.2 190.4 62.1 190.2 C 61.7 190.5 61.0 189.5 58.2 188.6 C 58.2 188.5 58.4 188.5 58.8 188.6 C 56.5 187.7 59.3 189.1 59.5 189.5 C 61.4 190.1 61.6 190.4 63.7 191.0 C 63.7 191.0 63.7 191.0 63.7 191.0 Z M 16.8 152.4 C 16.6 152.3 16.8 152.7 17.0 153.0 C 17.2 153.5 17.4 153.9 17.6 154.2 C 17.9 153.9 17.0 151.9 18.2 153.1 C 17.9 152.6 17.8 152.6 17.8 152.6 C 15.4 150.2 15.7 147.3 13.6 143.6 C 13.4 143.1 13.3 143.2 13.2 143.1 C 13.4 143.6 13.4 143.7 13.3 143.8 C 13.9 144.1 14.9 147.7 14.1 146.3 C 14.1 146.4 14.3 146.9 14.4 146.9 C 14.6 147.3 14.8 147.7 14.9 148.1 C 15.0 147.8 14.6 147.0 14.7 146.7 C 15.4 148.7 16.5 151.1 15.5 150.0 C 16.1 151.2 16.5 151.5 17.0 152.3 C 17.4 153.0 17.2 153.2 16.8 152.4 C 16.8 152.4 16.8 152.4 16.8 152.4 Z M 27.1 167.0 C 28.6 168.8 28.2 167.9 29.8 169.5 C 29.0 168.4 27.5 167.4 26.4 165.8 C 26.5 166.1 27.1 166.8 27.1 167.0 C 27.1 167.0 27.1 167.0 27.1 167.0 Z M 9.8 132.8 C 10.2 133.0 9.8 131.3 9.5 129.6 C 9.0 129.3 9.3 130.9 9.8 132.8 C 9.8 132.8 9.8 132.8 9.8 132.8 Z M 12.2 140.7 C 12.9 142.5 11.5 138.4 12.1 139.3 C 11.9 138.5 11.6 137.6 11.7 137.5 C 11.4 136.9 11.2 136.9 10.9 135.7 C 10.8 135.8 11.5 137.8 11.2 137.7 C 11.8 139.0 11.9 139.2 12.2 140.7 C 12.2 140.7 12.2 140.7 12.2 140.7 Z M 12.6 141.9 C 13.1 143.1 13.1 141.4 12.6 139.9 C 12.5 140.5 12.4 141.0 12.6 141.9 C 12.6 141.9 12.6 141.9 12.6 141.9 Z M 41.6 27.0 C 40.9 27.6 41.7 27.3 40.8 28.1 C 40.9 28.2 44.0 25.6 41.4 27.8 C 42.6 27.3 42.8 26.4 44.0 25.5 C 43.6 25.8 43.2 25.9 43.9 25.4 C 44.1 24.9 41.4 27.5 41.6 27.0 C 41.6 27.0 41.6 27.0 41.6 27.0 Z M 38.6 29.6 C 38.0 30.2 38.4 30.0 38.7 29.7 C 38.6 29.9 37.8 30.6 37.2 31.1 C 37.1 31.1 38.6 30.5 38.7 30.7 C 41.0 28.3 38.9 29.8 38.6 29.6 C 38.6 29.6 38.6 29.6 38.6 29.6 Z M 36.3 32.0 C 34.5 33.4 32.5 35.6 31.8 36.8 C 33.1 36.0 35.8 33.0 36.3 32.0 C 36.3 32.0 36.3 32.0 36.3 32.0 Z M 54.2 18.4 C 50.4 20.2 43.9 25.3 50.3 21.4 C 49.9 21.3 54.0 18.6 56.2 17.5 C 56.2 17.4 58.4 15.8 58.6 16.0 C 60.2 14.9 53.3 18.7 54.2 18.4 C 54.2 18.4 54.2 18.4 54.2 18.4 Z M 30.5 39.1 C 31.1 38.2 29.8 38.9 31.0 37.8 C 31.6 37.1 30.8 37.9 30.8 37.6 C 29.5 39.1 27.2 42.5 26.7 42.5 C 26.2 43.4 26.1 43.7 25.0 45.2 C 25.1 45.3 29.0 39.8 30.4 39.0 C 30.4 39.2 28.8 41.1 30.5 39.1 C 30.5 39.1 30.5 39.1 30.5 39.1 Z M 174.7 31.3 C 175.0 31.2 173.2 29.9 173.8 29.9 C 172.6 29.4 171.9 28.5 170.6 27.8 C 170.3 27.5 170.8 27.2 169.2 26.0 C 169.0 26.2 169.8 26.7 169.0 26.3 C 167.5 25.3 168.1 25.3 166.2 24.2 C 166.2 24.8 162.2 21.7 162.4 22.4 C 163.4 23.0 163.5 22.8 165.0 23.9 C 165.5 24.2 165.2 24.2 165.9 24.7 C 165.2 24.6 164.7 23.7 163.8 23.5 C 163.9 23.7 165.1 24.5 165.1 24.8 C 165.9 25.2 165.0 24.5 165.3 24.5 C 167.2 25.7 164.8 25.0 166.9 26.3 C 166.6 25.8 166.6 25.8 167.2 25.8 C 167.9 26.5 170.3 28.0 168.9 27.4 C 168.9 27.6 170.4 28.4 170.4 28.2 C 171.1 28.7 171.1 28.8 171.1 29.0 C 173.0 30.3 173.4 30.4 173.2 29.8 C 173.7 29.9 173.7 30.5 174.7 31.3 C 174.7 31.3 174.7 31.3 174.7 31.3 Z M 75.7 9.4 C 77.4 8.7 73.8 10.0 72.1 10.5 C 74.2 9.9 73.6 10.4 75.9 9.9 C 75.0 10.0 75.2 9.8 76.6 9.5 C 76.9 9.2 73.7 10.0 75.7 9.4 C 75.7 9.4 75.7 9.4 75.7 9.4 Z M 22.9 48.2 C 22.3 48.6 20.7 51.3 19.8 52.6 C 20.4 52.6 22.0 48.9 22.7 48.8 C 23.2 48.0 22.2 49.1 22.9 48.2 C 22.9 48.2 22.9 48.2 22.9 48.2 Z M 156.7 18.6 C 156.0 18.3 156.3 18.5 156.6 18.6 C 156.4 18.7 155.2 18.0 154.2 17.6 C 155.5 18.4 153.8 17.7 154.0 18.1 C 153.3 17.8 152.9 17.7 152.8 17.7 C 153.0 17.2 148.9 16.3 152.6 18.1 C 152.1 17.5 152.4 17.6 153.9 18.2 C 155.5 19.2 156.9 19.6 157.3 20.2 C 158.3 20.7 158.8 20.8 160.1 21.5 C 160.3 21.9 161.4 22.7 160.2 22.5 C 162.5 23.8 161.3 22.3 163.2 23.4 C 164.8 24.6 162.1 23.1 162.4 23.6 C 162.8 23.9 162.7 23.9 162.8 24.1 C 163.4 24.5 163.6 24.2 162.9 23.8 C 163.2 23.9 165.1 24.8 164.4 24.7 C 165.5 25.3 163.3 23.0 161.7 22.4 C 160.8 21.9 161.1 21.4 162.0 21.9 C 161.8 21.5 159.7 21.1 160.5 20.8 C 159.7 20.4 159.0 20.0 158.3 19.6 C 158.3 19.8 158.8 20.0 158.7 20.1 C 158.0 19.7 157.3 19.3 156.5 18.9 C 157.2 19.1 157.3 19.0 156.7 18.6 C 156.7 18.6 156.7 18.6 156.7 18.6 Z M 27.8 41.8 C 26.8 43.0 26.7 43.4 26.0 44.4 C 26.5 44.1 28.5 41.4 27.8 41.8 C 27.8 41.8 27.8 41.8 27.8 41.8 Z M 180.0 37.9 C 180.0 37.8 179.4 37.2 179.5 37.1 C 180.6 38.1 179.6 36.8 180.7 37.3 C 179.3 36.0 178.4 36.0 179.8 38.1 C 181.1 39.4 178.7 36.6 180.0 37.9 C 180.0 37.9 180.0 37.9 180.0 37.9 Z M 176.1 33.5 C 175.1 32.8 177.2 35.0 177.6 35.6 C 177.5 35.7 177.5 35.7 177.4 35.8 C 178.9 36.7 177.4 35.0 178.9 35.7 C 177.7 34.2 177.2 33.5 175.8 32.4 C 175.8 32.6 176.1 32.8 176.2 32.8 C 177.1 33.7 176.2 33.4 175.2 32.3 C 175.4 32.7 176.3 33.5 176.9 34.2 C 176.8 34.0 176.7 33.7 176.8 33.6 C 177.6 34.3 177.1 34.3 177.7 34.8 C 177.6 34.9 176.0 33.7 176.1 33.5 C 176.1 33.5 176.1 33.5 176.1 33.5 Z M 195.1 128.3 C 195.3 126.9 194.4 129.6 194.0 129.4 C 193.7 130.8 193.7 131.1 193.5 132.0 C 193.8 131.6 194.2 130.1 194.5 129.5 C 194.8 129.8 194.0 131.5 194.1 132.2 C 194.4 133.1 194.6 128.8 195.1 128.3 C 195.1 128.3 195.1 128.3 195.1 128.3 Z M 124.6 8.7 C 123.7 8.6 124.2 8.8 124.6 8.8 C 124.4 8.9 123.0 8.7 123.0 8.6 C 121.8 8.4 123.7 8.9 122.2 8.7 C 121.9 8.8 124.5 9.0 124.5 8.9 C 126.3 9.2 124.9 9.4 125.3 9.6 C 126.8 9.8 126.3 9.5 128.4 10.0 C 127.2 9.5 126.1 9.1 124.6 8.7 C 124.6 8.7 124.6 8.7 124.6 8.7 Z M 182.4 40.0 C 182.7 40.1 181.4 39.5 180.9 38.4 C 179.8 37.1 181.3 39.3 180.4 38.2 C 181.1 39.2 182.2 40.2 183.2 41.6 C 183.6 41.9 181.8 39.6 182.9 40.8 C 182.9 40.7 182.7 40.4 182.6 40.4 C 182.4 40.2 182.4 40.1 182.4 40.0 C 182.4 40.0 182.4 40.0 182.4 40.0 Z M 180.8 39.0 C 180.7 39.2 181.0 39.4 181.1 39.4 C 181.4 39.9 181.2 40.0 180.8 39.6 C 181.0 40.4 181.5 40.0 182.3 41.3 C 182.1 40.6 182.1 40.3 182.7 41.5 C 183.5 42.2 181.3 39.3 180.8 39.0 C 180.8 39.0 180.8 39.0 180.8 39.0 Z M 196.7 107.0 C 196.6 107.2 196.6 108.6 196.6 109.7 C 196.4 108.4 196.5 103.1 196.7 102.5 C 196.6 101.9 196.6 101.3 196.7 101.1 C 196.6 101.2 196.4 99.8 196.3 100.5 C 196.2 100.4 196.2 99.3 196.1 99.3 C 196.1 97.4 196.3 99.8 196.5 99.3 C 196.1 97.0 196.4 97.5 196.2 94.8 C 196.0 95.3 196.3 98.2 195.8 98.0 C 196.3 100.1 196.1 102.4 195.8 103.7 C 196.3 101.7 196.5 109.3 196.3 112.9 C 196.1 112.8 196.1 114.1 195.8 115.6 C 195.5 116.6 196.2 116.3 196.1 114.3 C 196.3 114.4 196.0 117.1 195.9 118.2 C 196.2 116.9 196.3 117.7 196.4 117.0 C 196.6 114.4 196.4 116.7 196.2 116.3 C 196.2 115.6 196.3 115.0 196.3 114.2 C 196.6 117.8 196.6 109.2 196.5 112.3 C 196.6 109.6 196.9 109.5 196.7 107.0 C 196.7 107.0 196.7 107.0 196.7 107.0 Z M 190.2 57.1 C 190.1 56.9 189.7 55.9 189.9 55.8 C 189.4 54.6 189.4 55.7 189.1 54.5 C 189.0 54.6 189.1 55.1 189.0 55.1 C 189.2 55.6 189.5 56.1 189.7 55.9 C 189.8 56.5 190.0 56.7 190.1 57.1 C 190.0 57.0 189.8 56.8 189.7 56.2 C 189.4 56.2 189.3 56.4 189.6 57.3 C 189.9 57.6 190.1 57.3 190.2 57.1 C 190.2 57.1 190.2 57.1 190.2 57.1 Z M 189.1 54.2 C 189.1 54.1 189.2 53.9 189.3 53.9 C 189.5 53.4 188.9 53.8 188.8 53.4 C 188.7 53.1 188.9 53.2 189.0 53.1 C 188.8 52.6 188.6 52.1 188.6 51.8 C 188.2 51.0 188.7 52.9 188.6 53.2 C 188.8 53.8 189.0 53.5 189.1 54.2 C 189.1 54.2 189.1 54.2 189.1 54.2 Z M 185.3 44.3 C 185.4 44.0 184.8 43.9 184.5 43.3 C 184.5 43.8 185.3 44.8 184.5 44.3 C 185.1 45.4 185.1 45.4 185.7 46.4 C 185.8 47.1 186.0 46.3 185.3 45.3 C 185.4 45.4 185.7 45.8 185.9 45.8 C 185.7 46.8 187.4 48.1 186.5 47.2 C 186.4 46.9 186.4 46.7 186.5 46.4 C 186.1 46.3 184.8 43.9 185.3 44.3 C 185.3 44.3 185.3 44.3 185.3 44.3 Z M 139.9 13.0 C 142.7 13.8 142.7 13.8 145.3 14.8 C 145.3 14.9 145.1 14.9 144.6 14.8 C 145.1 15.1 145.9 15.3 147.1 15.7 C 147.0 15.6 146.5 15.4 146.4 15.5 C 144.5 14.5 146.2 15.1 146.6 15.0 C 144.2 13.8 141.8 13.6 140.7 12.8 C 139.7 12.6 140.9 13.0 139.9 13.0 C 139.9 13.0 139.9 13.0 139.9 13.0 Z M 66.6 189.2 C 66.2 189.2 65.3 189.0 65.4 189.2 C 66.2 189.4 66.9 189.5 67.7 189.6 C 66.1 189.1 66.4 188.8 64.5 188.2 C 65.1 188.5 64.8 188.8 66.6 189.2 C 66.6 189.2 66.6 189.2 66.6 189.2 Z M 187.1 47.8 C 186.9 47.9 186.8 48.0 186.6 47.6 C 186.3 47.6 187.0 48.6 186.8 48.8 C 187.0 49.1 187.1 48.9 187.3 49.3 C 187.4 49.1 186.9 48.3 187.4 48.5 C 187.5 48.8 187.5 48.8 187.4 48.9 C 187.9 49.5 187.5 48.5 187.1 47.8 C 187.1 47.8 187.1 47.8 187.1 47.8 Z M 193.4 134.8 C 193.6 133.9 193.2 134.7 193.0 135.4 C 193.2 133.4 192.3 136.4 191.9 136.5 C 192.4 135.7 192.9 133.1 193.1 132.7 C 193.2 131.9 192.8 132.7 193.1 130.6 C 192.8 130.8 192.6 133.2 192.9 132.6 C 192.4 133.1 192.3 135.4 192.0 135.1 C 191.1 138.0 191.1 138.7 191.4 139.1 C 192.1 136.2 192.2 137.8 192.7 135.3 C 192.8 135.4 192.6 136.1 192.5 136.6 C 192.8 136.5 193.1 135.4 193.4 134.8 C 193.4 134.8 193.4 134.8 193.4 134.8 Z M 193.0 70.4 C 192.8 69.3 192.5 69.4 192.3 69.5 C 192.4 69.9 192.6 70.6 192.8 71.5 C 192.9 71.2 192.6 69.9 193.0 70.4 C 193.0 70.4 193.0 70.4 193.0 70.4 Z M 195.0 124.2 C 195.2 124.1 195.2 123.5 195.1 123.5 C 195.3 121.9 195.5 121.5 195.8 120.9 C 195.8 120.0 195.6 120.3 195.4 120.2 C 195.5 121.8 195.2 121.4 194.9 123.5 C 195.1 123.4 195.1 123.7 195.0 124.2 C 195.0 124.2 195.0 124.2 195.0 124.2 Z M 194.6 81.6 C 194.5 81.0 194.5 81.3 194.5 81.6 C 194.1 80.9 194.0 78.6 193.8 77.7 C 193.5 77.7 194.0 80.4 193.4 77.3 C 193.2 77.9 193.9 80.8 194.0 82.3 C 193.7 82.0 193.4 79.9 193.1 80.1 C 193.6 81.8 194.0 83.8 194.5 84.0 C 194.2 81.4 194.5 82.3 194.6 81.6 C 194.6 81.6 194.6 81.6 194.6 81.6 Z M 194.8 84.5 C 194.9 84.3 194.7 83.8 194.6 82.8 C 194.4 84.3 194.7 85.1 194.9 88.1 C 195.0 88.1 195.1 88.1 195.1 88.1 C 195.2 88.7 195.3 89.3 195.3 89.9 C 195.4 87.2 195.1 86.6 194.7 84.0 C 194.7 83.8 194.8 84.2 194.8 84.5 C 194.8 84.5 194.8 84.5 194.8 84.5 Z M 174.1 31.9 C 174.5 32.5 174.9 33.1 175.7 34.0 C 175.8 33.7 175.4 33.1 174.1 31.9 C 174.1 31.9 174.1 31.9 174.1 31.9 Z M 194.4 126.8 C 194.3 128.6 194.7 125.1 194.3 126.1 C 193.9 127.5 193.5 129.0 193.2 129.3 C 193.1 131.9 194.1 126.4 194.4 126.8 C 194.4 126.8 194.4 126.8 194.4 126.8 Z M 195.1 114.9 C 195.2 114.1 195.6 114.1 195.3 114.9 C 195.2 116.8 195.7 113.3 195.4 116.2 C 195.6 115.0 195.9 112.2 195.8 110.9 C 195.5 111.0 195.5 113.5 195.3 113.5 C 195.2 113.7 195.2 113.3 195.2 112.9 C 195.0 113.1 195.2 113.7 195.1 114.9 C 195.1 114.9 195.1 114.9 195.1 114.9 Z M 195.8 105.1 C 195.7 106.2 195.6 107.4 195.5 109.6 C 195.7 108.2 196.1 107.4 195.8 105.1 C 195.8 105.1 195.8 105.1 195.8 105.1 Z M 103.9 192.8 C 106.0 192.8 104.2 192.5 103.9 192.4 C 101.9 192.5 102.1 192.7 99.8 192.6 C 100.5 193.0 102.6 192.5 103.9 192.8 C 103.9 192.8 103.9 192.8 103.9 192.8 Z M 96.6 192.7 C 96.4 192.4 93.7 192.4 93.5 192.2 C 91.9 192.7 89.7 191.6 89.7 192.1 C 89.1 192.0 88.6 191.9 87.5 191.8 C 89.5 192.5 94.3 192.6 96.6 192.7 C 96.6 192.7 96.6 192.7 96.6 192.7 Z M 194.8 94.3 C 194.7 92.6 194.4 94.8 194.3 93.1 C 194.2 93.0 194.3 96.2 194.1 94.3 C 194.1 96.8 194.7 94.1 194.8 94.3 C 194.8 94.3 194.8 94.3 194.8 94.3 Z M 190.6 67.4 C 190.9 67.5 190.4 65.8 190.3 65.2 C 190.2 65.2 190.3 65.7 190.4 66.1 C 190.2 65.9 190.1 65.7 190.0 65.2 C 189.8 65.6 190.5 66.8 190.6 67.4 C 190.6 67.4 190.6 67.4 190.6 67.4 Z M 200.2 97.1 C 200.0 98.2 199.8 99.6 200.3 100.4 C 200.0 101.5 199.9 99.6 199.8 101.0 C 200.0 102.9 199.7 102.0 199.8 105.0 C 199.5 104.5 199.5 106.7 199.3 107.1 C 199.2 105.8 199.5 104.3 199.2 103.7 C 199.3 104.7 199.0 104.1 199.1 103.7 C 199.3 101.7 199.6 106.1 199.7 103.7 C 199.3 103.0 199.9 99.4 199.8 97.2 C 200.1 98.0 200.1 95.4 200.2 97.1 C 200.2 97.1 200.2 97.1 200.2 97.1 Z M 199.8 109.0 C 199.8 110.7 199.1 111.5 199.2 111.0 C 199.3 111.1 199.4 109.2 199.2 109.0 C 199.2 109.5 199.2 109.9 199.1 109.7 C 199.2 106.7 199.4 107.8 199.7 107.1 C 199.8 108.7 199.6 109.2 199.7 109.7 C 199.7 109.4 199.7 109.0 199.8 109.0 C 199.8 109.0 199.8 109.0 199.8 109.0 Z M 188.9 143.1 C 189.2 142.9 189.1 142.5 189.3 141.8 C 189.8 141.9 190.2 138.5 190.6 138.2 C 190.5 138.9 190.0 140.6 189.9 141.4 C 190.2 140.5 190.4 140.4 190.5 139.5 C 190.7 139.7 190.1 141.6 190.2 142.1 C 189.9 142.3 189.8 143.2 189.6 143.4 C 190.3 140.9 188.4 144.5 188.9 143.1 C 188.9 143.1 188.9 143.1 188.9 143.1 Z M 192.9 80.7 C 192.6 80.6 192.2 83.1 191.5 80.9 C 191.7 80.4 191.9 80.1 192.3 80.2 C 191.9 78.9 192.1 78.3 191.7 77.5 C 192.2 74.9 191.9 79.4 192.9 80.7 C 192.9 80.7 192.9 80.7 192.9 80.7 Z M 191.2 72.3 C 191.5 72.6 191.3 71.5 191.6 71.7 C 191.6 72.7 192.4 75.9 192.0 74.8 C 191.8 73.7 191.5 73.8 191.2 72.3 C 191.2 72.3 191.2 72.3 191.2 72.3 Z M 9.7 75.9 C 9.9 74.5 10.6 74.0 10.6 74.8 C 10.3 74.4 10.0 76.4 9.7 75.9 C 9.7 75.9 9.7 75.9 9.7 75.9 Z M 46.5 18.2 C 44.7 19.3 43.8 20.2 43.4 20.1 C 45.0 18.8 45.0 19.1 46.4 18.1 C 46.4 17.9 47.3 17.2 47.5 17.2 C 46.7 17.8 47.0 17.8 46.5 18.2 C 46.5 18.2 46.5 18.2 46.5 18.2 Z M 192.3 47.2 C 192.3 47.1 192.2 46.6 192.5 46.7 C 192.9 47.9 193.6 49.2 194.1 50.1 C 193.9 50.1 193.8 50.2 193.7 50.2 C 193.2 48.3 192.7 47.9 192.3 47.2 C 192.3 47.2 192.3 47.2 192.3 47.2 Z M 191.7 44.6 C 191.5 44.5 191.5 45.3 191.1 44.5 C 191.3 44.4 190.8 42.8 191.2 43.4 C 191.1 43.8 191.3 44.1 191.7 44.6 C 191.7 44.6 191.7 44.6 191.7 44.6 Z M 197.3 135.7 C 196.9 137.4 197.7 135.1 197.8 135.2 C 197.5 136.4 197.1 138.0 196.8 138.5 C 197.1 137.3 196.9 136.3 197.3 135.7 C 197.3 135.7 197.3 135.7 197.3 135.7 Z M 199.9 110.4 C 200.0 106.9 200.5 108.4 200.5 105.0 C 200.8 106.4 200.7 109.5 200.9 110.4 C 200.7 110.3 200.6 111.2 200.5 111.1 C 200.5 109.8 200.6 109.6 200.6 108.4 C 200.3 108.8 200.4 108.8 200.1 108.4 C 200.1 109.3 200.2 109.9 200.2 110.4 C 200.0 110.2 199.9 111.4 199.9 110.4 C 199.9 110.4 199.9 110.4 199.9 110.4 Z M 196.7 134.9 C 196.4 136.3 195.7 137.4 196.0 136.2 C 196.3 136.0 196.3 135.1 196.5 134.8 C 196.1 136.8 197.0 133.3 197.0 134.3 C 196.7 135.5 196.7 135.9 197.0 135.7 C 196.8 136.5 196.5 137.6 196.4 137.7 C 196.5 137.1 196.7 136.4 196.6 136.3 C 196.5 136.7 196.4 137.1 196.3 137.0 C 196.7 135.8 196.7 135.2 196.7 134.9 C 196.7 134.9 196.7 134.9 196.7 134.9 Z M 198.5 125.4 C 198.2 127.3 197.9 127.4 197.6 128.1 C 198.1 125.6 198.6 125.2 199.0 123.4 C 198.6 125.4 198.7 127.6 198.4 128.2 C 198.4 127.2 198.7 125.6 198.5 125.4 C 198.5 125.4 198.5 125.4 198.5 125.4 Z M 99.5 202.5 C 98.6 202.1 97.8 201.8 96.3 201.3 C 95.7 201.5 98.2 202.6 97.2 202.2 C 95.8 201.9 96.9 201.8 95.6 201.4 C 96.2 201.8 94.8 201.6 93.0 201.0 C 91.1 200.5 88.5 199.6 88.4 199.3 C 89.9 199.8 90.4 199.8 90.1 199.5 C 93.9 200.8 95.0 200.8 96.9 201.1 C 98.2 201.8 101.2 202.4 102.3 202.0 C 102.9 202.6 103.8 201.9 104.5 202.0 C 104.6 201.8 104.0 201.9 104.3 201.7 C 104.7 201.9 104.7 202.0 105.1 201.9 C 105.0 201.8 104.9 201.6 105.0 201.5 C 105.1 201.6 105.3 201.4 105.4 201.4 C 105.1 201.8 105.7 201.9 105.2 202.4 C 104.9 202.4 105.2 201.9 104.4 202.2 C 104.2 202.4 103.8 202.6 104.0 202.9 C 103.7 202.9 103.5 203.0 103.3 203.1 C 103.7 202.7 101.5 203.2 102.5 202.8 C 102.6 202.8 103.3 202.8 103.7 202.6 C 103.3 202.4 102.9 202.6 102.0 202.7 C 101.6 202.5 102.2 202.4 101.7 202.3 C 101.0 202.5 102.0 202.8 101.4 202.9 C 101.6 202.9 102.0 202.9 102.0 203.0 C 100.7 202.7 100.0 202.9 99.1 202.7 C 99.8 202.6 98.1 202.3 99.5 202.5 C 99.5 202.5 99.5 202.5 99.5 202.5 Z M 105.5 199.9 C 105.5 199.9 105.4 199.7 105.4 199.7 C 105.7 199.6 105.8 199.7 106.0 199.6 C 106.0 199.7 105.7 199.7 105.5 199.9 C 105.5 199.9 105.5 199.9 105.5 199.9 Z M 103.7 201.1 C 103.4 200.8 103.7 201.5 103.5 201.5 C 103.9 201.4 104.1 201.2 104.3 201.5 C 103.9 201.6 103.7 201.6 103.2 201.8 C 103.7 201.3 102.5 201.5 102.3 201.1 C 102.8 201.1 103.1 200.9 103.5 200.8 C 103.5 201.0 104.0 200.9 103.7 201.1 C 103.7 201.1 103.7 201.1 103.7 201.1 Z M 104.0 200.5 C 104.2 200.6 104.1 200.4 104.4 200.5 C 104.3 200.6 104.4 200.7 104.6 200.8 C 104.5 201.0 104.4 200.9 104.3 201.0 C 104.0 200.8 104.2 200.7 104.1 200.5 C 104.1 200.6 104.0 200.5 104.0 200.5 C 104.0 200.5 104.0 200.5 104.0 200.5 Z M 55.8 184.4 C 56.0 184.9 54.4 184.0 54.2 183.8 C 54.5 184.3 54.2 184.3 53.2 184.0 C 53.8 183.8 52.3 183.3 51.8 182.5 C 51.4 182.7 52.4 183.3 51.2 182.8 C 50.4 182.3 49.6 182.1 48.5 181.6 C 48.4 181.2 48.9 181.4 49.2 181.4 C 48.4 181.1 48.8 181.0 48.3 180.7 C 48.3 180.9 47.8 180.8 47.7 180.5 C 48.6 180.9 46.8 179.6 47.7 180.0 C 47.7 180.1 48.0 180.2 48.2 180.2 C 47.8 180.5 49.1 181.0 49.3 181.3 C 50.1 181.0 51.5 181.9 53.6 183.1 C 53.7 183.4 52.9 183.1 53.5 183.4 C 53.6 183.3 54.3 183.7 54.7 183.7 C 54.6 183.9 54.9 184.1 55.3 184.3 C 55.4 184.3 55.5 184.3 55.8 184.4 C 55.8 184.4 55.8 184.4 55.8 184.4 Z M 9.6 120.2 C 10.2 120.3 9.4 116.6 9.2 115.6 C 9.8 115.7 10.4 122.3 9.6 120.2 C 9.6 120.2 9.6 120.2 9.6 120.2 Z M 16.0 143.4 C 15.6 142.4 15.6 143.2 15.2 142.3 C 15.5 142.2 14.1 140.1 14.4 140.0 C 15.0 141.0 15.2 141.7 16.0 143.4 C 16.0 143.4 16.0 143.4 16.0 143.4 Z M 27.9 163.6 C 26.6 162.1 28.5 164.5 28.2 164.3 C 27.0 163.0 25.9 161.6 26.2 161.5 C 27.1 162.8 28.0 163.3 27.9 163.6 C 27.9 163.6 27.9 163.6 27.9 163.6 Z M 12.8 132.6 C 12.5 131.1 13.5 133.4 13.4 133.7 C 12.8 132.2 13.4 134.8 13.9 136.1 C 13.5 136.2 13.4 135.6 13.3 136.3 C 12.5 134.3 13.5 135.9 13.0 134.4 C 12.6 133.5 12.9 134.5 12.7 134.5 C 12.5 134.0 12.3 133.4 12.2 132.8 C 12.3 132.7 12.5 132.7 12.7 132.7 C 12.9 133.3 13.1 134.0 13.2 133.8 C 13.0 133.2 12.9 133.1 12.8 132.6 C 12.8 132.6 12.8 132.6 12.8 132.6 Z M 44.3 178.0 C 44.2 178.0 44.2 178.1 44.2 178.2 C 44.3 178.0 44.7 177.6 44.6 177.9 C 44.2 178.0 44.4 178.3 44.2 178.4 C 44.3 178.1 44.0 178.3 44.0 178.3 C 44.1 178.1 44.4 177.7 44.3 178.0 C 44.3 178.0 44.3 178.0 44.3 178.0 Z M 44.6 178.4 C 44.6 178.3 44.6 178.3 44.5 178.2 C 44.7 178.1 44.6 177.9 44.8 177.9 C 44.7 178.0 45.2 178.4 44.8 178.3 C 44.6 178.0 44.8 178.5 44.9 178.6 C 44.8 178.5 44.4 178.7 44.5 178.4 C 44.5 178.5 44.6 178.5 44.6 178.4 C 44.6 178.4 44.6 178.4 44.6 178.4 Z M 65.5 187.0 C 65.7 186.9 64.8 186.6 64.5 186.4 C 67.1 187.3 69.6 188.0 71.1 188.4 C 69.7 188.1 69.7 188.3 70.5 188.6 C 69.0 188.1 68.6 188.2 68.2 187.9 C 69.5 188.0 67.1 187.5 65.5 187.0 C 65.5 187.0 65.5 187.0 65.5 187.0 Z M 65.5 187.0 " fill="#000000"></path><g><clipPath id="clip0x600000eab340"><path d="M 6.7 6.2 L 197.7 6.2 L 197.7 201.2 L 6.7 201.2 Z M 6.7 6.2 "></path></clipPath><g clip-path="url(#clip0x600000eab340)"><text xml:space="preserve" font-family="Helvetica-Bold,Helvetica" font-weight="bold" font-size="36.0" fill="#000000" transform="matrix(1.00, 0.00, -0.00, -1.00, 70.4, 90.4)">t</text><text xml:space="preserve" font-family="Helvetica-Bold,Helvetica" font-weight="bold" font-size="36.0" fill="#000000" transform="matrix(1.00, 0.00, -0.00, -1.00, 82.4, 90.4)">e</text><text xml:space="preserve" font-family="Helvetica-Bold,Helvetica" font-weight="bold" font-size="36.0" fill="#000000" transform="matrix(1.00, 0.00, -0.00, -1.00, 102.4, 90.4)">x</text><text xml:space="preserve" font-family="Helvetica-Bold,Helvetica" font-weight="bold" font-size="36.0" fill="#000000" transform="matrix(1.00, 0.00, -0.00, -1.00, 122.5, 90.4)">t</text></g></g></g></svg>