<?xml version="1.0" encoding="UTF-8" standalone="no"?><svg xmlns="http://www.w3.org/2000/svg" xmlns:xlink="http://www.w3.org/1999/xlink" clip-rule="evenodd" stroke-miterlimit="10" viewBox="0 0 23 20"><desc>SVG generated by Keynote</desc><defs></defs><g transform="matrix(1.00, 0.00, -0.00, -1.00, 0.0, 20.0)"><path d="M 13.7 15.4 C 13.7 15.4 13.7 15.4 13.8 15.4 C 13.8 15.4 13.8 15.4 13.9 15.3 C 13.9 15.3 13.8 15.3 13.8 15.3 C 13.8 15.3 13.8 15.3 13.8 15.3 C 13.8 15.4 13.7 15.4 13.7 15.4 C 13.7 15.4 13.7 15.4 13.7 15.4 Z M 11.4 12.3 C 11.4 12.3 11.4 12.1 11.4 12.1 C 11.3 12.1 11.3 12.2 11.3 12.1 C 11.3 12.0 11.4 12.0 11.4 11.9 C 11.5 12.0 11.4 12.3 11.4 12.3 C 11.4 12.3 11.4 12.3 11.4 12.3 Z M 5.5 12.2 C 5.4 12.1 5.5 12.3 5.5 12.4 C 5.4 12.4 5.4 12.7 5.4 12.8 C 5.4 12.7 5.4 12.6 5.4 12.5 C 5.4 12.5 5.4 12.5 5.4 12.5 C 5.4 12.4 5.3 12.5 5.3 12.4 C 5.4 12.3 5.4 12.2 5.3 12.1 C 5.4 12.1 5.4 12.0 5.5 12.2 C 5.5 12.2 5.5 12.2 5.5 12.2 Z M 11.5 8.7 C 11.5 8.6 11.5 8.6 11.6 8.6 C 11.7 8.6 11.6 8.6 11.6 8.6 C 11.7 8.6 11.8 8.6 11.8 8.6 C 11.7 8.7 11.4 8.8 11.3 8.8 C 11.5 8.7 11.4 8.7 11.5 8.7 C 11.5 8.7 11.5 8.7 11.5 8.7 Z M 12.9 10.8 C 12.8 10.9 13.1 10.7 13.1 10.8 C 12.9 10.9 12.8 11.0 12.7 10.9 C 12.8 10.9 12.8 10.8 12.9 10.8 C 12.9 10.8 12.9 10.8 12.9 10.8 Z M 7.9 13.6 C 7.9 13.5 7.8 13.6 7.9 13.4 C 7.9 13.4 7.9 13.4 7.9 13.4 C 7.9 13.5 7.9 13.6 7.9 13.6 C 7.9 13.6 7.9 13.6 7.9 13.6 Z M 4.7 13.9 C 4.6 13.7 4.5 13.9 4.6 13.8 C 4.5 13.6 4.6 13.2 4.6 13.4 C 4.6 13.7 4.8 13.9 4.7 13.9 C 4.7 13.9 4.7 13.9 4.7 13.9 Z M 10.7 15.4 C 10.6 15.2 10.6 15.7 10.6 15.5 C 10.6 15.5 10.6 15.4 10.6 15.4 C 10.6 15.3 10.6 15.4 10.6 15.3 C 10.6 15.3 10.7 15.2 10.7 15.4 C 10.7 15.4 10.7 15.4 10.7 15.4 Z M 13.4 13.9 C 13.4 13.9 13.4 13.9 13.3 13.9 C 13.3 13.8 13.2 13.9 13.3 13.8 C 13.5 13.7 13.4 13.8 13.4 13.8 C 13.4 13.8 13.5 13.8 13.4 13.9 C 13.4 13.9 13.4 13.9 13.4 13.9 Z M 13.2 11.8 C 13.1 11.9 13.1 11.9 13.0 11.9 C 13.1 11.8 13.3 11.7 13.4 11.8 C 13.5 11.7 13.6 11.7 13.7 11.7 C 13.7 11.6 13.7 11.6 13.7 11.6 C 13.4 11.7 13.9 11.4 13.7 11.4 C 13.8 11.4 14.0 11.2 13.9 11.4 C 14.1 11.3 14.1 11.3 14.2 11.2 C 14.1 11.3 14.1 11.2 13.9 11.3 C 13.9 11.3 13.9 11.2 13.9 11.2 C 14.1 11.1 14.0 11.2 14.1 11.1 C 14.1 11.1 14.2 11.1 14.2 11.1 C 14.1 11.1 14.0 11.1 14.0 11.1 C 14.0 11.0 14.2 11.0 14.2 10.9 C 14.1 11.0 14.1 11.0 14.0 11.1 C 13.9 11.1 14.0 11.0 13.9 11.0 C 14.0 11.0 14.0 11.0 14.1 10.9 C 13.8 11.0 14.2 10.8 13.9 10.8 C 13.6 11.0 14.0 10.8 13.6 10.9 C 13.7 10.8 14.0 10.8 13.9 10.7 C 13.5 10.9 13.6 10.7 13.3 11.0 C 13.3 10.9 12.9 11.0 12.9 11.1 C 12.9 10.9 12.7 11.1 12.7 11.1 C 12.6 11.0 12.8 11.0 12.9 11.0 C 12.9 11.0 13.0 11.0 12.9 11.0 C 13.0 11.0 13.0 11.0 13.1 11.0 C 12.9 11.0 13.2 10.8 13.4 10.8 C 13.4 10.8 13.2 10.9 13.2 10.9 C 13.4 10.8 13.2 11.0 13.3 10.9 C 13.5 10.8 13.7 10.7 13.7 10.7 C 13.6 10.7 13.5 10.7 13.5 10.8 C 13.5 10.8 13.4 10.7 13.4 10.7 C 13.6 10.6 13.7 10.6 13.8 10.6 C 13.7 10.5 13.7 10.5 13.6 10.5 C 13.6 10.6 13.5 10.7 13.4 10.7 C 13.7 10.5 13.4 10.5 13.7 10.5 C 13.7 10.4 13.4 10.5 13.7 10.4 C 13.6 10.3 13.5 10.4 13.5 10.4 C 13.6 10.2 13.4 10.3 13.4 10.2 C 13.2 10.3 13.5 10.1 13.5 10.1 C 13.4 10.2 13.3 10.2 13.2 10.2 C 13.3 10.1 13.4 10.0 13.2 10.0 C 13.2 10.0 13.4 9.9 13.3 9.9 C 13.0 9.9 13.3 9.7 13.0 9.8 C 13.1 9.7 13.1 9.7 13.0 9.7 C 13.1 9.6 13.3 9.6 13.3 9.5 C 13.1 9.6 13.1 9.6 13.0 9.6 C 13.2 9.5 12.8 9.6 13.0 9.5 C 13.1 9.5 13.1 9.5 13.2 9.5 C 13.2 9.5 13.3 9.5 13.3 9.4 C 13.1 9.5 13.2 9.4 13.3 9.4 C 13.2 9.4 13.1 9.4 13.0 9.4 C 13.0 9.4 13.0 9.4 13.0 9.4 C 13.0 9.3 13.1 9.4 13.1 9.3 C 12.7 9.5 13.1 9.2 12.8 9.2 C 12.9 9.2 13.0 9.1 13.0 9.0 C 12.8 9.1 12.9 9.1 12.8 9.2 C 12.8 9.0 12.7 9.2 12.7 9.2 C 12.7 9.0 12.7 8.9 12.8 8.7 C 12.7 8.8 12.5 8.7 12.6 8.7 C 12.6 8.7 12.7 8.5 12.7 8.5 C 12.5 8.6 12.2 8.7 12.0 8.7 C 12.2 8.6 12.2 8.6 12.4 8.5 C 12.5 8.4 12.2 8.5 12.5 8.3 C 12.3 8.4 12.3 8.4 12.2 8.4 C 12.3 8.3 12.4 8.3 12.6 8.2 C 12.5 8.2 12.6 8.2 12.6 8.1 C 12.1 8.3 12.6 8.0 12.2 8.2 C 12.2 8.1 12.3 8.0 12.3 8.0 C 12.2 8.0 12.1 8.1 12.1 8.1 C 12.1 8.1 12.3 8.0 12.1 8.2 C 12.0 8.1 11.7 8.5 11.5 8.5 C 11.5 8.4 11.7 8.4 11.7 8.4 C 11.6 8.3 11.4 8.4 11.5 8.5 C 11.4 8.4 11.4 8.4 11.2 8.5 C 11.1 8.4 11.3 8.4 11.3 8.3 C 11.1 8.2 10.9 8.0 11.0 7.6 C 10.8 7.7 10.9 7.5 11.0 7.4 C 10.8 7.4 10.7 7.3 10.9 7.2 C 10.7 7.3 11.0 7.0 10.8 7.1 C 10.9 7.1 10.8 7.2 10.7 7.2 C 10.8 7.0 10.8 6.8 10.6 6.8 C 10.8 6.7 10.7 6.7 10.6 6.7 C 10.7 6.6 10.7 6.6 10.7 6.6 C 10.6 6.6 10.4 6.6 10.6 6.5 C 10.5 6.5 10.8 6.5 10.8 6.4 C 10.7 6.5 10.7 6.4 10.5 6.5 C 10.6 6.4 10.5 6.4 10.5 6.3 C 10.6 6.3 10.7 6.3 10.8 6.3 C 10.7 6.3 10.6 6.3 10.7 6.2 C 10.5 6.3 10.6 6.2 10.5 6.1 C 10.5 6.1 10.6 6.0 10.6 6.0 C 10.4 6.0 10.5 6.1 10.4 6.1 C 10.5 6.1 10.5 6.0 10.4 6.1 C 10.4 6.0 10.3 6.0 10.4 5.9 C 10.4 6.0 10.6 5.8 10.6 5.8 C 10.6 5.7 10.6 5.7 10.5 5.7 C 10.5 5.8 10.5 5.8 10.4 5.8 C 10.5 5.8 10.2 5.9 10.4 5.8 C 10.4 5.8 10.5 5.8 10.5 5.7 C 10.2 5.8 10.3 5.6 10.5 5.6 C 10.4 5.6 10.4 5.7 10.5 5.7 C 10.6 5.6 10.4 5.6 10.6 5.5 C 10.7 5.5 10.6 5.6 10.6 5.6 C 10.7 5.6 10.8 5.6 10.9 5.6 C 10.8 5.5 10.6 5.6 10.8 5.5 C 10.8 5.4 10.6 5.6 10.6 5.5 C 10.6 5.4 10.8 5.4 10.9 5.3 C 10.7 5.3 10.5 5.4 10.4 5.5 C 10.3 5.4 10.2 5.5 10.2 5.4 C 10.3 5.3 10.4 5.3 10.5 5.3 C 10.4 5.3 10.3 5.5 10.4 5.4 C 10.7 5.3 10.8 5.2 10.8 5.1 C 10.5 5.2 10.7 5.1 10.6 5.1 C 10.4 5.2 10.7 5.0 10.5 5.1 C 10.4 5.1 10.5 5.1 10.5 5.2 C 10.4 5.2 10.3 5.2 10.2 5.2 C 10.3 5.2 10.2 5.2 10.3 5.1 C 10.4 5.1 10.4 5.1 10.5 5.0 C 10.5 5.0 10.4 5.0 10.4 5.0 C 10.5 4.9 10.8 4.8 11.0 4.7 C 11.1 4.7 11.1 4.8 11.2 4.7 C 11.3 4.8 10.9 4.8 10.9 4.9 C 11.2 4.8 10.9 4.9 10.9 5.0 C 10.9 5.0 11.0 5.0 11.0 5.0 C 11.1 5.0 11.2 4.8 11.3 4.9 C 11.2 4.9 11.1 5.0 11.1 5.1 C 11.2 5.0 11.2 4.9 11.2 5.0 C 11.2 5.0 11.0 5.1 11.1 5.1 C 11.1 5.1 11.1 5.1 11.2 5.1 C 11.1 5.0 11.3 5.1 11.4 5.0 C 11.5 5.0 11.2 5.1 11.2 5.1 C 11.3 5.1 11.2 5.2 11.4 5.1 C 11.3 5.1 11.3 5.1 11.5 5.0 C 11.4 5.1 11.7 5.3 11.4 5.3 C 11.5 5.3 11.8 5.3 11.7 5.4 C 11.7 5.3 11.6 5.4 11.4 5.4 C 11.7 5.4 11.6 5.5 11.8 5.6 C 11.8 5.4 12.1 5.4 12.2 5.3 C 12.2 5.2 12.2 5.2 12.1 5.2 C 12.0 5.3 12.1 5.3 12.2 5.3 C 12.0 5.3 11.9 5.4 11.7 5.5 C 11.8 5.3 11.6 5.3 11.7 5.2 C 11.7 5.2 11.9 5.0 11.9 5.0 C 11.8 5.1 11.8 5.2 11.8 5.2 C 11.9 5.2 11.9 5.2 12.0 5.2 C 12.0 5.2 12.0 5.2 12.1 5.2 C 12.0 5.1 12.2 5.0 12.0 5.0 C 12.0 5.0 12.1 5.0 12.1 5.0 C 12.1 5.0 12.1 5.0 12.2 4.9 C 12.2 5.0 12.2 5.0 12.2 5.0 C 12.3 4.9 12.4 4.8 12.4 4.8 C 12.6 4.7 12.8 4.5 12.9 4.6 C 12.7 4.7 12.7 4.7 12.6 4.8 C 12.5 4.8 12.6 4.9 12.7 4.8 C 12.8 4.8 12.8 4.7 13.0 4.6 C 13.0 4.6 13.1 4.6 13.0 4.7 C 12.9 4.7 12.9 4.9 12.7 5.0 C 12.8 4.9 12.8 4.9 12.9 4.8 C 12.9 4.9 12.8 5.0 13.0 4.9 C 13.2 4.9 13.0 5.0 13.0 5.0 C 13.2 4.9 13.1 5.0 13.3 4.9 C 13.4 5.0 13.1 5.0 13.1 5.1 C 13.2 5.1 13.2 5.0 13.3 5.1 C 13.2 5.2 13.2 5.3 13.0 5.4 C 13.0 5.4 13.0 5.4 13.0 5.5 C 13.1 5.4 13.1 5.4 13.2 5.4 C 13.1 5.5 13.1 5.5 13.1 5.5 C 13.3 5.3 13.4 5.3 13.5 5.1 C 13.4 5.1 13.4 5.1 13.3 5.2 C 13.2 5.1 13.3 5.1 13.3 5.0 C 13.4 4.9 13.7 4.8 13.5 4.8 C 13.7 4.8 13.7 4.7 13.8 4.7 C 13.7 4.8 13.6 4.9 13.6 4.9 C 13.7 4.9 13.8 4.9 13.8 4.9 C 13.7 4.9 13.7 5.0 13.8 5.0 C 13.7 5.0 13.6 5.0 13.6 5.0 C 13.6 5.2 13.8 5.0 13.7 5.2 C 13.8 5.1 13.8 5.0 13.9 5.0 C 14.0 5.1 13.9 5.1 13.9 5.2 C 13.9 5.2 14.0 5.2 14.0 5.2 C 13.9 5.3 13.6 5.2 13.4 5.4 C 13.6 5.3 13.6 5.4 13.5 5.5 C 13.3 5.5 13.5 5.4 13.4 5.5 C 13.4 5.6 13.1 5.6 13.1 5.8 C 13.2 5.7 13.3 5.7 13.3 5.7 C 13.3 5.6 13.4 5.5 13.6 5.5 C 13.6 5.4 13.8 5.3 13.6 5.3 C 14.0 5.2 13.7 5.3 13.7 5.4 C 13.8 5.3 13.8 5.3 14.0 5.2 C 13.9 5.4 14.2 5.3 14.0 5.6 C 14.1 5.4 14.0 5.6 14.1 5.5 C 14.1 5.4 14.5 5.3 14.6 5.2 C 14.5 5.2 14.2 5.3 14.1 5.4 C 14.3 5.3 14.4 5.2 14.6 5.1 C 14.6 5.2 14.6 5.2 14.7 5.2 C 14.6 5.3 14.3 5.5 14.2 5.5 C 14.2 5.5 14.3 5.5 14.2 5.6 C 14.2 5.5 14.1 5.6 14.0 5.6 C 14.0 5.7 14.2 5.7 14.1 5.9 C 14.2 5.8 14.2 5.8 14.3 5.8 C 14.1 5.8 14.5 5.6 14.5 5.5 C 14.5 5.6 14.6 5.5 14.6 5.5 C 14.6 5.6 14.7 5.5 14.6 5.7 C 14.7 5.6 14.7 5.6 14.8 5.6 C 14.7 5.7 14.7 5.7 14.9 5.7 C 14.8 5.8 14.5 5.9 14.3 5.9 C 14.4 5.9 14.4 6.1 14.6 5.9 C 14.6 6.0 14.4 6.1 14.4 6.1 C 14.6 6.1 14.5 6.0 14.8 5.9 C 14.8 6.0 14.6 6.0 14.8 6.0 C 14.6 6.1 14.5 6.2 14.5 6.2 C 14.6 6.1 14.6 6.2 14.7 6.2 C 14.7 6.1 14.7 6.1 14.8 6.0 C 14.8 6.2 14.8 6.2 14.9 6.2 C 14.7 6.3 14.6 6.4 14.5 6.4 C 14.7 6.4 14.5 6.5 14.6 6.5 C 14.6 6.4 14.6 6.4 14.7 6.3 C 14.8 6.5 15.1 6.5 14.9 6.7 C 14.9 6.7 14.9 6.6 14.8 6.7 C 14.8 6.7 14.8 6.7 14.8 6.7 C 14.7 6.7 14.7 6.6 14.7 6.6 C 14.7 6.6 14.8 6.6 14.8 6.5 C 14.7 6.6 14.8 6.5 14.6 6.6 C 14.8 6.6 14.6 6.7 14.4 6.9 C 14.7 6.8 14.7 6.8 15.0 6.7 C 14.9 6.7 14.9 6.8 14.9 6.8 C 15.1 6.7 15.0 6.8 15.0 6.8 C 14.9 6.9 14.7 6.8 14.5 6.9 C 14.9 6.7 14.5 7.1 14.8 7.0 C 14.9 7.0 14.6 7.1 14.8 7.1 C 14.8 7.1 14.7 7.1 14.7 7.2 C 14.7 7.2 14.8 7.2 14.8 7.1 C 14.9 7.0 15.1 6.9 15.1 6.8 C 15.1 6.8 15.1 6.9 15.1 6.8 C 15.2 6.8 15.2 6.8 15.2 6.8 C 15.0 6.9 15.3 6.9 15.1 7.0 C 15.1 6.9 15.1 6.9 15.0 7.0 C 15.1 7.0 14.9 7.1 14.8 7.3 C 14.9 7.2 15.0 7.3 15.0 7.3 C 15.0 7.4 14.8 7.5 14.8 7.5 C 15.2 7.3 14.8 7.6 15.1 7.6 C 14.9 7.7 14.9 7.9 15.1 7.8 C 15.0 7.9 15.0 7.9 15.0 7.9 C 15.0 8.0 14.9 8.0 14.9 8.0 C 14.9 8.0 15.1 7.9 15.1 7.9 C 15.1 8.0 14.9 8.1 14.9 8.1 C 15.1 8.1 15.0 8.0 15.2 8.0 C 15.1 8.1 15.2 8.2 15.3 8.0 C 15.4 8.1 15.0 8.2 15.1 8.3 C 15.2 8.2 15.2 8.2 15.3 8.2 C 15.1 8.3 15.1 8.4 15.0 8.4 C 15.2 8.4 15.2 8.3 15.2 8.4 C 15.2 8.4 15.3 8.4 15.4 8.3 C 15.4 8.4 15.4 8.4 15.4 8.4 C 15.4 8.4 15.2 8.4 15.2 8.4 C 15.2 8.5 15.0 8.7 15.2 8.5 C 15.3 8.6 15.1 8.6 15.1 8.7 C 15.3 8.6 15.2 8.7 15.2 8.7 C 15.4 8.6 15.3 8.7 15.3 8.8 C 15.4 8.7 15.5 8.7 15.5 8.7 C 15.4 8.7 15.4 8.8 15.5 8.8 C 15.5 8.8 15.6 8.7 15.6 8.7 C 15.6 8.8 15.4 8.9 15.4 9.0 C 15.2 9.1 15.3 9.0 15.1 9.1 C 15.3 9.0 15.2 9.1 15.2 9.2 C 15.5 9.0 15.6 9.2 15.7 9.0 C 15.8 9.0 16.0 9.0 15.8 9.1 C 15.8 9.0 15.7 9.2 15.6 9.2 C 15.7 9.2 15.6 9.3 15.7 9.3 C 15.7 9.2 15.8 9.1 15.9 9.1 C 16.1 9.1 16.0 9.3 15.8 9.3 C 15.9 9.3 15.9 9.3 16.0 9.3 C 15.9 9.3 16.2 9.1 16.2 9.2 C 16.0 9.2 16.0 9.3 16.0 9.4 C 16.1 9.3 16.0 9.5 16.2 9.4 C 16.0 9.4 16.3 9.2 16.4 9.2 C 16.3 9.3 16.2 9.5 16.1 9.5 C 16.1 9.5 16.2 9.5 16.2 9.5 C 16.4 9.4 16.4 9.4 16.5 9.4 C 16.5 9.4 16.6 9.4 16.5 9.5 C 16.4 9.4 16.4 9.5 16.3 9.5 C 16.3 9.6 16.2 9.6 16.2 9.7 C 16.2 9.6 16.3 9.7 16.3 9.6 C 16.2 9.7 16.3 9.6 16.4 9.5 C 16.5 9.6 16.3 9.6 16.3 9.7 C 16.5 9.7 16.7 9.6 16.6 9.7 C 16.6 9.7 16.5 9.8 16.4 9.8 C 16.5 9.7 16.3 9.7 16.2 9.8 C 16.1 9.8 16.0 9.9 16.3 9.8 C 16.3 9.8 16.2 9.8 16.1 9.8 C 16.2 9.8 16.3 9.8 16.4 9.8 C 16.3 9.9 16.4 9.9 16.2 9.9 C 16.3 9.9 16.2 10.1 16.3 10.1 C 16.3 10.0 16.3 9.9 16.5 9.8 C 16.6 9.9 16.4 10.0 16.5 9.9 C 16.7 9.9 16.6 9.8 16.7 9.7 C 16.9 9.7 16.5 10.0 16.8 9.8 C 16.8 9.8 16.8 9.9 16.7 9.9 C 16.7 9.9 16.5 10.1 16.4 10.1 C 16.5 10.1 16.5 10.1 16.6 10.1 C 16.5 10.1 16.7 9.9 16.7 10.0 C 16.6 10.0 16.8 10.0 16.8 10.0 C 16.7 10.0 16.8 10.1 16.7 10.1 C 16.8 10.1 16.8 10.0 16.9 10.0 C 16.9 10.0 17.2 10.0 17.0 10.1 C 17.0 10.1 17.0 10.0 16.9 10.1 C 16.7 10.3 16.5 10.4 16.5 10.6 C 16.5 10.6 16.4 10.6 16.4 10.6 C 16.4 10.7 16.3 10.8 16.2 10.8 C 16.2 10.9 16.4 10.8 16.5 10.8 C 16.5 10.7 16.4 10.8 16.5 10.7 C 16.5 10.7 16.8 10.5 16.9 10.4 C 16.7 10.4 16.9 10.3 16.8 10.3 C 17.0 10.2 16.8 10.2 17.0 10.1 C 16.8 10.3 17.0 10.3 17.0 10.5 C 16.8 10.5 16.7 10.6 16.6 10.7 C 16.6 10.8 16.8 10.6 16.8 10.7 C 16.7 10.8 16.6 10.8 16.6 10.8 C 16.7 10.8 16.7 10.9 16.5 11.0 C 16.5 10.9 16.4 11.1 16.3 11.0 C 16.3 11.1 16.3 11.1 16.3 11.1 C 16.4 11.0 16.5 11.1 16.6 11.0 C 16.8 11.0 16.2 11.2 16.3 11.2 C 16.4 11.1 16.5 11.2 16.5 11.2 C 16.3 11.3 16.4 11.4 16.3 11.5 C 16.4 11.4 16.4 11.4 16.5 11.4 C 16.6 11.4 16.6 11.3 16.5 11.3 C 16.6 11.3 16.6 11.2 16.6 11.2 C 16.7 11.3 16.8 11.2 16.8 11.2 C 16.8 11.3 16.8 11.3 16.7 11.4 C 16.8 11.3 16.8 11.3 16.8 11.3 C 16.8 11.2 17.1 11.2 17.1 11.2 C 17.0 11.1 16.9 11.2 16.9 11.2 C 17.1 11.0 17.1 11.1 17.3 11.1 C 17.4 11.0 17.2 11.0 17.4 10.9 C 17.6 10.9 17.5 11.0 17.4 11.1 C 17.7 11.0 17.4 11.2 17.7 11.1 C 17.7 11.2 17.6 11.2 17.6 11.2 C 17.8 11.2 17.5 11.3 17.5 11.3 C 17.6 11.3 17.7 11.2 17.8 11.2 C 17.7 11.3 17.7 11.3 17.9 11.4 C 17.8 11.5 17.7 11.5 17.5 11.6 C 17.5 11.6 17.5 11.6 17.4 11.6 C 17.4 11.7 17.9 11.4 17.6 11.7 C 17.7 11.6 17.9 11.5 17.9 11.5 C 17.8 11.7 18.0 11.7 17.6 11.9 C 17.4 12.1 17.8 12.0 17.6 12.1 C 17.6 12.1 17.6 12.1 17.7 12.1 C 17.8 12.0 17.9 11.9 17.9 11.9 C 17.8 11.9 18.0 11.8 17.8 11.9 C 17.7 11.9 17.8 11.8 17.9 11.7 C 18.0 11.8 17.9 11.9 18.2 11.8 C 18.1 11.9 18.0 12.0 17.9 12.0 C 18.0 12.0 18.1 12.1 17.9 12.2 C 18.0 12.1 17.7 12.1 17.6 12.2 C 17.8 12.3 17.6 12.6 17.8 12.6 C 17.7 12.7 17.6 12.7 17.6 12.8 C 17.7 12.7 17.8 12.7 17.8 12.7 C 17.8 12.7 17.8 12.8 17.9 12.8 C 17.7 12.9 17.6 13.0 17.5 13.0 C 17.7 13.0 18.1 12.9 18.0 13.0 C 18.0 12.9 17.8 13.1 17.8 13.1 C 18.1 13.0 17.7 13.4 17.9 13.2 C 18.0 13.3 17.9 13.3 17.8 13.4 C 17.9 13.4 17.9 13.4 18.0 13.4 C 17.7 13.5 18.0 13.6 17.9 13.7 C 18.0 13.6 17.7 13.7 17.7 13.7 C 17.9 13.7 18.1 13.8 18.0 13.8 C 18.0 13.8 17.8 13.9 17.7 13.8 C 17.7 14.0 18.0 13.8 18.2 13.8 C 17.9 13.9 18.1 13.9 18.2 13.9 C 18.1 14.0 18.1 13.9 18.0 14.0 C 18.0 14.0 17.9 14.1 17.9 14.1 C 18.1 14.0 18.0 14.1 18.0 14.2 C 18.1 14.1 18.2 14.1 18.3 14.1 C 18.1 14.2 18.1 14.3 18.1 14.3 L 16.6 16.5 C 16.5 16.5 16.5 16.5 16.5 16.6 C 16.4 16.8 16.4 16.4 16.3 16.4 C 16.3 16.5 16.3 16.5 16.3 16.6 C 16.2 16.6 16.3 16.4 16.2 16.5 C 16.2 16.7 16.1 16.4 16.1 16.7 C 16.1 16.4 16.0 16.8 16.0 16.5 C 16.0 16.6 15.9 16.6 15.9 16.7 C 15.9 16.7 16.0 16.8 16.0 16.8 C 15.9 16.7 15.9 16.6 15.9 16.5 C 15.7 16.6 15.5 16.5 15.3 16.4 C 15.3 16.5 15.3 16.6 15.2 16.6 C 15.2 16.3 14.9 16.4 14.9 16.6 C 14.9 16.3 14.7 16.5 14.7 16.4 C 14.7 16.4 14.8 16.3 14.7 16.2 C 14.7 16.5 14.7 16.3 14.6 16.5 C 14.6 16.2 14.4 16.5 14.5 16.1 C 14.5 16.1 14.5 16.1 14.4 16.1 C 14.4 16.3 14.4 16.2 14.5 16.4 C 14.3 16.2 14.3 16.4 14.2 16.2 C 14.1 16.3 14.2 16.4 14.2 16.5 C 14.2 16.4 14.2 16.4 14.2 16.3 C 14.1 16.3 14.1 16.4 14.1 16.3 C 14.1 16.2 14.2 16.3 14.2 16.0 C 14.1 16.1 14.1 15.9 14.1 16.0 C 14.1 16.1 14.1 16.4 14.0 16.2 C 14.1 16.1 13.9 16.2 13.8 16.3 C 13.8 16.1 13.9 16.3 13.9 16.1 C 13.7 16.2 13.7 16.1 13.7 16.3 C 13.7 16.3 13.6 16.1 13.5 16.3 C 13.5 16.2 13.6 16.1 13.5 16.1 C 13.5 16.1 13.5 16.2 13.4 16.3 C 13.3 15.8 13.0 16.5 12.9 15.9 C 13.0 16.0 12.9 16.1 12.8 16.1 C 12.8 16.0 12.8 15.9 12.8 15.9 C 12.8 16.1 12.8 16.1 12.7 16.1 C 12.7 16.0 12.7 15.9 12.7 15.9 C 12.7 16.1 12.6 15.9 12.6 16.0 C 12.6 15.8 12.7 15.9 12.7 15.8 C 12.6 15.7 12.6 15.9 12.5 15.8 C 12.5 15.8 12.5 15.6 12.5 15.6 C 12.5 15.8 12.4 15.8 12.4 16.0 C 12.4 16.0 12.4 16.0 12.3 15.9 C 12.4 15.9 12.4 15.9 12.4 15.9 C 12.4 15.9 12.3 15.7 12.3 15.8 C 12.3 15.9 12.3 15.9 12.3 16.0 C 12.3 16.1 12.3 16.2 12.3 16.2 C 12.3 15.7 12.2 16.0 12.1 16.1 C 12.1 15.8 12.1 15.8 12.1 15.7 C 12.1 15.6 12.1 15.8 12.0 15.9 C 12.0 15.7 12.1 15.5 12.0 15.4 C 12.0 15.7 11.9 15.6 11.9 15.9 C 11.7 16.0 11.7 15.7 11.6 15.7 C 11.6 15.8 11.6 15.8 11.6 15.8 C 11.6 15.8 11.5 15.7 11.5 15.6 C 11.4 15.7 11.5 15.8 11.4 15.8 C 11.4 15.6 11.4 15.4 11.3 15.3 C 11.2 15.4 11.3 15.3 11.2 15.5 C 11.2 15.5 11.3 15.6 11.2 15.6 C 11.2 15.5 11.2 15.2 11.2 15.2 C 11.2 15.2 11.2 15.2 11.2 15.3 C 11.3 15.1 11.3 15.2 11.3 15.0 C 11.3 15.1 11.4 15.1 11.5 15.1 C 11.5 14.9 11.5 15.1 11.5 14.9 C 11.4 14.9 11.4 14.8 11.3 14.8 C 11.3 15.0 11.3 14.9 11.2 14.8 C 11.2 15.0 11.2 14.9 11.2 15.1 C 11.1 15.1 11.1 15.0 11.1 15.0 C 11.1 14.9 11.1 14.8 11.0 14.8 C 11.0 15.0 11.0 14.8 11.0 14.8 C 11.0 15.0 10.9 14.9 10.9 15.0 C 10.9 15.0 10.9 15.0 10.9 15.1 C 10.8 15.1 10.9 15.2 10.9 15.4 C 10.9 15.3 11.0 15.0 11.0 15.2 C 10.9 15.3 11.1 15.5 11.0 15.4 C 11.0 15.4 11.0 15.5 10.9 15.5 C 10.8 15.2 10.9 15.0 10.8 14.7 C 10.8 14.9 10.8 14.8 10.7 15.0 C 10.7 14.9 10.7 14.9 10.7 14.8 C 10.7 14.9 10.8 15.0 10.7 15.1 C 10.7 15.0 10.7 14.8 10.6 14.8 C 10.6 15.0 10.7 15.0 10.7 15.1 C 10.6 14.8 10.7 15.1 10.6 15.2 C 10.6 15.1 10.6 15.1 10.5 15.1 C 10.5 15.0 10.6 14.9 10.5 14.9 C 10.5 15.2 10.5 14.7 10.4 14.8 C 10.4 15.0 10.5 14.9 10.5 15.1 C 10.4 14.9 10.4 15.1 10.3 15.1 C 10.4 15.0 10.3 15.0 10.3 14.8 C 10.3 15.0 10.3 14.9 10.2 15.1 C 10.2 14.8 10.1 15.0 10.1 14.7 C 10.1 14.8 10.0 14.9 10.0 15.0 C 10.0 15.0 10.1 15.0 10.1 15.1 C 10.0 15.1 10.0 15.1 10.0 15.1 C 10.0 14.9 10.1 14.6 9.9 14.6 C 9.9 14.9 9.9 14.9 9.8 15.0 C 9.8 15.2 9.9 15.0 9.9 15.1 C 9.8 15.2 9.8 15.1 9.8 15.0 C 9.7 15.1 9.6 14.9 9.4 15.0 C 9.4 14.9 9.6 14.9 9.5 14.8 C 9.4 14.8 9.5 14.9 9.4 14.9 C 9.5 14.1 9.1 14.7 9.1 14.4 C 9.1 14.6 9.0 14.5 9.0 14.7 C 9.0 14.5 9.1 14.8 9.1 14.9 C 9.2 14.8 9.0 14.7 9.1 14.6 C 9.1 14.8 9.2 14.7 9.2 14.8 C 9.1 14.8 9.2 15.0 9.2 15.2 C 9.1 15.1 8.9 15.3 8.9 15.1 C 8.9 15.2 9.0 15.2 9.0 15.1 C 8.9 15.0 8.8 15.2 8.8 15.3 C 8.7 15.1 8.5 15.4 8.6 15.3 C 8.6 15.1 8.7 15.3 8.7 15.2 C 8.5 15.1 8.5 15.2 8.4 15.1 C 8.4 15.3 8.2 15.4 8.3 15.3 C 8.3 15.1 8.2 15.0 8.2 15.2 C 8.2 15.0 8.1 15.0 8.1 14.9 C 8.1 15.1 8.1 15.1 8.1 15.2 C 8.1 15.2 8.0 15.2 8.0 15.2 C 8.0 15.1 8.0 15.0 8.0 15.0 C 7.9 15.1 7.8 15.3 7.8 15.2 C 7.9 15.0 7.7 15.0 7.8 14.8 C 7.8 14.8 7.8 14.8 7.8 14.8 C 7.8 14.8 7.8 14.9 7.7 15.0 C 7.7 15.0 7.7 14.7 7.6 14.7 C 7.6 14.8 7.6 14.8 7.6 14.9 C 7.6 14.9 7.6 14.8 7.7 14.8 C 7.6 15.1 7.7 15.0 7.7 15.2 C 7.6 15.2 7.6 15.0 7.6 14.9 C 7.5 15.1 7.6 15.0 7.5 14.9 C 7.5 15.0 7.5 15.0 7.5 15.1 C 7.4 15.1 7.4 14.7 7.3 14.8 C 7.3 14.8 7.4 14.7 7.3 14.6 C 7.3 14.7 7.3 14.9 7.2 14.9 C 7.2 14.9 7.2 14.8 7.2 14.7 C 7.1 14.8 7.1 15.0 7.1 15.0 C 7.1 14.9 7.0 15.0 7.0 15.0 C 7.0 14.9 7.0 14.9 7.0 14.8 C 6.9 14.8 6.9 15.2 6.8 15.2 C 6.8 14.9 6.8 15.0 6.7 15.0 C 6.7 14.8 6.6 14.8 6.5 14.8 C 6.6 15.0 6.5 14.9 6.5 15.1 C 6.5 15.1 6.5 15.1 6.5 15.2 C 6.5 15.2 6.4 14.8 6.4 15.1 C 6.3 15.0 6.3 14.9 6.3 14.8 C 6.2 14.9 6.4 15.0 6.3 15.1 C 6.3 15.0 6.3 15.0 6.2 15.1 C 6.3 14.9 6.2 14.8 6.2 14.7 C 6.1 14.9 6.0 14.6 6.1 14.8 C 6.0 14.9 6.1 14.5 6.0 14.5 C 6.0 14.8 5.9 14.8 6.0 14.9 C 5.9 15.0 5.9 14.7 5.9 14.6 C 5.9 14.5 5.8 14.7 5.8 14.6 C 5.8 14.8 5.7 14.9 5.8 14.8 C 5.8 14.6 5.7 14.7 5.7 14.6 C 5.7 14.7 5.7 14.7 5.7 14.8 C 5.7 14.9 5.6 14.9 5.5 14.7 C 5.5 14.8 5.4 14.8 5.4 14.6 C 5.4 14.7 5.4 14.7 5.3 14.6 C 5.3 14.7 5.3 14.7 5.3 14.7 C 5.2 14.7 5.3 14.6 5.1 14.6 C 5.2 14.4 5.1 14.4 5.1 14.2 C 5.1 14.3 5.2 14.3 5.2 14.4 C 5.2 14.3 5.2 14.2 5.2 14.2 C 5.2 14.3 5.2 14.3 5.2 14.3 C 5.2 14.1 5.4 14.0 5.3 14.2 C 5.3 14.2 5.3 14.1 5.3 14.1 C 5.3 14.3 5.3 14.2 5.3 14.4 C 5.3 14.4 5.3 14.6 5.3 14.4 C 5.3 14.4 5.3 14.4 5.3 14.3 C 5.4 14.2 5.3 14.6 5.4 14.5 C 5.4 14.3 5.4 14.2 5.4 14.1 C 5.4 14.1 5.5 14.1 5.5 14.3 C 5.6 14.2 5.5 14.1 5.6 14.0 C 5.6 14.1 5.6 14.2 5.6 14.3 C 5.7 14.2 5.6 14.1 5.7 14.1 C 5.7 14.2 5.6 14.3 5.7 14.4 C 5.7 14.1 5.8 14.4 5.8 14.3 C 5.7 14.3 5.7 14.0 5.7 14.2 C 5.8 14.5 5.9 13.8 6.0 14.2 C 6.0 14.2 6.1 14.1 6.1 14.1 C 6.0 14.0 5.9 14.0 5.9 13.7 C 5.8 13.7 5.8 13.9 5.8 14.0 C 5.7 13.7 5.7 13.7 5.8 13.4 C 5.9 13.4 6.0 13.5 6.0 13.6 C 6.1 13.5 6.0 13.5 6.0 13.4 C 6.3 13.6 6.1 13.1 6.2 13.1 C 6.2 13.2 6.2 13.3 6.2 13.3 C 6.2 13.2 6.3 13.3 6.3 13.2 C 6.3 13.2 6.2 13.2 6.3 13.1 C 6.3 13.0 6.3 13.2 6.3 13.3 C 6.2 13.3 6.2 13.3 6.2 13.4 C 6.3 13.4 6.3 13.5 6.4 13.3 C 6.4 13.6 6.3 13.8 6.3 14.0 C 6.3 14.2 6.4 13.6 6.4 13.5 C 6.5 13.5 6.5 13.3 6.6 13.3 C 6.6 13.5 6.5 13.4 6.5 13.6 C 6.5 13.6 6.5 13.6 6.6 13.6 C 6.6 13.6 6.6 13.5 6.7 13.4 C 6.7 13.6 6.7 13.5 6.7 13.4 C 6.8 13.5 6.7 13.5 6.7 13.6 C 6.8 13.6 6.8 13.4 6.9 13.4 C 6.9 13.5 6.9 13.6 6.9 13.6 C 6.9 13.5 7.0 13.5 6.9 13.3 C 7.0 13.4 7.0 13.3 7.0 13.1 C 6.9 13.1 6.9 13.1 6.8 12.9 C 6.8 13.1 6.8 12.9 6.7 12.9 C 6.7 13.2 6.7 12.9 6.7 13.0 C 6.7 13.1 6.7 13.1 6.7 13.2 C 6.6 13.1 6.6 13.1 6.5 13.4 C 6.5 13.3 6.5 13.3 6.5 13.2 C 6.5 13.1 6.6 13.2 6.6 13.0 C 6.6 12.8 6.5 13.2 6.5 12.9 C 6.4 13.0 6.5 13.1 6.5 13.1 C 6.4 13.0 6.4 12.9 6.4 12.8 C 6.3 12.9 6.3 13.0 6.2 13.0 C 6.2 13.0 6.2 12.9 6.2 12.9 C 6.2 13.0 6.2 13.0 6.2 13.1 C 6.1 12.8 6.0 12.7 5.9 12.8 C 5.9 12.8 6.0 13.0 6.0 13.0 C 5.9 12.9 5.8 13.1 5.8 12.9 C 5.8 12.9 5.9 13.0 5.9 12.7 C 5.8 12.7 5.8 12.7 5.7 12.6 C 5.7 12.8 5.7 12.7 5.7 12.9 C 5.7 12.9 5.8 12.7 5.8 12.8 C 5.7 13.3 5.6 12.6 5.5 12.6 C 5.5 12.7 5.6 12.8 5.5 12.8 C 5.5 12.9 5.4 12.5 5.5 12.4 C 5.5 12.5 5.6 12.3 5.6 12.5 C 5.6 12.4 5.6 12.5 5.6 12.4 C 5.6 12.4 5.6 12.3 5.6 12.2 C 5.6 12.2 5.6 11.9 5.7 12.1 C 5.7 12.1 5.6 12.2 5.6 12.2 C 5.7 12.2 5.8 12.3 5.8 12.4 C 5.8 12.3 5.8 12.3 5.9 12.2 C 5.8 12.2 5.7 12.1 5.8 12.0 C 5.8 12.3 5.9 11.7 5.9 11.9 C 5.9 11.9 5.9 12.1 5.8 12.1 C 5.9 12.1 5.9 12.3 5.9 12.3 C 6.1 12.0 6.2 12.5 6.4 12.1 C 6.5 12.1 6.3 12.2 6.3 12.4 C 6.4 12.4 6.4 12.4 6.4 12.4 C 6.4 12.2 6.4 12.4 6.4 12.3 C 6.4 12.4 6.5 12.3 6.6 12.4 C 6.6 12.4 6.6 12.3 6.6 12.3 C 6.8 12.5 7.1 12.2 7.2 12.4 C 7.2 12.2 7.2 12.3 7.3 12.2 C 7.3 12.2 7.3 12.3 7.4 12.2 C 7.5 12.1 7.4 12.3 7.4 12.3 C 7.6 12.3 7.7 12.5 7.8 12.2 C 7.9 12.2 7.8 12.4 7.9 12.4 C 7.9 12.2 8.1 12.6 8.1 12.3 C 8.2 12.2 8.3 12.6 8.3 12.3 C 8.3 12.3 8.3 12.6 8.3 12.6 C 8.4 12.5 8.3 12.1 8.4 12.1 C 8.4 12.3 8.4 12.2 8.4 12.4 C 8.4 12.4 8.4 12.4 8.4 12.5 C 8.4 12.4 8.4 12.5 8.5 12.5 C 8.5 12.4 8.7 12.2 8.7 12.5 C 8.7 12.4 8.7 12.4 8.7 12.3 C 8.7 12.3 8.8 12.5 8.8 12.3 C 8.9 12.3 8.9 12.5 9.0 12.3 C 9.0 12.2 9.0 12.5 9.1 12.5 C 9.1 12.3 9.3 12.3 9.4 12.5 C 9.4 12.2 9.4 12.5 9.4 12.5 C 9.4 12.4 9.4 12.3 9.4 12.3 C 9.4 12.4 9.5 12.3 9.5 12.3 C 9.5 12.6 9.6 12.2 9.6 12.4 C 9.6 12.5 9.5 12.6 9.6 12.6 C 9.6 12.4 9.7 12.7 9.7 12.6 C 9.6 12.5 9.6 12.5 9.6 12.4 C 9.7 12.3 9.6 12.6 9.7 12.6 C 9.7 12.5 9.7 12.4 9.7 12.4 C 9.8 12.4 9.7 12.4 9.7 12.6 C 9.8 12.5 9.8 12.4 9.9 12.4 C 9.9 12.4 9.9 12.5 9.9 12.5 C 10.0 12.6 10.3 12.4 10.4 12.6 C 10.4 12.6 10.4 12.5 10.4 12.4 C 10.5 12.5 10.4 12.5 10.5 12.5 C 10.5 12.5 10.5 12.4 10.5 12.3 C 10.6 12.2 10.5 12.6 10.6 12.5 C 10.6 12.1 10.6 12.7 10.7 12.7 C 10.7 12.6 10.7 12.5 10.7 12.4 C 10.8 12.4 10.8 12.7 10.8 12.6 C 10.8 12.6 10.8 12.0 10.9 11.8 C 10.9 11.9 10.9 12.0 10.9 12.0 C 10.9 12.2 10.9 12.9 11.0 12.7 C 10.9 12.7 10.9 12.6 10.9 12.5 C 11.0 12.5 11.0 12.6 11.1 12.6 C 11.1 12.4 11.1 12.4 11.1 12.2 C 11.1 12.2 11.1 12.1 11.1 12.1 C 11.2 12.1 11.2 12.3 11.3 12.1 C 11.3 12.3 11.2 12.3 11.2 12.2 C 11.2 12.3 11.2 12.5 11.2 12.5 C 11.2 12.4 11.2 12.2 11.1 12.3 C 11.1 12.4 11.1 12.5 11.1 12.6 C 11.2 12.6 11.3 12.7 11.3 12.6 C 11.3 12.5 11.2 12.5 11.3 12.3 C 11.3 12.4 11.4 12.6 11.4 12.7 C 11.5 12.6 11.7 12.7 11.7 12.4 C 11.8 12.5 11.8 12.5 11.8 12.5 C 11.8 12.3 11.9 12.4 11.9 12.3 C 11.8 12.3 11.9 12.3 11.8 12.3 C 11.8 12.2 11.8 12.1 11.8 12.1 C 11.8 12.2 11.9 12.2 11.9 12.2 C 11.9 12.2 11.9 12.0 11.9 12.0 C 11.9 12.0 11.9 12.1 12.0 12.0 C 12.0 12.2 12.0 12.3 12.0 12.4 C 11.9 12.4 11.9 12.4 11.9 12.5 C 11.9 12.5 11.9 12.6 11.9 12.6 C 11.9 12.5 12.0 12.6 12.0 12.5 C 12.0 12.5 12.0 12.4 12.0 12.3 C 12.0 12.4 12.1 12.4 12.1 12.4 C 12.0 12.3 12.0 12.2 12.0 12.1 C 12.1 12.0 12.1 12.2 12.2 12.2 C 12.2 12.3 12.2 12.5 12.1 12.5 C 12.2 12.9 12.4 12.6 12.4 12.6 C 12.4 12.6 12.3 12.8 12.4 12.8 C 12.4 12.8 12.4 12.8 12.4 12.7 C 12.5 12.4 12.4 12.2 12.4 12.0 C 12.4 12.0 12.4 11.9 12.5 11.9 C 12.5 12.1 12.4 12.3 12.5 12.4 C 12.5 12.1 12.6 12.3 12.6 12.1 C 12.6 12.2 12.6 12.1 12.6 12.0 C 12.6 12.2 12.7 12.1 12.6 12.2 C 12.6 12.3 12.6 12.4 12.5 12.4 C 12.6 12.5 12.5 12.6 12.6 12.6 C 12.6 12.5 12.6 12.3 12.7 12.3 C 12.7 12.4 12.7 12.6 12.7 12.6 C 12.7 12.4 12.8 12.3 12.8 12.5 C 12.8 12.5 12.8 12.5 12.8 12.6 C 12.8 12.4 13.0 12.2 13.0 12.0 C 13.0 12.3 13.0 12.5 13.0 12.6 C 13.0 12.4 13.1 12.5 13.2 12.5 C 13.2 12.3 13.2 12.5 13.3 12.5 C 13.3 12.4 13.2 12.3 13.3 12.3 C 13.3 12.4 13.3 12.4 13.3 12.5 C 13.4 12.5 13.4 12.5 13.4 12.5 C 13.4 12.4 13.4 12.4 13.4 12.3 C 13.5 12.6 13.6 12.3 13.7 12.4 C 13.7 12.3 13.7 12.6 13.7 12.5 C 13.7 12.5 13.8 12.5 13.8 12.4 C 13.8 12.2 13.8 12.4 13.8 12.4 C 13.9 12.3 13.8 12.1 13.9 12.1 C 13.9 12.2 13.9 12.3 13.9 12.3 C 13.9 12.3 13.9 12.3 14.0 12.3 C 13.9 12.2 14.0 12.1 14.0 12.1 C 14.0 12.3 14.0 12.3 14.1 12.3 C 14.1 12.4 14.0 12.4 14.1 12.4 C 14.1 12.5 14.2 12.2 14.2 12.4 C 14.2 12.4 14.2 12.4 14.2 12.5 C 14.2 12.4 14.3 12.6 14.3 12.7 C 14.3 12.5 14.3 12.4 14.3 12.3 C 14.3 12.4 14.4 12.2 14.4 12.5 C 14.4 12.4 14.4 12.8 14.5 12.8 C 14.5 12.6 14.4 12.7 14.4 12.5 C 14.5 12.3 14.5 12.6 14.6 12.4 C 14.6 12.3 14.5 12.4 14.5 12.3 C 14.6 12.3 14.5 12.2 14.5 12.2 C 14.6 12.4 14.6 12.2 14.6 12.2 C 14.6 12.2 14.7 12.5 14.7 12.3 C 14.7 12.3 14.7 12.3 14.7 12.2 C 14.8 12.1 14.8 12.4 14.9 12.2 C 15.0 12.3 15.0 12.3 15.0 12.4 C 15.0 12.3 15.0 12.2 15.1 12.2 C 15.1 12.3 15.1 12.4 15.2 12.4 C 15.2 12.6 15.2 12.7 15.2 12.7 C 15.2 12.6 15.2 12.6 15.2 12.5 C 15.2 12.6 15.3 12.6 15.3 12.5 C 15.3 12.5 15.3 12.5 15.3 12.4 C 15.2 12.4 15.2 12.4 15.2 12.4 C 15.2 12.3 15.2 12.2 15.2 12.2 C 15.3 12.1 15.3 12.5 15.3 12.3 C 15.3 12.6 15.4 12.7 15.3 12.8 C 15.4 12.8 15.4 12.7 15.4 12.6 C 15.3 12.6 15.4 12.4 15.4 12.3 C 15.4 12.3 15.4 12.2 15.4 12.1 C 15.5 12.3 15.4 12.5 15.5 12.5 C 15.4 12.3 15.5 12.3 15.6 12.4 C 15.6 12.3 15.6 12.3 15.6 12.2 C 15.7 12.1 15.7 12.7 15.8 12.4 C 15.8 12.5 15.8 12.5 15.8 12.6 C 15.7 12.6 15.7 12.7 15.7 12.7 C 15.7 12.8 15.7 12.8 15.7 12.8 C 15.7 12.7 15.8 12.7 15.8 12.8 C 15.8 12.6 15.8 12.4 15.9 12.2 C 15.9 12.3 15.9 12.4 15.9 12.4 C 15.9 12.2 15.9 12.7 16.0 12.6 C 15.9 12.6 15.9 12.5 16.0 12.3 C 16.0 12.3 16.0 12.4 16.1 12.3 C 16.1 12.6 16.0 12.6 16.0 12.8 C 16.0 12.8 16.1 12.6 16.1 12.7 C 16.1 12.6 16.1 12.5 16.2 12.4 C 16.2 12.4 16.2 12.7 16.2 12.7 C 16.2 12.7 16.3 12.5 16.2 12.4 C 16.3 12.5 16.3 12.3 16.4 12.3 C 16.4 12.4 16.4 12.4 16.3 12.4 C 16.3 12.4 16.3 12.5 16.3 12.5 C 16.4 12.4 16.5 12.4 16.6 12.2 C 16.6 12.5 16.7 12.4 16.8 12.3 L 14.3 16.1 C 14.2 16.1 14.2 16.0 14.2 16.0 C 14.4 16.0 14.2 15.9 14.4 15.7 C 14.3 15.7 13.9 15.8 14.1 15.8 C 14.3 15.7 14.2 15.6 14.2 15.6 C 14.2 15.6 14.1 15.6 14.1 15.7 C 14.0 15.6 14.2 15.5 14.3 15.4 C 14.1 15.3 14.3 15.1 14.1 15.1 C 14.2 14.9 14.2 14.9 14.3 14.8 C 14.1 14.9 14.1 14.8 14.0 14.7 C 13.9 14.8 13.9 14.8 13.8 14.8 C 13.8 14.9 13.6 14.9 13.6 15.0 C 13.7 14.8 13.3 15.0 13.5 14.8 C 13.6 14.9 13.8 14.8 14.1 14.7 C 14.0 14.6 14.0 14.5 14.2 14.5 C 14.1 14.5 14.0 14.6 13.9 14.6 C 13.9 14.6 13.9 14.6 13.9 14.5 C 14.0 14.5 14.0 14.5 14.0 14.5 C 14.0 14.5 13.9 14.5 13.9 14.5 C 14.0 14.4 14.0 14.4 14.1 14.4 C 14.1 14.3 13.8 14.5 13.7 14.4 C 13.8 14.4 14.0 14.3 14.0 14.2 C 13.9 14.3 13.7 14.3 13.7 14.3 C 13.7 14.2 14.0 14.2 14.0 14.1 C 13.9 14.1 13.9 14.1 13.9 14.1 C 13.8 14.1 13.8 14.1 13.7 14.1 C 13.8 14.1 13.8 14.0 13.7 14.0 C 13.8 14.0 14.0 13.8 13.8 13.9 C 13.8 13.9 13.8 13.9 13.8 14.0 C 13.8 13.9 13.7 13.9 13.7 13.9 C 14.0 13.7 13.7 13.8 13.8 13.6 C 13.7 13.6 13.6 13.7 13.4 13.7 C 13.5 13.6 13.6 13.7 13.8 13.6 C 13.8 13.5 13.9 13.4 13.7 13.5 C 13.7 13.5 13.7 13.5 13.6 13.6 C 13.5 13.6 13.7 13.5 13.7 13.4 C 13.6 13.5 13.5 13.5 13.4 13.5 C 13.2 13.4 13.5 13.3 13.7 13.2 C 13.6 13.2 13.6 13.2 13.5 13.2 C 13.6 13.2 13.5 13.3 13.4 13.3 C 13.5 13.2 13.4 13.2 13.3 13.2 C 13.3 13.3 13.3 13.3 13.1 13.4 C 13.1 13.3 13.4 13.2 13.2 13.2 C 13.3 13.2 13.3 13.2 13.4 13.2 C 13.4 13.1 13.4 13.1 13.4 13.1 C 13.5 13.1 13.6 13.0 13.7 13.0 C 13.5 13.0 13.7 12.9 13.5 13.0 C 13.5 12.9 13.3 12.9 13.2 13.0 C 13.1 13.0 13.4 12.9 13.2 12.9 C 13.4 12.9 13.5 12.8 13.6 12.7 C 13.5 12.8 13.5 12.7 13.3 12.8 C 13.3 12.7 13.5 12.6 13.6 12.5 C 13.4 12.6 13.5 12.5 13.4 12.5 C 13.4 12.5 13.6 12.4 13.5 12.4 C 13.3 12.5 13.4 12.3 13.2 12.4 C 13.3 12.3 13.3 12.3 13.3 12.2 C 13.4 12.1 13.5 12.1 13.5 12.1 C 13.3 12.2 13.4 12.3 13.5 12.3 C 13.5 12.2 13.6 12.2 13.6 12.2 C 13.5 12.1 13.6 12.1 13.6 12.0 C 13.5 12.0 13.4 12.0 13.2 12.1 C 13.4 12.0 13.1 12.0 13.3 11.9 C 13.3 11.9 13.3 11.9 13.4 11.9 C 13.3 11.9 13.3 11.9 13.1 11.9 C 13.1 12.0 13.1 12.0 13.2 12.0 C 13.1 12.0 13.0 12.2 13.0 12.1 C 13.2 12.0 12.8 12.1 13.0 12.0 C 13.1 12.0 13.1 11.9 13.2 11.8 C 13.2 11.8 13.2 11.8 13.2 11.8 Z M 5.9 12.3 C 5.8 12.4 5.9 12.6 5.9 12.5 C 5.9 12.5 5.9 12.4 5.9 12.3 C 5.9 12.3 5.9 12.4 5.9 12.3 C 5.9 12.3 5.9 12.3 5.9 12.3 Z M 6.5 15.0 C 6.5 14.7 6.4 14.9 6.4 14.8 C 6.4 14.9 6.4 14.9 6.4 15.0 C 6.4 15.1 6.4 14.8 6.5 15.0 C 6.5 15.0 6.5 15.0 6.5 15.0 Z M 9.0 14.4 C 8.9 14.4 8.9 14.5 8.9 14.4 C 8.9 14.4 8.9 14.5 8.9 14.6 C 8.8 14.6 8.9 14.3 8.8 14.4 C 8.8 14.7 8.9 14.8 9.0 14.4 C 9.0 14.4 9.0 14.4 9.0 14.4 Z M 16.0 11.5 C 16.1 11.4 16.3 11.4 16.4 11.3 C 16.2 11.2 16.1 11.4 16.1 11.2 C 16.0 11.3 16.0 11.3 15.9 11.3 C 16.0 11.4 16.1 11.3 15.8 11.4 C 15.8 11.5 16.2 11.3 16.0 11.5 C 16.0 11.5 16.0 11.5 16.0 11.5 Z M 16.1 9.7 C 16.0 9.7 16.0 9.7 15.9 9.8 C 16.0 9.8 16.0 9.8 16.0 9.9 C 16.2 9.7 16.2 9.7 16.1 9.7 C 16.1 9.7 16.1 9.7 16.1 9.7 Z M 14.7 5.7 C 14.7 5.7 14.7 5.7 14.7 5.7 C 14.6 5.7 14.3 5.8 14.4 5.8 C 14.5 5.8 14.5 5.8 14.5 5.8 C 14.5 5.8 14.5 5.8 14.6 5.7 C 14.6 5.7 14.6 5.7 14.7 5.7 C 14.7 5.7 14.7 5.7 14.7 5.7 Z M 12.4 4.8 C 12.6 4.8 12.9 4.4 12.4 4.8 C 12.4 4.8 12.4 4.8 12.4 4.8 C 12.4 4.8 12.4 4.8 12.4 4.8 Z M 10.6 5.8 C 10.5 5.9 10.6 5.9 10.6 5.9 C 10.6 6.0 10.5 5.9 10.4 6.0 C 10.5 6.0 10.7 5.8 10.8 5.9 C 10.9 5.8 10.6 5.9 10.6 5.8 C 10.6 5.8 10.6 5.8 10.6 5.8 Z M 15.7 12.5 C 15.6 12.5 15.6 12.7 15.6 12.9 C 15.6 12.9 15.7 13.0 15.7 13.0 C 15.7 12.9 15.6 12.9 15.6 12.9 C 15.6 12.7 15.7 12.7 15.7 12.5 C 15.7 12.5 15.7 12.5 15.7 12.5 Z M 15.5 12.5 C 15.5 12.6 15.4 12.7 15.4 12.8 C 15.4 12.8 15.4 12.9 15.4 13.0 C 15.5 12.9 15.4 12.7 15.5 12.5 C 15.5 12.5 15.5 12.5 15.5 12.5 Z M 15.8 12.7 C 15.8 12.8 15.8 12.9 15.8 13.0 C 15.9 13.0 15.9 13.1 15.9 13.0 C 15.9 13.0 15.9 12.9 15.9 12.9 C 15.9 12.8 15.9 12.9 15.8 12.9 C 15.8 12.9 15.8 12.8 15.8 12.7 C 15.8 12.7 15.8 12.7 15.8 12.7 Z M 15.3 12.8 C 15.2 12.8 15.1 13.1 15.0 13.3 C 15.1 13.3 15.2 12.9 15.2 13.0 C 15.3 13.0 15.2 12.9 15.2 12.8 C 15.2 12.8 15.3 12.8 15.3 12.8 C 15.3 12.8 15.3 12.8 15.3 12.8 Z M 14.3 12.7 C 14.2 12.6 14.2 12.9 14.1 12.9 C 14.1 12.9 14.1 13.0 14.1 13.0 C 14.2 13.1 14.2 12.7 14.3 12.7 C 14.3 12.7 14.3 12.7 14.3 12.7 Z M 13.7 12.8 C 13.6 12.9 13.7 12.9 13.7 13.1 C 13.8 13.1 13.8 13.1 13.8 12.9 C 13.8 13.0 13.7 13.0 13.7 12.8 C 13.7 12.8 13.7 12.8 13.7 12.8 Z M 13.3 12.8 C 13.2 12.9 13.3 13.1 13.3 13.2 C 13.3 13.2 13.3 13.1 13.3 13.1 C 13.3 13.1 13.4 13.1 13.4 13.1 C 13.4 13.0 13.3 13.0 13.3 12.8 C 13.3 12.8 13.3 12.8 13.3 12.8 Z M 14.7 15.3 C 14.8 15.3 15.0 15.2 14.9 15.3 C 14.9 15.2 15.4 15.0 15.3 14.9 C 15.2 15.0 15.2 15.0 15.2 14.9 C 15.1 14.9 15.2 15.0 15.0 15.0 C 15.0 15.1 15.2 15.0 15.2 15.0 C 15.1 15.1 15.0 15.2 14.7 15.3 C 14.7 15.3 14.7 15.3 14.7 15.3 Z M 15.5 14.8 C 15.5 14.8 15.2 14.9 15.3 14.8 C 15.3 14.8 15.2 14.8 15.2 14.8 C 15.2 14.9 15.2 14.9 15.2 14.9 C 15.2 14.9 15.3 14.9 15.5 14.8 C 15.5 14.8 15.5 14.8 15.5 14.8 Z M 15.6 15.2 C 15.5 15.2 15.6 15.1 15.5 15.1 C 15.7 15.0 15.3 15.1 15.5 15.0 C 15.5 15.0 15.4 15.0 15.3 15.1 C 15.2 15.1 15.5 15.0 15.4 15.0 C 15.2 15.0 15.3 15.1 15.1 15.2 C 15.1 15.2 15.2 15.2 15.3 15.2 C 15.3 15.2 15.2 15.2 15.1 15.3 C 15.2 15.3 15.1 15.4 15.1 15.4 C 15.3 15.4 15.3 15.3 15.3 15.3 C 15.4 15.3 15.5 15.3 15.4 15.4 C 15.3 15.4 15.3 15.6 15.5 15.5 L 16.7 13.7 C 16.7 13.7 16.7 13.7 16.7 13.7 C 16.7 13.7 16.7 13.7 16.7 13.7 L 15.6 15.5 C 15.6 15.4 15.4 15.5 15.4 15.5 C 15.5 15.4 15.4 15.3 15.6 15.2 C 15.6 15.2 15.6 15.2 15.6 15.2 Z M 15.8 13.3 C 15.8 13.3 15.8 13.3 15.8 13.3 C 15.8 13.1 15.8 13.2 15.8 13.0 C 15.7 13.0 15.7 13.1 15.7 13.1 C 15.7 13.2 15.8 13.4 15.8 13.5 C 15.8 13.5 15.8 13.6 15.8 13.6 C 15.8 13.3 15.9 13.6 15.9 13.6 C 16.0 13.3 16.0 13.7 16.1 13.5 C 16.0 13.3 15.9 13.5 15.9 13.5 C 15.9 13.4 15.8 13.1 15.8 13.3 C 15.8 13.3 15.8 13.3 15.8 13.3 Z M 15.3 14.7 C 15.2 14.7 15.2 14.7 15.2 14.7 C 15.1 14.8 15.2 14.7 14.9 14.8 C 14.9 14.8 14.9 14.8 14.9 14.7 C 15.0 14.7 15.0 14.8 15.1 14.7 C 15.0 14.7 15.1 14.7 15.1 14.6 C 15.3 14.6 15.3 14.5 15.5 14.4 C 15.4 14.5 15.4 14.4 15.2 14.5 C 15.2 14.4 15.5 14.4 15.4 14.3 C 15.6 14.2 15.6 14.3 15.5 14.4 C 15.7 14.3 15.5 14.2 15.5 14.1 C 15.4 14.3 15.2 14.3 15.1 14.3 C 15.1 14.3 15.2 14.3 15.3 14.2 C 15.3 14.1 15.2 14.2 15.3 14.1 C 15.2 14.1 15.1 14.2 15.0 14.2 C 15.0 14.1 15.3 14.1 15.2 14.0 C 15.0 14.2 14.9 14.1 14.9 14.0 C 14.9 14.0 14.9 14.1 14.8 14.1 C 14.7 14.2 14.9 14.0 14.9 14.0 C 14.9 14.0 14.8 14.0 14.8 14.0 C 14.8 14.0 14.7 14.1 14.6 14.1 C 14.7 14.2 14.8 14.3 14.6 14.6 C 14.7 14.5 14.8 14.5 14.8 14.6 C 14.7 14.7 14.6 14.6 14.6 14.6 C 14.5 14.8 14.9 14.6 14.8 14.7 C 14.8 14.8 14.7 14.7 14.6 14.8 C 14.7 14.8 14.8 14.8 14.6 14.9 C 14.7 14.9 15.0 14.9 15.0 15.0 C 15.1 14.9 15.4 14.7 15.3 14.6 C 15.3 14.7 15.3 14.7 15.3 14.7 C 15.3 14.7 15.3 14.7 15.3 14.7 Z M 15.4 13.1 C 15.4 13.1 15.4 13.2 15.4 13.1 C 15.3 13.1 15.4 13.3 15.4 13.3 C 15.4 13.3 15.4 13.2 15.4 13.1 C 15.4 13.1 15.4 13.1 15.4 13.1 Z M 8.7 12.8 C 8.7 12.8 8.7 13.0 8.6 13.0 C 8.7 13.1 8.7 13.2 8.7 13.2 C 8.8 13.0 8.8 12.9 8.7 12.8 C 8.7 12.8 8.7 12.8 8.7 12.8 Z M 15.7 13.2 C 15.7 13.0 15.6 13.4 15.6 13.3 C 15.5 13.4 15.6 13.4 15.6 13.6 C 15.6 13.5 15.7 13.6 15.7 13.5 C 15.7 13.4 15.7 13.4 15.6 13.4 C 15.6 13.3 15.7 13.3 15.7 13.2 C 15.7 13.2 15.7 13.2 15.7 13.2 Z M 9.6 13.3 C 9.6 13.2 9.5 13.0 9.5 12.9 C 9.5 13.2 9.5 13.1 9.6 13.3 C 9.6 13.3 9.6 13.3 9.6 13.3 Z M 8.2 13.1 C 8.1 13.3 8.3 13.1 8.2 13.3 C 8.2 13.4 8.3 13.3 8.3 13.2 C 8.3 13.3 8.3 13.2 8.3 13.4 C 8.3 13.6 8.2 13.4 8.2 13.6 C 8.2 13.6 8.2 13.5 8.2 13.5 C 8.2 13.5 8.2 13.3 8.1 13.3 C 8.1 13.4 8.2 13.4 8.1 13.5 C 8.1 13.4 8.1 13.3 8.1 13.0 C 8.0 13.0 8.1 13.4 8.0 13.3 C 8.0 13.5 8.0 13.5 8.1 13.5 C 8.1 13.7 8.0 13.4 8.0 13.6 C 8.0 13.5 7.9 13.4 8.0 13.2 C 8.0 13.1 8.1 13.0 8.1 12.9 C 8.1 12.8 8.0 13.2 7.9 13.0 C 7.9 13.2 7.9 13.2 7.9 13.3 C 7.8 13.3 7.9 13.1 7.9 13.0 C 7.9 12.9 7.7 13.0 7.7 13.1 C 7.7 13.0 7.6 13.0 7.6 13.3 C 7.5 13.1 7.5 13.4 7.4 13.1 C 7.4 13.2 7.4 13.2 7.3 13.2 C 7.3 13.4 7.4 13.3 7.4 13.4 C 7.4 13.6 7.3 13.4 7.3 13.6 C 7.3 13.6 7.3 13.6 7.3 13.7 C 7.3 13.6 7.4 13.6 7.4 13.5 C 7.5 13.5 7.4 13.6 7.4 13.7 C 7.5 13.6 7.6 13.3 7.6 13.7 C 7.7 13.6 7.8 13.7 7.8 13.5 C 7.9 13.5 7.8 13.6 7.8 13.8 C 8.0 13.5 8.2 13.8 8.3 13.5 C 8.3 13.5 8.3 13.7 8.3 13.8 C 8.5 13.7 8.4 13.4 8.5 13.5 C 8.5 13.6 8.4 13.6 8.4 13.8 C 8.5 13.8 8.5 13.7 8.6 13.7 C 8.6 13.6 8.6 13.6 8.6 13.5 C 8.6 13.5 8.6 13.7 8.6 13.8 C 8.7 13.7 8.7 13.6 8.7 13.8 C 8.8 13.8 8.9 13.7 8.9 13.8 C 9.0 13.7 8.9 13.4 8.8 13.4 C 8.8 13.3 8.9 13.3 8.9 13.3 C 8.9 13.4 8.9 13.8 9.1 13.8 C 9.0 13.6 9.1 13.7 9.1 13.9 C 9.2 13.8 9.1 13.6 9.1 13.6 C 9.1 13.5 9.1 13.6 9.1 13.7 C 9.2 13.4 9.0 13.3 8.9 13.4 C 9.0 13.1 8.8 13.4 8.9 13.0 C 8.8 13.1 8.9 13.3 8.8 13.2 C 8.8 13.3 8.8 13.4 8.8 13.5 C 8.7 13.5 8.7 13.3 8.7 13.3 C 8.6 13.5 8.7 13.4 8.7 13.5 C 8.6 13.4 8.6 13.3 8.5 13.1 C 8.5 13.2 8.5 13.4 8.4 13.3 C 8.4 13.3 8.4 13.2 8.4 13.2 C 8.4 13.2 8.5 12.9 8.3 12.9 C 8.3 13.0 8.4 13.0 8.4 13.0 C 8.4 13.1 8.3 13.2 8.3 13.2 C 8.3 13.1 8.2 13.1 8.3 13.0 C 8.3 12.9 8.2 13.2 8.2 13.1 C 8.2 13.1 8.2 13.1 8.2 13.1 Z M 14.4 13.2 C 14.3 13.2 14.3 13.2 14.3 13.2 C 14.3 13.4 14.3 13.3 14.3 13.5 C 14.4 13.5 14.3 13.3 14.4 13.2 C 14.4 13.2 14.4 13.2 14.4 13.2 Z M 15.0 13.3 C 15.0 13.2 14.9 13.4 14.9 13.3 C 14.9 13.5 14.9 13.4 14.9 13.5 C 15.0 13.6 14.9 13.3 15.0 13.3 C 15.0 13.3 15.0 13.3 15.0 13.3 Z M 14.7 13.3 C 14.7 13.1 14.7 13.4 14.7 13.4 C 14.7 13.5 14.7 13.6 14.7 13.6 C 14.7 13.8 14.7 13.5 14.8 13.5 C 14.8 13.4 14.7 13.4 14.7 13.3 C 14.7 13.3 14.7 13.3 14.7 13.3 Z M 14.6 13.3 C 14.6 13.4 14.6 13.3 14.5 13.4 C 14.5 13.5 14.6 13.4 14.7 13.4 C 14.7 13.2 14.6 13.2 14.6 13.3 C 14.6 13.3 14.6 13.3 14.6 13.3 Z M 10.5 13.6 C 10.4 13.6 10.4 13.7 10.4 13.7 C 10.4 13.5 10.3 13.5 10.4 13.2 C 10.3 13.4 10.2 13.2 10.2 13.1 C 10.1 13.1 10.1 13.3 10.1 13.3 C 10.0 13.3 10.1 13.2 10.1 13.1 C 10.1 13.0 10.1 13.3 10.0 13.2 C 10.0 13.5 9.9 13.1 10.0 13.5 C 9.9 13.4 9.9 13.5 9.8 13.5 C 9.8 13.6 9.9 13.6 9.9 13.7 C 9.9 13.9 9.9 13.5 9.9 13.6 C 9.9 13.4 10.0 13.7 10.0 13.5 C 10.0 13.7 9.9 13.6 10.0 13.8 C 10.0 13.7 10.0 13.7 10.0 13.7 C 10.0 13.7 10.1 13.7 10.1 13.8 C 10.0 13.8 10.0 13.8 10.0 13.8 C 10.0 13.8 10.1 14.1 10.0 14.1 C 10.0 14.1 10.0 14.1 10.0 14.3 C 10.1 14.4 10.1 13.8 10.1 14.0 C 10.2 13.8 10.0 13.8 10.1 13.4 C 10.2 13.5 10.1 13.7 10.2 13.8 C 10.2 13.7 10.2 13.6 10.2 13.6 C 10.2 13.5 10.2 13.5 10.2 13.5 C 10.2 13.5 10.2 13.5 10.2 13.5 C 10.2 13.4 10.2 13.4 10.2 13.4 C 10.3 13.4 10.3 13.8 10.2 13.9 C 10.2 14.1 10.3 14.0 10.3 14.0 C 10.3 13.8 10.3 13.9 10.3 13.7 C 10.3 13.7 10.3 13.7 10.3 13.8 C 10.3 13.7 10.3 13.7 10.3 13.6 C 10.3 13.6 10.3 13.8 10.4 13.7 C 10.4 13.7 10.4 13.8 10.4 13.8 C 10.4 13.9 10.4 13.9 10.4 13.9 C 10.4 13.7 10.5 13.7 10.5 13.6 C 10.5 13.6 10.5 13.6 10.5 13.6 Z M 9.3 13.1 C 9.3 13.0 9.3 13.2 9.3 13.2 C 9.3 13.3 9.3 13.3 9.2 13.3 C 9.3 13.4 9.3 13.3 9.4 13.4 C 9.3 13.6 9.3 14.0 9.4 13.9 C 9.5 13.6 9.4 13.5 9.4 13.3 C 9.4 13.5 9.3 13.3 9.3 13.1 C 9.3 13.1 9.3 13.1 9.3 13.1 Z M 15.4 13.4 C 15.3 13.4 15.3 13.4 15.3 13.4 C 15.2 13.6 15.4 13.7 15.4 13.4 C 15.4 13.4 15.4 13.4 15.4 13.4 Z M 14.8 13.9 C 14.8 13.9 14.8 13.8 14.9 13.8 C 14.8 13.8 14.7 13.9 14.6 14.0 C 14.6 14.0 14.6 14.0 14.6 14.0 C 14.7 14.0 14.7 13.9 14.8 13.9 C 14.9 13.9 14.8 13.9 14.8 13.9 C 14.8 13.9 14.8 13.9 14.8 13.9 Z M 14.4 13.4 C 14.3 13.5 14.4 13.7 14.3 13.6 C 14.3 13.8 14.3 13.7 14.4 13.7 C 14.4 13.6 14.4 13.5 14.4 13.4 C 14.4 13.4 14.4 13.4 14.4 13.4 Z M 10.8 13.3 C 10.7 13.1 10.7 13.6 10.6 13.4 C 10.7 13.7 10.7 13.4 10.8 13.3 C 10.8 13.3 10.8 13.3 10.8 13.3 Z M 7.1 13.5 C 7.2 13.5 7.1 13.6 7.2 13.7 C 7.2 13.6 7.2 13.5 7.3 13.5 C 7.2 13.3 7.1 13.5 7.0 13.2 C 7.0 13.2 7.0 13.4 7.0 13.5 C 7.0 13.5 7.0 13.6 7.0 13.6 C 7.1 13.3 7.1 13.8 7.1 13.5 C 7.1 13.5 7.1 13.5 7.1 13.5 Z M 9.6 13.4 C 9.6 13.5 9.6 13.6 9.5 13.7 C 9.5 13.7 9.5 13.5 9.5 13.5 C 9.5 13.5 9.5 13.6 9.5 13.7 C 9.5 13.7 9.6 13.8 9.6 14.0 C 9.6 14.1 9.6 13.8 9.7 13.8 C 9.7 13.9 9.6 13.9 9.6 14.1 C 9.7 14.1 9.7 13.9 9.7 14.1 C 9.8 13.9 9.8 13.6 9.7 13.3 C 9.6 13.5 9.7 13.5 9.6 13.4 C 9.6 13.4 9.6 13.4 9.6 13.4 Z M 12.4 13.7 C 12.4 13.6 12.3 13.6 12.4 13.6 C 12.3 13.7 12.2 13.9 12.2 14.1 C 12.2 14.3 12.3 14.1 12.2 14.0 C 12.3 14.1 12.3 14.2 12.3 14.3 C 12.4 14.3 12.4 13.9 12.4 14.2 C 12.4 14.1 12.4 14.1 12.5 14.2 C 12.4 14.0 12.5 14.1 12.5 13.9 C 12.5 13.9 12.4 13.9 12.4 14.1 C 12.4 14.0 12.3 13.9 12.3 13.7 C 12.3 13.7 12.4 13.7 12.4 13.7 C 12.4 13.7 12.4 13.7 12.4 13.7 Z M 12.1 14.2 C 12.1 14.2 12.1 14.2 12.2 14.2 C 12.2 14.1 12.2 14.0 12.2 13.9 C 12.1 13.9 12.1 14.0 12.1 13.9 C 12.0 13.8 12.1 14.1 12.0 14.0 C 12.0 14.1 12.0 14.1 12.0 14.2 C 12.1 14.0 12.1 14.0 12.1 14.2 C 12.1 14.2 12.1 14.2 12.1 14.2 Z M 11.4 13.8 C 11.4 13.8 11.5 13.9 11.4 14.1 C 11.4 14.0 11.6 14.1 11.5 14.3 C 11.6 14.5 11.7 14.0 11.7 14.3 C 11.7 14.3 11.7 14.2 11.7 14.1 C 11.6 14.2 11.6 14.0 11.7 14.0 C 11.7 13.9 11.6 14.0 11.6 14.0 C 11.6 14.1 11.6 14.1 11.6 14.2 C 11.5 14.1 11.5 13.9 11.4 13.8 C 11.4 13.8 11.4 13.8 11.4 13.8 Z M 14.1 11.5 C 14.1 11.6 14.2 11.6 14.2 11.6 C 14.3 11.6 14.2 11.6 14.2 11.6 C 14.3 11.5 14.3 11.5 14.3 11.5 C 14.5 11.5 14.3 11.4 14.1 11.5 C 14.1 11.5 14.1 11.5 14.1 11.5 Z M 14.3 11.9 C 14.3 12.0 14.4 12.0 14.5 12.0 C 14.6 11.9 14.4 12.0 14.4 12.0 C 14.4 11.9 14.5 11.9 14.5 11.8 C 14.5 11.8 14.5 11.9 14.4 11.9 C 14.4 11.9 14.4 11.8 14.5 11.8 C 14.3 11.8 14.5 11.9 14.3 11.9 C 14.3 11.9 14.3 11.9 14.3 11.9 Z M 11.8 14.0 C 11.8 14.1 11.8 14.2 11.9 14.1 C 11.9 14.0 11.9 14.0 12.0 14.0 C 11.9 13.9 11.9 14.0 11.8 14.0 C 11.8 14.0 11.8 14.0 11.8 14.0 Z M 15.6 14.4 C 15.5 14.5 15.7 14.4 15.7 14.5 C 15.7 14.5 15.8 14.5 15.8 14.5 C 15.7 14.5 15.7 14.4 15.6 14.4 C 15.6 14.4 15.6 14.4 15.6 14.4 Z M 11.8 6.1 C 11.9 6.1 11.8 6.0 11.9 6.0 C 11.6 6.1 12.1 5.9 11.9 5.8 C 12.0 5.7 12.0 5.7 12.1 5.7 C 12.1 5.6 11.9 5.9 11.7 5.9 C 11.8 6.0 11.7 6.1 11.8 6.1 C 11.8 6.1 11.8 6.1 11.8 6.1 Z M 7.8 14.0 C 7.8 14.0 7.8 14.0 7.7 14.0 C 7.7 14.0 7.7 14.0 7.7 14.0 C 7.7 14.2 7.8 14.3 7.7 14.6 C 7.7 14.6 7.7 14.6 7.7 14.5 C 7.9 14.0 7.9 14.9 8.1 14.5 C 8.1 14.5 8.1 14.5 8.1 14.4 C 8.1 14.4 8.1 14.4 8.1 14.4 C 8.0 14.6 7.9 14.3 8.0 14.2 C 8.0 14.2 8.0 14.2 8.0 14.2 C 7.9 14.2 7.9 14.2 7.9 14.2 C 7.9 14.3 7.9 14.3 7.9 14.4 C 7.9 14.3 7.8 14.3 7.9 14.1 C 7.8 14.1 7.8 14.2 7.8 14.2 C 7.7 14.2 7.7 14.0 7.8 14.0 C 7.8 14.0 7.8 14.0 7.8 14.0 Z M 7.2 14.1 C 7.1 14.0 7.1 14.2 7.1 14.2 C 7.1 14.4 7.2 14.1 7.2 14.3 C 7.2 14.2 7.2 14.2 7.2 14.1 C 7.2 14.1 7.2 14.1 7.2 14.1 Z M 8.5 14.4 C 8.4 14.6 8.5 14.6 8.6 14.6 C 8.6 14.4 8.5 14.4 8.5 14.4 C 8.5 14.4 8.5 14.4 8.5 14.4 Z M 8.2 14.4 C 8.1 14.4 8.3 14.4 8.2 14.6 C 8.2 14.6 8.3 14.6 8.3 14.7 C 8.3 14.6 8.3 14.5 8.3 14.5 C 8.3 14.4 8.3 14.5 8.3 14.4 C 8.2 14.5 8.2 14.5 8.2 14.4 C 8.2 14.4 8.2 14.4 8.2 14.4 Z M 8.1 14.4 C 8.1 14.4 8.1 14.7 8.2 14.7 C 8.2 14.6 8.2 14.5 8.1 14.4 C 8.1 14.4 8.1 14.4 8.1 14.4 Z M 13.3 14.6 C 13.3 14.6 13.3 14.8 13.2 14.8 C 13.2 14.9 13.4 14.9 13.2 14.9 C 13.3 15.1 13.3 14.8 13.4 14.9 C 13.3 14.8 13.3 14.8 13.4 14.7 C 13.4 14.6 13.3 14.8 13.3 14.6 C 13.3 14.6 13.3 14.6 13.3 14.6 Z M 13.1 14.6 C 13.1 14.6 13.1 14.7 13.1 14.7 C 13.1 14.7 13.1 14.7 13.1 14.7 C 13.1 14.7 13.1 15.0 13.1 15.2 C 13.2 15.0 13.1 14.8 13.1 14.6 C 13.1 14.6 13.1 14.6 13.1 14.6 Z M 13.0 14.7 C 13.0 14.6 12.9 14.6 12.8 14.8 C 12.9 15.0 13.0 15.0 13.0 14.7 C 13.0 14.7 13.0 14.7 13.0 14.7 Z M 13.8 14.8 C 13.6 14.6 13.4 14.9 13.6 15.1 C 13.6 14.9 13.7 14.8 13.8 14.9 C 13.8 14.9 13.9 14.7 13.9 14.8 C 14.0 14.7 13.7 14.7 13.8 14.8 C 13.8 14.8 13.8 14.8 13.8 14.8 Z M 12.7 15.1 C 12.7 15.1 12.7 14.7 12.8 14.8 C 12.8 14.8 12.8 14.8 12.8 14.7 C 12.7 14.7 12.6 14.9 12.6 14.7 C 12.5 14.7 12.5 14.9 12.4 14.8 C 12.4 14.9 12.7 14.7 12.7 15.0 C 12.7 15.1 12.6 15.1 12.7 15.1 C 12.7 15.1 12.7 15.1 12.7 15.1 Z M 16.6 13.9 C 16.4 14.0 16.6 14.0 16.4 14.1 C 16.6 14.1 16.5 14.2 16.7 14.1 C 16.6 14.2 16.4 14.3 16.4 14.4 C 16.5 14.3 16.5 14.3 16.6 14.3 C 16.6 14.3 16.4 14.4 16.5 14.4 C 16.8 14.3 16.7 14.6 16.9 14.4 C 16.9 14.4 16.8 14.5 16.8 14.4 C 16.8 14.4 16.9 14.3 16.9 14.3 C 17.0 14.2 16.8 14.4 17.0 14.3 C 17.1 14.3 17.0 14.2 17.1 14.2 C 17.1 14.2 17.1 14.2 17.0 14.3 C 16.9 14.2 17.4 14.1 17.3 14.0 C 17.1 14.1 17.1 14.1 16.9 14.2 C 17.0 14.1 16.8 14.1 17.1 14.0 C 17.2 14.0 17.0 14.0 16.9 14.0 C 16.8 14.0 16.9 14.0 17.0 14.0 C 16.9 13.9 16.7 14.0 16.6 14.0 C 16.4 14.1 16.7 14.0 16.6 13.9 C 16.6 13.9 16.6 13.9 16.6 13.9 Z M 14.5 14.9 C 14.5 14.8 14.4 15.0 14.4 14.9 C 14.4 14.9 14.4 15.2 14.5 15.2 C 14.4 15.1 14.4 15.1 14.5 15.1 C 14.5 15.0 14.4 14.9 14.5 14.9 C 14.5 14.9 14.5 14.9 14.5 14.9 Z M 12.3 14.8 C 12.3 14.7 12.2 14.8 12.1 14.8 C 12.1 15.0 12.3 14.6 12.3 14.9 C 12.3 14.9 12.3 14.8 12.3 14.8 C 12.3 14.8 12.3 14.8 12.3 14.8 Z M 16.7 14.8 C 16.7 14.8 16.8 14.8 16.8 14.8 C 16.8 14.8 16.8 14.8 16.8 14.8 C 16.9 14.7 17.0 14.8 17.2 14.7 C 17.2 14.7 17.2 14.7 17.2 14.7 L 16.6 15.6 C 16.6 15.6 16.6 15.6 16.6 15.6 C 16.7 15.3 16.5 15.8 16.6 15.8 C 16.6 15.7 16.6 15.7 16.6 15.6 L 17.3 14.7 C 17.3 14.7 17.3 14.7 17.2 14.7 C 17.3 14.5 17.2 14.6 17.3 14.5 C 17.3 14.4 17.2 14.5 17.2 14.4 C 17.3 14.3 17.4 14.3 17.6 14.2 C 17.6 14.1 17.2 14.3 17.1 14.3 C 17.2 14.2 17.3 14.2 17.5 14.2 C 17.5 14.1 17.5 14.1 17.6 14.1 C 17.5 14.1 17.4 14.1 17.4 14.2 C 17.3 14.2 17.2 14.2 17.4 14.1 C 17.3 14.1 16.9 14.4 17.1 14.4 C 17.1 14.4 16.8 14.5 16.8 14.5 C 16.7 14.6 17.1 14.5 16.7 14.6 C 16.8 14.6 16.8 14.7 16.8 14.7 C 16.8 14.7 16.8 14.6 16.9 14.6 C 16.9 14.6 16.9 14.7 16.9 14.7 C 16.8 14.7 16.8 14.7 16.7 14.8 C 16.7 14.8 16.7 14.8 16.7 14.8 Z M 12.6 14.9 C 12.5 14.9 12.5 15.0 12.5 15.0 C 12.5 15.1 12.6 15.1 12.6 14.9 C 12.6 14.9 12.6 14.9 12.6 14.9 Z M 16.9 13.4 C 16.8 13.4 16.9 13.4 16.8 13.5 C 16.7 13.4 16.7 13.5 16.4 13.6 C 16.5 13.6 16.9 13.5 17.0 13.3 C 16.9 13.3 17.0 13.4 16.9 13.4 C 16.9 13.4 16.9 13.4 16.9 13.4 Z M 16.9 13.7 C 17.0 13.7 17.0 13.5 17.1 13.5 C 17.1 13.4 17.2 13.4 17.2 13.4 C 17.0 13.4 16.9 13.6 16.6 13.7 C 16.5 13.8 16.5 13.8 16.6 13.9 C 16.7 13.8 16.6 13.8 16.6 13.8 C 16.6 13.8 16.8 13.7 16.8 13.8 C 16.8 13.7 16.8 13.7 16.8 13.7 C 16.8 13.7 16.8 13.7 16.7 13.7 C 16.6 13.7 16.8 13.7 16.8 13.6 C 16.8 13.6 17.0 13.6 16.9 13.7 C 16.9 13.7 16.9 13.7 16.9 13.7 Z M 14.8 9.8 C 14.9 9.9 15.0 9.7 15.3 9.6 C 15.3 9.5 15.2 9.5 15.2 9.5 C 15.1 9.6 15.1 9.6 15.0 9.7 C 14.8 9.8 15.0 9.6 14.9 9.7 C 14.6 9.8 15.0 9.7 14.8 9.8 C 14.8 9.8 14.8 9.8 14.8 9.8 Z M 15.7 15.3 C 15.7 15.3 15.7 15.4 15.7 15.4 C 15.7 15.5 15.7 15.4 15.7 15.4 C 15.7 15.4 15.7 15.5 15.7 15.5 C 15.7 15.6 15.7 15.5 15.7 15.4 C 15.8 15.4 15.7 15.7 15.8 15.7 C 15.8 15.7 15.8 15.6 15.8 15.6 C 15.8 15.5 15.8 15.4 15.7 15.3 C 15.7 15.3 15.7 15.3 15.7 15.3 Z M 16.5 13.4 C 16.4 13.4 16.8 13.3 16.7 13.4 C 16.7 13.5 16.8 13.3 16.8 13.4 C 16.8 13.3 16.7 13.3 16.6 13.2 C 16.5 13.3 16.7 13.4 16.5 13.3 C 16.5 13.4 16.5 13.4 16.6 13.3 C 16.6 13.4 16.5 13.4 16.5 13.4 C 16.5 13.4 16.5 13.4 16.5 13.4 Z M 16.9 13.3 C 17.0 13.3 17.0 13.3 16.9 13.3 C 16.9 13.2 17.1 13.2 17.1 13.2 C 17.3 13.1 16.9 13.2 17.0 13.1 C 16.9 13.2 16.8 13.3 16.9 13.1 C 16.7 13.2 16.8 13.3 16.9 13.3 C 16.9 13.3 16.9 13.3 16.9 13.3 Z M 15.2 10.4 C 15.3 10.4 15.2 10.4 15.2 10.3 C 15.4 10.3 15.4 10.5 15.3 10.6 C 15.3 10.6 15.4 10.6 15.3 10.6 C 15.3 10.6 15.4 10.6 15.5 10.6 C 15.5 10.5 15.5 10.6 15.6 10.5 C 15.6 10.6 15.5 10.6 15.4 10.7 C 15.6 10.7 15.4 10.7 15.4 10.8 C 15.6 10.7 15.5 10.6 15.7 10.5 C 15.5 10.6 15.6 10.4 15.8 10.3 C 15.5 10.5 15.3 10.3 15.3 10.2 C 15.4 10.1 15.4 10.1 15.4 10.0 C 15.6 9.9 15.2 10.1 15.3 10.1 C 15.2 10.2 15.3 10.0 15.2 10.0 C 15.1 10.1 15.1 10.1 15.0 10.2 C 15.1 10.2 15.1 10.1 15.2 10.1 C 15.2 10.1 15.2 10.1 15.2 10.2 C 14.9 10.2 15.3 10.3 15.2 10.2 C 15.3 10.3 15.1 10.4 15.2 10.4 C 15.2 10.4 15.2 10.4 15.2 10.4 Z M 16.0 12.3 C 16.1 12.3 16.2 12.4 16.1 12.4 C 16.2 12.4 16.3 12.3 16.4 12.4 C 16.4 12.4 16.4 12.3 16.5 12.3 C 16.4 12.3 16.3 12.3 16.2 12.4 C 16.2 12.3 16.1 12.3 16.1 12.3 C 16.2 12.3 16.2 12.3 16.2 12.3 C 16.4 12.3 16.5 12.2 16.4 12.2 C 16.3 12.2 16.1 12.3 16.0 12.3 C 16.0 12.3 16.0 12.3 16.0 12.3 Z M 16.3 12.4 C 16.3 12.5 16.3 12.5 16.2 12.5 C 16.0 12.6 16.4 12.5 16.4 12.5 C 16.4 12.5 16.3 12.5 16.3 12.6 C 16.3 12.6 16.4 12.6 16.3 12.7 C 16.4 12.7 16.4 12.5 16.5 12.5 C 16.5 12.4 16.3 12.5 16.3 12.4 C 16.3 12.4 16.3 12.4 16.3 12.4 Z M 16.5 13.1 C 16.3 13.2 16.6 13.1 16.5 13.2 C 16.7 13.1 16.6 13.0 16.8 13.0 C 16.8 12.9 16.8 12.9 16.7 12.9 C 16.9 12.8 16.6 12.9 16.7 13.0 C 16.6 13.0 16.6 13.0 16.5 13.0 C 16.8 12.8 16.3 12.9 16.5 12.9 C 16.5 12.9 16.5 13.0 16.4 13.0 C 16.5 12.9 16.5 13.1 16.5 13.1 C 16.5 13.1 16.5 13.1 16.5 13.1 Z M 16.2 15.7 C 16.3 15.7 16.3 15.7 16.4 15.7 C 16.4 15.8 16.4 15.8 16.3 15.8 C 16.4 15.9 16.4 15.9 16.4 15.8 C 16.4 15.8 16.4 15.8 16.4 15.8 C 16.3 15.7 16.4 15.7 16.4 15.5 C 16.3 15.4 16.3 15.7 16.2 15.5 C 16.2 15.5 16.2 15.6 16.2 15.7 C 16.2 15.7 16.2 15.7 16.2 15.7 Z M 13.2 5.6 C 13.1 5.6 13.1 5.6 13.0 5.6 C 13.0 5.6 13.1 5.6 13.1 5.6 C 13.2 5.6 13.4 5.5 13.3 5.4 C 13.3 5.5 13.1 5.5 13.2 5.6 C 13.2 5.6 13.2 5.6 13.2 5.6 Z M 16.4 12.9 C 16.5 12.9 16.6 12.8 16.6 12.8 C 16.7 12.8 16.6 12.8 16.7 12.7 C 16.7 12.7 16.6 12.7 16.6 12.7 C 16.5 12.8 16.6 12.8 16.4 12.9 C 16.4 12.8 16.4 12.8 16.4 12.8 C 16.3 12.8 16.3 12.9 16.4 12.9 C 16.4 12.9 16.4 12.9 16.4 12.9 Z M 14.9 9.6 C 14.9 9.6 15.0 9.5 15.0 9.5 C 15.2 9.5 15.2 9.3 15.4 9.3 C 15.3 9.4 15.4 9.4 15.3 9.4 C 15.4 9.4 15.5 9.3 15.6 9.4 C 15.7 9.3 15.6 9.3 15.5 9.4 C 15.6 9.3 15.4 9.3 15.6 9.2 C 15.6 9.1 15.4 9.2 15.3 9.2 C 15.4 9.3 15.1 9.4 15.1 9.4 C 15.1 9.4 15.1 9.4 15.1 9.4 C 15.0 9.5 14.9 9.5 14.9 9.6 C 14.9 9.6 14.9 9.6 14.9 9.6 Z M 15.8 11.7 C 15.9 11.7 16.0 11.6 16.1 11.6 C 16.1 11.6 16.1 11.6 16.0 11.5 C 16.0 11.6 16.0 11.6 15.8 11.7 C 15.8 11.7 15.8 11.7 15.8 11.7 Z M 15.2 9.8 C 15.2 9.8 15.2 9.8 15.3 9.8 C 15.3 9.9 15.2 9.9 15.1 10.0 C 15.2 10.0 15.3 9.9 15.4 9.9 C 15.2 9.9 15.4 9.8 15.4 9.8 C 15.3 9.8 15.3 9.8 15.2 9.8 C 15.2 9.8 15.2 9.8 15.2 9.8 Z M 15.8 11.2 C 15.8 11.2 15.8 11.2 15.8 11.2 C 16.0 11.1 15.9 11.3 16.0 11.2 C 16.1 11.2 16.1 11.1 16.2 11.2 C 16.3 11.1 16.1 11.1 16.1 11.0 C 16.3 10.9 16.3 11.0 16.5 10.9 C 16.4 10.9 16.2 10.9 16.0 11.0 C 16.0 11.1 15.9 11.1 15.8 11.2 C 15.8 11.2 15.8 11.2 15.8 11.2 Z M 15.8 11.0 C 15.7 11.1 15.9 11.0 15.8 11.1 C 16.0 11.0 15.9 11.0 15.9 10.8 C 15.9 10.9 15.9 10.9 15.8 10.9 C 15.8 10.9 15.8 10.8 15.8 10.8 C 15.6 11.0 15.8 11.0 15.9 11.0 C 15.8 11.1 15.8 11.0 15.8 11.0 C 15.8 11.0 15.8 11.0 15.8 11.0 Z M 17.1 13.7 C 17.1 13.6 17.2 13.6 17.2 13.5 C 17.1 13.6 17.0 13.7 17.1 13.7 C 17.1 13.7 17.1 13.7 17.1 13.7 Z M 15.3 9.7 C 15.2 9.7 15.3 9.7 15.5 9.6 C 15.5 9.5 15.6 9.5 15.7 9.4 C 15.5 9.4 15.5 9.6 15.3 9.7 C 15.3 9.7 15.3 9.7 15.3 9.7 Z M 15.9 9.8 C 15.9 9.9 15.6 10.0 15.8 9.9 C 15.7 9.8 15.6 10.0 15.6 9.9 C 15.6 10.0 15.5 10.1 15.7 10.1 C 15.8 10.0 15.7 10.0 15.8 9.9 C 15.9 9.9 15.9 9.9 15.9 9.9 C 16.0 9.9 15.9 9.9 15.9 9.8 C 15.9 9.8 15.9 9.8 15.9 9.8 Z M 15.7 10.3 C 15.8 10.2 15.9 10.1 15.8 10.1 C 15.7 10.1 15.6 10.2 15.7 10.3 C 15.7 10.3 15.7 10.3 15.7 10.3 Z M 14.2 6.4 C 14.2 6.4 14.4 6.3 14.4 6.3 C 14.4 6.2 14.3 6.3 14.3 6.2 C 14.1 6.3 14.4 6.3 14.2 6.4 C 14.2 6.4 14.2 6.4 14.2 6.4 Z M 14.2 6.2 C 14.3 6.1 14.2 6.1 14.4 6.0 C 14.0 6.1 14.5 5.8 14.3 5.9 C 14.3 5.9 14.3 5.9 14.3 5.8 C 14.0 6.0 14.2 6.1 14.2 6.2 C 14.2 6.2 14.2 6.2 14.2 6.2 Z M 16.2 10.5 C 16.2 10.5 16.5 10.3 16.5 10.4 C 16.5 10.4 16.5 10.2 16.6 10.3 C 16.7 10.1 16.3 10.4 16.2 10.5 C 16.2 10.5 16.2 10.5 16.2 10.5 Z M 16.8 11.4 C 16.7 11.4 16.8 11.4 16.8 11.5 C 16.9 11.5 16.9 11.4 16.9 11.4 C 16.9 11.4 17.0 11.4 17.0 11.4 C 17.1 11.3 16.9 11.4 16.8 11.4 C 16.8 11.4 16.8 11.4 16.8 11.4 Z M 13.3 11.7 C 13.5 11.6 13.6 11.5 13.3 11.5 C 13.5 11.4 13.5 11.5 13.6 11.4 C 13.5 11.4 13.7 11.3 13.6 11.3 C 13.8 11.2 13.7 11.1 13.9 11.1 C 13.9 11.1 13.7 11.2 13.9 11.2 C 13.9 11.1 14.1 11.1 14.0 11.1 C 13.9 11.2 13.7 11.2 13.6 11.3 C 13.9 11.2 13.5 11.5 13.6 11.6 C 13.4 11.6 13.4 11.7 13.3 11.7 C 13.3 11.7 13.3 11.7 13.3 11.7 Z M 13.5 11.2 C 13.5 11.1 13.8 10.9 13.8 10.9 C 13.7 11.0 13.8 11.0 13.8 11.0 C 13.8 11.0 13.8 11.0 13.9 11.0 C 13.9 11.1 13.7 11.1 13.6 11.2 C 13.5 11.2 13.6 11.1 13.5 11.1 C 13.5 11.1 13.5 11.1 13.5 11.2 C 13.5 11.2 13.5 11.2 13.5 11.2 Z M 15.7 8.8 C 15.6 8.9 15.8 8.8 15.8 8.9 C 15.6 9.0 15.9 8.9 15.8 9.0 C 15.7 9.0 15.7 9.0 15.6 9.0 C 15.6 9.0 15.5 9.0 15.6 9.0 C 15.5 9.1 15.4 9.0 15.3 9.1 C 15.4 9.0 15.3 9.1 15.4 9.0 C 15.5 9.0 15.7 8.8 15.7 8.8 C 15.7 8.8 15.7 8.8 15.7 8.8 Z M 16.6 10.8 C 16.8 10.7 17.2 10.5 17.4 10.5 C 17.3 10.5 17.1 10.6 16.9 10.7 C 17.1 10.7 16.9 10.8 17.1 10.8 C 16.6 11.1 17.1 10.7 16.6 10.8 C 16.6 10.8 16.6 10.8 16.6 10.8 Z M 17.0 11.1 C 16.8 11.1 16.8 11.2 16.7 11.2 C 16.8 11.1 16.6 11.1 16.7 11.1 C 16.8 11.1 16.9 11.0 17.0 11.1 C 17.0 11.1 17.0 11.1 17.0 11.1 Z M 11.0 15.0 C 11.1 14.9 11.1 15.2 11.0 15.3 C 11.1 15.1 11.0 15.2 11.0 15.0 C 11.0 15.0 11.0 15.0 11.0 15.0 Z M 13.7 12.2 C 13.6 12.1 13.6 12.2 13.6 12.1 C 13.6 12.0 13.6 12.1 13.7 12.1 C 13.7 12.1 13.7 12.0 13.7 12.1 C 13.7 12.1 13.7 12.2 13.7 12.2 C 13.7 12.2 13.7 12.2 13.7 12.2 Z M 13.7 14.1 C 13.6 14.1 13.6 14.2 13.4 14.2 C 13.5 14.1 13.3 14.1 13.2 14.1 C 13.3 14.1 13.3 14.0 13.4 14.0 C 13.4 14.1 13.5 14.1 13.7 14.1 C 13.7 14.1 13.7 14.1 13.7 14.1 Z M 13.4 14.3 C 13.5 14.3 13.7 14.2 13.7 14.2 C 13.5 14.3 13.4 14.4 13.4 14.4 C 13.5 14.4 13.5 14.3 13.4 14.3 C 13.4 14.3 13.4 14.3 13.4 14.3 Z M 12.7 10.6 C 12.7 10.5 12.6 10.7 12.5 10.7 C 12.5 10.6 12.5 10.6 12.6 10.5 C 12.6 10.6 12.8 10.5 12.7 10.6 C 12.7 10.6 12.7 10.6 12.7 10.6 Z M 13.4 11.1 C 13.5 11.2 13.2 11.3 13.2 11.5 C 13.0 11.5 13.0 11.4 12.9 11.4 C 13.0 11.3 13.0 11.3 13.1 11.3 C 13.1 11.3 13.0 11.3 13.1 11.4 C 13.2 11.3 13.2 11.3 13.3 11.3 C 13.3 11.2 13.3 11.2 13.3 11.2 C 13.4 11.2 13.4 11.1 13.4 11.1 C 13.4 11.1 13.4 11.1 13.4 11.1 Z M 13.1 10.4 C 13.1 10.4 13.3 10.2 13.3 10.3 C 13.2 10.3 13.3 10.3 13.3 10.3 C 13.2 10.3 13.2 10.4 13.0 10.5 C 13.0 10.4 13.0 10.4 12.9 10.5 C 12.9 10.5 12.8 10.4 12.9 10.4 C 12.9 10.4 12.9 10.5 13.0 10.4 C 13.0 10.4 13.0 10.4 13.0 10.4 C 13.0 10.4 13.1 10.4 13.1 10.4 C 13.1 10.4 13.1 10.4 13.1 10.4 Z M 13.3 10.7 C 13.3 10.6 13.4 10.5 13.5 10.5 C 13.5 10.6 13.3 10.7 13.2 10.8 C 13.2 10.7 13.0 10.7 13.1 10.7 C 13.1 10.7 13.2 10.7 13.3 10.7 C 13.3 10.7 13.3 10.7 13.3 10.7 Z M 5.3 13.6 C 5.4 13.7 5.4 13.8 5.5 13.9 C 5.5 13.7 5.4 13.3 5.4 13.5 C 5.5 13.4 5.4 13.7 5.5 13.7 C 5.4 13.5 5.7 13.5 5.7 13.7 C 5.7 13.7 5.6 13.8 5.7 13.9 C 5.5 13.9 5.5 14.0 5.4 14.1 C 5.4 13.8 5.2 13.8 5.1 14.0 C 5.1 13.7 5.0 14.0 4.9 13.8 C 4.9 13.9 4.9 14.0 4.9 14.0 C 4.8 13.8 4.9 13.7 4.8 13.6 C 4.8 13.7 4.8 13.9 4.8 13.9 C 4.8 13.8 4.8 13.7 4.8 13.7 C 4.9 13.7 4.8 13.4 4.9 13.4 C 4.9 13.5 4.8 13.7 4.9 13.7 C 4.9 13.6 5.0 13.6 5.0 13.4 C 5.0 13.4 5.0 13.4 5.1 13.3 C 5.0 13.6 5.2 13.3 5.1 13.5 C 5.1 13.5 5.0 13.5 5.0 13.6 C 5.0 13.8 5.1 13.7 5.2 13.6 C 5.2 13.7 5.1 13.8 5.2 13.8 C 5.2 13.7 5.2 13.6 5.2 13.5 C 5.2 13.5 5.2 13.5 5.2 13.4 C 5.2 13.6 5.3 13.4 5.3 13.4 C 5.3 13.5 5.4 13.6 5.3 13.6 C 5.3 13.6 5.3 13.6 5.3 13.6 Z M 4.5 13.8 C 4.5 13.8 4.5 13.8 4.4 13.8 C 4.4 13.6 4.5 13.6 4.5 13.4 C 4.6 13.5 4.5 13.7 4.5 13.8 C 4.5 13.8 4.5 13.8 4.5 13.8 Z M 4.9 14.5 C 4.9 14.7 4.9 14.2 5.0 14.2 C 4.9 14.3 4.9 14.3 4.9 14.1 C 4.9 14.2 5.0 14.2 5.0 14.1 C 5.0 14.4 5.1 14.3 5.1 14.5 C 5.0 14.6 5.0 14.7 4.9 14.7 C 5.0 14.6 4.9 14.5 4.9 14.5 C 4.9 14.5 4.9 14.5 4.9 14.5 Z M 4.7 14.7 C 4.7 14.6 4.6 14.7 4.7 14.5 C 4.7 14.5 4.7 14.4 4.7 14.3 C 4.8 14.3 4.8 14.4 4.8 14.4 C 4.8 14.6 4.8 14.5 4.7 14.6 C 4.8 14.6 4.8 14.7 4.7 14.7 C 4.7 14.7 4.7 14.7 4.7 14.7 Z M 13.5 4.9 C 13.3 5.0 13.4 4.8 13.4 4.8 C 13.3 4.9 13.2 4.9 13.1 4.9 C 13.4 4.8 13.2 4.8 13.5 4.6 C 13.3 4.7 13.3 4.8 13.2 4.7 C 13.2 4.6 13.1 4.6 13.0 4.6 C 13.2 4.5 13.2 4.5 13.3 4.5 C 13.3 4.4 13.4 4.4 13.4 4.4 C 13.3 4.4 13.2 4.4 13.3 4.3 C 13.4 4.4 13.5 4.1 13.6 4.2 C 13.5 4.2 13.6 4.2 13.6 4.2 C 13.4 4.3 13.5 4.4 13.4 4.5 C 13.8 4.3 13.7 4.5 13.6 4.7 C 13.5 4.7 13.5 4.7 13.4 4.7 C 13.5 4.7 13.5 4.8 13.6 4.8 C 13.5 4.8 13.5 4.8 13.4 4.9 C 13.5 4.9 13.5 4.8 13.5 4.9 C 13.5 4.9 13.5 4.9 13.5 4.9 Z M 8.8 15.7 C 8.8 16.0 9.0 15.9 9.0 15.8 C 9.0 16.1 8.8 16.0 8.8 15.7 C 8.8 15.7 8.8 15.7 8.8 15.7 Z M 8.0 15.9 C 8.0 15.9 8.0 15.8 8.0 15.7 C 8.0 15.9 8.1 15.6 8.1 15.7 C 8.1 15.9 8.0 15.9 8.0 15.9 C 8.0 15.9 8.0 15.9 8.0 15.9 Z M 7.2 15.8 C 7.3 15.8 7.2 15.7 7.2 15.6 C 7.2 15.7 7.3 15.7 7.3 15.8 C 7.2 15.7 7.2 16.0 7.2 15.8 C 7.2 15.8 7.2 15.8 7.2 15.8 Z M 8.4 16.1 C 8.4 16.2 8.3 16.4 8.3 16.3 C 8.4 16.2 8.3 16.1 8.2 16.2 C 8.2 15.9 8.3 16.0 8.2 15.8 C 8.3 15.7 8.3 16.0 8.3 16.0 C 8.3 15.9 8.3 15.9 8.3 15.7 C 8.3 15.7 8.4 15.8 8.4 15.8 C 8.4 15.9 8.4 16.0 8.4 16.1 C 8.3 16.1 8.3 16.1 8.3 16.2 C 8.3 16.2 8.3 16.1 8.4 16.1 C 8.4 16.1 8.4 16.1 8.4 16.1 Z M 13.3 3.7 C 13.3 3.6 13.3 3.7 13.2 3.7 C 13.3 3.7 13.7 3.6 13.5 3.7 C 13.3 3.7 13.3 3.8 13.2 3.8 C 13.3 3.7 13.1 3.8 13.1 3.7 C 13.2 3.7 13.5 3.6 13.3 3.7 C 13.3 3.7 13.3 3.7 13.3 3.7 Z M 13.3 3.9 C 13.3 3.8 13.4 3.8 13.3 3.8 C 13.5 3.8 13.5 3.7 13.6 3.7 C 13.5 3.7 13.5 3.9 13.4 3.8 C 13.5 3.7 13.3 3.9 13.3 3.9 C 13.3 3.9 13.1 3.9 13.2 3.9 C 13.2 3.9 13.3 3.9 13.3 3.9 C 13.3 3.9 13.3 3.9 13.3 3.9 Z M 14.1 5.1 C 14.2 5.0 14.2 5.0 14.3 4.9 C 14.3 5.1 14.3 5.1 14.3 5.2 C 14.3 5.2 14.2 5.2 14.1 5.3 C 14.1 5.2 14.0 5.2 14.1 5.2 C 14.3 5.2 14.1 5.1 14.1 5.1 C 14.1 5.1 14.1 5.1 14.1 5.1 Z M 14.1 5.1 " fill="#2DCBB1"></path></g></svg>