<?xml version="1.0" encoding="UTF-8" standalone="no"?><svg xmlns="http://www.w3.org/2000/svg" xmlns:xlink="http://www.w3.org/1999/xlink" clip-rule="evenodd" stroke-miterlimit="10" viewBox="0 0 551 156"><desc>SVG generated by Keynote</desc><defs></defs><g transform="matrix(1.00, 0.00, -0.00, -1.00, 0.0, 156.0)"><text xml:space="preserve" font-family="Helvetica-BoldOblique,Helvetica" font-style="italic" font-weight="bold" font-size="27.0" fill="#FFFFFF" transform="matrix(1.00, 0.00, -0.00, -1.00, 9.4, 135.2)">"</text><text xml:space="preserve" font-family="Helvetica-BoldOblique,Helvetica" font-style="italic" font-weight="bold" font-size="27.0" fill="#FFFFFF" transform="matrix(1.00, 0.00, -0.00, -1.00, 22.2, 135.2)">T</text><text xml:space="preserve" font-family="Helvetica-BoldOblique,Helvetica" font-style="italic" font-weight="bold" font-size="27.0" fill="#FFFFFF" transform="matrix(1.00, 0.00, -0.00, -1.00, 38.7, 135.2)">h</text><text xml:space="preserve" font-family="Helvetica-BoldOblique,Helvetica" font-style="italic" font-weight="bold" font-size="27.0" fill="#FFFFFF" transform="matrix(1.00, 0.00, -0.00, -1.00, 55.2, 135.2)">e</text><text xml:space="preserve" font-family="Helvetica-BoldOblique,Helvetica" font-style="italic" font-weight="bold" font-size="27.0" fill="#FFFFFF" transform="matrix(1.00, 0.00, -0.00, -1.00, 70.2, 135.2)"> </text><text xml:space="preserve" font-family="Helvetica-BoldOblique,Helvetica" font-style="italic" font-weight="bold" font-size="27.0" fill="#FFFFFF" transform="matrix(1.00, 0.00, -0.00, -1.00, 77.7, 135.2)">s</text><text xml:space="preserve" font-family="Helvetica-BoldOblique,Helvetica" font-style="italic" font-weight="bold" font-size="27.0" fill="#FFFFFF" transform="matrix(1.00, 0.00, -0.00, -1.00, 92.7, 135.2)">y</text><text xml:space="preserve" font-family="Helvetica-BoldOblique,Helvetica" font-style="italic" font-weight="bold" font-size="27.0" fill="#FFFFFF" transform="matrix(1.00, 0.00, -0.00, -1.00, 107.8, 135.2)">s</text><text xml:space="preserve" font-family="Helvetica-BoldOblique,Helvetica" font-style="italic" font-weight="bold" font-size="27.0" fill="#FFFFFF" transform="matrix(1.00, 0.00, -0.00, -1.00, 122.8, 135.2)">t</text><text xml:space="preserve" font-family="Helvetica-BoldOblique,Helvetica" font-style="italic" font-weight="bold" font-size="27.0" fill="#FFFFFF" transform="matrix(1.00, 0.00, -0.00, -1.00, 131.8, 135.2)">e</text><text xml:space="preserve" font-family="Helvetica-BoldOblique,Helvetica" font-style="italic" font-weight="bold" font-size="27.0" fill="#FFFFFF" transform="matrix(1.00, 0.00, -0.00, -1.00, 146.8, 135.2)">m</text><text xml:space="preserve" font-family="Helvetica-BoldOblique,Helvetica" font-style="italic" font-weight="bold" font-size="27.0" fill="#FFFFFF" transform="matrix(1.00, 0.00, -0.00, -1.00, 170.8, 135.2)"> </text><text xml:space="preserve" font-family="Helvetica-BoldOblique,Helvetica" font-style="italic" font-weight="bold" font-size="27.0" fill="#FFFFFF" transform="matrix(1.00, 0.00, -0.00, -1.00, 178.3, 135.2)">i</text><text xml:space="preserve" font-family="Helvetica-BoldOblique,Helvetica" font-style="italic" font-weight="bold" font-size="27.0" fill="#FFFFFF" transform="matrix(1.00, 0.00, -0.00, -1.00, 185.8, 135.2)">s</text><text xml:space="preserve" font-family="Helvetica-BoldOblique,Helvetica" font-style="italic" font-weight="bold" font-size="27.0" fill="#FFFFFF" transform="matrix(1.00, 0.00, -0.00, -1.00, 200.8, 135.2)"> </text><text xml:space="preserve" font-family="Helvetica-BoldOblique,Helvetica" font-style="italic" font-weight="bold" font-size="27.0" fill="#FFFFFF" transform="matrix(1.00, 0.00, -0.00, -1.00, 208.3, 135.2)">m</text><text xml:space="preserve" font-family="Helvetica-BoldOblique,Helvetica" font-style="italic" font-weight="bold" font-size="27.0" fill="#FFFFFF" transform="matrix(1.00, 0.00, -0.00, -1.00, 232.3, 135.2)">u</text><text xml:space="preserve" font-family="Helvetica-BoldOblique,Helvetica" font-style="italic" font-weight="bold" font-size="27.0" fill="#FFFFFF" transform="matrix(1.00, 0.00, -0.00, -1.00, 248.8, 135.2)">l</text><text xml:space="preserve" font-family="Helvetica-BoldOblique,Helvetica" font-style="italic" font-weight="bold" font-size="27.0" fill="#FFFFFF" transform="matrix(1.00, 0.00, -0.00, -1.00, 256.3, 135.2)">t</text><text xml:space="preserve" font-family="Helvetica-BoldOblique,Helvetica" font-style="italic" font-weight="bold" font-size="27.0" fill="#FFFFFF" transform="matrix(1.00, 0.00, -0.00, -1.00, 265.3, 135.2)">i</text><text xml:space="preserve" font-family="Helvetica-BoldOblique,Helvetica" font-style="italic" font-weight="bold" font-size="27.0" fill="#FFFFFF" transform="matrix(1.00, 0.00, -0.00, -1.00, 272.8, 135.2)"> </text><text xml:space="preserve" font-family="Helvetica-BoldOblique,Helvetica" font-style="italic" font-weight="bold" font-size="27.0" fill="#FFFFFF" transform="matrix(1.00, 0.00, -0.00, -1.00, 280.3, 135.2)">l</text><text xml:space="preserve" font-family="Helvetica-BoldOblique,Helvetica" font-style="italic" font-weight="bold" font-size="27.0" fill="#FFFFFF" transform="matrix(1.00, 0.00, -0.00, -1.00, 287.8, 135.2)">a</text><text xml:space="preserve" font-family="Helvetica-BoldOblique,Helvetica" font-style="italic" font-weight="bold" font-size="27.0" fill="#FFFFFF" transform="matrix(1.00, 0.00, -0.00, -1.00, 302.8, 135.2)">n</text><text xml:space="preserve" font-family="Helvetica-BoldOblique,Helvetica" font-style="italic" font-weight="bold" font-size="27.0" fill="#FFFFFF" transform="matrix(1.00, 0.00, -0.00, -1.00, 319.3, 135.2)">g</text><text xml:space="preserve" font-family="Helvetica-BoldOblique,Helvetica" font-style="italic" font-weight="bold" font-size="27.0" fill="#FFFFFF" transform="matrix(1.00, 0.00, -0.00, -1.00, 335.8, 135.2)">u</text><text xml:space="preserve" font-family="Helvetica-BoldOblique,Helvetica" font-style="italic" font-weight="bold" font-size="27.0" fill="#FFFFFF" transform="matrix(1.00, 0.00, -0.00, -1.00, 352.3, 135.2)">a</text><text xml:space="preserve" font-family="Helvetica-BoldOblique,Helvetica" font-style="italic" font-weight="bold" font-size="27.0" fill="#FFFFFF" transform="matrix(1.00, 0.00, -0.00, -1.00, 367.3, 135.2)">g</text><text xml:space="preserve" font-family="Helvetica-BoldOblique,Helvetica" font-style="italic" font-weight="bold" font-size="27.0" fill="#FFFFFF" transform="matrix(1.00, 0.00, -0.00, -1.00, 383.8, 135.2)">e</text><text xml:space="preserve" font-family="Helvetica-BoldOblique,Helvetica" font-style="italic" font-weight="bold" font-size="27.0" fill="#FFFFFF" transform="matrix(1.00, 0.00, -0.00, -1.00, 398.8, 135.2)"> </text><text xml:space="preserve" font-family="Helvetica-BoldOblique,Helvetica" font-style="italic" font-weight="bold" font-size="27.0" fill="#FFFFFF" transform="matrix(1.00, 0.00, -0.00, -1.00, 406.3, 135.2)">s</text><text xml:space="preserve" font-family="Helvetica-BoldOblique,Helvetica" font-style="italic" font-weight="bold" font-size="27.0" fill="#FFFFFF" transform="matrix(1.00, 0.00, -0.00, -1.00, 421.3, 135.2)">u</text><text xml:space="preserve" font-family="Helvetica-BoldOblique,Helvetica" font-style="italic" font-weight="bold" font-size="27.0" fill="#FFFFFF" transform="matrix(1.00, 0.00, -0.00, -1.00, 437.8, 135.2)">p</text><text xml:space="preserve" font-family="Helvetica-BoldOblique,Helvetica" font-style="italic" font-weight="bold" font-size="27.0" fill="#FFFFFF" transform="matrix(1.00, 0.00, -0.00, -1.00, 454.3, 135.2)">p</text><text xml:space="preserve" font-family="Helvetica-BoldOblique,Helvetica" font-style="italic" font-weight="bold" font-size="27.0" fill="#FFFFFF" transform="matrix(1.00, 0.00, -0.00, -1.00, 470.8, 135.2)">o</text><text xml:space="preserve" font-family="Helvetica-BoldOblique,Helvetica" font-style="italic" font-weight="bold" font-size="27.0" fill="#FFFFFF" transform="matrix(1.00, 0.00, -0.00, -1.00, 487.3, 135.2)">r</text><text xml:space="preserve" font-family="Helvetica-BoldOblique,Helvetica" font-style="italic" font-weight="bold" font-size="27.0" fill="#FFFFFF" transform="matrix(1.00, 0.00, -0.00, -1.00, 497.8, 135.2)">t</text><text xml:space="preserve" font-family="Helvetica-BoldOblique,Helvetica" font-style="italic" font-weight="bold" font-size="27.0" fill="#FFFFFF" transform="matrix(1.00, 0.00, -0.00, -1.00, 506.8, 135.2)">e</text><text xml:space="preserve" font-family="Helvetica-BoldOblique,Helvetica" font-style="italic" font-weight="bold" font-size="27.0" fill="#FFFFFF" transform="matrix(1.00, 0.00, -0.00, -1.00, 521.8, 135.2)">d</text><text xml:space="preserve" font-family="Helvetica-BoldOblique,Helvetica" font-style="italic" font-weight="bold" font-size="27.0" fill="#FFFFFF" transform="matrix(1.00, 0.00, -0.00, -1.00, 538.3, 135.2)"> </text><text xml:space="preserve" font-family="Helvetica-BoldOblique,Helvetica" font-style="italic" font-weight="bold" font-size="27.0" fill="#FFFFFF" transform="matrix(1.00, 0.00, -0.00, -1.00, 16.5, 103.2)">a</text><text xml:space="preserve" font-family="Helvetica-BoldOblique,Helvetica" font-style="italic" font-weight="bold" font-size="27.0" fill="#FFFFFF" transform="matrix(1.00, 0.00, -0.00, -1.00, 31.6, 103.2)">n</text><text xml:space="preserve" font-family="Helvetica-BoldOblique,Helvetica" font-style="italic" font-weight="bold" font-size="27.0" fill="#FFFFFF" transform="matrix(1.00, 0.00, -0.00, -1.00, 48.1, 103.2)">d</text><text xml:space="preserve" font-family="Helvetica-BoldOblique,Helvetica" font-style="italic" font-weight="bold" font-size="27.0" fill="#FFFFFF" transform="matrix(1.00, 0.00, -0.00, -1.00, 64.5, 103.2)"> </text><text xml:space="preserve" font-family="Helvetica-BoldOblique,Helvetica" font-style="italic" font-weight="bold" font-size="27.0" fill="#FFFFFF" transform="matrix(1.00, 0.00, -0.00, -1.00, 72.0, 103.2)">h</text><text xml:space="preserve" font-family="Helvetica-BoldOblique,Helvetica" font-style="italic" font-weight="bold" font-size="27.0" fill="#FFFFFF" transform="matrix(1.00, 0.00, -0.00, -1.00, 88.5, 103.2)">a</text><text xml:space="preserve" font-family="Helvetica-BoldOblique,Helvetica" font-style="italic" font-weight="bold" font-size="27.0" fill="#FFFFFF" transform="matrix(1.00, 0.00, -0.00, -1.00, 103.5, 103.2)">v</text><text xml:space="preserve" font-family="Helvetica-BoldOblique,Helvetica" font-style="italic" font-weight="bold" font-size="27.0" fill="#FFFFFF" transform="matrix(1.00, 0.00, -0.00, -1.00, 118.6, 103.2)">e</text><text xml:space="preserve" font-family="Helvetica-BoldOblique,Helvetica" font-style="italic" font-weight="bold" font-size="27.0" fill="#FFFFFF" transform="matrix(1.00, 0.00, -0.00, -1.00, 133.6, 103.2)"> </text><text xml:space="preserve" font-family="Helvetica-BoldOblique,Helvetica" font-style="italic" font-weight="bold" font-size="27.0" fill="#FFFFFF" transform="matrix(1.00, 0.00, -0.00, -1.00, 141.1, 103.2)">t</text><text xml:space="preserve" font-family="Helvetica-BoldOblique,Helvetica" font-style="italic" font-weight="bold" font-size="27.0" fill="#FFFFFF" transform="matrix(1.00, 0.00, -0.00, -1.00, 150.1, 103.2)">h</text><text xml:space="preserve" font-family="Helvetica-BoldOblique,Helvetica" font-style="italic" font-weight="bold" font-size="27.0" fill="#FFFFFF" transform="matrix(1.00, 0.00, -0.00, -1.00, 166.6, 103.2)">e</text><text xml:space="preserve" font-family="Helvetica-BoldOblique,Helvetica" font-style="italic" font-weight="bold" font-size="27.0" fill="#FFFFFF" transform="matrix(1.00, 0.00, -0.00, -1.00, 181.6, 103.2)"> </text><text xml:space="preserve" font-family="Helvetica-BoldOblique,Helvetica" font-style="italic" font-weight="bold" font-size="27.0" fill="#FFFFFF" transform="matrix(1.00, 0.00, -0.00, -1.00, 189.1, 103.2)">m</text><text xml:space="preserve" font-family="Helvetica-BoldOblique,Helvetica" font-style="italic" font-weight="bold" font-size="27.0" fill="#FFFFFF" transform="matrix(1.00, 0.00, -0.00, -1.00, 213.1, 103.2)">o</text><text xml:space="preserve" font-family="Helvetica-BoldOblique,Helvetica" font-style="italic" font-weight="bold" font-size="27.0" fill="#FFFFFF" transform="matrix(1.00, 0.00, -0.00, -1.00, 229.6, 103.2)">s</text><text xml:space="preserve" font-family="Helvetica-BoldOblique,Helvetica" font-style="italic" font-weight="bold" font-size="27.0" fill="#FFFFFF" transform="matrix(1.00, 0.00, -0.00, -1.00, 244.6, 103.2)">t</text><text xml:space="preserve" font-family="Helvetica-BoldOblique,Helvetica" font-style="italic" font-weight="bold" font-size="27.0" fill="#FFFFFF" transform="matrix(1.00, 0.00, -0.00, -1.00, 253.6, 103.2)"> </text><text xml:space="preserve" font-family="Helvetica-BoldOblique,Helvetica" font-style="italic" font-weight="bold" font-size="27.0" fill="#FFFFFF" transform="matrix(1.00, 0.00, -0.00, -1.00, 261.1, 103.2)">a</text><text xml:space="preserve" font-family="Helvetica-BoldOblique,Helvetica" font-style="italic" font-weight="bold" font-size="27.0" fill="#FFFFFF" transform="matrix(1.00, 0.00, -0.00, -1.00, 276.1, 103.2)">d</text><text xml:space="preserve" font-family="Helvetica-BoldOblique,Helvetica" font-style="italic" font-weight="bold" font-size="27.0" fill="#FFFFFF" transform="matrix(1.00, 0.00, -0.00, -1.00, 292.6, 103.2)">v</text><text xml:space="preserve" font-family="Helvetica-BoldOblique,Helvetica" font-style="italic" font-weight="bold" font-size="27.0" fill="#FFFFFF" transform="matrix(1.00, 0.00, -0.00, -1.00, 307.6, 103.2)">a</text><text xml:space="preserve" font-family="Helvetica-BoldOblique,Helvetica" font-style="italic" font-weight="bold" font-size="27.0" fill="#FFFFFF" transform="matrix(1.00, 0.00, -0.00, -1.00, 322.6, 103.2)">n</text><text xml:space="preserve" font-family="Helvetica-BoldOblique,Helvetica" font-style="italic" font-weight="bold" font-size="27.0" fill="#FFFFFF" transform="matrix(1.00, 0.00, -0.00, -1.00, 339.1, 103.2)">c</text><text xml:space="preserve" font-family="Helvetica-BoldOblique,Helvetica" font-style="italic" font-weight="bold" font-size="27.0" fill="#FFFFFF" transform="matrix(1.00, 0.00, -0.00, -1.00, 354.2, 103.2)">e</text><text xml:space="preserve" font-family="Helvetica-BoldOblique,Helvetica" font-style="italic" font-weight="bold" font-size="27.0" fill="#FFFFFF" transform="matrix(1.00, 0.00, -0.00, -1.00, 369.2, 103.2)">d</text><text xml:space="preserve" font-family="Helvetica-BoldOblique,Helvetica" font-style="italic" font-weight="bold" font-size="27.0" fill="#FFFFFF" transform="matrix(1.00, 0.00, -0.00, -1.00, 385.7, 103.2)"> </text><text xml:space="preserve" font-family="Helvetica-BoldOblique,Helvetica" font-style="italic" font-weight="bold" font-size="27.0" fill="#FFFFFF" transform="matrix(1.00, 0.00, -0.00, -1.00, 393.2, 103.2)">t</text><text xml:space="preserve" font-family="Helvetica-BoldOblique,Helvetica" font-style="italic" font-weight="bold" font-size="27.0" fill="#FFFFFF" transform="matrix(1.00, 0.00, -0.00, -1.00, 402.1, 103.2)">r</text><text xml:space="preserve" font-family="Helvetica-BoldOblique,Helvetica" font-style="italic" font-weight="bold" font-size="27.0" fill="#FFFFFF" transform="matrix(1.00, 0.00, -0.00, -1.00, 412.7, 103.2)">a</text><text xml:space="preserve" font-family="Helvetica-BoldOblique,Helvetica" font-style="italic" font-weight="bold" font-size="27.0" fill="#FFFFFF" transform="matrix(1.00, 0.00, -0.00, -1.00, 427.7, 103.2)">c</text><text xml:space="preserve" font-family="Helvetica-BoldOblique,Helvetica" font-style="italic" font-weight="bold" font-size="27.0" fill="#FFFFFF" transform="matrix(1.00, 0.00, -0.00, -1.00, 442.7, 103.2)">k</text><text xml:space="preserve" font-family="Helvetica-BoldOblique,Helvetica" font-style="italic" font-weight="bold" font-size="27.0" fill="#FFFFFF" transform="matrix(1.00, 0.00, -0.00, -1.00, 457.7, 103.2)">i</text><text xml:space="preserve" font-family="Helvetica-BoldOblique,Helvetica" font-style="italic" font-weight="bold" font-size="27.0" fill="#FFFFFF" transform="matrix(1.00, 0.00, -0.00, -1.00, 465.2, 103.2)">n</text><text xml:space="preserve" font-family="Helvetica-BoldOblique,Helvetica" font-style="italic" font-weight="bold" font-size="27.0" fill="#FFFFFF" transform="matrix(1.00, 0.00, -0.00, -1.00, 481.7, 103.2)">g</text><text xml:space="preserve" font-family="Helvetica-BoldOblique,Helvetica" font-style="italic" font-weight="bold" font-size="27.0" fill="#FFFFFF" transform="matrix(1.00, 0.00, -0.00, -1.00, 498.2, 103.2)"> </text><text xml:space="preserve" font-family="Helvetica-BoldOblique,Helvetica" font-style="italic" font-weight="bold" font-size="27.0" fill="#FFFFFF" transform="matrix(1.00, 0.00, -0.00, -1.00, 505.7, 103.2)">o</text><text xml:space="preserve" font-family="Helvetica-BoldOblique,Helvetica" font-style="italic" font-weight="bold" font-size="27.0" fill="#FFFFFF" transform="matrix(1.00, 0.00, -0.00, -1.00, 522.2, 103.2)">f</text><text xml:space="preserve" font-family="Helvetica-BoldOblique,Helvetica" font-style="italic" font-weight="bold" font-size="27.0" fill="#FFFFFF" transform="matrix(1.00, 0.00, -0.00, -1.00, 531.2, 103.2)"> </text><text xml:space="preserve" font-family="Helvetica-BoldOblique,Helvetica" font-style="italic" font-weight="bold" font-size="27.0" fill="#FFFFFF" transform="matrix(1.00, 0.00, -0.00, -1.00, -0.2, 71.2)">t</text><text xml:space="preserve" font-family="Helvetica-BoldOblique,Helvetica" font-style="italic" font-weight="bold" font-size="27.0" fill="#FFFFFF" transform="matrix(1.00, 0.00, -0.00, -1.00, 8.8, 71.2)">i</text><text xml:space="preserve" font-family="Helvetica-BoldOblique,Helvetica" font-style="italic" font-weight="bold" font-size="27.0" fill="#FFFFFF" transform="matrix(1.00, 0.00, -0.00, -1.00, 16.3, 71.2)">m</text><text xml:space="preserve" font-family="Helvetica-BoldOblique,Helvetica" font-style="italic" font-weight="bold" font-size="27.0" fill="#FFFFFF" transform="matrix(1.00, 0.00, -0.00, -1.00, 40.3, 71.2)">e</text><text xml:space="preserve" font-family="Helvetica-BoldOblique,Helvetica" font-style="italic" font-weight="bold" font-size="27.0" fill="#FFFFFF" transform="matrix(1.00, 0.00, -0.00, -1.00, 55.3, 71.2)">.</text><text xml:space="preserve" font-family="Helvetica-BoldOblique,Helvetica" font-style="italic" font-weight="bold" font-size="27.0" fill="#FFFFFF" transform="matrix(1.00, 0.00, -0.00, -1.00, 62.8, 71.2)"> </text><text xml:space="preserve" font-family="Helvetica-BoldOblique,Helvetica" font-style="italic" font-weight="bold" font-size="27.0" fill="#FFFFFF" transform="matrix(1.00, 0.00, -0.00, -1.00, 69.9, 71.2)">Y</text><text xml:space="preserve" font-family="Helvetica-BoldOblique,Helvetica" font-style="italic" font-weight="bold" font-size="27.0" fill="#FFFFFF" transform="matrix(1.00, 0.00, -0.00, -1.00, 85.9, 71.2)">o</text><text xml:space="preserve" font-family="Helvetica-BoldOblique,Helvetica" font-style="italic" font-weight="bold" font-size="27.0" fill="#FFFFFF" transform="matrix(1.00, 0.00, -0.00, -1.00, 102.4, 71.2)">u</text><text xml:space="preserve" font-family="Helvetica-BoldOblique,Helvetica" font-style="italic" font-weight="bold" font-size="27.0" fill="#FFFFFF" transform="matrix(1.00, 0.00, -0.00, -1.00, 118.9, 71.2)"> </text><text xml:space="preserve" font-family="Helvetica-BoldOblique,Helvetica" font-style="italic" font-weight="bold" font-size="27.0" fill="#FFFFFF" transform="matrix(1.00, 0.00, -0.00, -1.00, 126.3, 71.2)">w</text><text xml:space="preserve" font-family="Helvetica-BoldOblique,Helvetica" font-style="italic" font-weight="bold" font-size="27.0" fill="#FFFFFF" transform="matrix(1.00, 0.00, -0.00, -1.00, 147.3, 71.2)">i</text><text xml:space="preserve" font-family="Helvetica-BoldOblique,Helvetica" font-style="italic" font-weight="bold" font-size="27.0" fill="#FFFFFF" transform="matrix(1.00, 0.00, -0.00, -1.00, 154.8, 71.2)">l</text><text xml:space="preserve" font-family="Helvetica-BoldOblique,Helvetica" font-style="italic" font-weight="bold" font-size="27.0" fill="#FFFFFF" transform="matrix(1.00, 0.00, -0.00, -1.00, 162.3, 71.2)">l</text><text xml:space="preserve" font-family="Helvetica-BoldOblique,Helvetica" font-style="italic" font-weight="bold" font-size="27.0" fill="#FFFFFF" transform="matrix(1.00, 0.00, -0.00, -1.00, 169.8, 71.2)"> </text><text xml:space="preserve" font-family="Helvetica-BoldOblique,Helvetica" font-style="italic" font-weight="bold" font-size="27.0" fill="#FFFFFF" transform="matrix(1.00, 0.00, -0.00, -1.00, 177.3, 71.2)">n</text><text xml:space="preserve" font-family="Helvetica-BoldOblique,Helvetica" font-style="italic" font-weight="bold" font-size="27.0" fill="#FFFFFF" transform="matrix(1.00, 0.00, -0.00, -1.00, 193.8, 71.2)">o</text><text xml:space="preserve" font-family="Helvetica-BoldOblique,Helvetica" font-style="italic" font-weight="bold" font-size="27.0" fill="#FFFFFF" transform="matrix(1.00, 0.00, -0.00, -1.00, 210.3, 71.2)"> </text><text xml:space="preserve" font-family="Helvetica-BoldOblique,Helvetica" font-style="italic" font-weight="bold" font-size="27.0" fill="#FFFFFF" transform="matrix(1.00, 0.00, -0.00, -1.00, 217.8, 71.2)">l</text><text xml:space="preserve" font-family="Helvetica-BoldOblique,Helvetica" font-style="italic" font-weight="bold" font-size="27.0" fill="#FFFFFF" transform="matrix(1.00, 0.00, -0.00, -1.00, 225.3, 71.2)">o</text><text xml:space="preserve" font-family="Helvetica-BoldOblique,Helvetica" font-style="italic" font-weight="bold" font-size="27.0" fill="#FFFFFF" transform="matrix(1.00, 0.00, -0.00, -1.00, 241.8, 71.2)">n</text><text xml:space="preserve" font-family="Helvetica-BoldOblique,Helvetica" font-style="italic" font-weight="bold" font-size="27.0" fill="#FFFFFF" transform="matrix(1.00, 0.00, -0.00, -1.00, 258.3, 71.2)">g</text><text xml:space="preserve" font-family="Helvetica-BoldOblique,Helvetica" font-style="italic" font-weight="bold" font-size="27.0" fill="#FFFFFF" transform="matrix(1.00, 0.00, -0.00, -1.00, 274.8, 71.2)">e</text><text xml:space="preserve" font-family="Helvetica-BoldOblique,Helvetica" font-style="italic" font-weight="bold" font-size="27.0" fill="#FFFFFF" transform="matrix(1.00, 0.00, -0.00, -1.00, 289.8, 71.2)">r</text><text xml:space="preserve" font-family="Helvetica-BoldOblique,Helvetica" font-style="italic" font-weight="bold" font-size="27.0" fill="#FFFFFF" transform="matrix(1.00, 0.00, -0.00, -1.00, 300.3, 71.2)"> </text><text xml:space="preserve" font-family="Helvetica-BoldOblique,Helvetica" font-style="italic" font-weight="bold" font-size="27.0" fill="#FFFFFF" transform="matrix(1.00, 0.00, -0.00, -1.00, 307.8, 71.2)">t</text><text xml:space="preserve" font-family="Helvetica-BoldOblique,Helvetica" font-style="italic" font-weight="bold" font-size="27.0" fill="#FFFFFF" transform="matrix(1.00, 0.00, -0.00, -1.00, 316.8, 71.2)">h</text><text xml:space="preserve" font-family="Helvetica-BoldOblique,Helvetica" font-style="italic" font-weight="bold" font-size="27.0" fill="#FFFFFF" transform="matrix(1.00, 0.00, -0.00, -1.00, 333.3, 71.2)">i</text><text xml:space="preserve" font-family="Helvetica-BoldOblique,Helvetica" font-style="italic" font-weight="bold" font-size="27.0" fill="#FFFFFF" transform="matrix(1.00, 0.00, -0.00, -1.00, 340.8, 71.2)">n</text><text xml:space="preserve" font-family="Helvetica-BoldOblique,Helvetica" font-style="italic" font-weight="bold" font-size="27.0" fill="#FFFFFF" transform="matrix(1.00, 0.00, -0.00, -1.00, 357.2, 71.2)">k</text><text xml:space="preserve" font-family="Helvetica-BoldOblique,Helvetica" font-style="italic" font-weight="bold" font-size="27.0" fill="#FFFFFF" transform="matrix(1.00, 0.00, -0.00, -1.00, 372.3, 71.2)"> </text><text xml:space="preserve" font-family="Helvetica-BoldOblique,Helvetica" font-style="italic" font-weight="bold" font-size="27.0" fill="#FFFFFF" transform="matrix(1.00, 0.00, -0.00, -1.00, 379.8, 71.2)">t</text><text xml:space="preserve" font-family="Helvetica-BoldOblique,Helvetica" font-style="italic" font-weight="bold" font-size="27.0" fill="#FFFFFF" transform="matrix(1.00, 0.00, -0.00, -1.00, 388.8, 71.2)">i</text><text xml:space="preserve" font-family="Helvetica-BoldOblique,Helvetica" font-style="italic" font-weight="bold" font-size="27.0" fill="#FFFFFF" transform="matrix(1.00, 0.00, -0.00, -1.00, 396.3, 71.2)">m</text><text xml:space="preserve" font-family="Helvetica-BoldOblique,Helvetica" font-style="italic" font-weight="bold" font-size="27.0" fill="#FFFFFF" transform="matrix(1.00, 0.00, -0.00, -1.00, 420.3, 71.2)">e</text><text xml:space="preserve" font-family="Helvetica-BoldOblique,Helvetica" font-style="italic" font-weight="bold" font-size="27.0" fill="#FFFFFF" transform="matrix(1.00, 0.00, -0.00, -1.00, 435.3, 71.2)"> </text><text xml:space="preserve" font-family="Helvetica-BoldOblique,Helvetica" font-style="italic" font-weight="bold" font-size="27.0" fill="#FFFFFF" transform="matrix(1.00, 0.00, -0.00, -1.00, 442.8, 71.2)">t</text><text xml:space="preserve" font-family="Helvetica-BoldOblique,Helvetica" font-style="italic" font-weight="bold" font-size="27.0" fill="#FFFFFF" transform="matrix(1.00, 0.00, -0.00, -1.00, 451.8, 71.2)">r</text><text xml:space="preserve" font-family="Helvetica-BoldOblique,Helvetica" font-style="italic" font-weight="bold" font-size="27.0" fill="#FFFFFF" transform="matrix(1.00, 0.00, -0.00, -1.00, 462.3, 71.2)">a</text><text xml:space="preserve" font-family="Helvetica-BoldOblique,Helvetica" font-style="italic" font-weight="bold" font-size="27.0" fill="#FFFFFF" transform="matrix(1.00, 0.00, -0.00, -1.00, 477.3, 71.2)">c</text><text xml:space="preserve" font-family="Helvetica-BoldOblique,Helvetica" font-style="italic" font-weight="bold" font-size="27.0" fill="#FFFFFF" transform="matrix(1.00, 0.00, -0.00, -1.00, 492.3, 71.2)">k</text><text xml:space="preserve" font-family="Helvetica-BoldOblique,Helvetica" font-style="italic" font-weight="bold" font-size="27.0" fill="#FFFFFF" transform="matrix(1.00, 0.00, -0.00, -1.00, 507.4, 71.2)">i</text><text xml:space="preserve" font-family="Helvetica-BoldOblique,Helvetica" font-style="italic" font-weight="bold" font-size="27.0" fill="#FFFFFF" transform="matrix(1.00, 0.00, -0.00, -1.00, 514.8, 71.2)">n</text><text xml:space="preserve" font-family="Helvetica-BoldOblique,Helvetica" font-style="italic" font-weight="bold" font-size="27.0" fill="#FFFFFF" transform="matrix(1.00, 0.00, -0.00, -1.00, 531.3, 71.2)">g</text><text xml:space="preserve" font-family="Helvetica-BoldOblique,Helvetica" font-style="italic" font-weight="bold" font-size="27.0" fill="#FFFFFF" transform="matrix(1.00, 0.00, -0.00, -1.00, 547.8, 71.2)"> </text><text xml:space="preserve" font-family="Helvetica-BoldOblique,Helvetica" font-style="italic" font-weight="bold" font-size="27.0" fill="#FFFFFF" transform="matrix(1.00, 0.00, -0.00, -1.00, 10.5, 39.2)">i</text><text xml:space="preserve" font-family="Helvetica-BoldOblique,Helvetica" font-style="italic" font-weight="bold" font-size="27.0" fill="#FFFFFF" transform="matrix(1.00, 0.00, -0.00, -1.00, 18.0, 39.2)">s</text><text xml:space="preserve" font-family="Helvetica-BoldOblique,Helvetica" font-style="italic" font-weight="bold" font-size="27.0" fill="#FFFFFF" transform="matrix(1.00, 0.00, -0.00, -1.00, 33.0, 39.2)"> </text><text xml:space="preserve" font-family="Helvetica-BoldOblique,Helvetica" font-style="italic" font-weight="bold" font-size="27.0" fill="#FFFFFF" transform="matrix(1.00, 0.00, -0.00, -1.00, 40.5, 39.2)">h</text><text xml:space="preserve" font-family="Helvetica-BoldOblique,Helvetica" font-style="italic" font-weight="bold" font-size="27.0" fill="#FFFFFF" transform="matrix(1.00, 0.00, -0.00, -1.00, 57.0, 39.2)">a</text><text xml:space="preserve" font-family="Helvetica-BoldOblique,Helvetica" font-style="italic" font-weight="bold" font-size="27.0" fill="#FFFFFF" transform="matrix(1.00, 0.00, -0.00, -1.00, 72.0, 39.2)">r</text><text xml:space="preserve" font-family="Helvetica-BoldOblique,Helvetica" font-style="italic" font-weight="bold" font-size="27.0" fill="#FFFFFF" transform="matrix(1.00, 0.00, -0.00, -1.00, 82.5, 39.2)">d</text><text xml:space="preserve" font-family="Helvetica-BoldOblique,Helvetica" font-style="italic" font-weight="bold" font-size="27.0" fill="#FFFFFF" transform="matrix(1.00, 0.00, -0.00, -1.00, 99.0, 39.2)"> </text><text xml:space="preserve" font-family="Helvetica-BoldOblique,Helvetica" font-style="italic" font-weight="bold" font-size="27.0" fill="#FFFFFF" transform="matrix(1.00, 0.00, -0.00, -1.00, 106.5, 39.2)">o</text><text xml:space="preserve" font-family="Helvetica-BoldOblique,Helvetica" font-style="italic" font-weight="bold" font-size="27.0" fill="#FFFFFF" transform="matrix(1.00, 0.00, -0.00, -1.00, 123.0, 39.2)">r</text><text xml:space="preserve" font-family="Helvetica-BoldOblique,Helvetica" font-style="italic" font-weight="bold" font-size="27.0" fill="#FFFFFF" transform="matrix(1.00, 0.00, -0.00, -1.00, 133.5, 39.2)"> </text><text xml:space="preserve" font-family="Helvetica-BoldOblique,Helvetica" font-style="italic" font-weight="bold" font-size="27.0" fill="#FFFFFF" transform="matrix(1.00, 0.00, -0.00, -1.00, 141.0, 39.2)">t</text><text xml:space="preserve" font-family="Helvetica-BoldOblique,Helvetica" font-style="italic" font-weight="bold" font-size="27.0" fill="#FFFFFF" transform="matrix(1.00, 0.00, -0.00, -1.00, 150.0, 39.2)">a</text><text xml:space="preserve" font-family="Helvetica-BoldOblique,Helvetica" font-style="italic" font-weight="bold" font-size="27.0" fill="#FFFFFF" transform="matrix(1.00, 0.00, -0.00, -1.00, 165.0, 39.2)">k</text><text xml:space="preserve" font-family="Helvetica-BoldOblique,Helvetica" font-style="italic" font-weight="bold" font-size="27.0" fill="#FFFFFF" transform="matrix(1.00, 0.00, -0.00, -1.00, 180.1, 39.2)">e</text><text xml:space="preserve" font-family="Helvetica-BoldOblique,Helvetica" font-style="italic" font-weight="bold" font-size="27.0" fill="#FFFFFF" transform="matrix(1.00, 0.00, -0.00, -1.00, 195.1, 39.2)">s</text><text xml:space="preserve" font-family="Helvetica-BoldOblique,Helvetica" font-style="italic" font-weight="bold" font-size="27.0" fill="#FFFFFF" transform="matrix(1.00, 0.00, -0.00, -1.00, 210.1, 39.2)"> </text><text xml:space="preserve" font-family="Helvetica-BoldOblique,Helvetica" font-style="italic" font-weight="bold" font-size="27.0" fill="#FFFFFF" transform="matrix(1.00, 0.00, -0.00, -1.00, 217.6, 39.2)">t</text><text xml:space="preserve" font-family="Helvetica-BoldOblique,Helvetica" font-style="italic" font-weight="bold" font-size="27.0" fill="#FFFFFF" transform="matrix(1.00, 0.00, -0.00, -1.00, 226.6, 39.2)">i</text><text xml:space="preserve" font-family="Helvetica-BoldOblique,Helvetica" font-style="italic" font-weight="bold" font-size="27.0" fill="#FFFFFF" transform="matrix(1.00, 0.00, -0.00, -1.00, 234.1, 39.2)">m</text><text xml:space="preserve" font-family="Helvetica-BoldOblique,Helvetica" font-style="italic" font-weight="bold" font-size="27.0" fill="#FFFFFF" transform="matrix(1.00, 0.00, -0.00, -1.00, 258.1, 39.2)">e</text><text xml:space="preserve" font-family="Helvetica-BoldOblique,Helvetica" font-style="italic" font-weight="bold" font-size="27.0" fill="#FFFFFF" transform="matrix(1.00, 0.00, -0.00, -1.00, 273.1, 39.2)">.</text><text xml:space="preserve" font-family="Helvetica-BoldOblique,Helvetica" font-style="italic" font-weight="bold" font-size="27.0" fill="#FFFFFF" transform="matrix(1.00, 0.00, -0.00, -1.00, 280.6, 39.2)"> </text><text xml:space="preserve" font-family="Helvetica-BoldOblique,Helvetica" font-style="italic" font-weight="bold" font-size="27.0" fill="#FFFFFF" transform="matrix(1.00, 0.00, -0.00, -1.00, 288.1, 39.2)">O</text><text xml:space="preserve" font-family="Helvetica-BoldOblique,Helvetica" font-style="italic" font-weight="bold" font-size="27.0" fill="#FFFFFF" transform="matrix(1.00, 0.00, -0.00, -1.00, 309.1, 39.2)">u</text><text xml:space="preserve" font-family="Helvetica-BoldOblique,Helvetica" font-style="italic" font-weight="bold" font-size="27.0" fill="#FFFFFF" transform="matrix(1.00, 0.00, -0.00, -1.00, 325.6, 39.2)">r</text><text xml:space="preserve" font-family="Helvetica-BoldOblique,Helvetica" font-style="italic" font-weight="bold" font-size="27.0" fill="#FFFFFF" transform="matrix(1.00, 0.00, -0.00, -1.00, 336.1, 39.2)"> </text><text xml:space="preserve" font-family="Helvetica-BoldOblique,Helvetica" font-style="italic" font-weight="bold" font-size="27.0" fill="#FFFFFF" transform="matrix(1.00, 0.00, -0.00, -1.00, 343.6, 39.2)">s</text><text xml:space="preserve" font-family="Helvetica-BoldOblique,Helvetica" font-style="italic" font-weight="bold" font-size="27.0" fill="#FFFFFF" transform="matrix(1.00, 0.00, -0.00, -1.00, 358.6, 39.2)">y</text><text xml:space="preserve" font-family="Helvetica-BoldOblique,Helvetica" font-style="italic" font-weight="bold" font-size="27.0" fill="#FFFFFF" transform="matrix(1.00, 0.00, -0.00, -1.00, 373.7, 39.2)">s</text><text xml:space="preserve" font-family="Helvetica-BoldOblique,Helvetica" font-style="italic" font-weight="bold" font-size="27.0" fill="#FFFFFF" transform="matrix(1.00, 0.00, -0.00, -1.00, 388.7, 39.2)">t</text><text xml:space="preserve" font-family="Helvetica-BoldOblique,Helvetica" font-style="italic" font-weight="bold" font-size="27.0" fill="#FFFFFF" transform="matrix(1.00, 0.00, -0.00, -1.00, 397.7, 39.2)">e</text><text xml:space="preserve" font-family="Helvetica-BoldOblique,Helvetica" font-style="italic" font-weight="bold" font-size="27.0" fill="#FFFFFF" transform="matrix(1.00, 0.00, -0.00, -1.00, 412.7, 39.2)">m</text><text xml:space="preserve" font-family="Helvetica-BoldOblique,Helvetica" font-style="italic" font-weight="bold" font-size="27.0" fill="#FFFFFF" transform="matrix(1.00, 0.00, -0.00, -1.00, 436.7, 39.2)"> </text><text xml:space="preserve" font-family="Helvetica-BoldOblique,Helvetica" font-style="italic" font-weight="bold" font-size="27.0" fill="#FFFFFF" transform="matrix(1.00, 0.00, -0.00, -1.00, 444.2, 39.2)">r</text><text xml:space="preserve" font-family="Helvetica-BoldOblique,Helvetica" font-style="italic" font-weight="bold" font-size="27.0" fill="#FFFFFF" transform="matrix(1.00, 0.00, -0.00, -1.00, 454.7, 39.2)">e</text><text xml:space="preserve" font-family="Helvetica-BoldOblique,Helvetica" font-style="italic" font-weight="bold" font-size="27.0" fill="#FFFFFF" transform="matrix(1.00, 0.00, -0.00, -1.00, 469.7, 39.2)">p</text><text xml:space="preserve" font-family="Helvetica-BoldOblique,Helvetica" font-style="italic" font-weight="bold" font-size="27.0" fill="#FFFFFF" transform="matrix(1.00, 0.00, -0.00, -1.00, 486.2, 39.2)">o</text><text xml:space="preserve" font-family="Helvetica-BoldOblique,Helvetica" font-style="italic" font-weight="bold" font-size="27.0" fill="#FFFFFF" transform="matrix(1.00, 0.00, -0.00, -1.00, 502.7, 39.2)">r</text><text xml:space="preserve" font-family="Helvetica-BoldOblique,Helvetica" font-style="italic" font-weight="bold" font-size="27.0" fill="#FFFFFF" transform="matrix(1.00, 0.00, -0.00, -1.00, 513.2, 39.2)">t</text><text xml:space="preserve" font-family="Helvetica-BoldOblique,Helvetica" font-style="italic" font-weight="bold" font-size="27.0" fill="#FFFFFF" transform="matrix(1.00, 0.00, -0.00, -1.00, 522.2, 39.2)">s</text><text xml:space="preserve" font-family="Helvetica-BoldOblique,Helvetica" font-style="italic" font-weight="bold" font-size="27.0" fill="#FFFFFF" transform="matrix(1.00, 0.00, -0.00, -1.00, 537.2, 39.2)"> </text><text xml:space="preserve" font-family="Helvetica-BoldOblique,Helvetica" font-style="italic" font-weight="bold" font-size="27.0" fill="#FFFFFF" transform="matrix(1.00, 0.00, -0.00, -1.00, 113.9, 7.2)">y</text><text xml:space="preserve" font-family="Helvetica-BoldOblique,Helvetica" font-style="italic" font-weight="bold" font-size="27.0" fill="#FFFFFF" transform="matrix(1.00, 0.00, -0.00, -1.00, 128.9, 7.2)">o</text><text xml:space="preserve" font-family="Helvetica-BoldOblique,Helvetica" font-style="italic" font-weight="bold" font-size="27.0" fill="#FFFFFF" transform="matrix(1.00, 0.00, -0.00, -1.00, 145.4, 7.2)">u</text><text xml:space="preserve" font-family="Helvetica-BoldOblique,Helvetica" font-style="italic" font-weight="bold" font-size="27.0" fill="#FFFFFF" transform="matrix(1.00, 0.00, -0.00, -1.00, 161.9, 7.2)">r</text><text xml:space="preserve" font-family="Helvetica-BoldOblique,Helvetica" font-style="italic" font-weight="bold" font-size="27.0" fill="#FFFFFF" transform="matrix(1.00, 0.00, -0.00, -1.00, 172.4, 7.2)"> </text><text xml:space="preserve" font-family="Helvetica-BoldOblique,Helvetica" font-style="italic" font-weight="bold" font-size="27.0" fill="#FFFFFF" transform="matrix(1.00, 0.00, -0.00, -1.00, 179.9, 7.2)">t</text><text xml:space="preserve" font-family="Helvetica-BoldOblique,Helvetica" font-style="italic" font-weight="bold" font-size="27.0" fill="#FFFFFF" transform="matrix(1.00, 0.00, -0.00, -1.00, 188.9, 7.2)">i</text><text xml:space="preserve" font-family="Helvetica-BoldOblique,Helvetica" font-style="italic" font-weight="bold" font-size="27.0" fill="#FFFFFF" transform="matrix(1.00, 0.00, -0.00, -1.00, 196.4, 7.2)">m</text><text xml:space="preserve" font-family="Helvetica-BoldOblique,Helvetica" font-style="italic" font-weight="bold" font-size="27.0" fill="#FFFFFF" transform="matrix(1.00, 0.00, -0.00, -1.00, 220.4, 7.2)">e</text><text xml:space="preserve" font-family="Helvetica-BoldOblique,Helvetica" font-style="italic" font-weight="bold" font-size="27.0" fill="#FFFFFF" transform="matrix(1.00, 0.00, -0.00, -1.00, 235.4, 7.2)"> </text><text xml:space="preserve" font-family="Helvetica-BoldOblique,Helvetica" font-style="italic" font-weight="bold" font-size="27.0" fill="#FFFFFF" transform="matrix(1.00, 0.00, -0.00, -1.00, 242.9, 7.2)">a</text><text xml:space="preserve" font-family="Helvetica-BoldOblique,Helvetica" font-style="italic" font-weight="bold" font-size="27.0" fill="#FFFFFF" transform="matrix(1.00, 0.00, -0.00, -1.00, 258.0, 7.2)">u</text><text xml:space="preserve" font-family="Helvetica-BoldOblique,Helvetica" font-style="italic" font-weight="bold" font-size="27.0" fill="#FFFFFF" transform="matrix(1.00, 0.00, -0.00, -1.00, 274.4, 7.2)">t</text><text xml:space="preserve" font-family="Helvetica-BoldOblique,Helvetica" font-style="italic" font-weight="bold" font-size="27.0" fill="#FFFFFF" transform="matrix(1.00, 0.00, -0.00, -1.00, 283.4, 7.2)">o</text><text xml:space="preserve" font-family="Helvetica-BoldOblique,Helvetica" font-style="italic" font-weight="bold" font-size="27.0" fill="#FFFFFF" transform="matrix(1.00, 0.00, -0.00, -1.00, 299.9, 7.2)">m</text><text xml:space="preserve" font-family="Helvetica-BoldOblique,Helvetica" font-style="italic" font-weight="bold" font-size="27.0" fill="#FFFFFF" transform="matrix(1.00, 0.00, -0.00, -1.00, 323.9, 7.2)">a</text><text xml:space="preserve" font-family="Helvetica-BoldOblique,Helvetica" font-style="italic" font-weight="bold" font-size="27.0" fill="#FFFFFF" transform="matrix(1.00, 0.00, -0.00, -1.00, 339.0, 7.2)">t</text><text xml:space="preserve" font-family="Helvetica-BoldOblique,Helvetica" font-style="italic" font-weight="bold" font-size="27.0" fill="#FFFFFF" transform="matrix(1.00, 0.00, -0.00, -1.00, 347.9, 7.2)">i</text><text xml:space="preserve" font-family="Helvetica-BoldOblique,Helvetica" font-style="italic" font-weight="bold" font-size="27.0" fill="#FFFFFF" transform="matrix(1.00, 0.00, -0.00, -1.00, 355.4, 7.2)">c</text><text xml:space="preserve" font-family="Helvetica-BoldOblique,Helvetica" font-style="italic" font-weight="bold" font-size="27.0" fill="#FFFFFF" transform="matrix(1.00, 0.00, -0.00, -1.00, 370.5, 7.2)">a</text><text xml:space="preserve" font-family="Helvetica-BoldOblique,Helvetica" font-style="italic" font-weight="bold" font-size="27.0" fill="#FFFFFF" transform="matrix(1.00, 0.00, -0.00, -1.00, 385.5, 7.2)">l</text><text xml:space="preserve" font-family="Helvetica-BoldOblique,Helvetica" font-style="italic" font-weight="bold" font-size="27.0" fill="#FFFFFF" transform="matrix(1.00, 0.00, -0.00, -1.00, 393.0, 7.2)">l</text><text xml:space="preserve" font-family="Helvetica-BoldOblique,Helvetica" font-style="italic" font-weight="bold" font-size="27.0" fill="#FFFFFF" transform="matrix(1.00, 0.00, -0.00, -1.00, 400.5, 7.2)">y</text><text xml:space="preserve" font-family="Helvetica-BoldOblique,Helvetica" font-style="italic" font-weight="bold" font-size="27.0" fill="#FFFFFF" transform="matrix(1.00, 0.00, -0.00, -1.00, 413.5, 7.2)">.</text><text xml:space="preserve" font-family="Helvetica-BoldOblique,Helvetica" font-style="italic" font-weight="bold" font-size="27.0" fill="#FFFFFF" transform="matrix(1.00, 0.00, -0.00, -1.00, 421.0, 7.2)">"</text></g></svg>