<?xml version="1.0" encoding="UTF-8" standalone="no"?><svg xmlns="http://www.w3.org/2000/svg" xmlns:xlink="http://www.w3.org/1999/xlink" clip-rule="evenodd" stroke-miterlimit="10" viewBox="0 0 110 109"><desc>SVG generated by Keynote</desc><defs></defs><g transform="matrix(1.00, 0.00, -0.00, -1.00, 0.0, 109.0)"><path d="M 92.6 91.6 C 113.1 71.1 113.1 37.9 92.6 17.4 C 72.1 -3.1 38.9 -3.1 18.4 17.4 C -2.1 37.9 -2.1 71.1 18.4 91.6 C 38.9 112.1 72.1 112.1 92.6 91.6 " fill="#424F5C"></path><path d="M 89.6 15.4 C 110.1 35.9 110.1 69.1 89.6 89.6 C 69.1 110.1 35.9 110.1 15.4 89.6 C -5.1 69.1 -5.1 35.9 15.4 15.4 C 35.9 -5.1 69.1 -5.1 89.6 15.4 " fill="none" stroke="#000000" stroke-opacity="0.00" stroke-width="2.00" transform="matrix(1.00, 0.00, 0.00, -1.00, 3.0, 107.0)"></path></g></svg>