<?xml version="1.0" encoding="UTF-8" standalone="no"?><svg xmlns="http://www.w3.org/2000/svg" xmlns:xlink="http://www.w3.org/1999/xlink" clip-rule="evenodd" stroke-miterlimit="10" viewBox="0 0 304 143"><desc>SVG generated by Keynote</desc><defs></defs><g transform="matrix(1.00, 0.00, -0.00, -1.00, 0.0, 143.0)"><text xml:space="preserve" font-family="Helvetica-Bold,Helvetica" font-weight="bold" font-size="24.0" fill="#222222" transform="matrix(1.00, 0.00, -0.00, -1.00, 51.4, 123.0)">P</text><text xml:space="preserve" font-family="Helvetica-Bold,Helvetica" font-weight="bold" font-size="24.0" fill="#222222" transform="matrix(1.00, 0.00, -0.00, -1.00, 67.4, 123.0)">I</text><text xml:space="preserve" font-family="Helvetica-Bold,Helvetica" font-weight="bold" font-size="24.0" fill="#222222" transform="matrix(1.00, 0.00, -0.00, -1.00, 74.1, 123.0)">E</text><text xml:space="preserve" font-family="Helvetica-Bold,Helvetica" font-weight="bold" font-size="24.0" fill="#222222" transform="matrix(1.00, 0.00, -0.00, -1.00, 90.1, 123.0)"> </text><text xml:space="preserve" font-family="Helvetica-Bold,Helvetica" font-weight="bold" font-size="24.0" fill="#222222" transform="matrix(1.00, 0.00, -0.00, -1.00, 96.8, 123.0)">C</text><text xml:space="preserve" font-family="Helvetica-Bold,Helvetica" font-weight="bold" font-size="24.0" fill="#222222" transform="matrix(1.00, 0.00, -0.00, -1.00, 114.1, 123.0)">H</text><text xml:space="preserve" font-family="Helvetica-Bold,Helvetica" font-weight="bold" font-size="24.0" fill="#222222" transform="matrix(1.00, 0.00, -0.00, -1.00, 131.5, 123.0)">A</text><text xml:space="preserve" font-family="Helvetica-Bold,Helvetica" font-weight="bold" font-size="24.0" fill="#222222" transform="matrix(1.00, 0.00, -0.00, -1.00, 148.8, 123.0)">R</text><text xml:space="preserve" font-family="Helvetica-Bold,Helvetica" font-weight="bold" font-size="24.0" fill="#222222" transform="matrix(1.00, 0.00, -0.00, -1.00, 166.1, 123.0)">T</text><text xml:space="preserve" font-family="Helvetica-Bold,Helvetica" font-weight="bold" font-size="24.0" fill="#222222" transform="matrix(1.00, 0.00, -0.00, -1.00, 180.8, 123.0)"> </text><text xml:space="preserve" font-family="Helvetica-Bold,Helvetica" font-weight="bold" font-size="24.0" fill="#222222" transform="matrix(1.00, 0.00, -0.00, -1.00, 187.4, 123.0)">D</text><text xml:space="preserve" font-family="Helvetica-Bold,Helvetica" font-weight="bold" font-size="24.0" fill="#222222" transform="matrix(1.00, 0.00, -0.00, -1.00, 204.8, 123.0)">A</text><text xml:space="preserve" font-family="Helvetica-Bold,Helvetica" font-weight="bold" font-size="24.0" fill="#222222" transform="matrix(1.00, 0.00, -0.00, -1.00, 220.3, 123.0)">T</text><text xml:space="preserve" font-family="Helvetica-Bold,Helvetica" font-weight="bold" font-size="24.0" fill="#222222" transform="matrix(1.00, 0.00, -0.00, -1.00, 233.2, 123.0)">A</text><text xml:space="preserve" font-family="Helvetica,Helvetica" font-size="24.0" fill="#222222" transform="matrix(1.00, 0.00, -0.00, -1.00, 1.6, 94.0)">E</text><text xml:space="preserve" font-family="Helvetica,Helvetica" font-size="24.0" fill="#222222" transform="matrix(1.00, 0.00, -0.00, -1.00, 17.6, 94.0)">t</text><text xml:space="preserve" font-family="Helvetica,Helvetica" font-size="24.0" fill="#222222" transform="matrix(1.00, 0.00, -0.00, -1.00, 24.3, 94.0)">i</text><text xml:space="preserve" font-family="Helvetica,Helvetica" font-size="24.0" fill="#222222" transform="matrix(1.00, 0.00, -0.00, -1.00, 29.6, 94.0)">a</text><text xml:space="preserve" font-family="Helvetica,Helvetica" font-size="24.0" fill="#222222" transform="matrix(1.00, 0.00, -0.00, -1.00, 43.0, 94.0)">m</text><text xml:space="preserve" font-family="Helvetica,Helvetica" font-size="24.0" fill="#222222" transform="matrix(1.00, 0.00, -0.00, -1.00, 63.0, 94.0)"> </text><text xml:space="preserve" font-family="Helvetica,Helvetica" font-size="24.0" fill="#222222" transform="matrix(1.00, 0.00, -0.00, -1.00, 69.6, 94.0)">p</text><text xml:space="preserve" font-family="Helvetica,Helvetica" font-size="24.0" fill="#222222" transform="matrix(1.00, 0.00, -0.00, -1.00, 83.0, 94.0)">o</text><text xml:space="preserve" font-family="Helvetica,Helvetica" font-size="24.0" fill="#222222" transform="matrix(1.00, 0.00, -0.00, -1.00, 96.3, 94.0)">r</text><text xml:space="preserve" font-family="Helvetica,Helvetica" font-size="24.0" fill="#222222" transform="matrix(1.00, 0.00, -0.00, -1.00, 104.3, 94.0)">t</text><text xml:space="preserve" font-family="Helvetica,Helvetica" font-size="24.0" fill="#222222" transform="matrix(1.00, 0.00, -0.00, -1.00, 111.0, 94.0)">a</text><text xml:space="preserve" font-family="Helvetica,Helvetica" font-size="24.0" fill="#222222" transform="matrix(1.00, 0.00, -0.00, -1.00, 124.3, 94.0)"> </text><text xml:space="preserve" font-family="Helvetica,Helvetica" font-size="24.0" fill="#222222" transform="matrix(1.00, 0.00, -0.00, -1.00, 131.0, 94.0)">s</text><text xml:space="preserve" font-family="Helvetica,Helvetica" font-size="24.0" fill="#222222" transform="matrix(1.00, 0.00, -0.00, -1.00, 143.0, 94.0)">e</text><text xml:space="preserve" font-family="Helvetica,Helvetica" font-size="24.0" fill="#222222" transform="matrix(1.00, 0.00, -0.00, -1.00, 156.3, 94.0)">m</text><text xml:space="preserve" font-family="Helvetica,Helvetica" font-size="24.0" fill="#222222" transform="matrix(1.00, 0.00, -0.00, -1.00, 176.3, 94.0)"> </text><text xml:space="preserve" font-family="Helvetica,Helvetica" font-size="24.0" fill="#222222" transform="matrix(1.00, 0.00, -0.00, -1.00, 183.0, 94.0)">m</text><text xml:space="preserve" font-family="Helvetica,Helvetica" font-size="24.0" fill="#222222" transform="matrix(1.00, 0.00, -0.00, -1.00, 203.0, 94.0)">a</text><text xml:space="preserve" font-family="Helvetica,Helvetica" font-size="24.0" fill="#222222" transform="matrix(1.00, 0.00, -0.00, -1.00, 216.3, 94.0)">l</text><text xml:space="preserve" font-family="Helvetica,Helvetica" font-size="24.0" fill="#222222" transform="matrix(1.00, 0.00, -0.00, -1.00, 221.7, 94.0)">e</text><text xml:space="preserve" font-family="Helvetica,Helvetica" font-size="24.0" fill="#222222" transform="matrix(1.00, 0.00, -0.00, -1.00, 235.0, 94.0)">s</text><text xml:space="preserve" font-family="Helvetica,Helvetica" font-size="24.0" fill="#222222" transform="matrix(1.00, 0.00, -0.00, -1.00, 247.0, 94.0)">u</text><text xml:space="preserve" font-family="Helvetica,Helvetica" font-size="24.0" fill="#222222" transform="matrix(1.00, 0.00, -0.00, -1.00, 260.4, 94.0)">a</text><text xml:space="preserve" font-family="Helvetica,Helvetica" font-size="24.0" fill="#222222" transform="matrix(1.00, 0.00, -0.00, -1.00, 273.7, 94.0)">d</text><text xml:space="preserve" font-family="Helvetica,Helvetica" font-size="24.0" fill="#222222" transform="matrix(1.00, 0.00, -0.00, -1.00, 287.1, 94.0)">a</text><text xml:space="preserve" font-family="Helvetica,Helvetica" font-size="24.0" fill="#222222" transform="matrix(1.00, 0.00, -0.00, -1.00, 300.4, 94.0)"> </text><text xml:space="preserve" font-family="Helvetica,Helvetica" font-size="24.0" fill="#222222" transform="matrix(1.00, 0.00, -0.00, -1.00, -0.4, 65.0)">m</text><text xml:space="preserve" font-family="Helvetica,Helvetica" font-size="24.0" fill="#222222" transform="matrix(1.00, 0.00, -0.00, -1.00, 19.6, 65.0)">a</text><text xml:space="preserve" font-family="Helvetica,Helvetica" font-size="24.0" fill="#222222" transform="matrix(1.00, 0.00, -0.00, -1.00, 33.0, 65.0)">g</text><text xml:space="preserve" font-family="Helvetica,Helvetica" font-size="24.0" fill="#222222" transform="matrix(1.00, 0.00, -0.00, -1.00, 46.3, 65.0)">n</text><text xml:space="preserve" font-family="Helvetica,Helvetica" font-size="24.0" fill="#222222" transform="matrix(1.00, 0.00, -0.00, -1.00, 59.7, 65.0)">a</text><text xml:space="preserve" font-family="Helvetica,Helvetica" font-size="24.0" fill="#222222" transform="matrix(1.00, 0.00, -0.00, -1.00, 73.0, 65.0)"> </text><text xml:space="preserve" font-family="Helvetica,Helvetica" font-size="24.0" fill="#222222" transform="matrix(1.00, 0.00, -0.00, -1.00, 79.7, 65.0)">m</text><text xml:space="preserve" font-family="Helvetica,Helvetica" font-size="24.0" fill="#222222" transform="matrix(1.00, 0.00, -0.00, -1.00, 99.7, 65.0)">o</text><text xml:space="preserve" font-family="Helvetica,Helvetica" font-size="24.0" fill="#222222" transform="matrix(1.00, 0.00, -0.00, -1.00, 113.0, 65.0)">l</text><text xml:space="preserve" font-family="Helvetica,Helvetica" font-size="24.0" fill="#222222" transform="matrix(1.00, 0.00, -0.00, -1.00, 118.4, 65.0)">l</text><text xml:space="preserve" font-family="Helvetica,Helvetica" font-size="24.0" fill="#222222" transform="matrix(1.00, 0.00, -0.00, -1.00, 123.7, 65.0)">i</text><text xml:space="preserve" font-family="Helvetica,Helvetica" font-size="24.0" fill="#222222" transform="matrix(1.00, 0.00, -0.00, -1.00, 129.0, 65.0)">s</text><text xml:space="preserve" font-family="Helvetica,Helvetica" font-size="24.0" fill="#222222" transform="matrix(1.00, 0.00, -0.00, -1.00, 141.0, 65.0)"> </text><text xml:space="preserve" font-family="Helvetica,Helvetica" font-size="24.0" fill="#222222" transform="matrix(1.00, 0.00, -0.00, -1.00, 147.7, 65.0)">e</text><text xml:space="preserve" font-family="Helvetica,Helvetica" font-size="24.0" fill="#222222" transform="matrix(1.00, 0.00, -0.00, -1.00, 161.0, 65.0)">u</text><text xml:space="preserve" font-family="Helvetica,Helvetica" font-size="24.0" fill="#222222" transform="matrix(1.00, 0.00, -0.00, -1.00, 174.4, 65.0)">i</text><text xml:space="preserve" font-family="Helvetica,Helvetica" font-size="24.0" fill="#222222" transform="matrix(1.00, 0.00, -0.00, -1.00, 179.7, 65.0)">s</text><text xml:space="preserve" font-family="Helvetica,Helvetica" font-size="24.0" fill="#222222" transform="matrix(1.00, 0.00, -0.00, -1.00, 191.7, 65.0)">m</text><text xml:space="preserve" font-family="Helvetica,Helvetica" font-size="24.0" fill="#222222" transform="matrix(1.00, 0.00, -0.00, -1.00, 211.7, 65.0)">o</text><text xml:space="preserve" font-family="Helvetica,Helvetica" font-size="24.0" fill="#222222" transform="matrix(1.00, 0.00, -0.00, -1.00, 225.1, 65.0)">d</text><text xml:space="preserve" font-family="Helvetica,Helvetica" font-size="24.0" fill="#222222" transform="matrix(1.00, 0.00, -0.00, -1.00, 238.4, 65.0)">.</text><text xml:space="preserve" font-family="Helvetica,Helvetica" font-size="24.0" fill="#222222" transform="matrix(1.00, 0.00, -0.00, -1.00, 245.1, 65.0)"> </text><text xml:space="preserve" font-family="Helvetica,Helvetica" font-size="24.0" fill="#222222" transform="matrix(1.00, 0.00, -0.00, -1.00, 251.8, 65.0)">C</text><text xml:space="preserve" font-family="Helvetica,Helvetica" font-size="24.0" fill="#222222" transform="matrix(1.00, 0.00, -0.00, -1.00, 269.1, 65.0)">u</text><text xml:space="preserve" font-family="Helvetica,Helvetica" font-size="24.0" fill="#222222" transform="matrix(1.00, 0.00, -0.00, -1.00, 282.4, 65.0)">m</text><text xml:space="preserve" font-family="Helvetica,Helvetica" font-size="24.0" fill="#222222" transform="matrix(1.00, 0.00, -0.00, -1.00, 302.4, 65.0)"> </text><text xml:space="preserve" font-family="Helvetica,Helvetica" font-size="24.0" fill="#222222" transform="matrix(1.00, 0.00, -0.00, -1.00, 5.6, 36.0)">s</text><text xml:space="preserve" font-family="Helvetica,Helvetica" font-size="24.0" fill="#222222" transform="matrix(1.00, 0.00, -0.00, -1.00, 17.6, 36.0)">o</text><text xml:space="preserve" font-family="Helvetica,Helvetica" font-size="24.0" fill="#222222" transform="matrix(1.00, 0.00, -0.00, -1.00, 30.9, 36.0)">c</text><text xml:space="preserve" font-family="Helvetica,Helvetica" font-size="24.0" fill="#222222" transform="matrix(1.00, 0.00, -0.00, -1.00, 42.9, 36.0)">i</text><text xml:space="preserve" font-family="Helvetica,Helvetica" font-size="24.0" fill="#222222" transform="matrix(1.00, 0.00, -0.00, -1.00, 48.3, 36.0)">i</text><text xml:space="preserve" font-family="Helvetica,Helvetica" font-size="24.0" fill="#222222" transform="matrix(1.00, 0.00, -0.00, -1.00, 53.6, 36.0)">s</text><text xml:space="preserve" font-family="Helvetica,Helvetica" font-size="24.0" fill="#222222" transform="matrix(1.00, 0.00, -0.00, -1.00, 65.6, 36.0)"> </text><text xml:space="preserve" font-family="Helvetica,Helvetica" font-size="24.0" fill="#222222" transform="matrix(1.00, 0.00, -0.00, -1.00, 72.3, 36.0)">n</text><text xml:space="preserve" font-family="Helvetica,Helvetica" font-size="24.0" fill="#222222" transform="matrix(1.00, 0.00, -0.00, -1.00, 85.6, 36.0)">a</text><text xml:space="preserve" font-family="Helvetica,Helvetica" font-size="24.0" fill="#222222" transform="matrix(1.00, 0.00, -0.00, -1.00, 99.0, 36.0)">t</text><text xml:space="preserve" font-family="Helvetica,Helvetica" font-size="24.0" fill="#222222" transform="matrix(1.00, 0.00, -0.00, -1.00, 105.6, 36.0)">o</text><text xml:space="preserve" font-family="Helvetica,Helvetica" font-size="24.0" fill="#222222" transform="matrix(1.00, 0.00, -0.00, -1.00, 119.0, 36.0)">q</text><text xml:space="preserve" font-family="Helvetica,Helvetica" font-size="24.0" fill="#222222" transform="matrix(1.00, 0.00, -0.00, -1.00, 132.3, 36.0)">u</text><text xml:space="preserve" font-family="Helvetica,Helvetica" font-size="24.0" fill="#222222" transform="matrix(1.00, 0.00, -0.00, -1.00, 145.7, 36.0)">e</text><text xml:space="preserve" font-family="Helvetica,Helvetica" font-size="24.0" fill="#222222" transform="matrix(1.00, 0.00, -0.00, -1.00, 159.0, 36.0)"> </text><text xml:space="preserve" font-family="Helvetica,Helvetica" font-size="24.0" fill="#222222" transform="matrix(1.00, 0.00, -0.00, -1.00, 165.7, 36.0)">p</text><text xml:space="preserve" font-family="Helvetica,Helvetica" font-size="24.0" fill="#222222" transform="matrix(1.00, 0.00, -0.00, -1.00, 179.0, 36.0)">e</text><text xml:space="preserve" font-family="Helvetica,Helvetica" font-size="24.0" fill="#222222" transform="matrix(1.00, 0.00, -0.00, -1.00, 192.4, 36.0)">n</text><text xml:space="preserve" font-family="Helvetica,Helvetica" font-size="24.0" fill="#222222" transform="matrix(1.00, 0.00, -0.00, -1.00, 205.8, 36.0)">a</text><text xml:space="preserve" font-family="Helvetica,Helvetica" font-size="24.0" fill="#222222" transform="matrix(1.00, 0.00, -0.00, -1.00, 219.1, 36.0)">t</text><text xml:space="preserve" font-family="Helvetica,Helvetica" font-size="24.0" fill="#222222" transform="matrix(1.00, 0.00, -0.00, -1.00, 225.8, 36.0)">i</text><text xml:space="preserve" font-family="Helvetica,Helvetica" font-size="24.0" fill="#222222" transform="matrix(1.00, 0.00, -0.00, -1.00, 231.1, 36.0)">b</text><text xml:space="preserve" font-family="Helvetica,Helvetica" font-size="24.0" fill="#222222" transform="matrix(1.00, 0.00, -0.00, -1.00, 244.5, 36.0)">u</text><text xml:space="preserve" font-family="Helvetica,Helvetica" font-size="24.0" fill="#222222" transform="matrix(1.00, 0.00, -0.00, -1.00, 257.8, 36.0)">s</text><text xml:space="preserve" font-family="Helvetica,Helvetica" font-size="24.0" fill="#222222" transform="matrix(1.00, 0.00, -0.00, -1.00, 269.8, 36.0)"> </text><text xml:space="preserve" font-family="Helvetica,Helvetica" font-size="24.0" fill="#222222" transform="matrix(1.00, 0.00, -0.00, -1.00, 276.5, 36.0)">e</text><text xml:space="preserve" font-family="Helvetica,Helvetica" font-size="24.0" fill="#222222" transform="matrix(1.00, 0.00, -0.00, -1.00, 289.8, 36.0)">t</text><text xml:space="preserve" font-family="Helvetica,Helvetica" font-size="24.0" fill="#222222" transform="matrix(1.00, 0.00, -0.00, -1.00, 296.5, 36.0)"> </text><text xml:space="preserve" font-family="Helvetica,Helvetica" font-size="24.0" fill="#222222" transform="matrix(1.00, 0.00, -0.00, -1.00, 93.6, 7.0)">m</text><text xml:space="preserve" font-family="Helvetica,Helvetica" font-size="24.0" fill="#222222" transform="matrix(1.00, 0.00, -0.00, -1.00, 113.6, 7.0)">a</text><text xml:space="preserve" font-family="Helvetica,Helvetica" font-size="24.0" fill="#222222" transform="matrix(1.00, 0.00, -0.00, -1.00, 127.0, 7.0)">g</text><text xml:space="preserve" font-family="Helvetica,Helvetica" font-size="24.0" fill="#222222" transform="matrix(1.00, 0.00, -0.00, -1.00, 140.3, 7.0)">n</text><text xml:space="preserve" font-family="Helvetica,Helvetica" font-size="24.0" fill="#222222" transform="matrix(1.00, 0.00, -0.00, -1.00, 153.7, 7.0)">i</text><text xml:space="preserve" font-family="Helvetica,Helvetica" font-size="24.0" fill="#222222" transform="matrix(1.00, 0.00, -0.00, -1.00, 159.0, 7.0)">s</text><text xml:space="preserve" font-family="Helvetica,Helvetica" font-size="24.0" fill="#222222" transform="matrix(1.00, 0.00, -0.00, -1.00, 171.0, 7.0)"> </text><text xml:space="preserve" font-family="Helvetica,Helvetica" font-size="24.0" fill="#222222" transform="matrix(1.00, 0.00, -0.00, -1.00, 177.7, 7.0)">d</text><text xml:space="preserve" font-family="Helvetica,Helvetica" font-size="24.0" fill="#222222" transform="matrix(1.00, 0.00, -0.00, -1.00, 191.0, 7.0)">i</text><text xml:space="preserve" font-family="Helvetica,Helvetica" font-size="24.0" fill="#222222" transform="matrix(1.00, 0.00, -0.00, -1.00, 196.4, 7.0)">s</text></g></svg>