<?xml version="1.0" encoding="UTF-8" standalone="no"?><svg xmlns="http://www.w3.org/2000/svg" xmlns:xlink="http://www.w3.org/1999/xlink" clip-rule="evenodd" stroke-miterlimit="10" viewBox="0 0 738 160"><desc>SVG generated by Keynote</desc><defs></defs><g transform="matrix(1.00, 0.00, -0.00, -1.00, 0.0, 160.0)"><text xml:space="preserve" font-family="Helvetica-Bold,Helvetica" font-weight="bold" font-size="96.0" fill="#2DCBB1" transform="matrix(1.00, 0.00, -0.00, -1.00, 168.5, 87.1)">T</text><text xml:space="preserve" font-family="Helvetica-Bold,Helvetica" font-weight="bold" font-size="96.0" fill="#2DCBB1" transform="matrix(1.00, 0.00, -0.00, -1.00, 227.1, 87.1)">H</text><text xml:space="preserve" font-family="Helvetica-Bold,Helvetica" font-weight="bold" font-size="96.0" fill="#2DCBB1" transform="matrix(1.00, 0.00, -0.00, -1.00, 296.4, 87.1)">A</text><text xml:space="preserve" font-family="Helvetica-Bold,Helvetica" font-weight="bold" font-size="96.0" fill="#2DCBB1" transform="matrix(1.00, 0.00, -0.00, -1.00, 365.7, 87.1)">N</text><text xml:space="preserve" font-family="Helvetica-Bold,Helvetica" font-weight="bold" font-size="96.0" fill="#2DCBB1" transform="matrix(1.00, 0.00, -0.00, -1.00, 435.0, 87.1)">K</text><text xml:space="preserve" font-family="Helvetica-Bold,Helvetica" font-weight="bold" font-size="96.0" fill="#2DCBB1" transform="matrix(1.00, 0.00, -0.00, -1.00, 504.3, 87.1)">S</text><text xml:space="preserve" font-family="Helvetica,Helvetica" font-size="64.0" fill="#FFFFFF" transform="matrix(1.00, 0.00, -0.00, -1.00, -3.4, 2.7)">F</text><text xml:space="preserve" font-family="Helvetica,Helvetica" font-size="64.0" fill="#FFFFFF" transform="matrix(1.00, 0.00, -0.00, -1.00, 35.7, 2.7)">o</text><text xml:space="preserve" font-family="Helvetica,Helvetica" font-size="64.0" fill="#FFFFFF" transform="matrix(1.00, 0.00, -0.00, -1.00, 71.3, 2.7)">r</text><text xml:space="preserve" font-family="Helvetica,Helvetica" font-size="64.0" fill="#FFFFFF" transform="matrix(1.00, 0.00, -0.00, -1.00, 92.6, 2.7)"> </text><text xml:space="preserve" font-family="Helvetica,Helvetica" font-size="64.0" fill="#FFFFFF" transform="matrix(1.00, 0.00, -0.00, -1.00, 109.3, 2.7)">Y</text><text xml:space="preserve" font-family="Helvetica,Helvetica" font-size="64.0" fill="#FFFFFF" transform="matrix(1.00, 0.00, -0.00, -1.00, 146.1, 2.7)">o</text><text xml:space="preserve" font-family="Helvetica,Helvetica" font-size="64.0" fill="#FFFFFF" transform="matrix(1.00, 0.00, -0.00, -1.00, 181.7, 2.7)">u</text><text xml:space="preserve" font-family="Helvetica,Helvetica" font-size="64.0" fill="#FFFFFF" transform="matrix(1.00, 0.00, -0.00, -1.00, 217.3, 2.7)">r</text><text xml:space="preserve" font-family="Helvetica,Helvetica" font-size="64.0" fill="#FFFFFF" transform="matrix(1.00, 0.00, -0.00, -1.00, 238.6, 2.7)"> </text><text xml:space="preserve" font-family="Helvetica,Helvetica" font-size="64.0" fill="#FFFFFF" transform="matrix(1.00, 0.00, -0.00, -1.00, 255.3, 2.7)">T</text><text xml:space="preserve" font-family="Helvetica,Helvetica" font-size="64.0" fill="#FFFFFF" transform="matrix(1.00, 0.00, -0.00, -1.00, 292.0, 2.7)">i</text><text xml:space="preserve" font-family="Helvetica,Helvetica" font-size="64.0" fill="#FFFFFF" transform="matrix(1.00, 0.00, -0.00, -1.00, 306.2, 2.7)">m</text><text xml:space="preserve" font-family="Helvetica,Helvetica" font-size="64.0" fill="#FFFFFF" transform="matrix(1.00, 0.00, -0.00, -1.00, 359.5, 2.7)">e</text><text xml:space="preserve" font-family="Helvetica,Helvetica" font-size="64.0" fill="#FFFFFF" transform="matrix(1.00, 0.00, -0.00, -1.00, 395.1, 2.7)"> </text><text xml:space="preserve" font-family="Helvetica,Helvetica" font-size="64.0" fill="#FFFFFF" transform="matrix(1.00, 0.00, -0.00, -1.00, 412.9, 2.7)">&amp;</text><text xml:space="preserve" font-family="Helvetica,Helvetica" font-size="64.0" fill="#FFFFFF" transform="matrix(1.00, 0.00, -0.00, -1.00, 455.6, 2.7)"> </text><text xml:space="preserve" font-family="Helvetica,Helvetica" font-size="64.0" fill="#FFFFFF" transform="matrix(1.00, 0.00, -0.00, -1.00, 469.9, 2.7)">A</text><text xml:space="preserve" font-family="Helvetica,Helvetica" font-size="64.0" fill="#FFFFFF" transform="matrix(1.00, 0.00, -0.00, -1.00, 512.6, 2.7)">t</text><text xml:space="preserve" font-family="Helvetica,Helvetica" font-size="64.0" fill="#FFFFFF" transform="matrix(1.00, 0.00, -0.00, -1.00, 530.3, 2.7)">t</text><text xml:space="preserve" font-family="Helvetica,Helvetica" font-size="64.0" fill="#FFFFFF" transform="matrix(1.00, 0.00, -0.00, -1.00, 548.1, 2.7)">e</text><text xml:space="preserve" font-family="Helvetica,Helvetica" font-size="64.0" fill="#FFFFFF" transform="matrix(1.00, 0.00, -0.00, -1.00, 583.7, 2.7)">n</text><text xml:space="preserve" font-family="Helvetica,Helvetica" font-size="64.0" fill="#FFFFFF" transform="matrix(1.00, 0.00, -0.00, -1.00, 619.3, 2.7)">t</text><text xml:space="preserve" font-family="Helvetica,Helvetica" font-size="64.0" fill="#FFFFFF" transform="matrix(1.00, 0.00, -0.00, -1.00, 637.1, 2.7)">i</text><text xml:space="preserve" font-family="Helvetica,Helvetica" font-size="64.0" fill="#FFFFFF" transform="matrix(1.00, 0.00, -0.00, -1.00, 651.3, 2.7)">o</text><text xml:space="preserve" font-family="Helvetica,Helvetica" font-size="64.0" fill="#FFFFFF" transform="matrix(1.00, 0.00, -0.00, -1.00, 686.9, 2.7)">n</text><text xml:space="preserve" font-family="Helvetica,Helvetica" font-size="64.0" fill="#FFFFFF" transform="matrix(1.00, 0.00, -0.00, -1.00, 722.5, 2.7)">!</text></g></svg>