<?xml version="1.0" encoding="UTF-8" standalone="no"?><svg xmlns="http://www.w3.org/2000/svg" xmlns:xlink="http://www.w3.org/1999/xlink" clip-rule="evenodd" stroke-miterlimit="10" viewBox="0 0 129 129"><desc>SVG generated by Keynote</desc><defs></defs><g transform="matrix(1.00, 0.00, -0.00, -1.00, 0.0, 129.0)"><g><clipPath id="clip0x6080012be960"><path d="M 1.0 1.0 L 128.0 1.0 L 128.0 128.0 L 1.0 128.0 Z M 1.0 1.0 "></path></clipPath><g clip-path="url(#clip0x6080012be960)"><path d="M 108.0 108.0 C 132.0 84.0 132.0 45.0 108.0 21.0 C 84.0 -3.0 45.0 -3.0 21.0 21.0 C -3.0 45.0 -3.0 84.0 21.0 108.0 C 45.0 132.0 84.0 132.0 108.0 108.0 " fill="#F9F9F9"></path><path d="M 105.0 18.0 C 129.0 42.0 129.0 81.0 105.0 105.0 C 81.0 129.0 42.0 129.0 18.0 105.0 C -6.0 81.0 -6.0 42.0 18.0 18.0 C 42.0 -6.0 81.0 -6.0 105.0 18.0 " fill="none" stroke="#000000" stroke-opacity="0.00" stroke-width="2.00" transform="matrix(1.00, 0.00, 0.00, -1.00, 3.0, 126.0)"></path></g></g><g><clipPath id="clip0x608002abe360"><path d="M 100.5 100.3 C 120.4 80.4 120.4 48.2 100.5 28.3 C 80.6 8.4 48.4 8.4 28.5 28.3 C 8.6 48.2 8.6 80.4 28.5 100.3 C 48.4 120.2 80.6 120.2 100.5 100.3 "></path></clipPath><g clip-path="url(#clip0x608002abe360)"><g><clipPath id="clip0x608002cb8120"><path d="M 13.6 13.4 L 115.4 13.4 L 115.4 115.2 L 13.6 115.2 Z M 13.6 13.4 "></path></clipPath><g clip-path="url(#clip0x608002cb8120)"><image xlink:href="../../0E211CAB-BAE8-4986-BAB5-3D70D90B0A7B/assets/12D568A5F9ACEE9E63DC90D669C85751.png" width="1920.00" height="1080.00" transform="matrix(0.09, 0.00, -0.00, -0.09, -26.0, 115.0)"></image></g></g></g></g></g></svg>