<?xml version="1.0" encoding="UTF-8" standalone="no"?><svg xmlns="http://www.w3.org/2000/svg" xmlns:xlink="http://www.w3.org/1999/xlink" clip-rule="evenodd" stroke-miterlimit="10" viewBox="0 0 53 53"><desc>SVG generated by Keynote</desc><defs></defs><g transform="matrix(1.00, 0.00, -0.00, -1.00, 0.0, 53.0)"><g><clipPath id="clip0x6000010a6d20"><path d="M 0.5 0.5 L 52.5 0.5 L 52.5 52.5 L 0.5 52.5 Z M 0.5 0.5 "></path></clipPath><g clip-path="url(#clip0x6000010a6d20)"><path d="M 41.7 41.7 C 50.1 33.3 50.1 19.7 41.7 11.3 C 33.3 2.9 19.7 2.9 11.3 11.3 C 2.9 19.7 2.9 33.3 11.3 41.7 C 19.7 50.1 33.3 50.1 41.7 41.7 " fill="#337EB2"></path><path d="M 36.7 6.3 C 45.1 14.7 45.1 28.3 36.7 36.7 C 28.3 45.1 14.7 45.1 6.3 36.7 C -2.1 28.3 -2.1 14.7 6.3 6.3 C 14.7 -2.1 28.3 -2.1 36.7 6.3 " fill="none" stroke="#F9F9F9" stroke-width="7.00" transform="matrix(1.00, 0.00, 0.00, -1.00, 5.0, 48.0)"></path></g></g><g><clipPath id="clip0x6000010b7760"><path d="M 19.4 19.1 L 33.4 19.1 L 33.4 33.1 L 19.4 33.1 Z M 19.4 19.1 "></path></clipPath><g clip-path="url(#clip0x6000010b7760)"><g opacity="0.40"><g><clipPath id="clip0x600000ab17c0"><path d="M 20.0 20.0 L 33.0 20.0 L 33.0 33.0 L 20.0 33.0 Z M 20.0 20.0 "></path></clipPath><g clip-path="url(#clip0x600000ab17c0)"><path d="M 29.9 29.6 C 31.9 27.7 31.9 24.5 29.9 22.6 C 28.0 20.6 24.8 20.6 22.9 22.6 C 20.9 24.5 20.9 27.7 22.9 29.6 C 24.8 31.6 28.0 31.6 29.9 29.6 " fill="#000000"></path><path d="M 8.5 1.5 C 10.5 3.4 10.5 6.6 8.5 8.5 C 6.6 10.5 3.4 10.5 1.5 8.5 C -0.5 6.6 -0.5 3.4 1.5 1.5 C 3.4 -0.5 6.6 -0.5 8.5 1.5 " fill="none" stroke="#000000" stroke-width="2.00" transform="matrix(1.00, 0.00, 0.00, -1.00, 21.4, 31.1)"></path></g></g></g></g></g></g></svg>