<?xml version="1.0" encoding="UTF-8" standalone="no"?><svg xmlns="http://www.w3.org/2000/svg" xmlns:xlink="http://www.w3.org/1999/xlink" clip-rule="evenodd" stroke-miterlimit="10" viewBox="0 0 492 272"><desc>SVG generated by Keynote</desc><defs></defs><g transform="matrix(1.00, 0.00, -0.00, -1.00, 0.0, 272.0)"><text xml:space="preserve" font-family="Helvetica-Bold,Helvetica" font-weight="bold" font-size="26.0" fill="#222222" transform="matrix(1.00, 0.00, -0.00, -1.00, 1.0, 250.5)">W</text><text xml:space="preserve" font-family="Helvetica-Bold,Helvetica" font-weight="bold" font-size="26.0" fill="#222222" transform="matrix(1.00, 0.00, -0.00, -1.00, 25.5, 250.5)">E</text><text xml:space="preserve" font-family="Helvetica-Bold,Helvetica" font-weight="bold" font-size="26.0" fill="#222222" transform="matrix(1.00, 0.00, -0.00, -1.00, 42.9, 250.5)"> </text><text xml:space="preserve" font-family="Helvetica-Bold,Helvetica" font-weight="bold" font-size="26.0" fill="#222222" transform="matrix(1.00, 0.00, -0.00, -1.00, 50.1, 250.5)">B</text><text xml:space="preserve" font-family="Helvetica-Bold,Helvetica" font-weight="bold" font-size="26.0" fill="#222222" transform="matrix(1.00, 0.00, -0.00, -1.00, 68.9, 250.5)">R</text><text xml:space="preserve" font-family="Helvetica-Bold,Helvetica" font-weight="bold" font-size="26.0" fill="#222222" transform="matrix(1.00, 0.00, -0.00, -1.00, 87.7, 250.5)">I</text><text xml:space="preserve" font-family="Helvetica-Bold,Helvetica" font-weight="bold" font-size="26.0" fill="#222222" transform="matrix(1.00, 0.00, -0.00, -1.00, 94.9, 250.5)">N</text><text xml:space="preserve" font-family="Helvetica-Bold,Helvetica" font-weight="bold" font-size="26.0" fill="#222222" transform="matrix(1.00, 0.00, -0.00, -1.00, 113.7, 250.5)">G</text><text xml:space="preserve" font-family="Helvetica-Bold,Helvetica" font-weight="bold" font-size="26.0" fill="#222222" transform="matrix(1.00, 0.00, -0.00, -1.00, 133.9, 250.5)"> </text><text xml:space="preserve" font-family="Helvetica-Bold,Helvetica" font-weight="bold" font-size="26.0" fill="#222222" transform="matrix(1.00, 0.00, -0.00, -1.00, 141.1, 250.5)">P</text><text xml:space="preserve" font-family="Helvetica-Bold,Helvetica" font-weight="bold" font-size="26.0" fill="#222222" transform="matrix(1.00, 0.00, -0.00, -1.00, 158.4, 250.5)">R</text><text xml:space="preserve" font-family="Helvetica-Bold,Helvetica" font-weight="bold" font-size="26.0" fill="#222222" transform="matrix(1.00, 0.00, -0.00, -1.00, 177.2, 250.5)">E</text><text xml:space="preserve" font-family="Helvetica-Bold,Helvetica" font-weight="bold" font-size="26.0" fill="#222222" transform="matrix(1.00, 0.00, -0.00, -1.00, 194.6, 250.5)">S</text><text xml:space="preserve" font-family="Helvetica-Bold,Helvetica" font-weight="bold" font-size="26.0" fill="#222222" transform="matrix(1.00, 0.00, -0.00, -1.00, 211.9, 250.5)">E</text><text xml:space="preserve" font-family="Helvetica-Bold,Helvetica" font-weight="bold" font-size="26.0" fill="#222222" transform="matrix(1.00, 0.00, -0.00, -1.00, 229.2, 250.5)">N</text><text xml:space="preserve" font-family="Helvetica-Bold,Helvetica" font-weight="bold" font-size="26.0" fill="#222222" transform="matrix(1.00, 0.00, -0.00, -1.00, 248.0, 250.5)">T</text><text xml:space="preserve" font-family="Helvetica-Bold,Helvetica" font-weight="bold" font-size="26.0" fill="#222222" transform="matrix(1.00, 0.00, -0.00, -1.00, 262.0, 250.5)">A</text><text xml:space="preserve" font-family="Helvetica-Bold,Helvetica" font-weight="bold" font-size="26.0" fill="#222222" transform="matrix(1.00, 0.00, -0.00, -1.00, 278.8, 250.5)">T</text><text xml:space="preserve" font-family="Helvetica-Bold,Helvetica" font-weight="bold" font-size="26.0" fill="#222222" transform="matrix(1.00, 0.00, -0.00, -1.00, 294.7, 250.5)">I</text><text xml:space="preserve" font-family="Helvetica-Bold,Helvetica" font-weight="bold" font-size="26.0" fill="#222222" transform="matrix(1.00, 0.00, -0.00, -1.00, 301.9, 250.5)">O</text><text xml:space="preserve" font-family="Helvetica-Bold,Helvetica" font-weight="bold" font-size="26.0" fill="#222222" transform="matrix(1.00, 0.00, -0.00, -1.00, 322.2, 250.5)">N</text><text xml:space="preserve" font-family="Helvetica-Bold,Helvetica" font-weight="bold" font-size="26.0" fill="#222222" transform="matrix(1.00, 0.00, -0.00, -1.00, 340.9, 250.5)"> </text><text xml:space="preserve" font-family="Helvetica-Bold,Helvetica" font-weight="bold" font-size="26.0" fill="#222222" transform="matrix(1.00, 0.00, -0.00, -1.00, 348.2, 250.5)">T</text><text xml:space="preserve" font-family="Helvetica-Bold,Helvetica" font-weight="bold" font-size="26.0" fill="#222222" transform="matrix(1.00, 0.00, -0.00, -1.00, 363.6, 250.5)">O</text><text xml:space="preserve" font-family="Helvetica-Bold,Helvetica" font-weight="bold" font-size="26.0" fill="#222222" transform="matrix(1.00, 0.00, -0.00, -1.00, 383.8, 250.5)"> </text><text xml:space="preserve" font-family="Helvetica-Bold,Helvetica" font-weight="bold" font-size="26.0" fill="#222222" transform="matrix(1.00, 0.00, -0.00, -1.00, 391.0, 250.5)">T</text><text xml:space="preserve" font-family="Helvetica-Bold,Helvetica" font-weight="bold" font-size="26.0" fill="#222222" transform="matrix(1.00, 0.00, -0.00, -1.00, 406.9, 250.5)">H</text><text xml:space="preserve" font-family="Helvetica-Bold,Helvetica" font-weight="bold" font-size="26.0" fill="#222222" transform="matrix(1.00, 0.00, -0.00, -1.00, 425.7, 250.5)">E</text><text xml:space="preserve" font-family="Helvetica-Bold,Helvetica" font-weight="bold" font-size="26.0" fill="#222222" transform="matrix(1.00, 0.00, -0.00, -1.00, 443.0, 250.5)"> </text><text xml:space="preserve" font-family="Helvetica-Bold,Helvetica" font-weight="bold" font-size="26.0" fill="#222222" transform="matrix(1.00, 0.00, -0.00, -1.00, 1.0, 219.5)">N</text><text xml:space="preserve" font-family="Helvetica-Bold,Helvetica" font-weight="bold" font-size="26.0" fill="#222222" transform="matrix(1.00, 0.00, -0.00, -1.00, 19.8, 219.5)">E</text><text xml:space="preserve" font-family="Helvetica-Bold,Helvetica" font-weight="bold" font-size="26.0" fill="#222222" transform="matrix(1.00, 0.00, -0.00, -1.00, 37.1, 219.5)">X</text><text xml:space="preserve" font-family="Helvetica-Bold,Helvetica" font-weight="bold" font-size="26.0" fill="#222222" transform="matrix(1.00, 0.00, -0.00, -1.00, 54.5, 219.5)">T</text><text xml:space="preserve" font-family="Helvetica-Bold,Helvetica" font-weight="bold" font-size="26.0" fill="#222222" transform="matrix(1.00, 0.00, -0.00, -1.00, 70.3, 219.5)"> </text><text xml:space="preserve" font-family="Helvetica-Bold,Helvetica" font-weight="bold" font-size="26.0" fill="#222222" transform="matrix(1.00, 0.00, -0.00, -1.00, 77.6, 219.5)">L</text><text xml:space="preserve" font-family="Helvetica-Bold,Helvetica" font-weight="bold" font-size="26.0" fill="#222222" transform="matrix(1.00, 0.00, -0.00, -1.00, 93.4, 219.5)">E</text><text xml:space="preserve" font-family="Helvetica-Bold,Helvetica" font-weight="bold" font-size="26.0" fill="#222222" transform="matrix(1.00, 0.00, -0.00, -1.00, 110.8, 219.5)">V</text><text xml:space="preserve" font-family="Helvetica-Bold,Helvetica" font-weight="bold" font-size="26.0" fill="#222222" transform="matrix(1.00, 0.00, -0.00, -1.00, 128.1, 219.5)">E</text><text xml:space="preserve" font-family="Helvetica-Bold,Helvetica" font-weight="bold" font-size="26.0" fill="#222222" transform="matrix(1.00, 0.00, -0.00, -1.00, 145.5, 219.5)">L</text><text xml:space="preserve" font-family="Helvetica,Helvetica" font-size="26.0" fill="#222222" transform="matrix(1.00, 0.00, -0.00, -1.00, 1.0, 157.5)">E</text><text xml:space="preserve" font-family="Helvetica,Helvetica" font-size="26.0" fill="#222222" transform="matrix(1.00, 0.00, -0.00, -1.00, 18.3, 157.5)">t</text><text xml:space="preserve" font-family="Helvetica,Helvetica" font-size="26.0" fill="#222222" transform="matrix(1.00, 0.00, -0.00, -1.00, 25.6, 157.5)">i</text><text xml:space="preserve" font-family="Helvetica,Helvetica" font-size="26.0" fill="#222222" transform="matrix(1.00, 0.00, -0.00, -1.00, 31.3, 157.5)">a</text><text xml:space="preserve" font-family="Helvetica,Helvetica" font-size="26.0" fill="#222222" transform="matrix(1.00, 0.00, -0.00, -1.00, 45.8, 157.5)">m</text><text xml:space="preserve" font-family="Helvetica,Helvetica" font-size="26.0" fill="#222222" transform="matrix(1.00, 0.00, -0.00, -1.00, 67.5, 157.5)"> </text><text xml:space="preserve" font-family="Helvetica,Helvetica" font-size="26.0" fill="#222222" transform="matrix(1.00, 0.00, -0.00, -1.00, 74.7, 157.5)">p</text><text xml:space="preserve" font-family="Helvetica,Helvetica" font-size="26.0" fill="#222222" transform="matrix(1.00, 0.00, -0.00, -1.00, 89.1, 157.5)">o</text><text xml:space="preserve" font-family="Helvetica,Helvetica" font-size="26.0" fill="#222222" transform="matrix(1.00, 0.00, -0.00, -1.00, 103.6, 157.5)">r</text><text xml:space="preserve" font-family="Helvetica,Helvetica" font-size="26.0" fill="#222222" transform="matrix(1.00, 0.00, -0.00, -1.00, 112.3, 157.5)">t</text><text xml:space="preserve" font-family="Helvetica,Helvetica" font-size="26.0" fill="#222222" transform="matrix(1.00, 0.00, -0.00, -1.00, 119.5, 157.5)">a</text><text xml:space="preserve" font-family="Helvetica,Helvetica" font-size="26.0" fill="#222222" transform="matrix(1.00, 0.00, -0.00, -1.00, 134.0, 157.5)"> </text><text xml:space="preserve" font-family="Helvetica,Helvetica" font-size="26.0" fill="#222222" transform="matrix(1.00, 0.00, -0.00, -1.00, 141.2, 157.5)">s</text><text xml:space="preserve" font-family="Helvetica,Helvetica" font-size="26.0" fill="#222222" transform="matrix(1.00, 0.00, -0.00, -1.00, 154.2, 157.5)">e</text><text xml:space="preserve" font-family="Helvetica,Helvetica" font-size="26.0" fill="#222222" transform="matrix(1.00, 0.00, -0.00, -1.00, 168.6, 157.5)">m</text><text xml:space="preserve" font-family="Helvetica,Helvetica" font-size="26.0" fill="#222222" transform="matrix(1.00, 0.00, -0.00, -1.00, 190.3, 157.5)"> </text><text xml:space="preserve" font-family="Helvetica,Helvetica" font-size="26.0" fill="#222222" transform="matrix(1.00, 0.00, -0.00, -1.00, 197.5, 157.5)">m</text><text xml:space="preserve" font-family="Helvetica,Helvetica" font-size="26.0" fill="#222222" transform="matrix(1.00, 0.00, -0.00, -1.00, 219.2, 157.5)">a</text><text xml:space="preserve" font-family="Helvetica,Helvetica" font-size="26.0" fill="#222222" transform="matrix(1.00, 0.00, -0.00, -1.00, 233.6, 157.5)">l</text><text xml:space="preserve" font-family="Helvetica,Helvetica" font-size="26.0" fill="#222222" transform="matrix(1.00, 0.00, -0.00, -1.00, 239.4, 157.5)">e</text><text xml:space="preserve" font-family="Helvetica,Helvetica" font-size="26.0" fill="#222222" transform="matrix(1.00, 0.00, -0.00, -1.00, 253.9, 157.5)">s</text><text xml:space="preserve" font-family="Helvetica,Helvetica" font-size="26.0" fill="#222222" transform="matrix(1.00, 0.00, -0.00, -1.00, 266.9, 157.5)">u</text><text xml:space="preserve" font-family="Helvetica,Helvetica" font-size="26.0" fill="#222222" transform="matrix(1.00, 0.00, -0.00, -1.00, 281.4, 157.5)">a</text><text xml:space="preserve" font-family="Helvetica,Helvetica" font-size="26.0" fill="#222222" transform="matrix(1.00, 0.00, -0.00, -1.00, 295.8, 157.5)">d</text><text xml:space="preserve" font-family="Helvetica,Helvetica" font-size="26.0" fill="#222222" transform="matrix(1.00, 0.00, -0.00, -1.00, 310.3, 157.5)">a</text><text xml:space="preserve" font-family="Helvetica,Helvetica" font-size="26.0" fill="#222222" transform="matrix(1.00, 0.00, -0.00, -1.00, 324.7, 157.5)"> </text><text xml:space="preserve" font-family="Helvetica,Helvetica" font-size="26.0" fill="#222222" transform="matrix(1.00, 0.00, -0.00, -1.00, 332.0, 157.5)">m</text><text xml:space="preserve" font-family="Helvetica,Helvetica" font-size="26.0" fill="#222222" transform="matrix(1.00, 0.00, -0.00, -1.00, 353.6, 157.5)">a</text><text xml:space="preserve" font-family="Helvetica,Helvetica" font-size="26.0" fill="#222222" transform="matrix(1.00, 0.00, -0.00, -1.00, 368.1, 157.5)">g</text><text xml:space="preserve" font-family="Helvetica,Helvetica" font-size="26.0" fill="#222222" transform="matrix(1.00, 0.00, -0.00, -1.00, 382.6, 157.5)">n</text><text xml:space="preserve" font-family="Helvetica,Helvetica" font-size="26.0" fill="#222222" transform="matrix(1.00, 0.00, -0.00, -1.00, 397.0, 157.5)">a</text><text xml:space="preserve" font-family="Helvetica,Helvetica" font-size="26.0" fill="#222222" transform="matrix(1.00, 0.00, -0.00, -1.00, 411.5, 157.5)"> </text><text xml:space="preserve" font-family="Helvetica,Helvetica" font-size="26.0" fill="#222222" transform="matrix(1.00, 0.00, -0.00, -1.00, 418.7, 157.5)">m</text><text xml:space="preserve" font-family="Helvetica,Helvetica" font-size="26.0" fill="#222222" transform="matrix(1.00, 0.00, -0.00, -1.00, 440.4, 157.5)">o</text><text xml:space="preserve" font-family="Helvetica,Helvetica" font-size="26.0" fill="#222222" transform="matrix(1.00, 0.00, -0.00, -1.00, 454.8, 157.5)">l</text><text xml:space="preserve" font-family="Helvetica,Helvetica" font-size="26.0" fill="#222222" transform="matrix(1.00, 0.00, -0.00, -1.00, 460.6, 157.5)">l</text><text xml:space="preserve" font-family="Helvetica,Helvetica" font-size="26.0" fill="#222222" transform="matrix(1.00, 0.00, -0.00, -1.00, 466.4, 157.5)">i</text><text xml:space="preserve" font-family="Helvetica,Helvetica" font-size="26.0" fill="#222222" transform="matrix(1.00, 0.00, -0.00, -1.00, 472.2, 157.5)">s</text><text xml:space="preserve" font-family="Helvetica,Helvetica" font-size="26.0" fill="#222222" transform="matrix(1.00, 0.00, -0.00, -1.00, 485.2, 157.5)"> </text><text xml:space="preserve" font-family="Helvetica,Helvetica" font-size="26.0" fill="#222222" transform="matrix(1.00, 0.00, -0.00, -1.00, 1.0, 126.5)">e</text><text xml:space="preserve" font-family="Helvetica,Helvetica" font-size="26.0" fill="#222222" transform="matrix(1.00, 0.00, -0.00, -1.00, 15.5, 126.5)">u</text><text xml:space="preserve" font-family="Helvetica,Helvetica" font-size="26.0" fill="#222222" transform="matrix(1.00, 0.00, -0.00, -1.00, 29.9, 126.5)">i</text><text xml:space="preserve" font-family="Helvetica,Helvetica" font-size="26.0" fill="#222222" transform="matrix(1.00, 0.00, -0.00, -1.00, 35.7, 126.5)">s</text><text xml:space="preserve" font-family="Helvetica,Helvetica" font-size="26.0" fill="#222222" transform="matrix(1.00, 0.00, -0.00, -1.00, 48.7, 126.5)">m</text><text xml:space="preserve" font-family="Helvetica,Helvetica" font-size="26.0" fill="#222222" transform="matrix(1.00, 0.00, -0.00, -1.00, 70.4, 126.5)">o</text><text xml:space="preserve" font-family="Helvetica,Helvetica" font-size="26.0" fill="#222222" transform="matrix(1.00, 0.00, -0.00, -1.00, 84.8, 126.5)">d</text><text xml:space="preserve" font-family="Helvetica,Helvetica" font-size="26.0" fill="#222222" transform="matrix(1.00, 0.00, -0.00, -1.00, 99.3, 126.5)">.</text><text xml:space="preserve" font-family="Helvetica,Helvetica" font-size="26.0" fill="#222222" transform="matrix(1.00, 0.00, -0.00, -1.00, 106.5, 126.5)"> </text><text xml:space="preserve" font-family="Helvetica,Helvetica" font-size="26.0" fill="#222222" transform="matrix(1.00, 0.00, -0.00, -1.00, 113.7, 126.5)">C</text><text xml:space="preserve" font-family="Helvetica,Helvetica" font-size="26.0" fill="#222222" transform="matrix(1.00, 0.00, -0.00, -1.00, 132.5, 126.5)">u</text><text xml:space="preserve" font-family="Helvetica,Helvetica" font-size="26.0" fill="#222222" transform="matrix(1.00, 0.00, -0.00, -1.00, 147.0, 126.5)">m</text><text xml:space="preserve" font-family="Helvetica,Helvetica" font-size="26.0" fill="#222222" transform="matrix(1.00, 0.00, -0.00, -1.00, 168.6, 126.5)"> </text><text xml:space="preserve" font-family="Helvetica,Helvetica" font-size="26.0" fill="#222222" transform="matrix(1.00, 0.00, -0.00, -1.00, 175.9, 126.5)">s</text><text xml:space="preserve" font-family="Helvetica,Helvetica" font-size="26.0" fill="#222222" transform="matrix(1.00, 0.00, -0.00, -1.00, 188.9, 126.5)">o</text><text xml:space="preserve" font-family="Helvetica,Helvetica" font-size="26.0" fill="#222222" transform="matrix(1.00, 0.00, -0.00, -1.00, 203.3, 126.5)">c</text><text xml:space="preserve" font-family="Helvetica,Helvetica" font-size="26.0" fill="#222222" transform="matrix(1.00, 0.00, -0.00, -1.00, 216.3, 126.5)">i</text><text xml:space="preserve" font-family="Helvetica,Helvetica" font-size="26.0" fill="#222222" transform="matrix(1.00, 0.00, -0.00, -1.00, 222.1, 126.5)">i</text><text xml:space="preserve" font-family="Helvetica,Helvetica" font-size="26.0" fill="#222222" transform="matrix(1.00, 0.00, -0.00, -1.00, 227.9, 126.5)">s</text><text xml:space="preserve" font-family="Helvetica,Helvetica" font-size="26.0" fill="#222222" transform="matrix(1.00, 0.00, -0.00, -1.00, 240.9, 126.5)"> </text><text xml:space="preserve" font-family="Helvetica,Helvetica" font-size="26.0" fill="#222222" transform="matrix(1.00, 0.00, -0.00, -1.00, 248.1, 126.5)">n</text><text xml:space="preserve" font-family="Helvetica,Helvetica" font-size="26.0" fill="#222222" transform="matrix(1.00, 0.00, -0.00, -1.00, 262.6, 126.5)">a</text><text xml:space="preserve" font-family="Helvetica,Helvetica" font-size="26.0" fill="#222222" transform="matrix(1.00, 0.00, -0.00, -1.00, 277.0, 126.5)">t</text><text xml:space="preserve" font-family="Helvetica,Helvetica" font-size="26.0" fill="#222222" transform="matrix(1.00, 0.00, -0.00, -1.00, 284.3, 126.5)">o</text><text xml:space="preserve" font-family="Helvetica,Helvetica" font-size="26.0" fill="#222222" transform="matrix(1.00, 0.00, -0.00, -1.00, 298.7, 126.5)">q</text><text xml:space="preserve" font-family="Helvetica,Helvetica" font-size="26.0" fill="#222222" transform="matrix(1.00, 0.00, -0.00, -1.00, 313.2, 126.5)">u</text><text xml:space="preserve" font-family="Helvetica,Helvetica" font-size="26.0" fill="#222222" transform="matrix(1.00, 0.00, -0.00, -1.00, 327.7, 126.5)">e</text><text xml:space="preserve" font-family="Helvetica,Helvetica" font-size="26.0" fill="#222222" transform="matrix(1.00, 0.00, -0.00, -1.00, 342.1, 126.5)"> </text><text xml:space="preserve" font-family="Helvetica,Helvetica" font-size="26.0" fill="#222222" transform="matrix(1.00, 0.00, -0.00, -1.00, 349.3, 126.5)">p</text><text xml:space="preserve" font-family="Helvetica,Helvetica" font-size="26.0" fill="#222222" transform="matrix(1.00, 0.00, -0.00, -1.00, 363.8, 126.5)">e</text><text xml:space="preserve" font-family="Helvetica,Helvetica" font-size="26.0" fill="#222222" transform="matrix(1.00, 0.00, -0.00, -1.00, 378.3, 126.5)">n</text><text xml:space="preserve" font-family="Helvetica,Helvetica" font-size="26.0" fill="#222222" transform="matrix(1.00, 0.00, -0.00, -1.00, 392.7, 126.5)">a</text><text xml:space="preserve" font-family="Helvetica,Helvetica" font-size="26.0" fill="#222222" transform="matrix(1.00, 0.00, -0.00, -1.00, 407.2, 126.5)">t</text><text xml:space="preserve" font-family="Helvetica,Helvetica" font-size="26.0" fill="#222222" transform="matrix(1.00, 0.00, -0.00, -1.00, 414.4, 126.5)">i</text><text xml:space="preserve" font-family="Helvetica,Helvetica" font-size="26.0" fill="#222222" transform="matrix(1.00, 0.00, -0.00, -1.00, 420.2, 126.5)">b</text><text xml:space="preserve" font-family="Helvetica,Helvetica" font-size="26.0" fill="#222222" transform="matrix(1.00, 0.00, -0.00, -1.00, 434.7, 126.5)">u</text><text xml:space="preserve" font-family="Helvetica,Helvetica" font-size="26.0" fill="#222222" transform="matrix(1.00, 0.00, -0.00, -1.00, 449.1, 126.5)">s</text><text xml:space="preserve" font-family="Helvetica,Helvetica" font-size="26.0" fill="#222222" transform="matrix(1.00, 0.00, -0.00, -1.00, 462.1, 126.5)"> </text><text xml:space="preserve" font-family="Helvetica,Helvetica" font-size="26.0" fill="#222222" transform="matrix(1.00, 0.00, -0.00, -1.00, 469.3, 126.5)">e</text><text xml:space="preserve" font-family="Helvetica,Helvetica" font-size="26.0" fill="#222222" transform="matrix(1.00, 0.00, -0.00, -1.00, 483.8, 126.5)">t</text><text xml:space="preserve" font-family="Helvetica,Helvetica" font-size="26.0" fill="#222222" transform="matrix(1.00, 0.00, -0.00, -1.00, 491.0, 126.5)"> </text><text xml:space="preserve" font-family="Helvetica,Helvetica" font-size="26.0" fill="#222222" transform="matrix(1.00, 0.00, -0.00, -1.00, 1.0, 95.5)">m</text><text xml:space="preserve" font-family="Helvetica,Helvetica" font-size="26.0" fill="#222222" transform="matrix(1.00, 0.00, -0.00, -1.00, 22.7, 95.5)">a</text><text xml:space="preserve" font-family="Helvetica,Helvetica" font-size="26.0" fill="#222222" transform="matrix(1.00, 0.00, -0.00, -1.00, 37.1, 95.5)">g</text><text xml:space="preserve" font-family="Helvetica,Helvetica" font-size="26.0" fill="#222222" transform="matrix(1.00, 0.00, -0.00, -1.00, 51.6, 95.5)">n</text><text xml:space="preserve" font-family="Helvetica,Helvetica" font-size="26.0" fill="#222222" transform="matrix(1.00, 0.00, -0.00, -1.00, 66.1, 95.5)">i</text><text xml:space="preserve" font-family="Helvetica,Helvetica" font-size="26.0" fill="#222222" transform="matrix(1.00, 0.00, -0.00, -1.00, 71.8, 95.5)">s</text><text xml:space="preserve" font-family="Helvetica,Helvetica" font-size="26.0" fill="#222222" transform="matrix(1.00, 0.00, -0.00, -1.00, 84.8, 95.5)"> </text><text xml:space="preserve" font-family="Helvetica,Helvetica" font-size="26.0" fill="#222222" transform="matrix(1.00, 0.00, -0.00, -1.00, 92.1, 95.5)">d</text><text xml:space="preserve" font-family="Helvetica,Helvetica" font-size="26.0" fill="#222222" transform="matrix(1.00, 0.00, -0.00, -1.00, 106.5, 95.5)">i</text><text xml:space="preserve" font-family="Helvetica,Helvetica" font-size="26.0" fill="#222222" transform="matrix(1.00, 0.00, -0.00, -1.00, 112.3, 95.5)">s</text><text xml:space="preserve" font-family="Helvetica,Helvetica" font-size="26.0" fill="#222222" transform="matrix(1.00, 0.00, -0.00, -1.00, 125.3, 95.5)"> </text><text xml:space="preserve" font-family="Helvetica,Helvetica" font-size="26.0" fill="#222222" transform="matrix(1.00, 0.00, -0.00, -1.00, 132.5, 95.5)">p</text><text xml:space="preserve" font-family="Helvetica,Helvetica" font-size="26.0" fill="#222222" transform="matrix(1.00, 0.00, -0.00, -1.00, 147.0, 95.5)">a</text><text xml:space="preserve" font-family="Helvetica,Helvetica" font-size="26.0" fill="#222222" transform="matrix(1.00, 0.00, -0.00, -1.00, 161.4, 95.5)">r</text><text xml:space="preserve" font-family="Helvetica,Helvetica" font-size="26.0" fill="#222222" transform="matrix(1.00, 0.00, -0.00, -1.00, 170.1, 95.5)">t</text><text xml:space="preserve" font-family="Helvetica,Helvetica" font-size="26.0" fill="#222222" transform="matrix(1.00, 0.00, -0.00, -1.00, 177.3, 95.5)">u</text><text xml:space="preserve" font-family="Helvetica,Helvetica" font-size="26.0" fill="#222222" transform="matrix(1.00, 0.00, -0.00, -1.00, 191.8, 95.5)">r</text><text xml:space="preserve" font-family="Helvetica,Helvetica" font-size="26.0" fill="#222222" transform="matrix(1.00, 0.00, -0.00, -1.00, 200.4, 95.5)">i</text><text xml:space="preserve" font-family="Helvetica,Helvetica" font-size="26.0" fill="#222222" transform="matrix(1.00, 0.00, -0.00, -1.00, 206.2, 95.5)">e</text><text xml:space="preserve" font-family="Helvetica,Helvetica" font-size="26.0" fill="#222222" transform="matrix(1.00, 0.00, -0.00, -1.00, 220.7, 95.5)">n</text><text xml:space="preserve" font-family="Helvetica,Helvetica" font-size="26.0" fill="#222222" transform="matrix(1.00, 0.00, -0.00, -1.00, 235.2, 95.5)">t</text><text xml:space="preserve" font-family="Helvetica,Helvetica" font-size="26.0" fill="#222222" transform="matrix(1.00, 0.00, -0.00, -1.00, 242.4, 95.5)"> </text><text xml:space="preserve" font-family="Helvetica,Helvetica" font-size="26.0" fill="#222222" transform="matrix(1.00, 0.00, -0.00, -1.00, 249.6, 95.5)">m</text><text xml:space="preserve" font-family="Helvetica,Helvetica" font-size="26.0" fill="#222222" transform="matrix(1.00, 0.00, -0.00, -1.00, 271.3, 95.5)">o</text><text xml:space="preserve" font-family="Helvetica,Helvetica" font-size="26.0" fill="#222222" transform="matrix(1.00, 0.00, -0.00, -1.00, 285.7, 95.5)">n</text><text xml:space="preserve" font-family="Helvetica,Helvetica" font-size="26.0" fill="#222222" transform="matrix(1.00, 0.00, -0.00, -1.00, 300.2, 95.5)">t</text><text xml:space="preserve" font-family="Helvetica,Helvetica" font-size="26.0" fill="#222222" transform="matrix(1.00, 0.00, -0.00, -1.00, 307.4, 95.5)">e</text><text xml:space="preserve" font-family="Helvetica,Helvetica" font-size="26.0" fill="#222222" transform="matrix(1.00, 0.00, -0.00, -1.00, 321.9, 95.5)">s</text><text xml:space="preserve" font-family="Helvetica,Helvetica" font-size="26.0" fill="#222222" transform="matrix(1.00, 0.00, -0.00, -1.00, 334.9, 95.5)">.</text><text xml:space="preserve" font-family="Helvetica,Helvetica" font-size="26.0" fill="#222222" transform="matrix(1.00, 0.00, -0.00, -1.00, 342.1, 95.5)">E</text><text xml:space="preserve" font-family="Helvetica,Helvetica" font-size="26.0" fill="#222222" transform="matrix(1.00, 0.00, -0.00, -1.00, 359.4, 95.5)">t</text><text xml:space="preserve" font-family="Helvetica,Helvetica" font-size="26.0" fill="#222222" transform="matrix(1.00, 0.00, -0.00, -1.00, 366.6, 95.5)">i</text><text xml:space="preserve" font-family="Helvetica,Helvetica" font-size="26.0" fill="#222222" transform="matrix(1.00, 0.00, -0.00, -1.00, 372.4, 95.5)">a</text><text xml:space="preserve" font-family="Helvetica,Helvetica" font-size="26.0" fill="#222222" transform="matrix(1.00, 0.00, -0.00, -1.00, 386.9, 95.5)">m</text><text xml:space="preserve" font-family="Helvetica,Helvetica" font-size="26.0" fill="#222222" transform="matrix(1.00, 0.00, -0.00, -1.00, 408.6, 95.5)"> </text><text xml:space="preserve" font-family="Helvetica,Helvetica" font-size="26.0" fill="#222222" transform="matrix(1.00, 0.00, -0.00, -1.00, 415.8, 95.5)">p</text><text xml:space="preserve" font-family="Helvetica,Helvetica" font-size="26.0" fill="#222222" transform="matrix(1.00, 0.00, -0.00, -1.00, 430.2, 95.5)">o</text><text xml:space="preserve" font-family="Helvetica,Helvetica" font-size="26.0" fill="#222222" transform="matrix(1.00, 0.00, -0.00, -1.00, 444.7, 95.5)">r</text><text xml:space="preserve" font-family="Helvetica,Helvetica" font-size="26.0" fill="#222222" transform="matrix(1.00, 0.00, -0.00, -1.00, 453.4, 95.5)">t</text><text xml:space="preserve" font-family="Helvetica,Helvetica" font-size="26.0" fill="#222222" transform="matrix(1.00, 0.00, -0.00, -1.00, 460.6, 95.5)">a</text><text xml:space="preserve" font-family="Helvetica,Helvetica" font-size="26.0" fill="#222222" transform="matrix(1.00, 0.00, -0.00, -1.00, 475.0, 95.5)"> </text><text xml:space="preserve" font-family="Helvetica,Helvetica" font-size="26.0" fill="#222222" transform="matrix(1.00, 0.00, -0.00, -1.00, 1.0, 64.5)">s</text><text xml:space="preserve" font-family="Helvetica,Helvetica" font-size="26.0" fill="#222222" transform="matrix(1.00, 0.00, -0.00, -1.00, 14.0, 64.5)">e</text><text xml:space="preserve" font-family="Helvetica,Helvetica" font-size="26.0" fill="#222222" transform="matrix(1.00, 0.00, -0.00, -1.00, 28.5, 64.5)">m</text><text xml:space="preserve" font-family="Helvetica,Helvetica" font-size="26.0" fill="#222222" transform="matrix(1.00, 0.00, -0.00, -1.00, 50.1, 64.5)"> </text><text xml:space="preserve" font-family="Helvetica,Helvetica" font-size="26.0" fill="#222222" transform="matrix(1.00, 0.00, -0.00, -1.00, 57.3, 64.5)">m</text><text xml:space="preserve" font-family="Helvetica,Helvetica" font-size="26.0" fill="#222222" transform="matrix(1.00, 0.00, -0.00, -1.00, 79.0, 64.5)">a</text><text xml:space="preserve" font-family="Helvetica,Helvetica" font-size="26.0" fill="#222222" transform="matrix(1.00, 0.00, -0.00, -1.00, 93.5, 64.5)">l</text><text xml:space="preserve" font-family="Helvetica,Helvetica" font-size="26.0" fill="#222222" transform="matrix(1.00, 0.00, -0.00, -1.00, 99.2, 64.5)">e</text><text xml:space="preserve" font-family="Helvetica,Helvetica" font-size="26.0" fill="#222222" transform="matrix(1.00, 0.00, -0.00, -1.00, 113.7, 64.5)">s</text><text xml:space="preserve" font-family="Helvetica,Helvetica" font-size="26.0" fill="#222222" transform="matrix(1.00, 0.00, -0.00, -1.00, 126.7, 64.5)">u</text><text xml:space="preserve" font-family="Helvetica,Helvetica" font-size="26.0" fill="#222222" transform="matrix(1.00, 0.00, -0.00, -1.00, 141.2, 64.5)">a</text><text xml:space="preserve" font-family="Helvetica,Helvetica" font-size="26.0" fill="#222222" transform="matrix(1.00, 0.00, -0.00, -1.00, 155.6, 64.5)">d</text><text xml:space="preserve" font-family="Helvetica,Helvetica" font-size="26.0" fill="#222222" transform="matrix(1.00, 0.00, -0.00, -1.00, 170.1, 64.5)">a</text><text xml:space="preserve" font-family="Helvetica,Helvetica" font-size="26.0" fill="#222222" transform="matrix(1.00, 0.00, -0.00, -1.00, 184.6, 64.5)"> </text><text xml:space="preserve" font-family="Helvetica,Helvetica" font-size="26.0" fill="#222222" transform="matrix(1.00, 0.00, -0.00, -1.00, 191.8, 64.5)">m</text><text xml:space="preserve" font-family="Helvetica,Helvetica" font-size="26.0" fill="#222222" transform="matrix(1.00, 0.00, -0.00, -1.00, 213.4, 64.5)">a</text><text xml:space="preserve" font-family="Helvetica,Helvetica" font-size="26.0" fill="#222222" transform="matrix(1.00, 0.00, -0.00, -1.00, 227.9, 64.5)">g</text><text xml:space="preserve" font-family="Helvetica,Helvetica" font-size="26.0" fill="#222222" transform="matrix(1.00, 0.00, -0.00, -1.00, 242.4, 64.5)">n</text><text xml:space="preserve" font-family="Helvetica,Helvetica" font-size="26.0" fill="#222222" transform="matrix(1.00, 0.00, -0.00, -1.00, 256.8, 64.5)">a</text><text xml:space="preserve" font-family="Helvetica,Helvetica" font-size="26.0" fill="#222222" transform="matrix(1.00, 0.00, -0.00, -1.00, 271.3, 64.5)"> </text><text xml:space="preserve" font-family="Helvetica,Helvetica" font-size="26.0" fill="#222222" transform="matrix(1.00, 0.00, -0.00, -1.00, 278.5, 64.5)">m</text><text xml:space="preserve" font-family="Helvetica,Helvetica" font-size="26.0" fill="#222222" transform="matrix(1.00, 0.00, -0.00, -1.00, 300.2, 64.5)">o</text><text xml:space="preserve" font-family="Helvetica,Helvetica" font-size="26.0" fill="#222222" transform="matrix(1.00, 0.00, -0.00, -1.00, 314.7, 64.5)">l</text><text xml:space="preserve" font-family="Helvetica,Helvetica" font-size="26.0" fill="#222222" transform="matrix(1.00, 0.00, -0.00, -1.00, 320.4, 64.5)">l</text><text xml:space="preserve" font-family="Helvetica,Helvetica" font-size="26.0" fill="#222222" transform="matrix(1.00, 0.00, -0.00, -1.00, 326.2, 64.5)">i</text><text xml:space="preserve" font-family="Helvetica,Helvetica" font-size="26.0" fill="#222222" transform="matrix(1.00, 0.00, -0.00, -1.00, 332.0, 64.5)">s</text><text xml:space="preserve" font-family="Helvetica,Helvetica" font-size="26.0" fill="#222222" transform="matrix(1.00, 0.00, -0.00, -1.00, 345.0, 64.5)"> </text><text xml:space="preserve" font-family="Helvetica,Helvetica" font-size="26.0" fill="#222222" transform="matrix(1.00, 0.00, -0.00, -1.00, 352.2, 64.5)">e</text><text xml:space="preserve" font-family="Helvetica,Helvetica" font-size="26.0" fill="#222222" transform="matrix(1.00, 0.00, -0.00, -1.00, 366.7, 64.5)">u</text><text xml:space="preserve" font-family="Helvetica,Helvetica" font-size="26.0" fill="#222222" transform="matrix(1.00, 0.00, -0.00, -1.00, 381.1, 64.5)">i</text><text xml:space="preserve" font-family="Helvetica,Helvetica" font-size="26.0" fill="#222222" transform="matrix(1.00, 0.00, -0.00, -1.00, 386.9, 64.5)">s</text><text xml:space="preserve" font-family="Helvetica,Helvetica" font-size="26.0" fill="#222222" transform="matrix(1.00, 0.00, -0.00, -1.00, 399.9, 64.5)">m</text><text xml:space="preserve" font-family="Helvetica,Helvetica" font-size="26.0" fill="#222222" transform="matrix(1.00, 0.00, -0.00, -1.00, 421.6, 64.5)">o</text><text xml:space="preserve" font-family="Helvetica,Helvetica" font-size="26.0" fill="#222222" transform="matrix(1.00, 0.00, -0.00, -1.00, 436.0, 64.5)">d</text><text xml:space="preserve" font-family="Helvetica,Helvetica" font-size="26.0" fill="#222222" transform="matrix(1.00, 0.00, -0.00, -1.00, 450.5, 64.5)">.</text><text xml:space="preserve" font-family="Helvetica,Helvetica" font-size="26.0" fill="#222222" transform="matrix(1.00, 0.00, -0.00, -1.00, 457.7, 64.5)"> </text><text xml:space="preserve" font-family="Helvetica,Helvetica" font-size="26.0" fill="#222222" transform="matrix(1.00, 0.00, -0.00, -1.00, 1.0, 33.5)">E</text><text xml:space="preserve" font-family="Helvetica,Helvetica" font-size="26.0" fill="#222222" transform="matrix(1.00, 0.00, -0.00, -1.00, 18.3, 33.5)">t</text><text xml:space="preserve" font-family="Helvetica,Helvetica" font-size="26.0" fill="#222222" transform="matrix(1.00, 0.00, -0.00, -1.00, 25.6, 33.5)">i</text><text xml:space="preserve" font-family="Helvetica,Helvetica" font-size="26.0" fill="#222222" transform="matrix(1.00, 0.00, -0.00, -1.00, 31.3, 33.5)">a</text><text xml:space="preserve" font-family="Helvetica,Helvetica" font-size="26.0" fill="#222222" transform="matrix(1.00, 0.00, -0.00, -1.00, 45.8, 33.5)">m</text><text xml:space="preserve" font-family="Helvetica,Helvetica" font-size="26.0" fill="#222222" transform="matrix(1.00, 0.00, -0.00, -1.00, 67.5, 33.5)"> </text><text xml:space="preserve" font-family="Helvetica,Helvetica" font-size="26.0" fill="#222222" transform="matrix(1.00, 0.00, -0.00, -1.00, 74.7, 33.5)">p</text><text xml:space="preserve" font-family="Helvetica,Helvetica" font-size="26.0" fill="#222222" transform="matrix(1.00, 0.00, -0.00, -1.00, 89.1, 33.5)">o</text><text xml:space="preserve" font-family="Helvetica,Helvetica" font-size="26.0" fill="#222222" transform="matrix(1.00, 0.00, -0.00, -1.00, 103.6, 33.5)">r</text><text xml:space="preserve" font-family="Helvetica,Helvetica" font-size="26.0" fill="#222222" transform="matrix(1.00, 0.00, -0.00, -1.00, 112.3, 33.5)">t</text><text xml:space="preserve" font-family="Helvetica,Helvetica" font-size="26.0" fill="#222222" transform="matrix(1.00, 0.00, -0.00, -1.00, 119.5, 33.5)">a</text><text xml:space="preserve" font-family="Helvetica,Helvetica" font-size="26.0" fill="#222222" transform="matrix(1.00, 0.00, -0.00, -1.00, 134.0, 33.5)"> </text><text xml:space="preserve" font-family="Helvetica,Helvetica" font-size="26.0" fill="#222222" transform="matrix(1.00, 0.00, -0.00, -1.00, 141.2, 33.5)">s</text><text xml:space="preserve" font-family="Helvetica,Helvetica" font-size="26.0" fill="#222222" transform="matrix(1.00, 0.00, -0.00, -1.00, 154.2, 33.5)">e</text><text xml:space="preserve" font-family="Helvetica,Helvetica" font-size="26.0" fill="#222222" transform="matrix(1.00, 0.00, -0.00, -1.00, 168.6, 33.5)">m</text><text xml:space="preserve" font-family="Helvetica,Helvetica" font-size="26.0" fill="#222222" transform="matrix(1.00, 0.00, -0.00, -1.00, 190.3, 33.5)"> </text><text xml:space="preserve" font-family="Helvetica,Helvetica" font-size="26.0" fill="#222222" transform="matrix(1.00, 0.00, -0.00, -1.00, 197.5, 33.5)">m</text><text xml:space="preserve" font-family="Helvetica,Helvetica" font-size="26.0" fill="#222222" transform="matrix(1.00, 0.00, -0.00, -1.00, 219.2, 33.5)">a</text><text xml:space="preserve" font-family="Helvetica,Helvetica" font-size="26.0" fill="#222222" transform="matrix(1.00, 0.00, -0.00, -1.00, 233.6, 33.5)">l</text><text xml:space="preserve" font-family="Helvetica,Helvetica" font-size="26.0" fill="#222222" transform="matrix(1.00, 0.00, -0.00, -1.00, 239.4, 33.5)">e</text><text xml:space="preserve" font-family="Helvetica,Helvetica" font-size="26.0" fill="#222222" transform="matrix(1.00, 0.00, -0.00, -1.00, 253.9, 33.5)">s</text><text xml:space="preserve" font-family="Helvetica,Helvetica" font-size="26.0" fill="#222222" transform="matrix(1.00, 0.00, -0.00, -1.00, 266.9, 33.5)">u</text><text xml:space="preserve" font-family="Helvetica,Helvetica" font-size="26.0" fill="#222222" transform="matrix(1.00, 0.00, -0.00, -1.00, 281.4, 33.5)">a</text><text xml:space="preserve" font-family="Helvetica,Helvetica" font-size="26.0" fill="#222222" transform="matrix(1.00, 0.00, -0.00, -1.00, 295.8, 33.5)">d</text><text xml:space="preserve" font-family="Helvetica,Helvetica" font-size="26.0" fill="#222222" transform="matrix(1.00, 0.00, -0.00, -1.00, 310.3, 33.5)">a</text><text xml:space="preserve" font-family="Helvetica,Helvetica" font-size="26.0" fill="#222222" transform="matrix(1.00, 0.00, -0.00, -1.00, 324.7, 33.5)"> </text><text xml:space="preserve" font-family="Helvetica,Helvetica" font-size="26.0" fill="#222222" transform="matrix(1.00, 0.00, -0.00, -1.00, 332.0, 33.5)">m</text><text xml:space="preserve" font-family="Helvetica,Helvetica" font-size="26.0" fill="#222222" transform="matrix(1.00, 0.00, -0.00, -1.00, 353.6, 33.5)">a</text><text xml:space="preserve" font-family="Helvetica,Helvetica" font-size="26.0" fill="#222222" transform="matrix(1.00, 0.00, -0.00, -1.00, 368.1, 33.5)">g</text><text xml:space="preserve" font-family="Helvetica,Helvetica" font-size="26.0" fill="#222222" transform="matrix(1.00, 0.00, -0.00, -1.00, 382.6, 33.5)">n</text><text xml:space="preserve" font-family="Helvetica,Helvetica" font-size="26.0" fill="#222222" transform="matrix(1.00, 0.00, -0.00, -1.00, 397.0, 33.5)">a</text><text xml:space="preserve" font-family="Helvetica,Helvetica" font-size="26.0" fill="#222222" transform="matrix(1.00, 0.00, -0.00, -1.00, 411.5, 33.5)"> </text><text xml:space="preserve" font-family="Helvetica,Helvetica" font-size="26.0" fill="#222222" transform="matrix(1.00, 0.00, -0.00, -1.00, 418.7, 33.5)">m</text><text xml:space="preserve" font-family="Helvetica,Helvetica" font-size="26.0" fill="#222222" transform="matrix(1.00, 0.00, -0.00, -1.00, 440.4, 33.5)">o</text><text xml:space="preserve" font-family="Helvetica,Helvetica" font-size="26.0" fill="#222222" transform="matrix(1.00, 0.00, -0.00, -1.00, 454.8, 33.5)">l</text><text xml:space="preserve" font-family="Helvetica,Helvetica" font-size="26.0" fill="#222222" transform="matrix(1.00, 0.00, -0.00, -1.00, 460.6, 33.5)">l</text><text xml:space="preserve" font-family="Helvetica,Helvetica" font-size="26.0" fill="#222222" transform="matrix(1.00, 0.00, -0.00, -1.00, 466.4, 33.5)">i</text><text xml:space="preserve" font-family="Helvetica,Helvetica" font-size="26.0" fill="#222222" transform="matrix(1.00, 0.00, -0.00, -1.00, 472.2, 33.5)">s</text><text xml:space="preserve" font-family="Helvetica,Helvetica" font-size="26.0" fill="#222222" transform="matrix(1.00, 0.00, -0.00, -1.00, 485.2, 33.5)"> </text><text xml:space="preserve" font-family="Helvetica,Helvetica" font-size="26.0" fill="#222222" transform="matrix(1.00, 0.00, -0.00, -1.00, 1.0, 2.5)">e</text><text xml:space="preserve" font-family="Helvetica,Helvetica" font-size="26.0" fill="#222222" transform="matrix(1.00, 0.00, -0.00, -1.00, 15.5, 2.5)">u</text><text xml:space="preserve" font-family="Helvetica,Helvetica" font-size="26.0" fill="#222222" transform="matrix(1.00, 0.00, -0.00, -1.00, 29.9, 2.5)">i</text><text xml:space="preserve" font-family="Helvetica,Helvetica" font-size="26.0" fill="#222222" transform="matrix(1.00, 0.00, -0.00, -1.00, 35.7, 2.5)">s</text><text xml:space="preserve" font-family="Helvetica,Helvetica" font-size="26.0" fill="#222222" transform="matrix(1.00, 0.00, -0.00, -1.00, 48.7, 2.5)">m</text><text xml:space="preserve" font-family="Helvetica,Helvetica" font-size="26.0" fill="#222222" transform="matrix(1.00, 0.00, -0.00, -1.00, 70.4, 2.5)">o</text><text xml:space="preserve" font-family="Helvetica,Helvetica" font-size="26.0" fill="#222222" transform="matrix(1.00, 0.00, -0.00, -1.00, 84.8, 2.5)">d</text><text xml:space="preserve" font-family="Helvetica,Helvetica" font-size="26.0" fill="#222222" transform="matrix(1.00, 0.00, -0.00, -1.00, 99.3, 2.5)">.</text></g></svg>