<?xml version="1.0" encoding="UTF-8" standalone="no"?><svg xmlns="http://www.w3.org/2000/svg" xmlns:xlink="http://www.w3.org/1999/xlink" clip-rule="evenodd" stroke-miterlimit="10" viewBox="0 0 680 569"><desc>SVG generated by Keynote</desc><defs></defs><g transform="matrix(1.00, 0.00, -0.00, -1.00, 0.0, 569.0)"><path d="M 265.5 98.5 L 265.5 527.5 " fill="none" stroke="#B8B8B8" stroke-width="1.00" transform="matrix(1.00, 0.00, 0.00, -1.00, 1.0, 567.5)"></path><path d="M 396.5 98.5 L 396.5 527.5 " fill="none" stroke="#B8B8B8" stroke-width="1.00" transform="matrix(1.00, 0.00, 0.00, -1.00, 1.0, 567.5)"></path><path d="M 526.5 98.5 L 526.5 527.5 " fill="none" stroke="#B8B8B8" stroke-width="1.00" transform="matrix(1.00, 0.00, 0.00, -1.00, 1.0, 567.5)"></path><path d="M 656.5 98.5 L 656.5 527.5 " fill="none" stroke="#B8B8B8" stroke-width="1.00" transform="matrix(1.00, 0.00, 0.00, -1.00, 1.0, 567.5)"></path><path d="M 135.5 527.0 L 135.5 98.0 " fill="none" stroke="#000000" stroke-width="1.00" stroke-linecap="square" transform="matrix(1.00, 0.00, 0.00, -1.00, 1.0, 567.5)"></path><g><clipPath id="clip0x608002ca8520"><path d="M 63.6 399.9 L 120.0 399.9 L 120.0 430.9 L 63.6 430.9 Z M 63.6 399.9 "></path></clipPath><g clip-path="url(#clip0x608002ca8520)"><text xml:space="preserve" font-family="Helvetica-Bold,Helvetica" font-weight="bold" font-size="24.0" fill="#000000" transform="matrix(1.00, 0.00, -0.00, -1.00, 65.1, 406.4)">2</text><text xml:space="preserve" font-family="Helvetica-Bold,Helvetica" font-weight="bold" font-size="24.0" fill="#000000" transform="matrix(1.00, 0.00, -0.00, -1.00, 78.5, 406.4)">0</text><text xml:space="preserve" font-family="Helvetica-Bold,Helvetica" font-weight="bold" font-size="24.0" fill="#000000" transform="matrix(1.00, 0.00, -0.00, -1.00, 91.8, 406.4)">0</text><text xml:space="preserve" font-family="Helvetica-Bold,Helvetica" font-weight="bold" font-size="24.0" fill="#000000" transform="matrix(1.00, 0.00, -0.00, -1.00, 105.2, 406.4)">7</text></g></g><g><clipPath id="clip0x6080026a08a0"><path d="M 63.6 292.6 L 120.0 292.6 L 120.0 323.6 L 63.6 323.6 Z M 63.6 292.6 "></path></clipPath><g clip-path="url(#clip0x6080026a08a0)"><text xml:space="preserve" font-family="Helvetica-Bold,Helvetica" font-weight="bold" font-size="24.0" fill="#000000" transform="matrix(1.00, 0.00, -0.00, -1.00, 65.1, 299.1)">2</text><text xml:space="preserve" font-family="Helvetica-Bold,Helvetica" font-weight="bold" font-size="24.0" fill="#000000" transform="matrix(1.00, 0.00, -0.00, -1.00, 78.5, 299.1)">0</text><text xml:space="preserve" font-family="Helvetica-Bold,Helvetica" font-weight="bold" font-size="24.0" fill="#000000" transform="matrix(1.00, 0.00, -0.00, -1.00, 91.8, 299.1)">0</text><text xml:space="preserve" font-family="Helvetica-Bold,Helvetica" font-weight="bold" font-size="24.0" fill="#000000" transform="matrix(1.00, 0.00, -0.00, -1.00, 105.2, 299.1)">8</text></g></g><g><clipPath id="clip0x6080024ac9c0"><path d="M 63.6 185.4 L 120.0 185.4 L 120.0 216.4 L 63.6 216.4 Z M 63.6 185.4 "></path></clipPath><g clip-path="url(#clip0x6080024ac9c0)"><text xml:space="preserve" font-family="Helvetica-Bold,Helvetica" font-weight="bold" font-size="24.0" fill="#000000" transform="matrix(1.00, 0.00, -0.00, -1.00, 65.1, 191.9)">2</text><text xml:space="preserve" font-family="Helvetica-Bold,Helvetica" font-weight="bold" font-size="24.0" fill="#000000" transform="matrix(1.00, 0.00, -0.00, -1.00, 78.5, 191.9)">0</text><text xml:space="preserve" font-family="Helvetica-Bold,Helvetica" font-weight="bold" font-size="24.0" fill="#000000" transform="matrix(1.00, 0.00, -0.00, -1.00, 91.8, 191.9)">0</text><text xml:space="preserve" font-family="Helvetica-Bold,Helvetica" font-weight="bold" font-size="24.0" fill="#000000" transform="matrix(1.00, 0.00, -0.00, -1.00, 105.2, 191.9)">9</text></g></g><g><clipPath id="clip0x6080024bf980"><path d="M 63.6 78.1 L 120.0 78.1 L 120.0 109.1 L 63.6 109.1 Z M 63.6 78.1 "></path></clipPath><g clip-path="url(#clip0x6080024bf980)"><text xml:space="preserve" font-family="Helvetica-Bold,Helvetica" font-weight="bold" font-size="24.0" fill="#000000" transform="matrix(1.00, 0.00, -0.00, -1.00, 65.1, 84.6)">2</text><text xml:space="preserve" font-family="Helvetica-Bold,Helvetica" font-weight="bold" font-size="24.0" fill="#000000" transform="matrix(1.00, 0.00, -0.00, -1.00, 78.5, 84.6)">0</text><text xml:space="preserve" font-family="Helvetica-Bold,Helvetica" font-weight="bold" font-size="24.0" fill="#000000" transform="matrix(1.00, 0.00, -0.00, -1.00, 91.8, 84.6)">1</text><text xml:space="preserve" font-family="Helvetica-Bold,Helvetica" font-weight="bold" font-size="24.0" fill="#000000" transform="matrix(1.00, 0.00, -0.00, -1.00, 105.2, 84.6)">0</text></g></g><g><clipPath id="clip0x6080024b4760"><path d="M 128.3 0.0 L 144.7 0.0 L 144.7 31.0 L 128.3 31.0 Z M 128.3 0.0 "></path></clipPath><g clip-path="url(#clip0x6080024b4760)"><text xml:space="preserve" font-family="Helvetica-Bold,Helvetica" font-weight="bold" font-size="24.0" fill="#000000" transform="matrix(1.00, 0.00, -0.00, -1.00, 129.8, 6.5)">0</text></g></g><g><clipPath id="clip0x608000ca7440"><path d="M 251.9 0.0 L 281.6 0.0 L 281.6 31.0 L 251.9 31.0 Z M 251.9 0.0 "></path></clipPath><g clip-path="url(#clip0x608000ca7440)"><text xml:space="preserve" font-family="Helvetica-Bold,Helvetica" font-weight="bold" font-size="24.0" fill="#000000" transform="matrix(1.00, 0.00, -0.00, -1.00, 253.4, 6.5)">2</text><text xml:space="preserve" font-family="Helvetica-Bold,Helvetica" font-weight="bold" font-size="24.0" fill="#000000" transform="matrix(1.00, 0.00, -0.00, -1.00, 266.8, 6.5)">5</text></g></g><g><clipPath id="clip0x6080014bc2c0"><path d="M 382.2 0.0 L 411.8 0.0 L 411.8 31.0 L 382.2 31.0 Z M 382.2 0.0 "></path></clipPath><g clip-path="url(#clip0x6080014bc2c0)"><text xml:space="preserve" font-family="Helvetica-Bold,Helvetica" font-weight="bold" font-size="24.0" fill="#000000" transform="matrix(1.00, 0.00, -0.00, -1.00, 383.7, 6.5)">5</text><text xml:space="preserve" font-family="Helvetica-Bold,Helvetica" font-weight="bold" font-size="24.0" fill="#000000" transform="matrix(1.00, 0.00, -0.00, -1.00, 397.0, 6.5)">0</text></g></g><g><clipPath id="clip0x6080014b6620"><path d="M 512.4 0.0 L 542.1 0.0 L 542.1 31.0 L 512.4 31.0 Z M 512.4 0.0 "></path></clipPath><g clip-path="url(#clip0x6080014b6620)"><text xml:space="preserve" font-family="Helvetica-Bold,Helvetica" font-weight="bold" font-size="24.0" fill="#000000" transform="matrix(1.00, 0.00, -0.00, -1.00, 513.9, 6.5)">7</text><text xml:space="preserve" font-family="Helvetica-Bold,Helvetica" font-weight="bold" font-size="24.0" fill="#000000" transform="matrix(1.00, 0.00, -0.00, -1.00, 527.3, 6.5)">5</text></g></g><g><clipPath id="clip0x6080010ab640"><path d="M 636.0 0.0 L 679.0 0.0 L 679.0 31.0 L 636.0 31.0 Z M 636.0 0.0 "></path></clipPath><g clip-path="url(#clip0x6080010ab640)"><text xml:space="preserve" font-family="Helvetica-Bold,Helvetica" font-weight="bold" font-size="24.0" fill="#000000" transform="matrix(1.00, 0.00, -0.00, -1.00, 637.5, 6.5)">1</text><text xml:space="preserve" font-family="Helvetica-Bold,Helvetica" font-weight="bold" font-size="24.0" fill="#000000" transform="matrix(1.00, 0.00, -0.00, -1.00, 650.8, 6.5)">0</text><text xml:space="preserve" font-family="Helvetica-Bold,Helvetica" font-weight="bold" font-size="24.0" fill="#000000" transform="matrix(1.00, 0.00, -0.00, -1.00, 664.2, 6.5)">0</text></g></g><g><clipPath id="clip0x608000ca4320"><path d="M 136.5 40.0 L 657.5 40.0 L 657.5 469.0 L 136.5 469.0 Z M 136.5 40.0 "></path></clipPath><g clip-path="url(#clip0x608000ca4320)"><path d="M 137.0 415.0 L 423.0 415.0 L 423.0 370.0 L 137.0 370.0 Z M 137.0 415.0 " fill="#41A3E8"></path></g></g><g><clipPath id="clip0x6080010b1700"><path d="M 136.5 40.0 L 657.5 40.0 L 657.5 469.0 L 136.5 469.0 Z M 136.5 40.0 "></path></clipPath><g clip-path="url(#clip0x6080010b1700)"><path d="M 137.0 308.0 L 361.0 308.0 L 361.0 263.0 L 137.0 263.0 Z M 137.0 308.0 " fill="#41A3E8"></path></g></g><g><clipPath id="clip0x6080010b1760"><path d="M 136.5 40.0 L 657.5 40.0 L 657.5 469.0 L 136.5 469.0 Z M 136.5 40.0 "></path></clipPath><g clip-path="url(#clip0x6080010b1760)"><path d="M 137.0 201.0 L 501.0 201.0 L 501.0 157.0 L 137.0 157.0 Z M 137.0 201.0 " fill="#41A3E8"></path></g></g><g><clipPath id="clip0x6080016a3120"><path d="M 136.5 40.0 L 657.5 40.0 L 657.5 469.0 L 136.5 469.0 Z M 136.5 40.0 "></path></clipPath><g clip-path="url(#clip0x6080016a3120)"><path d="M 137.0 94.0 L 439.0 94.0 L 439.0 50.0 L 137.0 50.0 Z M 137.0 94.0 " fill="#41A3E8"></path></g></g><g><clipPath id="clip0x6080014ac2a0"><path d="M 136.5 40.0 L 657.5 40.0 L 657.5 469.0 L 136.5 469.0 Z M 136.5 40.0 "></path></clipPath><g clip-path="url(#clip0x6080014ac2a0)"><path d="M 137.0 459.0 L 225.0 459.0 L 225.0 415.0 L 137.0 415.0 Z M 137.0 459.0 " fill="#2DCBB1"></path></g></g><g><clipPath id="clip0x6080014a1ec0"><path d="M 136.5 40.0 L 657.5 40.0 L 657.5 469.0 L 136.5 469.0 Z M 136.5 40.0 "></path></clipPath><g clip-path="url(#clip0x6080014a1ec0)"><path d="M 137.0 352.0 L 272.0 352.0 L 272.0 308.0 L 137.0 308.0 Z M 137.0 352.0 " fill="#2DCBB1"></path></g></g><g><clipPath id="clip0x608000eb8720"><path d="M 136.5 40.0 L 657.5 40.0 L 657.5 469.0 L 136.5 469.0 Z M 136.5 40.0 "></path></clipPath><g clip-path="url(#clip0x608000eb8720)"><path d="M 137.0 246.0 L 413.0 246.0 L 413.0 201.0 L 137.0 201.0 Z M 137.0 246.0 " fill="#2DCBB1"></path></g></g><g><clipPath id="clip0x6080010bd6a0"><path d="M 136.5 40.0 L 657.5 40.0 L 657.5 469.0 L 136.5 469.0 Z M 136.5 40.0 "></path></clipPath><g clip-path="url(#clip0x6080010bd6a0)"><path d="M 137.0 139.0 L 637.0 139.0 L 637.0 94.0 L 137.0 94.0 Z M 137.0 139.0 " fill="#2DCBB1"></path></g></g><path d="M 95.0 562.0 L 113.0 562.0 L 113.0 544.0 L 95.0 544.0 Z M 95.0 562.0 " fill="#2DCBB1"></path><text xml:space="preserve" font-family="Helvetica-Bold,Helvetica" font-weight="bold" font-size="24.0" fill="#000000" transform="matrix(1.00, 0.00, -0.00, -1.00, 127.8, 544.0)">R</text><text xml:space="preserve" font-family="Helvetica-Bold,Helvetica" font-weight="bold" font-size="24.0" fill="#000000" transform="matrix(1.00, 0.00, -0.00, -1.00, 145.1, 544.0)">e</text><text xml:space="preserve" font-family="Helvetica-Bold,Helvetica" font-weight="bold" font-size="24.0" fill="#000000" transform="matrix(1.00, 0.00, -0.00, -1.00, 158.5, 544.0)">g</text><text xml:space="preserve" font-family="Helvetica-Bold,Helvetica" font-weight="bold" font-size="24.0" fill="#000000" transform="matrix(1.00, 0.00, -0.00, -1.00, 173.1, 544.0)">i</text><text xml:space="preserve" font-family="Helvetica-Bold,Helvetica" font-weight="bold" font-size="24.0" fill="#000000" transform="matrix(1.00, 0.00, -0.00, -1.00, 179.8, 544.0)">o</text><text xml:space="preserve" font-family="Helvetica-Bold,Helvetica" font-weight="bold" font-size="24.0" fill="#000000" transform="matrix(1.00, 0.00, -0.00, -1.00, 194.5, 544.0)">n</text><text xml:space="preserve" font-family="Helvetica-Bold,Helvetica" font-weight="bold" font-size="24.0" fill="#000000" transform="matrix(1.00, 0.00, -0.00, -1.00, 209.1, 544.0)"> </text><text xml:space="preserve" font-family="Helvetica-Bold,Helvetica" font-weight="bold" font-size="24.0" fill="#000000" transform="matrix(1.00, 0.00, -0.00, -1.00, 215.8, 544.0)">1</text><path d="M 323.0 562.0 L 342.0 562.0 L 342.0 544.0 L 323.0 544.0 Z M 323.0 562.0 " fill="#41A3E8"></path><text xml:space="preserve" font-family="Helvetica-Bold,Helvetica" font-weight="bold" font-size="24.0" fill="#000000" transform="matrix(1.00, 0.00, -0.00, -1.00, 356.4, 544.0)">R</text><text xml:space="preserve" font-family="Helvetica-Bold,Helvetica" font-weight="bold" font-size="24.0" fill="#000000" transform="matrix(1.00, 0.00, -0.00, -1.00, 373.7, 544.0)">e</text><text xml:space="preserve" font-family="Helvetica-Bold,Helvetica" font-weight="bold" font-size="24.0" fill="#000000" transform="matrix(1.00, 0.00, -0.00, -1.00, 387.1, 544.0)">g</text><text xml:space="preserve" font-family="Helvetica-Bold,Helvetica" font-weight="bold" font-size="24.0" fill="#000000" transform="matrix(1.00, 0.00, -0.00, -1.00, 401.7, 544.0)">i</text><text xml:space="preserve" font-family="Helvetica-Bold,Helvetica" font-weight="bold" font-size="24.0" fill="#000000" transform="matrix(1.00, 0.00, -0.00, -1.00, 408.4, 544.0)">o</text><text xml:space="preserve" font-family="Helvetica-Bold,Helvetica" font-weight="bold" font-size="24.0" fill="#000000" transform="matrix(1.00, 0.00, -0.00, -1.00, 423.1, 544.0)">n</text><text xml:space="preserve" font-family="Helvetica-Bold,Helvetica" font-weight="bold" font-size="24.0" fill="#000000" transform="matrix(1.00, 0.00, -0.00, -1.00, 437.7, 544.0)"> </text><text xml:space="preserve" font-family="Helvetica-Bold,Helvetica" font-weight="bold" font-size="24.0" fill="#000000" transform="matrix(1.00, 0.00, -0.00, -1.00, 444.4, 544.0)">2</text></g></svg>